<?xml version="1.0" standalone="no"?>
<!DOCTYPE svg PUBLIC "-//W3C//DTD SVG 20010904//EN"
 "http://www.w3.org/TR/2001/REC-SVG-20010904/DTD/svg10.dtd">
<svg version="1.0" xmlns="http://www.w3.org/2000/svg"
 width="1386.000000pt" height="772.000000pt" viewBox="0 0 1386.000000 772.000000"
 preserveAspectRatio="xMidYMid meet">

<g transform="translate(0.000000,772.000000) scale(0.100000,-0.100000)"
fill="#000000" stroke="none">
<path d="M11465 7698 c-120 -10 -128 -13 -172 -54 -32 -29 -43 -34 -71 -30
-18 3 -49 -1 -70 -8 -24 -8 -57 -11 -92 -6 -46 5 -61 12 -92 43 l-36 37 -279
-4 c-153 -2 -323 -9 -378 -15 -55 -6 -111 -9 -125 -6 -40 8 -242 9 -277 1 -18
-4 -40 -3 -48 2 -11 5 -36 4 -68 -5 -28 -7 -99 -13 -157 -13 -58 0 -134 -5
-170 -12 -36 -6 -90 -10 -120 -8 -78 4 -522 3 -730 -2 -244 -6 -386 -15 -407
-26 -10 -5 -70 -10 -133 -10 -63 -1 -156 -4 -207 -7 -55 -3 -120 -1 -160 7
-66 11 -184 12 -288 2 -27 -3 -70 -4 -95 -3 -56 3 -392 0 -440 -4 -19 -2 -43
-7 -53 -11 -9 -5 -27 -6 -40 -3 -12 3 -39 0 -61 -8 -24 -8 -47 -10 -60 -5 -12
4 -44 5 -71 1 -75 -11 -160 -5 -188 13 -20 13 -54 17 -173 18 -82 0 -171 -3
-199 -6 -27 -4 -95 -9 -150 -10 -222 -7 -324 -15 -343 -25 -15 -8 -28 -8 -49
1 -49 20 -156 36 -182 26 -15 -5 -43 -5 -70 1 -59 13 -126 4 -147 -20 -9 -11
-27 -19 -40 -19 -39 0 -36 -18 3 -24 117 -16 152 -17 187 -2 34 14 42 14 97
-4 62 -19 114 -18 156 2 16 8 30 7 52 -1 19 -8 81 -12 183 -11 84 0 199 1 254
1 56 0 126 4 155 8 33 5 63 5 79 -1 15 -6 160 -10 365 -9 187 1 407 2 489 1
83 0 188 5 235 10 84 10 697 23 975 21 77 0 144 3 150 8 6 4 70 5 141 1 72 -4
144 -5 160 -3 17 3 84 6 150 7 121 3 231 10 340 23 33 3 209 8 390 10 472 5
568 8 582 16 32 20 705 28 739 9 12 -6 31 -27 41 -45 l20 -33 -76 0 c-179 -1
-497 -15 -533 -24 -37 -11 -96 -8 -130 5 -9 4 -22 4 -28 0 -6 -4 -109 -9 -228
-11 -119 -2 -262 -6 -317 -9 -150 -9 -355 -16 -395 -14 -133 5 -294 -1 -327
-12 -22 -8 -210 -15 -647 -23 -110 -2 -252 -7 -315 -11 -120 -7 -233 -12 -456
-21 -71 -2 -267 -4 -435 -4 -662 3 -1737 8 -1765 10 -16 0 -142 1 -279 0 -167
0 -253 3 -262 11 -9 8 -28 7 -69 -1 -56 -12 -152 -14 -280 -7 -38 2 -122 0
-185 -4 -77 -5 -118 -5 -127 3 -9 7 -38 8 -90 2 -43 -5 -85 -7 -93 -5 -22 5
-407 14 -465 11 -72 -4 -85 -3 -325 16 -52 4 -120 6 -150 4 -70 -4 -230 -5
-295 -1 -27 1 -68 0 -90 -3 -22 -3 -83 -6 -135 -7 -81 -2 -101 1 -135 19 -47
26 -94 28 -159 6 -35 -12 -64 -14 -114 -9 -65 7 -150 9 -282 7 -36 0 -76 0
-90 0 -90 3 -457 -14 -501 -23 -78 -17 -250 -4 -301 22 -69 35 -38 42 208 45
227 3 264 7 264 25 0 18 -86 49 -118 43 -20 -4 -38 -1 -52 9 -16 11 -29 13
-48 6 -15 -5 -91 -10 -169 -12 l-142 -2 -34 -33 c-30 -29 -37 -32 -55 -21 -16
10 -27 9 -61 -4 -56 -23 -93 -21 -114 4 -14 15 -27 19 -60 17 l-42 -3 2 -114
c2 -140 7 -146 96 -145 34 1 85 4 112 7 147 16 190 18 221 12 34 -6 34 -6 17
-31 -9 -14 -39 -37 -66 -52 -27 -15 -60 -33 -73 -40 -13 -7 -49 -38 -80 -68
-52 -50 -58 -53 -74 -39 -22 20 -54 19 -119 -5 -77 -28 -86 -46 -46 -86 24
-24 30 -25 85 -19 41 5 60 3 60 -4 0 -6 -37 -40 -82 -76 -46 -36 -93 -80 -105
-99 -21 -33 -22 -40 -14 -153 4 -65 4 -131 -1 -148 -4 -16 -8 -93 -8 -170 -1
-77 -1 -224 -2 -327 -1 -179 0 -188 23 -225 13 -21 29 -42 35 -48 7 -5 44 -48
82 -94 51 -61 84 -90 121 -107 27 -13 53 -29 56 -34 3 -6 16 -10 27 -10 12 0
35 -11 53 -24 32 -25 154 -56 217 -56 67 0 227 64 276 110 22 21 29 64 13 89
-11 16 -110 7 -152 -14 -14 -8 -35 -12 -46 -9 -12 3 -30 1 -41 -5 -15 -8 -23
-7 -35 7 -10 11 -33 18 -57 19 -27 1 -57 12 -87 32 -26 17 -51 31 -56 31 -31
0 -177 205 -163 229 14 22 63 21 133 -4 81 -28 158 -32 303 -15 66 7 89 14
102 30 9 11 21 20 28 20 6 0 24 7 40 15 27 14 30 14 38 -2 5 -10 12 -41 15
-69 8 -75 49 -160 89 -184 49 -30 103 -26 139 9 25 26 29 37 30 98 1 37 -3 90
-10 116 -11 42 -11 51 4 66 9 10 20 35 26 55 8 28 23 45 65 73 29 20 54 40 54
45 0 12 220 1 255 -12 14 -5 25 -14 25 -20 0 -5 18 -19 40 -30 72 -37 140
-130 140 -193 0 -33 -9 -50 -64 -116 -99 -119 -152 -213 -171 -306 -9 -44 -20
-96 -25 -115 -6 -21 -6 -49 0 -70 27 -107 35 -127 53 -147 18 -20 20 -42 27
-220 4 -132 11 -206 19 -222 24 -43 -7 -307 -50 -440 -6 -18 -8 -51 -5 -73 5
-29 2 -47 -10 -65 -17 -27 -31 -155 -20 -197 4 -17 19 -31 44 -42 42 -19 137
-20 158 -3 11 9 20 9 40 -1 19 -11 27 -11 36 -2 7 7 21 12 33 12 11 0 31 7 43
16 12 8 22 13 22 9 0 -10 58 24 72 43 20 27 94 82 111 82 9 0 24 -19 34 -42
28 -65 56 -117 99 -182 46 -69 46 -70 70 -119 11 -21 40 -60 66 -87 27 -26 48
-52 48 -56 0 -4 8 -26 19 -48 10 -23 26 -59 35 -81 10 -22 21 -49 26 -60 5
-11 11 -37 15 -57 3 -21 15 -57 25 -80 11 -24 20 -60 20 -80 0 -41 37 -94 78
-109 27 -10 72 11 72 33 0 6 7 19 16 29 9 11 17 41 19 76 2 32 7 90 10 128 5
50 2 91 -11 145 -22 96 -29 169 -17 181 10 10 113 -104 113 -125 0 -7 11 -19
25 -26 14 -7 25 -17 25 -21 0 -4 26 -31 57 -61 31 -29 68 -64 82 -78 14 -14
36 -32 48 -40 128 -88 173 -116 218 -135 29 -11 74 -39 101 -62 27 -22 68 -46
91 -52 23 -6 63 -30 90 -54 63 -57 135 -97 170 -97 31 0 105 -42 164 -94 41
-35 83 -61 153 -92 39 -17 63 -39 118 -110 62 -79 138 -214 138 -245 0 -6 8
-23 19 -37 10 -15 23 -55 29 -89 13 -77 17 -83 66 -122 38 -31 71 -34 102 -9
7 5 16 8 20 7 28 -5 41 6 57 44 9 23 17 50 17 59 0 9 18 44 40 77 45 68 46 71
25 111 -8 15 -26 66 -39 112 -13 47 -36 102 -50 123 -58 84 -38 87 214 30 36
-8 86 -17 112 -20 26 -3 67 -15 90 -25 24 -11 54 -20 67 -20 13 0 39 -11 57
-25 17 -13 54 -29 80 -35 77 -17 128 -37 206 -78 40 -22 95 -47 121 -57 30
-11 61 -33 82 -58 19 -22 61 -58 92 -79 50 -34 81 -68 83 -89 0 -3 -35 -11
-77 -17 -93 -15 -211 -71 -256 -122 -46 -53 -89 -82 -113 -76 -53 14 -135
-140 -103 -192 10 -15 9 -36 -3 -98 -11 -51 -13 -86 -7 -102 5 -13 9 -45 9
-70 0 -89 90 -256 174 -326 46 -37 48 -38 140 -40 106 -4 131 -12 95 -32 -13
-7 -33 -14 -44 -14 -15 -1 -11 -6 15 -17 52 -24 266 -30 311 -10 19 8 52 18
74 22 22 3 68 20 103 36 34 16 65 29 70 29 4 0 18 9 32 20 33 26 48 25 61 -4
24 -51 -12 -133 -52 -121 -10 4 -29 -1 -41 -9 -12 -9 -33 -16 -46 -16 -13 0
-53 -16 -89 -35 -36 -19 -70 -35 -75 -35 -5 0 -40 -18 -77 -40 -65 -39 -70
-40 -114 -30 -72 16 -180 -13 -192 -51 -9 -28 4 -59 24 -59 10 0 26 -10 37
-21 10 -12 44 -34 74 -48 30 -15 66 -33 79 -40 36 -20 146 -23 184 -5 55 26
77 41 92 60 7 10 16 16 19 13 10 -10 -5 -39 -19 -39 -9 0 -15 -25 -20 -79 -7
-77 -6 -79 27 -129 18 -28 40 -51 48 -50 8 1 28 -4 44 -11 23 -9 31 -9 37 1 5
7 12 13 16 14 4 0 16 4 26 7 46 18 47 17 47 -18 l0 -35 23 22 c12 13 27 38 32
58 8 26 17 36 35 39 31 4 40 17 40 61 0 19 5 42 10 50 8 12 10 11 10 -7 0 -16
6 -23 18 -23 10 0 28 -11 40 -25 25 -29 35 -31 52 -10 7 8 16 15 21 15 16 0
49 -39 49 -57 0 -24 10 -38 37 -52 28 -14 33 -14 33 4 0 16 34 38 44 28 12
-12 6 -35 -8 -30 -8 3 -17 -1 -20 -9 -9 -23 -8 -24 24 -24 18 0 33 -6 36 -15
8 -20 43 -19 65 1 27 24 39 9 32 -41 -5 -40 -4 -43 14 -39 13 4 23 -2 30 -18
10 -21 11 -22 19 -4 9 24 -15 146 -33 164 -7 7 -13 20 -13 29 0 12 -3 13 -14
4 -21 -18 -44 14 -28 40 16 26 15 49 -3 49 -8 0 -15 7 -15 16 0 8 5 12 10 9
12 -8 13 1 1 23 -21 41 29 83 58 48 6 -7 26 -17 44 -21 43 -11 180 -14 192 -5
6 4 28 11 50 15 50 9 62 18 71 58 3 18 14 44 22 59 16 27 16 29 -18 58 -19 16
-47 29 -61 30 -32 0 -84 16 -122 37 -24 13 -31 13 -49 1 -18 -12 -24 -11 -50
14 -34 31 -56 36 -65 12 -8 -22 8 -34 79 -58 59 -20 63 -23 61 -50 -3 -37 -7
-40 -33 -26 -15 8 -30 8 -53 1 -30 -10 -101 -8 -175 5 -29 6 -32 4 -30 -17 2
-15 -2 -23 -9 -21 -15 2 -18 -44 -4 -53 5 -3 17 5 25 17 23 33 29 5 17 -86 -7
-58 -15 -84 -32 -102 -29 -31 -44 -30 -65 1 -11 17 -25 25 -46 25 -25 0 -28 3
-23 20 5 16 2 20 -19 20 -26 0 -34 18 -17 36 10 9 -5 90 -28 164 -7 19 -15 91
-18 159 -6 128 -7 123 37 211 4 8 13 15 21 15 14 0 22 -36 37 -160 l7 -60 65
-11 c36 -6 78 -16 93 -23 16 -6 40 -11 55 -11 23 1 25 2 10 11 -10 5 -18 16
-18 24 0 21 -49 55 -80 55 -42 0 -89 20 -95 41 -7 22 32 78 56 78 8 1 37 -10
65 -23 61 -30 108 -39 205 -41 42 -1 81 -5 88 -9 6 -4 32 1 58 10 27 9 62 18
79 19 16 2 48 12 70 23 21 11 54 27 72 36 17 8 32 20 32 26 0 6 21 33 48 60
74 76 87 98 125 210 42 125 51 216 32 317 -11 58 -23 84 -64 142 -57 80 -114
134 -169 163 -20 11 -53 30 -72 43 -19 13 -67 33 -106 45 -58 18 -71 25 -67
40 3 10 16 23 29 29 14 6 27 18 30 26 4 8 14 15 24 15 11 0 21 4 24 9 10 16
112 69 172 90 31 11 64 27 73 34 9 8 38 20 65 26 27 7 68 23 91 37 23 13 56
24 73 24 18 0 55 9 84 20 29 11 64 20 78 20 33 0 143 32 200 58 58 26 195 55
240 50 42 -4 42 -2 -4 -132 -19 -54 -32 -104 -29 -112 3 -8 19 -14 35 -14 42
0 31 -23 -17 -32 -21 -5 -44 -13 -52 -19 -20 -17 -16 -105 6 -148 10 -20 23
-48 29 -63 11 -27 13 -28 79 -22 109 8 160 52 147 124 -4 19 -7 43 -6 52 1 27
46 118 58 118 6 0 28 23 50 50 21 28 48 63 60 78 12 15 24 44 28 65 5 27 14
40 32 47 13 5 24 13 24 17 1 39 272 235 342 248 20 4 44 15 54 26 9 10 38 25
65 34 27 9 49 21 49 26 0 6 12 15 28 22 61 27 172 101 215 142 29 29 51 43 61
39 20 -8 112 43 131 72 9 13 20 24 26 24 20 0 97 60 158 122 34 35 65 67 70
71 14 13 70 69 92 92 10 12 19 32 19 47 0 14 7 29 16 32 12 5 14 14 9 46 -7
42 -3 46 41 34 20 -5 21 -9 12 -40 -5 -19 -6 -44 -3 -55 4 -12 1 -27 -7 -37
-19 -22 -55 -150 -64 -224 -7 -60 6 -110 60 -230 26 -59 37 -66 78 -47 45 20
69 71 83 178 8 62 20 113 33 133 11 18 25 51 32 73 7 22 18 47 25 55 7 8 20
32 29 54 15 36 18 38 48 32 26 -5 37 -1 60 21 15 15 28 36 28 47 1 12 14 39
30 61 72 98 78 138 22 143 -29 3 -33 0 -38 -28 -5 -24 -9 -28 -18 -16 -15 18
-70 28 -84 14 -18 -18 -25 -3 -29 60 -4 52 -3 55 11 38 8 -10 17 -24 19 -30 3
-7 11 -5 23 5 21 18 111 23 131 7 16 -12 26 7 33 61 7 59 30 74 65 41 14 -13
25 -35 25 -49 1 -35 28 -65 84 -91 25 -12 49 -26 52 -31 3 -5 12 -9 20 -9 17
0 19 65 3 107 -11 29 -23 223 -14 223 9 0 64 -64 65 -75 1 -11 84 -79 131
-107 16 -10 52 -24 81 -33 55 -15 68 -15 288 15 76 10 110 7 110 -11 0 -19
-21 -49 -34 -49 -16 0 -66 -38 -66 -50 0 -12 52 -17 88 -8 32 8 52 36 114 151
25 46 23 92 -7 131 -14 18 -25 38 -25 43 0 11 -81 84 -198 177 -58 47 -78 71
-102 121 -17 35 -30 72 -30 84 0 12 -6 37 -14 55 -8 18 -12 44 -9 58 2 13 -5
52 -16 86 -26 78 -26 110 0 138 17 18 21 37 23 96 1 40 -3 81 -9 91 -7 13 -7
20 3 25 9 6 13 47 15 140 2 72 5 133 8 134 2 2 13 8 24 14 27 16 24 65 -8 107
-32 42 -57 92 -57 113 0 27 -67 124 -121 176 -47 44 -49 48 -49 101 0 44 5 61
30 95 17 23 37 42 45 42 9 0 25 15 35 34 24 39 107 111 146 126 14 6 50 13 78
16 28 3 58 7 67 10 9 2 34 0 55 -5 22 -5 65 -16 96 -24 31 -8 71 -26 88 -41
17 -14 35 -26 39 -26 16 0 70 -128 78 -185 3 -25 10 -48 14 -51 5 -3 9 -13 9
-24 0 -30 29 -32 55 -5 27 31 75 128 75 155 0 15 24 50 34 50 2 0 23 -18 47
-40 26 -24 52 -39 64 -38 11 2 30 -7 44 -20 31 -28 97 -47 125 -34 13 5 34 5
55 0 23 -7 36 -6 40 1 4 6 29 14 57 17 46 6 199 77 235 110 10 9 26 12 47 8
45 -9 42 -33 -16 -147 -35 -70 -62 -108 -99 -141 -28 -25 -56 -46 -62 -46 -7
0 -23 -7 -37 -17 -48 -31 -281 -36 -346 -7 -36 16 -40 16 -79 -1 -45 -21 -63
-46 -54 -75 11 -36 57 -80 107 -106 41 -21 52 -23 65 -12 13 11 20 8 42 -18
14 -17 41 -36 60 -42 40 -14 106 -16 129 -3 9 5 36 11 60 14 23 2 45 7 48 10
3 3 18 2 33 -3 18 -5 36 -3 52 6 13 7 38 13 56 14 24 0 38 8 57 33 15 19 26
39 26 46 0 6 7 22 15 35 27 40 35 86 25 131 -6 27 -6 68 0 111 9 63 13 173 9
249 -1 17 -1 46 0 65 1 19 1 70 0 113 -1 46 3 83 10 90 15 15 14 37 -2 37 -24
0 -97 -59 -109 -88 -64 -156 -108 -211 -187 -233 -26 -7 -51 -16 -57 -20 -6
-5 -35 -11 -65 -15 -52 -6 -58 -4 -91 25 -31 27 -42 31 -75 26 -25 -4 -47 0
-63 9 -14 9 -40 22 -57 31 -18 8 -33 21 -33 28 0 16 42 56 95 91 71 46 90 60
99 75 5 7 23 30 41 50 42 47 84 132 101 201 7 30 20 82 29 115 18 63 15 168
-6 207 -10 19 -21 70 -38 170 -4 25 -12 52 -18 60 -12 14 -83 153 -83 162 0 3
3 5 8 5 28 -5 50 4 59 24 11 21 11 21 26 -13 8 -19 17 -43 21 -54 8 -23 28 -8
46 34 21 52 42 31 54 -52 4 -26 12 -51 18 -54 14 -9 48 32 48 57 0 24 18 33
36 18 22 -18 9 -99 -27 -173 -43 -88 -35 -114 25 -77 18 12 38 21 45 21 16 0
13 -36 -5 -50 -19 -17 -15 -79 7 -93 9 -6 24 -7 35 -2 30 13 64 12 64 -2 0 -8
-7 -24 -16 -38 -8 -13 -14 -38 -12 -57 2 -28 7 -34 31 -36 20 -3 35 5 56 27
24 25 30 28 35 15 12 -31 5 -54 -26 -90 -44 -50 -94 -174 -70 -174 23 1 85 30
106 49 31 29 52 22 61 -18 8 -37 12 -38 55 -6 35 26 65 32 75 15 3 -5 17 -10
30 -10 65 0 53 105 -34 300 -58 130 -89 177 -162 249 -20 20 -58 63 -85 97
-51 63 -142 142 -204 178 -40 23 -90 76 -90 96 0 9 11 11 35 7 19 -3 37 -1 40
4 4 5 35 9 70 8 58 -1 65 -4 85 -31 12 -16 34 -34 48 -39 15 -6 41 -28 57 -49
47 -62 105 -63 105 -3 0 20 -3 22 -19 13 -34 -17 -47 -11 -57 28 -7 26 -6 67
3 137 14 114 12 129 -25 153 -26 17 -123 23 -347 20 -270 -4 -851 -2 -1090 3
-154 3 -320 2 -370 -3z m891 -37 c10 -10 184 -14 274 -7 155 13 286 10 355 -8
89 -23 93 -26 64 -42 -44 -23 -268 -33 -856 -38 -226 -2 -416 -7 -422 -10 -6
-4 -77 -9 -158 -12 -135 -5 -200 -12 -290 -30 -38 -7 -40 -3 -16 32 23 35 83
72 137 84 55 12 369 24 653 25 116 0 215 3 219 8 10 10 28 9 40 -2z m-263
-232 c89 -15 119 -29 152 -74 21 -27 25 -41 20 -64 -12 -56 -86 -92 -115 -56
-7 8 -17 15 -23 15 -5 0 -26 15 -47 34 -29 26 -49 35 -96 41 -78 10 -203 7
-262 -5 -68 -15 -201 -60 -207 -71 -3 -4 -26 -17 -51 -28 -36 -16 -49 -29 -61
-60 -13 -33 -21 -40 -52 -46 -39 -7 -71 -30 -71 -52 0 -18 34 -16 73 4 30 15
111 23 247 23 58 0 96 -27 93 -65 -3 -36 -36 -71 -97 -102 -41 -21 -64 -25
-150 -26 -112 -2 -164 -20 -199 -68 -16 -22 -17 -30 -7 -49 24 -45 111 -59
135 -21 11 18 88 12 123 -9 27 -16 32 -26 32 -56 0 -38 -16 -65 -77 -130 -37
-40 -41 -42 -129 -53 -50 -6 -120 -11 -155 -11 -42 0 -72 -5 -85 -15 -10 -8
-28 -15 -39 -15 -24 0 -132 -43 -148 -59 -22 -22 5 -24 74 -8 79 19 99 13 99
-28 0 -24 -16 -30 -195 -77 -121 -32 -175 -58 -175 -84 0 -16 41 -19 56 -5 5
5 34 16 64 24 30 8 87 27 125 42 39 15 93 34 120 42 236 71 271 68 259 -19 -5
-36 -15 -55 -47 -87 -22 -23 -47 -41 -56 -41 -9 0 -34 -7 -56 -15 -45 -16
-121 -20 -129 -6 -8 12 13 27 45 35 15 3 30 13 33 23 15 39 -5 36 -245 -35
-66 -20 -110 -39 -119 -52 -3 -4 -39 -24 -82 -43 -74 -35 -96 -52 -84 -65 8
-8 116 28 137 45 15 13 156 53 187 53 13 0 16 -38 4 -57 -11 -18 -120 -69
-163 -77 -19 -3 -57 -20 -84 -37 -26 -16 -65 -37 -86 -45 -38 -16 -56 -38 -38
-50 5 -3 21 1 34 10 13 9 46 23 72 32 26 9 59 21 73 27 53 22 155 55 158 52 2
-2 1 -17 -3 -34 -7 -32 -56 -81 -82 -81 -17 0 -64 -20 -135 -56 -25 -13 -72
-33 -105 -43 -32 -11 -80 -29 -108 -41 -93 -41 -100 -43 -150 -60 -38 -12 -51
-21 -53 -38 -2 -12 1 -22 6 -22 5 0 53 18 107 40 54 22 103 40 109 40 6 0 46
18 89 40 43 22 89 40 102 40 13 0 27 5 30 10 7 12 55 14 55 3 0 -8 -62 -53
-72 -53 -3 0 -32 -18 -64 -40 -104 -72 -129 -87 -154 -95 -14 -4 -36 -14 -50
-23 -13 -8 -65 -29 -114 -46 -49 -17 -88 -35 -87 -41 2 -11 70 -7 86 5 17 13
73 22 79 11 8 -12 -42 -71 -61 -71 -8 0 -29 -11 -47 -25 -27 -20 -44 -25 -95
-25 -54 0 -62 -2 -59 -17 3 -16 15 -18 116 -14 l112 3 0 -23 c0 -13 -8 -38
-18 -54 -42 -68 -62 -144 -62 -230 0 -46 -4 -86 -8 -89 -14 -8 -137 40 -201
78 -56 34 -63 36 -98 27 -42 -12 -83 -63 -83 -106 0 -26 49 -88 83 -107 12 -6
50 -12 87 -13 108 -3 211 -66 243 -150 11 -28 26 -64 34 -81 13 -24 14 -48 9
-115 -4 -46 -9 -109 -10 -139 -3 -66 -13 -100 -29 -100 -7 0 -30 12 -52 25
-22 14 -45 25 -52 25 -40 0 -55 -68 -58 -265 -3 -129 -7 -157 -30 -201 -8 -16
-15 -37 -15 -46 0 -10 -9 -42 -20 -72 -15 -39 -28 -57 -48 -66 -15 -6 -40 -29
-57 -50 -42 -56 -133 -130 -159 -130 -23 0 -39 34 -58 127 -10 45 -8 61 8 108
23 69 17 80 -54 104 l-53 18 -29 -44 c-17 -24 -37 -57 -45 -74 -9 -16 -22 -29
-29 -29 -8 0 -25 -15 -40 -34 -38 -51 -157 -111 -236 -121 -120 -14 -175 -14
-240 1 -41 10 -86 13 -120 9 -56 -6 -130 11 -137 32 -2 5 17 32 42 59 62 66
80 101 67 129 -9 19 -16 21 -73 18 -35 -3 -73 -8 -84 -13 -38 -16 -78 -18
-116 -5 -20 7 -62 16 -92 20 -37 5 -62 14 -74 27 -10 11 -27 24 -38 28 -11 4
-38 43 -60 85 -23 44 -50 82 -62 88 -29 13 -38 70 -23 139 8 35 8 62 2 78 -5
14 -6 34 -1 45 4 11 10 31 13 45 3 14 18 39 34 56 16 18 41 52 55 77 17 28 36
47 52 51 13 3 40 20 60 37 27 24 49 33 105 41 99 15 120 -5 81 -74 -10 -18
-21 -59 -24 -90 -5 -51 -2 -65 25 -114 16 -31 46 -74 65 -95 20 -21 42 -48 50
-58 26 -38 116 -89 176 -100 32 -6 63 -13 68 -17 36 -22 292 11 330 43 8 7 25
13 36 13 43 0 166 85 171 118 2 12 10 22 18 22 8 0 34 15 56 33 30 24 52 55
83 122 23 50 48 108 55 130 7 22 16 45 21 50 4 6 13 33 19 60 6 28 16 67 22
87 9 31 8 42 -6 63 -21 32 -32 31 -137 -5 -87 -30 -137 -35 -244 -25 -89 8
-101 12 -140 47 -44 38 -65 77 -65 119 0 28 2 31 23 24 50 -16 82 -17 155 -5
141 23 232 86 232 161 0 27 -10 44 -54 89 -66 68 -102 155 -91 222 19 124 58
251 96 311 21 34 45 76 53 92 8 17 26 55 40 85 31 67 89 174 103 192 6 7 27
51 48 98 20 47 45 104 56 127 39 88 52 178 46 329 -5 129 -8 148 -36 214 -17
40 -30 75 -28 77 2 1 17 -2 33 -7 43 -15 80 -95 110 -237 19 -89 24 -134 19
-185 -11 -135 -25 -218 -45 -274 -11 -32 -20 -69 -20 -81 0 -12 -19 -62 -41
-110 -69 -146 -90 -195 -109 -253 -10 -30 -27 -77 -38 -105 -56 -140 -62 -183
-36 -270 16 -58 68 -115 105 -115 35 0 165 143 214 236 14 27 35 59 46 71 12
12 31 43 44 70 12 26 50 77 84 113 34 36 69 78 77 93 8 16 42 54 74 86 38 38
68 79 85 117 14 33 38 69 54 81 28 22 127 184 176 288 16 33 34 67 40 75 7 8
18 32 25 53 6 21 27 60 46 88 19 28 34 52 34 54 0 8 122 201 139 219 11 11 30
39 43 61 34 59 180 195 278 259 47 31 100 66 117 79 74 55 299 130 418 140 61
5 188 -2 258 -14z m627 -9 c11 -27 7 -126 -5 -138 -9 -9 -44 44 -45 67 0 30
21 101 30 101 4 0 13 -13 20 -30z m-1800 -41 c0 -5 -4 -9 -10 -9 -5 0 -10 7
-10 16 0 8 5 12 10 9 6 -3 10 -10 10 -16z m-2667 -1 c6 -19 -3 -38 -18 -38
-18 0 -28 17 -21 35 7 18 33 20 39 3z m1726 3 c109 0 217 -43 296 -119 22 -21
48 -41 57 -44 20 -8 84 -139 99 -205 32 -141 -42 -335 -162 -426 -28 -21 -55
-35 -59 -30 -23 24 -71 161 -86 243 -18 101 -60 193 -118 261 -17 20 -43 52
-58 71 -15 20 -51 46 -85 62 -32 15 -70 34 -84 42 -89 47 -362 34 -444 -22
-11 -8 -29 -14 -40 -14 -35 0 -185 -63 -225 -95 -8 -7 -69 -41 -135 -75 -66
-35 -133 -72 -150 -82 -16 -10 -39 -18 -49 -18 -15 0 -3 17 46 63 63 60 88 93
88 117 0 19 -42 1 -73 -31 -30 -31 -81 -61 -90 -53 -3 3 10 28 29 56 56 83 39
94 -37 23 -47 -44 -89 -59 -89 -31 0 7 7 19 15 26 8 7 15 21 15 31 0 32 -40
22 -79 -20 -65 -71 -160 -139 -232 -166 -40 -16 -74 -24 -79 -19 -24 24 90
175 152 201 14 7 29 20 32 31 4 10 16 24 29 31 12 6 36 21 52 34 17 12 78 37
135 55 58 18 119 38 135 44 17 6 50 10 74 9 25 -1 81 8 125 19 80 21 126 20
126 -3 0 -18 -39 -78 -69 -107 -14 -14 -48 -32 -75 -40 -57 -17 -77 -40 -57
-64 18 -22 32 -20 75 9 20 14 43 25 50 25 7 0 31 12 52 27 21 14 62 35 89 45
28 10 77 32 111 49 35 18 84 33 115 36 30 2 58 8 62 13 5 4 26 6 47 3 22 -3
40 -1 44 6 9 13 88 15 102 2 5 -6 27 -12 50 -15 110 -13 213 -42 261 -73 120
-79 232 -248 247 -373 8 -67 21 -92 36 -70 14 22 12 65 -5 107 -9 20 -13 45
-9 55 8 26 -12 80 -46 123 -16 20 -32 45 -35 55 -7 23 -91 89 -124 97 -28 7
-57 36 -72 73 -10 24 -11 24 -24 6 -14 -19 -16 -18 -82 6 -96 35 -95 51 3 44
44 -3 99 -5 123 -5z m556 -71 c0 -18 -43 -26 -59 -10 -8 8 -7 13 4 20 21 14
55 8 55 -10z m-5626 -21 c30 -10 58 -16 63 -13 5 3 19 -3 31 -14 12 -10 37
-22 56 -26 19 -3 49 -18 68 -32 19 -14 52 -36 75 -49 77 -44 178 -145 209
-210 15 -33 42 -85 59 -115 47 -86 38 -179 -11 -108 -36 53 -150 157 -206 189
-28 17 -57 37 -64 45 -7 8 -45 30 -84 49 -70 32 -117 74 -130 115 -8 26 -46
26 -62 0 -18 -27 -49 -14 -71 30 -11 22 -24 35 -37 35 -28 0 -30 -28 -5 -90
44 -109 -5 -83 -62 32 -36 73 -55 93 -64 69 -12 -31 7 -104 37 -142 33 -42 36
-56 13 -78 -23 -24 -36 -20 -79 25 -22 22 -69 54 -105 71 -36 16 -78 36 -93
44 -16 8 -37 14 -47 14 -11 0 -39 6 -62 14 -24 8 -88 19 -143 24 -110 11 -184
1 -292 -40 -95 -35 -215 -138 -262 -225 -43 -79 -101 -255 -101 -306 0 -60
-30 -128 -65 -147 -27 -14 -28 -14 -91 55 -35 39 -81 95 -102 125 -36 53 -37
57 -37 145 0 86 2 94 44 180 36 74 57 103 119 163 42 39 80 72 84 72 5 0 25
11 46 24 20 13 85 35 142 49 123 30 226 34 375 12 55 -7 117 -14 138 -13 21 0
43 -5 50 -10 7 -6 44 -16 82 -22 76 -11 94 -17 203 -63 72 -31 74 -31 88 -12
12 16 11 23 -7 53 -26 46 -18 79 24 98 43 18 202 9 276 -17z m1404 -79 c-5
-17 -11 -20 -32 -15 -46 12 -51 36 -19 91 l21 36 18 -45 c10 -24 15 -55 12
-67z m292 70 c0 -18 -6 -35 -12 -37 -9 -3 -13 8 -13 37 0 29 4 40 13 38 6 -3
12 -20 12 -38z m5845 27 c98 -35 163 -103 229 -236 28 -57 51 -115 51 -130 1
-14 9 -51 20 -81 25 -71 25 -161 1 -241 -11 -35 -23 -82 -27 -104 -9 -49 -45
-104 -138 -206 -67 -74 -164 -149 -192 -149 -7 0 -24 32 -39 70 -37 96 -91
163 -158 195 -30 14 -60 25 -68 25 -8 0 -19 4 -25 9 -5 5 -40 19 -78 31 -58
19 -82 22 -150 17 -45 -3 -99 -13 -121 -21 -22 -8 -56 -15 -75 -16 -19 0 -53
-9 -75 -20 -35 -16 -40 -17 -43 -3 -2 8 1 20 7 26 6 6 11 18 11 26 0 8 16 32
36 52 43 44 53 95 34 174 l-13 54 64 68 c98 105 108 168 40 269 -17 25 -31 48
-31 53 0 4 22 15 49 25 35 12 71 16 136 14 l88 -4 36 -41 c49 -55 74 -66 152
-66 56 0 72 4 97 24 34 28 66 73 77 109 8 28 52 90 63 90 4 0 23 -6 42 -13z
m-6716 -51 c-13 -55 -89 -59 -89 -6 0 18 8 26 40 35 47 14 58 7 49 -29z m1123
5 c29 -27 49 -62 72 -122 50 -131 99 -283 106 -332 8 -50 -7 -165 -36 -279
-27 -107 -25 -132 8 -147 23 -11 30 -9 52 9 88 70 103 79 124 71 19 -7 23 -18
29 -92 4 -46 5 -104 2 -128 -5 -39 -38 -143 -64 -206 -5 -11 -23 -56 -40 -100
-34 -88 -45 -104 -60 -89 -9 9 -1 118 16 207 5 29 3 37 -8 37 -26 0 -53 -105
-63 -256 -4 -49 -9 -96 -11 -104 -8 -23 -24 8 -24 47 0 17 -5 44 -11 60 -14
34 -13 225 1 273 5 19 10 59 10 88 0 80 -21 61 -48 -44 -21 -82 -23 -105 -19
-287 2 -109 0 -200 -4 -202 -4 -3 -9 12 -12 33 -2 20 -12 55 -20 78 -35 91
-21 731 18 836 4 12 -1 93 -20 303 -12 126 -39 114 -66 -31 -17 -87 -18 -119
-9 -318 16 -357 14 -538 -8 -626 -11 -41 -22 -92 -26 -113 -12 -67 -27 -30
-20 51 6 83 -10 273 -26 300 -6 12 -9 -40 -10 -160 0 -153 -10 -242 -25 -227
-2 3 -5 23 -6 44 -1 22 -8 64 -15 93 -7 29 -11 58 -9 65 6 16 -40 140 -54 145
-14 5 -15 -43 -1 -68 12 -23 34 -229 25 -238 -9 -10 -25 20 -25 48 0 27 -57
208 -70 225 -13 16 -29 153 -29 243 l1 82 27 0 c15 0 42 -13 61 -30 38 -32 66
-37 95 -17 16 12 16 18 7 47 -7 18 -12 46 -12 62 0 16 -11 64 -25 107 -40 123
-36 269 11 386 19 47 60 134 74 155 5 8 21 42 36 75 29 64 42 85 54 85 4 0 26
-17 47 -39z m-4857 5 c157 -37 198 -53 291 -111 9 -5 36 -21 60 -34 58 -32
266 -200 306 -248 34 -40 148 -195 185 -252 13 -19 43 -55 67 -80 46 -48 101
-142 101 -171 0 -10 18 -34 39 -53 48 -43 61 -66 61 -106 0 -21 13 -44 49 -83
26 -29 58 -73 70 -98 39 -82 157 -223 200 -238 48 -18 108 -79 116 -118 8 -44
64 -147 130 -242 9 -12 35 -35 57 -50 98 -65 91 -63 159 -55 63 8 64 9 87 53
39 78 20 201 -70 435 -42 111 -62 162 -86 220 -11 28 -23 63 -27 79 -3 15 -16
41 -28 58 -15 20 -26 56 -33 111 -6 45 -19 117 -27 159 -21 101 -15 178 25
306 27 89 35 104 61 117 17 8 32 13 35 11 2 -3 -8 -30 -23 -62 -15 -31 -27
-73 -28 -93 -4 -91 15 -328 29 -361 45 -106 114 -232 154 -280 25 -30 60 -86
79 -125 18 -38 45 -97 61 -130 16 -33 45 -108 64 -166 31 -90 36 -119 36 -195
0 -82 -13 -143 -41 -195 -11 -22 25 -102 63 -135 36 -33 138 -95 181 -110 52
-18 146 -18 171 1 29 22 68 20 64 -3 -4 -24 -117 -124 -183 -162 -60 -34 -162
-49 -217 -31 -31 10 -91 61 -147 124 -49 57 -141 19 -141 -58 0 -20 7 -49 15
-65 21 -41 65 -181 65 -208 0 -37 59 -199 102 -282 71 -137 109 -191 160 -224
26 -17 50 -39 53 -48 8 -24 63 -61 80 -54 8 3 15 1 15 -4 0 -10 44 -33 112
-60 58 -22 239 -27 284 -8 16 6 36 12 45 13 10 1 30 11 45 22 16 11 38 23 49
27 12 3 40 24 63 45 57 53 96 152 94 241 -1 105 -13 167 -33 186 -24 21 -25
60 -1 72 40 22 97 23 137 5 75 -35 183 -113 205 -147 11 -19 24 -36 28 -38 14
-6 72 -109 81 -146 11 -41 16 -128 13 -213 -2 -48 -7 -61 -35 -91 -17 -20 -49
-63 -71 -97 -26 -42 -47 -63 -65 -68 -14 -3 -37 -14 -51 -24 -14 -10 -59 -31
-100 -46 -61 -22 -89 -26 -150 -25 -41 2 -90 7 -109 12 -41 11 -77 4 -85 -16
-3 -9 19 -39 59 -78 36 -35 65 -71 65 -79 0 -25 -34 -39 -63 -26 -19 8 -46 6
-123 -11 -54 -12 -117 -23 -139 -24 -54 -4 -157 46 -215 103 -63 62 -119 101
-145 101 -12 0 -32 -11 -45 -25 -22 -23 -23 -30 -18 -122 4 -56 13 -115 22
-137 14 -34 22 -86 13 -86 -2 0 -21 9 -43 19 -22 11 -52 23 -66 26 -14 4 -35
15 -46 25 -17 16 -48 35 -133 80 -36 19 -141 131 -183 195 -18 28 -48 80 -66
118 -28 58 -33 81 -38 172 -5 101 -4 106 21 143 38 54 45 97 19 111 -31 16
-50 14 -85 -13 -18 -13 -45 -30 -62 -39 -36 -18 -155 -31 -173 -19 -14 10 -7
49 23 132 12 32 17 88 20 198 l3 153 43 102 c42 101 84 156 120 157 16 0 123
71 149 99 43 45 59 80 62 131 3 49 1 55 -24 69 -36 21 -53 10 -94 -58 -26 -45
-37 -55 -81 -70 -28 -9 -65 -29 -83 -44 -39 -33 -54 -31 -58 9 -4 43 -23 113
-44 159 -20 45 -23 87 -8 115 9 17 14 17 67 5 32 -8 87 -15 123 -17 54 -2 65
0 68 14 5 29 -31 41 -140 47 -9 1 -35 16 -57 35 -23 19 -50 38 -61 41 -11 4
-20 13 -20 21 0 16 21 13 95 -12 52 -18 55 -17 55 4 0 24 -68 72 -143 102 -32
12 -70 32 -84 43 l-27 21 25 6 c13 4 39 2 58 -3 22 -6 37 -5 44 2 25 25 -13
45 -191 102 -101 31 -206 68 -235 82 -118 55 -144 68 -196 98 -49 27 -171 73
-171 63 0 -2 -12 1 -27 7 -36 14 -122 29 -198 36 -60 4 -85 20 -85 51 0 11 15
13 78 8 130 -11 235 -27 274 -43 46 -19 72 -11 65 19 -13 49 40 63 108 28 22
-11 46 -20 55 -20 9 0 20 -4 26 -9 5 -5 34 -19 64 -30 79 -30 143 -27 122 6
-9 14 -107 58 -157 71 -22 5 -56 15 -75 22 -19 7 -46 17 -60 22 -26 9 -64 63
-54 79 9 14 35 10 98 -16 32 -13 64 -21 72 -18 41 15 -13 59 -121 98 -33 12
-76 31 -95 43 -19 12 -42 22 -50 22 -8 0 -32 9 -52 20 -53 28 -65 -3 -16 -38
10 -7 18 -19 18 -27 0 -21 -93 -45 -177 -45 -68 0 -76 2 -120 36 -81 60 -116
132 -80 162 16 13 74 17 111 7 24 -7 33 -4 48 15 10 12 18 33 18 46 0 34 23
31 101 -16 37 -22 72 -40 77 -40 5 0 29 -15 53 -32 58 -43 176 -85 192 -69 9
10 4 19 -21 42 -18 16 -39 29 -48 29 -9 0 -43 16 -75 35 -33 19 -63 35 -65 35
-3 0 -39 16 -80 35 -40 19 -77 35 -82 35 -5 0 -26 15 -48 33 -47 40 -107 77
-124 77 -8 0 -11 -9 -8 -25 4 -21 1 -25 -26 -30 -17 -4 -43 -2 -56 3 -34 13
-100 87 -100 112 0 27 60 70 98 70 25 0 32 4 32 19 0 22 -36 52 -120 99 -30
17 -77 52 -103 79 l-48 47 6 61 c6 52 4 64 -15 88 -12 15 -30 27 -40 27 -10 0
-21 4 -24 9 -16 25 -222 34 -305 12 -54 -13 -68 -21 -84 -49 -18 -30 -104 -82
-135 -82 -7 0 -24 19 -38 42 l-27 42 19 35 c24 44 53 71 76 71 11 0 33 8 51
17 41 22 100 28 272 28 98 -1 163 -6 215 -19z m5988 -8 c3 -13 -3 -18 -21 -18
-24 0 -42 21 -29 34 12 13 47 1 50 -16z m-4970 -26 c-4 -22 -38 -22 -52 1 -8
13 -8 20 3 27 20 12 53 -7 49 -28z m4272 11 c0 -20 -24 -11 -28 10 -2 12 1 15
12 11 9 -3 16 -13 16 -21z m-6032 -17 c4 -20 -23 -66 -39 -66 -11 0 -4 63 8
83 8 13 28 2 31 -17z m5794 14 c4 -29 1 -33 -25 -34 -31 -2 -42 7 -33 29 6 17
55 21 58 5z m-1662 -19 c0 -18 -26 -48 -34 -40 -3 2 -7 16 -11 32 -6 24 -5 27
19 27 19 0 26 -5 26 -19z m5370 3 c0 -8 -4 -12 -10 -9 -5 3 -10 10 -10 16 0 5
5 9 10 9 6 0 10 -7 10 -16z m301 -11 c7 -19 4 -24 -18 -29 -32 -8 -57 6 -61
35 -3 20 0 22 34 19 27 -2 39 -9 45 -25z m-4461 -15 c0 -32 -26 -56 -55 -50
-41 7 -31 53 15 70 31 12 40 7 40 -20z m-5475 -18 c4 -6 4 -18 1 -27 -5 -12
-9 -13 -21 -3 -8 7 -15 19 -15 26 0 16 26 19 35 4z m1475 -46 c0 -32 -47 -46
-66 -20 -19 27 -7 44 32 44 29 0 34 -3 34 -24z m2970 12 c84 -24 124 -48 183
-110 96 -100 134 -165 164 -280 24 -94 26 -115 24 -311 0 -120 4 -231 10 -260
12 -55 74 -216 98 -254 15 -24 15 -24 -14 -17 -38 10 -62 31 -86 77 -10 20
-41 53 -69 73 -35 25 -57 50 -70 80 -10 24 -36 70 -59 103 -68 101 -99 229
-101 421 -1 135 -19 241 -45 272 -7 8 -20 33 -30 55 -9 22 -29 54 -44 70 -42
45 -56 75 -40 86 18 11 25 11 79 -5z m1964 -12 c11 -29 -5 -45 -43 -42 -28 2
-36 7 -36 23 0 21 40 46 61 38 7 -2 15 -11 18 -19z m3146 5 c27 -14 42 -30 46
-48 3 -14 12 -47 20 -73 8 -26 14 -56 14 -67 0 -32 -43 -202 -49 -195 -3 3 -6
56 -7 119 0 105 -3 117 -27 154 -15 23 -36 41 -49 43 -15 2 -22 9 -19 18 2 8
6 27 9 43 5 33 10 33 62 6z m-9642 -53 c-5 -33 -23 -24 -26 13 -3 31 -2 33 13
21 9 -7 15 -23 13 -34z m6777 23 c4 -12 2 -26 -4 -32 -15 -15 -61 11 -61 35 0
27 56 25 65 -3z m295 10 c0 -6 -8 -23 -19 -37 -10 -15 -22 -38 -26 -52 -4 -14
-16 -41 -26 -61 -34 -69 -72 -348 -70 -517 1 -70 -3 -148 -11 -180 -14 -63
-81 -203 -119 -246 -21 -25 -103 -86 -115 -86 -10 0 -2 78 13 115 20 48 27
380 11 513 -9 75 -8 86 12 127 12 25 30 79 40 120 41 169 169 309 288 314 12
1 22 -4 22 -10z m1285 -14 c0 -14 -8 -21 -27 -23 -30 -4 -38 14 -16 36 18 18
43 10 43 -13z m-6267 -28 c-5 -10 -23 -31 -39 -45 -41 -37 -61 -133 -57 -272
4 -122 -8 -143 -38 -65 -4 11 -9 31 -11 45 -2 14 -6 52 -11 85 -8 68 2 113 43
194 19 38 35 56 60 67 18 7 37 19 41 25 11 19 24 -13 12 -34z m3014 26 c22
-19 23 -36 4 -52 -11 -9 -20 -7 -42 12 -24 21 -26 27 -15 41 17 20 30 20 53
-1z m3528 -6 c0 -24 -25 -48 -43 -41 -17 6 -23 35 -10 47 12 12 53 7 53 -6z
m-6802 -25 c3 -19 -1 -22 -27 -22 -37 0 -50 19 -25 37 26 19 48 12 52 -15z
m4340 6 c4 -21 -37 -25 -56 -6 -20 20 -13 29 20 26 22 -2 34 -9 36 -20z m3332
-4 c0 -8 -9 -14 -20 -14 -22 0 -28 26 -7 33 16 6 27 -1 27 -19z m-8648 -22 c7
-7 11 -35 10 -70 -2 -51 1 -63 29 -100 17 -24 49 -52 71 -63 l39 -20 -7 -59
c-10 -93 23 -188 87 -249 l49 -47 -25 -34 c-14 -19 -25 -44 -25 -56 0 -32 -14
-37 -49 -20 -16 9 -44 18 -63 20 -18 2 -46 9 -63 16 -16 6 -68 12 -115 13 -98
1 -203 -30 -268 -80 -20 -15 -54 -39 -74 -53 -32 -22 -90 -90 -124 -146 -9
-16 -20 -10 -97 59 -48 43 -98 82 -111 88 -20 9 -25 21 -31 73 -7 62 -34 138
-54 150 -7 4 -11 40 -11 90 0 140 58 300 143 394 29 31 49 28 102 -18 29 -25
53 -39 64 -36 9 3 39 10 66 15 52 10 137 37 167 52 10 5 24 22 32 38 14 26 41
43 91 55 37 9 154 1 167 -12z m4464 -13 c3 -6 0 -17 -7 -25 -18 -17 -44 -2
-36 20 7 18 33 21 43 5z m-1918 -37 c3 -16 -2 -22 -16 -22 -25 0 -31 7 -25 31
7 27 37 20 41 -9z m-3460 -48 c26 -25 27 -42 6 -92 -20 -47 -32 -92 -43 -162
-10 -63 10 -232 29 -255 7 -8 22 -48 35 -89 25 -81 81 -164 166 -249 53 -52
60 -67 29 -67 -11 0 -20 -3 -20 -8 0 -27 -270 -39 -318 -13 -10 5 -42 13 -71
17 -46 6 -56 11 -76 43 -13 20 -29 59 -35 86 -7 28 -18 63 -26 78 -10 20 -11
34 -4 47 20 38 10 120 -15 120 -20 0 -55 49 -55 76 0 20 5 24 30 24 43 0 57
34 42 101 -25 107 -8 127 30 38 17 -39 27 -49 43 -47 29 4 31 52 6 126 -12 34
-21 71 -21 82 0 31 26 24 56 -15 51 -67 64 -37 39 91 -11 51 -16 97 -11 101
12 12 39 -11 49 -43 12 -36 36 -64 55 -64 12 0 14 11 9 58 -8 70 8 98 33 60 8
-13 25 -32 38 -44z m4988 55 c9 -16 -20 -41 -39 -33 -17 6 -22 25 -10 37 10
11 41 8 49 -4z m4928 5 c9 -3 16 -15 16 -25 0 -14 -7 -19 -30 -19 -22 0 -30 5
-30 18 0 30 13 38 44 26z m-969 -14 c3 -5 1 -10 -4 -10 -6 0 -11 5 -11 10 0 6
2 10 4 10 3 0 8 -4 11 -10z m-3366 -16 c7 -6 -9 -35 -22 -40 -7 -2 -26 0 -41
5 -23 9 -25 14 -16 31 8 15 17 18 43 13 17 -3 34 -7 36 -9z m-3409 -13 c0 -6
-4 -13 -10 -16 -5 -3 -10 1 -10 9 0 9 5 16 10 16 6 0 10 -4 10 -9z m6004 -41
c50 -44 63 -91 40 -141 -13 -30 -22 -39 -38 -37 -15 2 -22 11 -24 33 -7 80
-26 105 -78 105 -32 0 -35 2 -29 23 17 55 76 63 129 17z m-4156 -4 c15 -8 53
-23 85 -34 31 -11 69 -29 84 -40 16 -11 37 -22 48 -26 28 -9 93 -65 76 -66 -8
0 -35 13 -60 29 -49 31 -167 69 -178 57 -11 -10 47 -54 85 -65 19 -5 52 -25
75 -44 23 -19 57 -42 75 -51 58 -30 168 -146 201 -213 29 -58 38 -93 25 -93
-11 0 -74 53 -74 63 0 5 -17 29 -37 52 -21 23 -52 60 -69 81 -35 43 -111 101
-121 91 -8 -8 44 -84 70 -102 11 -7 29 -29 41 -48 11 -19 36 -52 54 -73 54
-63 164 -215 159 -220 -2 -2 -20 -1 -40 3 -27 6 -48 22 -82 63 -94 114 -104
122 -160 118 -42 -3 -62 2 -130 37 -73 36 -82 45 -105 91 -14 28 -32 58 -41
67 -24 23 -47 130 -50 227 -4 113 7 128 69 96z m2669 -2 c3 -8 0 -21 -6 -27
-14 -14 -44 2 -49 27 -5 22 46 22 55 0z m914 -64 c32 -89 36 -179 12 -252 -16
-50 -45 -86 -116 -143 -45 -36 -73 -104 -57 -135 14 -26 26 -25 69 4 70 47
146 41 84 -7 -15 -12 -52 -45 -80 -73 -46 -45 -97 -73 -109 -61 -3 2 0 17 6
32 6 15 8 30 5 33 -7 7 -42 -12 -92 -49 -43 -33 -68 -33 -45 -1 7 9 21 37 33
62 11 24 35 62 53 85 34 42 73 131 63 142 -13 12 -50 -33 -77 -92 -25 -55
-113 -166 -123 -155 -7 8 27 129 51 183 12 27 22 51 22 53 0 10 56 91 87 127
40 44 41 57 8 57 -18 0 -34 -13 -60 -47 -39 -54 -96 -161 -114 -215 -32 -98
-69 -53 -46 57 20 99 72 198 118 227 21 12 68 44 104 71 36 26 69 47 74 47 4
0 25 16 46 35 33 30 35 35 17 35 -12 0 -27 -7 -34 -15 -7 -8 -31 -20 -54 -25
-77 -20 -113 -43 -222 -140 -41 -37 -48 -48 -85 -148 -26 -69 -45 -76 -41 -14
4 62 43 129 119 204 53 52 82 73 127 89 32 11 75 31 95 45 19 13 41 24 47 24
6 0 19 9 29 20 35 38 57 22 86 -60z m4615 43 c-6 -14 -9 -15 -16 -4 -11 19 -1
46 13 32 5 -5 7 -18 3 -28z m-3796 2 c0 -8 -11 -17 -25 -21 -31 -8 -38 -3 -29
20 8 20 54 22 54 1z m-4910 -12 c33 -23 40 -33 40 -66 0 -25 -2 -27 -27 -21
-16 4 -38 11 -51 15 -34 13 -98 0 -119 -23 -13 -14 -18 -36 -18 -77 0 -69 -16
-101 -42 -85 -28 17 -46 87 -38 147 6 51 8 53 68 89 72 43 144 51 187 21z
m2664 11 c9 -3 16 -15 16 -25 0 -15 -7 -19 -35 -19 -27 0 -35 4 -35 18 0 31
19 40 54 26z m3416 -55 c14 -26 6 -51 -14 -43 -28 11 -32 64 -6 64 5 0 14 -9
20 -21z m-7682 -32 c3 -12 -4 -17 -22 -17 -28 0 -33 9 -14 28 15 15 32 10 36
-11z m3452 -16 c0 -10 -11 -44 -25 -74 -33 -72 -39 -129 -27 -257 10 -97 54
-259 80 -293 5 -7 21 -43 35 -82 14 -38 40 -104 58 -145 33 -79 37 -98 40
-192 2 -47 -2 -62 -18 -80 -38 -42 -38 -65 -1 -101 51 -49 169 -151 185 -160
21 -12 5 -27 -29 -27 -35 0 -116 38 -147 69 -12 12 -29 21 -39 21 -10 0 -34
16 -55 36 -34 34 -40 36 -79 29 -24 -4 -83 -8 -133 -8 -80 0 -97 3 -155 30
-36 16 -74 40 -84 51 -11 12 -24 22 -30 22 -6 0 -45 21 -86 45 -41 25 -86 45
-102 45 -33 0 -75 18 -82 36 -8 21 59 39 95 24 16 -7 40 -10 53 -8 14 3 46 1
73 -4 26 -5 66 -10 88 -12 22 -1 56 -9 75 -16 19 -7 54 -19 77 -27 23 -8 59
-26 79 -39 28 -19 44 -24 68 -18 67 14 72 44 21 124 -46 73 -151 287 -159 325
-4 17 -12 50 -18 75 -6 25 -10 101 -8 169 1 106 5 134 28 195 14 39 41 90 59
114 18 24 33 49 33 56 0 7 16 31 36 54 27 32 43 42 65 42 22 0 29 -5 29 -19z
m-1547 -63 c9 -11 24 -44 33 -74 18 -63 38 -105 75 -159 57 -84 60 -103 34
-195 -13 -46 -30 -89 -38 -97 -13 -14 -17 -13 -29 8 -16 26 -18 150 -4 204 5
21 3 36 -7 50 -14 18 -15 18 -35 -15 -28 -45 -46 -159 -39 -247 3 -42 2 -73
-4 -73 -5 0 -23 29 -39 64 -28 58 -31 76 -34 183 -2 65 -4 124 -5 131 -2 23
-30 12 -46 -18 -20 -38 -38 -174 -31 -222 6 -38 -3 -49 -21 -25 -11 12 -37
141 -35 167 1 8 -1 38 -4 67 -4 44 -9 52 -30 57 -15 4 -24 14 -24 26 0 28 76
110 145 157 66 45 105 48 138 11z m1698 9 c-13 -13 -26 -3 -16 12 3 6 11 8 17
5 6 -4 6 -10 -1 -17z m-1122 -34 c2 -2 1 -6 -2 -10 -8 -8 -57 36 -57 50 0 6
12 0 28 -14 15 -13 29 -25 31 -26z m4429 14 c2 -11 -3 -17 -16 -17 -26 0 -34
11 -20 27 14 17 32 12 36 -10z m-2180 0 c6 -7 8 -18 4 -24 -9 -15 -52 -5 -52
11 0 27 30 35 48 13z m1341 -14 c77 -23 120 -66 170 -172 41 -87 42 -92 36
-156 -8 -73 -29 -85 -31 -18 -2 43 -18 83 -34 83 -13 0 -23 -44 -18 -81 6 -39
-28 -169 -49 -189 -14 -13 -15 -13 -9 5 10 37 9 260 -2 287 -14 34 -29 43 -48
27 -11 -9 -13 -23 -9 -51 6 -35 1 -85 -26 -243 -6 -33 -11 -69 -13 -79 -4 -29
-23 -31 -32 -4 -4 13 -6 92 -5 176 2 105 -1 152 -9 152 -16 0 -30 -45 -42
-135 -11 -84 -12 -109 -7 -192 4 -56 -3 -72 -25 -54 -35 29 -45 176 -20 314 6
36 5 38 -32 53 -21 9 -62 18 -91 21 -57 6 -66 18 -33 48 11 10 26 38 32 62 6
24 14 46 19 49 5 3 9 14 9 24 0 10 16 36 36 58 l35 40 72 -4 c40 -3 96 -12
126 -21z m-2871 -6 c2 -10 -3 -17 -12 -17 -18 0 -29 16 -21 31 9 14 29 6 33
-14z m1403 -38 c107 -115 139 -246 126 -524 -5 -119 -47 -229 -117 -310 -59
-66 -69 -95 -46 -131 27 -40 57 -46 126 -24 34 11 71 26 83 35 12 8 28 15 36
15 8 0 22 7 31 15 10 9 37 18 61 20 24 3 63 7 87 11 51 6 55 -8 8 -30 -34 -16
-86 -69 -86 -87 0 -9 -118 -91 -178 -124 -30 -16 -56 -20 -143 -19 -97 0 -109
2 -152 28 -31 18 -55 25 -68 21 -11 -4 -55 -39 -97 -77 -42 -39 -97 -83 -122
-99 -96 -61 -127 -17 -36 50 29 22 71 61 92 86 22 26 55 65 74 87 34 40 35 42
32 119 -2 61 1 88 17 121 11 24 31 75 46 113 14 39 38 90 53 115 42 73 108
211 127 269 14 43 16 71 11 134 -8 91 -28 146 -75 199 -17 20 -31 38 -31 41 0
2 21 3 48 0 41 -4 53 -11 93 -54z m-293 22 c24 -15 10 -46 -22 -49 -36 -4 -46
7 -35 36 9 23 33 28 57 13z m-3128 -5 c0 -11 -19 -15 -25 -6 -3 5 1 10 9 10 9
0 16 -2 16 -4z m6611 -39 c-8 -8 -11 -7 -11 4 0 20 13 34 18 19 3 -7 -1 -17
-7 -23z m-1260 8 c59 -21 76 -39 96 -101 14 -47 15 -59 3 -96 -17 -53 -83
-118 -119 -118 -52 0 -54 14 -6 63 38 40 45 54 45 87 0 33 -6 43 -34 65 -30
23 -39 25 -90 19 -39 -5 -60 -3 -71 6 -20 17 -19 24 11 59 22 27 32 31 74 31
26 0 67 -7 91 -15z m1075 -82 c-10 -10 -19 5 -10 18 6 11 8 11 12 0 2 -7 1
-15 -2 -18z m-3951 -13 c3 -6 -1 -13 -10 -16 -19 -8 -30 0 -20 15 8 14 22 14
30 1z m-2632 -24 c7 -18 -1 -26 -25 -26 -20 0 -25 26 -5 33 20 9 25 8 30 -7z
m3441 -36 c34 -13 35 -47 2 -56 -25 -6 -66 10 -66 26 0 8 28 40 35 40 2 0 15
-4 29 -10z m2786 0 c0 -5 -7 -10 -15 -10 -8 0 -15 5 -15 10 0 6 7 10 15 10 8
0 15 -4 15 -10z m-312 -33 c2 -10 -3 -17 -11 -17 -18 0 -39 24 -30 34 12 12
38 2 41 -17z m-5328 -17 c0 -5 -4 -10 -10 -10 -5 0 -10 5 -10 10 0 6 5 10 10
10 6 0 10 -4 10 -10z m-3973 -36 c26 -20 32 -30 27 -48 -3 -14 1 -37 10 -55
15 -28 15 -31 -1 -40 -19 -10 -44 -55 -59 -106 -15 -48 -38 -38 -42 18 -3 42
1 53 27 83 38 43 39 68 5 99 -20 19 -25 30 -20 50 8 31 11 31 53 -1z m3613 11
c0 -10 -10 -15 -30 -15 -47 0 -35 27 13 29 9 1 17 -6 17 -14z m7880 0 c7 -8
31 -20 54 -27 58 -17 171 -93 195 -131 12 -20 22 -60 26 -102 l7 -70 -34 36
c-18 20 -44 52 -57 71 -34 47 -109 97 -173 114 -79 21 -232 18 -301 -5 -88
-31 -196 -100 -269 -174 -49 -49 -68 -62 -68 -48 0 10 7 24 15 31 8 7 13 15
10 19 -5 9 33 75 83 143 38 52 103 98 138 98 8 0 25 6 37 14 29 18 160 36 217
29 25 -2 56 0 70 6 34 13 36 13 50 -4z m-1676 -10 c6 -18 -16 -30 -39 -21 -8
3 -15 12 -15 21 0 20 46 20 54 0z m-734 -15 c0 -5 -4 -10 -10 -10 -5 0 -10 5
-10 10 0 6 5 10 10 10 6 0 10 -4 10 -10z m-5262 -21 c2 -10 -11 -24 -31 -37
-30 -17 -36 -27 -42 -71 -5 -36 -3 -56 6 -67 17 -21 64 -44 89 -44 27 0 26
-25 -2 -44 -38 -27 -85 -20 -119 17 -49 52 -62 85 -56 137 7 61 35 106 72 118
42 14 79 10 83 -9z m958 -46 c22 -26 54 -68 72 -93 27 -37 29 -46 16 -48 -9
-2 -28 5 -43 16 -35 25 -112 65 -117 59 -2 -2 1 -18 7 -36 13 -38 6 -50 -18
-30 -18 15 -53 32 -85 43 -29 9 -22 44 10 51 15 3 45 23 66 45 21 22 42 40 46
40 4 0 25 -21 46 -47z m2846 -15 c-7 -7 -12 -8 -12 -2 0 14 12 26 19 19 2 -3
-1 -11 -7 -17z m-4892 -2 c0 -11 -19 -15 -25 -6 -3 5 1 10 9 10 9 0 16 -2 16
-4z m-1258 -30 c47 -20 195 -121 219 -149 13 -16 18 -39 19 -79 0 -79 -14 -76
-81 16 -38 54 -109 95 -236 138 -42 14 -229 -14 -285 -43 -48 -24 -174 -143
-195 -184 -9 -16 -22 -48 -29 -70 l-13 -40 0 73 c-1 71 9 101 46 140 7 7 13
20 13 28 0 7 25 37 55 66 46 44 72 59 158 90 97 36 107 38 197 33 53 -2 111
-11 132 -19z m6708 -73 c0 -102 -12 -120 -34 -54 -19 60 -20 85 -4 111 26 41
38 23 38 -57z m1020 13 c0 -20 -19 -31 -32 -18 -6 6 -7 15 -4 21 10 16 36 13
36 -3z m430 -11 c0 -9 -9 -15 -25 -15 -24 0 -32 10 -18 23 12 13 43 7 43 -8z
m-6128 -10 c0 -5 -5 -11 -11 -13 -6 -2 -11 4 -11 13 0 9 5 15 11 13 6 -2 11
-8 11 -13z m5408 -5 c0 -5 -4 -10 -10 -10 -5 0 -10 5 -10 10 0 6 5 10 10 10 6
0 10 -4 10 -10z m-6060 -6 c0 -3 -9 -19 -21 -35 -19 -28 -21 -28 -45 -13 -44
30 -29 46 49 53 9 0 17 -2 17 -5z m7015 -24 c4 -6 -8 -32 -26 -58 -17 -26 -28
-38 -24 -27 5 11 9 34 10 50 1 17 3 33 3 38 3 11 30 9 37 -3z m-1075 -26 c47
-24 72 -85 61 -152 -9 -60 -28 -91 -77 -129 -32 -24 -46 -27 -96 -26 -47 1
-65 6 -84 24 -13 12 -24 31 -24 41 0 16 5 18 35 12 45 -8 125 12 148 38 36 42
9 136 -47 165 -41 21 -43 23 -26 33 23 15 74 12 110 -6z m-8837 -91 c-3 -7 -9
-10 -14 -7 -11 6 -12 38 -2 48 9 9 22 -25 16 -41z m129 7 c16 -39 16 -40 -3
-30 -32 18 -52 70 -26 70 6 0 20 -18 29 -40z m2936 18 c19 -19 14 -38 -11 -38
-28 0 -61 -51 -54 -86 2 -13 1 -24 -2 -24 -11 0 -91 79 -91 89 0 16 72 59 106
64 16 2 31 5 35 6 3 0 10 -4 17 -11z m4944 -51 c75 -28 108 -53 89 -66 -8 -5
-95 -8 -193 -6 -98 1 -181 -2 -184 -6 -7 -13 -64 -11 -64 1 0 13 15 19 58 24
19 2 39 9 45 15 6 6 22 11 37 11 14 0 31 4 39 9 21 14 -5 24 -42 15 -35 -7
-90 -14 -153 -17 -23 -1 -49 -9 -58 -16 -9 -8 -19 -11 -22 -8 -12 11 60 52
109 62 89 17 273 8 339 -18z m1112 25 c9 -14 -10 -33 -27 -26 -18 6 -21 16
-10 27 9 9 31 9 37 -1z m-5406 -31 c-2 -9 -11 -17 -21 -19 -21 -4 -35 27 -17
38 19 12 42 0 38 -19z m822 21 c0 -15 -34 -39 -63 -44 l-28 -5 33 28 c33 28
58 37 58 21z m597 -8 c104 -35 69 -53 -87 -44 -118 7 -140 4 -140 -17 0 -11
14 -13 61 -11 38 2 63 -1 66 -8 7 -21 -45 -30 -175 -28 -110 1 -137 4 -150 18
-15 15 -15 18 -2 26 8 5 23 10 33 10 10 0 32 7 48 16 33 17 201 51 261 53 21
0 59 -6 85 -15z m4693 -21 c0 -17 -37 -63 -51 -63 -11 0 -32 58 -24 69 3 6 22
11 41 11 25 0 34 -4 34 -17z m-5735 -2 c3 -5 -6 -26 -20 -47 -29 -42 -31 -73
-10 -114 19 -36 57 -48 99 -30 17 7 45 13 61 14 27 1 30 -2 27 -28 -4 -36 -34
-61 -88 -75 -34 -9 -51 -8 -89 7 -65 23 -95 71 -95 149 1 65 12 86 62 113 39
22 45 23 53 11z m5495 -36 c0 -8 -9 -15 -20 -15 -11 0 -20 7 -20 15 0 8 9 15
20 15 11 0 20 -7 20 -15z m-9410 -5 c0 -5 -4 -10 -10 -10 -5 0 -10 5 -10 10 0
6 5 10 10 10 6 0 10 -4 10 -10z m5118 -8 c2 -7 -2 -10 -12 -6 -9 3 -16 11 -16
16 0 13 23 5 28 -10z m3092 8 c0 -5 -12 -10 -27 -10 -22 0 -25 2 -13 10 20 13
40 13 40 0z m-925 -36 c-23 -17 -34 -2 -14 22 9 11 15 12 23 4 8 -8 6 -15 -9
-26z m-2368 20 c-3 -3 -12 -4 -19 -1 -8 3 -5 6 6 6 11 1 17 -2 13 -5z m50 -20
c-3 -4 -14 -3 -24 0 -15 6 -15 8 -3 16 16 10 39 -4 27 -16z m4582 -54 c-36
-45 -48 -48 -73 -21 -24 26 -15 36 38 50 25 6 48 16 52 23 6 9 9 9 12 0 2 -6
-11 -30 -29 -52z m948 35 c1 -5 -1 -16 -6 -24 -7 -10 -13 -11 -30 -1 -18 9
-20 14 -10 26 13 16 40 15 46 -1z m-6789 -62 c3 -20 -1 -23 -27 -23 -35 0 -48
15 -30 36 18 22 53 14 57 -13z m4530 -42 c25 -45 35 -75 34 -103 -2 -51 -13
-69 -63 -109 -38 -30 -47 -33 -103 -31 -64 3 -89 14 -142 66 -35 35 -48 67
-39 96 9 29 24 25 79 -20 81 -67 114 -64 155 15 24 46 24 47 8 93 -22 61 -22
64 10 60 21 -2 34 -16 61 -67z m578 39 c9 0 14 -11 14 -28 0 -22 -7 -32 -27
-41 -24 -11 -29 -10 -45 9 -10 12 -18 28 -18 36 0 17 31 35 48 29 8 -3 20 -5
28 -5z m-1053 -12 c11 -33 -20 -49 -52 -29 -12 8 -12 12 -2 25 16 19 48 21 54
4z m2402 -28 c-10 -11 -20 -18 -23 -15 -7 6 18 35 31 35 5 0 2 -9 -8 -20z
m-8100 -43 c22 -8 69 -24 105 -37 36 -12 72 -30 81 -41 16 -17 14 -21 -20 -57
-20 -21 -56 -49 -79 -62 -28 -16 -44 -33 -48 -50 -3 -14 -7 -35 -10 -47 -8
-42 -24 -24 -18 21 6 41 5 44 -24 54 -27 9 -33 7 -55 -16 -17 -19 -28 -47 -35
-90 -12 -66 -6 -98 22 -121 9 -7 16 -22 16 -33 0 -23 43 -104 73 -137 29 -31
171 -98 225 -105 53 -8 165 -79 240 -153 56 -55 77 -105 89 -208 7 -69 -24
-145 -86 -210 -68 -71 -81 -94 -82 -145 0 -55 -18 -110 -40 -123 -25 -15 -77
10 -96 46 -8 17 -18 58 -20 91 -7 74 -36 128 -66 124 -33 -5 -63 -59 -69 -125
-3 -33 -15 -80 -27 -106 -11 -25 -21 -50 -21 -55 0 -5 -12 -17 -26 -27 -39
-25 -47 -8 -49 94 -1 96 -12 121 -50 121 -26 0 -70 -32 -87 -63 -7 -12 -15
-48 -19 -81 -6 -51 -13 -64 -50 -102 -23 -24 -56 -46 -73 -50 -17 -3 -53 -16
-81 -29 -27 -12 -62 -27 -77 -33 -35 -14 -35 -27 -3 -48 32 -21 32 -30 0 -36
-21 -4 -29 1 -48 35 -16 29 -34 44 -65 56 -48 19 -73 48 -73 88 -1 43 27 154
48 194 15 29 19 54 18 115 -1 44 1 84 5 89 9 12 -3 223 -14 248 -15 33 19 18
38 -17 12 -23 30 -37 58 -47 22 -7 51 -22 64 -32 23 -18 26 -18 50 -2 31 20
41 43 26 64 -28 39 -42 89 -51 184 -12 117 -24 187 -35 205 -4 7 -25 24 -45
37 -26 16 -40 33 -44 55 -4 17 -23 47 -42 67 -45 46 -51 73 -32 126 9 23 19
61 23 85 4 24 14 58 24 77 50 99 202 225 271 225 19 0 51 6 73 14 32 11 50 11
105 1 36 -7 84 -20 106 -28z m2397 -12 c9 -19 9 -28 0 -37 -17 -17 -15 -38 3
-38 8 0 26 18 40 40 22 35 28 39 45 30 15 -8 20 -21 20 -50 0 -55 -40 -99
-100 -110 -60 -11 -101 7 -135 59 -22 32 -26 47 -21 75 9 49 22 53 55 17 29
-31 54 -44 31 -16 -18 22 -3 55 26 55 16 0 28 -8 36 -25z m262 -21 c3 -9 6
-27 6 -40 0 -30 -31 -33 -60 -4 -25 25 -25 36 -2 49 25 15 49 13 56 -5z m5926
0 c60 -7 137 -55 197 -123 28 -31 32 -44 33 -91 0 -30 10 -80 21 -110 24 -65
24 -57 15 -188 -8 -125 -23 -167 -62 -176 -16 -4 -49 -24 -74 -45 -65 -53
-113 -79 -163 -86 -66 -10 -93 -43 -110 -135 -16 -84 -12 -143 10 -161 24 -20
43 11 60 97 16 79 34 114 59 114 18 0 28 -42 20 -88 -6 -41 8 -150 22 -164 13
-13 39 1 45 23 3 11 1 49 -5 84 -10 57 -8 72 12 137 24 77 45 118 59 118 15 0
19 -50 7 -103 -12 -56 -6 -139 22 -272 18 -87 51 -140 82 -130 22 7 76 -55 85
-97 4 -15 24 -53 46 -85 46 -68 49 -90 13 -103 -84 -32 -198 15 -313 130 -40
40 -60 52 -102 61 -50 11 -54 10 -71 -11 -12 -14 -18 -39 -18 -70 0 -65 -18
-152 -34 -168 -21 -21 -50 0 -84 60 -38 68 -45 96 -46 191 -1 70 -4 81 -25 98
-49 40 -121 6 -121 -58 0 -13 -14 -49 -30 -81 -60 -113 -102 -155 -142 -144
-17 4 -19 11 -14 41 23 131 20 170 -30 316 -44 133 -47 146 -46 243 1 113 6
146 31 201 32 72 124 181 152 181 9 0 47 11 84 25 176 67 269 139 328 257 41
82 46 121 20 158 -38 54 -59 64 -98 44 -32 -16 -45 -7 -45 33 0 12 -5 25 -11
28 -5 4 -8 12 -6 18 5 17 99 46 137 42 19 -2 60 -7 90 -11z m-5730 -80 c0 -16
-26 -19 -35 -4 -3 6 -4 14 0 20 8 13 35 1 35 -16z m2610 10 c0 -17 -22 -14
-28 4 -2 7 3 12 12 12 9 0 16 -7 16 -16z m-3830 -49 c0 -8 -7 -15 -15 -15 -16
0 -20 12 -8 23 11 12 23 8 23 -8z m5030 0 c17 -21 5 -45 -24 -45 -53 0 -75 28
-38 49 25 15 48 13 62 -4z m1488 -8 c13 -14 9 -17 -34 -30 -84 -26 -152 -65
-196 -113 -45 -49 -85 -100 -91 -118 -2 -6 -8 -8 -12 -3 -5 4 -3 13 3 19 7 7
12 24 12 39 0 33 40 105 78 142 50 48 141 89 186 83 21 -2 45 -11 54 -19z
m215 -19 c-2 -24 -6 -44 -8 -46 -2 -2 -11 10 -20 28 -19 37 -14 60 14 60 17 0
19 -5 14 -42z m-7283 22 c0 -5 -7 -10 -15 -10 -8 0 -15 5 -15 10 0 6 7 10 15
10 8 0 15 -4 15 -10z m1899 -57 c1 -35 -8 -40 -39 -23 -16 9 -18 15 -9 37 6
15 15 34 22 41 9 12 12 11 18 -5 4 -10 8 -33 8 -50z m-1094 17 c0 -15 -66 -21
-76 -7 -4 5 -4 17 -2 27 4 17 9 17 41 6 21 -7 37 -19 37 -26z m5313 -8 c2 -7
-7 -12 -22 -12 -27 0 -35 15 -13 23 17 7 30 3 35 -11z m-9114 -24 c10 -19 19
-22 47 -20 37 3 77 -26 64 -47 -19 -31 -175 18 -175 55 0 10 6 14 14 11 9 -4
17 2 21 14 7 23 12 20 29 -13z m7243 -70 c2 -46 8 -99 13 -118 22 -97 53 -196
68 -219 9 -14 26 -44 37 -65 23 -46 123 -156 141 -156 6 0 17 -7 24 -15 16
-19 50 -19 50 0 0 8 -14 27 -32 42 -58 50 -148 143 -148 153 0 6 -9 36 -20 67
-11 32 -20 61 -20 65 0 18 17 6 31 -19 27 -53 54 -88 99 -128 92 -83 190 -154
212 -155 31 0 30 -22 -3 -56 -18 -19 -37 -34 -42 -34 -5 0 -22 -11 -38 -24
-15 -13 -54 -31 -86 -40 -32 -10 -89 -27 -127 -38 -60 -18 -75 -20 -113 -10
-24 7 -53 12 -66 12 -12 0 -31 6 -42 14 -11 7 -32 16 -47 20 -38 9 -131 67
-176 108 -64 61 -127 160 -150 238 -13 45 -11 275 3 275 13 0 34 -61 35 -105
0 -31 6 -61 25 -147 4 -15 13 -23 26 -23 19 0 20 4 16 38 -3 20 -11 61 -18 90
-9 41 -9 62 0 93 6 21 16 39 21 39 9 0 30 -62 30 -91 0 -30 52 -224 73 -272
12 -26 26 -46 31 -44 19 6 11 68 -23 187 -37 129 -50 254 -31 300 7 17 16 30
20 30 11 0 20 -38 20 -88 0 -41 33 -188 67 -297 22 -71 80 -189 104 -211 29
-27 45 -5 25 34 -9 17 -16 36 -16 42 0 7 -9 23 -20 37 -11 14 -20 36 -20 48 0
12 -7 28 -15 35 -8 7 -15 20 -15 29 0 9 -9 31 -20 49 -11 19 -20 50 -20 75 0
23 -5 60 -12 82 -6 22 -11 66 -13 97 -1 32 -4 61 -8 64 -10 10 12 44 29 44 20
0 43 -58 48 -122 15 -208 77 -367 186 -479 34 -35 60 -56 56 -46 -3 10 -6 25
-6 32 0 8 -13 29 -29 47 -15 18 -40 60 -55 93 -15 33 -36 80 -47 104 -11 25
-25 85 -30 134 -6 49 -14 99 -18 111 -16 43 6 182 26 163 3 -3 7 -43 10 -89z
m4814 80 c1 -7 1 -19 0 -25 -1 -7 5 -10 13 -7 18 7 26 -7 19 -34 -5 -20 -7
-20 -29 -5 -13 8 -21 19 -18 25 3 5 0 15 -6 23 -12 15 -6 35 11 35 5 0 10 -6
10 -12z m-7571 -34 c0 -8 -4 -14 -10 -14 -5 0 -10 9 -10 21 0 11 5 17 10 14 6
-3 10 -13 10 -21z m494 3 c8 -12 7 -26 -3 -49 -7 -18 -13 -55 -12 -82 5 -118
-26 -276 -80 -420 -31 -80 -31 -98 -1 -80 15 10 25 26 52 85 4 8 15 49 25 90
9 40 21 84 26 97 15 38 30 213 24 272 -6 48 -4 58 14 74 39 35 43 16 37 -198
-5 -200 -13 -252 -49 -323 -9 -16 -19 -46 -22 -67 -11 -57 13 -43 52 30 41 76
62 187 73 369 9 159 7 145 19 145 16 0 41 -129 41 -212 0 -46 -7 -108 -15
-138 -19 -71 -19 -100 0 -100 10 0 15 10 15 29 0 16 6 42 14 58 22 43 34 158
29 256 -5 76 -3 87 11 87 9 0 17 -4 17 -10 2 -11 2 -17 13 -160 9 -116 -10
-222 -52 -284 -15 -22 -34 -56 -41 -74 -8 -18 -28 -42 -45 -54 -17 -12 -47
-35 -65 -51 -93 -80 -349 -137 -446 -100 -17 6 -52 17 -80 24 -37 10 -68 30
-128 82 -76 67 -131 147 -113 164 4 5 38 7 74 6 62 -1 89 4 182 40 48 18 154
123 171 170 7 22 22 43 31 48 15 8 18 5 18 -18 -1 -15 -6 -37 -13 -49 -24 -40
-111 -134 -131 -140 -29 -10 -117 -85 -110 -95 21 -34 159 62 225 157 51 72
99 195 99 252 0 51 27 152 41 152 20 0 -3 -221 -32 -305 -29 -81 -93 -200
-135 -249 -40 -47 -43 -66 -10 -66 17 0 36 15 63 48 42 50 113 187 113 216 0
9 6 38 14 64 8 26 19 74 26 107 6 33 17 83 25 110 7 28 11 65 8 84 -6 36 11
41 31 8z m-2595 -32 c29 -25 57 -45 62 -45 4 0 16 -15 26 -32 21 -41 26 -219
6 -239 -20 -20 -22 -9 -10 53 9 50 7 64 -13 120 -18 49 -38 77 -87 126 -73 72
-62 84 16 17z m1768 18 c5 -14 -25 -25 -48 -18 -21 7 -25 31 -6 38 16 5 50 -7
54 -20z m4181 -10 c3 -19 -1 -23 -22 -23 -21 0 -26 5 -26 26 0 21 4 25 23 22
14 -2 23 -11 25 -25z m-2306 -77 c2 -91 1 -191 -5 -378 -4 -100 -3 -220 1
-265 4 -46 5 -83 2 -83 -27 1 -35 80 -45 465 -2 61 -6 130 -9 155 -3 25 -1 63
5 85 6 22 13 54 14 70 2 17 4 32 5 35 0 3 7 -4 15 -14 8 -11 16 -43 17 -70z
m-1307 29 c0 -13 -8 -21 -22 -23 -24 -3 -28 4 -17 33 9 22 39 14 39 -10z
m2705 10 c17 -21 4 -35 -35 -35 -19 0 -37 5 -40 10 -10 16 14 40 40 40 12 0
28 -7 35 -15z m431 -1 c16 -19 1 -48 -28 -52 -24 -4 -57 32 -50 53 8 20 61 20
78 -1z m219 -46 c0 -13 -23 -5 -28 10 -2 7 2 10 12 6 9 -3 16 -11 16 -16z
m-4193 -4 c3 -9 0 -20 -8 -25 -20 -12 -49 -11 -49 2 0 12 29 38 43 39 4 0 10
-7 14 -16z m1450 -26 c21 -28 34 -104 33 -186 -1 -134 25 -272 51 -272 5 0 14
10 20 23 12 22 13 22 26 -10 30 -75 3 -366 -48 -516 -29 -85 -32 -106 -10 -93
12 8 81 147 81 165 0 8 9 39 20 70 22 63 39 241 32 346 -4 74 -5 196 -2 255 1
19 -1 71 -5 115 l-8 80 24 -22 c23 -21 24 -26 18 -105 -3 -46 -2 -96 3 -113
15 -45 22 -333 10 -384 -17 -72 8 -95 48 -44 20 25 21 35 16 208 -2 99 -1 196
4 215 4 19 8 32 9 28 1 -3 8 -42 16 -85 16 -86 19 -243 5 -313 -14 -70 25
-116 62 -72 11 12 14 36 12 87 -2 39 -5 134 -8 212 -3 78 -10 151 -16 162 -5
11 -10 38 -10 60 0 34 3 41 20 41 18 0 20 -7 20 -64 0 -35 7 -101 15 -148 8
-46 12 -113 10 -148 -12 -188 -11 -227 10 -250 14 -16 27 -20 47 -16 24 5 29
2 34 -22 3 -15 14 -56 24 -92 52 -190 79 -392 81 -601 0 -111 2 -119 20 -119
10 0 19 5 19 11 0 8 5 8 15 -1 8 -7 15 -21 15 -32 0 -16 -5 -19 -24 -14 -36 9
-52 -17 -85 -139 -16 -61 -41 -132 -55 -159 -25 -48 -35 -106 -17 -106 11 0
74 104 97 162 10 27 22 48 25 48 3 0 14 -9 25 -21 16 -18 18 -34 16 -120 -2
-54 -4 -127 -5 -161 -1 -35 2 -155 7 -268 7 -188 9 -227 16 -270 1 -8 8 8 16
35 11 39 13 114 11 355 -4 313 1 415 18 414 9 0 32 -28 95 -118 14 -19 28 -36
33 -36 10 0 9 38 -2 45 -5 3 -12 18 -16 34 -3 16 -15 46 -26 67 -10 21 -19 48
-19 60 0 11 -7 43 -15 70 -25 80 -37 152 -46 279 -4 66 -7 127 -7 135 0 8 2
60 3 115 1 59 7 110 14 124 7 13 23 65 34 115 25 106 26 269 2 336 -11 30 -12
47 -4 61 7 13 7 31 -1 57 -12 45 -13 219 -1 226 4 3 11 -18 15 -47 3 -28 9
-65 12 -82 3 -16 11 -79 18 -140 13 -101 36 -186 58 -210 6 -7 15 -3 24 10 17
22 15 61 -11 165 -35 142 -49 350 -24 374 6 6 9 6 9 0 3 -112 37 -328 60 -379
5 -11 12 -36 15 -55 11 -58 16 -70 30 -70 21 0 30 47 15 78 -28 62 -57 419
-35 440 16 16 26 -27 31 -124 3 -59 12 -127 20 -149 7 -22 14 -54 14 -71 0
-49 43 -164 61 -164 20 0 20 55 1 118 -12 37 -23 105 -27 152 -16 238 -17 288
-7 306 9 16 11 13 21 -21 5 -22 10 -74 10 -115 0 -138 40 -350 88 -465 45
-106 104 -215 127 -234 9 -8 16 -20 16 -27 0 -19 38 -56 50 -49 11 7 3 31 -24
69 -11 17 -28 46 -38 65 -17 34 -119 345 -133 406 -16 71 -31 226 -28 295 2
41 4 87 4 102 0 26 24 56 35 45 3 -3 8 -59 10 -124 7 -200 13 -245 32 -241 15
3 17 23 17 184 0 138 4 185 14 198 22 26 31 19 32 -26 0 -24 5 -65 10 -93 6
-27 11 -61 13 -75 1 -14 10 -43 19 -64 11 -26 23 -101 32 -215 9 -97 20 -198
27 -226 19 -87 94 -226 157 -292 110 -116 117 -149 36 -170 -27 -7 -59 -11
-69 -9 -11 3 -32 -2 -47 -11 -25 -15 -29 -15 -64 5 -20 12 -45 22 -56 22 -46
0 -199 137 -256 228 -18 28 -33 56 -33 62 0 20 -51 90 -65 90 -19 0 -55 -57
-55 -88 0 -12 -8 -39 -19 -60 -42 -86 -47 -141 -37 -492 3 -114 8 -159 25
-209 11 -35 21 -73 21 -83 0 -36 42 -149 92 -246 55 -108 74 -135 153 -221 30
-32 55 -63 55 -69 0 -18 -56 -18 -131 0 -80 20 -93 29 -142 103 -43 64 -60 74
-86 51 -27 -25 -26 -42 4 -108 56 -122 66 -307 24 -423 -10 -27 -21 -68 -24
-90 -4 -22 -24 -76 -45 -120 -44 -92 -74 -180 -91 -266 l-12 -60 -23 22 c-13
13 -24 27 -24 33 0 6 -8 27 -19 46 -10 19 -24 53 -31 75 -12 39 -50 132 -92
225 -14 31 -22 71 -24 129 -2 46 -9 99 -15 119 -14 44 -6 251 12 284 23 43 39
120 28 140 -16 29 -45 21 -69 -19 -29 -50 -82 -93 -148 -120 -58 -24 -172 -41
-172 -26 0 5 25 33 54 62 74 73 121 145 137 210 8 30 24 65 36 77 13 13 23 30
23 39 0 8 4 23 9 33 28 50 61 198 70 312 19 240 10 382 -33 505 -13 38 -30 97
-36 129 -12 56 -44 106 -69 106 -6 0 -25 -30 -42 -66 -26 -56 -30 -76 -27
-125 2 -33 0 -59 -4 -59 -4 0 -21 -20 -39 -45 -18 -25 -63 -68 -101 -95 -61
-45 -75 -50 -136 -56 -83 -7 -224 10 -257 32 -30 19 -32 40 -6 49 24 7 132
129 156 175 10 19 24 58 31 85 7 28 20 75 29 105 28 91 37 175 39 380 3 186 2
196 -18 218 -18 21 -21 36 -22 130 0 59 1 110 3 115 6 11 19 9 30 -5z m285
-11 c-1 -9 5 -33 14 -54 9 -21 17 -46 17 -55 -2 -73 -2 -73 -18 -52 -8 10 -15
31 -15 45 0 14 -7 34 -15 45 -15 20 -19 52 -9 79 8 20 30 14 26 -8z m1122 -3
c4 -9 4 -25 1 -35 -3 -10 1 -46 10 -80 16 -60 16 -64 -1 -76 -10 -7 -28 -13
-41 -13 -22 0 -23 4 -23 68 0 40 6 79 15 96 8 15 15 35 15 42 0 19 16 18 24
-2z m-2386 -26 c-2 -12 -8 -23 -14 -25 -17 -6 -27 29 -12 39 22 13 30 9 26
-14z m3317 1 c0 -7 -8 -15 -17 -17 -18 -3 -25 18 -11 32 10 10 28 1 28 -15z
m2479 -17 c-13 -20 -60 -45 -76 -40 -6 2 6 21 27 41 27 26 42 34 49 27 7 -7 7
-16 0 -28z m-4700 -64 c17 -83 19 -130 7 -193 -7 -38 -7 -39 -19 -18 -14 25
-36 278 -26 295 11 18 22 -6 38 -84z m-3314 31 c0 -11 -4 -17 -10 -14 -5 3
-10 15 -10 26 0 11 5 17 10 14 6 -3 10 -15 10 -26z m1981 12 c22 -18 23 -21 8
-36 -23 -23 -79 -12 -79 15 0 17 23 39 41 40 4 0 17 -9 30 -19z m509 -31 c0
-10 -7 -23 -15 -30 -11 -9 -20 -8 -45 10 -35 25 -35 39 1 57 19 10 27 9 41 -4
10 -9 18 -24 18 -33z m3362 -12 c9 -22 -3 -38 -27 -38 -32 0 -42 20 -20 37 23
16 41 17 47 1z m308 -9 c0 -12 -29 -24 -37 -16 -3 4 -3 13 0 21 6 16 37 11 37
-5z m-4666 -35 c9 -22 -11 -44 -41 -44 -25 0 -39 20 -29 45 8 21 62 20 70 -1z
m3960 -38 c9 -13 7 -20 -8 -32 -11 -8 -26 -14 -33 -14 -16 0 -17 42 -1 58 15
15 28 11 42 -12z m974 2 c20 -20 14 -37 -19 -53 -24 -13 -34 -14 -45 -4 -29
24 -9 69 31 69 12 0 26 -5 33 -12z m-4740 -9 c-2 -6 -8 -10 -13 -10 -5 0 -11
4 -13 10 -2 6 4 11 13 11 9 0 15 -5 13 -11z m2035 -31 c12 -32 16 -83 17 -198
2 -199 2 -196 -9 -184 -5 5 -15 81 -21 169 -6 88 -13 181 -16 208 -7 59 8 62
29 5z m-1441 -23 c0 -5 -7 -14 -16 -20 -12 -7 -19 -6 -26 5 -5 8 -10 19 -10
23 0 12 50 4 52 -8z m3468 2 c0 -21 -37 -50 -55 -44 -22 9 -18 31 8 43 31 16
47 16 47 1z m-3791 -21 c6 -7 11 -27 9 -43 -1 -16 2 -35 7 -43 4 -8 -3 -5 -16
7 -20 18 -32 21 -62 16 -20 -3 -37 -2 -37 3 1 33 16 55 44 63 43 13 42 13 55
-3z m4001 -20 c0 -17 -34 -31 -50 -21 -16 10 8 35 31 35 11 0 19 -6 19 -14z
m260 -11 c18 -21 5 -45 -24 -45 -33 0 -42 17 -20 41 21 23 28 24 44 4z m390
-20 c0 -8 -7 -15 -15 -15 -16 0 -20 12 -8 23 11 12 23 8 23 -8z m-7322 -8 c19
-15 15 -65 -7 -77 -37 -19 -48 -12 -49 31 -1 23 0 44 3 48 6 11 38 10 53 -2z
m9326 -284 c3 -115 8 -228 11 -253 6 -42 6 -44 -9 -25 -8 11 -18 36 -22 55 -3
19 -12 56 -21 82 -15 50 -18 109 -9 198 8 74 26 150 36 150 5 0 11 -93 14
-207z m-6584 140 c0 -18 -5 -24 -17 -21 -9 2 -16 6 -15 11 1 4 2 16 2 27 0 13
5 18 15 14 8 -4 15 -17 15 -31z m-2861 -25 c7 -24 15 -49 17 -55 6 -14 -22
-18 -29 -5 -3 4 -8 28 -12 55 -9 60 8 63 24 5z m2641 10 c0 -7 -5 -20 -10 -28
-9 -13 -11 -13 -20 0 -16 24 -12 40 10 40 11 0 20 -6 20 -12z m3965 2 c11 -17
-5 -32 -21 -19 -7 6 -11 15 -8 20 7 12 21 11 29 -1z m300 0 c3 -5 1 -10 -4
-10 -6 0 -11 5 -11 10 0 6 2 10 4 10 3 0 8 -4 11 -10z m-5707 -29 c3 -8 -1
-12 -9 -9 -7 2 -15 10 -17 17 -3 8 1 12 9 9 7 -2 15 -10 17 -17z m4318 -17
c-5 -13 -10 -14 -18 -6 -6 6 -8 18 -4 28 5 13 10 14 18 6 6 -6 8 -18 4 -28z
m-3461 -89 c0 -17 -7 -20 -40 -20 -34 0 -40 3 -43 23 -3 22 0 23 40 20 35 -2
43 -7 43 -23z m334 1 c9 -11 10 -20 1 -35 -13 -25 -23 -26 -44 -5 -12 12 -13
20 -6 35 13 23 33 25 49 5z m4431 -41 c0 -9 -9 -15 -25 -15 -16 0 -25 6 -25
15 0 9 9 15 25 15 16 0 25 -6 25 -15z m-3780 -9 c0 -8 -5 -18 -11 -22 -14 -8
-33 11 -25 25 10 16 36 13 36 -3z m4030 -5 c0 -6 -5 -13 -10 -16 -15 -9 -43 3
-35 15 8 13 45 13 45 1z m-4286 -7 c9 -3 16 -15 16 -25 0 -14 -7 -19 -29 -19
-29 0 -42 14 -33 38 5 13 21 15 46 6z m3809 -15 c17 -28 1 -49 -37 -49 -29 0
-37 4 -42 24 -3 14 -3 30 1 36 10 16 66 8 78 -11z m-4002 2 c3 -1 19 -13 35
-28 20 -18 23 -25 10 -20 -12 5 -26 1 -37 -9 -19 -17 -109 -27 -109 -12 0 4 4
8 9 8 5 0 13 10 17 22 8 28 33 47 53 43 9 -2 19 -4 22 -4z m1337 -13 c-3 -25
-17 -32 -37 -19 -19 12 -6 41 19 41 16 0 21 -5 18 -22z m1757 -3 c0 -21 -25
-31 -52 -21 -14 6 -14 9 3 27 22 24 49 21 49 -6z m624 -8 c13 -17 5 -27 -24
-27 -12 0 -25 3 -28 7 -9 8 12 33 28 33 7 0 18 -6 24 -13z m-2588 -17 c13 0
11 -36 -3 -48 -16 -12 -58 2 -58 21 0 19 22 38 38 32 8 -3 18 -5 23 -5z
m-1533 -38 c4 -24 -28 -45 -52 -36 -25 10 -20 52 7 57 33 6 42 3 45 -21z
m1140 -5 c4 -20 -25 -34 -40 -19 -15 15 -1 44 19 40 10 -2 19 -11 21 -21z
m3980 -9 c-4 -29 -39 -35 -62 -12 -21 21 -7 34 37 34 24 0 28 -4 25 -22z
m-4976 -101 c92 -2 107 1 145 22 43 25 73 23 73 -4 0 -9 -21 -41 -47 -71 -37
-41 -55 -54 -76 -54 -15 0 -42 -7 -58 -16 -25 -13 -44 -14 -108 -6 -83 10
-205 57 -198 76 5 12 6 12 50 1 45 -12 33 16 -38 82 -36 33 -65 65 -65 70 0 5
49 -15 110 -44 l109 -55 103 -1z m3568 94 c13 -26 13 -41 -2 -41 -24 1 -49 27
-42 44 8 22 31 20 44 -3z m1593 -7 c10 -11 -29 -54 -77 -84 -24 -15 -47 -33
-51 -40 -10 -17 15 -31 43 -25 24 6 31 -12 7 -21 -8 -4 -15 -14 -15 -24 0 -28
-14 -32 -108 -30 -213 4 -263 13 -298 51 -11 12 -31 27 -45 35 -28 14 -47 60
-31 76 15 15 67 0 105 -30 31 -25 40 -27 119 -26 67 1 95 6 127 23 23 11 50
21 60 21 10 0 24 7 31 15 7 8 22 15 34 15 11 0 35 11 51 25 32 26 38 28 48 19z
m-765 -61 c4 -27 -25 -86 -41 -80 -6 2 -17 17 -23 34 -11 25 -10 34 3 52 19
28 57 25 61 -6z m-558 -6 c0 -39 -33 -61 -77 -52 -49 9 -52 11 -46 34 6 24 38
39 86 40 32 1 37 -2 37 -22z m-3307 -27 c15 -14 3 -45 -19 -48 -11 -2 -31 6
-44 16 -21 17 -22 22 -11 36 13 16 55 13 74 -4z m-1663 -13 c0 -14 -20 -37
-32 -37 -10 0 -11 34 -1 43 11 12 33 8 33 -6z m7191 -7 c25 -14 24 -30 -1 -30
-10 0 -24 9 -30 20 -12 23 -1 27 31 10z m-4863 -28 c3 -18 -2 -22 -22 -22 -33
0 -44 20 -20 37 24 17 38 12 42 -15z m2160 11 c-4 -20 -18 -26 -37 -14 -18 12
-5 31 20 31 14 0 19 -6 17 -17z m-3031 -23 c23 -45 -10 -66 -55 -34 -21 14
-29 44 -16 57 14 13 60 -1 71 -23z m1143 -19 c14 -27 -3 -36 -40 -19 -17 7
-30 16 -30 19 0 25 56 25 70 0z m2167 -22 c5 -38 -19 -55 -57 -39 -36 15 -37
26 -7 51 30 26 60 21 64 -12z m959 -4 c24 -37 5 -55 -57 -55 -58 0 -64 17 -23
55 34 32 59 32 80 0z m1534 -6 c12 -22 13 -29 1 -29 -14 0 -41 30 -41 45 0 19
28 8 40 -16z m-7228 -56 c-22 -27 -47 -62 -56 -80 -16 -32 -73 -80 -82 -70
-13 13 33 81 87 130 32 28 59 57 59 63 0 5 6 16 13 23 10 10 13 9 15 -3 2 -9
-14 -37 -36 -63z m3861 64 c7 -19 -4 -33 -30 -41 -20 -7 -23 -4 -23 23 0 26 4
31 24 31 13 0 26 -6 29 -13z m-2383 -34 c0 -10 3 -27 6 -38 3 -14 -2 -23 -18
-30 -13 -5 -24 -20 -26 -32 -6 -42 -22 -24 -22 24 0 34 6 53 22 70 26 27 38
29 38 6z m3934 4 c21 -15 13 -43 -17 -59 -17 -9 -24 -7 -40 13 -19 23 -19 24
3 41 26 21 31 22 54 5z m-1881 -34 c4 -20 3 -40 -1 -43 -20 -15 -32 -54 -26
-84 8 -46 -10 -53 -36 -15 -25 35 -27 56 -11 117 12 44 31 57 31 21 0 -11 4
-17 10 -14 6 4 10 14 9 23 -4 48 17 43 24 -5z m3604 -30 c10 -15 28 -37 40
-50 13 -12 23 -34 23 -49 l0 -28 -30 29 c-16 16 -30 34 -30 40 0 7 -9 20 -20
30 -21 19 -27 55 -10 55 5 0 18 -12 27 -27z m-5809 -2 c12 -7 12 -12 1 -30
-13 -20 -39 -28 -51 -16 -3 3 -3 17 0 30 4 25 25 32 50 16z m329 -10 c10 -15
9 -22 -2 -31 -19 -16 -45 -6 -45 18 0 36 28 44 47 13z m763 3 c11 -12 10 -18
-3 -31 -8 -9 -23 -13 -31 -10 -19 8 -21 43 -3 50 20 9 24 8 37 -9z m2276 -15
c3 -6 17 -8 30 -5 20 5 24 3 24 -17 0 -14 13 -41 30 -62 22 -28 27 -41 20 -55
-19 -36 -109 -32 -124 5 -10 26 -7 145 3 145 6 0 13 -5 17 -11z m-3656 -51 c0
-18 -16 -23 -44 -12 -19 7 -21 35 -4 52 15 15 48 -12 48 -40z m3520 32 c0 -11
-4 -20 -10 -20 -5 0 -10 9 -10 20 0 11 5 20 10 20 6 0 10 -9 10 -20z m1570
-10 c20 -38 -51 -69 -80 -35 -18 21 -8 48 20 55 31 8 48 3 60 -20z m-268 -2
c8 -7 18 -21 21 -30 8 -24 -33 -50 -70 -46 -22 2 -29 9 -31 31 -6 50 41 76 80
45z m-2684 -14 c-2 -9 -13 -23 -25 -31 -20 -14 -23 -14 -29 1 -8 21 13 46 38
46 13 0 18 -6 16 -16z m2436 -20 c20 -8 21 -57 2 -73 -18 -15 -59 -5 -81 19
-35 39 21 76 79 54z m-1734 -24 c25 -25 25 -39 3 -46 -10 -3 -26 -10 -36 -15
-10 -6 -27 -7 -38 -4 -29 9 -22 56 11 72 33 17 37 16 60 -7z m3252 -59 c10
-17 24 -34 33 -37 22 -9 70 -56 78 -77 4 -10 11 -16 17 -12 10 6 2 64 -11 80
-5 5 -9 17 -9 28 0 15 4 14 30 -10 17 -16 31 -38 31 -48 -1 -47 -14 -83 -32
-88 -12 -3 -19 -14 -19 -29 0 -24 -25 -68 -32 -58 -18 22 -47 81 -53 107 -3
18 -11 36 -16 39 -6 3 -24 24 -40 46 -22 32 -29 52 -29 87 1 45 1 46 18 25 9
-12 25 -36 34 -53z m-7152 12 c0 -22 -48 -83 -66 -83 -23 0 -16 24 17 63 34
40 49 46 49 20z m5685 -3 c-3 -5 -10 -10 -16 -10 -5 0 -9 5 -9 10 0 6 7 10 16
10 8 0 12 -4 9 -10z m-4157 -22 c-2 -17 -11 -24 -32 -26 -34 -4 -49 8 -40 31
4 11 18 17 41 17 30 0 34 -3 31 -22z m5624 -205 c5 -7 10 -34 11 -60 2 -41 -1
-48 -17 -48 -15 0 -23 11 -31 46 -7 25 -24 63 -39 85 -14 21 -26 43 -26 49 0
5 -10 29 -22 51 -19 36 -20 45 -9 71 l12 31 56 -107 c30 -58 60 -111 65 -118z
m-7340 185 c-15 -15 -26 -4 -18 18 5 13 9 15 18 6 9 -9 9 -15 0 -24z m1473 22
c10 -17 -5 -50 -23 -50 -9 0 -26 7 -36 15 -16 12 -17 17 -6 30 14 17 56 20 65
5z m2842 -45 c-1 -39 -16 -44 -61 -24 -30 14 -25 29 9 29 12 0 25 7 29 15 10
27 24 16 23 -20z m463 -4 c0 -10 -6 -21 -14 -24 -24 -10 -56 4 -56 24 0 15 7
19 35 19 28 0 35 -4 35 -19z m-1600 -12 c0 -5 -4 -9 -10 -9 -5 0 -10 7 -10 16
0 8 5 12 10 9 6 -3 10 -10 10 -16z m90 11 c0 -5 -4 -10 -10 -10 -5 0 -10 5
-10 10 0 6 5 10 10 10 6 0 10 -4 10 -10z m-3565 -47 c-11 -77 -55 -128 -55
-65 0 33 36 112 51 112 7 0 8 -17 4 -47z m2895 32 c10 -12 10 -21 0 -45 -7
-16 -14 -30 -17 -30 -2 0 -15 11 -30 24 -18 17 -23 29 -18 45 8 25 46 29 65 6z
m826 -29 c13 -19 13 -22 -7 -38 -15 -13 -26 -15 -39 -8 -30 16 -51 12 -72 -15
-41 -53 -73 -12 -38 48 19 32 24 35 42 24 16 -10 22 -9 30 4 14 21 64 12 84
-15z m1079 -6 c8 -13 -28 -81 -54 -102 -28 -24 -68 -23 -81 1 -12 23 -3 51 15
51 8 0 26 13 42 30 28 29 66 39 78 20z m-4400 -10 c3 -5 -10 -27 -30 -48 -19
-22 -35 -44 -35 -49 0 -6 -7 -16 -15 -23 -13 -11 -15 -8 -15 18 0 21 7 35 20
42 11 6 20 21 20 34 0 12 3 26 7 29 10 10 41 8 48 -3z m4275 1 c0 -6 -4 -13
-10 -16 -5 -3 -10 1 -10 9 0 9 5 16 10 16 6 0 10 -4 10 -9z m-4160 -16 c0 -14
-46 -121 -75 -176 -11 -19 -11 -29 -3 -37 14 -14 10 -18 -24 -27 -40 -10 -44
12 -19 95 26 83 74 160 102 160 10 0 19 -7 19 -15z m6942 -2 c24 -27 106 -204
116 -251 7 -27 6 -44 -1 -51 -17 -17 -37 -13 -37 7 0 10 -4 22 -10 28 -5 5
-11 31 -13 58 -3 30 -10 52 -20 58 -23 13 -77 112 -77 142 0 30 20 34 42 9z
m-3099 -21 c14 -16 15 -22 3 -57 -19 -54 -44 -53 -74 3 -19 34 -21 46 -12 57
17 21 64 19 83 -3z m-3736 -34 c-3 -23 -15 -53 -26 -67 -33 -41 -65 -102 -81
-156 -10 -30 -22 -50 -30 -50 -20 0 -14 103 6 126 8 8 14 23 14 32 0 9 4 18 9
21 5 3 21 29 36 58 34 66 44 78 63 78 11 0 13 -9 9 -42z m4651 6 c3 -22 -32
-45 -55 -37 -14 5 -18 45 -6 57 15 15 58 1 61 -20z m-4538 -23 c0 -11 -4 -23
-10 -26 -31 -19 -127 -225 -115 -245 3 -5 -8 -22 -24 -38 l-30 -29 -10 29 c-7
20 -7 36 -1 48 6 10 10 27 10 38 0 11 6 25 13 31 8 6 20 28 27 50 7 22 32 62
56 89 24 28 44 55 44 61 0 6 9 11 20 11 13 0 20 -7 20 -19z m2520 -21 c9 -17
7 -22 -15 -32 -21 -10 -29 -9 -43 6 -16 16 -16 18 2 32 27 19 43 18 56 -6z
m240 -37 c0 -22 -4 -24 -42 -21 -56 4 -63 29 -16 58 31 19 34 19 46 3 6 -9 12
-27 12 -40z m1084 51 c27 -10 19 -41 -14 -52 -35 -13 -45 -3 -36 34 6 24 21
29 50 18z m183 -41 c-11 -10 -26 8 -20 23 5 15 7 14 15 -1 6 -9 7 -19 5 -22z
m208 28 c7 -12 -12 -24 -25 -16 -11 7 -4 25 10 25 5 0 11 -4 15 -9z m-4918
-58 c-3 -10 -5 -4 -5 12 0 17 2 24 5 18 2 -7 2 -21 0 -30z m-167 8 c0 -11 -4
-23 -10 -26 -6 -4 -10 5 -10 19 0 14 5 26 10 26 6 0 10 -9 10 -19z m4449 -10
c11 -24 -2 -76 -19 -76 -9 0 -21 18 -30 43 -13 37 -13 44 -1 52 18 10 39 2 50
-19z m-1557 -1 c14 0 19 -6 16 -22 -2 -19 -10 -24 -45 -26 -36 -3 -43 0 -43
15 0 24 21 45 38 38 8 -3 23 -5 34 -5z m1998 -4 c0 -3 -4 -8 -10 -11 -5 -3
-10 -1 -10 4 0 6 5 11 10 11 6 0 10 -2 10 -4z m-1736 -12 c19 -7 21 -47 4 -62
-16 -13 -64 -4 -79 14 -13 16 -4 32 25 44 27 11 31 11 50 4z m-2264 -43 c0
-24 -8 -48 -21 -66 -25 -31 -89 -155 -89 -171 0 -6 -7 -17 -16 -24 -13 -11
-16 -10 -21 8 -3 12 -13 22 -22 22 -14 1 -14 2 2 14 9 7 22 29 28 47 5 19 21
57 34 84 13 28 31 67 40 88 12 28 22 37 40 37 22 0 25 -4 25 -39z m4650 18
c15 -27 -1 -46 -47 -55 -69 -13 -86 52 -17 67 48 11 53 10 64 -12z m2280 -15
c0 -37 -14 -42 -34 -12 -7 12 -6 21 3 32 21 25 31 19 31 -20z m-4015 1 c0 -29
-43 -49 -78 -36 -24 9 -26 14 -17 30 17 33 95 38 95 6z m1096 6 l24 -20 -21
-21 c-20 -20 -21 -20 -37 -2 -10 11 -14 26 -10 40 7 27 14 27 44 3z m417 -33
c-3 -45 -6 -53 -23 -53 -26 0 -29 22 -10 68 22 53 37 47 33 -15z m2690 25 c35
-16 36 -18 5 -91 -11 -27 -17 -32 -24 -21 -5 8 -9 24 -9 36 0 54 -36 76 -42
26 -2 -20 -9 -29 -25 -31 -29 -4 -31 23 -4 37 10 6 21 24 24 40 7 33 10 33 75
4z m-463 -13 c8 -14 24 -46 36 -72 22 -46 22 -48 4 -68 -26 -29 -45 -9 -45 47
0 29 -7 53 -21 72 -12 16 -18 34 -14 41 10 16 24 9 40 -20z m-2861 -31 c-9
-15 -34 -10 -41 7 -4 11 1 22 13 31 16 12 19 11 26 -8 5 -11 6 -25 2 -30z
m-4411 -25 c-3 -8 -9 -14 -13 -14 -14 0 -22 20 -16 37 5 12 9 13 21 3 7 -6 11
-18 8 -26z m3091 0 c27 -33 29 -41 34 -152 4 -98 1 -129 -16 -191 -24 -83 -50
-122 -64 -96 -5 8 -6 20 -2 26 16 26 15 145 -2 199 -9 30 -20 59 -25 65 -5 5
-9 19 -9 32 0 13 -5 23 -11 23 -5 0 -7 -4 -4 -10 11 -17 7 -284 -4 -313 -6
-16 -11 -41 -11 -57 0 -37 -44 -90 -75 -90 -34 0 -37 12 -12 51 20 31 22 47
22 164 -1 138 -8 189 -28 182 -8 -2 -12 -36 -12 -113 -1 -196 -29 -297 -85
-309 -40 -9 -45 -3 -27 32 25 49 37 151 28 241 -5 46 -11 86 -15 89 -16 17
-26 -22 -32 -127 -6 -111 -26 -212 -46 -237 -15 -18 -47 -16 -55 3 -3 9 -1 44
6 78 16 79 16 223 0 242 -20 24 -29 5 -29 -65 0 -77 -14 -160 -33 -199 -14
-30 -65 -40 -58 -12 10 41 10 212 0 231 -18 35 -32 6 -34 -73 -4 -123 -27
-178 -69 -162 -24 9 -28 35 -15 125 9 66 9 95 0 120 -14 40 -4 49 57 49 24 0
56 7 72 15 17 9 40 12 58 9 22 -5 40 1 68 20 21 14 44 26 50 26 6 0 21 11 33
24 14 15 34 24 50 24 42 -1 101 35 171 106 36 36 72 65 80 65 8 0 28 -16 44
-35z m1157 10 c11 -14 10 -19 -11 -36 -16 -13 -32 -17 -49 -13 -34 9 -35 10
-27 40 5 20 12 25 40 25 19 0 39 -7 47 -16z m618 -29 c23 -25 45 -45 49 -45 4
0 16 -15 25 -33 16 -30 17 -42 6 -123 -6 -49 -9 -126 -6 -172 4 -65 2 -86 -10
-98 -13 -13 -18 -13 -37 -1 -17 12 -20 23 -18 54 2 22 -3 56 -12 76 -18 43
-14 129 8 202 9 28 16 51 16 53 0 1 -7 2 -15 2 -36 0 -71 -141 -62 -251 4 -51
3 -69 -6 -66 -13 4 -75 87 -76 102 -1 6 -10 18 -21 28 -24 20 -26 44 -6 66 9
10 17 47 20 91 5 69 27 135 51 152 24 18 54 6 94 -37z m-393 -5 c26 0 36 -37
18 -65 -20 -30 -31 -31 -59 -5 -20 19 -21 25 -12 67 11 44 12 45 25 24 8 -11
20 -21 28 -21z m998 14 c24 -9 19 -40 -10 -63 -50 -40 -109 -16 -86 34 13 27
62 42 96 29z m-2165 -48 c18 -12 13 -44 -10 -56 -35 -19 -90 28 -76 64 4 11
14 12 40 6 19 -4 40 -10 46 -14z m3924 -21 c-2 -57 -9 -104 -17 -112 -10 -11
-55 49 -56 73 0 12 7 27 15 34 8 7 15 21 15 32 0 14 6 19 23 16 19 -3 22 -9
20 -43z m-6575 -2 c7 -48 -59 -183 -90 -183 -14 0 10 126 37 193 11 25 49 18
53 -10z m2038 12 c9 -23 -16 -46 -45 -43 -39 5 -42 45 -4 51 15 2 32 5 36 6 4
0 10 -6 13 -14z m-324 -12 c22 -20 23 -49 2 -57 -30 -11 -53 -6 -69 16 -14 21
-14 24 7 40 29 22 37 22 60 1z m5278 -11 c0 -9 -5 -24 -10 -32 -7 -11 -10 -5
-10 23 0 23 4 36 10 32 6 -3 10 -14 10 -23z m-5127 3 c4 -8 2 -17 -3 -20 -6
-4 -10 3 -10 14 0 25 6 27 13 6z m933 -46 c29 -27 31 -55 4 -69 -28 -15 -66
12 -74 51 -5 24 -1 37 17 55 20 21 22 22 25 5 2 -10 14 -29 28 -42z m1764 46
c17 -20 5 -45 -20 -45 -11 0 -23 7 -26 15 -6 15 11 45 26 45 4 0 13 -7 20 -15z
m2520 -31 c0 -8 -4 -12 -10 -9 -5 3 -10 10 -10 16 0 5 5 9 10 9 6 0 10 -7 10
-16z m-6990 -65 c0 -25 -59 -139 -71 -139 -17 0 -9 74 12 117 23 47 59 61 59
22z m4299 8 c7 -9 10 -53 9 -118 -2 -69 2 -116 12 -141 12 -31 12 -43 0 -79
-14 -40 -15 -41 -28 -20 -8 11 -20 21 -27 21 -22 0 -33 52 -34 167 -1 79 3
123 13 148 16 36 36 45 55 22z m506 -17 c3 -6 19 -10 34 -10 16 0 33 -6 38
-12 11 -15 58 -176 69 -233 8 -47 21 -75 34 -75 18 0 11 47 -15 102 -38 81
-31 148 15 148 31 0 49 -35 80 -155 52 -202 61 -276 47 -380 -12 -86 -13 -90
-39 -93 -33 -4 -36 9 -43 175 -4 116 -17 173 -38 173 -5 0 -6 -31 -1 -82 5
-46 9 -120 9 -165 0 -67 -4 -86 -21 -110 -30 -40 -55 -43 -52 -6 4 67 -3 141
-16 159 -20 27 -30 11 -32 -49 -2 -63 -37 -150 -72 -177 -13 -11 -40 -20 -58
-20 -18 0 -36 -4 -39 -10 -3 -5 -25 -10 -48 -10 -24 0 -61 -9 -82 -21 -22 -11
-61 -22 -88 -23 -26 -1 -53 -8 -59 -14 -7 -7 -22 -12 -34 -12 -21 0 -22 4 -21
68 2 53 -1 67 -13 67 -9 0 -17 -15 -22 -40 -20 -108 -52 -165 -78 -139 -6 6
-13 34 -17 63 -10 89 -37 78 -49 -19 -7 -65 -37 -120 -65 -120 -20 0 -21 2
-23 95 -1 46 -4 60 -16 60 -14 0 -20 -17 -35 -117 -7 -47 -59 -108 -76 -91 -7
7 -11 38 -10 75 1 42 -3 70 -13 83 -14 19 -15 19 -25 -8 -6 -16 -11 -36 -11
-45 0 -20 -27 -153 -32 -156 -52 -33 -56 -35 -67 -22 -6 7 -8 33 -5 62 5 40 3
54 -11 68 -27 26 -40 14 -43 -40 -4 -87 -23 -188 -35 -196 -21 -13 -55 -9 -61
8 -3 9 -6 30 -6 48 0 38 -22 72 -39 62 -8 -6 -12 -40 -11 -109 1 -56 1 -107 1
-113 -1 -6 -10 -23 -22 -38 -26 -33 -54 -21 -62 26 -14 77 -20 98 -34 109 -29
25 -36 -4 -20 -82 9 -41 18 -95 21 -121 l6 -48 -34 0 c-26 0 -39 7 -54 27 -27
37 -36 25 -33 -44 3 -80 26 -125 60 -121 l26 3 1 -120 c0 -139 8 -164 69 -221
63 -59 106 -77 175 -72 46 3 65 11 99 37 22 18 41 39 41 46 0 8 11 34 23 58
22 40 25 43 43 30 13 -10 39 -12 92 -9 l73 4 -14 -21 c-10 -15 -25 -22 -48
-22 -19 -1 -53 -4 -77 -9 -36 -7 -43 -11 -40 -29 3 -19 12 -23 71 -30 42 -4
76 -3 87 3 27 14 40 12 34 -5 -4 -8 -16 -15 -28 -15 -11 0 -29 -7 -39 -15 -10
-7 -52 -17 -93 -20 -82 -8 -98 -26 -43 -49 32 -13 57 -14 125 -2 27 5 44 3 49
-3 3 -6 -1 -11 -11 -11 -9 0 -32 -10 -52 -22 -31 -19 -38 -20 -69 -9 -19 7
-37 10 -40 7 -3 -3 -14 -1 -24 4 -9 6 -25 7 -33 4 -24 -9 -19 -43 8 -54 13 -5
27 -14 31 -19 3 -6 18 -11 33 -11 15 0 33 -4 41 -9 11 -7 9 -10 -7 -15 -25 -8
-94 10 -137 36 -54 32 -109 57 -117 52 -25 -15 21 -97 65 -115 36 -15 34 -29
-5 -29 -28 0 -45 14 -123 95 -50 52 -94 95 -98 95 -10 0 2 -67 16 -95 5 -11
21 -30 34 -42 23 -22 32 -63 14 -63 -5 0 -16 -3 -25 -6 -10 -4 -19 5 -30 28
-8 18 -35 60 -60 93 -37 48 -46 70 -51 115 -9 78 -14 90 -35 90 -28 0 -29 -51
-2 -144 31 -111 29 -117 -23 -64 -25 26 -45 55 -45 65 0 10 -6 27 -14 38 -9
13 -14 47 -13 98 0 85 -14 117 -37 84 -7 -9 -11 -28 -9 -41 3 -13 0 -32 -5
-43 -37 -64 -65 235 -42 439 12 107 16 120 75 238 71 145 124 230 171 280 19
20 44 56 57 80 19 39 28 46 66 55 36 8 52 20 95 72 28 34 56 62 62 62 13 1
119 63 143 84 9 8 27 18 41 22 14 4 57 25 96 46 39 22 78 39 86 39 9 0 22 10
30 21 12 18 25 22 82 25 43 2 74 8 85 18 25 23 203 55 335 61 65 2 123 9 130
13 6 5 35 12 65 15 30 4 62 14 72 23 26 23 24 59 -5 81 -20 16 -24 29 -25 75
0 31 -9 80 -21 109 -11 30 -20 64 -20 75 0 25 -25 50 -34 35 -8 -13 1 -93 21
-188 8 -40 12 -77 8 -83 -3 -5 -21 -10 -39 -10 -33 0 -34 2 -49 63 -25 99 -33
220 -15 238 17 17 84 23 93 9z m-3304 -37 c7 -20 6 -55 -6 -131 -9 -57 -14
-110 -11 -118 3 -8 1 -27 -5 -42 -6 -15 -12 -99 -14 -187 -1 -88 -5 -170 -9
-183 -11 -34 -36 -23 -52 23 -17 48 -20 364 -4 441 5 27 11 82 12 123 l3 74
35 13 c19 7 36 13 38 13 1 1 7 -11 13 -26z m2099 6 c9 -16 8 -25 -6 -40 -23
-25 -70 -25 -84 0 -13 25 -13 27 6 45 23 23 71 20 84 -5z m893 9 c58 2 65 -9
49 -79 -7 -29 -8 -58 -3 -71 5 -13 12 -51 16 -85 7 -61 6 -63 -17 -63 -50 0
-64 33 -74 175 -6 86 -8 95 -25 78 -7 -7 -11 -61 -11 -143 1 -131 0 -132 -21
-126 -12 3 -31 6 -43 6 -19 0 -20 6 -22 103 -1 56 3 128 9 159 l12 58 41 -7
c22 -4 63 -6 89 -5z m1874 -10 c-3 -8 -6 -5 -6 6 -1 11 2 17 5 13 3 -3 4 -12
1 -19z m-1707 -62 c0 -28 5 -69 9 -91 5 -22 12 -56 15 -76 3 -20 8 -42 11 -51
4 -9 -4 -19 -21 -27 -38 -17 -74 8 -75 52 0 17 -4 68 -8 112 -8 84 -3 111 24
139 27 26 45 3 45 -58z m-3039 33 c12 -6 18 -17 15 -27 -3 -9 -7 -50 -10 -91
-8 -96 -22 -125 -62 -129 -38 -4 -45 10 -33 69 4 24 8 67 9 94 0 78 32 111 81
84z m4186 -1 c10 -12 18 -59 32 -178 10 -93 -19 -213 -46 -187 -4 4 -10 56
-14 115 -4 59 -12 130 -19 158 -15 61 -7 104 19 104 10 0 23 -6 28 -12z
m-1968 -22 c10 -11 10 -20 1 -37 -10 -18 -18 -20 -47 -16 -20 4 -38 8 -41 11
-7 8 19 37 43 46 28 12 31 12 44 -4z m-3786 -63 c-26 -53 -48 -57 -40 -7 7 44
49 90 55 60 2 -9 -5 -33 -15 -53z m5654 12 c7 -27 15 -91 18 -142 3 -79 1
-100 -19 -148 -12 -31 -27 -57 -32 -58 -5 -1 -12 43 -15 98 -3 55 -11 134 -18
176 -14 90 -4 132 30 127 17 -2 25 -15 36 -53z m581 17 c2 -18 -1 -32 -7 -32
-15 0 -33 39 -27 57 10 24 31 9 34 -25z m-1137 -3 c46 -87 81 -257 83 -406 1
-104 -1 -114 -22 -135 -18 -18 -26 -20 -40 -12 -14 9 -18 34 -23 155 -6 135
-34 285 -68 365 -20 46 46 78 70 33z m-4398 -49 c-3 -82 -12 -120 -28 -120
-23 0 -29 21 -27 89 2 67 14 94 41 89 13 -3 16 -15 14 -58z m1847 26 c0 -36
-20 -48 -58 -34 -18 7 -32 15 -32 19 0 16 38 34 78 38 6 0 12 -10 12 -23z
m2975 -4 c22 -52 30 -124 23 -205 -9 -123 -25 -184 -49 -190 -24 -6 -28 0 -27
49 3 190 2 236 -5 285 -7 46 -6 59 7 72 19 18 41 13 51 -11z m-153 1 c26 -29
38 -91 44 -223 6 -118 5 -127 -18 -169 -13 -24 -28 -43 -33 -42 -6 1 -10 51
-11 124 -1 81 -7 143 -19 187 -27 102 -28 109 -15 125 16 20 33 19 52 -2z
m-5257 -55 c-8 -70 -17 -87 -38 -70 -17 15 -7 110 14 123 27 17 31 9 24 -53z
m1058 29 c10 -11 15 -27 11 -36 -13 -32 -22 -219 -17 -331 4 -80 2 -123 -6
-138 -15 -28 -27 -28 -34 1 -3 12 -13 42 -22 67 -14 37 -17 79 -17 230 0 205
7 246 45 235 12 -4 30 -16 40 -28z m130 11 c8 -11 7 -49 -3 -128 -9 -77 -11
-160 -6 -265 7 -164 2 -185 -36 -148 -13 14 -22 42 -28 87 -4 37 -13 72 -18
79 -11 13 -8 262 3 330 10 58 63 85 88 45z m4827 -34 c-18 -21 -30 -17 -30 11
0 32 34 53 38 24 2 -11 -2 -27 -8 -35z m-873 19 c15 -19 30 -114 39 -240 5
-83 3 -111 -11 -157 -10 -31 -22 -59 -27 -62 -24 -15 -33 21 -34 144 -2 123
-8 165 -38 264 -13 42 -13 49 1 63 17 18 51 12 70 -12z m654 7 c13 -7 19 -21
19 -43 0 -42 -45 -137 -65 -137 -17 0 -17 0 -6 58 5 24 5 58 1 75 -12 54 6 71
51 47z m-5112 -14 c9 -10 9 -26 0 -62 -9 -39 -17 -167 -19 -286 0 -31 -30 -19
-46 18 -23 56 -4 317 24 334 23 13 28 12 41 -4z m108 2 c4 -7 8 -94 9 -193 1
-99 4 -193 6 -210 3 -26 0 -30 -22 -30 -22 0 -27 7 -38 50 -8 28 -15 75 -17
106 -1 30 -6 77 -9 105 -7 53 7 148 25 171 14 16 35 17 46 1z m122 3 c12 -8
15 -46 16 -203 1 -106 5 -209 9 -228 4 -20 2 -42 -3 -50 -9 -13 -14 -11 -35
10 -19 19 -27 43 -35 100 -6 41 -15 104 -21 140 -14 91 -12 152 4 191 21 51
35 59 65 40z m4997 -97 c-3 -8 -12 -14 -21 -14 -20 0 -19 41 2 88 l17 37 4
-49 c2 -27 1 -55 -2 -62z m-5796 7 c0 -10 -6 -26 -14 -36 -13 -18 -14 -18 -25
3 -8 14 -8 29 -1 47 9 23 13 25 25 15 8 -7 15 -20 15 -29z m3478 -4 c9 -45
-61 -74 -103 -43 -19 14 -19 15 -1 35 30 33 98 39 104 8z m-3378 -26 c0 -51
-12 -91 -31 -101 -16 -9 -17 -4 -18 50 0 46 4 62 17 69 27 16 32 13 32 -18z
m92 -52 c-2 -69 -13 -89 -36 -70 -11 9 -13 25 -9 64 11 100 49 105 45 6z
m2013 -19 c0 -27 -20 -36 -61 -26 -32 8 -28 37 6 47 40 12 55 6 55 -21z m1535
10 c0 -36 -66 -54 -90 -25 -19 23 5 45 51 45 32 0 39 -3 39 -20z m-3430 -52
c0 -79 -20 -95 -49 -41 -16 32 -14 50 11 73 32 30 38 25 38 -32z m113 -34 c6
-77 -3 -96 -33 -69 -19 17 -21 28 -18 73 4 50 24 81 39 64 4 -4 9 -35 12 -68z
m1577 21 c18 -21 8 -48 -22 -59 -50 -17 -82 39 -35 62 31 15 43 14 57 -3z
m1954 -10 c8 -21 -15 -57 -32 -50 -8 3 -18 5 -23 5 -13 0 -11 34 3 48 17 17
45 15 52 -3z m-2539 -16 c44 -7 87 -13 95 -14 8 -1 33 -7 55 -13 22 -6 67 -16
100 -23 80 -16 175 -46 194 -63 9 -7 36 -21 60 -30 25 -10 56 -25 70 -35 14
-10 37 -22 50 -26 13 -4 45 -20 70 -36 25 -16 78 -45 116 -65 39 -20 91 -56
117 -80 26 -24 56 -44 67 -44 12 0 31 -18 51 -49 17 -28 34 -51 38 -53 29 -12
128 -155 180 -256 73 -142 82 -176 92 -346 6 -104 4 -146 -10 -215 -27 -137
-118 -332 -166 -353 -13 -6 -26 -19 -29 -29 -7 -20 -33 -44 -41 -37 -3 3 4 33
16 67 38 113 19 169 -21 60 -12 -33 -29 -63 -36 -66 -8 -3 -27 -31 -42 -62
-16 -31 -38 -64 -49 -74 -19 -17 -92 -41 -92 -30 0 2 15 31 32 63 55 98 28 93
-106 -17 -60 -50 -83 -63 -109 -63 -19 0 -37 3 -40 6 -4 4 14 26 38 49 73 67
60 79 -46 44 -85 -28 -154 -28 -182 0 l-21 21 32 0 c45 0 94 27 90 48 -2 13
-18 18 -64 23 -96 9 -164 66 -152 126 5 28 35 27 69 -1 31 -27 63 -34 74 -16
11 17 -14 49 -53 66 -20 9 -55 36 -78 60 -34 35 -40 48 -36 74 2 16 9 33 14
36 6 4 35 -19 66 -49 32 -31 69 -58 85 -61 15 -3 38 -8 52 -11 19 -4 32 -20
51 -59 39 -83 53 -91 143 -90 142 3 212 63 268 232 23 71 25 86 19 197 -6 99
-10 123 -26 140 -21 23 -28 89 -10 100 17 11 50 83 50 110 0 33 -22 32 -42 -3
-9 -15 -26 -36 -37 -46 -19 -18 -22 -18 -47 -1 -29 19 -29 13 6 134 15 51 19
76 11 84 -17 17 -39 -11 -57 -74 -22 -80 -36 -89 -73 -52 l-29 30 20 92 c16
73 18 95 8 106 -7 8 -16 15 -21 15 -12 0 -42 -60 -46 -95 -5 -42 -19 -52 -43
-30 -17 15 -20 30 -20 100 0 52 -5 88 -13 100 -22 29 -37 8 -37 -51 0 -47 -3
-56 -22 -63 -43 -16 -58 3 -58 74 0 35 -4 67 -10 70 -5 3 -14 24 -20 45 -6 23
-17 40 -25 40 -11 0 -14 -15 -12 -70 2 -79 -11 -100 -48 -76 -15 10 -22 32
-30 88 -11 84 -46 146 -65 118 -6 -8 -9 -36 -6 -61 9 -82 -38 -107 -68 -37 -8
18 -18 54 -21 79 -7 54 -26 86 -45 74 -9 -5 -10 -25 -5 -71 5 -54 4 -65 -9
-70 -9 -3 -22 -2 -29 4 -13 11 -38 77 -57 150 -11 42 -33 56 -44 26 -3 -8 -3
-39 0 -68 7 -56 -8 -82 -39 -70 -19 7 -54 94 -71 176 -23 114 -49 94 -44 -35
3 -81 -3 -97 -30 -81 -38 23 -56 84 -57 185 0 61 4 101 12 111 14 16 50 16
178 -3z m1151 -43 c29 -22 7 -50 -41 -54 -51 -4 -70 21 -39 52 19 20 54 20 80
2z m1029 -37 l0 -44 -43 -3 c-61 -5 -68 21 -17 65 21 18 44 32 49 30 6 -2 11
-24 11 -48z m-277 -31 c-3 -31 -5 -33 -43 -33 -30 0 -41 4 -43 18 -6 28 17 47
55 47 33 0 34 -2 31 -32z m-1072 -12 c15 -12 17 -18 8 -33 -22 -35 -74 -23
-74 17 0 30 35 38 66 16z m274 -100 c0 -7 9 -25 20 -39 21 -27 27 -57 10 -57
-6 0 -15 12 -20 26 -11 27 -8 27 -83 8 -15 -4 -31 1 -47 15 -34 27 -16 43 53
52 28 3 55 7 60 8 4 0 7 -5 7 -13z m726 -115 c-9 -13 -66 -15 -66 -2 0 6 10
17 22 25 19 14 24 14 36 2 8 -8 11 -19 8 -25z m1774 -21 c0 -12 -28 -25 -36
-17 -9 9 6 27 22 27 8 0 14 -5 14 -10z m-71 -96 c-13 -25 -29 -32 -29 -14 0 6
8 22 17 37 21 31 31 12 12 -23z m-1804 -79 c0 -25 -37 -32 -54 -11 -18 21 -4
38 27 34 19 -2 27 -9 27 -23z m1735 -151 c0 -2 -14 -11 -31 -20 -33 -17 -56
-8 -46 18 3 10 16 13 41 10 20 -2 36 -6 36 -8z m-71 -158 c10 -12 8 -17 -8
-25 -31 -17 -41 -13 -41 14 0 28 29 35 49 11z m-1519 -186 c0 -5 -5 -10 -11
-10 -5 0 -7 5 -4 10 3 6 8 10 11 10 2 0 4 -4 4 -10z m-1274 -52 c3 -13 12 -30
20 -38 18 -22 45 -98 35 -104 -10 -7 -22 4 -52 44 -37 49 -61 99 -54 110 11
18 44 10 51 -12z m136 -16 c15 -26 22 -52 19 -79 0 -7 -12 -13 -24 -13 -19 0
-30 12 -50 53 -35 67 -34 74 6 69 23 -3 39 -12 49 -30z m1393 28 c3 -5 -5 -26
-19 -47 -13 -21 -34 -66 -47 -101 -16 -46 -26 -62 -38 -60 -21 5 -19 29 11
110 28 77 75 127 93 98z m-1315 -10 c0 -5 -2 -10 -4 -10 -3 0 -8 5 -11 10 -3
6 -1 10 4 10 6 0 11 -4 11 -10z m1416 -35 c10 -25 -15 -79 -60 -130 -35 -39
-47 -47 -57 -38 -9 9 -8 18 7 39 45 63 54 80 54 105 0 14 3 29 7 32 12 12 44
7 49 -8z m-1729 -31 c10 -14 39 -51 66 -81 52 -62 54 -68 32 -109 -8 -16 -15
-37 -15 -46 0 -10 -9 -22 -21 -28 -24 -14 -47 -1 -114 64 -35 33 -45 50 -45
74 0 41 14 40 53 -3 34 -38 48 -43 67 -20 10 13 6 26 -29 77 -41 60 -47 78
-34 91 12 12 22 7 40 -19z m343 1 c0 -8 -4 -15 -10 -15 -5 0 -10 7 -10 15 0 8
5 15 10 15 6 0 10 -7 10 -15z m1459 -91 c-21 -41 -46 -73 -66 -85 -37 -23 -44
-37 -31 -61 10 -21 0 -23 -24 -4 -25 19 -22 53 7 72 13 9 41 41 61 71 77 117
111 121 53 7z m-353 -70 c-3 -8 -10 -14 -16 -14 -14 0 -13 53 3 69 10 10 13 7
15 -14 2 -15 1 -33 -2 -41z m398 -38 c-41 -49 -56 -59 -79 -49 -26 9 -13 33
30 56 22 12 46 30 54 40 9 13 17 15 23 9 7 -7 -2 -25 -28 -56z m-2021 -170 c6
-16 -2 -28 -14 -20 -12 7 -11 34 0 34 5 0 11 -6 14 -14z m1064 -390 c-8 -20
-36 -21 -43 -1 -4 8 0 22 7 31 11 13 14 13 27 0 8 -8 12 -22 9 -30z m-12 -241
c-4 -73 -12 -132 -22 -152 -8 -18 -12 -37 -8 -43 4 -6 -2 -21 -12 -33 -28 -31
-93 -168 -93 -195 0 -15 -6 -22 -20 -22 -11 0 -20 -6 -20 -14 0 -8 -5 -18 -11
-21 -15 -10 -49 25 -49 50 0 13 -6 28 -14 34 -17 14 -12 140 7 179 20 41 -9
50 -123 36 -45 -5 -58 -3 -69 10 -17 21 -40 20 -63 -1 -16 -14 -22 -15 -36 -5
-9 7 -25 15 -36 19 -14 4 3 17 70 49 49 24 96 44 105 44 8 0 20 5 26 11 14 14
103 44 158 54 56 9 76 25 116 88 36 59 64 74 87 48 11 -13 12 -42 7 -136z m25
-235 c0 -5 -5 -10 -11 -10 -5 0 -7 5 -4 10 3 6 8 10 11 10 2 0 4 -4 4 -10z
m-30 -14 c0 -3 -4 -8 -10 -11 -5 -3 -10 -1 -10 4 0 6 5 11 10 11 6 0 10 -2 10
-4z"/>
<path d="M11320 6974 c-25 -7 -58 -17 -75 -22 -16 -6 -50 -16 -75 -24 -56 -16
-63 -45 -10 -40 142 14 240 45 240 76 0 20 -29 23 -80 10z"/>
<path d="M11120 6789 c-70 -20 -140 -53 -140 -67 0 -11 9 -13 38 -8 20 3 46 6
58 6 23 0 114 57 114 71 0 11 -24 10 -70 -2z"/>
<path d="M11145 6645 c-22 -6 -51 -16 -65 -22 -14 -6 -60 -19 -103 -28 -43
-10 -85 -24 -93 -32 -18 -19 -18 -43 1 -43 20 0 144 39 175 55 14 7 36 15 50
19 26 6 88 52 80 59 -3 1 -23 -2 -45 -8z"/>
<path d="M10438 5843 c-20 -5 -33 -33 -15 -33 19 0 52 26 41 32 -5 2 -16 3
-26 1z"/>
<path d="M9890 4702 c0 -19 34 -54 67 -67 46 -20 63 -19 63 3 0 10 -20 27 -53
45 -53 27 -77 33 -77 19z"/>
<path d="M9881 4548 c17 -33 45 -58 80 -70 62 -22 47 12 -29 62 -54 36 -67 38
-51 8z"/>
<path d="M9840 4421 c0 -35 92 -103 112 -83 8 8 -3 24 -38 57 -53 49 -74 56
-74 26z"/>
<path d="M9776 4322 c-7 -12 50 -99 73 -111 57 -31 54 4 -5 69 -47 50 -58 57
-68 42z"/>
<path d="M9701 4216 c-18 -21 -3 -62 35 -96 63 -55 70 -38 19 45 -42 71 -40
68 -54 51z"/>
<path d="M9617 4073 c7 -40 36 -88 60 -97 16 -7 31 23 16 33 -5 3 -20 27 -32
54 -28 58 -52 64 -44 10z"/>
<path d="M8672 4041 c-15 -9 -34 -71 -22 -71 15 0 53 61 44 70 -5 5 -15 6 -22
1z"/>
<path d="M9518 4025 c-10 -10 4 -54 23 -71 16 -14 19 -15 19 -2 0 22 -21 78
-29 78 -4 0 -10 -2 -13 -5z"/>
<path d="M8776 3961 c-4 -7 -5 -15 -2 -18 9 -9 19 4 14 18 -4 11 -6 11 -12 0z"/>
<path d="M9297 3934 c-4 -4 -7 -25 -7 -46 0 -44 26 -54 36 -14 10 43 -8 81
-29 60z"/>
<path d="M8870 3878 c-25 -41 -28 -87 -5 -68 24 20 57 79 50 90 -11 18 -25 11
-45 -22z"/>
<path d="M9420 3892 c0 -30 18 -64 31 -57 15 10 11 31 -11 56 l-19 24 -1 -23z"/>
<path d="M9156 3885 c-10 -28 -7 -70 8 -91 14 -18 15 -18 26 10 15 40 9 90
-11 94 -9 2 -19 -4 -23 -13z"/>
<path d="M9023 3863 c-16 -26 -17 -73 -3 -73 15 0 22 23 18 62 -3 32 -3 32
-15 11z"/>
<path d="M3900 7235 c-14 -8 -38 -14 -54 -15 -16 0 -70 -20 -121 -45 -98 -48
-165 -109 -249 -226 -38 -51 -40 -58 -40 -129 -1 -105 17 -100 69 20 54 124
83 164 158 221 35 26 69 54 76 63 7 9 22 16 32 16 10 0 21 5 24 10 3 6 14 10
24 10 10 0 24 7 31 14 6 8 28 20 48 27 38 12 54 27 46 41 -7 11 -15 10 -44 -7z"/>
<path d="M2160 7105 c0 -17 46 -65 62 -65 10 0 18 -4 18 -8 0 -12 129 -66 137
-59 11 12 -19 37 -81 66 -33 16 -70 38 -80 50 -17 19 -56 30 -56 16z"/>
<path d="M2290 6885 c0 -14 106 -75 131 -75 6 0 24 -11 41 -25 16 -14 35 -25
42 -25 7 0 21 -9 31 -20 10 -11 26 -20 34 -18 9 1 26 -4 39 -10 24 -14 42 -9
42 12 0 19 -30 42 -75 56 -22 7 -52 19 -67 26 -14 8 -33 14 -41 14 -9 0 -22 6
-29 13 -16 16 -121 67 -136 67 -7 0 -12 -7 -12 -15z"/>
<path d="M2336 6727 c5 -15 56 -47 75 -47 7 0 21 -7 31 -17 21 -19 20 -18 173
-101 64 -35 122 -61 130 -59 42 17 -35 81 -135 113 -30 10 -71 28 -91 41 -20
13 -48 25 -62 27 -14 1 -44 15 -66 29 -44 30 -63 34 -55 14z"/>
<path d="M2772 6498 c6 -16 36 -34 44 -25 9 9 -15 37 -33 37 -8 0 -13 -5 -11
-12z"/>
<path d="M2922 5898 c3 -7 15 -15 28 -16 21 -3 22 -2 11 12 -16 19 -44 21 -39
4z"/>
<path d="M2990 5866 c0 -29 70 -74 136 -86 34 -7 68 -9 74 -5 16 10 -28 55
-53 55 -11 0 -50 11 -88 25 -54 19 -69 22 -69 11z"/>
<path d="M3230 5770 c0 -17 49 -35 61 -23 6 6 8 16 5 22 -9 14 -66 14 -66 1z"/>
<path d="M3883 4756 c-4 -8 -17 -15 -27 -17 -18 -4 -64 -75 -54 -84 2 -3 18 1
35 7 33 12 51 35 64 80 8 29 -4 39 -18 14z"/>
<path d="M3901 4608 c-23 -24 -51 -60 -62 -80 -17 -34 -18 -38 -3 -38 28 0 98
65 113 105 21 58 1 64 -48 13z"/>
<path d="M3929 4467 c-25 -29 -54 -64 -64 -79 -16 -26 -16 -28 0 -28 42 0 125
93 125 140 0 30 -10 24 -61 -33z"/>
<path d="M4000 4360 c-11 -22 -34 -53 -51 -71 -33 -34 -35 -63 -4 -67 14 -1
31 13 58 49 40 55 53 89 43 114 -9 25 -25 17 -46 -25z"/>
<path d="M4037 4195 c-48 -64 -55 -95 -22 -95 22 0 73 60 85 100 24 83 0 81
-63 -5z"/>
<path d="M4143 4119 c-63 -94 -66 -100 -55 -111 19 -19 102 72 102 110 0 47
-16 47 -47 1z"/>
<path d="M5090 4072 c-31 -25 -21 -48 27 -55 92 -16 109 1 45 43 -20 14 -40
26 -43 28 -3 1 -16 -6 -29 -16z"/>
<path d="M4217 4013 c-28 -46 -46 -103 -33 -103 34 0 85 76 86 128 0 36 -23
25 -53 -25z"/>
<path d="M4331 3953 c-27 -104 -8 -139 31 -58 18 37 20 48 10 70 -16 35 -30
31 -41 -12z"/>
<path d="M4990 3947 c0 -15 20 -34 57 -54 55 -31 60 5 6 42 -42 28 -63 32 -63
12z"/>
<path d="M4457 3904 c-11 -12 -8 -112 4 -119 18 -12 24 4 24 62 0 52 -11 74
-28 57z"/>
<path d="M4846 3882 c-7 -11 92 -117 101 -108 4 4 -5 31 -20 61 -22 44 -32 55
-51 55 -14 0 -27 -4 -30 -8z"/>
<path d="M4567 3859 c-6 -24 10 -78 30 -99 22 -23 32 3 22 58 -12 59 -41 83
-52 41z"/>
<path d="M4718 3844 c-7 -12 21 -84 33 -84 5 0 9 11 9 24 0 27 -34 74 -42 60z"/>
<path d="M8781 6501 c-14 -26 10 -48 29 -26 13 16 7 45 -9 45 -6 0 -15 -9 -20
-19z"/>
<path d="M2406 4991 c-14 -15 -15 -33 -10 -102 3 -46 7 -115 7 -154 l2 -70 40
0 40 0 3 44 c2 24 -2 49 -7 54 -6 6 -11 50 -11 98 0 93 -9 133 -33 142 -8 3
-22 -2 -31 -12z"/>
<path d="M2192 4340 c-21 -9 -21 -10 -5 -29 19 -23 43 -12 43 20 0 21 -4 22
-38 9z"/>
<path d="M9348 4413 c-19 -5 -24 -18 -9 -27 14 -9 94 9 99 22 4 12 -51 15 -90
5z"/>
<path d="M8496 2888 c-2 -7 -9 -46 -15 -87 -10 -63 -9 -77 3 -89 8 -8 19 -12
24 -8 18 11 34 114 25 153 -9 37 -30 55 -37 31z"/>
<path d="M8365 2825 c-3 -8 -7 -22 -10 -31 -6 -17 11 -44 26 -44 17 0 30 50
19 71 -13 23 -29 25 -35 4z"/>
<path d="M8227 2783 c-3 -5 -6 -33 -8 -63 -2 -57 6 -65 39 -38 19 17 12 102
-10 106 -9 2 -18 -1 -21 -5z"/>
<path d="M6529 2039 c-6 -12 -7 -25 -2 -30 11 -11 53 17 53 37 0 22 -38 17
-51 -7z"/>
<path d="M6606 1894 c-19 -18 -21 -40 -5 -50 16 -9 53 31 46 50 -8 20 -21 20
-41 0z"/>
<path d="M3595 7576 c-241 -36 -143 -74 200 -77 110 -1 210 1 221 5 12 3 48
-1 80 -10 33 -9 68 -16 79 -15 11 1 49 2 85 4 48 1 65 6 65 16 0 10 -17 15
-59 17 -44 3 -70 10 -100 30 -35 24 -44 26 -78 17 -23 -6 -41 -6 -46 -1 -6 6
-25 2 -50 -11 l-40 -20 -39 26 c-30 21 -48 26 -88 24 -71 -4 -76 -4 -115 2
-19 3 -71 -1 -115 -7z"/>
<path d="M4480 7582 c-44 -4 -136 -70 -121 -85 12 -12 123 -11 221 3 77 11
132 -1 171 -38 l27 -24 40 36 c22 20 48 36 59 36 27 0 35 10 22 26 -8 10 -27
12 -69 7 -52 -5 -57 -4 -63 16 -3 14 -13 21 -29 22 -129 3 -229 3 -258 1z"/>
<path d="M2906 7559 c-12 -18 -18 -21 -28 -11 -18 18 -68 15 -68 -3 0 -8 6
-16 13 -16 6 -1 28 -3 47 -5 66 -7 365 -13 388 -8 18 4 23 10 20 32 l-3 27
-130 -2 c-71 -2 -134 -3 -140 -4 -5 -1 -26 2 -46 6 -31 6 -39 3 -53 -16z"/>
<path d="M3374 7546 c-3 -8 -3 -20 1 -26 11 -18 64 6 65 30 0 14 -61 9 -66 -4z"/>
<path d="M1431 7531 c-27 -18 -1 -27 84 -30 79 -2 86 -1 83 16 -3 15 -15 18
-78 21 -41 1 -81 -2 -89 -7z"/>
<path d="M13406 6233 c-14 -52 -17 -83 -7 -83 6 0 11 10 11 22 0 12 7 29 16
39 9 10 13 23 9 28 -10 16 -23 13 -29 -6z"/>
<path d="M12174 5286 c-45 -7 -93 -20 -107 -29 -15 -9 -34 -17 -43 -17 -26 0
-97 -61 -85 -73 7 -7 18 -7 33 0 13 5 46 11 73 12 30 1 67 11 91 25 26 15 60
23 94 25 49 1 90 20 90 41 0 8 -47 31 -58 29 -4 -1 -44 -7 -88 -13z"/>
<path d="M1855 3980 c3 -5 8 -10 11 -10 2 0 4 5 4 10 0 6 -5 10 -11 10 -5 0
-7 -4 -4 -10z"/>
<path d="M11793 3833 c-13 -5 -19 -33 -7 -33 15 0 44 22 39 31 -7 10 -13 10
-32 2z"/>
<path d="M6639 235 c-40 -22 -45 -45 -10 -45 30 0 67 32 56 49 -8 14 -14 13
-46 -4z"/>
</g>
</svg>
