<?xml version="1.0" standalone="no"?>
<!DOCTYPE svg PUBLIC "-//W3C//DTD SVG 20010904//EN"
 "http://www.w3.org/TR/2001/REC-SVG-20010904/DTD/svg10.dtd">
<svg version="1.0" xmlns="http://www.w3.org/2000/svg"
 width="551.000000pt" height="2378.000000pt" viewBox="0 0 551.000000 2378.000000"
 preserveAspectRatio="xMidYMid meet">

<g transform="translate(0.000000,2378.000000) scale(0.100000,-0.100000)"
fill="#000000" stroke="none">
<path d="M2878 23613 c-10 -2 -18 -10 -19 -16 0 -7 -2 -82 -3 -167 -2 -241
-33 -382 -95 -447 l-41 -42 22 -16 c12 -8 28 -15 35 -15 22 0 83 -62 91 -93
11 -43 29 -44 46 -3 28 66 63 103 106 110 21 3 42 11 45 17 9 13 -20 46 -54
62 -34 16 -60 71 -72 151 -11 77 -15 383 -5 412 4 14 1 28 -9 38 -17 17 -18
17 -47 9z"/>
<path d="M2992 22776 c-37 -26 -82 -83 -82 -103 0 -22 -19 -14 -34 15 -50 93
-167 124 -208 54 -14 -23 -14 -32 -3 -58 18 -44 33 -50 59 -25 32 30 63 26
102 -13 32 -32 34 -38 36 -107 1 -41 2 -87 3 -104 1 -16 2 -56 3 -88 1 -35 6
-56 12 -52 5 3 9 16 9 28 -1 12 4 45 11 72 7 28 15 94 19 147 8 107 21 132 72
143 20 5 39 0 63 -14 45 -28 55 -27 72 14 20 49 -1 90 -54 104 -46 13 -41 14
-80 -13z"/>
<path d="M2559 22465 c-34 -19 -71 -81 -64 -106 6 -18 7 -18 55 0 115 44 195
-18 228 -176 10 -44 9 -60 -8 -110 -11 -32 -20 -66 -20 -75 0 -9 -6 -21 -13
-25 -25 -16 -49 -65 -43 -88 6 -22 18 -31 108 -76 59 -30 114 -25 194 19 77
42 91 68 56 105 -11 12 -24 34 -27 49 -4 15 -13 32 -20 38 -34 28 -26 188 11
247 8 12 14 28 14 35 2 41 135 92 179 69 15 -8 23 -7 35 5 21 20 20 30 -3 53
-43 43 -68 53 -116 45 -58 -8 -94 -38 -127 -106 -35 -71 -41 -99 -42 -193 -1
-108 15 -186 48 -234 33 -47 31 -72 -7 -85 -39 -14 -58 0 -84 66 -19 46 -23
76 -24 185 -1 72 -5 137 -10 145 -5 7 -9 9 -10 3 0 -5 -2 -21 -4 -35 -2 -14
-7 -79 -11 -145 -7 -129 -18 -167 -58 -204 -25 -24 -26 -24 -46 -6 -26 24 -26
29 10 87 17 27 35 73 41 101 6 29 14 64 19 80 13 42 -14 189 -45 245 -15 26
-42 57 -61 69 -45 29 -120 38 -155 18z"/>
<path d="M3440 22154 l-45 -12 45 -1 c56 -1 120 -18 142 -38 9 -8 22 -12 27
-8 16 9 -5 45 -27 45 -9 0 -26 7 -36 15 -23 17 -44 17 -106 -1z"/>
<path d="M2260 22139 c-89 -13 -116 -25 -141 -68 -39 -65 -57 -219 -34 -292 6
-18 52 -53 114 -87 37 -19 109 -5 139 27 34 37 62 95 62 129 0 37 -53 92 -89
92 -13 0 -35 -9 -47 -21 -18 -17 -21 -26 -13 -52 12 -41 21 -49 66 -56 24 -4
39 -12 41 -23 5 -25 -54 -61 -110 -66 -44 -4 -53 -1 -80 24 -37 35 -68 98 -68
139 0 38 25 110 50 146 63 88 284 75 360 -22 18 -21 36 -37 41 -33 20 12 7 42
-38 91 -37 40 -60 55 -102 67 -60 18 -58 17 -151 5z"/>
<path d="M3291 22110 c-55 -36 -61 -43 -80 -102 -11 -35 -29 -90 -41 -123 -17
-48 -21 -82 -20 -165 0 -58 -1 -202 -4 -320 -2 -118 -7 -357 -10 -530 -3 -173
-8 -336 -11 -363 -3 -26 -1 -55 4 -66 6 -10 8 -21 5 -23 -2 -3 -6 -170 -9
-371 -2 -202 -6 -371 -10 -377 -9 -15 -42 -12 -49 5 -3 8 -13 15 -23 15 -10 0
-24 9 -30 20 -18 27 -97 48 -163 43 -57 -4 -130 -30 -130 -45 0 -4 -9 -8 -20
-8 -10 0 -35 -14 -55 -31 -63 -56 -66 -47 -58 183 4 112 7 232 6 268 -1 54 -2
132 -2 330 0 14 1 77 1 140 0 63 0 124 0 135 -15 228 -15 259 -6 302 4 21 6
43 4 48 -1 6 -4 165 -5 355 -2 320 -8 430 -24 430 -6 0 -16 -163 -15 -245 4
-328 4 -772 -1 -1060 -7 -426 -7 -380 -5 -680 1 -152 -3 -269 -11 -318 -14
-86 -8 -110 29 -115 25 -4 43 22 66 92 29 87 142 177 203 161 19 -4 23 -10 17
-27 -9 -30 -13 -89 -16 -255 l-2 -141 -38 -6 c-46 -8 -62 -33 -53 -87 7 -43
18 -47 61 -24 42 22 96 19 128 -6 25 -20 29 -20 44 -6 14 14 14 21 2 58 -17
51 -34 69 -65 69 -23 0 -24 3 -25 78 -1 42 0 86 1 97 3 39 3 81 -1 165 l-5 85
34 -3 c18 -1 54 -12 80 -23 42 -17 53 -29 88 -92 22 -40 43 -84 47 -99 4 -19
13 -28 26 -28 17 0 20 7 22 53 1 28 1 61 0 72 -2 42 -2 262 3 965 7 1159 12
1290 52 1415 27 87 45 111 110 154 30 20 39 31 29 34 -8 3 -42 -12 -75 -33z"/>
<path d="M3417 21917 c-22 -12 -37 -29 -37 -40 0 -10 -5 -27 -11 -38 -5 -11
-7 -29 -3 -41 6 -19 8 -20 18 -7 7 11 28 15 65 15 51 -1 56 1 78 33 28 41 28
43 6 69 -27 30 -72 34 -116 9z"/>
<path d="M2854 21738 c-8 -12 -11 -146 -13 -555 0 -70 -1 -174 -2 -230 -1 -95
7 -124 26 -93 6 9 14 327 18 682 1 129 -2 190 -9 198 -9 9 -14 8 -20 -2z"/>
<path d="M3416 21717 c8 -21 64 -51 76 -39 6 6 -3 17 -27 31 -41 24 -57 27
-49 8z"/>
<path d="M3520 21690 c0 -5 5 -10 10 -10 6 0 10 5 10 10 0 6 -4 10 -10 10 -5
0 -10 -4 -10 -10z"/>
<path d="M2820 20791 c-14 -4 -31 -20 -39 -35 -17 -36 -3 -70 38 -94 33 -18
44 -53 36 -111 -7 -53 -18 -370 -19 -578 -1 -151 1 -184 13 -188 8 -3 18 -2
22 2 12 12 20 633 11 762 -7 102 -7 103 18 122 46 34 50 40 50 63 0 50 -60 77
-130 57z"/>
<path d="M2810 19069 c-27 -32 -15 -30 -182 -25 -41 1 -52 -4 -83 -34 -19 -18
-35 -42 -35 -52 0 -19 35 -42 50 -33 5 3 36 8 69 11 48 4 68 1 100 -15 22 -12
43 -25 46 -31 3 -6 24 -19 45 -30 31 -16 41 -17 52 -7 7 6 39 29 70 50 l56 38
62 -13 c53 -10 65 -10 88 3 17 9 27 23 27 38 0 32 -73 56 -122 40 -18 -6 -43
-7 -55 -4 -26 8 -124 71 -133 85 -10 17 -29 10 -55 -21z"/>
<path d="M2912 18765 c-35 -29 -48 -30 -101 -9 -30 12 -44 13 -60 4 -26 -13
-26 -29 -3 -69 21 -38 66 -53 130 -44 68 9 117 75 92 123 -14 26 -22 25 -58
-5z"/>
<path d="M2678 18549 c-18 -17 -28 -38 -28 -57 0 -40 38 -93 81 -114 l34 -16
-2 -204 c-4 -225 2 -311 20 -305 14 4 34 143 36 253 6 227 6 229 50 296 23 35
41 71 41 81 0 53 -46 82 -140 89 -60 4 -67 3 -92 -23z"/>
<path d="M2289 18406 c-25 -6 -61 -22 -79 -36 -27 -21 -33 -33 -34 -66 0 -22
6 -59 13 -82 11 -33 21 -44 48 -53 30 -10 41 -8 89 16 64 32 74 48 51 87 -9
17 -17 34 -17 39 0 14 32 10 67 -9 33 -18 123 -125 123 -147 0 -7 9 -24 20
-38 11 -14 20 -32 20 -41 0 -9 9 -34 20 -56 11 -22 20 -57 20 -79 0 -22 4 -50
9 -63 5 -13 14 -43 21 -68 20 -75 23 -77 31 -27 4 27 3 74 -2 105 -5 32 -9 76
-9 100 0 23 -9 75 -20 114 -16 59 -28 81 -65 118 -25 25 -55 66 -67 90 -14 26
-35 51 -52 59 -15 7 -37 22 -47 32 -22 22 -67 23 -140 5z"/>
<path d="M3136 18334 c-27 -19 -60 -37 -75 -40 -41 -10 -99 -73 -121 -132 -11
-29 -27 -66 -34 -81 -8 -14 -17 -71 -20 -126 -5 -97 5 -113 18 -28 3 24 15 58
26 75 11 18 20 45 20 59 0 15 7 32 15 39 8 7 15 18 15 26 0 7 10 24 23 38 12
13 38 43 57 66 33 39 90 80 111 80 5 0 9 -22 9 -49 0 -86 60 -128 124 -86 18
12 25 29 31 70 7 63 -3 88 -45 110 -47 24 -99 17 -154 -21z"/>
<path d="M2350 17808 c-19 -12 -39 -28 -43 -36 -5 -7 -29 -35 -54 -60 -52 -53
-123 -160 -158 -236 -22 -47 -65 -213 -65 -250 0 -52 115 -37 266 35 34 16 66
29 72 29 7 0 30 16 51 36 22 19 54 37 73 40 32 6 33 5 56 -54 13 -32 23 -67
21 -78 -1 -10 12 -50 30 -89 39 -84 49 -109 87 -200 51 -127 75 -144 113 -79
27 45 26 48 -4 40 -39 -10 -61 8 -75 61 -7 26 -25 73 -41 103 -15 30 -36 80
-45 110 -9 30 -26 65 -37 78 -12 13 -22 38 -23 62 -2 41 -36 100 -59 100 -7 0
-32 -15 -54 -34 -23 -19 -56 -38 -73 -41 -18 -4 -37 -11 -43 -15 -5 -5 -45
-22 -88 -39 -90 -36 -143 -40 -151 -13 -9 27 32 152 60 185 13 16 24 33 24 39
0 22 84 149 128 192 62 62 80 65 144 27 156 -93 271 -122 372 -96 31 8 66 15
78 15 24 0 147 60 197 96 19 13 38 24 42 24 4 0 27 -21 51 -46 24 -26 57 -62
74 -81 18 -18 43 -57 57 -86 100 -208 121 -279 93 -322 -22 -34 -47 -31 -130
14 -39 21 -87 41 -108 45 -22 4 -42 16 -52 31 -9 14 -23 25 -31 25 -7 0 -23
13 -35 29 -39 55 -90 47 -90 -15 0 -12 -7 -27 -15 -34 -8 -7 -15 -24 -15 -39
0 -15 -4 -31 -9 -36 -5 -6 -21 -41 -36 -80 -15 -38 -36 -80 -46 -93 -28 -36
-53 -122 -40 -135 14 -14 10 -19 68 103 56 118 72 159 100 245 17 55 21 60 46
58 15 -1 41 -13 58 -27 17 -14 36 -26 43 -26 7 0 21 -9 32 -21 37 -42 217
-119 275 -119 35 0 53 29 46 79 -8 65 -64 260 -83 289 -11 15 -24 39 -31 54
-22 51 -137 188 -182 218 -55 37 -74 38 -97 3 -27 -42 -107 -113 -127 -113
-10 0 -28 -6 -40 -14 -30 -19 -180 -31 -206 -16 -11 6 -44 15 -72 20 -38 7
-67 22 -108 56 -31 25 -60 53 -64 61 -8 13 -26 22 -72 36 -12 4 -34 -2 -55
-15z"/>
<path d="M2767 17793 c-14 -13 -7 -73 7 -73 18 0 30 33 21 60 -6 20 -16 25
-28 13z"/>
<path d="M2392 17663 c-29 -20 -135 -150 -156 -192 -9 -17 -27 -47 -41 -67
-26 -39 -33 -74 -14 -74 6 0 28 9 48 19 20 11 80 41 134 67 54 25 117 62 140
82 42 35 84 59 90 51 8 -10 56 -159 67 -209 7 -30 21 -74 31 -98 11 -24 19
-50 19 -57 0 -25 41 -125 51 -125 5 0 15 12 21 28 7 15 29 56 49 92 21 36 59
130 85 209 64 192 63 191 188 76 52 -48 97 -92 99 -99 5 -13 126 -76 147 -76
9 0 10 14 5 53 -12 96 -163 327 -212 327 -11 0 -37 -14 -58 -30 -21 -17 -50
-33 -64 -37 -14 -3 -53 -19 -86 -35 -68 -32 -119 -35 -210 -13 -33 8 -73 14
-88 15 -36 0 -166 61 -191 89 -22 25 -24 25 -54 4z"/>
<path d="M2290 16924 c-71 -24 -90 -36 -147 -88 -38 -34 -63 -69 -84 -114 -42
-94 -40 -110 27 -168 51 -44 140 -151 186 -222 23 -36 88 -172 88 -184 0 -6
15 -40 33 -77 37 -72 45 -93 99 -256 5 -16 19 -66 29 -110 31 -129 39 -157 58
-220 10 -33 19 -82 20 -108 1 -27 6 -59 11 -71 5 -13 14 -59 20 -102 15 -114
30 -162 41 -142 6 10 5 76 -2 170 -9 117 -16 161 -30 186 -10 18 -19 48 -19
66 0 18 -9 66 -21 107 -11 41 -23 85 -25 99 -9 46 -28 105 -38 118 -5 7 -13
38 -17 69 -4 30 -14 62 -22 71 -9 10 -19 31 -23 47 -7 31 -42 113 -75 177 -10
20 -19 46 -19 56 0 11 -7 25 -15 32 -8 7 -24 31 -34 54 -10 22 -28 50 -40 60
-11 11 -21 25 -21 33 0 8 -20 33 -45 55 -25 23 -45 46 -45 52 0 6 -23 37 -50
69 -30 35 -50 68 -50 82 0 28 78 122 120 145 15 8 47 26 71 39 30 16 65 25
109 28 58 4 72 1 132 -29 78 -39 112 -81 122 -154 10 -74 -23 -137 -86 -164
-56 -24 -74 -25 -123 -4 -48 19 -74 51 -75 87 0 39 26 46 56 13 29 -31 73 -34
97 -8 20 22 21 42 5 76 -23 53 -110 46 -158 -12 -44 -53 -38 -106 19 -163 36
-35 70 -49 122 -49 81 0 137 53 170 160 19 65 20 70 4 116 -9 27 -21 55 -28
62 -6 8 -16 24 -22 36 -6 11 -40 36 -77 55 -79 40 -174 49 -248 25z"/>
<path d="M3052 16930 c-67 -14 -103 -40 -147 -106 -29 -44 -41 -73 -46 -114
-8 -78 4 -111 68 -180 l55 -60 60 0 c54 0 63 3 88 30 16 17 40 51 55 76 27 46
27 46 10 85 -13 27 -30 44 -60 59 -52 25 -56 25 -89 -1 -37 -29 -49 -62 -34
-94 16 -35 51 -41 99 -19 35 15 42 16 50 3 14 -22 11 -34 -15 -59 -21 -18 -36
-23 -88 -23 -91 -1 -104 6 -138 73 -50 99 -35 168 50 233 58 44 80 50 163 48
92 -3 143 -27 229 -108 70 -66 94 -72 64 -16 -60 114 -246 199 -374 173z"/>
<path d="M1227 16874 c-40 -31 -46 -41 -52 -84 -9 -66 13 -104 70 -120 53 -15
116 8 135 48 30 65 31 85 6 123 -21 32 -77 69 -103 69 -6 0 -30 -16 -56 -36z"/>
<path d="M4194 16881 c-33 -15 -42 -26 -53 -60 -23 -80 18 -143 101 -155 43
-7 48 -5 77 26 58 62 47 144 -25 189 -38 23 -48 23 -100 0z"/>
<path d="M1643 16878 c-43 -11 -63 -38 -70 -96 -4 -39 -2 -58 11 -78 31 -47
114 -68 165 -41 29 15 62 98 54 137 -12 61 -86 97 -160 78z"/>
<path d="M3752 16830 c-36 -22 -52 -54 -52 -105 0 -50 63 -115 113 -115 45 0
89 36 111 90 15 38 15 41 -9 88 -16 31 -33 52 -47 56 -42 11 -83 6 -116 -14z"/>
<path d="M3450 16665 c0 -38 18 -47 40 -20 10 13 10 19 -5 35 -26 29 -35 25
-35 -15z"/>
<path d="M2737 16653 c-11 -10 -8 -96 3 -113 9 -13 13 -11 31 9 15 18 18 32
13 55 -9 46 -30 67 -47 49z"/>
<path d="M3975 16610 c-3 -5 -2 -10 4 -10 5 0 13 5 16 10 3 6 2 10 -4 10 -5 0
-13 -4 -16 -10z"/>
<path d="M1535 16600 c3 -5 8 -10 11 -10 2 0 4 5 4 10 0 6 -5 10 -11 10 -5 0
-7 -4 -4 -10z"/>
<path d="M1589 16562 c37 -30 309 -303 356 -358 17 -19 35 -46 40 -59 6 -13
27 -41 47 -63 20 -22 45 -55 55 -74 10 -19 35 -57 56 -85 20 -28 44 -67 52
-86 8 -20 28 -55 44 -79 15 -24 32 -54 35 -68 4 -14 24 -59 43 -100 36 -74 59
-130 83 -200 20 -58 47 -131 74 -205 14 -39 26 -82 26 -95 0 -14 9 -52 20 -84
11 -33 20 -69 20 -81 0 -11 7 -30 16 -41 28 -35 11 127 -21 206 -15 36 -36
105 -46 155 -11 49 -28 108 -39 130 -11 23 -20 50 -20 61 0 10 -14 38 -30 62
-16 24 -36 67 -46 95 -20 64 -89 203 -137 279 -21 31 -37 61 -37 66 0 5 -17
31 -39 58 -39 50 -67 93 -97 151 -9 18 -36 48 -60 68 -25 20 -51 53 -59 73 -9
19 -35 56 -59 82 -24 26 -47 56 -50 68 -5 14 -21 25 -47 32 -21 6 -39 14 -39
19 0 5 -21 19 -47 32 -27 13 -50 27 -51 32 -4 9 -57 37 -69 36 -4 0 7 -12 26
-27z"/>
<path d="M3379 16559 c-13 -17 -30 -36 -37 -42 -19 -18 -24 -23 -120 -137 -81
-96 -115 -152 -152 -250 -7 -19 -19 -42 -25 -50 -24 -31 -55 -92 -55 -108 0
-9 -14 -46 -30 -80 -17 -35 -33 -89 -36 -120 -3 -32 -12 -74 -20 -95 -8 -22
-16 -51 -18 -65 -2 -15 -11 -49 -19 -77 -9 -27 -18 -79 -22 -115 -4 -36 -13
-81 -21 -100 -12 -32 -31 -127 -39 -190 -13 -110 -15 -179 -7 -184 11 -7 25
50 48 194 35 221 72 378 156 645 39 128 74 218 104 275 12 25 32 63 43 86 10
23 44 82 75 131 31 50 56 95 56 100 0 6 10 18 21 29 12 10 37 42 54 69 18 28
45 61 59 74 14 14 26 28 26 33 0 17 -19 7 -41 -23z"/>
<path d="M3876 16540 c-26 -22 -53 -40 -59 -40 -7 0 -34 -24 -62 -53 -27 -29
-68 -68 -90 -88 -22 -20 -67 -69 -100 -109 -33 -41 -71 -85 -85 -99 -14 -15
-37 -45 -50 -68 -14 -23 -48 -75 -77 -116 -28 -42 -59 -90 -69 -108 -9 -18
-23 -39 -30 -47 -8 -7 -43 -74 -79 -147 -35 -73 -69 -136 -74 -139 -5 -4 -13
-21 -16 -39 -4 -17 -22 -64 -41 -103 -19 -39 -34 -77 -34 -84 0 -8 -9 -32 -19
-54 -59 -124 -120 -376 -92 -376 7 0 13 6 15 13 22 76 72 234 88 277 11 30 30
85 43 122 13 37 47 114 75 172 27 58 50 109 50 114 0 5 10 17 21 28 12 10 32
43 45 71 12 29 43 78 68 109 26 31 46 61 46 68 0 11 46 79 101 150 13 16 32
46 42 65 11 20 31 51 46 70 14 18 31 42 38 54 14 25 145 168 271 295 50 51 92
95 92 98 0 11 -19 0 -64 -36z"/>
<path d="M1307 16533 c-67 -30 -76 -50 -57 -127 16 -65 32 -83 81 -91 61 -10
105 9 135 61 31 53 27 83 -19 143 -37 49 -57 51 -140 14z"/>
<path d="M4043 16526 c-74 -52 -90 -101 -52 -163 57 -91 182 -80 223 21 23 58
16 85 -32 130 -45 43 -90 47 -139 12z"/>
<path d="M2736 16498 c-3 -13 -7 -36 -10 -53 -15 -85 -31 -145 -39 -145 -5 0
-25 -18 -44 -40 -20 -22 -41 -40 -47 -40 -6 0 -24 -11 -41 -25 l-30 -25 35
-27 c68 -53 119 -109 125 -138 3 -17 12 -43 20 -58 8 -16 15 -50 15 -76 0 -49
19 -89 37 -78 6 4 14 33 17 64 12 104 44 178 95 221 25 21 61 44 79 51 17 8
32 17 32 21 0 10 -58 60 -69 60 -20 0 -80 109 -91 166 -19 99 -73 177 -84 122z"/>
<path d="M1670 15889 c-50 -29 -285 -274 -306 -317 -9 -21 -25 -46 -35 -57
-10 -11 -25 -37 -33 -57 -9 -20 -20 -40 -26 -43 -16 -10 -70 -125 -70 -148 0
-13 5 -17 16 -13 9 3 18 6 20 6 2 0 4 6 4 13 1 6 9 30 20 52 11 22 19 43 20
47 0 4 15 31 34 60 18 29 36 62 40 73 4 11 33 49 66 85 33 36 60 68 60 72 0 9
125 138 133 138 4 0 26 14 51 31 40 28 47 30 76 21 17 -7 46 -23 63 -37 18
-14 45 -35 61 -47 16 -13 43 -38 60 -56 17 -18 51 -54 76 -80 66 -69 102 -119
126 -172 12 -26 28 -52 36 -56 15 -9 108 -182 108 -201 0 -6 -7 -16 -15 -23
-25 -21 -19 -43 9 -36 19 5 29 0 45 -23 12 -16 21 -34 21 -40 0 -6 15 -59 34
-119 19 -59 39 -125 45 -147 6 -22 13 -50 16 -62 7 -24 34 -32 36 -10 4 43 -6
89 -27 136 -13 29 -24 62 -24 73 0 25 -32 122 -42 126 -4 2 -13 22 -19 44 -6
23 -20 53 -31 69 -11 15 -28 50 -38 78 -9 28 -30 66 -47 84 -16 18 -35 54 -42
80 -10 33 -24 56 -47 73 -18 14 -39 42 -47 62 -17 42 -216 248 -253 263 -14 5
-29 20 -34 33 -18 49 -81 60 -140 25z"/>
<path d="M3810 15875 c-7 -8 -30 -19 -51 -25 -21 -6 -62 -32 -91 -58 -29 -26
-65 -55 -79 -64 -15 -10 -37 -33 -49 -52 -12 -20 -37 -43 -56 -52 -19 -9 -41
-28 -48 -43 -8 -14 -28 -37 -46 -49 -17 -13 -38 -38 -45 -56 -7 -17 -23 -40
-35 -51 -36 -32 -105 -135 -135 -200 -15 -33 -49 -106 -76 -161 -27 -56 -49
-110 -49 -120 -1 -11 -7 -30 -15 -44 -8 -14 -14 -37 -15 -51 0 -14 -14 -57
-31 -95 -17 -38 -35 -91 -40 -119 -4 -27 -13 -72 -20 -100 -6 -27 -12 -79 -14
-115 -1 -36 -3 -92 -5 -125 -7 -156 42 -275 115 -275 19 0 45 4 59 10 19 7 29
6 40 -5 13 -13 12 -20 -2 -57 -8 -24 -19 -48 -24 -54 -9 -13 -82 -28 -113 -24
-56 7 -135 73 -135 113 0 8 -8 25 -19 38 -11 14 -22 50 -26 87 -8 70 -32 84
-27 16 9 -98 43 -191 94 -255 18 -21 99 -59 128 -59 30 0 95 32 139 68 33 28
34 30 35 109 1 73 -1 84 -23 107 -31 33 -64 33 -85 1 -18 -28 -52 -33 -81 -11
-16 12 -20 33 -26 142 -4 72 -3 137 2 146 5 9 9 39 9 65 0 27 4 53 9 59 14 15
34 102 27 119 -3 8 6 41 19 71 14 31 22 61 19 66 -6 9 4 38 53 145 12 28 23
61 23 71 0 20 97 213 132 264 10 14 18 29 18 33 0 4 26 41 58 83 31 41 71 93
88 116 39 52 221 222 268 250 19 11 56 36 82 54 32 21 59 32 83 32 40 0 101
-32 101 -54 0 -7 21 -36 48 -64 66 -70 164 -197 181 -235 8 -18 33 -72 56
-122 53 -115 75 -181 75 -225 0 -19 6 -52 14 -75 8 -22 17 -53 21 -69 8 -37
17 -26 32 37 13 59 8 101 -17 137 -10 14 -23 51 -30 83 -13 64 -45 144 -66
165 -8 7 -14 26 -14 41 0 16 -11 40 -25 55 -14 15 -34 45 -46 67 -11 22 -26
42 -34 45 -7 3 -19 19 -25 35 -7 16 -21 34 -32 40 -11 6 -24 24 -30 40 -5 16
-15 29 -21 29 -6 0 -36 26 -66 58 -31 32 -66 64 -78 70 -30 16 -68 15 -83 -3z"/>
<path d="M3843 15658 c-9 -11 -27 -118 -28 -173 0 -11 -4 -30 -8 -41 -8 -24
-18 -113 -18 -160 1 -43 -21 -61 -55 -45 -34 15 -59 14 -74 -3 -9 -12 -1 -29
48 -93 49 -63 64 -93 82 -158 13 -44 24 -106 25 -138 3 -72 27 -105 51 -73 8
11 14 34 14 50 1 68 52 229 92 288 31 45 24 74 -27 110 -43 31 -45 34 -44 78
2 43 -7 107 -18 140 -3 8 -6 59 -7 112 -2 98 -13 132 -33 106z"/>
<path d="M1676 15579 c-9 -48 -26 -225 -26 -270 0 -52 -8 -59 -65 -59 -45 0
-49 -10 -21 -51 33 -48 84 -168 96 -225 6 -27 12 -78 14 -114 2 -47 7 -65 17
-65 10 0 14 16 14 65 1 101 51 247 104 305 54 59 54 92 0 87 -44 -4 -55 9 -62
68 -3 25 -14 94 -25 154 -21 111 -37 149 -46 105z"/>
<path d="M1160 15175 c-7 -9 -14 -31 -14 -49 -1 -19 -8 -41 -16 -51 -24 -29
-23 -334 1 -319 5 3 9 15 9 27 1 12 2 49 4 82 1 33 -2 66 -7 72 -6 9 -4 22 7
39 10 14 16 35 15 47 -2 12 3 32 10 45 16 30 27 122 14 122 -6 0 -16 -7 -23
-15z"/>
<path d="M2672 15000 c0 -14 2 -19 5 -12 2 6 2 18 0 25 -3 6 -5 1 -5 -13z"/>
<path d="M2766 14900 c-2 -8 -9 -28 -14 -45 -7 -25 -14 -29 -36 -27 -20 2 -28
-3 -35 -20 -5 -13 -6 -27 -3 -33 8 -12 10 -81 17 -500 3 -187 8 -348 11 -358
3 -10 11 -16 17 -14 7 2 12 47 13 133 1 71 2 139 3 152 0 12 0 32 0 45 0 32
30 456 40 562 5 50 5 97 1 105 -8 13 -9 13 -14 0z"/>
<path d="M4341 14668 c-7 -51 -16 -115 -20 -143 -6 -46 -19 -74 -93 -213 -44
-81 -118 -133 -220 -153 -91 -17 -160 -17 -208 2 -73 27 -171 100 -196 144
-43 74 -26 252 29 303 39 36 116 59 185 56 87 -5 134 -31 150 -83 16 -54 15
-73 -5 -115 -16 -34 -37 -51 -52 -41 -5 2 -6 27 -3 54 4 46 2 51 -21 62 -37
17 -94 3 -113 -26 -22 -34 -11 -86 28 -130 33 -38 52 -42 101 -21 68 31 97 66
113 140 15 64 15 70 -2 102 -10 19 -27 37 -38 40 -10 4 -34 22 -53 40 -32 32
-37 34 -107 34 -116 0 -220 -49 -249 -117 -66 -156 -58 -298 23 -386 22 -23
40 -46 40 -50 0 -4 34 -24 76 -44 l75 -36 129 5 129 6 -14 -28 c-8 -15 -21
-30 -28 -33 -8 -3 -29 -31 -47 -63 -27 -46 -34 -71 -37 -125 -4 -79 11 -116
76 -186 l39 -43 86 0 c52 0 100 6 119 14 41 18 100 76 121 120 18 39 21 114 5
149 -16 34 -86 77 -128 77 -69 0 -158 -94 -144 -151 6 -21 94 -99 112 -99 6 0
29 16 51 36 33 30 40 33 40 17 0 -10 -11 -35 -25 -55 -28 -41 -16 -39 -160
-22 -65 7 -98 34 -112 87 -24 89 -18 109 57 197 26 30 53 66 60 80 7 14 28 42
46 62 19 21 40 52 49 70 8 18 35 61 60 96 25 35 45 68 45 74 0 6 12 27 27 46
17 22 30 57 36 91 9 59 10 229 1 243 -13 21 -21 1 -33 -84z m-73 -766 c2 -8
-8 -12 -27 -12 -36 0 -50 17 -19 23 31 6 41 3 46 -11z"/>
<path d="M1577 14703 c-33 -10 -52 -22 -59 -39 -6 -13 -15 -24 -20 -24 -4 0
-8 -5 -8 -12 0 -7 7 -5 18 5 41 38 105 55 178 48 60 -6 76 -11 112 -41 26 -21
55 -60 74 -97 31 -63 42 -74 51 -50 7 21 -10 62 -49 116 -40 57 -91 86 -167
97 -23 3 -51 7 -62 8 -11 2 -42 -3 -68 -11z"/>
<path d="M2454 14686 c-4 -10 -1 -66 6 -124 15 -118 18 -315 6 -377 -18 -95
-8 -86 -91 -84 -46 1 -80 -3 -89 -10 -26 -22 -28 -65 -6 -125 18 -46 28 -60
60 -76 50 -26 103 -25 156 0 45 22 81 56 70 67 -3 4 -23 -3 -44 -14 -20 -11
-58 -23 -83 -26 -38 -5 -52 -2 -82 19 -32 21 -37 30 -37 64 0 39 1 40 34 40
43 0 104 49 130 103 17 36 23 128 17 280 -1 15 -1 37 -1 50 1 12 0 49 0 82 -1
88 -30 172 -46 131z"/>
<path d="M1112 14611 c0 -27 6 -60 13 -74 7 -14 16 -45 20 -69 4 -24 20 -62
36 -85 16 -23 29 -46 29 -51 0 -11 110 -151 135 -172 10 -8 34 -16 54 -16 20
-1 64 -6 99 -11 97 -15 262 15 262 47 0 4 16 14 35 20 64 21 129 126 123 202
-2 24 -7 42 -13 41 -5 -1 -20 -32 -32 -69 -31 -92 -94 -172 -142 -180 -20 -3
-73 -15 -119 -25 -90 -22 -103 -20 -170 22 -25 16 -53 29 -62 29 -9 0 -25 9
-34 19 -10 11 -33 27 -52 36 -21 10 -34 23 -34 34 0 11 -16 42 -35 71 -19 29
-38 64 -41 79 -4 14 -10 31 -14 36 -8 11 -20 77 -21 115 -1 26 -15 50 -30 50
-4 0 -8 -22 -7 -49z"/>
<path d="M1566 14537 c-25 -25 -26 -55 -3 -85 7 -9 7 -16 -1 -24 -7 -7 -19 -4
-42 12 -35 25 -47 22 -30 -10 14 -26 49 -40 100 -40 32 0 43 6 64 33 45 59 29
116 -36 132 -21 5 -33 1 -52 -18z"/>
<path d="M2620 14158 c0 -60 14 -55 25 10 6 35 4 42 -9 42 -13 0 -16 -11 -16
-52z"/>
<path d="M1409 14067 c12 -27 28 -77 36 -113 13 -56 13 -71 0 -120 -17 -68
-49 -121 -77 -130 -11 -3 -49 -3 -85 1 -92 10 -121 37 -134 128 -8 62 -7 71
12 98 11 16 29 29 39 29 16 0 18 -6 13 -53 -6 -59 3 -73 54 -83 44 -9 73 22
73 77 0 52 -11 72 -56 98 -31 19 -41 20 -70 11 -19 -7 -47 -28 -62 -48 -24
-32 -27 -44 -27 -116 0 -70 4 -87 28 -128 34 -59 71 -73 169 -63 62 6 75 11
100 38 15 17 28 38 28 45 0 7 12 29 26 47 23 30 25 41 21 87 -13 132 -22 157
-66 201 l-42 42 20 -48z"/>
<path d="M2590 14044 c-21 -49 -25 -74 -12 -74 19 0 44 41 49 79 8 56 -12 54
-37 -5z"/>
<path d="M2675 13854 c-21 -8 -50 -24 -63 -37 -20 -19 -23 -29 -19 -67 4 -35
13 -51 41 -77 33 -31 41 -33 105 -33 l69 0 32 43 c25 34 30 49 26 76 -6 40
-39 78 -83 97 -40 17 -57 17 -108 -2z"/>
<path d="M2253 13618 c-30 -6 -51 -20 -73 -46 -25 -31 -30 -45 -30 -92 0 -52
3 -59 38 -93 31 -31 45 -37 79 -37 36 0 46 5 67 33 15 19 26 39 26 45 0 19
-18 14 -30 -8 -12 -22 -60 -27 -103 -11 -34 13 -45 76 -22 121 17 33 57 54 87
46 10 -2 31 1 46 6 22 9 35 7 69 -10 33 -17 47 -34 68 -78 20 -42 29 -53 36
-43 16 26 10 39 -66 131 -7 9 -39 22 -71 28 -32 7 -63 14 -69 15 -5 2 -29 -1
-52 -7z"/>
<path d="M3065 13600 c-3 -5 -14 -10 -25 -10 -10 0 -32 -17 -50 -37 l-33 -37
7 -83 c6 -83 6 -83 54 -131 26 -26 71 -72 99 -102 61 -64 83 -84 115 -101 13
-7 28 -19 34 -28 7 -9 45 -41 85 -71 40 -30 86 -69 103 -86 17 -17 51 -42 76
-56 25 -14 55 -40 68 -57 12 -17 36 -38 52 -46 17 -9 30 -20 30 -25 0 -5 25
-35 55 -67 30 -32 55 -64 55 -71 0 -7 12 -29 26 -48 36 -47 67 -176 54 -224
-12 -44 -13 -93 -1 -86 19 12 34 136 23 190 -6 28 -14 67 -17 86 -3 19 -19 53
-35 74 -17 22 -30 45 -30 52 0 15 -69 116 -87 127 -7 5 -32 26 -56 49 -89 85
-203 180 -235 197 -13 7 -48 35 -78 62 -30 27 -58 49 -62 49 -5 0 -17 8 -28
18 -11 9 -49 40 -84 67 -79 61 -143 123 -158 151 -6 12 -16 42 -22 68 -10 44
-9 49 22 91 30 40 37 44 77 45 63 0 151 -58 151 -100 0 -47 -24 -62 -94 -59
-69 3 -77 -8 -26 -33 48 -24 79 -22 122 7 40 27 65 87 54 131 -12 47 -58 86
-112 95 -69 11 -122 11 -129 -1z"/>
<path d="M2702 13518 c-11 -29 -25 -75 -32 -103 -8 -36 -26 -67 -66 -113 -53
-63 -54 -64 -39 -93 9 -16 19 -29 24 -29 11 0 56 -86 74 -145 9 -27 21 -115
27 -194 17 -238 33 -250 50 -37 16 188 38 281 80 331 9 11 27 37 39 57 24 41
21 55 -25 111 -13 16 -24 33 -24 39 0 5 -7 25 -16 43 -8 18 -23 66 -33 106
-10 40 -22 74 -28 76 -6 2 -20 -20 -31 -49z"/>
<path d="M836 13421 c-26 -29 -17 -73 17 -85 33 -12 55 -1 77 38 14 26 14 28
-9 47 -30 24 -63 24 -85 0z"/>
<path d="M4568 13375 c-50 -28 -45 -105 8 -125 27 -10 70 -4 92 13 23 18 14
74 -15 102 -32 28 -47 30 -85 10z"/>
<path d="M2411 13293 c-44 -44 -50 -64 -13 -44 17 9 67 81 60 85 -2 1 -23 -17
-47 -41z"/>
<path d="M2336 13222 c-11 -2 -43 -21 -70 -41 -28 -21 -70 -48 -93 -61 -24
-13 -43 -27 -43 -32 0 -5 -11 -13 -25 -18 -30 -11 -120 -71 -158 -105 -15 -14
-33 -25 -40 -25 -7 0 -26 -14 -43 -31 -16 -17 -42 -38 -59 -46 -48 -25 -174
-177 -175 -210 0 -6 -9 -27 -20 -46 -34 -58 -57 -229 -37 -272 10 -19 10 -19
17 0 4 11 6 48 4 81 -4 67 24 164 61 217 69 98 114 153 137 166 34 21 159 108
211 148 23 17 73 51 111 74 38 24 86 57 107 74 21 16 56 44 79 60 37 27 67 63
58 69 -2 1 -12 0 -22 -2z"/>
<path d="M991 13176 c-28 -45 -26 -72 8 -107 35 -34 49 -36 100 -9 47 23 52
36 39 88 -11 44 -37 62 -93 62 -27 0 -37 -6 -54 -34z"/>
<path d="M4362 13137 c-27 -28 -31 -39 -30 -81 1 -66 36 -106 93 -108 52 -2
79 13 99 56 23 49 20 94 -10 133 -22 29 -30 33 -73 33 -40 0 -52 -5 -79 -33z"/>
<path d="M2994 13033 c-24 -25 -60 -81 -80 -122 -20 -42 -40 -83 -44 -92 -36
-72 -67 -278 -42 -286 6 -3 12 3 12 14 1 32 94 191 145 249 28 30 66 63 85 73
19 10 49 26 65 35 17 9 37 16 46 16 24 0 29 23 10 47 -30 38 -122 113 -138
113 -9 0 -36 -21 -59 -47z"/>
<path d="M2314 13036 c-21 -18 -54 -41 -71 -50 -18 -9 -33 -21 -33 -26 0 -13
28 -26 71 -34 20 -4 54 -20 74 -36 21 -17 41 -30 46 -30 25 0 159 -214 159
-255 0 -24 26 -65 41 -65 13 0 5 160 -10 188 -6 11 -11 33 -11 48 0 15 -16 60
-35 100 -19 40 -35 77 -35 84 0 6 -21 33 -46 60 -59 63 -91 66 -150 16z"/>
<path d="M1330 12957 c-57 -31 -73 -44 -93 -82 -12 -22 -24 -65 -27 -95 -7
-71 -27 -73 -78 -6 -44 59 -92 79 -171 73 -44 -3 -59 -9 -78 -31 -22 -26 -29
-68 -17 -100 5 -12 21 -16 74 -16 84 0 134 -25 211 -108 64 -68 144 -173 169
-223 19 -36 87 -96 97 -85 3 3 1 11 -5 18 -6 7 -20 38 -32 68 -12 30 -31 75
-43 100 -16 34 -22 68 -25 140 -3 89 -1 98 26 150 20 38 44 64 75 85 25 17 49
38 52 47 9 26 -11 55 -46 67 -41 14 -58 14 -89 -2z"/>
<path d="M4085 12885 c-31 -16 -55 -42 -55 -58 0 -6 19 -27 41 -48 36 -33 43
-47 54 -106 12 -62 11 -73 -7 -133 -12 -36 -41 -107 -65 -157 -23 -51 -43 -96
-43 -100 0 -4 -10 -17 -22 -30 -44 -47 -1 -21 49 30 28 28 81 82 117 119 36
37 85 80 108 94 22 14 53 39 68 55 32 35 115 62 186 60 64 -2 79 13 71 72 -9
65 -50 97 -126 97 -54 0 -61 -3 -120 -50 -34 -27 -67 -50 -72 -50 -5 0 -9 11
-9 25 0 62 -23 130 -55 162 -37 37 -72 42 -120 18z"/>
<path d="M2047 12816 c-20 -13 -50 -34 -65 -48 -15 -14 -47 -39 -72 -56 -63
-45 -110 -87 -110 -100 0 -22 18 -21 61 6 62 39 182 58 270 42 102 -18 182
-64 254 -145 71 -80 85 -103 85 -139 0 -19 5 -26 20 -26 29 0 25 31 -10 83
-16 25 -30 56 -30 70 0 14 -5 29 -11 33 -6 3 -19 25 -29 49 -10 23 -36 59 -57
78 -21 20 -60 57 -86 82 -51 48 -134 96 -164 94 -10 0 -35 -11 -56 -23z"/>
<path d="M3265 12800 c-84 -41 -205 -141 -235 -193 -14 -24 -38 -63 -54 -88
-30 -45 -76 -176 -76 -216 0 -41 19 -24 35 32 9 30 21 57 26 61 5 3 19 26 31
50 11 25 32 53 45 62 13 9 44 33 68 53 80 67 125 82 244 83 110 1 142 -8 243
-72 15 -9 29 -14 33 -11 12 12 -78 129 -127 166 -68 51 -151 103 -163 102 -5
0 -37 -13 -70 -29z"/>
<path d="M2707 12618 c-4 -14 -4 -41 0 -60 l7 -33 7 27 c4 14 4 41 0 60 l-7
33 -7 -27z"/>
<path d="M4825 12635 c-5 -2 -37 -11 -70 -21 -33 -9 -67 -23 -75 -30 -8 -6
-32 -19 -53 -28 -21 -8 -53 -30 -71 -48 -48 -47 -116 -98 -131 -98 -7 0 -24
-13 -38 -30 -14 -16 -45 -39 -69 -51 -23 -13 -60 -36 -80 -53 -58 -49 -91 -72
-124 -89 -17 -9 -37 -23 -44 -32 -8 -9 -48 -37 -89 -61 -101 -59 -97 -57 -168
-92 -73 -36 -83 -24 -30 35 50 57 77 107 77 143 0 42 -16 35 -47 -20 -14 -24
-37 -59 -52 -76 -26 -32 -94 -84 -110 -84 -5 0 -29 -9 -55 -20 -46 -21 -59
-43 -31 -54 8 -3 14 -11 13 -17 -2 -6 26 -27 62 -46 41 -21 71 -45 82 -64 9
-17 23 -38 32 -48 8 -9 26 -41 40 -72 32 -68 41 -215 19 -294 -8 -27 -18 -67
-23 -88 -4 -21 -17 -45 -29 -53 -12 -9 -27 -27 -35 -42 -8 -15 -29 -41 -48
-59 -94 -89 -169 -153 -179 -153 -6 0 -33 -16 -59 -35 -26 -19 -52 -35 -57
-35 -5 0 -22 -14 -38 -30 -16 -17 -52 -43 -80 -59 -53 -30 -92 -67 -82 -77 3
-3 18 0 34 8 71 36 150 83 176 104 16 13 34 24 42 24 7 0 18 7 25 16 8 8 27
21 44 29 27 11 55 34 151 123 56 51 130 148 167 218 36 70 41 88 43 154 5 158
-31 293 -98 371 -23 27 -45 49 -49 49 -4 0 -24 16 -45 35 -21 19 -45 35 -53
36 -19 2 94 26 175 38 64 10 136 33 170 55 11 7 37 18 57 25 21 7 44 21 52 32
13 19 82 69 137 99 15 8 42 29 61 47 77 75 98 93 108 93 6 0 44 27 83 61 40
33 104 79 142 101 39 23 81 49 95 58 14 9 57 25 95 35 66 17 75 17 143 2 87
-20 158 -65 178 -112 7 -19 18 -36 24 -40 5 -3 10 -21 10 -38 0 -18 6 -41 14
-52 11 -17 12 -31 1 -85 -17 -89 -48 -154 -90 -191 -33 -29 -46 -59 -26 -59 5
0 34 20 65 45 68 56 76 80 76 231 0 79 -5 123 -16 150 -22 54 -80 140 -107
159 -38 27 -211 70 -242 60z"/>
<path d="M510 12617 c-66 -19 -182 -107 -142 -107 5 0 17 9 27 20 10 11 24 20
31 20 7 0 35 11 62 25 77 38 198 30 315 -21 20 -10 41 -14 45 -10 10 10 -27
36 -52 36 -12 0 -37 10 -56 22 -43 26 -163 34 -230 15z"/>
<path d="M2602 12510 c0 -14 2 -19 5 -12 2 6 2 18 0 25 -3 6 -5 1 -5 -13z"/>
<path d="M3340 12497 c-25 -7 -62 -25 -83 -39 -21 -15 -41 -28 -45 -30 -10 -4
-58 -77 -73 -110 -6 -15 -8 -35 -4 -45 4 -10 7 -31 6 -48 -2 -38 32 -139 63
-185 26 -38 103 -81 177 -98 46 -11 89 -7 89 9 0 15 -44 37 -90 44 -52 8 -105
37 -138 74 -32 37 -74 120 -66 132 3 6 1 21 -6 34 -11 20 -8 31 19 81 29 54
44 69 130 126 18 13 46 18 92 18 60 0 70 -3 120 -38 69 -48 105 -111 95 -166
-11 -59 -109 -139 -151 -122 -22 8 -18 19 14 37 30 18 47 63 37 96 -7 21 -59
53 -86 53 -10 0 -32 -13 -49 -29 -57 -53 -32 -134 53 -175 105 -50 207 24 205
150 0 70 -12 106 -51 156 -53 68 -167 101 -258 75z"/>
<path d="M2024 12491 c-52 -9 -131 -55 -139 -82 -11 -33 2 -34 47 -3 88 60
172 70 248 32 36 -19 50 -35 76 -87 30 -59 32 -70 27 -130 -4 -36 -12 -72 -20
-79 -7 -7 -13 -22 -13 -32 0 -11 -12 -26 -29 -34 -16 -9 -31 -22 -34 -30 -4
-9 -25 -19 -47 -22 -43 -7 -58 -20 -42 -36 31 -31 192 100 192 156 0 9 4 16 9
16 5 0 14 14 20 32 9 25 8 42 -3 77 -8 26 -17 58 -20 73 -3 15 -30 51 -59 82
-67 71 -109 84 -213 67z"/>
<path d="M2711 12484 c0 -11 3 -14 6 -6 3 7 2 16 -1 19 -3 4 -6 -2 -5 -13z"/>
<path d="M2807 12480 c-6 -24 8 -36 17 -14 8 22 7 34 -3 34 -5 0 -11 -9 -14
-20z"/>
<path d="M940 12470 c14 -11 50 -37 80 -57 30 -20 95 -73 145 -117 103 -92 93
-84 165 -137 30 -23 73 -50 95 -61 22 -12 51 -29 65 -40 64 -49 108 -71 150
-75 l45 -5 -44 26 c-24 15 -55 29 -70 33 -14 3 -39 17 -55 30 -15 13 -42 31
-60 40 -44 23 -101 68 -176 139 -36 34 -91 79 -124 101 -104 68 -109 71 -116
82 -14 24 -75 61 -99 61 l-26 0 25 -20z"/>
<path d="M595 12460 c-11 -5 -32 -9 -47 -9 -49 -2 -141 -112 -114 -138 9 -9
33 14 45 45 16 37 67 68 125 76 65 8 75 17 31 29 -11 3 -29 2 -40 -3z"/>
<path d="M297 12430 c-19 -27 -25 -136 -7 -125 6 3 10 24 10 46 0 22 5 49 11
60 16 31 5 46 -14 19z"/>
<path d="M4753 12425 c-52 -22 -111 -75 -134 -119 -14 -26 -24 -66 -27 -111
-6 -90 22 -164 74 -194 19 -11 34 -25 34 -30 0 -20 101 -44 165 -39 61 5 135
32 135 49 0 14 -53 10 -76 -5 -14 -10 -38 -13 -89 -9 -64 6 -71 9 -110 47 -69
69 -111 232 -69 267 8 7 22 25 29 40 8 15 35 37 61 49 38 19 57 22 115 18 60
-5 74 -10 100 -34 53 -51 76 -137 45 -163 -12 -10 -17 -8 -27 11 -32 63 -74
82 -122 56 -73 -38 -55 -137 29 -166 25 -8 39 -6 70 8 51 23 67 51 75 135 6
63 4 74 -18 113 -14 23 -29 42 -34 42 -4 0 -25 11 -45 25 -43 29 -127 34 -181
10z"/>
<path d="M715 12417 c42 -25 89 -86 99 -128 11 -44 32 -62 42 -36 10 28 -33
102 -82 140 -26 20 -54 37 -63 36 -13 0 -12 -3 4 -12z"/>
<path d="M2800 12384 c0 -8 5 -12 10 -9 6 3 10 10 10 16 0 5 -4 9 -10 9 -5 0
-10 -7 -10 -16z"/>
<path d="M1868 12364 c-5 -4 -8 -19 -8 -33 1 -23 2 -24 11 -8 11 19 9 53 -3
41z"/>
<path d="M2009 12321 c-16 -16 -29 -39 -29 -51 0 -35 29 -79 56 -86 33 -8 26
-25 -17 -40 -29 -10 -31 -13 -15 -19 12 -6 34 0 63 16 67 36 79 55 75 123 -4
55 -6 59 -38 72 -48 20 -62 18 -95 -15z"/>
<path d="M2510 12263 c0 -48 8 -73 22 -73 14 0 4 88 -11 103 -8 8 -11 0 -11
-30z"/>
<path d="M542 12272 c-19 -15 -23 -26 -21 -60 4 -46 -8 -66 -22 -39 -11 19
-29 23 -29 6 0 -14 63 -39 102 -39 33 0 88 41 88 66 0 26 -23 62 -47 73 -32
15 -44 14 -71 -7z"/>
<path d="M2890 12246 c-14 -18 -10 -58 8 -64 8 -2 12 9 12 37 0 45 -2 48 -20
27z"/>
<path d="M280 12221 c0 -17 5 -31 10 -31 6 0 10 11 10 24 0 14 -4 28 -10 31
-6 4 -10 -7 -10 -24z"/>
<path d="M1600 12214 c0 -31 45 -107 103 -174 25 -29 34 -46 25 -48 -42 -11
-44 -13 -25 -23 23 -13 326 -19 350 -7 35 18 5 26 -86 25 -79 -1 -98 2 -137
22 -60 31 -160 126 -187 178 -29 53 -43 62 -43 27z"/>
<path d="M830 12181 c0 -17 -64 -106 -93 -130 -16 -14 -50 -30 -75 -36 -50
-13 -64 -29 -32 -38 26 -7 130 45 167 83 67 69 71 77 57 114 -7 17 -24 22 -24
7z"/>
<path d="M2679 12174 c-69 -20 -89 -45 -89 -107 0 -76 28 -107 105 -118 93
-12 151 27 162 111 5 33 1 43 -28 74 -42 46 -88 58 -150 40z"/>
<path d="M290 12166 c0 -8 5 -18 10 -21 6 -3 10 1 10 9 0 8 -4 18 -10 21 -5 3
-10 -1 -10 -9z"/>
<path d="M320 12113 c0 -12 60 -73 71 -73 5 0 9 7 9 15 0 8 -3 15 -7 15 -5 0
-21 11 -37 25 -31 27 -36 29 -36 18z"/>
<path d="M434 12015 c11 -8 31 -15 45 -15 l26 1 -25 14 c-14 8 -34 14 -45 14
-20 0 -20 0 -1 -14z"/>
<path d="M545 11990 c3 -5 10 -10 16 -10 5 0 9 5 9 10 0 6 -7 10 -16 10 -8 0
-12 -4 -9 -10z"/>
<path d="M588 11930 c-16 -10 -57 -12 -163 -11 -32 0 -55 -5 -65 -15 -13 -13
3 -14 157 -8 192 8 190 8 225 -60 12 -23 28 -46 36 -52 11 -8 15 -27 13 -70
-3 -89 -16 -124 -67 -176 -51 -53 -47 -63 9 -20 68 51 89 96 95 197 l4 91 -50
55 c-63 69 -144 98 -194 69z"/>
<path d="M1728 11933 c-11 -3 -18 -14 -18 -28 0 -13 -10 -30 -26 -40 -14 -9
-23 -19 -20 -22 3 -3 18 6 34 19 16 13 43 30 61 37 34 15 39 26 15 35 -17 6
-19 6 -46 -1z"/>
<path d="M2732 11918 c-7 -7 -36 -13 -64 -14 -40 -1 -55 -6 -70 -24 -37 -46
-10 -133 51 -165 40 -20 62 -19 117 7 48 24 74 65 74 117 0 32 -6 41 -47 69
-36 25 -44 27 -61 10z"/>
<path d="M1578 11906 c-20 -6 -43 -17 -50 -24 -6 -6 -27 -12 -44 -12 -23 0
-38 -8 -52 -25 -11 -14 -25 -25 -32 -25 -6 0 -24 -9 -38 -20 -15 -11 -36 -27
-47 -35 -11 -8 -33 -25 -50 -38 -16 -12 -47 -31 -69 -42 -21 -11 -65 -43 -98
-72 -32 -29 -62 -53 -67 -53 -4 0 -17 -8 -28 -17 -76 -66 -261 -193 -281 -193
-5 0 -15 -6 -21 -14 -16 -20 -123 -40 -168 -31 -21 3 -53 16 -71 27 -18 11
-39 17 -48 14 -37 -14 -134 100 -134 157 0 14 -7 42 -16 63 -18 43 -12 128 13
181 18 38 13 70 -6 35 -42 -79 -42 -252 0 -340 21 -43 88 -117 135 -148 32
-21 215 -22 282 -1 29 9 59 23 68 32 8 8 26 15 38 15 13 0 31 10 42 21 21 24
216 174 302 233 31 21 91 65 132 97 114 88 122 93 170 114 25 10 56 29 70 41
14 13 46 28 72 34 50 13 87 41 52 39 -11 -1 -36 -6 -56 -13z"/>
<path d="M2105 11888 c17 -14 40 -28 53 -32 12 -4 22 -11 22 -15 0 -5 13 -25
30 -46 16 -20 32 -54 35 -74 10 -56 24 -86 37 -73 10 10 -1 81 -25 145 -11 32
-64 76 -111 93 -17 6 -40 15 -51 19 -13 6 -9 0 10 -17z"/>
<path d="M3731 11902 c-15 -5 -4 -22 15 -22 47 0 267 -130 370 -217 114 -98
302 -242 344 -263 25 -12 61 -36 81 -51 20 -16 42 -29 48 -29 6 0 36 -13 66
-29 70 -38 156 -47 246 -28 36 8 76 20 88 27 29 15 61 47 61 60 0 6 6 10 14
10 19 0 53 47 62 86 4 16 10 34 14 39 13 17 22 93 15 116 l-7 22 -14 -24 c-7
-13 -13 -47 -14 -76 0 -44 -5 -57 -35 -93 -19 -23 -35 -46 -35 -50 0 -12 -128
-79 -176 -92 -36 -10 -46 -9 -83 10 -29 15 -60 22 -100 22 -48 0 -63 4 -85 25
-15 14 -32 25 -39 25 -24 0 -135 88 -406 324 -31 26 -67 53 -81 59 -14 6 -41
24 -60 39 -84 65 -242 126 -289 110z"/>
<path d="M3266 11875 c-20 -14 -43 -25 -51 -25 -13 0 -65 -59 -65 -74 0 -3
-11 -23 -24 -44 -24 -35 -25 -41 -15 -116 11 -84 14 -91 71 -154 52 -57 75
-70 140 -78 67 -8 102 3 174 52 47 32 54 43 74 103 19 59 20 73 10 114 -12 46
-20 54 -104 104 -53 32 -144 3 -184 -57 -31 -46 -23 -103 19 -142 38 -36 73
-36 110 1 45 45 38 93 -19 133 l-24 16 22 12 c13 7 37 9 61 5 35 -6 43 -13 64
-55 19 -38 23 -59 20 -96 -6 -52 -26 -92 -53 -101 -9 -3 -37 -14 -60 -26 -46
-21 -113 -20 -192 3 -37 10 -39 12 -84 105 -27 57 -28 63 -17 119 8 48 19 69
58 114 29 33 62 59 83 66 19 6 36 19 38 29 5 23 -9 21 -52 -8z"/>
<path d="M4780 11891 c-61 -5 -83 -12 -119 -36 -47 -32 -47 -33 -80 -107 -49
-112 -7 -223 114 -299 30 -19 106 -25 154 -12 21 5 20 7 -15 19 -22 8 -55 14
-75 14 -52 0 -99 36 -131 99 -33 64 -35 113 -9 173 50 116 149 150 324 114 37
-8 84 -24 103 -35 l36 -22 -18 32 c-36 60 -102 74 -284 60z"/>
<path d="M300 11831 c-6 -12 -7 -21 -1 -21 10 0 24 30 17 37 -2 3 -9 -5 -16
-16z"/>
<path d="M1593 11764 c-26 -40 -40 -84 -26 -84 8 0 73 101 73 114 0 18 -28 0
-47 -30z"/>
<path d="M465 11764 c-20 -16 -26 -27 -19 -32 7 -4 19 -24 27 -44 27 -66 92
-76 122 -18 20 39 19 55 -7 84 -34 37 -86 41 -123 10z m80 -94 c3 -5 -3 -10
-14 -10 -12 0 -21 5 -21 10 0 6 6 10 14 10 8 0 18 -4 21 -10z"/>
<path d="M5090 11785 c0 -2 9 -19 20 -37 14 -23 20 -28 20 -15 0 23 -18 57
-30 57 -6 0 -10 -2 -10 -5z"/>
<path d="M1855 11749 c-39 -35 -41 -50 -3 -25 13 9 45 19 71 22 39 6 47 4 47
-10 0 -9 -6 -16 -13 -16 -48 0 -69 -98 -28 -131 33 -27 65 -23 106 13 33 28
36 35 30 67 -10 55 -23 71 -72 92 -64 27 -96 24 -138 -12z"/>
<path d="M4823 11753 c-34 -6 -65 -52 -58 -83 8 -29 41 -67 66 -75 29 -9 68
23 75 61 7 41 17 42 51 8 14 -14 28 -22 31 -19 4 3 2 9 -4 13 -6 4 -14 16 -18
28 -15 48 -81 79 -143 67z"/>
<path d="M2883 11694 c-3 -9 2 -42 11 -73 10 -31 22 -70 27 -87 5 -17 9 -42 9
-57 0 -14 4 -28 9 -31 5 -3 12 -18 16 -33 20 -85 185 -283 280 -338 77 -45 94
-43 185 19 45 31 84 56 87 56 14 0 123 117 123 133 0 24 -33 22 -78 -7 -62
-40 -107 -49 -214 -43 -84 4 -105 9 -146 34 -26 15 -59 33 -74 40 -69 30 -190
233 -203 340 -7 56 -21 76 -32 47z"/>
<path d="M5131 11703 c0 -4 4 -17 9 -28 8 -19 9 -19 9 2 1 12 -3 25 -9 28 -5
3 -10 3 -9 -2z"/>
<path d="M2522 11650 c0 -19 2 -27 5 -17 2 9 2 25 0 35 -3 9 -5 1 -5 -18z"/>
<path d="M390 11651 c0 -6 5 -13 10 -16 6 -3 10 1 10 9 0 9 -4 16 -10 16 -5 0
-10 -4 -10 -9z"/>
<path d="M3970 11632 c0 -5 13 -26 30 -48 16 -21 30 -44 30 -50 0 -5 14 -23
30 -39 22 -21 30 -38 30 -63 0 -18 5 -43 11 -55 20 -35 12 -192 -11 -235 -29
-56 -51 -78 -97 -101 -32 -16 -43 -27 -43 -44 0 -34 21 -58 65 -73 50 -17 85
-3 147 57 41 40 46 49 52 106 4 34 11 65 17 69 5 3 32 -14 58 -39 62 -58 100
-77 166 -83 48 -5 57 -3 78 19 30 29 45 101 26 123 -10 13 -24 14 -67 9 -51
-6 -57 -4 -110 31 -91 60 -179 158 -252 281 -46 76 -160 173 -160 135z"/>
<path d="M2263 11608 c-4 -7 -17 -31 -28 -52 -11 -22 -40 -57 -65 -77 -37 -32
-57 -40 -117 -49 -65 -10 -76 -9 -119 9 -56 25 -54 25 -54 5 0 -8 20 -24 47
-36 89 -39 221 -5 288 74 14 16 25 34 25 39 0 5 9 18 20 29 11 11 20 31 20 45
0 28 -5 31 -17 13z"/>
<path d="M2609 11610 c-2 -8 -2 -40 1 -70 5 -47 7 -51 14 -29 8 28 -6 125 -15
99z"/>
<path d="M2696 11595 c-7 -19 3 -47 15 -39 12 7 12 54 0 54 -5 0 -11 -7 -15
-15z"/>
<path d="M2790 11553 c0 -83 32 -352 51 -422 35 -136 122 -290 180 -321 13 -8
27 -2 59 25 23 19 46 35 51 35 7 0 75 43 87 55 7 7 -62 45 -80 45 -18 0 -92
47 -120 77 -84 88 -120 151 -153 268 -9 33 -21 74 -26 92 -12 38 -14 52 -24
120 -8 63 -25 80 -25 26z"/>
<path d="M1345 11555 c-14 -13 -25 -31 -25 -40 0 -8 -6 -15 -12 -15 -7 0 -35
-23 -63 -51 -27 -28 -62 -57 -77 -65 -15 -8 -32 -23 -37 -33 -16 -30 -188 -91
-256 -91 -13 0 -27 -5 -30 -10 -11 -18 5 -69 32 -100 22 -27 31 -30 85 -30 70
0 88 8 150 67 50 49 71 50 61 3 -8 -40 31 -133 69 -165 16 -14 42 -25 57 -25
29 0 81 33 81 51 0 5 -18 37 -39 70 -43 66 -56 123 -46 203 6 53 17 82 66 178
16 31 29 61 29 67 0 18 -20 12 -45 -14z"/>
<path d="M2496 11557 c-3 -12 -14 -32 -25 -44 -11 -11 -29 -41 -41 -65 -29
-62 -114 -134 -215 -182 -99 -46 -243 -43 -318 9 -19 12 -45 26 -57 30 l-22 7
18 -32 c35 -58 187 -196 238 -216 28 -11 121 43 210 122 84 74 120 120 162
204 10 19 26 46 35 60 9 14 20 49 23 78 7 53 3 70 -8 29z"/>
<path d="M430 11539 c0 -18 40 -59 58 -59 6 0 31 -7 55 -15 46 -16 97 -9 105
15 4 10 -8 12 -59 7 -69 -6 -110 7 -141 47 -14 16 -18 17 -18 5z"/>
<path d="M1800 11544 c0 -7 9 -22 20 -35 10 -13 19 -19 20 -13 0 7 -9 22 -20
35 -10 13 -19 19 -20 13z"/>
<path d="M4945 11510 c-3 -5 -1 -10 4 -10 6 0 11 5 11 10 0 6 -2 10 -4 10 -3
0 -8 -4 -11 -10z"/>
<path d="M1544 11464 c5 -21 10 -52 13 -69 3 -16 19 -49 34 -72 16 -23 29 -46
29 -51 0 -5 9 -17 20 -27 18 -17 20 -17 20 -1 0 9 -7 19 -15 22 -8 3 -17 16
-21 27 -3 12 -19 50 -35 84 -16 34 -29 73 -29 87 0 14 -5 28 -12 32 -8 5 -9
-3 -4 -32z"/>
<path d="M4905 11470 c-3 -5 -1 -10 4 -10 6 0 11 5 11 10 0 6 -2 10 -4 10 -3
0 -8 -4 -11 -10z"/>
<path d="M2605 11458 c-9 -22 4 -43 17 -30 7 7 7 16 0 29 -10 17 -11 17 -17 1z"/>
<path d="M2700 11454 c0 -8 5 -12 10 -9 6 4 8 11 5 16 -9 14 -15 11 -15 -7z"/>
<path d="M2700 11380 c0 -16 5 -30 10 -30 6 0 10 14 10 30 0 17 -4 30 -10 30
-5 0 -10 -13 -10 -30z"/>
<path d="M2573 11340 c-17 -36 -45 -96 -62 -135 -42 -92 -122 -173 -218 -221
-80 -39 -81 -42 -24 -99 46 -47 87 -75 109 -75 29 0 123 144 173 265 43 105
73 256 59 304 -6 24 -9 21 -37 -39z"/>
<path d="M2701 11228 c-1 -112 -29 -302 -53 -363 -11 -27 -36 -77 -57 -110
-21 -33 -40 -67 -43 -75 -6 -17 16 -65 35 -77 14 -9 47 -74 47 -93 0 -6 7 -25
16 -42 9 -17 23 -61 32 -97 10 -36 21 -66 26 -66 5 0 16 25 23 55 37 148 57
195 100 241 24 25 43 53 43 63 0 9 -15 33 -34 53 -18 21 -43 61 -54 88 -29 74
-57 237 -58 345 -2 141 -3 160 -13 160 -5 0 -9 -37 -10 -82z"/>
<path d="M1666 11208 c24 -41 47 -68 60 -68 25 0 15 28 -19 54 -37 28 -52 33
-41 14z"/>
<path d="M1785 11083 c18 -16 31 -21 33 -14 6 18 -18 41 -42 41 -19 -1 -19 -3
9 -27z"/>
<path d="M1900 10992 c0 -12 114 -118 145 -135 17 -9 45 -32 64 -51 19 -20 40
-36 47 -36 26 0 25 21 -4 48 -109 101 -157 142 -166 142 -6 0 -28 9 -49 20
-20 11 -37 17 -37 12z"/>
<path d="M944 10921 c-25 -15 -34 -29 -39 -61 -12 -72 34 -120 113 -120 49 0
64 16 70 81 5 57 -10 82 -65 105 -41 18 -42 18 -79 -5z"/>
<path d="M4352 10851 c-40 -7 -77 -61 -67 -99 9 -38 59 -82 92 -82 41 0 93 50
93 89 0 32 -52 102 -74 100 -6 -1 -26 -4 -44 -8z"/>
<path d="M3115 10726 c-42 -19 -126 -103 -160 -160 -32 -55 -49 -130 -35 -155
7 -12 9 -7 10 21 0 20 5 40 10 43 6 3 10 15 10 26 0 30 44 82 131 155 94 78
105 101 34 70z"/>
<path d="M2226 10722 c-7 -11 85 -97 121 -114 13 -6 26 -20 29 -32 4 -12 17
-34 30 -49 13 -16 24 -37 24 -48 0 -11 5 -29 10 -39 13 -24 -16 -79 -51 -98
-28 -15 -165 -10 -197 7 -31 16 -43 45 -36 81 9 41 43 62 104 63 47 1 49 2 33
19 -21 23 -70 23 -108 -1 -23 -13 -34 -30 -43 -68 -12 -44 -11 -54 7 -95 11
-25 28 -49 38 -51 10 -3 57 -5 105 -4 86 2 88 3 123 37 31 31 36 44 41 100 5
53 3 71 -12 96 -28 47 -98 136 -130 166 -32 29 -78 45 -88 30z"/>
<path d="M797 10639 c-9 -5 -23 -22 -31 -38 -18 -33 -4 -68 35 -90 41 -23 73
-8 89 40 14 41 14 42 -18 70 -35 31 -47 34 -75 18z"/>
<path d="M4510 10538 c-35 -38 -18 -78 42 -92 21 -5 31 -1 47 20 26 33 26 35
-4 68 -29 32 -57 33 -85 4z"/>
<path d="M3091 10524 c-49 -41 -36 -86 13 -49 38 29 89 17 111 -26 22 -42 18
-75 -11 -103 -22 -20 -42 -25 -106 -31 l-80 -7 -39 38 c-21 21 -42 35 -45 31
-12 -12 18 -55 56 -82 31 -22 48 -26 111 -26 93 -1 122 10 153 58 59 92 33
179 -63 212 -50 16 -66 14 -100 -15z"/>
<path d="M1215 10247 c-56 -28 -43 -38 48 -35 68 2 89 -1 122 -18 46 -24 59
-46 74 -130 10 -55 9 -66 -10 -110 -12 -27 -34 -60 -48 -74 -95 -92 -157 -176
-204 -276 -8 -17 -20 -35 -26 -38 -6 -4 -11 -14 -11 -23 0 -8 -18 -36 -39 -62
-30 -35 -42 -61 -50 -106 -16 -84 -24 -192 -16 -222 6 -25 7 -25 19 -7 7 10
16 47 19 82 3 34 10 69 17 77 6 7 12 46 13 85 1 39 7 74 12 78 11 8 25 30 55
85 11 20 24 37 29 37 4 0 14 11 21 25 19 36 106 99 164 118 59 20 95 21 197 6
94 -15 161 -56 227 -142 44 -56 45 -59 45 -130 1 -97 -36 -171 -102 -204 -24
-12 -52 -30 -62 -39 -15 -14 -30 -15 -91 -9 -63 6 -79 11 -115 42 -41 32 -43
37 -43 86 0 66 18 101 52 105 26 3 27 2 17 -30 -8 -29 -7 -36 17 -56 20 -18
36 -22 68 -20 37 3 43 7 59 41 35 74 -20 137 -117 137 -57 0 -82 -15 -113 -70
-29 -52 -33 -78 -21 -131 12 -53 25 -67 108 -124 49 -33 60 -37 102 -32 25 3
55 10 65 16 10 5 44 21 76 35 36 16 61 33 64 45 3 11 11 22 18 25 30 11 45 59
62 197 13 109 -93 263 -202 293 -80 22 -140 26 -218 15 -106 -15 -110 -15
-114 -4 -2 6 22 40 52 75 30 36 58 76 61 90 3 14 10 43 15 65 19 73 14 101
-25 157 -20 30 -52 62 -72 73 -47 25 -152 27 -199 2z"/>
<path d="M2673 10249 c-40 -8 -60 -23 -79 -60 -19 -38 -18 -91 4 -128 33 -60
148 -72 208 -22 62 50 59 156 -5 191 -32 17 -95 26 -128 19z"/>
<path d="M4110 10231 c-41 -13 -104 -48 -122 -67 -58 -66 -50 -291 13 -357 23
-24 43 -67 34 -75 -3 -3 -29 0 -57 6 -84 18 -187 22 -237 10 -55 -13 -134 -68
-158 -109 -10 -16 -21 -29 -25 -29 -23 0 -41 -55 -43 -137 -3 -71 0 -97 17
-138 27 -64 77 -133 103 -141 11 -3 39 -14 62 -25 52 -23 63 -23 150 -3 82 19
86 22 102 75 7 23 22 49 32 58 18 15 19 20 6 81 -12 61 -15 67 -61 98 -65 43
-99 42 -142 -4 -19 -19 -34 -45 -34 -56 0 -31 31 -88 57 -105 22 -15 26 -15
51 4 17 12 30 35 36 61 18 79 58 36 55 -59 -2 -39 -8 -54 -30 -75 -58 -55
-205 -49 -285 12 -47 36 -61 66 -69 150 -7 64 -5 74 24 134 33 70 66 102 146
141 43 21 64 24 150 24 98 -1 101 -2 160 -38 79 -49 122 -92 147 -147 11 -25
24 -53 29 -62 25 -50 78 -238 82 -295 4 -46 15 -31 23 29 4 35 7 67 5 72 -1 5
-6 39 -10 77 -14 110 -101 270 -202 371 -58 58 -85 98 -104 158 -25 81 -24
154 5 223 21 49 28 58 59 67 79 22 152 3 187 -49 34 -50 35 -148 1 -179 -34
-32 -38 -28 -31 27 5 41 3 52 -15 70 -30 30 -84 28 -109 -4 -45 -57 18 -165
96 -165 86 0 142 89 128 201 -8 62 -63 149 -95 149 -10 0 -35 7 -54 15 -40 17
-41 17 -77 6z"/>
<path d="M1128 10168 c-18 -24 -26 -50 -30 -98 -3 -36 -4 -71 -1 -78 9 -23 96
-82 122 -82 32 0 141 104 141 135 0 11 -17 39 -39 63 -52 56 -92 59 -122 7
-23 -39 -54 -61 -64 -46 -3 5 6 35 20 67 29 66 29 64 11 64 -7 0 -25 -15 -38
-32z m122 -187 c0 -15 -16 -22 -34 -15 -25 9 -19 24 9 24 14 0 25 -4 25 -9z"/>
<path d="M2333 10022 c-38 -20 -83 -98 -83 -144 0 -42 36 -115 61 -123 13 -4
30 2 50 19 61 52 108 21 111 -71 4 -151 -2 -246 -21 -316 -11 -41 -22 -97 -26
-123 -4 -27 -13 -66 -21 -87 -8 -21 -12 -48 -8 -61 4 -16 -11 -60 -46 -137
-29 -63 -56 -134 -61 -159 -6 -32 -18 -54 -43 -76 -23 -20 -38 -44 -44 -72 -5
-22 -19 -53 -31 -68 -11 -15 -21 -30 -21 -35 0 -4 -12 -21 -26 -36 -15 -15
-44 -52 -66 -81 -49 -66 -244 -264 -279 -283 -26 -14 -86 -56 -142 -99 -36
-29 -96 -20 -137 20 -16 15 -37 34 -47 41 -10 8 -26 26 -36 41 -17 27 -57 56
-57 41 0 -4 18 -27 39 -50 22 -23 42 -51 46 -63 3 -11 10 -20 15 -20 4 0 17
-15 28 -34 27 -45 83 -65 115 -42 12 9 39 28 60 42 21 13 40 31 43 39 3 8 16
17 27 21 68 21 278 209 345 309 15 21 39 52 55 67 15 16 38 50 51 76 13 26 36
58 50 72 18 16 35 53 52 110 15 47 32 92 39 100 25 31 72 147 79 194 3 27 14
63 25 80 40 67 80 217 92 351 13 148 9 208 -18 281 -36 96 -76 127 -152 117
-39 -5 -41 -4 -41 20 0 55 16 74 77 92 91 27 138 3 217 -110 21 -29 26 -16 15
37 -8 37 -20 54 -62 89 -49 42 -54 44 -122 46 -49 1 -80 -4 -102 -15z"/>
<path d="M2985 10013 c-11 -2 -30 -6 -43 -9 -25 -5 -112 -80 -112 -97 0 -6 -7
-18 -15 -27 -11 -12 -18 -49 -22 -119 -5 -90 -4 -101 10 -101 13 0 17 9 17 33
0 46 27 133 57 184 30 51 97 88 143 78 33 -7 80 -57 80 -85 0 -13 -14 -23 -52
-35 -121 -39 -146 -111 -128 -364 6 -79 12 -153 15 -165 3 -11 7 -46 9 -76 4
-48 38 -208 54 -250 3 -8 7 -22 8 -30 5 -29 29 -85 55 -130 15 -25 32 -65 39
-90 7 -25 18 -56 26 -70 7 -14 41 -81 74 -150 34 -69 72 -134 86 -145 13 -12
24 -26 24 -32 0 -10 167 -194 183 -201 4 -2 26 -20 49 -39 29 -24 44 -31 47
-22 2 7 -6 19 -18 27 -11 8 -21 20 -21 27 0 8 -24 35 -54 62 -29 26 -56 58
-60 70 -4 11 -18 28 -31 37 -14 9 -32 30 -40 47 -9 17 -35 56 -59 87 -41 55
-94 157 -122 235 -7 21 -23 51 -34 67 -27 38 -71 153 -81 215 -5 27 -17 61
-28 76 -14 19 -22 51 -27 105 -4 44 -13 94 -20 113 -14 32 -17 100 -18 368 -1
98 1 115 20 140 24 33 55 40 74 18 25 -30 56 -18 85 31 23 39 26 54 21 92 -8
62 -29 90 -82 113 -44 18 -68 21 -109 12z"/>
<path d="M2705 9958 c-3 -7 -7 -103 -11 -213 -3 -110 -7 -229 -9 -265 -12
-227 -16 -287 -20 -307 -3 -12 -1 -33 4 -46 6 -14 7 -28 3 -31 -14 -14 -32
-105 -37 -189 -5 -82 -20 -157 -43 -217 -5 -14 -10 -41 -10 -61 -1 -20 -6 -48
-12 -63 -5 -15 -10 -44 -10 -64 0 -20 -9 -68 -20 -107 -10 -38 -26 -99 -35
-135 -9 -36 -25 -92 -36 -125 -10 -33 -19 -70 -19 -83 0 -13 -5 -32 -10 -42
-6 -11 -6 -21 -1 -24 9 -6 41 76 77 194 9 30 20 60 24 65 4 6 24 93 44 195 20
102 41 206 47 232 6 26 14 80 19 120 4 40 15 99 24 131 9 32 16 75 16 97 0 21
4 41 9 44 13 8 32 -19 25 -37 -3 -8 2 -44 11 -80 9 -35 15 -68 13 -73 -5 -20
12 -75 22 -69 13 8 3 177 -12 217 -7 18 -7 43 1 77 7 35 8 66 1 99 -10 48 -21
400 -19 614 0 65 -2 127 -6 138 -7 22 -23 27 -30 8z"/>
<path d="M2631 9783 c0 -10 4 -27 9 -38 7 -17 9 -15 9 12 1 17 -3 35 -9 38 -5
3 -10 -2 -9 -12z"/>
<path d="M1056 9103 c-4 -9 -2 -21 4 -27 7 -7 10 -2 10 17 0 31 -5 34 -14 10z"/>
<path d="M1576 9103 c-3 -3 -6 -17 -6 -31 0 -41 -47 -209 -61 -218 -5 -3 -15
-20 -23 -37 -7 -18 -30 -52 -50 -75 -33 -40 -45 -79 -30 -95 3 -3 28 1 56 10
64 18 73 11 74 -65 3 -137 17 -351 25 -363 15 -24 37 10 42 64 3 29 12 86 22
127 9 41 20 109 23 150 l7 75 67 -3 c38 -2 69 1 73 7 9 16 -12 49 -66 103 -27
27 -49 53 -49 59 0 5 -9 28 -19 52 -11 23 -25 67 -31 97 -7 30 -16 63 -21 72
-5 10 -9 29 -9 42 0 25 -12 40 -24 29z"/>
<path d="M4298 9063 c-7 -53 6 -177 15 -143 9 35 16 151 10 167 -9 24 -20 13
-25 -24z"/>
<path d="M3730 9065 c0 -8 5 -15 10 -15 6 0 10 7 10 15 0 8 -4 15 -10 15 -5 0
-10 -7 -10 -15z"/>
<path d="M1062 9010 c0 -14 2 -19 5 -12 2 6 2 18 0 25 -3 6 -5 1 -5 -13z"/>
<path d="M2516 9012 c-3 -5 -6 -26 -7 -48 -1 -21 -14 -66 -30 -100 -15 -33
-32 -80 -39 -105 -16 -61 -61 -181 -76 -199 -9 -12 -20 -52 -28 -100 -1 -3
-13 -21 -29 -41 -15 -20 -27 -44 -27 -53 0 -9 -9 -34 -20 -56 -21 -41 -26 -80
-11 -80 9 0 51 82 51 99 0 5 7 14 14 21 8 6 20 28 26 48 16 51 39 102 61 133
10 14 21 44 25 67 3 22 12 43 20 46 7 3 21 31 30 63 9 32 21 65 25 73 6 12 49
217 49 236 0 8 -29 4 -34 -4z"/>
<path d="M2855 8978 c8 -37 28 -56 33 -32 6 27 -8 64 -24 64 -12 0 -14 -7 -9
-32z"/>
<path d="M3726 8988 c-3 -13 -7 -47 -10 -77 -4 -35 -13 -62 -26 -76 -11 -12
-20 -27 -20 -34 0 -16 -60 -111 -70 -111 -11 0 -31 -50 -25 -61 4 -5 24 -9 46
-9 32 0 41 -4 49 -24 11 -31 30 -159 37 -260 6 -92 15 -128 30 -133 20 -7 42
126 58 349 4 61 9 68 48 61 23 -3 39 0 50 11 19 20 14 41 -23 81 -28 31 -74
143 -94 230 -17 76 -41 100 -50 53z"/>
<path d="M2889 8864 c-2 -47 2 -78 13 -98 6 -11 21 -62 34 -115 27 -106 35
-131 70 -208 13 -28 24 -57 24 -63 0 -5 4 -18 10 -28 5 -9 21 -48 36 -87 15
-38 33 -77 40 -85 7 -9 20 -31 29 -50 9 -19 32 -62 51 -95 18 -33 39 -71 46
-85 17 -34 49 -79 73 -106 28 -30 35 -41 75 -104 19 -30 47 -68 62 -85 48 -53
57 -64 82 -102 47 -73 245 -237 263 -219 8 8 -33 59 -133 164 -49 51 -116 124
-149 163 -33 39 -79 91 -102 115 -24 24 -43 53 -43 64 0 10 -13 35 -30 53 -16
19 -30 38 -30 42 0 4 -16 30 -37 57 -47 64 -151 271 -159 318 -4 19 -15 47
-25 61 -10 14 -21 38 -25 55 -4 16 -11 35 -17 42 -5 7 -16 36 -23 65 -11 46
-32 110 -55 172 -19 54 -28 83 -33 116 -4 20 -15 44 -26 54 -19 18 -20 17 -21
-11z"/>
<path d="M4282 8844 c-12 -18 -22 -44 -22 -56 0 -23 -32 -132 -48 -165 -5 -10
-16 -31 -25 -48 -9 -16 -24 -46 -34 -65 -9 -19 -28 -47 -41 -62 -24 -26 -27
-63 -5 -63 6 0 23 16 37 35 31 44 116 211 116 228 0 7 5 23 12 35 36 66 60
178 40 191 -4 2 -17 -11 -30 -30z"/>
<path d="M1080 8780 c1 -41 41 -166 60 -183 10 -10 11 -8 5 8 -4 11 -9 31 -10
45 -5 43 -33 142 -44 153 -8 8 -11 1 -11 -23z"/>
<path d="M2765 8718 c3 -18 10 -64 15 -103 11 -94 36 -209 50 -235 6 -12 9
-28 6 -36 -3 -9 0 -27 7 -42 8 -15 19 -54 26 -87 7 -33 19 -85 27 -115 9 -30
21 -79 29 -109 22 -84 96 -282 122 -324 13 -20 34 -62 48 -93 14 -31 38 -73
55 -94 17 -21 47 -68 68 -103 34 -58 101 -128 133 -139 19 -6 -15 -70 -63
-114 -23 -23 -63 -52 -88 -64 -25 -12 -53 -26 -63 -31 -30 -16 -155 -28 -190
-18 -50 14 -130 71 -146 104 -12 23 -16 26 -19 13 -5 -27 47 -107 87 -133 45
-30 177 -58 217 -46 45 13 154 70 154 81 0 5 17 21 39 35 41 28 91 99 110 158
10 29 9 42 -3 71 -8 20 -19 36 -25 36 -18 0 -124 105 -157 155 -17 28 -46 67
-63 89 -17 21 -31 48 -31 60 0 11 -7 30 -15 40 -8 11 -15 26 -15 34 0 17 -33
91 -86 194 -19 37 -34 74 -34 82 0 8 -9 31 -21 51 -12 19 -18 42 -15 51 3 8
-5 55 -19 104 -14 49 -25 101 -25 115 0 14 -7 37 -16 51 -16 23 -36 145 -34
207 0 15 -7 38 -16 52 -9 14 -13 32 -10 41 7 18 -23 94 -36 94 -5 0 -6 -15 -3
-32z"/>
<path d="M577 8554 c-20 -27 -17 -54 7 -54 9 0 23 11 32 25 13 20 14 28 4 40
-17 20 -22 19 -43 -11z"/>
<path d="M1159 8530 c9 -42 28 -80 40 -80 4 0 13 -17 19 -39 7 -21 19 -44 27
-51 8 -7 15 -17 15 -22 0 -11 73 -88 83 -88 8 0 -23 61 -46 90 -10 14 -25 40
-32 58 -8 17 -18 32 -24 32 -5 0 -14 15 -20 33 -7 17 -25 48 -41 67 l-29 35 8
-35z"/>
<path d="M4011 8291 c-34 -36 -68 -75 -74 -86 -5 -10 -23 -30 -39 -43 -15 -13
-28 -31 -28 -39 0 -18 -39 -52 -61 -53 -8 0 -29 -11 -47 -24 -26 -19 -40 -22
-82 -18 -39 4 -50 1 -50 -10 0 -24 62 -52 93 -42 61 21 367 325 367 365 0 23
-21 9 -79 -50z"/>
<path d="M2187 8179 c-20 -18 -37 -40 -37 -50 0 -9 -7 -22 -15 -29 -8 -7 -15
-19 -15 -26 0 -8 -9 -23 -21 -35 -24 -24 -63 -78 -119 -164 -22 -33 -45 -69
-52 -79 -19 -29 -99 -125 -144 -174 -21 -23 -59 -65 -84 -92 -25 -27 -49 -50
-54 -50 -11 0 -52 -44 -67 -71 -10 -19 -9 -20 13 -14 23 8 140 109 147 129 2
6 25 31 49 56 91 90 265 318 315 412 13 24 47 78 75 122 29 43 51 83 50 88 -2
6 -20 -5 -41 -23z"/>
<path d="M2677 8064 c-4 -4 -7 -28 -7 -53 0 -93 -86 -218 -175 -255 -19 -8
-35 -21 -35 -29 0 -8 19 -26 43 -41 24 -15 56 -43 71 -62 33 -42 74 -174 83
-267 7 -79 27 -87 30 -11 2 74 12 124 28 147 8 12 15 31 15 42 0 38 67 118
120 143 28 13 50 29 50 36 0 19 -22 36 -47 36 -14 0 -29 11 -40 28 -9 15 -25
36 -34 47 -10 11 -32 47 -49 80 -24 46 -30 67 -25 95 6 35 -13 79 -28 64z"/>
<path d="M2310 7714 c0 -10 -12 -27 -59 -85 -24 -30 -61 -97 -61 -110 0 -7
-13 -21 -122 -137 -72 -75 -128 -148 -128 -166 0 -7 7 -19 15 -26 8 -7 15 -18
15 -25 0 -7 23 -35 52 -62 29 -26 64 -61 79 -76 35 -35 156 -77 223 -77 52 0
114 24 152 58 43 37 109 179 74 157 -5 -3 -10 -13 -10 -22 0 -9 -17 -39 -38
-67 -41 -53 -50 -58 -179 -86 -58 -13 -111 -2 -148 30 -11 10 -30 21 -42 24
-20 6 -55 42 -113 117 -43 55 -43 56 -7 96 18 21 57 70 85 108 28 39 57 77 65
86 68 77 168 251 153 266 -3 3 -6 2 -6 -3z"/>
<path d="M1310 7588 c-63 -18 -100 -68 -100 -136 0 -41 11 -60 50 -86 36 -24
80 -20 131 12 33 22 47 39 56 70 12 37 10 44 -13 86 -37 66 -55 74 -124 54z"/>
<path d="M4023 7573 c-49 -6 -93 -55 -93 -102 0 -56 47 -117 101 -131 52 -14
87 -1 130 48 28 32 31 40 25 80 -7 49 -25 76 -68 98 -27 14 -34 14 -95 7z"/>
<path d="M2343 7400 c-18 -4 -40 -13 -49 -20 -15 -13 -48 -70 -40 -70 2 0 24
11 47 25 29 16 59 25 89 25 81 0 84 -3 147 -115 l22 -40 1 34 c0 38 -34 101
-55 101 -8 0 -19 9 -25 20 -10 19 -71 51 -94 49 -6 -1 -26 -5 -43 -9z"/>
<path d="M2857 7386 c-49 -30 -85 -82 -93 -135 -7 -47 10 -58 19 -12 8 38 54
91 94 107 41 17 114 18 135 2 8 -7 27 -29 42 -49 42 -58 10 -95 -40 -48 -42
40 -104 22 -104 -30 0 -57 63 -88 122 -61 29 14 68 73 75 114 6 41 -23 79 -88
111 -61 31 -113 31 -162 1z"/>
<path d="M1545 7370 c-3 -5 -2 -10 4 -10 5 0 13 5 16 10 3 6 2 10 -4 10 -5 0
-13 -4 -16 -10z"/>
<path d="M3849 7289 c27 -22 49 -26 32 -5 -6 8 -22 16 -34 19 -22 6 -22 6 2
-14z"/>
<path d="M1558 7260 c-42 -23 -78 -68 -78 -100 0 -53 70 -130 119 -130 40 0
109 57 122 100 16 52 -8 103 -60 129 -49 25 -56 25 -103 1z"/>
<path d="M2309 7249 c-17 -19 -35 -29 -44 -25 -9 3 -15 0 -15 -8 0 -20 43 -55
78 -62 26 -5 36 -1 62 24 34 35 38 62 12 85 -28 26 -61 20 -93 -14z"/>
<path d="M1133 7231 c-53 -25 -71 -53 -74 -117 -2 -40 2 -58 20 -80 36 -45 57
-56 98 -48 51 9 68 19 93 54 32 45 20 123 -27 173 -39 42 -52 44 -110 18z"/>
<path d="M3682 7223 c-16 -6 -52 -81 -52 -107 1 -46 54 -101 107 -112 22 -4
38 2 76 31 44 34 47 39 47 81 0 39 -5 51 -34 80 -30 30 -40 34 -82 33 -27 0
-55 -3 -62 -6z"/>
<path d="M4076 7205 c-12 -13 -31 -42 -41 -64 -17 -38 -17 -41 1 -77 24 -47
97 -91 135 -81 63 16 110 108 89 173 -23 67 -138 99 -184 49z"/>
<path d="M2650 7016 c0 -7 9 -16 19 -19 19 -5 61 -85 61 -116 0 -9 23 -61 50
-115 28 -54 50 -109 50 -122 0 -13 9 -43 19 -67 11 -23 21 -55 23 -71 5 -44
31 -55 65 -28 44 34 205 109 273 126 71 18 71 18 88 7 14 -8 12 -18 -30 -161
-6 -19 -19 -42 -30 -51 -11 -9 -22 -33 -25 -58 -5 -37 -17 -54 -95 -133 l-89
-89 -62 32 c-34 17 -72 42 -83 55 -12 12 -39 25 -60 29 -22 3 -62 13 -90 21
-56 16 -155 15 -161 -1 -2 -7 28 -11 84 -11 79 0 96 -4 166 -35 53 -25 85 -46
102 -70 32 -42 65 -68 87 -69 26 0 105 57 125 91 9 16 21 29 25 29 4 0 14 12
22 28 8 15 31 45 51 67 34 38 48 60 101 165 23 47 44 139 44 196 0 30 -4 34
-41 44 -35 10 -46 8 -83 -9 -23 -12 -47 -21 -53 -21 -22 0 -221 -101 -227
-115 -6 -16 -62 -21 -82 -7 -6 4 -14 25 -18 47 -9 51 -96 285 -113 306 -7 8
-13 22 -13 30 0 18 -38 80 -59 96 -22 17 -41 16 -41 -1z"/>
<path d="M2579 6903 c-6 -16 -16 -35 -23 -43 -16 -19 -47 -102 -41 -108 3 -3
6 -3 8 -1 29 41 57 92 57 102 0 7 7 22 15 33 17 22 19 44 5 44 -6 0 -15 -12
-21 -27z"/>
<path d="M2637 6773 c-13 -21 -28 -49 -32 -63 -4 -14 -18 -43 -30 -65 -12 -22
-38 -86 -56 -143 -35 -109 -56 -142 -91 -142 -28 0 -87 37 -118 74 -14 17 -36
39 -49 51 -14 11 -44 38 -68 59 -32 28 -52 39 -74 38 -17 0 -33 -3 -36 -6 -6
-6 23 -110 44 -156 9 -19 40 -70 70 -112 63 -91 86 -102 135 -65 37 28 175 83
228 91 19 3 78 2 130 -3 101 -8 210 -47 277 -99 31 -23 34 -23 57 -9 58 39
236 278 236 319 0 27 -20 22 -106 -26 -44 -24 -99 -52 -124 -62 -25 -9 -61
-31 -80 -48 -19 -18 -50 -38 -69 -46 -31 -12 -35 -12 -47 5 -8 10 -14 26 -14
35 0 9 -4 20 -9 26 -5 5 -19 48 -30 95 -31 125 -95 289 -112 289 -5 0 -19 -17
-32 -37z"/>
<path d="M1950 6725 c-19 -23 8 -183 47 -273 16 -38 22 -52 44 -112 33 -89
200 -280 245 -280 13 0 57 52 66 81 6 16 78 55 118 63 14 3 34 12 45 20 19 15
18 15 -17 16 -20 0 -40 -4 -43 -10 -3 -5 -18 -10 -32 -10 -14 0 -42 -15 -66
-35 -23 -20 -52 -38 -65 -42 -29 -7 -72 11 -72 31 0 8 -22 30 -50 50 -27 20
-50 41 -50 47 0 7 -16 37 -37 67 -41 62 -80 178 -90 263 -7 70 8 83 77 67 76
-17 272 -122 322 -172 22 -22 38 -13 38 21 0 21 -4 24 -22 20 -16 -5 -33 4
-64 31 -69 61 -128 101 -173 117 -23 8 -54 24 -68 35 -32 25 -133 29 -153 5z"/>
<path d="M2542 6161 c-9 -5 -13 -28 -12 -72 2 -94 -44 -283 -76 -310 -9 -7
-29 -33 -46 -58 -46 -69 -105 -123 -131 -119 -18 2 -23 11 -27 53 -5 45 -8 52
-40 68 -40 20 -74 15 -107 -15 -18 -17 -23 -32 -23 -73 0 -66 22 -95 85 -114
46 -13 50 -13 103 13 58 29 155 99 184 135 18 21 72 153 83 201 3 14 9 59 14
100 5 41 14 97 20 125 12 53 0 83 -27 66z"/>
<path d="M2625 6149 c-6 -9 -4 -59 10 -213 8 -85 33 -52 27 37 -4 70 -4 74 4
140 5 43 4 47 -14 47 -12 0 -24 -5 -27 -11z"/>
<path d="M2740 6029 c0 -113 73 -330 135 -399 12 -14 28 -35 34 -47 30 -58
174 -100 254 -74 87 29 104 156 27 196 -38 19 -100 13 -123 -13 -19 -22 -31
-61 -28 -90 2 -21 0 -23 -20 -17 -22 7 -103 89 -123 124 -5 9 -20 29 -33 44
-12 16 -23 41 -23 57 0 16 -9 49 -19 73 -11 25 -23 67 -26 94 -13 86 -55 127
-55 52z"/>
<path d="M2635 5838 c-2 -7 -7 -84 -10 -172 l-7 -158 -28 -16 c-53 -30 -59
-122 -10 -147 36 -19 110 -19 154 -1 27 11 35 21 40 51 6 31 3 44 -19 76 -15
21 -43 47 -61 58 -38 23 -35 2 -35 244 0 44 -4 77 -10 77 -5 0 -11 -6 -14 -12z"/>
<path d="M2602 5224 c-93 -21 -128 -62 -93 -105 17 -21 18 -21 46 -3 21 13 44
18 91 16 73 -2 93 13 78 55 -14 39 -57 53 -122 37z"/>
<path d="M2550 5004 c-45 -42 -53 -46 -85 -40 -58 11 -125 -3 -157 -34 -15
-15 -28 -32 -28 -38 0 -13 29 -24 43 -15 18 11 130 3 187 -15 29 -9 64 -27 77
-39 28 -29 40 -29 48 -2 11 33 83 58 195 69 113 11 120 13 120 40 0 28 -59 43
-146 38 -58 -4 -77 -2 -86 10 -14 17 -73 55 -101 65 -13 5 -32 -6 -67 -39z"/>
<path d="M2497 4743 c-22 -21 16 -108 54 -124 16 -6 31 -19 33 -28 12 -39 8
-369 -5 -377 -4 -2 -33 4 -64 14 -42 14 -68 32 -101 68 -24 27 -47 60 -50 74
-16 68 -26 90 -44 90 -10 0 -22 -5 -25 -10 -8 -12 -15 -356 -15 -695 0 -137 0
-311 0 -385 0 -151 -8 -427 -18 -630 -10 -216 -5 -340 15 -362 30 -33 38 -5
40 140 1 75 3 148 3 162 1 14 0 54 -1 90 -2 93 11 732 15 739 5 8 20 379 19
474 -1 43 -4 115 -8 161 -4 47 -4 89 -1 95 10 15 41 -2 86 -45 38 -36 101 -54
190 -54 52 0 167 54 208 97 12 14 28 23 35 20 14 -4 14 -23 4 -662 -4 -231 -9
-562 -11 -735 -3 -173 -6 -324 -7 -335 -6 -58 15 -440 28 -500 8 -38 16 -80
18 -92 6 -40 85 -131 140 -160 40 -21 96 -20 180 4 129 37 153 56 184 152 37
114 10 252 -58 301 -38 27 -125 45 -173 36 -44 -8 -88 -41 -88 -66 0 -11 -11
-36 -25 -56 -36 -54 -31 -78 28 -142 23 -23 40 -32 63 -32 24 0 41 9 63 32 17
18 31 39 31 46 0 28 -30 70 -60 82 -16 7 -30 17 -30 23 0 19 35 36 73 37 66 0
117 -78 117 -180 0 -96 -71 -149 -199 -150 -64 0 -80 4 -128 31 -63 36 -84 64
-90 122 -5 43 -8 347 -5 447 1 30 2 71 2 90 0 19 3 163 6 320 6 293 9 719 5
825 -1 33 -2 148 -1 255 1 107 1 233 1 280 0 47 1 117 2 155 2 69 2 70 -25 73
-23 3 -28 -2 -37 -35 -6 -21 -11 -46 -11 -55 0 -25 -54 -83 -115 -123 -60 -40
-75 -43 -100 -16 -15 18 -17 39 -13 207 4 173 6 188 24 195 38 14 64 49 64 84
0 38 -14 44 -46 20 -24 -18 -82 -19 -114 0 -27 16 -53 19 -63 8z"/>
<path d="M2596 4103 c-3 -4 -6 -45 -6 -92 0 -47 -5 -117 -11 -156 -9 -62 -13
-354 -6 -538 l2 -69 -32 -13 c-47 -20 -45 -59 4 -108 l36 -37 -3 -183 c-7
-325 -5 -725 3 -733 19 -19 30 24 35 143 3 70 4 139 3 153 -7 99 -6 429 2 493
7 59 6 84 -3 102 -13 25 -7 45 15 45 21 0 55 50 55 82 0 20 -10 39 -35 61
l-36 33 5 154 c2 85 5 155 6 155 5 0 9 462 5 481 -5 22 -28 38 -39 27z"/>
<path d="M1855 2260 c-30 -12 -95 -78 -107 -109 -6 -14 -10 -73 -11 -131 0
-87 4 -114 22 -155 38 -86 125 -129 254 -126 75 1 96 10 150 58 56 49 83 101
106 204 12 51 27 111 33 131 19 65 -8 89 -51 44 -22 -23 -22 -25 -6 -57 14
-26 15 -39 7 -68 -6 -20 -16 -57 -22 -83 -17 -66 -62 -106 -142 -125 -112 -26
-119 -26 -178 5 -45 25 -60 39 -82 83 -33 66 -36 134 -9 187 37 73 74 87 126
46 20 -15 20 -16 -7 -35 -23 -17 -28 -28 -28 -65 0 -39 4 -47 33 -64 17 -11
49 -20 69 -20 30 0 41 6 61 33 27 36 41 111 26 139 -5 10 -27 30 -47 43 -20
14 -52 37 -71 50 -35 26 -86 32 -126 15z"/>
<path d="M2565 2135 c-5 -2 -31 -6 -56 -10 -59 -7 -129 -52 -129 -81 0 -11 11
-33 25 -48 59 -63 89 -203 58 -269 -9 -18 -25 -52 -36 -75 -32 -65 -59 -75
-146 -57 -80 17 -94 14 -110 -21 -20 -44 -13 -62 38 -103 55 -43 107 -51 167
-26 36 15 86 82 109 146 24 67 36 196 24 244 -6 22 -13 54 -16 70 -3 17 -12
38 -20 47 -8 9 -17 34 -20 55 -4 34 -2 40 21 51 36 16 51 7 69 -41 27 -74 28
-87 27 -451 -1 -16 -5 -36 -10 -46 -5 -10 -12 -48 -15 -84 -11 -126 -53 -172
-134 -147 -81 24 -111 6 -111 -64 0 -64 31 -96 98 -103 l53 -5 49 54 c28 30
50 57 50 62 0 19 27 3 48 -28 12 -19 38 -42 58 -50 46 -19 157 -20 173 -1 6 7
12 39 12 71 2 53 -1 61 -27 82 -37 29 -50 29 -70 -2 -24 -37 -80 -35 -95 3 -6
15 -17 41 -24 57 -8 17 -14 48 -15 70 0 22 -4 101 -8 175 -7 142 1 306 18 353
32 86 32 87 57 87 29 0 41 -26 24 -53 -80 -126 -85 -412 -10 -494 42 -45 99
-74 153 -80 44 -5 58 -2 89 18 83 55 94 238 12 201 -13 -6 -31 -23 -41 -37
-32 -48 -113 -27 -146 39 -11 23 -32 56 -46 75 -44 59 -33 131 37 242 44 70
46 85 17 110 -15 13 -26 28 -26 34 0 18 -139 42 -175 30z"/>
<path d="M2526 1121 c-31 -41 -44 -51 -98 -68 -49 -15 -66 -26 -77 -48 -13
-27 -12 -30 17 -54 17 -14 43 -53 58 -85 25 -57 26 -68 31 -274 4 -225 11
-259 52 -282 27 -14 47 -13 88 7 34 16 35 16 30 72 -2 36 4 92 19 156 12 55
25 120 29 144 14 107 67 234 107 262 19 14 28 29 28 48 0 25 -6 31 -56 50 -31
11 -61 21 -68 21 -19 0 -80 48 -94 75 -7 14 -17 25 -21 25 -5 0 -25 -22 -45
-49z"/>
</g>
</svg>
