<?xml version="1.0" standalone="no"?>
<!DOCTYPE svg PUBLIC "-//W3C//DTD SVG 20010904//EN"
 "http://www.w3.org/TR/2001/REC-SVG-20010904/DTD/svg10.dtd">
<svg version="1.0" xmlns="http://www.w3.org/2000/svg"
 width="967.000000pt" height="618.000000pt" viewBox="0 0 967.000000 618.000000"
 preserveAspectRatio="xMidYMid meet">

<g transform="translate(0.000000,618.000000) scale(0.100000,-0.100000)"
fill="#000000" stroke="none">
<path d="M1869 5895 c-3 -2 -34 -7 -70 -9 -213 -14 -209 -13 -287 -50 -119
-57 -134 -66 -179 -109 -23 -22 -49 -44 -57 -49 -8 -5 -25 -26 -37 -48 -34
-59 -67 -65 -169 -30 -30 10 -71 21 -91 25 -48 7 -61 24 -70 91 -10 76 -42
119 -108 145 -49 20 -60 21 -132 12 -56 -8 -89 -18 -111 -34 -18 -14 -46 -31
-61 -39 -16 -8 -33 -23 -39 -33 -13 -25 -6 -94 17 -182 10 -38 22 -87 27 -108
8 -33 12 -38 31 -33 16 4 29 -3 49 -24 15 -17 37 -30 50 -30 56 1 139 30 178
61 47 38 90 43 190 21 116 -25 128 -41 94 -120 -29 -67 -45 -144 -44 -216 0
-230 2 -262 16 -284 9 -13 22 -59 30 -104 10 -48 33 -117 60 -173 24 -51 44
-100 44 -108 0 -8 9 -26 20 -40 11 -14 20 -30 20 -35 0 -24 114 -199 163 -251
30 -31 62 -71 71 -89 9 -18 21 -32 26 -32 5 0 47 -37 94 -82 84 -82 212 -179
258 -197 13 -5 45 -25 71 -45 26 -20 49 -36 50 -36 2 0 53 -26 113 -59 60 -32
150 -79 199 -105 50 -26 95 -52 100 -59 6 -7 25 -22 44 -33 l33 -21 -33 -14
c-65 -27 -204 -102 -234 -125 -16 -13 -55 -42 -85 -63 -101 -71 -127 -117 -92
-161 l20 -25 88 23 c48 12 95 29 103 36 9 8 36 17 61 21 25 3 67 13 93 22 49
15 49 15 312 -5 107 -9 155 -25 213 -70 21 -16 53 -35 72 -42 49 -20 144 -94
217 -170 60 -62 133 -169 133 -194 0 -7 -33 -20 -75 -30 -69 -16 -79 -22 -121
-69 -56 -63 -74 -102 -74 -162 0 -53 36 -145 56 -145 8 0 18 -10 23 -22 21
-53 126 -128 179 -128 10 0 27 -9 37 -20 16 -18 22 -37 44 -150 16 -84 65
-171 136 -240 37 -36 73 -77 81 -92 7 -15 23 -29 34 -33 11 -4 50 -24 87 -46
74 -43 111 -48 178 -24 21 8 41 12 43 10 2 -2 5 -40 6 -86 1 -73 4 -83 24 -97
17 -11 22 -24 22 -61 0 -28 7 -56 17 -71 49 -69 179 -150 243 -150 59 0 86
-15 116 -62 20 -31 29 -62 34 -113 7 -63 15 -102 52 -253 12 -47 77 -162 115
-203 21 -23 29 -25 81 -21 39 3 69 12 94 29 57 39 118 109 118 137 0 25 -22
51 -33 39 -19 -18 -4 56 16 81 25 31 52 28 42 -4 -3 -10 -3 -30 1 -45 l6 -26
26 37 c27 40 88 249 101 351 10 71 17 85 39 82 20 -3 118 17 187 39 28 8 77
37 112 65 64 51 94 101 108 180 7 37 44 77 72 77 32 0 142 67 193 117 30 30
66 61 80 68 44 23 150 200 150 250 0 46 17 61 104 94 75 29 91 40 138 95 79
89 99 129 105 208 5 62 4 71 -22 110 -33 50 -73 87 -97 88 -22 0 -58 47 -58
76 0 13 15 41 33 61 18 21 49 61 70 88 33 46 65 79 217 225 51 48 249 186 295
205 64 26 289 46 360 33 71 -14 157 -44 200 -69 39 -23 117 -31 133 -14 6 6
13 24 16 41 6 28 1 39 -55 103 -58 68 -134 121 -173 121 -9 0 -20 9 -26 20 -6
11 -17 20 -24 20 -7 0 -25 10 -40 21 l-27 21 23 25 c29 31 127 79 203 98 109
28 429 197 490 259 17 17 42 37 57 46 24 14 92 69 155 128 13 12 28 22 32 22
4 0 39 37 76 82 38 46 90 106 115 133 25 28 53 64 62 80 10 17 22 37 27 45 5
8 19 40 31 71 12 31 32 67 46 80 13 12 24 27 24 32 0 5 6 23 14 40 46 101 62
227 59 456 -2 144 -6 175 -30 257 -14 52 -24 96 -21 99 3 3 57 23 119 44 79
27 119 36 131 30 9 -5 29 -31 45 -59 29 -51 33 -54 122 -89 66 -26 99 -26 175
-2 77 24 154 91 188 163 23 47 25 65 22 136 -6 146 -14 180 -48 217 -29 31
-37 33 -116 40 -110 9 -245 2 -293 -16 -46 -17 -147 -119 -147 -149 0 -11 -6
-36 -14 -54 -11 -27 -23 -36 -64 -49 -28 -10 -59 -17 -69 -17 -10 0 -28 -7
-40 -15 -12 -9 -43 -19 -68 -24 l-46 -9 -47 56 c-116 136 -181 183 -316 227
-208 68 -506 25 -627 -89 -52 -49 -118 -129 -137 -163 -7 -13 -18 -23 -23 -21
-6 2 -24 37 -40 77 -36 91 -87 162 -143 200 -47 32 -67 39 -156 52 -150 23
-200 25 -215 10 -12 -12 -18 -13 -39 -2 -13 8 -37 11 -53 8 -67 -14 -89 -20
-103 -32 -8 -7 -28 -15 -45 -18 -16 -4 -51 -10 -76 -15 -25 -4 -62 -19 -82
-31 -21 -12 -43 -21 -50 -18 -6 2 -35 -9 -63 -25 -28 -15 -56 -28 -63 -28 -11
0 -76 -42 -181 -115 -19 -14 -66 -55 -105 -92 -38 -38 -82 -74 -98 -82 -25
-14 -29 -13 -42 7 -40 57 -53 58 -111 15 -17 -13 -34 -23 -37 -23 -4 0 -33
-13 -65 -28 -33 -16 -76 -32 -96 -35 l-37 -6 6 32 c4 18 11 46 15 62 5 17 14
57 21 90 15 75 20 84 74 145 50 56 53 65 28 78 -27 16 -435 3 -454 -14 -8 -8
-19 -14 -23 -14 -5 0 -41 33 -81 74 -56 56 -85 77 -124 90 -58 19 -85 15 -151
-22 -37 -20 -51 -36 -73 -83 -18 -39 -38 -64 -57 -74 -38 -19 -74 -19 -91 1
-21 25 -101 62 -183 84 -110 29 -153 12 -122 -48 27 -53 56 -165 56 -218 0
-30 8 -76 19 -103 10 -28 16 -52 14 -55 -5 -4 -140 62 -168 83 -5 4 -30 16
-55 26 -25 11 -57 32 -72 47 -37 40 -60 38 -50 -4 8 -40 8 -145 -1 -154 -10
-11 -66 36 -84 69 -9 18 -24 41 -34 52 -9 11 -50 57 -89 103 -39 45 -96 102
-127 125 -75 57 -155 106 -173 106 -8 0 -42 14 -75 30 -78 38 -173 60 -209 48
-21 -7 -39 -3 -80 16 -50 24 -64 26 -206 26 -236 1 -362 -36 -440 -129 -23
-28 -47 -50 -53 -50 -9 0 -82 45 -97 60 -48 49 -133 89 -191 90 -19 0 -44 7
-55 15 -18 14 -75 21 -85 10z m1081 -64 c30 -5 69 -16 85 -25 17 -9 47 -16 68
-16 63 0 251 -82 367 -160 52 -36 118 -101 185 -185 17 -20 42 -50 58 -65 30
-31 28 -58 -7 -65 -90 -18 -94 -17 -126 17 -16 18 -32 42 -36 53 -16 48 -177
178 -237 190 -18 4 -43 17 -57 30 -27 24 -89 48 -185 72 -33 8 -76 22 -95 30
-48 22 -241 27 -295 8 -63 -21 -178 -81 -197 -101 -22 -25 -38 -88 -38 -150 0
-56 30 -108 84 -143 50 -33 126 1 126 55 0 30 -17 39 -38 21 -9 -8 -29 -17
-45 -21 -22 -5 -29 -2 -38 18 -14 30 -4 87 19 116 10 13 36 25 61 30 60 11
113 -19 142 -80 18 -38 21 -57 16 -118 -7 -88 -37 -139 -84 -140 -15 0 -64 -4
-108 -7 -76 -7 -82 -6 -122 21 -24 15 -43 30 -43 34 0 3 -16 14 -35 24 -47 26
-60 67 -58 197 0 112 11 149 67 229 51 73 68 90 89 90 12 0 37 10 56 21 19 12
64 25 100 29 77 10 242 5 321 -9z m-2238 -10 c13 -5 32 -18 44 -29 11 -10 29
-24 40 -30 43 -23 56 -161 19 -202 -22 -24 -110 -54 -133 -45 -14 5 -11 10 16
27 40 25 42 55 5 64 -16 3 -36 8 -45 10 -10 3 -26 29 -38 61 -12 31 -28 62
-36 68 -13 9 -13 14 7 39 33 42 75 55 121 37z m1197 -4 c30 -7 57 -19 62 -27
4 -8 14 -44 21 -80 10 -46 20 -66 31 -68 22 -4 51 61 43 94 -6 21 -3 24 21 24
40 0 104 -72 133 -151 14 -35 23 -68 21 -74 -2 -5 -3 -41 -2 -79 2 -137 -60
-235 -176 -276 -69 -25 -99 -22 -173 15 -50 25 -78 59 -103 123 -47 118 8 222
118 222 55 0 95 -19 153 -72 30 -28 47 -37 54 -30 17 17 1 55 -47 118 -45 58
-47 59 -108 66 -34 4 -90 4 -124 1 l-62 -6 -31 69 c-17 38 -37 72 -45 77 -17
9 -20 38 -5 53 14 14 158 15 219 1z m2901 -70 c8 -12 29 -38 46 -57 18 -20 39
-61 50 -97 10 -34 26 -72 36 -85 l17 -23 34 35 c54 54 92 80 144 95 56 17 170
22 183 9 9 -9 1 -51 -36 -184 -23 -80 -64 -170 -95 -207 -15 -17 -34 -44 -44
-60 -9 -16 -40 -44 -68 -64 -38 -25 -63 -53 -92 -103 -37 -65 -39 -75 -42
-161 -4 -87 -2 -94 22 -123 48 -57 133 -52 192 11 41 45 73 103 73 136 0 55
43 197 86 283 l44 87 50 7 c36 5 63 17 93 40 69 56 117 38 117 -44 0 -50 -41
-149 -66 -159 -35 -13 -75 -140 -47 -150 7 -2 31 13 55 35 24 21 61 47 83 57
22 10 56 28 75 41 69 44 319 75 415 52 73 -18 183 -76 191 -100 3 -13 24 -42
45 -64 89 -98 77 -230 -29 -311 -36 -27 -52 -33 -95 -33 -61 0 -144 27 -152
49 -4 9 -9 47 -12 84 -6 65 -5 69 23 98 16 17 41 37 57 45 36 19 34 46 -4 79
-29 23 -38 26 -103 23 -65 -3 -71 -5 -74 -26 -2 -12 -8 -20 -13 -16 -5 3 -7
10 -4 15 4 5 -5 14 -19 20 -32 15 -72 -1 -124 -47 -20 -19 -53 -41 -72 -50
-19 -9 -106 -88 -193 -175 -86 -87 -172 -166 -190 -175 -17 -9 -50 -29 -72
-44 -96 -66 -295 -75 -295 -14 0 14 14 20 85 29 73 10 137 47 184 106 22 28
41 57 41 64 0 8 6 26 14 42 46 90 62 165 57 263 -2 24 -19 -2 -40 -60 -51
-143 -62 -168 -93 -210 -18 -24 -58 -61 -88 -82 -51 -35 -59 -38 -115 -35 -82
5 -133 31 -172 91 -27 39 -33 58 -33 102 0 30 4 73 10 96 5 24 15 79 22 122
10 66 19 87 47 120 18 23 45 46 60 52 65 27 174 203 154 247 -10 21 -10 21
-26 -8 -21 -42 -146 -160 -188 -177 -18 -8 -40 -23 -48 -32 -13 -15 -15 -14
-27 21 -8 21 -14 53 -14 71 0 18 -6 45 -14 60 -7 15 -17 50 -20 77 -8 56 -20
83 -30 67 -3 -6 -17 -42 -30 -80 -20 -60 -22 -78 -14 -128 7 -44 6 -61 -4 -70
-13 -14 -58 -8 -58 6 0 5 -23 16 -52 26 -37 12 -65 31 -102 70 -54 58 -61 62
-70 39 -18 -47 79 -155 222 -244 28 -18 52 -39 52 -46 0 -7 12 -39 26 -71 19
-44 26 -75 26 -133 1 -80 -8 -105 -62 -180 -27 -35 -112 -83 -135 -75 -7 3
-27 -2 -44 -10 -34 -18 -56 -13 -110 28 -19 14 -40 26 -45 26 -14 0 -139 133
-153 162 -49 102 -73 156 -73 167 0 17 -32 71 -42 71 -14 0 13 -195 32 -231 6
-10 10 -30 10 -45 0 -32 57 -140 94 -177 61 -61 193 -134 245 -135 65 -1 53
-27 -18 -36 -27 -3 -53 -12 -59 -19 -19 -22 -91 -12 -121 17 -15 15 -51 36
-80 46 -40 16 -76 44 -160 128 -91 91 -112 117 -136 174 -21 51 -46 86 -104
146 -97 101 -158 152 -182 152 -11 0 -40 9 -64 20 -45 21 -59 20 -178 -9 -60
-14 -137 -105 -137 -160 0 -16 6 -18 45 -13 54 6 121 -17 155 -53 18 -19 25
-40 28 -84 4 -53 2 -61 -26 -92 -17 -20 -46 -44 -65 -54 -33 -17 -41 -18 -121
-5 -89 14 -95 17 -145 82 -22 29 -30 53 -35 100 -10 103 4 165 55 244 25 38
53 81 62 96 11 17 32 31 57 38 22 6 44 19 50 29 11 22 55 31 193 37 113 6 232
-15 275 -50 15 -11 36 -26 47 -32 11 -6 31 -31 45 -56 44 -79 80 -119 103
-116 32 4 33 43 3 98 -14 26 -26 61 -26 77 0 16 -5 56 -12 88 -11 56 -10 59
12 77 31 25 77 18 105 -16 11 -13 39 -33 63 -45 51 -26 119 -91 133 -129 6
-15 15 -65 20 -112 16 -138 57 -247 94 -249 6 -1 18 -14 28 -30 22 -38 84 -59
156 -51 72 8 106 45 116 126 8 60 -9 164 -26 164 -6 0 -29 20 -52 44 -23 24
-58 52 -77 62 -101 54 -171 160 -219 329 -39 138 -47 203 -25 212 21 8 101
-34 181 -94 43 -32 67 -43 93 -43 34 0 36 3 80 86 78 150 116 190 165 177 11
-3 27 -15 35 -26z m1960 -7 c5 -9 22 -11 54 -6 36 6 54 3 84 -13 20 -11 49
-22 64 -25 34 -8 119 -91 142 -141 13 -27 19 -64 20 -124 1 -82 -1 -90 -33
-142 -46 -77 -97 -109 -175 -109 -99 0 -156 59 -156 163 0 98 53 131 165 106
52 -11 59 -11 70 4 7 9 10 28 7 42 -7 37 -89 116 -131 127 -20 5 -51 13 -69
18 -18 4 -42 14 -54 22 -18 12 -27 12 -66 0 -41 -14 -45 -14 -54 2 -9 15 -12
16 -26 3 -36 -31 -134 -49 -147 -27 -10 16 -22 12 -28 -10 -6 -24 -27 -27 -27
-4 0 8 -5 12 -11 8 -6 -3 -9 -14 -6 -24 3 -13 -8 -23 -42 -40 -25 -12 -68 -36
-96 -54 -112 -72 -135 -86 -140 -86 -12 0 -121 -78 -157 -113 -20 -19 -59 -45
-85 -57 -26 -13 -58 -32 -70 -42 -28 -26 -55 -20 -72 16 -17 36 -10 50 50 93
82 60 136 104 166 133 35 34 192 130 214 130 8 0 36 13 61 29 25 16 75 39 112
51 36 13 66 28 66 34 0 7 32 17 78 25 42 7 86 16 97 21 30 13 186 5 195 -10z
m-5145 -37 c39 -21 97 -99 93 -126 -2 -12 -12 -26 -23 -32 -37 -18 -94 -81
-115 -126 -11 -24 -25 -51 -30 -59 -61 -102 -62 -210 -1 -362 31 -75 30 -108
-1 -108 -10 0 -31 -6 -46 -14 -15 -7 -51 -16 -79 -20 -51 -6 -53 -5 -70 26
-20 40 -31 96 -38 208 -7 98 -11 114 -26 104 -7 -4 -9 -21 -5 -48 4 -22 11
-90 17 -150 5 -60 14 -115 20 -122 15 -18 1 -54 -20 -54 -36 0 -71 136 -71
278 0 45 -4 82 -9 82 -19 0 -30 -61 -28 -167 1 -109 -5 -142 -22 -114 -11 16
-23 169 -16 182 4 5 1 25 -5 43 -9 27 -8 40 5 67 15 30 21 34 58 35 23 1 65 9
92 19 28 9 73 18 100 20 57 3 85 12 85 29 -1 22 -28 46 -52 46 -32 0 -89 19
-107 35 -11 11 -10 22 10 70 13 31 35 67 49 79 14 11 33 32 42 46 10 14 25 35
33 46 14 20 14 23 -1 38 -13 14 -14 19 -2 33 35 42 100 49 163 16z m7449 -57
c34 -31 53 -87 24 -70 -18 12 -66 6 -100 -12 -17 -9 -39 -14 -49 -11 -11 3
-29 -3 -41 -13 l-22 -18 29 -38 c16 -22 38 -46 49 -55 20 -16 15 -39 -8 -39
-7 0 -25 9 -39 20 -14 11 -32 20 -40 20 -40 0 -26 112 17 143 14 10 26 25 26
34 0 8 12 28 27 44 39 41 81 39 127 -5z m-1208 3 c60 -8 83 -8 101 2 20 11 30
11 56 0 18 -7 49 -17 69 -23 20 -6 45 -19 55 -30 17 -19 17 -20 -2 -34 -10 -8
-30 -14 -44 -14 -31 0 -79 -28 -133 -78 -54 -51 -66 -53 -134 -30 -74 25 -178
20 -221 -11 -15 -10 -47 -31 -70 -45 -52 -32 -56 -51 -10 -42 98 18 104 18
145 -3 49 -25 67 -51 75 -106 13 -85 -20 -147 -97 -187 -32 -16 -52 -19 -100
-15 -92 8 -163 33 -171 60 -4 12 -17 38 -30 57 -31 47 -40 149 -20 210 49 144
166 278 244 280 18 0 22 -4 16 -17 -34 -88 -29 -158 10 -158 14 0 21 10 27 40
12 53 54 112 97 135 43 23 40 23 137 9z m-7318 -31 c6 -18 13 -42 17 -53 3
-11 -3 -4 -14 15 -18 32 -27 70 -16 70 2 0 8 -15 13 -32z m882 13 c0 -11 -10
-28 -23 -38 -24 -19 -75 -99 -124 -193 -16 -30 -36 -56 -46 -58 -23 -5 -22 19
2 49 10 13 22 40 26 59 11 51 28 78 88 143 57 60 77 70 77 38z m1498 -33 c19
-19 14 -34 -15 -53 -24 -16 -26 -16 -20 0 5 12 1 18 -13 22 -20 5 -20 7 -4 24
20 22 35 24 52 7z m-1783 -70 c27 -12 33 -33 13 -41 -16 -5 -66 22 -72 40 -7
16 24 17 59 1z m2040 -12 c19 -28 10 -54 -22 -67 -38 -14 -43 -11 -43 29 0 61
36 82 65 38z m-2545 10 c0 -3 -4 -8 -10 -11 -5 -3 -10 -1 -10 4 0 6 5 11 10
11 6 0 10 -2 10 -4z m5913 -22 c10 -10 -12 -44 -28 -44 -18 0 -20 36 -2 43 18
8 23 8 30 1z m1686 -60 c58 -12 117 -122 75 -138 -14 -5 -15 -15 -9 -64 11
-82 6 -194 -9 -210 -11 -12 -19 -9 -44 16 -25 24 -42 31 -97 37 -64 6 -67 8
-81 41 -8 18 -14 43 -14 54 0 12 -16 55 -35 97 -19 42 -35 81 -35 88 0 22 39
47 87 57 26 6 64 14 83 18 19 4 38 8 41 9 4 0 21 -2 38 -5z m-5318 -44 c12 -7
19 -21 19 -40 0 -35 -6 -39 -47 -33 -31 5 -33 8 -33 44 0 33 3 39 21 39 11 0
29 -5 40 -10z m3409 0 c12 -7 12 -13 4 -27 -15 -24 -58 -24 -62 1 -6 30 28 45
58 26z m-2967 -28 c25 -22 22 -60 -7 -74 -31 -14 -53 -5 -68 27 -17 37 3 75
34 68 13 -3 31 -13 41 -21z m-1689 -8 c20 -8 21 -40 2 -47 -17 -7 -51 28 -41
42 7 12 17 14 39 5z m1472 -81 c-3 -7 -13 -13 -22 -13 -11 0 -14 5 -9 18 4 9
10 26 13 36 5 18 6 18 14 -4 5 -13 6 -30 4 -37z m3427 -2 c4 -4 1 -15 -7 -26
-18 -25 -46 -13 -46 20 0 23 3 25 23 20 12 -4 25 -10 30 -14z m-483 -21 c0
-23 -4 -30 -20 -30 -25 0 -36 25 -20 45 21 25 40 18 40 -15z m-3035 -30 c-6
-9 -9 -9 -16 1 -10 17 0 34 13 21 6 -6 7 -16 3 -22z m-1350 -14 c17 -9 35 -16
42 -16 7 0 17 -9 23 -19 5 -11 36 -35 67 -55 32 -19 71 -48 87 -65 17 -17 35
-31 40 -31 10 0 57 -39 202 -166 23 -19 57 -46 75 -59 19 -12 44 -37 57 -54
12 -17 28 -31 35 -31 7 0 38 -25 70 -55 60 -58 74 -98 42 -125 -22 -18 -45 -6
-113 60 -34 33 -66 60 -71 60 -5 0 -22 12 -38 28 -32 30 -129 115 -184 162
-38 31 -63 38 -74 20 -10 -17 -22 -3 -29 34 -5 24 -17 42 -39 57 -18 12 -48
37 -67 56 -69 66 -165 145 -190 156 -42 20 -51 38 -27 58 22 18 34 16 92 -15z
m565 4 c0 -5 -4 -10 -10 -10 -5 0 -10 5 -10 10 0 6 5 10 10 10 6 0 10 -4 10
-10z m760 -21 c0 -11 -13 -34 -30 -51 -36 -36 -38 -50 -5 -42 20 5 25 2 31
-22 10 -38 -15 -55 -62 -42 -25 6 -39 6 -49 -2 -17 -14 -60 -90 -71 -122 -4
-13 -15 -34 -25 -48 -12 -16 -22 -60 -29 -127 -16 -140 -3 -261 33 -314 10
-13 17 -34 17 -46 0 -29 52 -116 104 -175 22 -25 55 -64 71 -86 17 -22 39 -45
50 -51 11 -6 52 -29 90 -51 39 -21 96 -52 127 -68 31 -16 70 -39 86 -51 17
-11 34 -21 38 -21 4 0 26 -8 48 -19 23 -10 57 -24 76 -31 19 -7 69 -30 110
-50 41 -20 91 -42 111 -49 20 -6 59 -32 88 -56 29 -25 56 -45 59 -45 4 0 32
-23 61 -50 30 -28 57 -50 60 -50 4 0 23 -16 43 -35 42 -40 59 -106 38 -145
-17 -32 -46 -21 -143 53 -104 80 -144 103 -187 112 -19 4 -48 18 -65 30 -30
22 -134 52 -210 61 -22 3 -60 11 -85 19 -25 7 -119 19 -210 25 -190 13 -266
33 -333 87 -16 13 -39 26 -53 29 -13 3 -24 10 -24 14 0 7 -76 68 -199 159 -25
19 -48 37 -51 41 -3 4 -28 22 -57 39 -86 53 -103 105 -45 135 15 8 69 19 120
26 50 7 92 17 92 22 0 5 -9 21 -20 36 -14 19 -23 55 -30 117 -6 50 -13 97 -16
107 -6 19 29 227 47 278 7 19 18 44 25 55 7 11 19 43 27 70 17 60 80 169 107
188 11 8 35 36 52 62 38 57 109 105 155 105 27 0 33 -4 33 -21z m3308 -6 c4
-27 -19 -31 -42 -7 -20 20 -11 36 17 32 14 -2 23 -11 25 -25z m867 -23 c0 -46
-28 -53 -49 -12 -17 34 -5 55 29 50 16 -2 20 -11 20 -38z m-4428 4 c3 -8 -1
-22 -9 -30 -12 -12 -16 -12 -33 1 -20 15 -20 15 -1 30 25 19 35 19 43 -1z
m3983 -39 c0 -33 -28 -45 -46 -20 -16 22 -2 45 27 45 14 0 19 -7 19 -25z
m-154 -52 c66 -36 114 -73 114 -87 0 -6 11 -32 25 -58 13 -25 49 -103 80 -173
l55 -127 -5 -86 c-7 -114 -39 -244 -75 -307 -16 -27 -41 -72 -55 -100 -15 -27
-34 -58 -43 -67 -13 -16 -13 -18 4 -24 11 -3 28 -10 39 -14 11 -5 32 -9 47 -8
15 0 62 -16 104 -37 77 -38 101 -67 89 -106 -6 -19 -108 -75 -200 -110 -60
-23 -74 -29 -145 -62 -65 -31 -119 -49 -231 -77 -46 -12 -92 -26 -104 -32 -11
-7 -38 -13 -60 -14 -108 -8 -245 -33 -297 -53 -13 -5 -50 -14 -83 -21 -33 -6
-78 -16 -99 -22 -46 -11 -189 -91 -227 -125 -14 -13 -29 -23 -35 -23 -18 0 -9
144 12 178 10 18 21 32 25 32 3 0 35 23 69 50 59 47 172 107 300 161 30 12 62
28 70 35 18 14 142 80 294 155 95 47 185 129 248 224 28 44 58 84 65 88 7 4
13 14 13 21 0 6 11 28 25 46 26 35 59 129 75 209 17 89 -23 312 -65 361 -7 8
-16 25 -20 38 -4 13 -22 50 -41 83 -50 90 -47 96 32 52z m1274 7 c6 -12 8 -28
5 -38 -6 -17 -97 -97 -185 -164 -25 -19 -57 -45 -71 -59 -60 -56 -99 -88 -117
-93 -10 -4 -28 -20 -41 -36 -12 -17 -41 -45 -65 -63 -119 -89 -242 -195 -341
-295 -60 -62 -118 -112 -127 -112 -10 0 -22 9 -28 20 -8 16 -5 28 14 59 14 22
34 45 44 53 11 7 22 23 26 35 4 12 15 25 26 28 10 3 53 40 97 81 43 41 109
101 148 132 38 31 95 81 126 110 32 30 81 71 110 93 29 22 56 44 59 49 6 10
77 62 180 134 36 24 74 54 84 65 24 26 42 27 56 1z m-5450 -29 c0 -15 -6 -35
-12 -44 -11 -14 -17 -15 -38 -4 -51 25 -30 90 25 79 19 -3 25 -10 25 -31z
m-273 -6 c2 -11 -4 -29 -12 -39 -14 -19 -15 -19 -35 -1 -22 20 -26 51 -7 59
25 10 52 1 54 -19z m4863 -24 c0 -5 -8 -19 -18 -31 -22 -27 -52 -18 -52 16 0
21 5 24 35 24 19 0 35 -4 35 -9z m-5287 -22 c13 -20 1 -68 -19 -76 -17 -6 -64
33 -64 53 0 17 41 45 59 42 8 -2 18 -10 24 -19z m1751 2 c10 -11 16 -28 14
-38 -5 -26 -50 -29 -72 -4 -17 18 -16 20 5 40 28 26 31 26 53 2z m-841 -11
c22 -18 25 -24 16 -43 -6 -12 -24 -32 -39 -45 l-29 -22 -7 56 c-5 43 -3 58 7
65 20 12 23 12 52 -11z m5530 4 c18 -9 41 -24 52 -34 11 -10 31 -20 45 -22 23
-3 25 -7 25 -58 -1 -94 -34 -217 -72 -269 -2 -3 -16 5 -31 16 -49 36 -115 66
-182 83 -73 18 -86 37 -51 74 24 25 49 92 56 148 8 67 19 78 76 78 27 0 64 -7
82 -16z m-738 -44 c8 -36 0 -50 -26 -50 -27 0 -34 25 -15 55 22 33 33 32 41
-5z m-205 -13 c0 -13 -10 -33 -23 -45 -23 -22 -24 -22 -42 -3 -21 24 -14 48
17 61 37 14 48 11 48 -13z m-3516 -69 c9 -12 16 -28 16 -34 0 -18 -58 -28 -75
-14 -15 13 -20 51 -8 63 14 15 53 6 67 -15z m2267 -5 c7 -20 6 -30 -4 -40 -20
-20 -47 -5 -47 26 0 49 34 58 51 14z m-3690 7 c24 -13 27 -55 3 -46 -9 3 -19
6 -24 6 -11 0 -21 30 -14 41 7 11 11 11 35 -1z m-1063 -67 c11 -50 9 -63 -12
-63 -15 0 -29 69 -20 94 11 28 22 17 32 -31z m1719 21 c15 -24 15 -29 2 -53
-21 -37 -50 -38 -72 -2 -20 34 -21 53 -5 69 21 21 56 14 75 -14z m4886 -5
c-17 -17 -37 -1 -22 17 8 10 15 12 23 4 7 -7 7 -13 -1 -21z m-6177 -13 c16
-19 40 -51 54 -71 29 -43 48 -63 84 -88 45 -31 34 -55 -41 -88 -103 -46 -112
-50 -146 -86 -18 -18 -36 -33 -41 -33 -10 0 -122 115 -143 147 -25 38 -34 15
-10 -25 12 -20 25 -41 30 -47 4 -5 17 -25 28 -43 12 -20 26 -32 37 -30 24 4
29 -42 6 -59 -14 -10 -22 -8 -54 17 -21 17 -41 30 -44 30 -3 0 -6 -14 -6 -31
0 -21 8 -37 25 -51 28 -22 33 -56 10 -65 -16 -6 -55 22 -55 40 0 6 -6 18 -14
26 -15 17 -64 131 -73 169 -4 16 -1 22 11 22 9 0 19 -7 22 -15 4 -8 11 -15 16
-15 17 0 -1 82 -20 96 -16 12 -16 13 1 19 9 4 28 4 41 1 24 -6 24 -5 13 30
-11 35 -10 38 24 68 56 49 165 111 205 115 7 0 25 -14 40 -33z m5328 18 c18
-48 -9 -99 -39 -74 -19 16 -19 40 1 68 18 26 30 28 38 6z m-404 -33 c17 -32
12 -57 -15 -71 -20 -11 -28 -10 -50 4 -31 21 -31 31 0 61 29 30 51 32 65 6z
m-4068 -2 c15 -8 18 -17 13 -37 -9 -37 -24 -52 -51 -52 -18 0 -25 8 -33 37
-16 56 17 81 71 52z m-662 -34 c0 -16 -27 -32 -37 -22 -3 4 -3 13 0 22 8 20
37 20 37 0z m5280 -5 c0 -5 9 -10 20 -10 24 0 27 -32 5 -50 -13 -10 -19 -10
-35 5 -24 21 -27 65 -5 65 8 0 15 -4 15 -10z m-5069 -16 c9 -11 10 -20 3 -32
-20 -31 -40 -37 -68 -19 -23 15 -24 20 -14 42 13 29 58 34 79 9z m6275 -61
c-4 -21 -9 -57 -12 -80 -5 -37 -9 -43 -30 -43 -25 0 -31 17 -15 48 14 28 29
65 36 90 11 38 28 26 21 -15z m-2502 7 c38 -14 29 -70 -11 -70 -17 0 -37 44
-30 64 7 19 8 19 41 6z m2176 -36 c37 -22 67 -49 77 -68 9 -17 29 -49 44 -71
34 -47 31 -73 -12 -104 -24 -18 -33 -20 -45 -11 -11 10 -25 4 -69 -29 -57 -43
-78 -69 -90 -110 -8 -25 -1 -26 48 -6 12 5 17 2 17 -12 0 -11 -17 -29 -44 -45
l-43 -26 -39 52 c-39 52 -111 121 -148 143 -12 7 -31 18 -43 24 -32 17 -29 33
15 68 57 46 159 151 193 199 36 52 45 51 139 -4z m-4403 14 c25 -23 30 -67 11
-86 -16 -16 -53 -15 -66 1 -14 16 -26 83 -17 96 11 18 47 12 72 -11z m233 -12
c0 -21 -27 -38 -50 -31 -24 8 -26 22 -4 46 13 14 21 16 35 8 11 -5 19 -16 19
-23z m3840 9 c0 -19 -13 -25 -38 -18 -28 7 -28 21 1 32 25 10 37 6 37 -14z
m-4601 -54 c22 -17 23 -20 10 -47 -10 -19 -24 -30 -46 -35 -35 -7 -46 1 -57
38 -17 55 42 83 93 44z m-911 -54 c4 -36 -15 -59 -46 -55 -35 4 -49 30 -34 63
10 22 18 26 45 23 27 -2 33 -8 35 -31z m3452 20 c0 -19 -10 -27 -26 -20 -21 8
-17 33 6 33 11 0 20 -6 20 -13z m1395 -17 c0 -38 -39 -35 -43 3 -3 25 0 28 20
25 17 -2 23 -9 23 -28z m-5098 -25 c21 -20 49 -38 63 -42 14 -3 46 -26 73 -50
26 -24 63 -51 82 -59 19 -8 35 -21 35 -28 0 -8 -23 -32 -51 -53 -97 -73 -129
-105 -129 -128 0 -27 -36 -75 -56 -75 -8 0 -24 5 -37 12 -66 34 -67 33 -42
-26 33 -77 -21 -72 -107 12 -32 31 -58 64 -58 73 0 24 -19 34 -26 15 -7 -19
-34 -21 -34 -3 0 7 6 22 14 32 12 16 16 17 30 6 13 -11 17 -11 22 4 4 11 -4
28 -26 50 -52 54 -42 72 145 240 33 30 61 55 62 55 1 0 19 -16 40 -35z m4633
0 c0 -32 -23 -49 -49 -35 -28 14 -27 44 2 57 30 14 47 6 47 -22z m923 11 c6
-16 -11 -36 -30 -36 -14 0 -16 10 -7 34 8 20 30 21 37 2z m-1443 -15 c0 -3 -9
-17 -19 -30 -16 -21 -20 -22 -39 -10 -29 18 -28 25 6 42 26 13 52 12 52 -2z
m-460 -1 c0 -5 -2 -10 -4 -10 -3 0 -8 5 -11 10 -3 6 -1 10 4 10 6 0 11 -4 11
-10z m-2208 -35 c14 -31 12 -33 -37 -37 -31 -2 -40 1 -43 15 -10 47 60 66 80
22z m1472 -14 c46 -47 76 -125 76 -195 0 -32 6 -56 17 -68 15 -17 15 -20 -4
-38 -22 -20 -43 -96 -43 -153 0 -18 -5 -48 -10 -67 -6 -19 -13 -80 -16 -135
-3 -55 -9 -136 -15 -180 -11 -91 -39 -1015 -31 -1029 3 -5 6 -88 7 -185 1 -97
6 -201 9 -231 4 -30 11 -122 16 -205 5 -82 16 -197 25 -255 16 -101 19 -108
73 -185 50 -71 65 -84 126 -115 65 -32 75 -34 178 -36 60 -1 114 -6 120 -12
21 -21 -64 -192 -97 -192 -7 0 -20 -6 -27 -13 -30 -30 -77 -40 -121 -27 -51
14 -48 13 -128 73 -37 28 -72 47 -84 45 -29 -4 -33 -56 -13 -160 34 -171 18
-301 -44 -373 -12 -14 -31 -42 -42 -62 -12 -20 -36 -46 -55 -57 l-33 -19 -53
58 c-74 80 -110 175 -120 312 -6 96 -5 107 20 168 31 79 30 119 -3 123 -15 2
-35 -8 -60 -32 -20 -19 -59 -51 -87 -71 -49 -35 -51 -36 -120 -29 -68 6 -180
49 -204 77 -17 22 -51 121 -51 152 0 17 7 41 16 54 14 20 22 22 56 17 22 -4
53 -13 69 -21 33 -18 147 -20 198 -4 68 21 123 53 152 88 126 156 120 145 140
254 11 56 24 120 30 142 10 42 32 482 24 496 -3 4 -7 108 -10 231 -3 123 -8
246 -11 273 -4 28 -6 147 -5 265 1 220 -13 511 -29 610 -15 85 -29 268 -36
456 -6 188 -4 200 54 262 24 25 38 32 69 32 32 0 46 -7 77 -39z m-2459 -11 c3
-5 1 -20 -5 -34 -11 -29 -40 -35 -60 -11 -9 11 -8 19 6 38 18 23 47 26 59 7z
m3890 -10 c0 -33 -39 -40 -55 -10 -15 27 -4 42 28 38 21 -2 27 -8 27 -28z
m-2433 -14 c13 -20 9 -34 -18 -55 -35 -27 -48 -26 -64 4 -10 20 -11 30 -2 51
11 22 16 25 45 19 17 -4 35 -13 39 -19z m190 -3 c24 -22 23 -49 -4 -67 -31
-22 -35 -20 -53 15 -15 29 -15 32 1 50 21 23 32 24 56 2z m-1058 -9 c7 -19 -1
-34 -19 -34 -21 0 -28 19 -15 35 16 19 26 19 34 -1z m2924 -10 c2 -11 -7 -29
-18 -39 -20 -18 -24 -18 -48 -4 -34 19 -34 40 -2 56 34 18 64 12 68 -13z
m-2715 -42 c12 -10 13 -19 6 -42 -6 -16 -17 -31 -24 -34 -19 -7 -53 24 -60 55
-5 21 -1 31 21 48 27 21 28 21 35 4 4 -10 14 -24 22 -31z m407 23 c17 -21 5
-45 -23 -45 -27 0 -62 33 -52 49 9 16 61 13 75 -4z m3704 -8 c10 -7 16 -22 14
-33 -5 -26 -61 -27 -66 -1 -8 43 17 59 52 34z m313 -37 c7 -11 27 -27 45 -36
54 -28 110 -101 123 -161 5 -27 1 -37 -30 -72 -20 -22 -46 -43 -58 -47 -12 -4
-51 -25 -87 -48 -105 -68 -186 -108 -211 -104 -13 2 -29 14 -36 28 -16 32
-133 171 -153 181 -8 4 -34 15 -57 25 -48 19 -55 42 -23 74 16 16 33 20 90 20
64 0 79 4 158 44 48 25 112 61 142 80 64 40 81 43 97 16z m-3906 -46 c6 -7 2
-28 -12 -59 -15 -34 -19 -60 -16 -93 9 -81 26 -142 56 -200 44 -83 55 -141 31
-166 -10 -10 -118 16 -186 46 -41 18 -54 30 -67 63 -9 22 -17 54 -17 70 0 55
29 167 59 229 16 33 32 72 36 86 4 14 16 35 28 47 19 22 21 22 49 5 16 -9 34
-22 39 -28z m776 24 c6 -7 13 -28 17 -47 5 -27 3 -32 -10 -27 -9 3 -26 6 -39
6 -14 0 -29 8 -34 18 -20 38 40 83 66 50z m1982 -2 c18 -21 -6 -66 -35 -66
-21 0 -54 23 -54 37 0 4 7 15 17 25 19 21 56 24 72 4z m-4114 -30 c71 -37 95
-54 95 -67 0 -4 -20 -22 -44 -39 -46 -33 -61 -57 -71 -113 -6 -33 -5 -36 59
-81 36 -26 66 -53 66 -60 0 -14 -54 -99 -74 -115 -10 -9 -36 -1 -111 34 -54
25 -102 45 -108 45 -5 0 -32 17 -58 37 -56 42 -59 57 -29 135 11 29 20 59 20
66 0 13 171 192 183 192 4 0 36 -15 72 -34z m3335 19 c0 -15 -38 -40 -47 -31
-7 7 26 46 39 46 4 0 8 -7 8 -15z m-610 -20 c34 -18 36 -22 14 -53 -19 -27
-36 -28 -59 -2 -15 17 -16 24 -7 45 14 29 14 30 52 10z m-1614 -61 c15 -60
-18 -94 -57 -58 -14 12 -19 30 -19 64 0 26 3 49 6 53 10 10 64 -36 70 -59z
m1789 47 c3 -5 1 -13 -5 -16 -15 -9 -43 3 -35 15 8 13 32 13 40 1z m913 -3
c16 -16 15 -40 -1 -62 -18 -25 -55 -13 -63 20 -11 42 34 72 64 42z m-1907 -25
c9 -24 7 -30 -11 -45 -12 -10 -33 -18 -46 -18 -14 0 -24 -6 -24 -14 0 -8 -5
-18 -11 -22 -18 -11 -1 87 18 109 25 27 62 22 74 -10z m1227 -67 c5 -37 -42
-80 -70 -65 -27 14 -22 54 9 79 35 27 57 22 61 -14z m-1660 -27 c4 -33 -38
-60 -63 -39 -32 27 -9 73 35 68 18 -2 26 -10 28 -29z m1870 14 c40 -26 100
-92 129 -143 15 -25 32 -52 39 -60 7 -8 20 -41 29 -73 l17 -59 -29 -30 c-15
-16 -50 -41 -78 -54 -27 -13 -63 -33 -80 -43 -48 -30 -73 -35 -77 -14 -3 10
-1 28 4 41 4 13 8 78 9 145 0 125 -14 203 -48 256 -14 22 -14 25 3 38 24 18
49 16 82 -4z m196 11 c21 -8 20 -24 -1 -40 -21 -16 -49 -18 -57 -5 -9 14 4 39
22 44 10 3 18 5 19 6 1 0 8 -2 17 -5z m-2666 -46 c3 -25 0 -28 -28 -28 -32 0
-47 18 -36 46 4 10 15 14 33 12 22 -2 29 -9 31 -30z m818 -2 c10 -8 16 -18 12
-22 -4 -4 -14 -1 -23 6 -8 7 -15 9 -15 6 0 -4 -5 -4 -10 -1 -11 7 -4 25 9 25
4 0 16 -6 27 -14z m2244 -21 c0 -16 -6 -25 -15 -25 -15 0 -21 31 -8 43 13 14
23 6 23 -18z m-1086 -1 c33 -32 13 -67 -32 -58 -27 5 -32 11 -32 34 0 14 3 30
7 33 11 12 41 7 57 -9z m-664 -13 c24 -19 24 -20 6 -40 -27 -30 -72 -28 -80 3
-14 54 25 74 74 37z m2557 -17 c55 -41 153 -142 153 -156 0 -6 9 -21 20 -35
24 -30 26 -66 5 -83 -23 -19 -18 -33 10 -26 22 6 25 3 25 -19 0 -41 -16 -61
-62 -79 -23 -10 -53 -25 -67 -35 -14 -10 -43 -24 -64 -32 -21 -7 -43 -19 -49
-26 -18 -22 17 -16 72 12 27 14 63 25 80 25 17 0 39 5 49 12 10 6 27 8 37 4
16 -6 16 -9 4 -16 -8 -6 -23 -10 -33 -10 -9 0 -40 -15 -67 -34 -27 -19 -73
-42 -102 -51 -29 -10 -57 -21 -62 -26 -16 -15 -56 -10 -63 6 -3 9 2 24 11 34
17 18 16 20 -18 31 -38 12 -39 14 -26 45 5 13 3 25 -5 35 -8 8 -16 27 -20 41
-6 23 -3 27 21 33 60 15 115 47 124 72 13 33 13 90 0 134 -9 32 -101 130 -122
130 -20 0 -5 21 25 34 50 22 73 19 124 -20z m893 16 c0 -11 -7 -20 -15 -20
-15 0 -21 21 -8 33 12 13 23 7 23 -13z m-4061 -16 c9 -8 -13 -24 -34 -24 -26
0 -40 14 -30 30 5 8 52 4 64 -6z m-2259 -4 c0 -5 8 -10 19 -10 19 0 50 -28 89
-79 19 -25 20 -31 8 -31 -9 0 -16 5 -16 10 0 6 -6 10 -13 10 -7 0 -27 16 -45
35 -18 19 -38 34 -45 32 -6 -1 -13 8 -15 21 -2 12 1 22 7 22 6 0 11 -4 11 -10z
m2665 -40 c-4 -11 1 -34 9 -52 9 -17 16 -38 16 -47 0 -9 9 -25 21 -34 24 -21
23 -72 -1 -72 -8 0 -15 7 -15 15 1 8 -9 29 -20 45 -12 17 -24 38 -28 47 -3 10
-17 20 -31 24 -46 11 -45 65 2 83 43 15 54 13 47 -9z m3469 -15 c-3 -8 -40
-39 -83 -68 -42 -30 -82 -61 -90 -70 -7 -10 -21 -17 -31 -17 -9 0 -29 -9 -43
-20 -14 -11 -29 -20 -34 -20 -4 0 -19 -9 -33 -20 -44 -35 -78 -22 -66 25 5 18
17 27 49 36 23 6 68 29 101 50 32 22 70 42 85 46 14 3 43 21 64 39 38 35 92
47 81 19z m-4376 -19 c2 -10 -2 -22 -9 -27 -19 -11 -49 8 -49 32 0 16 5 20 27
17 18 -2 29 -10 31 -22z m2641 0 c16 -20 -3 -56 -29 -56 -25 0 -32 13 -24 45
7 28 34 34 53 11z m-1032 -22 c10 -26 -10 -69 -33 -72 -30 -4 -47 21 -39 58 6
25 11 30 36 30 18 0 32 -6 36 -16z m80 -6 c-3 -8 -6 -5 -6 6 -1 11 2 17 5 13
3 -3 4 -12 1 -19z m438 -29 c7 -20 -9 -49 -26 -49 -17 0 -30 50 -18 71 8 16
13 18 24 9 8 -7 17 -21 20 -31z m-3691 -15 c4 -11 1 -14 -11 -12 -9 2 -18 9
-21 16 -6 18 25 15 32 -4z m232 -19 c18 -14 37 -25 43 -25 6 0 18 -11 27 -25
11 -17 25 -25 46 -25 33 0 91 -24 108 -45 14 -17 2 -45 -21 -45 -10 0 -40 13
-66 29 -27 16 -64 32 -83 35 -19 4 -55 24 -79 45 -38 34 -42 41 -32 60 15 27
17 26 57 -4z m1813 1 c16 -19 0 -51 -28 -59 -20 -5 -51 19 -51 39 0 32 58 46
79 20z m211 -11 c39 -20 38 -46 -1 -79 -24 -21 -34 -24 -50 -16 -24 13 -26 66
-2 92 19 22 17 22 53 3z m1243 0 c3 -7 -2 -23 -11 -35 -14 -16 -24 -19 -49
-14 -35 7 -44 29 -21 52 17 17 75 15 81 -3z m-815 -37 c7 -7 12 -22 12 -35 0
-31 -44 -32 -60 -2 -19 35 20 65 48 37z m-1963 -6 c6 -4 22 -23 35 -42 28 -41
80 -88 123 -110 17 -8 40 -27 51 -43 19 -26 19 -29 4 -55 -10 -16 -27 -28 -42
-30 -21 -3 -26 -9 -26 -33 0 -39 -27 -39 -82 1 -22 17 -49 30 -58 30 -10 0
-23 7 -30 15 -7 8 -18 15 -25 15 -20 0 -95 59 -95 74 0 19 39 31 53 17 6 -6
17 -11 24 -11 7 0 43 -20 80 -45 69 -47 108 -60 82 -29 -18 22 -77 59 -109 69
-35 11 -100 64 -100 81 0 8 6 17 14 20 8 3 26 23 40 45 26 38 41 46 61 31z
m5130 -2 c3 -5 1 -10 -4 -10 -6 0 -11 5 -11 10 0 6 2 10 4 10 3 0 8 -4 11 -10z
m-3367 -12 c-6 -18 -28 -21 -28 -4 0 9 7 16 16 16 9 0 14 -5 12 -12z m782 -22
c0 -16 -14 -36 -26 -36 -14 0 -19 22 -7 33 7 8 33 10 33 3z m-2971 -57 c24
-22 49 -39 56 -39 7 0 19 -10 27 -22 15 -23 15 -23 -36 -19 -51 3 -63 10 -148
83 -26 22 -34 35 -25 40 24 15 82 -5 126 -43z m2171 1 c0 -49 -9 -54 -45 -26
-32 26 -29 51 7 65 32 12 38 6 38 -39z m3300 35 c-3 -21 -105 -95 -132 -95
-61 0 -33 37 61 82 57 27 74 30 71 13z m-3617 -87 c34 -20 36 -29 15 -53 -17
-20 -24 -22 -49 -13 -34 12 -40 50 -11 67 22 13 18 13 45 -1z m1414 -20 c48
-46 42 -88 -13 -88 -27 0 -55 38 -48 68 14 64 15 64 61 20z m-320 9 c9 -14
102 -72 131 -81 24 -8 80 -75 109 -131 39 -73 57 -244 38 -353 -4 -18 -21 -50
-39 -70 -38 -43 -53 -104 -30 -123 18 -15 49 10 59 49 6 25 17 51 80 182 12
26 43 62 73 87 48 39 58 43 108 43 56 0 160 -24 179 -41 5 -5 17 -9 27 -9 29
0 33 -28 8 -56 -13 -13 -29 -24 -37 -24 -19 0 -89 -66 -125 -119 -17 -25 -39
-70 -49 -100 -11 -30 -25 -62 -33 -70 -7 -9 -23 -46 -35 -82 -18 -56 -31 -75
-82 -122 -56 -53 -104 -77 -154 -77 -11 0 -37 -9 -58 -20 -20 -11 -43 -20 -50
-20 -37 0 -167 -108 -167 -139 0 -6 -4 -19 -9 -29 -47 -93 -49 -118 -21 -216
21 -76 44 -116 64 -116 7 0 20 -8 30 -19 9 -10 34 -26 56 -36 69 -31 39 -47
-43 -24 -22 6 -41 8 -45 5 -10 -11 31 -46 54 -46 13 0 26 -5 30 -11 4 -7 37
-9 100 -6 76 4 100 10 136 31 48 29 148 119 148 133 0 5 11 20 25 33 14 13 25
35 25 49 0 15 4 42 10 61 14 48 -5 61 -20 14 -14 -42 -98 -165 -118 -172 -24
-8 -8 60 28 118 20 33 49 180 49 254 1 53 6 87 16 102 8 13 15 35 15 49 0 33
66 103 101 107 22 2 34 -7 67 -49 44 -56 69 -128 71 -208 3 -96 19 -107 59
-39 17 29 22 49 18 79 -3 22 0 58 5 80 34 130 88 305 100 320 4 6 19 41 34 80
34 93 68 148 99 164 14 8 67 63 118 122 51 60 98 109 104 109 26 0 45 -51 43
-113 -3 -57 -1 -62 19 -65 12 -2 34 5 49 15 63 42 246 88 418 103 83 8 94 6
147 -16 32 -13 83 -31 113 -39 91 -23 187 -88 108 -72 -129 27 -179 32 -254
30 -48 -2 -105 -10 -129 -18 -23 -8 -51 -15 -61 -15 -28 0 -185 -67 -250 -106
-31 -19 -75 -54 -97 -78 -23 -25 -66 -63 -95 -85 -30 -21 -77 -68 -105 -103
-28 -34 -61 -74 -72 -88 -12 -14 -44 -60 -71 -104 -28 -43 -52 -76 -55 -73
-10 10 37 131 61 157 26 29 55 86 55 109 0 10 -14 1 -40 -24 -22 -21 -40 -45
-40 -51 0 -7 -13 -25 -29 -41 -38 -38 -56 -76 -70 -145 -13 -60 -31 -88 -97
-153 -80 -77 -153 -191 -189 -293 -17 -50 -44 -91 -100 -149 -22 -23 -62 -67
-90 -97 -30 -34 -58 -56 -70 -56 -12 0 -26 -5 -32 -11 -11 -11 -238 -30 -261
-22 -8 3 -15 -3 -19 -16 -3 -11 -6 -21 -7 -21 -11 0 -89 44 -118 67 -21 15
-49 36 -63 46 -17 12 -25 27 -25 46 0 16 -7 31 -15 35 -11 4 -15 20 -15 56 0
28 -5 60 -10 70 -6 10 -13 81 -16 156 -5 108 -3 153 10 211 9 40 24 108 33
150 10 45 27 88 40 104 13 15 23 30 23 34 0 5 15 40 34 79 19 39 37 87 41 106
4 19 15 51 25 70 19 39 62 161 80 229 19 74 14 198 -11 266 -12 33 -29 69 -39
80 -10 11 -27 38 -38 60 -11 22 -37 53 -56 68 -53 41 -48 57 19 57 32 0 57 -5
62 -13z m-494 -11 c9 -7 17 -18 17 -23 0 -10 -62 -68 -135 -127 -37 -30 -75
-92 -75 -123 0 -10 -7 -36 -15 -58 -15 -43 -20 -131 -7 -138 17 -12 64 7 72
28 5 13 14 26 19 30 6 3 11 14 11 24 0 10 6 24 14 30 21 17 42 -13 29 -42 -6
-12 -7 -31 -2 -42 22 -58 -5 -123 -58 -140 -20 -5 -23 -3 -23 19 0 24 -34 55
-47 42 -14 -14 82 -322 112 -356 24 -28 55 -109 55 -143 0 -19 17 -79 39 -133
39 -99 39 -99 45 -280 6 -174 3 -196 -26 -274 -34 -89 -155 -230 -198 -230 -6
0 -21 -5 -33 -12 -29 -16 -90 -38 -95 -34 -2 2 19 17 47 32 45 27 111 95 111
116 0 10 -76 -27 -85 -41 -3 -5 -29 -21 -58 -34 -43 -21 -71 -26 -158 -28 -77
-3 -111 0 -122 9 -9 8 -25 11 -35 8 -13 -4 -22 -1 -26 9 -3 8 -15 15 -26 15
-12 0 -28 6 -36 13 -39 31 -64 61 -64 78 0 23 13 24 30 4 6 -8 22 -17 33 -21
12 -3 42 -21 67 -39 49 -34 132 -51 173 -36 12 5 42 14 67 21 66 18 102 34
138 65 44 37 44 62 0 39 -18 -9 -43 -25 -55 -34 -33 -26 -133 -43 -215 -38
-96 6 -175 44 -249 118 -63 64 -129 188 -134 255 -4 59 -30 185 -37 185 -4 0
-10 -11 -14 -25 -7 -29 -12 -30 -43 -9 -23 16 -23 20 -17 100 8 92 -2 112 -35
69 -29 -35 -45 -19 -51 49 -3 32 -13 65 -26 83 -12 17 -22 45 -22 63 0 22 -12
46 -42 81 -47 56 -63 62 -54 19 3 -16 2 -30 -2 -30 -6 0 -59 50 -203 193 -52
51 -107 87 -134 87 -12 0 -34 9 -48 20 -38 30 -98 49 -227 70 -139 24 -257 26
-307 5 -19 -8 -47 -15 -62 -14 -14 1 -46 -2 -70 -6 -42 -8 -43 -7 -32 14 16
28 41 44 147 89 53 24 107 40 134 41 25 0 68 5 97 10 36 5 72 4 115 -6 35 -7
78 -16 95 -20 35 -6 92 12 94 31 1 6 2 31 3 56 l1 45 42 3 c75 5 204 -90 371
-275 57 -63 91 -139 92 -205 0 -20 5 -40 10 -43 6 -3 10 -17 10 -30 0 -13 5
-47 11 -75 14 -65 37 -67 75 -5 23 35 38 47 76 60 63 20 79 10 122 -81 28 -59
36 -91 45 -183 7 -62 9 -116 6 -121 -3 -5 -3 -62 1 -126 7 -110 9 -118 36
-148 16 -17 43 -51 61 -75 18 -25 57 -59 87 -77 51 -30 57 -32 78 -17 19 12
29 12 51 3 22 -9 36 -7 81 14 68 30 150 104 150 135 0 12 5 31 11 42 16 31 12
142 -8 200 -14 41 -30 61 -73 96 -71 57 -110 77 -194 97 -85 22 -112 33 -153
66 -17 14 -43 33 -57 43 -14 10 -26 27 -26 39 0 11 -9 35 -20 53 -18 29 -20
47 -18 156 3 151 -11 197 -85 282 -57 66 -55 76 17 84 106 12 147 -6 280 -127
60 -55 72 -71 78 -107 18 -118 57 -193 93 -180 19 8 19 31 0 88 -8 24 -21 90
-29 146 -14 96 -14 104 5 165 20 61 27 77 62 143 9 17 24 47 33 67 29 68 74
108 159 143 87 36 131 42 158 21z m-399 -64 c13 -15 14 -24 5 -50 -6 -17 -17
-33 -25 -36 -8 -3 -14 -12 -14 -21 0 -8 -4 -15 -9 -15 -16 0 -30 26 -37 67 -5
35 -3 43 17 57 30 21 42 20 63 -2z m2566 -16 c0 -7 -20 -21 -44 -30 -55 -21
-80 -46 -46 -46 29 0 101 21 119 34 10 7 17 5 27 -9 8 -10 14 -25 14 -31 0
-12 -57 -34 -87 -34 -6 0 -34 -11 -61 -25 -28 -14 -55 -25 -61 -25 -7 0 -34
-11 -61 -25 -42 -21 -53 -23 -75 -13 -29 13 -32 35 -7 54 15 12 9 13 -45 14
-54 0 -76 -6 -154 -44 -94 -45 -119 -48 -119 -15 0 22 62 55 165 89 39 12 90
29 115 37 25 8 65 19 89 24 24 5 49 13 55 18 6 5 26 12 43 16 18 3 35 11 38
16 10 15 95 11 95 -5z m-4309 -39 c-1 -12 -15 -9 -19 4 -3 6 1 10 8 8 6 -3 11
-8 11 -12z m2526 -9 c29 -27 29 -36 0 -70 -18 -21 -26 -25 -44 -18 -28 11 -32
64 -6 92 20 23 22 23 50 -4z m-1900 -31 c15 -8 44 -22 63 -31 81 -39 167 -89
189 -111 21 -20 22 -26 11 -39 -20 -25 -41 -19 -135 40 -130 83 -186 106 -252
102 -60 -3 -83 12 -69 47 6 16 16 17 86 12 43 -3 91 -12 107 -20z m289 -28
c49 -23 63 -24 79 -3 10 14 17 15 48 5 21 -7 37 -19 37 -26 0 -19 -83 -85
-107 -85 -23 0 -133 59 -178 96 -23 19 -27 26 -16 33 19 12 89 2 137 -20z
m-708 -9 c35 -21 52 -37 52 -50 0 -24 -4 -24 -33 -6 -12 8 -39 17 -59 20 -21
4 -38 10 -38 14 0 4 -3 17 -6 30 -9 31 19 29 84 -8z m1928 -10 c15 -15 2 -81
-18 -94 -13 -8 -23 -6 -45 10 -36 27 -38 36 -9 67 26 28 55 34 72 17z m1574 1
c0 -5 -9 -11 -20 -14 -20 -5 -26 3 -13 16 9 10 33 8 33 -2z m-3302 -13 c17
-17 15 -45 -4 -52 -22 -8 -34 1 -34 28 0 35 16 46 38 24z m3922 -23 c-6 -8
-22 -17 -33 -21 -12 -3 -28 -11 -35 -17 -13 -11 -94 -46 -164 -72 -37 -14 -53
-9 -40 12 10 15 135 73 159 73 11 0 23 3 27 8 9 9 66 30 85 31 11 1 11 -2 1
-14z m-3080 -19 c0 -33 -11 -38 -39 -17 -28 21 -21 41 15 41 19 0 24 -5 24
-24z m2306 13 c11 -19 -18 -58 -63 -84 -24 -14 -43 -30 -43 -35 0 -16 -40 -11
-46 5 -7 17 28 54 91 97 45 31 51 33 61 17z m94 -71 c0 -10 -17 -29 -39 -42
-21 -14 -62 -48 -89 -76 -28 -29 -56 -49 -62 -45 -19 12 -10 45 15 57 13 6 36
28 51 49 14 21 34 41 43 44 9 3 24 20 34 37 18 31 19 32 33 13 8 -10 14 -27
14 -37z m-2529 32 c21 -12 26 -40 6 -40 -7 0 -18 5 -25 12 -12 12 -17 38 -6
38 3 0 14 -5 25 -10z m-1 -142 c30 -34 61 -74 70 -89 8 -15 28 -46 43 -69 24
-36 27 -47 18 -66 -6 -13 -14 -24 -19 -24 -8 0 -79 105 -107 159 -9 18 -35 53
-57 77 -34 37 -38 46 -28 59 7 8 15 15 19 15 4 0 31 -28 61 -62z m1488 24 c3
-32 2 -33 -30 -30 -38 3 -48 27 -22 52 25 26 49 16 52 -22z m-942 -9 c-10 -10
-19 5 -10 18 6 11 8 11 12 0 2 -7 1 -15 -2 -18z m-663 -34 c26 -29 47 -58 47
-66 0 -19 28 -61 73 -107 45 -47 56 -81 33 -104 -22 -22 -45 -7 -61 39 -20 56
-71 140 -120 198 -78 91 -52 128 28 40z m2684 24 c2 -6 -40 -49 -94 -96 -54
-47 -103 -93 -109 -103 -14 -23 -34 -10 -34 22 0 25 32 61 144 162 37 34 85
41 93 15z m-1177 -147 c16 -30 7 -56 -19 -56 -50 0 -66 27 -34 62 22 24 37 23
53 -6z m935 -83 c-8 -35 -57 -98 -76 -98 -8 0 -15 13 -17 32 -3 27 3 39 30 63
43 40 73 41 63 3z m-1261 -74 c12 -36 -18 -83 -44 -69 -24 13 -36 66 -19 86
18 22 52 13 63 -17z m294 -122 c3 -14 -1 -18 -20 -15 -12 2 -24 11 -26 21 -3
14 1 18 20 15 12 -2 24 -11 26 -21z m822 -4 c0 -5 -4 -14 -9 -22 -11 -17 -32
-5 -24 14 5 15 33 21 33 8z m78 -35 c13 -13 16 -48 4 -48 -14 0 -32 23 -32 42
0 21 11 23 28 6z m-2423 -54 c34 -45 47 -90 24 -82 -12 4 -69 103 -69 119 0
17 9 9 45 -37z m784 -266 c100 -87 131 -173 96 -264 -15 -40 -24 -48 -74 -70
-74 -34 -135 -28 -192 16 -21 18 -39 40 -39 50 0 9 -6 23 -14 29 -7 6 -17 40
-20 74 -11 97 30 177 100 196 48 13 106 1 143 -31z m-757 -15 c70 -54 123
-135 166 -249 28 -75 44 -126 91 -290 25 -87 94 -192 190 -293 39 -40 71 -78
71 -83 0 -28 -108 -30 -140 -3 -8 7 -31 20 -50 28 -34 14 -96 82 -187 207 -48
66 -65 116 -93 280 -14 79 -49 191 -70 225 -26 43 -76 62 -101 39 -30 -27 -38
-66 -23 -110 22 -65 -6 -65 -42 0 -42 74 -52 105 -44 141 13 59 69 107 145
126 47 11 49 11 87 -18z m1930 -4 c66 -35 78 -133 28 -241 -24 -54 -37 -70
-74 -92 -60 -35 -110 -39 -162 -14 -60 28 -78 67 -72 154 8 106 38 153 123
195 31 15 51 18 90 13 28 -3 58 -10 67 -15z m797 -157 c27 -26 28 -31 21 -82
-5 -30 -13 -66 -18 -80 -13 -33 -57 -80 -75 -80 -23 0 -28 29 -7 40 25 13 36
50 19 61 -67 42 -164 -59 -198 -206 -27 -113 -44 -158 -79 -203 -20 -26 -42
-64 -49 -85 -14 -40 -53 -82 -88 -93 -11 -4 -33 -17 -48 -30 -32 -27 -68 -34
-47 -10 6 8 10 23 9 33 -4 28 10 62 32 73 10 6 19 18 19 27 0 9 9 26 20 38 39
42 120 227 120 275 0 42 73 235 102 271 11 14 91 55 138 72 8 3 34 6 58 6 35
1 49 -5 71 -27z m-839 -302 c0 -5 -7 -10 -16 -10 -8 0 -12 5 -9 10 3 6 10 10
16 10 5 0 9 -4 9 -10z m-741 -327 c-1 -16 -4 -38 -7 -49 -9 -28 -66 -91 -117
-129 -37 -28 -47 -30 -142 -33 -115 -5 -152 9 -186 67 -17 29 -17 30 3 36 11
4 49 4 83 0 44 -5 74 -3 102 8 22 8 60 21 85 28 47 14 129 64 143 86 15 24 37
15 36 -14z m425 4 c48 -45 137 -81 202 -83 34 -1 71 -7 82 -13 11 -6 37 -11
56 -11 20 0 36 -4 36 -8 0 -29 -114 -82 -176 -82 -44 0 -159 51 -182 80 -27
35 -64 119 -57 130 9 14 11 13 39 -13z m546 -176 c0 -13 -29 -35 -37 -28 -7 8
15 37 28 37 5 0 9 -4 9 -9z m-1000 -961 c0 -5 -4 -10 -10 -10 -5 0 -10 5 -10
10 0 6 5 10 10 10 6 0 10 -4 10 -10z m71 -46 c11 -26 17 -49 14 -52 -3 -3 -19
8 -36 25 -23 23 -29 36 -24 52 10 33 24 25 46 -25z"/>
<path d="M1710 4211 c0 -24 21 -61 34 -61 24 0 29 19 12 45 -16 24 -46 34 -46
16z"/>
<path d="M4749 1989 c-12 -24 -3 -113 11 -104 15 9 32 75 26 101 -8 30 -22 31
-37 3z"/>
<path d="M4756 1858 c-2 -7 -8 -29 -15 -49 -6 -19 -11 -47 -11 -62 0 -14 -5
-29 -10 -32 -7 -4 -8 -24 -5 -50 6 -35 3 -49 -19 -84 -14 -22 -26 -44 -26 -49
0 -10 -91 -97 -152 -146 -61 -48 -62 -61 -1 -52 56 7 131 53 178 110 l35 41 0
-40 c0 -116 -20 -224 -55 -298 -34 -71 -45 -139 -26 -151 10 -6 29 14 46 48
18 36 48 27 57 -19 11 -50 24 -64 42 -45 12 13 13 35 4 140 -11 142 -6 321 11
364 l11 28 41 -46 c22 -25 47 -46 54 -46 7 0 27 -17 44 -39 29 -36 83 -61 135
-61 36 0 12 30 -48 60 -35 18 -74 42 -85 54 -35 34 -111 137 -111 150 0 17
-57 128 -81 158 -21 26 -22 29 -6 46 19 20 23 67 7 77 -6 3 -12 0 -14 -7z"/>
<path d="M7115 3746 c-27 -13 -72 -33 -99 -45 -26 -12 -46 -24 -44 -27 18 -17
196 56 206 84 5 16 -5 14 -63 -12z"/>
<path d="M5551 1998 c-11 -31 -11 -31 9 -13 21 19 27 45 11 45 -5 0 -14 -14
-20 -32z"/>
<path d="M5425 1930 c-22 -11 -45 -20 -52 -20 -8 0 -25 -8 -39 -17 -23 -15
-37 -15 -127 -5 -66 7 -116 18 -142 31 -44 23 -65 27 -65 10 0 -14 41 -48 59
-49 8 0 44 -12 79 -26 67 -27 89 -27 203 -6 54 10 143 61 147 85 5 22 -15 21
-63 -3z"/>
<path d="M3292 2939 c2 -7 10 -15 17 -17 8 -3 12 1 9 9 -2 7 -10 15 -17 17 -8
3 -12 -1 -9 -9z"/>
<path d="M3650 2476 c0 -14 5 -26 10 -26 6 0 10 9 10 19 0 11 -4 23 -10 26 -6
4 -10 -5 -10 -19z"/>
<path d="M3781 2188 c0 -9 4 -20 9 -23 6 -3 10 -15 10 -26 0 -26 83 -114 137
-146 57 -33 141 -63 179 -63 82 0 225 70 254 125 19 36 10 37 -38 4 -66 -45
-139 -69 -207 -69 -79 1 -132 14 -159 39 -12 12 -33 21 -47 21 -18 1 -35 16
-67 60 -24 33 -47 60 -52 60 -5 0 -11 8 -13 18 -4 15 -5 15 -6 0z"/>
<path d="M4415 1990 c-3 -5 -1 -10 4 -10 6 0 11 5 11 10 0 6 -2 10 -4 10 -3 0
-8 -4 -11 -10z"/>
<path d="M6534 3515 c-18 -14 -18 -14 7 -15 15 0 32 7 39 15 10 12 9 15 -7 15
-10 0 -28 -7 -39 -15z"/>
<path d="M4063 2413 c-20 -7 -25 -65 -11 -107 9 -29 23 -44 50 -58 36 -19 38
-19 68 -1 17 10 33 28 37 41 7 29 -23 98 -51 118 -20 14 -68 18 -93 7z"/>
<path d="M5255 2393 c-16 -8 -37 -22 -46 -30 -22 -19 -31 -83 -18 -122 9 -26
16 -31 43 -31 36 0 50 12 84 76 27 52 28 78 2 104 -24 24 -26 24 -65 3z"/>
</g>
</svg>
