<?xml version="1.0" standalone="no"?>
<!DOCTYPE svg PUBLIC "-//W3C//DTD SVG 20010904//EN"
 "http://www.w3.org/TR/2001/REC-SVG-20010904/DTD/svg10.dtd">
<svg version="1.0" xmlns="http://www.w3.org/2000/svg"
 width="1126.000000pt" height="604.000000pt" viewBox="0 0 1126.000000 604.000000"
 preserveAspectRatio="xMidYMid meet">

<g transform="translate(0.000000,604.000000) scale(0.100000,-0.100000)"
fill="#000000" stroke="none">
<path d="M1855 5840 c-36 -14 -291 -22 -760 -25 -434 -3 -644 -14 -669 -36 -5
-4 -31 -5 -58 -2 -42 5 -52 3 -74 -18 -26 -24 -64 -89 -64 -109 0 -6 12 -16
28 -22 15 -7 36 -20 47 -29 11 -9 29 -19 40 -21 12 -2 22 -14 25 -30 5 -25 54
-70 90 -84 8 -3 29 -25 46 -49 38 -54 111 -135 123 -135 5 0 18 -11 29 -25 11
-14 23 -25 27 -25 4 0 46 -41 94 -91 47 -50 99 -98 116 -107 17 -10 59 -48 94
-87 90 -99 189 -200 272 -275 40 -36 109 -101 154 -145 46 -44 105 -101 131
-126 49 -45 80 -80 135 -153 16 -22 42 -47 57 -56 15 -9 65 -57 112 -105 47
-49 111 -113 143 -144 171 -167 844 -854 1203 -1230 60 -63 122 -126 137 -140
15 -14 117 -116 225 -225 108 -109 222 -224 252 -255 31 -31 89 -88 130 -126
41 -39 91 -93 110 -120 19 -27 49 -57 67 -68 18 -10 35 -27 38 -37 3 -11 42
-49 86 -86 43 -37 79 -71 79 -76 0 -4 57 -66 128 -136 161 -163 242 -252 339
-378 12 -16 41 -53 65 -83 24 -29 50 -63 58 -75 8 -11 24 -28 35 -36 11 -8 29
-24 40 -36 11 -12 29 -24 40 -28 11 -3 35 -19 53 -34 25 -21 33 -36 36 -68 4
-51 6 -55 52 -79 26 -14 39 -16 41 -8 3 7 16 4 39 -10 30 -19 34 -26 30 -54
-4 -27 -1 -32 17 -35 16 -2 23 -11 25 -32 2 -19 27 -56 67 -102 34 -39 64 -76
66 -81 2 -6 36 -30 74 -56 39 -25 76 -55 83 -66 14 -25 64 -28 84 -7 9 10 28
12 63 9 45 -4 54 -1 87 27 20 17 51 53 69 80 18 28 36 50 41 50 4 0 8 7 8 15
0 8 8 15 17 15 21 0 94 76 155 161 25 36 53 71 62 78 9 8 16 23 16 35 1 35 61
118 138 189 41 37 78 67 84 67 12 0 47 41 48 56 0 6 15 26 33 45 19 19 36 39
38 45 2 5 23 25 47 44 23 18 45 45 48 59 10 50 24 71 44 71 11 0 25 12 34 28
8 16 22 34 30 41 9 8 16 22 16 32 0 10 9 21 20 24 11 3 20 11 20 16 0 5 9 13
19 17 11 4 48 39 83 79 35 39 96 102 137 140 40 37 82 82 92 98 18 32 162 184
367 389 67 67 122 127 122 132 0 5 34 45 75 89 41 43 75 82 75 85 0 4 11 12
24 18 14 6 42 34 63 62 20 27 43 50 49 50 7 0 14 7 18 15 3 8 12 15 19 15 14
0 77 72 77 88 0 5 28 35 63 68 73 68 145 137 169 162 10 9 52 49 94 87 77 70
93 87 216 218 150 162 365 377 376 377 7 0 12 6 12 13 0 8 9 22 19 31 11 10
25 30 31 46 7 16 21 32 31 35 24 8 89 74 89 90 0 15 42 55 58 55 18 0 78 56
118 111 19 27 41 49 48 49 12 0 37 24 508 498 149 150 303 300 343 332 39 33
78 71 85 85 8 14 28 35 46 46 18 11 42 35 54 54 11 18 39 49 63 69 65 56 69
59 122 124 28 34 55 61 61 61 6 1 42 36 80 78 38 43 83 91 99 106 118 114 124
121 118 146 -5 20 -3 23 12 17 49 -19 116 147 73 182 -31 24 -118 31 -275 22
-183 -11 -502 -5 -551 11 -23 8 -52 8 -95 1 -34 -6 -96 -9 -137 -6 -98 6 -325
6 -1075 0 -341 -3 -624 -6 -630 -6 -557 3 -2955 9 -3035 7 -123 -2 -458 -2
-790 1 -113 0 -362 1 -555 1 -374 -1 -573 6 -590 21 -6 5 -60 7 -120 4 -157
-7 -206 -7 -535 2 -295 8 -447 9 -635 3 -55 -2 -105 0 -110 3 -6 3 -19 2 -30
-2z m1225 -117 c164 -3 150 -3 570 8 27 1 355 1 380 0 39 -1 651 -12 690 -12
25 -1 92 0 150 2 58 1 188 -1 290 -5 199 -9 211 -9 310 -2 68 5 120 6 205 4
28 -1 142 -1 255 -1 113 1 419 0 680 -2 261 -1 558 -3 660 -3 102 0 226 0 275
0 50 0 140 -1 200 -2 61 -1 182 -2 270 -3 88 0 302 -2 475 -3 173 -1 326 -2
340 -3 14 0 66 2 115 4 50 3 101 5 115 6 14 1 88 -2 165 -5 77 -3 149 -6 160
-6 11 1 110 4 220 7 110 3 220 6 245 6 70 2 274 -11 304 -19 17 -4 26 -2 26 6
0 8 9 10 28 6 41 -9 168 -10 243 -2 39 4 69 4 73 -2 3 -5 27 -7 54 -4 43 4 50
2 54 -16 9 -34 -33 -59 -114 -66 -15 -2 -33 -8 -41 -14 -10 -9 -35 -9 -94 -2
-44 6 -91 9 -104 7 -13 -2 -37 0 -52 6 -24 8 -34 6 -58 -12 -21 -15 -34 -19
-42 -13 -7 6 -57 10 -112 11 -55 1 -118 3 -140 6 -22 3 -47 5 -55 5 -25 -1
-683 -3 -715 -2 -85 2 -694 -4 -750 -8 -5 0 -170 1 -365 4 -195 2 -383 1 -418
-2 l-64 -5 7 -34 c3 -18 4 -33 2 -33 -3 0 -19 13 -36 29 -41 38 -67 42 -328
46 -120 2 -226 6 -236 10 -9 4 -23 2 -31 -4 -9 -8 -22 -8 -39 -2 -13 5 -51 8
-83 6 -48 -4 -210 -5 -379 -3 -16 1 -41 0 -55 0 -14 -1 -164 1 -335 3 -170 3
-380 5 -465 5 -85 0 -319 0 -520 1 -201 1 -376 1 -390 0 -14 -1 -81 -3 -150
-4 -69 -1 -133 -6 -143 -11 -11 -5 -23 -3 -34 5 -19 16 -210 13 -230 -3 -9 -7
-18 -6 -29 3 -13 10 -112 13 -484 14 -258 0 -472 3 -475 7 -4 3 -21 2 -38 -3
-47 -14 -513 -14 -563 0 -28 8 -70 8 -140 1 -55 -5 -110 -7 -122 -3 -12 3 -28
1 -35 -4 -22 -18 -56 -21 -68 -7 -14 17 -89 19 -139 3 -19 -5 -69 -9 -110 -8
-41 1 -99 1 -127 0 -29 -1 -103 5 -165 13 -82 11 -116 12 -125 4 -15 -12 -165
-3 -191 11 -10 5 -32 3 -56 -6 -24 -8 -55 -12 -74 -8 -27 5 -34 2 -44 -20 -15
-34 -43 -32 -58 5 -12 29 -42 41 -54 21 -8 -12 -66 -20 -72 -9 -8 12 -52 10
-56 -3 -3 -9 -10 -8 -25 1 -26 16 -51 7 -62 -23 -5 -12 -16 -29 -25 -36 -29
-24 -17 -49 53 -116 37 -36 74 -77 81 -91 8 -13 24 -27 37 -30 13 -4 23 -11
23 -16 0 -13 99 -108 113 -108 7 -1 30 -23 52 -50 24 -29 50 -51 67 -54 21 -4
29 -14 37 -43 8 -29 18 -41 41 -50 20 -7 30 -18 30 -31 0 -11 14 -31 31 -44
56 -41 109 -98 123 -133 8 -19 24 -36 38 -40 26 -8 55 -34 132 -116 26 -28 58
-55 104 -87 18 -13 41 -41 52 -62 11 -21 35 -48 54 -59 19 -12 39 -35 44 -51
6 -17 28 -40 54 -55 93 -58 118 -78 136 -114 30 -56 201 -221 229 -221 14 0
21 -4 18 -10 -7 -12 6 -31 57 -88 35 -39 47 -44 121 -51 4 -1 7 -16 7 -34 0
-34 51 -117 72 -117 6 0 23 -13 37 -29 71 -79 123 -131 130 -131 5 0 33 -30
62 -67 80 -103 110 -133 131 -133 10 0 21 -7 24 -15 4 -8 12 -15 18 -15 7 0
20 -17 30 -37 26 -54 72 -109 103 -123 16 -6 46 -34 68 -61 22 -27 122 -132
223 -234 100 -102 182 -190 182 -195 0 -6 7 -10 15 -10 8 0 15 -5 15 -10 0
-10 242 -264 328 -344 23 -22 42 -45 42 -51 0 -6 18 -24 40 -41 55 -40 95 -79
164 -160 32 -38 68 -76 80 -84 12 -8 32 -28 45 -45 42 -51 149 -155 160 -155
12 0 91 -96 91 -110 0 -14 203 -210 217 -210 7 0 19 -15 27 -34 8 -19 30 -52
50 -74 20 -21 45 -60 56 -85 11 -26 25 -49 30 -52 6 -3 10 -11 10 -17 0 -6 -8
-4 -17 4 -10 9 -32 19 -48 22 -35 8 -80 46 -90 75 -3 11 -14 22 -23 25 -9 3
-39 33 -65 66 -27 33 -53 60 -59 60 -10 0 -48 38 -166 166 -40 43 -85 93 -101
109 -15 17 -43 50 -62 75 -19 25 -37 47 -42 48 -30 14 -111 85 -125 110 -16
28 -98 119 -153 168 -13 12 -37 40 -54 63 -16 24 -60 68 -97 98 -38 30 -68 60
-68 67 0 11 -75 86 -86 86 -11 0 -304 300 -304 310 0 6 -18 23 -40 39 -23 16
-70 62 -106 102 -36 40 -83 86 -105 102 -23 17 -44 38 -47 47 -8 20 -98 101
-140 125 -16 10 -37 32 -47 49 -24 41 -87 106 -103 106 -15 0 -130 115 -158
158 -11 15 -65 70 -121 121 -57 51 -103 95 -103 99 0 9 -156 166 -205 207 -20
17 -93 85 -162 153 -69 67 -130 122 -134 122 -5 0 -11 11 -15 25 -3 13 -29 45
-57 71 -77 69 -147 138 -147 145 0 6 -84 92 -147 150 -15 15 -42 42 -60 60
-48 52 -202 179 -215 179 -4 0 -15 15 -24 33 -27 51 -117 157 -135 157 -9 0
-37 29 -63 64 -48 66 -83 96 -111 96 -10 0 -15 10 -15 28 0 22 -13 40 -51 75
-29 27 -62 47 -74 47 -15 0 -26 9 -35 29 -13 32 -61 80 -111 110 -17 10 -39
32 -49 49 -10 17 -30 32 -46 35 -16 4 -36 12 -44 19 -22 19 -63 143 -55 167 6
21 9 22 105 26 19 1 43 6 53 10 14 6 20 2 24 -14 4 -16 10 -20 22 -15 9 4 47
12 84 18 59 8 72 7 98 -8 28 -16 33 -17 64 -2 38 18 61 20 70 7 3 -6 19 -16
35 -24 25 -13 31 -13 50 0 16 11 35 13 74 9 43 -6 55 -4 59 8 7 18 35 12 54
-12 11 -13 15 -13 35 -1 17 11 48 14 113 12 50 -2 101 -3 115 -3 100 3 136 6
146 12 19 12 77 11 121 -1 32 -9 48 -9 63 -1 30 16 458 8 485 -9 17 -11 27
-10 56 2 23 9 42 12 50 6 19 -12 82 -11 116 2 15 6 102 12 192 14 90 2 166 7
169 10 4 4 23 3 42 -1 19 -4 91 -9 160 -11z m7768 -58 c3 -40 -10 -64 -63
-119 -11 -12 -20 -25 -20 -31 -2 -24 -28 -55 -63 -75 -21 -12 -46 -34 -56 -49
-10 -15 -34 -38 -52 -51 -19 -12 -34 -28 -34 -34 0 -13 -27 -39 -70 -68 -14
-9 -60 -51 -103 -92 -44 -42 -85 -76 -93 -76 -7 0 -18 -9 -24 -19 -5 -11 -18
-22 -28 -26 -11 -3 -24 -16 -30 -30 -7 -16 -25 -28 -50 -34 -36 -10 -51 -26
-66 -73 -3 -11 -11 -15 -21 -12 -11 5 -15 0 -15 -19 0 -13 -7 -30 -16 -38 -8
-7 -22 -25 -29 -40 -8 -15 -28 -33 -45 -41 -16 -7 -30 -16 -30 -20 0 -10 -57
-66 -99 -98 -18 -14 -48 -44 -66 -67 -17 -23 -69 -69 -113 -102 -52 -38 -84
-70 -88 -85 -3 -14 -21 -34 -40 -45 -22 -13 -34 -28 -34 -42 0 -23 -105 -127
-142 -141 -10 -4 -18 -14 -18 -21 0 -8 -13 -20 -29 -27 -18 -7 -31 -21 -33
-33 -2 -12 -16 -28 -31 -35 -15 -8 -32 -23 -37 -35 -10 -27 -102 -122 -198
-205 -52 -46 -77 -62 -91 -57 -49 15 -29 82 38 124 26 16 58 43 72 61 37 48
81 93 116 118 18 13 40 36 50 52 9 17 26 33 38 36 71 20 95 42 95 87 0 13 14
32 35 47 19 14 35 29 35 34 0 4 11 20 25 35 14 14 40 42 58 62 17 20 59 58 92
84 33 27 61 52 63 56 2 4 18 13 37 19 21 7 41 24 54 46 11 19 26 34 32 34 14
0 59 46 74 75 6 11 27 28 48 38 23 12 37 26 37 38 0 11 17 29 43 45 23 15 44
31 45 35 2 5 9 9 15 9 7 0 18 15 25 33 8 17 18 42 23 55 6 16 15 22 27 18 24
-8 62 28 62 57 0 13 5 28 12 35 15 15 45 16 50 1 2 -5 11 -7 20 -4 10 4 19 24
23 53 5 36 17 58 48 93 64 69 107 123 107 131 0 5 8 8 19 8 10 0 24 7 32 16 7
8 25 22 40 30 15 7 34 26 41 41 7 15 26 34 41 41 15 7 27 18 27 23 0 6 14 24
30 41 34 33 42 91 14 102 -9 3 -14 15 -12 28 3 21 9 23 58 24 30 0 66 6 80 12
41 18 55 11 58 -33z m-10438 9 c0 -8 -5 -12 -10 -9 -6 4 -8 11 -5 16 9 14 15
11 15 -7z m3348 -106 c7 -7 12 -24 12 -39 0 -15 4 -30 8 -33 11 -6 2 -76 -9
-76 -5 0 -15 11 -21 25 -6 14 -18 25 -25 25 -11 0 -13 8 -7 33 4 17 8 41 9 52
1 11 3 21 4 23 3 6 18 1 29 -10z m773 -27 c6 9 9 1 9 -25 0 -36 -1 -38 -17
-24 -10 8 -27 20 -38 26 -19 10 -19 11 5 20 16 6 26 6 29 0 2 -6 7 -4 12 3z
m-2927 -7 c18 -7 22 -39 6 -49 -18 -11 -49 13 -43 35 6 21 12 24 37 14z m4150
-2 c7 -12 -23 -52 -39 -52 -20 0 -24 12 -14 38 8 22 42 31 53 14z m414 -16
c29 -18 38 -31 40 -55 2 -30 -12 -44 -20 -19 -2 6 -12 13 -21 15 -9 1 -25 5
-34 7 -10 3 -24 5 -30 5 -18 1 -16 22 3 49 19 27 16 27 62 -2z m-3168 7 c0 -5
-5 -15 -10 -23 -7 -11 -12 -12 -21 -3 -6 6 -8 16 -5 22 8 12 36 15 36 4z m140
-9 c0 -6 -7 -25 -16 -42 -11 -23 -24 -33 -50 -38 -19 -3 -34 -9 -35 -13 -6
-43 -5 -101 2 -101 5 0 9 -5 9 -11 0 -6 -7 -9 -15 -6 -8 4 -17 2 -20 -3 -3 -5
-12 -7 -19 -4 -7 3 -18 -2 -25 -10 -17 -20 -48 -5 -61 30 -8 21 -13 23 -30 14
-11 -6 -20 -17 -20 -25 0 -8 -7 -15 -15 -15 -18 0 -19 -18 -2 -39 18 -22 34
-76 42 -141 7 -52 59 -170 75 -170 9 0 20 36 20 66 0 11 -11 31 -25 44 -15 14
-25 35 -25 51 0 26 2 28 25 19 24 -9 25 -8 25 35 0 38 3 45 20 45 11 0 20 -4
20 -9 0 -5 8 -12 19 -16 22 -7 64 -96 51 -109 -6 -5 -15 -4 -25 4 -12 10 -15
10 -15 -3 0 -9 5 -19 10 -22 7 -4 8 -11 2 -18 -14 -18 -8 -63 11 -85 14 -16
15 -24 6 -51 -9 -27 -9 -35 2 -42 7 -4 19 -4 25 2 16 14 30 -9 15 -24 -9 -9
-16 -8 -31 1 -17 10 -20 10 -20 -5 0 -29 16 -45 44 -45 16 0 28 -7 31 -19 5
-15 10 -16 24 -7 29 18 79 -14 87 -58 9 -50 -52 -278 -87 -322 -10 -14 -19
-33 -19 -43 0 -26 -14 -24 -45 7 -25 25 -25 27 -9 45 9 10 18 37 19 61 2 24
10 70 18 103 26 104 31 148 16 143 -8 -3 -17 -25 -21 -50 -3 -25 -16 -77 -28
-114 -54 -168 -73 -194 -98 -132 -7 18 -18 41 -24 52 -7 13 -7 25 1 40 19 40
41 117 40 144 l-1 27 -13 -30 c-8 -16 -14 -43 -15 -59 0 -31 -43 -96 -63 -96
-12 0 -67 71 -67 87 0 5 -12 20 -27 33 -16 14 -34 40 -40 59 -11 30 -10 37 4
53 10 11 18 41 20 76 l4 57 -33 -38 -34 -38 -22 21 c-12 11 -22 30 -22 41 0
10 -6 28 -12 40 -11 17 -10 22 5 30 16 9 16 12 2 26 -9 8 -16 32 -16 52 -1 90
-5 125 -17 129 -8 2 -12 -7 -12 -26 0 -17 -4 -32 -10 -34 -10 -3 -27 -68 -37
-140 -4 -28 -11 -39 -33 -48 -40 -17 -53 -5 -45 39 10 51 14 181 5 176 -3 -2
-15 -23 -24 -47 -48 -115 -44 -111 -74 -103 -37 9 -37 9 -36 73 l1 57 -13 -32
c-11 -26 -20 -33 -43 -33 -41 0 -52 18 -41 65 13 53 13 118 0 110 -5 -3 -15
-24 -21 -45 -15 -50 -41 -74 -69 -65 -19 6 -21 12 -15 63 6 49 19 107 41 185
3 9 1 17 -4 17 -11 0 -27 -38 -37 -85 -3 -16 -12 -43 -20 -60 -7 -16 -16 -38
-19 -47 -8 -26 -45 -23 -51 5 -3 12 -1 60 3 107 5 47 7 88 5 93 -7 12 -23 -3
-23 -21 0 -9 -6 -29 -14 -44 -8 -14 -19 -42 -25 -61 -14 -40 -26 -48 -58 -36
-28 10 -30 41 -8 113 8 27 15 64 15 82 0 23 10 44 32 70 31 35 33 36 86 30 43
-5 60 -13 82 -36 16 -17 33 -30 39 -30 6 0 14 -12 17 -26 9 -34 72 -73 132
-81 26 -3 52 -10 58 -15 7 -5 30 -5 55 1 35 8 47 7 60 -5 11 -10 19 -12 24 -5
3 6 20 11 37 11 24 0 42 11 75 45 23 25 47 45 53 45 5 0 10 3 10 8 0 4 9 13
21 20 18 11 24 11 38 -2 10 -9 29 -16 42 -16 33 0 79 -22 79 -37 0 -7 4 -13 9
-13 5 0 13 26 17 58 7 47 13 58 30 60 16 2 20 8 17 27 -7 35 24 60 75 60 24 0
42 -5 42 -11z m300 -32 c0 -44 -14 -58 -47 -46 -36 12 -40 36 -12 68 27 32 59
20 59 -22z m519 22 c2 -2 1 -15 -3 -29 -6 -25 -34 -33 -70 -19 -38 14 2 67 43
57 14 -3 28 -7 30 -9z m5311 -8 c0 -30 -26 -54 -42 -38 -17 17 -1 62 22 62 14
0 20 -7 20 -24z m-8120 -1 c0 -8 -4 -15 -9 -15 -13 0 -22 16 -14 24 11 11 23
6 23 -9z m1526 7 c6 -4 19 -22 28 -39 10 -21 24 -33 36 -33 21 0 26 -16 11
-38 -6 -11 -10 -10 -15 4 -6 16 -8 16 -26 -1 -11 -10 -20 -28 -21 -39 0 -12
-3 -15 -6 -8 -2 6 -14 12 -25 12 -19 0 -19 2 -6 23 21 32 30 107 13 107 -8 0
-17 5 -20 10 -7 12 15 13 31 2z m3945 -2 c27 -15 25 -58 -3 -69 -28 -10 -77 6
-85 27 -4 9 3 23 16 34 26 21 44 23 72 8z m1766 -16 c-3 -4 -14 -3 -24 0 -15
6 -15 8 -3 16 16 10 39 -4 27 -16z m-3966 -6 c4 -6 2 -22 -4 -35 -18 -41 -97
-22 -97 23 0 31 84 40 101 12z m305 -37 c10 -20 -14 -29 -53 -21 -19 5 -37 10
-39 13 -8 8 8 37 21 37 7 0 18 7 25 15 13 16 18 11 46 -44z m2221 32 c5 -13
-49 -24 -61 -13 -5 6 -4 15 3 24 13 16 52 8 58 -11z m931 7 c11 -18 10 -25 -8
-51 l-22 -29 -29 31 c-23 25 -27 35 -19 50 14 26 61 25 78 -1z m225 11 c37
-14 41 -39 9 -66 -31 -27 -36 -25 -58 17 -26 50 -6 70 49 49z m-6820 -18 c18
-9 56 -17 85 -18 58 -2 84 -17 64 -37 -7 -7 -12 -27 -12 -45 0 -34 -13 -44
-24 -18 -3 8 -17 15 -31 15 -18 0 -25 5 -25 20 0 28 -44 48 -65 30 -8 -7 -13
-15 -11 -17 3 -3 1 -15 -4 -28 -6 -17 -5 -27 6 -35 23 -20 16 -43 -25 -77 -48
-40 -61 -30 -61 49 0 58 6 68 28 46 19 -19 39 6 21 28 -7 9 -19 32 -25 50 -10
29 -9 36 5 44 23 13 38 12 74 -7z m6288 -5 c23 -28 23 -37 2 -60 -20 -22 -70
-23 -95 -1 -23 21 -23 34 2 61 27 28 67 28 91 0z m-3097 -12 c-6 -16 -24 -23
-24 -8 0 10 22 33 27 28 2 -2 1 -11 -3 -20z m786 4 c0 -11 -4 -20 -10 -20 -5
0 -10 9 -10 20 0 11 5 20 10 20 6 0 10 -9 10 -20z m204 -3 c18 -28 -7 -42 -38
-22 -30 20 -33 32 -8 38 24 6 34 3 46 -16z m996 3 c0 -11 -7 -20 -15 -20 -15
0 -21 21 -8 33 12 13 23 7 23 -13z m2320 16 c0 -3 -4 -8 -10 -11 -5 -3 -10 -1
-10 4 0 6 5 11 10 11 6 0 10 -2 10 -4z m-3934 -33 c-7 -7 -26 7 -26 19 0 6 6
6 15 -2 9 -7 13 -15 11 -17z m270 19 c6 -4 13 -19 16 -34 4 -23 2 -28 -16 -28
-17 0 -21 6 -21 35 0 36 3 40 21 27z m779 -19 c1 -10 11 -32 23 -47 28 -37 17
-61 -30 -61 -28 0 -34 4 -36 25 -2 14 -8 30 -14 37 -13 16 -1 33 23 33 16 0
19 4 14 21 -5 16 -3 20 6 17 8 -3 14 -14 14 -25z m1223 6 c22 -20 21 -46 -1
-32 -22 13 -47 38 -47 45 0 15 26 8 48 -13z m-3768 -3 c0 -21 -21 -31 -31 -15
-14 22 -11 29 11 29 11 0 20 -6 20 -14z m3680 -1 c0 -2 -7 -5 -15 -9 -9 -3
-15 0 -15 9 0 9 6 12 15 9 8 -4 15 -7 15 -9z m201 -35 c11 0 11 -41 0 -58 -6
-10 -10 -10 -21 3 -7 9 -21 13 -31 10 -13 -4 -19 -1 -19 9 0 9 7 16 15 16 8 0
15 7 15 15 0 8 -9 15 -20 15 -17 0 -19 3 -10 19 10 19 11 19 37 -5 14 -13 30
-24 34 -24z m-3751 0 c-15 -28 -24 -19 -16 16 5 19 10 24 17 17 8 -8 7 -18 -1
-33z m620 -16 c0 -13 -4 -24 -10 -24 -14 0 -32 40 -26 57 9 22 36 -3 36 -33z
m2790 37 c0 -12 -20 -25 -27 -18 -7 7 6 27 18 27 5 0 9 -4 9 -9z m2194 -16 c9
-13 16 -33 16 -44 0 -31 19 -35 51 -12 15 11 31 21 33 21 12 0 36 -61 36 -91
0 -22 10 -41 35 -66 35 -35 38 -36 90 -19 6 2 24 7 42 11 18 4 40 16 49 26 9
10 21 16 26 12 6 -3 36 6 67 20 77 36 134 60 146 61 6 1 19 6 30 12 11 6 45
14 75 17 30 4 56 11 58 17 2 5 15 10 28 10 14 0 38 7 55 15 26 14 30 14 35 0
4 -8 1 -21 -5 -29 -12 -14 -75 -31 -98 -27 -7 1 -20 -13 -29 -30 -9 -18 -47
-63 -84 -101 -38 -38 -71 -81 -75 -96 -4 -15 -14 -35 -23 -45 -14 -16 -14 -22
1 -70 9 -28 13 -55 9 -59 -4 -4 -53 -10 -107 -13 -121 -6 -152 -13 -244 -55
-106 -49 -172 -118 -184 -192 -12 -75 3 -141 39 -182 19 -21 34 -44 34 -52 0
-18 -17 -27 -26 -13 -4 6 -19 9 -36 5 -17 -3 -55 3 -94 16 -53 17 -70 19 -85
10 -10 -7 -25 -12 -32 -12 -19 0 -137 -60 -137 -69 0 -4 -11 -13 -25 -19 -14
-6 -25 -16 -25 -21 0 -6 -22 -39 -50 -75 -54 -72 -66 -110 -63 -203 2 -69 13
-96 52 -132 l25 -24 -22 -8 c-12 -5 -52 -5 -89 0 -58 7 -78 5 -138 -15 -86
-28 -165 -62 -165 -72 0 -4 -27 -36 -60 -72 -33 -36 -60 -70 -60 -76 0 -6 -7
-17 -14 -24 -8 -6 -22 -31 -32 -55 -24 -64 -13 -126 32 -169 19 -18 34 -40 34
-48 0 -18 -37 -34 -100 -43 -24 -3 -58 -14 -75 -24 -16 -10 -41 -22 -55 -26
-42 -12 -131 -111 -315 -348 -33 -42 -63 -77 -66 -77 -3 0 -18 -20 -34 -43
-15 -24 -40 -52 -56 -61 -19 -11 -29 -25 -29 -41 0 -13 -29 -77 -65 -142 -36
-65 -65 -123 -65 -129 0 -6 -11 -21 -25 -34 -14 -13 -25 -28 -25 -33 0 -14
-268 -277 -283 -277 -18 0 -58 -46 -66 -77 -5 -20 -15 -29 -34 -31 -14 -2 -29
-11 -32 -20 -10 -30 -53 -72 -75 -72 -11 0 -20 -4 -20 -10 0 -5 -22 -26 -50
-47 -27 -20 -50 -43 -50 -51 0 -7 -4 -11 -9 -8 -10 7 -59 -31 -103 -79 -33
-36 -35 -45 -8 -38 15 4 20 0 20 -16 0 -21 -24 -29 -34 -12 -12 18 -47 -3 -91
-55 -37 -42 -45 -59 -40 -76 6 -18 5 -20 -5 -11 -10 9 -19 7 -43 -10 -42 -30
-84 -77 -98 -109 -7 -17 -24 -31 -44 -38 -18 -6 -36 -19 -41 -29 -17 -36 -179
-211 -196 -211 -9 0 -19 -6 -22 -12 -3 -7 -3 -2 0 12 8 28 98 144 150 193 47
44 54 51 130 137 37 41 95 106 130 143 35 37 64 72 64 77 0 5 26 30 58 56 31
25 113 101 182 168 148 144 294 279 344 321 55 45 106 99 106 112 0 6 20 24
45 40 28 17 48 38 52 53 5 23 47 108 76 154 7 11 27 44 46 74 18 31 53 75 77
99 32 32 44 52 44 73 0 36 27 108 50 135 15 17 53 93 80 160 4 11 12 30 16 42
5 12 42 56 83 98 76 78 149 125 162 104 9 -15 29 -2 29 19 0 11 17 25 43 37
67 32 60 82 -10 70 -18 -3 -51 -14 -75 -24 -24 -10 -55 -21 -70 -25 -49 -11
-37 37 37 143 36 52 65 100 65 107 0 21 117 162 147 178 16 8 41 28 57 45 17
17 34 31 38 31 5 0 21 9 36 20 15 10 49 25 77 32 27 7 58 21 68 31 24 24 61
37 106 37 23 0 44 6 52 16 12 14 9 20 -15 41 -24 21 -35 23 -70 18 -22 -4 -59
-14 -81 -22 -49 -19 -115 -28 -115 -17 0 16 39 74 50 74 5 0 10 10 10 22 0 22
67 128 81 128 5 0 36 33 70 73 67 77 187 172 229 180 14 3 71 19 127 36 59 18
140 34 188 37 47 4 85 11 85 15 0 18 -42 29 -112 29 -95 1 -148 13 -170 42
-14 19 -18 20 -18 6 0 -10 -9 -22 -20 -28 -37 -20 -21 8 31 52 28 24 72 62 97
84 26 23 67 56 92 73 94 65 268 179 296 194 38 19 65 50 56 62 -10 15 -60 35
-86 35 -13 0 -29 7 -36 15 -18 22 -30 18 -30 -8 0 -23 -17 -47 -33 -47 -5 0
-6 17 -2 38 5 33 2 41 -25 67 -16 16 -30 34 -30 41 0 16 -27 37 -34 26 -3 -5
3 -24 13 -43 38 -71 36 -199 -3 -199 -18 0 -40 54 -33 80 6 21 -32 86 -48 83
-15 -3 -18 -42 -5 -73 14 -34 4 -113 -13 -107 -25 8 -65 95 -68 147 -4 51 -3
53 26 63 42 13 115 86 115 115 0 16 9 27 33 37 47 21 73 18 91 -10z m-4424
-40 c0 -6 -49 1 -56 8 -3 3 -3 15 1 27 7 21 7 21 31 -5 13 -14 24 -28 24 -30z
m1520 30 c0 -16 -30 -29 -42 -17 -6 6 -3 16 7 26 18 17 35 13 35 -9z m1712 -7
c-9 -9 -12 -7 -12 12 0 19 3 21 12 12 9 -9 9 -15 0 -24z m-4592 -54 c0 -1 10
1 23 3 13 3 34 -4 51 -18 20 -16 45 -23 85 -25 42 -3 59 -8 69 -23 11 -16 18
-18 37 -9 16 7 37 7 71 0 43 -9 51 -8 70 9 14 13 35 19 65 19 25 0 49 3 53 7
17 17 95 29 116 18 21 -11 21 -11 -10 -68 -45 -84 -90 -220 -90 -270 0 -13 -9
-30 -20 -40 -12 -10 -20 -29 -20 -48 0 -28 3 -31 24 -25 15 4 28 0 36 -9 9
-11 16 -12 25 -5 14 12 25 3 25 -22 0 -10 5 -18 11 -18 5 0 7 -5 4 -10 -3 -6
-17 -7 -30 -4 -12 3 -26 1 -29 -5 -10 -15 19 -78 54 -117 16 -19 30 -39 30
-45 0 -16 51 -59 71 -59 10 0 25 -13 34 -30 14 -27 21 -30 60 -30 25 0 45 -4
45 -10 0 -12 -32 -28 -47 -23 -15 5 -53 -49 -122 -172 -29 -51 -32 -63 -23
-87 8 -23 7 -32 -9 -52 -30 -38 -83 -199 -99 -296 -12 -75 -42 -183 -61 -220
-10 -20 -21 -59 -25 -88 -11 -88 -50 -94 -73 -9 -13 50 -12 86 4 107 20 25 45
82 45 101 0 20 33 157 49 204 5 17 15 50 21 75 7 25 18 63 26 85 15 44 19 105
6 105 -4 0 -20 -42 -37 -92 -16 -51 -39 -115 -51 -143 -12 -27 -25 -70 -29
-95 -6 -38 -46 -120 -59 -120 -3 0 -12 7 -20 16 -26 25 -20 90 12 138 18 26
31 62 35 94 3 28 13 64 21 81 9 16 16 44 16 61 0 17 6 41 14 53 7 12 23 60 36
107 12 47 33 116 46 153 26 73 30 107 14 107 -6 0 -14 -10 -19 -22 -5 -13 -20
-53 -35 -91 -14 -37 -26 -81 -26 -98 0 -41 -78 -285 -96 -300 -8 -6 -14 -25
-14 -41 0 -30 -24 -48 -41 -31 -6 6 -12 39 -15 74 -2 35 -6 73 -9 85 -3 15 6
30 30 52 28 24 35 38 35 66 0 30 14 85 60 232 6 17 10 40 10 51 0 11 7 34 16
51 8 18 17 58 20 89 l4 58 -26 -54 c-14 -30 -29 -76 -34 -103 -5 -27 -15 -59
-22 -71 -6 -12 -17 -44 -23 -72 -10 -43 -15 -50 -36 -50 l-24 0 1 120 c0 99 4
130 23 180 13 33 29 92 37 130 18 96 32 142 55 178 10 18 19 43 19 56 0 14 6
32 14 40 20 22 31 71 17 71 -6 0 -11 -8 -11 -17 -1 -22 -23 -53 -38 -53 -6 0
-18 -12 -27 -27 -14 -27 -15 -24 -9 47 7 84 2 86 -26 10 -25 -69 -36 -140 -21
-140 21 0 11 -43 -15 -67 -23 -21 -25 -30 -20 -62 3 -21 1 -54 -5 -72 -16 -48
-49 -118 -59 -124 -15 -9 -53 -143 -46 -162 7 -17 8 -17 23 2 l16 20 -8 -20
c-6 -18 -8 -96 -6 -299 0 -46 -5 -90 -13 -105 -7 -14 -22 -45 -34 -68 -37 -70
-22 -101 22 -46 l21 28 7 -40 c4 -22 11 -60 16 -85 12 -51 1 -80 -28 -80 -14
0 -21 10 -26 38 -9 52 -22 72 -45 72 -11 0 -22 7 -25 15 -4 8 -15 15 -25 15
-26 0 -33 38 -16 90 16 47 33 169 23 159 -14 -14 -56 -102 -56 -118 0 -24 -29
-36 -36 -16 -4 8 -3 22 0 32 4 10 -2 25 -15 39 -19 20 -20 24 -5 46 23 35 58
155 54 186 -3 21 -8 12 -27 -43 -12 -38 -26 -74 -31 -80 -4 -5 -10 -26 -14
-47 -8 -43 -28 -54 -51 -28 -21 23 -16 83 19 235 33 142 46 215 46 261 0 31 9
53 43 99 23 33 51 80 61 105 10 25 22 52 26 61 6 11 1 41 -11 80 -24 80 -24
86 2 143 25 58 19 91 -12 58 -24 -27 -47 -28 -57 -4 -13 34 -61 83 -78 80 -11
-2 -20 7 -27 26 -8 25 -6 31 19 51 l28 23 13 -37 c7 -20 13 -37 13 -37z m940
61 c0 -8 -4 -15 -9 -15 -13 0 -22 16 -14 24 11 11 23 6 23 -9z m1186 -11 c17
-18 30 -23 44 -19 29 9 26 -18 -5 -50 -30 -29 -37 -31 -29 -10 4 10 0 15 -13
15 -11 0 -28 9 -38 20 -15 17 -16 24 -7 45 14 31 19 31 48 -1z m-3122 10 c17
-7 22 -34 7 -34 -21 0 -41 13 -41 26 0 15 10 17 34 8z m-331 -34 c-8 -110 -35
-176 -68 -164 -31 12 -22 139 13 177 23 26 57 18 55 -13z m420 24 c6 -6 -45
-54 -57 -54 -11 0 -6 36 6 48 13 13 41 16 51 6z m-689 -10 c19 -7 23 -74 4
-74 -6 0 -22 10 -35 22 -18 17 -26 19 -35 10 -16 -16 -38 -15 -38 2 0 18 13
27 54 37 17 4 32 7 33 8 1 1 8 -2 17 -5z m3613 -24 c0 -30 39 -96 101 -170 28
-33 31 -34 57 -20 15 8 33 26 40 41 27 52 129 139 163 139 28 0 70 -41 98 -95
15 -31 36 -61 45 -66 10 -5 21 -18 24 -29 4 -11 15 -20 26 -20 29 0 89 34 129
72 63 61 140 117 155 112 7 -3 16 -11 19 -17 67 -131 93 -172 113 -175 21 -3
103 43 103 58 0 4 24 20 53 35 28 15 59 34 68 41 24 22 49 6 70 -44 11 -25 33
-65 49 -89 17 -24 30 -51 30 -59 0 -20 17 -18 47 6 14 11 40 20 58 20 18 0 38
7 45 15 18 22 69 45 100 45 42 0 54 -33 48 -140 l-6 -92 26 7 c14 3 49 22 77
41 57 37 85 43 85 17 0 -9 8 -25 17 -35 13 -14 15 -23 7 -36 -10 -15 -54 -46
-79 -56 -41 -15 -121 -27 -153 -21 -36 6 -40 10 -55 59 -10 29 -17 67 -17 85
l0 33 -62 -7 c-53 -6 -67 -12 -93 -40 -20 -22 -41 -34 -64 -37 -28 -3 -35 1
-50 28 -9 17 -31 54 -50 83 -31 49 -36 52 -65 48 -117 -19 -117 -19 -140 -53
-12 -18 -33 -42 -47 -53 -34 -27 -63 -9 -97 59 -15 29 -39 62 -53 72 l-26 20
-41 -26 c-23 -14 -49 -26 -57 -26 -9 0 -30 -14 -48 -31 -50 -48 -102 -71 -142
-63 -21 4 -37 13 -40 25 -4 11 -23 39 -43 64 -20 24 -44 54 -53 66 -13 19 -18
20 -40 9 -13 -7 -34 -25 -47 -41 -30 -37 -136 -119 -154 -119 -16 0 -131 115
-147 148 -7 13 -21 22 -34 22 -26 0 -86 -41 -102 -69 -5 -11 -38 -49 -72 -86
-57 -61 -63 -71 -63 -110 0 -24 4 -55 10 -69 5 -15 11 -72 14 -127 2 -56 8
-104 13 -108 24 -16 106 -221 106 -265 0 -16 8 -37 18 -47 11 -11 19 -30 19
-43 0 -14 5 -37 10 -52 6 -15 8 -41 4 -56 -5 -27 -7 -28 -23 -14 -9 8 -22 36
-30 63 -33 120 -50 147 -88 132 -32 -12 -33 -12 -33 6 0 10 10 15 30 15 26 0
30 4 32 28 4 56 -2 73 -35 115 -46 56 -57 79 -57 118 0 18 -8 42 -18 53 -22
24 -75 190 -93 288 -11 62 -11 69 6 88 25 28 39 25 66 -15 13 -19 29 -35 35
-35 20 0 24 40 6 55 -9 7 -43 34 -75 60 -61 49 -85 53 -102 20 -5 -11 -33 -43
-62 -71 -36 -36 -53 -61 -58 -87 -7 -35 -25 -52 -25 -24 0 20 -59 76 -88 83
-15 4 -44 16 -65 26 -22 11 -45 17 -52 14 -16 -6 -75 -123 -75 -148 0 -10 -11
-25 -25 -34 -25 -16 -33 -16 -134 2 -21 4 -50 22 -75 46 -37 38 -38 41 -20 51
28 15 34 27 34 73 0 61 20 73 76 46 24 -12 44 -26 44 -32 0 -5 8 -10 19 -10
14 0 22 11 30 44 6 24 17 49 26 56 8 7 15 17 15 23 0 16 42 57 58 57 15 0 52
-37 52 -51 0 -5 12 -12 28 -15 15 -4 34 -13 42 -21 31 -28 88 -60 96 -54 13 9
44 79 44 100 0 9 11 28 25 41 14 13 25 29 25 36 0 7 21 25 46 40 l45 27 38
-37 c20 -20 45 -36 54 -36 9 0 17 -4 17 -9 0 -5 18 -29 41 -53 39 -42 41 -43
56 -23 8 11 24 40 36 65 12 25 23 48 25 53 2 4 -6 7 -17 7 -12 0 -21 4 -21 9
0 15 40 24 54 12 9 -7 23 -5 49 9 20 11 48 20 61 20 25 0 51 22 39 33 -3 4 -2
7 4 7 5 0 10 -13 10 -30z m1068 8 c-14 -46 -55 -63 -55 -22 0 8 -5 14 -11 14
-5 0 -7 5 -4 10 4 6 11 8 16 5 5 -4 17 -1 26 4 28 16 35 13 28 -11z m235 12
c0 -5 -6 -10 -14 -10 -7 0 -16 -9 -19 -21 -4 -13 -12 -20 -24 -17 -26 5 -22
32 5 36 12 2 22 8 22 13 0 5 7 9 15 9 8 0 15 -4 15 -10z m1983 -11 c-4 -13 -9
-17 -15 -11 -11 11 -3 32 12 32 4 0 6 -9 3 -21z m-6764 -12 c7 -9 8 -24 1 -46
-18 -63 -47 -78 -69 -37 -19 34 4 96 35 96 12 0 27 -6 33 -13z m621 -18 c0
-24 -4 -30 -17 -27 -10 2 -16 11 -14 19 2 8 4 20 4 27 0 6 6 12 14 12 8 0 13
-12 13 -31z m1965 7 c19 -18 25 -31 20 -45 -8 -26 -34 -27 -41 -3 -3 9 -10 25
-15 34 -22 43 -3 50 36 14z m3937 -8 c26 -24 37 -44 41 -73 11 -77 26 -150 37
-182 16 -45 9 -107 -12 -111 -13 -3 -24 11 -42 51 -36 83 -68 94 -42 16 23
-73 35 -141 32 -194 -4 -66 -13 -85 -41 -85 -24 0 -24 -1 -18 -90 4 -64 3 -90
-6 -90 -6 0 -11 4 -11 10 0 5 -17 34 -39 64 -21 31 -44 76 -50 100 -10 41 -34
66 -45 47 -6 -10 29 -173 48 -226 8 -22 15 -50 16 -62 0 -12 5 -25 10 -28 14
-9 12 -37 -4 -58 -12 -15 -18 -16 -35 -7 -12 6 -21 18 -21 26 0 19 -44 160
-76 242 -13 34 -24 69 -24 77 0 8 29 45 64 81 60 61 68 66 97 60 27 -5 30 -4
23 12 -5 9 -8 41 -7 69 1 41 8 62 30 92 26 36 29 45 26 108 -2 37 -6 87 -9
111 -6 44 -1 72 14 72 5 0 24 -15 44 -32z m-4592 12 c0 -5 -11 -10 -25 -10
-14 0 -25 5 -25 10 0 6 11 10 25 10 14 0 25 -4 25 -10z m3120 -5 c0 -8 -4 -15
-9 -15 -13 0 -22 16 -14 24 11 11 23 6 23 -9z m-2618 -17 c-7 -7 -12 -8 -12
-2 0 14 12 26 19 19 2 -3 -1 -11 -7 -17z m3175 0 c7 -6 57 -13 110 -17 l98 -6
7 -45 c16 -101 35 -187 48 -210 7 -14 12 -25 9 -25 -2 0 1 -18 8 -40 20 -72
33 -135 33 -163 0 -15 8 -45 19 -67 58 -122 82 -182 80 -195 -2 -8 3 -35 12
-60 23 -66 39 -136 39 -174 0 -35 60 -131 68 -108 2 7 -4 54 -13 103 -18 102
-16 125 13 110 23 -12 38 -49 47 -111 4 -25 10 -67 15 -95 9 -59 -1 -78 -37
-69 -29 8 -42 -7 -43 -46 -1 -24 -2 -23 -36 15 -45 51 -74 117 -74 168 0 30
-7 48 -25 67 -29 31 -51 105 -60 210 -12 140 -37 243 -79 327 -14 29 -26 62
-26 73 0 10 -9 24 -20 30 -19 10 -20 8 -14 -52 3 -35 13 -78 21 -97 9 -19 18
-67 20 -108 5 -69 4 -73 -16 -73 -18 0 -20 -4 -15 -27 10 -42 23 -63 40 -63
23 0 38 -44 27 -77 -6 -17 -6 -42 -1 -63 5 -19 10 -71 10 -115 0 -74 -2 -81
-26 -100 -28 -22 -33 -44 -14 -63 6 -6 12 -33 14 -59 2 -26 7 -70 12 -96 7
-37 7 -51 -4 -62 -8 -7 -14 -30 -14 -49 0 -20 -4 -36 -10 -36 -13 0 -28 32
-22 49 3 8 -4 33 -16 55 -11 23 -28 76 -38 119 -17 72 -41 117 -64 117 -16 0
-36 61 -43 129 -4 36 -13 72 -21 80 -7 9 -17 27 -21 41 -4 14 -19 41 -34 60
-43 55 -43 58 -20 90 l23 30 -22 30 -23 30 26 10 c34 13 65 -3 65 -34 0 -13 8
-31 19 -40 10 -9 26 -37 36 -61 9 -25 20 -45 24 -45 4 0 14 -19 21 -42 33
-113 56 -168 68 -168 22 0 23 24 2 65 -11 21 -20 46 -20 54 0 8 -13 38 -30 68
-16 29 -30 60 -30 70 0 9 -11 33 -25 53 -14 20 -27 46 -30 58 -2 11 -11 32
-20 46 -13 20 -15 37 -10 83 8 58 20 93 33 93 4 0 15 -14 24 -30 9 -17 22 -30
28 -30 31 0 -12 112 -62 165 -21 21 -38 42 -38 48 0 14 -63 141 -72 145 -5 2
-8 8 -8 13 0 6 5 7 10 4 14 -9 13 28 -1 42 -9 9 -15 8 -26 -3 -8 -8 -19 -14
-24 -14 -16 0 -10 39 9 50 15 10 15 11 -4 7 -16 -3 -25 2 -33 20 -6 13 -11 26
-11 28 0 9 145 -7 157 -17z m1893 3 c0 -29 -21 -81 -32 -81 -17 0 -37 33 -38
61 0 33 7 39 42 39 21 0 28 -5 28 -19z m746 -8 c-7 -7 -26 7 -26 19 0 6 6 6
15 -2 9 -7 13 -15 11 -17z m-7476 7 c0 -5 -2 -10 -4 -10 -3 0 -8 5 -11 10 -3
6 -1 10 4 10 6 0 11 -4 11 -10z m2940 -15 c0 -14 -4 -25 -10 -25 -11 0 -14 33
-3 43 11 11 13 8 13 -18z m1275 -24 c14 -36 -61 -61 -94 -32 -17 15 -20 23
-12 44 6 14 18 27 28 29 22 4 70 -21 78 -41z m2612 43 c-3 -3 -12 -4 -19 -1
-8 3 -5 6 6 6 11 1 17 -2 13 -5z m-1577 -29 c0 -8 -11 -17 -25 -21 -26 -6 -34
-29 -14 -36 11 -4 8 -43 -17 -210 -8 -55 -29 -47 -52 20 -11 31 -26 73 -33 92
-6 19 -18 47 -25 62 -17 32 -18 74 -2 84 6 4 36 8 65 9 30 1 57 5 60 9 12 12
43 6 43 -9z m-3486 -16 c-3 -5 -9 -7 -14 -4 -12 7 -20 -21 -20 -67 0 -32 -3
-38 -13 -30 -10 9 -19 7 -35 -4 -20 -14 -24 -13 -46 3 -13 10 -29 26 -35 35
-13 21 -4 48 15 48 8 0 23 6 34 12 15 10 24 10 38 1 15 -8 23 -7 42 7 24 18
46 17 34 -1z m146 11 c0 -5 -4 -10 -10 -10 -5 0 -10 5 -10 10 0 6 5 10 10 10
6 0 10 -4 10 -10z m2534 1 c9 -14 -18 -61 -35 -61 -23 0 -53 25 -45 38 10 16
43 15 50 0 3 -7 3 -3 0 10 -4 15 -1 22 10 22 8 0 17 -4 20 -9z m-5434 -31 c14
-10 44 -23 67 -29 23 -6 45 -15 47 -20 3 -5 17 -12 31 -15 58 -15 337 -152
383 -189 20 -15 49 -31 64 -34 15 -3 35 -14 44 -24 9 -11 21 -19 26 -19 14 0
68 -41 136 -102 34 -32 88 -77 120 -100 31 -23 59 -46 61 -50 1 -5 20 -20 42
-33 45 -29 68 -61 79 -109 7 -32 6 -34 -14 -29 -51 12 -106 19 -111 14 -6 -5
61 -41 76 -41 4 0 36 -16 70 -36 33 -20 76 -40 94 -45 18 -5 59 -34 92 -65 32
-31 68 -63 81 -71 13 -9 39 -40 58 -70 18 -29 38 -53 44 -53 6 0 28 -18 49
-40 21 -22 43 -40 49 -40 6 0 13 -9 17 -20 3 -11 25 -32 48 -47 61 -41 113
-153 70 -153 -9 0 -24 6 -32 13 -20 17 -162 50 -187 44 -18 -4 -18 -4 1 -12
11 -5 33 -17 48 -28 15 -10 42 -23 60 -28 19 -6 71 -46 131 -105 54 -52 109
-102 121 -110 13 -8 37 -41 54 -73 17 -32 49 -78 70 -102 22 -24 43 -55 46
-70 3 -15 17 -41 31 -60 29 -40 30 -55 4 -69 -15 -8 -29 -4 -68 20 -52 32 -92
39 -92 17 0 -19 49 -61 88 -77 17 -7 45 -29 62 -49 48 -58 54 -65 85 -91 17
-14 38 -36 47 -50 10 -14 36 -50 57 -80 71 -98 136 -194 156 -231 11 -20 38
-63 60 -94 22 -32 44 -65 50 -74 5 -9 20 -30 32 -48 13 -17 23 -35 23 -38 0
-4 15 -25 33 -48 18 -23 45 -68 60 -99 15 -31 32 -60 37 -63 5 -3 41 -51 80
-105 66 -93 122 -150 148 -150 20 0 13 47 -11 77 -41 49 -43 133 -3 133 8 0
21 10 30 23 9 12 15 15 13 7 -2 -8 7 -36 20 -62 21 -42 22 -52 13 -115 -5 -37
-10 -71 -10 -75 0 -5 -7 -8 -15 -8 -22 0 -18 -31 10 -72 14 -20 25 -43 25 -51
0 -8 7 -21 16 -28 13 -11 17 -10 26 4 12 22 28 13 28 -17 0 -48 20 -85 48 -88
24 -3 27 -8 27 -38 0 -29 4 -36 23 -38 17 -3 22 -8 17 -19 -3 -9 -2 -19 2 -22
4 -3 24 -24 42 -46 24 -27 43 -40 60 -40 22 0 26 -6 32 -37 3 -21 14 -48 25
-60 33 -38 77 -73 94 -73 26 -1 40 -15 40 -41 0 -18 17 -42 58 -80 31 -29 60
-54 65 -54 4 0 7 9 7 20 0 11 -7 20 -15 20 -8 0 -15 9 -15 20 0 31 34 9 50
-32 24 -66 35 -80 74 -99 35 -17 41 -17 49 -4 13 24 29 7 27 -29 -3 -49 -2
-52 32 -85 39 -38 31 -61 -23 -72 -43 -9 -83 23 -127 101 -32 57 -65 95 -167
192 -33 31 -67 64 -75 73 -8 10 -27 29 -43 44 -15 14 -55 57 -89 96 -33 38
-75 80 -92 91 -43 30 -156 145 -156 160 0 17 -126 137 -159 151 -21 9 -31 23
-41 58 -7 26 -28 65 -47 87 -19 23 -40 56 -47 73 -8 18 -41 60 -75 95 -39 39
-61 71 -61 85 0 14 -7 25 -18 27 -15 4 -18 12 -15 35 4 22 -6 45 -41 97 -25
38 -46 72 -46 76 0 5 -18 31 -40 59 -22 28 -40 56 -40 64 0 7 -16 28 -35 47
-19 19 -35 41 -35 50 0 8 -8 23 -17 31 -10 9 -26 30 -35 47 -9 17 -34 39 -55
49 -27 13 -39 25 -41 43 -2 14 -21 43 -42 65 -21 22 -43 50 -49 63 -8 15 -21
22 -40 22 -17 0 -37 10 -52 26 -20 22 -104 84 -143 105 -44 24 -60 29 -95 29
-43 0 -91 31 -91 58 0 9 7 37 16 62 28 79 -5 194 -71 244 -19 15 -44 44 -54
64 -30 59 -112 122 -158 122 -9 0 -25 8 -35 17 -15 13 -21 14 -27 5 -5 -9 -14
-5 -31 13 -13 14 -31 25 -40 25 -9 0 -20 4 -25 9 -6 5 -48 18 -94 30 -73 18
-131 43 -131 55 0 16 15 36 26 36 8 0 33 18 55 39 l42 39 -7 63 c-3 34 -14 74
-24 87 -20 29 -23 34 -48 86 -18 38 -79 86 -109 86 -9 0 -33 13 -53 29 -59 45
-138 71 -202 66 -87 -8 -132 -27 -153 -66 -16 -32 -16 -35 0 -46 20 -15 73
-17 73 -3 0 6 7 10 15 10 8 0 15 -7 15 -15 0 -8 -4 -15 -10 -15 -5 0 -10 -8
-10 -17 0 -13 2 -15 8 -5 11 17 40 5 47 -19 8 -24 -1 -39 -23 -39 -10 0 -33
-14 -51 -31 -23 -20 -42 -29 -59 -27 -26 3 -30 8 -58 71 -16 35 -16 39 1 57
13 15 15 23 7 33 -8 10 -7 20 3 40 11 21 11 27 1 27 -25 0 -35 21 -23 49 12
29 55 70 74 71 24 0 72 97 73 143 0 32 -43 121 -72 149 -15 15 -28 31 -28 35
0 5 -21 20 -47 33 -25 14 -56 35 -68 47 -34 33 -99 48 -213 48 l-102 0 -31
-33 c-24 -25 -34 -30 -48 -23 -37 20 -43 39 -46 160 -4 126 -16 168 -68 228
-28 32 -16 54 25 46 18 -3 44 -14 58 -23z m5000 15 c0 -8 -4 -15 -9 -15 -13 0
-22 16 -14 24 11 11 23 6 23 -9z m1911 -41 c17 -16 19 -16 25 0 4 11 13 15 28
11 36 -10 66 -28 66 -39 0 -5 9 -28 19 -50 11 -23 22 -54 25 -71 3 -16 10 -52
16 -80 20 -90 22 -119 8 -138 -11 -15 -18 -16 -41 -8 -22 9 -27 17 -27 44 0
46 -19 97 -36 97 -16 0 -19 -39 -6 -85 17 -58 -7 -71 -65 -35 -29 17 -33 25
-33 64 0 24 -10 65 -21 91 -43 97 -72 229 -54 247 7 7 71 -25 96 -48z m-3941
11 c0 -8 -6 -15 -12 -18 -21 -7 -38 4 -38 23 0 10 6 20 13 23 15 5 37 -11 37
-28z m-1405 -27 c11 -33 10 -41 -6 -68 -22 -36 -41 -38 -62 -6 -14 21 -14 27
6 69 26 55 44 56 62 5z m965 10 c0 -16 -3 -19 -11 -11 -6 6 -8 16 -5 22 11 17
16 13 16 -11z m4599 13 c20 -5 27 -17 38 -66 21 -89 32 -207 21 -227 -10 -21
-28 -24 -28 -5 0 7 -20 64 -45 126 -42 106 -54 159 -38 174 7 8 19 8 52 -2z
m-5802 -16 c3 -9 3 -19 -1 -22 -7 -7 -36 16 -36 28 0 15 30 10 37 -6z m4163 0
c-6 -8 -9 -23 -5 -35 9 -29 -8 -24 -22 7 -14 28 -5 43 26 43 11 0 11 -3 1 -15z
m1065 1 c34 -12 40 -18 40 -43 0 -26 -2 -28 -35 -25 -66 6 -102 48 -62 71 9 6
17 10 17 11 0 0 18 -7 40 -14z m1753 -10 c3 -12 -1 -17 -10 -14 -7 3 -15 13
-16 22 -3 12 1 17 10 14 7 -3 15 -13 16 -22z m-2683 -26 c4 -6 4 -18 1 -26 -5
-13 -9 -13 -31 3 -13 10 -25 21 -25 26 0 11 48 8 55 -3z m-5822 -7 c2 -5 7
-25 11 -45 6 -34 5 -38 -13 -38 -14 0 -23 9 -27 28 -4 15 -11 30 -17 33 -5 4
-6 12 -3 18 8 12 43 15 49 4z m2626 -22 c16 -10 6 -31 -15 -31 -8 0 -14 9 -14
20 0 22 7 25 29 11z m3029 -3 c16 -21 24 -58 13 -58 -6 0 -20 -9 -31 -20 -26
-26 -42 -25 -38 3 2 14 11 23 26 25 16 2 22 8 18 18 -3 8 -9 21 -12 29 -7 18
10 20 24 3z m-3753 -48 c3 -5 -1 -10 -9 -10 -8 0 -18 5 -21 10 -3 6 1 10 9 10
8 0 18 -4 21 -10z m-111 -25 c3 -8 12 -12 21 -9 11 4 15 0 15 -16 0 -18 -4
-21 -22 -17 -12 3 -30 1 -40 -4 -15 -8 -17 -17 -12 -45 6 -34 -8 -49 -19 -20
-3 8 -18 16 -33 18 -33 4 -43 23 -15 31 13 3 18 11 15 23 -4 14 5 23 33 36 49
21 50 21 57 3z m3964 -18 c4 -30 -17 -37 -38 -12 -10 12 -10 18 0 30 18 22 34
14 38 -18z m-1477 -22 c33 -54 128 -250 132 -270 2 -11 7 8 11 42 7 55 12 66
47 98 59 53 79 45 79 -33 0 -59 16 -19 18 45 2 63 21 100 57 109 34 8 55 -11
55 -50 0 -47 14 -64 40 -48 26 16 50 4 80 -39 22 -30 22 -30 44 -11 11 11 33
22 49 26 35 8 44 -11 29 -62 -6 -20 -16 -63 -22 -94 -6 -31 -22 -80 -36 -108
-13 -28 -22 -55 -19 -60 13 -21 -8 -114 -32 -136 -12 -12 -23 -27 -23 -33 0
-15 -51 -34 -62 -23 -7 7 12 76 54 197 6 17 13 55 17 85 4 30 10 60 14 66 22
36 12 135 -11 109 -8 -10 -45 -165 -58 -250 -3 -22 -13 -50 -21 -63 -26 -43
-51 -135 -76 -289 -7 -39 -15 -75 -19 -79 -5 -4 -8 -26 -8 -48 l0 -41 26 33
c14 17 29 32 34 32 10 0 31 -60 25 -70 -3 -5 0 -21 7 -37 17 -40 16 -48 -7
-48 -13 0 -21 -8 -23 -22 -3 -18 2 -23 17 -23 25 0 28 -25 4 -39 -17 -9 -16
-11 5 -33 25 -27 29 -70 9 -90 -14 -14 -12 -38 4 -38 5 0 9 7 9 17 0 13 4 12
19 -6 11 -13 28 -21 38 -19 34 8 70 -20 88 -65 23 -62 17 -86 -30 -119 -51
-35 -58 -35 -97 2 -40 39 -58 39 -58 -1 0 -21 10 -43 30 -66 35 -39 37 -57 11
-75 -10 -8 -29 -30 -40 -50 -18 -30 -76 -70 -84 -57 -1 2 -11 18 -23 34 -11
17 -23 38 -27 48 -3 9 -16 17 -27 17 -25 0 -26 26 -3 74 13 28 14 41 5 60 -10
22 -8 25 17 36 34 14 53 52 45 86 -4 15 0 34 10 50 16 23 16 31 1 102 -9 42
-22 88 -30 102 -20 38 -34 130 -24 158 5 13 9 34 9 48 0 19 -5 24 -23 24 -13
0 -32 9 -42 20 -23 26 -35 25 -35 -2 0 -12 -9 -31 -19 -42 -23 -26 -61 -96
-61 -114 0 -7 -16 -22 -36 -34 -32 -19 -35 -24 -30 -54 5 -26 2 -36 -17 -51
-36 -28 -38 -39 -20 -72 17 -29 17 -32 -1 -65 -18 -34 -18 -35 3 -62 11 -15
21 -34 21 -44 0 -9 8 -24 18 -33 9 -9 26 -32 36 -51 19 -35 19 -37 0 -72 -10
-19 -28 -44 -40 -55 -27 -26 -87 -36 -103 -18 -6 8 -30 38 -52 67 -22 28 -47
52 -55 52 -30 0 13 109 43 110 19 0 45 46 41 72 -4 27 -26 26 -69 -3 -16 -10
-42 -28 -59 -39 -37 -26 -47 -25 -61 3 -6 12 -25 37 -42 54 -31 33 -31 33 -14
65 9 18 27 45 39 60 21 27 21 28 3 42 -12 8 -16 19 -12 30 10 25 31 14 35 -17
3 -21 9 -27 26 -27 13 0 32 -8 44 -17 11 -10 29 -25 40 -34 11 -10 24 -25 30
-35 14 -24 42 -11 42 21 0 14 5 25 10 25 6 0 10 5 10 11 0 6 -7 8 -16 5 -13
-5 -15 -2 -10 16 3 13 6 29 6 36 0 6 9 12 20 12 21 0 60 19 71 34 4 4 4 17 2
27 -3 11 0 25 6 33 9 10 9 26 3 53 -6 21 -10 61 -11 88 0 28 -5 70 -11 95 -13
61 -19 348 -8 385 10 34 0 151 -12 138 -11 -11 -42 -192 -35 -203 3 -5 7 -112
9 -238 4 -212 3 -232 -15 -261 -26 -42 -39 -39 -39 10 0 23 -6 55 -14 72 -7
18 -18 43 -23 57 l-10 25 -17 -33 c-13 -25 -23 -32 -39 -30 -23 3 -38 53 -57
188 -20 143 -35 211 -61 265 -5 11 -11 44 -13 73 -4 54 -10 71 -23 58 -4 -3
-1 -28 5 -54 7 -26 17 -101 22 -167 5 -66 19 -151 30 -190 11 -38 20 -87 20
-107 0 -21 9 -56 21 -78 20 -37 20 -42 5 -65 -15 -22 -15 -25 0 -33 13 -7 15
-17 10 -37 l-7 -28 -22 34 c-11 19 -20 40 -18 48 1 8 -4 28 -12 45 -9 17 -21
58 -28 91 -7 33 -16 65 -19 70 -4 6 -10 30 -14 55 -12 91 -23 136 -40 170 -9
19 -20 55 -23 80 -3 25 -12 56 -19 70 -7 14 -20 55 -29 90 -19 73 -23 82 -34
75 -5 -2 0 -51 10 -107 10 -57 19 -117 19 -135 0 -17 5 -35 10 -38 6 -3 10
-15 10 -26 0 -11 11 -42 25 -69 15 -30 25 -66 25 -93 0 -26 6 -49 14 -56 9 -7
17 -42 21 -87 5 -47 12 -77 21 -81 20 -7 36 -63 23 -79 -6 -7 -8 -22 -4 -34 4
-11 2 -20 -4 -20 -6 0 -11 7 -11 16 0 35 -42 132 -60 137 -14 4 -18 20 -22 90
-5 77 -8 88 -32 109 -25 22 -30 37 -49 148 -1 8 -11 30 -21 49 -29 55 -86 260
-86 311 0 42 5 52 56 111 31 35 63 74 71 86 9 14 24 22 38 21 19 -2 23 -10 33
-73 6 -38 19 -90 29 -115 l18 -45 5 85 c5 78 7 85 25 82 21 -4 74 -51 75 -66
0 -6 9 -19 19 -30 14 -16 22 -48 31 -129 6 -60 10 -132 10 -160 -1 -29 5 -83
14 -122 9 -38 16 -94 16 -123 0 -31 8 -70 18 -90 l17 -37 6 55 c3 30 3 75 -2
100 -4 25 -13 83 -19 130 -5 47 -15 110 -20 140 -5 30 -12 91 -14 135 -6 100
7 130 87 215 65 69 89 74 118 25z m1648 -21 c10 -3 6 -9 -13 -19 -37 -19 -84
3 -60 28 6 6 38 2 73 -9z m2499 -30 c-4 -3 -12 5 -18 18 -12 22 -12 22 6 6 10
-10 15 -20 12 -24z m-5866 -21 c19 -41 16 -53 -12 -53 -29 0 -45 37 -29 66 17
32 22 30 41 -13z m2511 25 c33 -16 36 -56 7 -81 -11 -9 -20 -29 -20 -44 0 -49
-20 -102 -40 -108 -21 -7 -26 -20 -11 -30 6 -3 4 -17 -4 -33 -8 -15 -16 -35
-19 -45 -6 -19 -33 -33 -44 -23 -3 4 -1 16 6 26 6 11 9 26 6 34 -3 8 0 17 5
21 6 3 9 10 6 14 -4 7 17 121 42 231 6 27 21 50 32 50 4 0 19 -6 34 -12z
m-3163 -12 c0 -8 -4 -18 -10 -21 -5 -3 -10 3 -10 14 0 12 5 21 10 21 6 0 10
-6 10 -14z m786 -33 c-10 -10 -19 5 -10 18 6 11 8 11 12 0 2 -7 1 -15 -2 -18z
m759 -15 c4 -24 7 -56 7 -72 0 -16 5 -38 13 -50 7 -11 19 -40 26 -63 6 -23 20
-52 31 -63 16 -17 17 -25 8 -61 -9 -33 -14 -38 -25 -29 -19 16 -95 167 -95
189 0 10 -9 30 -20 43 -35 45 -40 72 -22 112 13 27 23 35 44 36 23 0 27 -5 33
-42z m-3435 3 c0 -17 -27 -37 -37 -27 -6 6 20 46 29 46 5 0 8 -9 8 -19z m1710
10 c0 -12 -20 -25 -27 -18 -7 7 6 27 18 27 5 0 9 -4 9 -9z m1398 -28 c27 -15
29 -21 26 -62 -2 -26 -3 -48 -4 -51 0 -3 -6 4 -12 15 -11 19 -11 19 -18 0 -5
-15 -11 -10 -29 28 -14 28 -20 55 -16 67 8 24 15 25 53 3z m2722 -19 c0 -16
-37 -37 -50 -29 -15 9 -12 32 6 50 12 12 19 13 30 4 8 -6 14 -17 14 -25z
m-3376 -9 c3 -9 0 -15 -9 -15 -8 0 -15 7 -15 15 0 8 4 15 9 15 5 0 11 -7 15
-15z m4166 5 c0 -5 -11 -10 -25 -10 -14 0 -25 5 -25 10 0 6 11 10 25 10 14 0
25 -4 25 -10z m-1319 -31 c9 -17 7 -23 -11 -36 -16 -11 -20 -22 -15 -41 4 -20
-3 -40 -27 -78 -32 -49 -58 -60 -58 -25 0 10 3 20 6 24 4 3 8 25 9 48 2 25 10
46 19 51 8 5 23 24 32 43 19 40 29 43 45 14z m1089 11 c0 -5 -4 -10 -10 -10
-5 0 -10 5 -10 10 0 6 5 10 10 10 6 0 10 -4 10 -10z m-1246 -6 c19 -7 21 -37
4 -67 -7 -12 -14 -40 -17 -62 -5 -35 -10 -41 -41 -51 -39 -13 -48 -28 -29 -50
11 -14 10 -19 -10 -36 -34 -27 -47 -9 -25 33 10 19 17 46 16 60 -1 15 5 32 13
39 8 7 13 16 10 20 -6 10 21 88 36 107 13 15 20 16 43 7z m-2594 -13 c0 -5 -6
-14 -14 -20 -12 -10 -13 -8 -9 8 5 21 23 30 23 12z m-1339 -54 c-12 -12 -31 0
-31 19 0 12 3 12 20 2 11 -7 16 -16 11 -21z m5335 -39 l59 -3 8 -70 c9 -70 11
-78 46 -145 11 -19 22 -55 25 -79 3 -24 10 -49 15 -55 16 -21 20 -110 6 -129
-23 -32 -49 -13 -73 56 -12 34 -22 70 -22 79 0 26 -30 111 -46 129 -8 8 -14
24 -14 35 0 21 -18 44 -33 44 -5 0 -6 -15 -2 -32 3 -18 9 -54 12 -80 4 -39 2
-48 -10 -48 -28 0 -87 107 -87 158 0 15 -9 45 -19 67 -26 58 -35 114 -20 131
10 12 18 9 54 -20 36 -30 51 -35 101 -38z m-6149 40 c-3 -8 -6 -5 -6 6 -1 11
2 17 5 13 3 -3 4 -12 1 -19z m2923 -9 c6 -11 12 -33 12 -50 1 -16 5 -29 10
-29 4 0 8 -9 8 -19 0 -11 5 -23 10 -26 6 -3 10 -19 10 -34 0 -15 5 -32 12 -39
6 -6 8 -15 4 -19 -12 -13 -46 37 -46 67 0 42 -26 85 -70 115 -43 30 -52 46
-21 38 10 -3 22 0 25 6 11 18 34 13 46 -10z m-2868 -31 c-7 -7 -12 -8 -12 -2
0 14 12 26 19 19 2 -3 -1 -11 -7 -17z m2583 12 c3 -5 1 -10 -4 -10 -6 0 -11 5
-11 10 0 6 2 10 4 10 3 0 8 -4 11 -10z m111 -6 c-3 -9 -6 -18 -6 -20 0 -3 -4
-3 -10 1 -11 7 -2 35 12 35 6 0 7 -7 4 -16z m2504 1 c0 -18 -65 -86 -74 -78
-21 21 5 71 44 86 25 9 30 8 30 -8z m-2681 -23 c3 -5 17 -15 30 -21 19 -11 22
-18 17 -42 -4 -21 -1 -31 9 -35 8 -4 15 -13 15 -21 0 -12 -3 -13 -13 -4 -10 8
-17 7 -25 -1 -8 -8 -15 -8 -25 0 -11 9 -18 8 -32 -8 -23 -26 -35 -25 -35 0 0
11 -7 23 -15 26 -18 7 -20 41 -2 47 10 3 10 9 0 26 -25 41 -17 54 28 48 23 -3
45 -10 48 -15z m-316 -6 c9 -7 17 -18 17 -25 0 -22 -46 -91 -61 -91 -11 0 -39
60 -39 85 0 13 9 26 23 33 29 14 39 14 60 -2z m422 -15 c3 -5 1 -12 -5 -16 -5
-3 -10 1 -10 9 0 18 6 21 15 7z m2305 -11 c0 -5 -5 -12 -11 -16 -14 -8 -33 11
-25 25 7 11 36 4 36 -9z m-2170 -10 c0 -11 -7 -20 -15 -20 -27 0 -18 30 13 39
1 1 2 -8 2 -19z m4698 -14 c28 -57 -23 -78 -56 -24 -16 26 -15 28 3 42 26 20
37 16 53 -18z m-7678 2 c0 -16 -3 -19 -11 -11 -6 6 -8 16 -5 22 11 17 16 13
16 -11z m5276 -15 c-11 -11 -19 6 -11 24 8 17 8 17 12 0 3 -10 2 -21 -1 -24z
m-4902 1 c25 -24 19 -37 -8 -17 -13 10 -22 21 -19 26 6 10 10 9 27 -9z m70
-48 c14 -30 26 -57 26 -60 0 -11 -38 -6 -47 7 -20 24 -25 107 -8 107 2 0 15
-24 29 -54z m-194 34 c0 -5 -4 -10 -10 -10 -5 0 -10 5 -10 10 0 6 5 10 10 10
6 0 10 -4 10 -10z m4986 -45 c-25 -19 -36 -19 -36 0 0 10 10 15 28 15 26 -1
26 -1 8 -15z m-122 -20 c-4 -8 -10 -15 -14 -15 -5 0 -10 -10 -12 -22 -2 -15
-11 -24 -25 -26 -21 -3 -22 -1 -12 27 6 17 17 31 25 31 8 0 14 5 14 10 0 6 7
10 15 10 9 0 12 -6 9 -15z m-4798 -18 c32 5 34 4 34 -21 0 -19 -7 -29 -25 -36
-18 -7 -25 -17 -25 -37 0 -37 -9 -48 -41 -50 -18 -1 -36 8 -54 27 l-28 29 26
10 c15 6 27 15 27 21 0 5 10 10 23 10 20 0 23 4 20 38 -1 20 0 29 3 20 4 -13
13 -15 40 -11z m2118 2 c-6 -11 -24 -2 -24 11 0 5 7 7 15 4 8 -4 12 -10 9 -15z
m329 -9 c10 -27 15 -30 40 -24 26 5 27 4 21 -20 -5 -19 -2 -26 9 -26 13 0 13
-5 4 -30 -8 -22 -14 -26 -24 -19 -6 6 -17 8 -22 5 -12 -8 -61 88 -61 120 0 34
19 30 33 -6z m159 13 c19 -17 24 -43 9 -43 -6 0 -17 10 -25 22 -27 38 -17 51
16 21z m115 -69 c-10 -10 -37 16 -37 36 0 31 14 32 29 1 8 -17 12 -34 8 -37z
m273 23 c0 -18 5 -38 12 -45 9 -9 9 -12 -2 -12 -28 1 -50 27 -50 59 0 24 4 31
20 31 16 0 20 -7 20 -33z m1368 5 c2 -12 -1 -22 -7 -22 -13 0 -32 35 -24 44
12 12 28 0 31 -22z m-1478 -7 c0 -8 -4 -15 -10 -15 -5 0 -10 7 -10 15 0 8 5
15 10 15 6 0 10 -7 10 -15z m2240 -5 c0 -5 -4 -10 -10 -10 -5 0 -10 5 -10 10
0 6 5 10 10 10 6 0 10 -4 10 -10z m-542 -27 c-1 -10 1 -24 6 -31 13 -21 -1
-42 -28 -42 -31 0 -40 24 -21 61 17 32 48 40 43 12z m-1931 -15 c12 -16 25
-78 16 -78 -18 0 -43 36 -43 62 0 30 11 36 27 16z m1686 5 c3 -5 -1 -21 -7
-38 l-13 -30 -16 32 c-10 18 -17 34 -17 38 0 8 48 6 53 -2z m102 -40 l-8 -28
-7 25 c-8 31 -1 55 13 41 5 -5 6 -21 2 -38z m-4335 -8 c0 -24 -5 -35 -15 -35
-16 0 -18 12 -9 48 10 34 24 26 24 -13z m7270 13 c0 -22 -26 -58 -42 -58 -10
0 -11 64 -1 73 15 16 43 6 43 -15z m-4794 -15 c-10 -10 -19 5 -10 18 6 11 8
11 12 0 2 -7 1 -15 -2 -18z m2716 3 c8 -12 11 -56 4 -56 -3 0 -16 4 -30 10
-23 8 -35 38 -21 52 9 9 40 5 47 -6z m-2953 -22 c13 -30 1 -54 -30 -54 -31 0
-41 32 -17 58 27 28 32 28 47 -4z m707 1 c8 -21 -6 -41 -17 -24 -12 19 -11 39
1 39 6 0 13 -7 16 -15z m1619 -52 c-12 -17 -20 -22 -27 -15 -7 7 -3 21 13 44
19 26 24 29 27 15 2 -10 -4 -29 -13 -44z m-4617 37 c17 0 15 -27 -3 -34 -8 -3
-26 -1 -39 6 -30 13 -23 42 8 34 11 -3 27 -6 34 -6z m4253 -30 c-8 -41 -45
-58 -39 -18 2 12 7 22 13 20 5 -2 13 7 17 19 12 32 18 20 9 -21z m-1732 16 c7
-8 21 -12 31 -9 17 5 20 0 20 -35 0 -43 -21 -62 -46 -41 -7 6 -19 9 -25 7 -13
-4 -20 -76 -8 -84 4 -2 6 -32 3 -65 -4 -58 -3 -61 16 -56 18 5 20 0 20 -37 0
-23 -5 -47 -11 -53 -8 -8 -8 -17 0 -32 15 -28 4 -73 -18 -69 -16 4 -18 20 -5
71 6 24 4 27 -21 27 -25 0 -27 2 -21 33 5 27 2 39 -17 58 -14 13 -26 38 -29
54 -4 29 -2 30 27 27 l31 -4 2 74 c2 40 5 81 8 90 3 10 0 26 -6 38 -9 18 -8
20 13 20 14 0 30 -6 36 -14z m-2653 -23 c-10 -10 -19 5 -10 18 6 11 8 11 12 0
2 -7 1 -15 -2 -18z m2902 -12 c3 -16 -1 -22 -10 -19 -7 3 -15 15 -16 27 -3 16
1 22 10 19 7 -3 15 -15 16 -27z m2280 11 c2 -7 -3 -12 -12 -12 -9 0 -16 7 -16
16 0 17 22 14 28 -4z m-2135 -30 c8 -7 18 -29 22 -50 4 -20 13 -49 21 -65 14
-27 17 -28 38 -13 21 13 27 13 59 -2 31 -14 36 -22 37 -50 0 -18 7 -44 16 -57
9 -13 13 -29 9 -35 -9 -15 -38 -12 -32 3 10 27 -55 133 -74 121 -5 -3 -9 -18
-9 -33 0 -15 -6 -36 -14 -46 -13 -18 -14 -18 -25 4 -7 12 -10 29 -7 36 2 7 -4
15 -15 18 -12 3 -19 14 -19 30 0 13 -7 30 -16 37 -18 16 -44 75 -44 101 0 21
28 21 53 1z m-693 -6 c0 -7 9 -25 20 -39 24 -30 26 -57 5 -57 -11 0 -14 7 -9
25 3 14 2 25 -4 25 -16 0 -33 -26 -26 -43 10 -28 -13 -26 -34 3 l-22 29 21 36
c21 35 49 47 49 21z m2910 -10 c0 -3 -4 -8 -10 -11 -5 -3 -10 -1 -10 4 0 6 5
11 10 11 6 0 10 -2 10 -4z m-4150 -16 c0 -5 -5 -10 -11 -10 -5 0 -7 5 -4 10 3
6 8 10 11 10 2 0 4 -4 4 -10z m3134 -37 c-8 -45 -12 -53 -26 -53 -10 0 -3 63
8 82 14 22 24 4 18 -29z m104 19 c2 -7 -3 -12 -12 -12 -9 0 -16 7 -16 16 0 17
22 14 28 -4z m-3826 -24 c11 -32 -15 -77 -44 -78 -15 0 -18 9 -18 43 0 68 43
92 62 35z m1734 17 c10 -26 -28 -105 -63 -132 -36 -28 -57 -25 -30 4 13 15 13
22 3 42 -11 20 -10 29 8 62 17 31 27 39 49 39 15 0 30 -7 33 -15z m240 -5 c8
0 14 -10 14 -24 0 -19 -6 -25 -30 -28 -28 -4 -30 -3 -30 30 0 27 3 33 16 28 9
-3 22 -6 30 -6z m2624 -6 c0 -11 -5 -14 -16 -10 -9 3 -18 6 -20 6 -3 0 -2 5 1
10 10 16 35 12 35 -6z m1858 4 c17 -17 15 -26 -8 -38 -22 -12 -60 -5 -60 10 0
13 30 40 44 40 6 0 17 -5 24 -12z m-4014 -41 c11 -8 17 -23 14 -38 -4 -30 -23
-23 -23 9 1 12 -5 22 -12 22 -7 0 -13 5 -13 10 0 14 13 13 34 -3z m-2294 -46
c-1 -16 -27 -58 -33 -50 -1 2 -9 17 -17 33 -13 25 -13 29 4 42 22 16 46 3 46
-25z m3630 14 c0 -14 -4 -25 -10 -25 -5 0 -10 11 -10 25 0 14 5 25 10 25 6 0
10 -11 10 -25z m508 -12 c3 -26 -1 -32 -22 -37 -22 -5 -26 -12 -26 -40 0 -21
6 -36 15 -40 19 -7 19 -36 1 -61 -13 -18 -14 -18 -39 1 -28 21 -41 52 -28 68
5 6 11 23 15 39 3 15 11 27 16 27 6 0 10 13 10 30 0 28 24 53 45 46 6 -1 11
-16 13 -33z m-2340 -9 c7 -41 11 -47 26 -35 11 10 17 8 24 -6 16 -27 -4 -56
-33 -49 -21 5 -25 1 -35 -33 -14 -52 -35 -68 -26 -19 5 29 2 38 -19 58 -34 32
-32 60 8 87 37 25 51 24 55 -3z m227 16 c3 -5 1 -10 -4 -10 -6 0 -11 5 -11 10
0 6 2 10 4 10 3 0 8 -4 11 -10z m115 -50 c0 -27 -12 -31 -27 -10 -9 12 -12 29
-7 42 6 21 7 21 20 3 8 -10 14 -26 14 -35z m1830 34 c0 -8 -5 -12 -10 -9 -6 4
-8 11 -5 16 9 14 15 11 15 -7z m1299 -42 c18 -49 51 -169 51 -190 0 -57 -23
-66 -61 -24 -40 42 -63 115 -56 178 3 29 8 58 11 63 11 17 44 0 55 -27z
m-5219 3 c0 -14 -38 -41 -52 -37 -5 1 -8 -3 -8 -9 0 -6 9 -9 20 -6 18 5 20 0
20 -49 0 -30 5 -54 10 -54 6 0 10 -9 10 -21 0 -16 -4 -19 -19 -14 -14 4 -23 0
-31 -15 -14 -27 -3 -90 17 -90 11 0 13 -7 8 -32 -10 -45 -24 -70 -36 -63 -5 4
-3 15 6 28 21 30 19 40 -9 33 -16 -4 -32 1 -47 13 -21 17 -24 28 -24 90 0 74
6 82 37 54 17 -15 18 -15 18 10 0 16 -8 32 -20 39 -23 15 -29 71 -6 62 7 -3
22 5 32 18 11 13 27 27 37 31 9 3 17 11 17 17 0 5 5 10 10 10 6 0 10 -7 10
-15z m4894 -24 c9 -16 13 -31 10 -34 -3 -2 8 -47 24 -98 16 -52 36 -121 44
-154 11 -48 18 -60 34 -60 16 0 19 -8 22 -55 3 -50 0 -58 -25 -82 -49 -47 -66
-14 -125 232 -11 47 -29 105 -39 129 -21 47 -19 87 7 129 19 29 30 28 48 -7z
m-1322 -11 c-2 -16 -8 -27 -13 -24 -11 6 -12 38 -2 47 14 14 19 6 15 -23z
m-3808 4 c18 -18 20 -30 6 -39 -5 -3 -10 -18 -10 -32 0 -15 -10 -33 -25 -45
-14 -11 -25 -28 -25 -39 0 -12 -7 -19 -20 -19 -11 0 -20 3 -20 6 0 17 35 111
46 125 8 8 14 25 14 37 0 26 12 28 34 6z m4106 -4 c0 -11 -4 -20 -10 -20 -5 0
-10 9 -10 20 0 11 5 20 10 20 6 0 10 -9 10 -20z m-1670 6 c0 -2 3 -11 6 -20 4
-11 1 -16 -10 -16 -9 0 -16 2 -16 4 0 2 -3 11 -6 20 -4 11 -1 16 10 16 9 0 16
-2 16 -4z m685 -16 c0 -7 -6 -15 -12 -17 -8 -3 -13 4 -13 17 0 13 5 20 13 18
6 -3 12 -11 12 -18z m-3187 -18 c2 -14 -2 -22 -11 -22 -17 0 -30 27 -21 41 9
16 29 4 32 -19z m4451 2 c-14 -18 -24 -11 -15 11 3 9 11 13 16 10 8 -5 7 -11
-1 -21z m-362 -11 c-9 -9 -19 -14 -23 -11 -10 10 6 28 24 28 15 0 15 -1 -1
-17z m657 11 c10 -4 16 -18 16 -35 0 -22 -6 -30 -24 -35 -44 -11 -59 15 -34
56 14 22 18 23 42 14z m1924 -6 c7 -7 12 -20 12 -31 0 -32 -44 -18 -48 16 -4
29 14 37 36 15z m-3748 -13 c15 -18 6 -45 -15 -45 -10 0 -15 10 -15 30 0 33
11 38 30 15z m3554 0 c3 -8 1 -26 -4 -40 -8 -20 -13 -23 -32 -16 -24 9 -33 48
-10 43 7 -1 15 5 18 13 8 19 20 19 28 0z m-4798 -12 c3 -10 12 -30 20 -45 18
-33 18 -52 -1 -68 -13 -11 -52 -126 -87 -255 -6 -22 -21 -64 -34 -93 -15 -32
-24 -72 -24 -101 0 -29 -6 -53 -14 -60 -8 -7 -17 -27 -20 -46 -9 -44 -21 -51
-51 -31 -29 19 -32 46 -9 81 9 14 14 34 11 44 -6 26 39 209 78 311 29 80 55
185 55 228 0 15 5 33 12 40 18 18 58 15 64 -5z m699 7 c3 -5 1 -10 -4 -10 -6
0 -11 5 -11 10 0 6 2 10 4 10 3 0 8 -4 11 -10z m291 -38 c-8 -9 -19 -13 -22
-9 -10 9 16 38 28 31 6 -4 4 -13 -6 -22z m-772 -36 c18 -6 18 -8 -4 -31 -29
-31 -54 -33 -45 -5 3 10 -1 30 -10 43 -20 31 -8 43 19 19 12 -11 30 -22 40
-26z m-1761 11 c15 -6 16 -10 4 -39 -9 -21 -21 -34 -36 -36 -21 -3 -22 -1 -16
35 9 55 15 69 23 57 4 -6 15 -13 25 -17z m2211 8 c-4 -8 -8 -15 -10 -15 -2 0
-4 7 -4 15 0 8 4 15 10 15 5 0 7 -7 4 -15z m194 4 c-2 -6 -8 -10 -13 -10 -5 0
-11 4 -13 10 -2 6 4 11 13 11 9 0 15 -5 13 -11z m2565 -77 c8 -20 20 -62 27
-92 7 -30 22 -77 33 -105 11 -27 24 -68 28 -90 19 -96 27 -123 42 -146 30 -42
16 -119 -21 -119 -10 0 -25 16 -36 38 -10 20 -22 44 -26 53 -5 9 -13 51 -20
94 -6 42 -19 96 -27 119 -17 47 -29 91 -43 159 -5 27 -19 60 -30 74 -24 31
-25 41 -4 64 15 16 18 17 39 3 13 -8 30 -32 38 -52z m-2388 28 c-5 -24 -3 -30
10 -30 17 0 64 -38 65 -52 0 -4 -14 -16 -31 -29 -23 -16 -33 -19 -42 -10 -14
14 -44 14 -49 -1 -2 -6 -10 -8 -16 -4 -8 5 -9 13 -2 25 6 12 5 22 -2 29 -15
15 -1 45 17 38 8 -3 16 0 16 7 1 7 2 17 4 22 1 6 3 16 3 23 1 6 9 12 18 12 12
0 14 -7 9 -30z m1920 3 c11 -7 32 -13 48 -13 16 0 38 -5 49 -11 17 -9 25 -6
52 19 23 23 35 28 49 21 9 -5 25 -13 34 -17 14 -7 16 -25 15 -131 -2 -95 1
-127 13 -144 8 -12 15 -33 15 -46 0 -14 5 -39 12 -58 6 -18 9 -36 5 -39 -10
-10 -37 16 -37 36 0 21 -60 140 -71 140 -4 0 -18 17 -30 38 -32 52 -98 112
-124 112 -13 0 -26 9 -33 24 -6 13 -20 27 -30 30 -20 7 -32 32 -25 53 5 13 26
8 58 -14z m-4295 -13 c0 -5 -5 -10 -11 -10 -5 0 -7 5 -4 10 3 6 8 10 11 10 2
0 4 -4 4 -10z m1824 -16 c20 -19 20 -34 2 -34 -8 0 -17 -9 -21 -20 -7 -21 -59
-63 -68 -54 -3 3 -8 -3 -11 -14 -4 -11 -23 -28 -43 -37 -20 -10 -46 -29 -59
-44 -18 -21 -25 -24 -35 -13 -10 10 -11 19 -1 46 7 19 10 46 7 59 -8 30 24 57
68 57 15 0 38 9 50 21 12 11 34 23 50 26 15 3 27 9 27 14 0 14 17 11 34 -7z
m1751 6 c-3 -5 -13 -10 -21 -10 -8 0 -12 5 -9 10 3 6 13 10 21 10 8 0 12 -4 9
-10z m364 -50 c0 -11 -5 -8 -19 8 -10 13 -16 30 -13 39 5 12 8 11 19 -8 7 -13
13 -31 13 -39z m-2498 21 c15 -16 48 -35 71 -43 l43 -13 -1 -73 c-1 -49 -7
-80 -19 -98 -9 -14 -15 -37 -14 -52 2 -15 -2 -36 -8 -47 -17 -32 -41 -116 -48
-167 -5 -42 -3 -51 17 -71 47 -47 63 -199 28 -267 -11 -22 -20 -52 -20 -67 0
-16 -9 -46 -19 -67 -11 -21 -23 -52 -26 -69 -12 -58 -16 -67 -33 -67 -30 0
-41 43 -31 122 4 40 13 89 19 108 14 49 13 56 -8 36 -11 -9 -24 -34 -31 -55
-14 -47 -29 -55 -60 -30 -18 15 -22 25 -16 47 3 15 10 59 15 99 4 40 11 77 14
82 4 5 11 31 17 58 13 63 25 114 43 193 9 36 16 81 16 100 0 31 -1 33 -16 19
-15 -15 -37 -89 -54 -179 -4 -25 -15 -63 -24 -85 -8 -22 -15 -56 -16 -75 -1
-44 -16 -110 -27 -121 -6 -6 -19 -1 -33 11 l-24 21 -18 -23 c-14 -19 -18 -20
-18 -6 0 9 5 20 10 23 6 3 10 30 10 58 0 30 7 60 15 71 8 11 15 31 15 44 0 14
5 43 11 66 18 70 28 108 45 181 8 39 25 90 35 115 11 24 21 61 23 82 4 42 34
137 49 156 15 19 36 14 68 -17z m742 12 c12 -4 17 -15 17 -39 0 -18 -3 -35 -7
-37 -15 -9 -49 11 -62 36 -17 32 -8 62 17 52 9 -4 25 -10 35 -12z m1058 -14
c-11 -78 1 -159 24 -159 8 0 15 -6 15 -12 0 -7 3 -30 6 -50 6 -36 5 -39 -29
-53 -20 -8 -41 -24 -47 -35 -6 -12 -21 -20 -36 -20 -18 0 -28 9 -42 38 -9 20
-23 41 -29 45 -7 4 -13 14 -13 21 0 8 -7 19 -15 26 -13 11 -13 15 1 41 8 16
23 29 33 29 30 0 87 64 101 114 13 47 38 59 31 15z m1429 -69 c11 -30 20 -63
20 -74 0 -10 14 -61 30 -113 17 -52 35 -122 40 -156 6 -34 15 -84 21 -112 6
-27 12 -69 13 -91 1 -23 8 -49 15 -57 9 -12 10 -21 1 -37 -14 -26 -31 -22 -47
11 -53 108 -91 214 -104 284 -5 28 -15 79 -24 115 -8 36 -19 88 -24 115 -5 28
-17 70 -26 95 -29 81 -29 82 -4 101 23 18 25 18 47 -4 12 -12 31 -47 42 -77z
m-1568 58 c-15 -15 -24 -6 -16 16 5 12 10 14 17 7 8 -8 8 -14 -1 -23z m-588 7
c-6 -16 -24 -21 -24 -7 0 11 11 22 21 22 5 0 6 -7 3 -15z m2632 -22 c7 -10 14
-35 14 -56 0 -31 -4 -39 -26 -47 -14 -6 -27 -10 -30 -10 -7 0 -5 116 3 123 11
12 25 8 39 -10z m-1616 -33 c0 -5 -9 -14 -20 -20 -22 -12 -27 -1 -8 18 14 14
28 16 28 2z m-1602 -34 c4 -36 -11 -54 -33 -36 -15 13 -20 51 -8 64 15 15 38
0 41 -28z m614 -58 c10 -16 4 -32 -25 -68 -25 -32 -39 -37 -80 -32 -19 3 -29
12 -33 29 -5 17 -10 21 -17 14 -19 -19 -39 -13 -32 10 6 17 4 20 -12 15 -63
-18 -73 -18 -73 0 0 11 4 25 8 31 11 17 66 9 98 -14 26 -19 26 -19 60 13 30
29 37 32 66 23 17 -5 35 -14 40 -21z m1058 22 c0 -5 -4 -10 -10 -10 -5 0 -10
5 -10 10 0 6 5 10 10 10 6 0 10 -4 10 -10z m-1440 -16 c0 -17 -22 -14 -28 4
-2 7 3 12 12 12 9 0 16 -7 16 -16z m1573 -50 c15 -20 16 -28 7 -39 -17 -20
-30 -19 -57 7 -25 24 -30 44 -10 51 26 11 43 6 60 -19z m-3496 -10 c8 -21 -19
-38 -30 -18 -9 16 -1 34 14 34 5 0 12 -7 16 -16z m5982 7 c12 -8 11 -16 -10
-48 -14 -21 -28 -46 -32 -56 -4 -9 -15 -20 -24 -24 -18 -6 -42 -26 -101 -85
-18 -18 -51 -52 -75 -75 -41 -42 -67 -54 -67 -32 0 5 -4 7 -10 4 -5 -3 -10 2
-10 11 0 18 102 124 118 124 11 0 62 64 62 77 0 4 15 18 33 31 18 12 46 36 62
52 32 33 34 34 54 21z m-6271 -13 c20 -20 14 -36 -13 -30 -24 4 -33 21 -18 35
9 10 17 9 31 -5z m1642 -4 c0 -17 -22 -14 -28 4 -2 7 3 12 12 12 9 0 16 -7 16
-16z m-1466 -20 c7 -28 -7 -54 -31 -54 -20 0 -27 27 -15 56 15 32 38 31 46 -2z
m186 -14 c7 -13 7 -26 1 -37 -16 -31 -23 -56 -28 -103 -4 -49 -31 -112 -50
-117 -16 -6 -26 52 -13 77 9 17 9 25 -3 38 -25 30 -47 85 -42 103 4 12 21 20
50 25 24 3 50 12 56 20 15 18 16 18 29 -6z m2420 -112 c0 -9 -4 -20 -10 -23
-5 -3 -10 -17 -10 -31 0 -16 -6 -24 -18 -24 -9 0 -23 -9 -30 -20 -7 -11 -23
-20 -36 -20 -14 0 -28 -4 -31 -10 -4 -6 5 -10 19 -10 22 0 26 -5 26 -29 0 -44
-33 -51 -65 -14 -30 35 -31 53 -4 60 18 5 20 11 15 42 -3 20 -12 40 -19 46
-17 12 -34 64 -30 86 2 9 15 21 28 27 14 7 25 16 25 21 0 5 8 11 18 14 21 5
122 -90 122 -115z m-913 96 c4 -11 8 -12 13 -4 5 8 12 7 24 -6 22 -21 7 -40
-20 -26 -11 6 -27 13 -36 16 -22 7 -24 36 -3 36 9 0 18 -7 22 -16z m487 -10
c-6 -25 -5 -26 20 -20 24 6 26 4 26 -24 0 -38 -21 -90 -47 -112 -14 -13 -29
-16 -55 -11 -31 5 -39 11 -53 45 l-16 40 43 47 c59 64 93 79 82 35z m-379 -12
c-3 -3 -11 0 -18 7 -9 10 -8 11 6 5 10 -3 15 -9 12 -12z m2159 -7 c-10 -31
-33 -53 -72 -66 l-35 -12 38 -18 c21 -10 42 -16 46 -13 17 10 9 -13 -11 -31
-19 -17 -21 -17 -40 0 -18 16 -20 16 -20 2 0 -20 -35 -57 -54 -57 -15 0 -86
102 -86 124 0 26 21 29 51 7 37 -27 67 -20 71 17 2 19 9 27 23 27 13 0 21 8
23 21 2 16 10 20 37 20 30 -1 34 -4 29 -21z m-2049 4 c13 -20 -4 -59 -26 -59
-12 0 -23 -8 -26 -20 -3 -11 -9 -17 -15 -14 -5 3 -4 12 3 20 9 11 9 20 0 41
-10 21 -9 28 1 34 18 12 56 11 63 -2z m-315 -25 c0 -8 -7 -14 -15 -14 -17 0
-18 2 -9 24 7 18 24 12 24 -10z m105 -14 c3 -5 1 -10 -4 -10 -6 0 -11 5 -11
10 0 6 2 10 4 10 3 0 8 -4 11 -10z m-99 -48 c-28 -45 -79 -63 -105 -38 -12 13
-12 18 3 40 13 21 24 26 61 26 24 0 47 5 50 11 4 6 9 8 12 6 2 -3 -7 -23 -21
-45z m159 18 c3 -5 1 -10 -4 -10 -6 0 -11 5 -11 10 0 6 2 10 4 10 3 0 8 -4 11
-10z m2559 -35 c3 -8 -2 -22 -11 -30 -14 -14 -18 -14 -30 -2 -7 7 -11 21 -7
30 8 21 40 22 48 2z m-4044 -4 c0 -23 -14 -41 -31 -41 -22 0 -23 4 -9 31 11
19 40 27 40 10z m2416 -9 c-7 -20 43 -103 74 -125 9 -6 21 -23 25 -37 4 -14
14 -33 23 -42 12 -14 12 -20 2 -33 -7 -8 -18 -15 -25 -15 -7 0 -22 -17 -32
-37 -11 -21 -35 -48 -54 -61 l-34 -23 -43 88 c-49 99 -84 194 -76 202 3 3 13
6 22 6 10 0 18 10 20 25 5 36 20 50 53 50 15 0 31 5 34 10 10 16 17 11 11 -8z
m1385 2 c10 -12 8 -20 -12 -40 l-25 -24 -33 28 c-19 16 -31 33 -28 39 10 16
84 14 98 -3z m-1713 -49 c43 -42 45 -48 45 -98 -1 -69 -12 -117 -33 -139 -15
-17 -18 -17 -23 -4 -4 9 -13 16 -20 16 -8 0 -20 7 -27 15 -7 9 -24 14 -37 13
-20 -2 -29 5 -44 31 -10 19 -24 38 -30 42 -18 11 4 76 39 114 22 24 61 51 81
54 1 1 24 -19 49 -44z m-533 11 c26 -24 26 -25 9 -49 -15 -20 -22 -22 -41 -13
-25 12 -31 54 -11 74 15 15 13 16 43 -12z m1865 11 c0 -6 -7 -18 -15 -27 -12
-14 -12 -22 1 -69 l16 -53 -33 -34 c-18 -19 -39 -34 -46 -34 -7 0 -13 -7 -13
-15 0 -8 -3 -15 -7 -15 -10 0 -43 32 -43 42 0 5 -9 22 -21 37 -43 58 -20 128
53 164 34 16 108 19 108 4z m767 -7 c3 -11 13 -20 23 -20 29 0 103 -196 105
-282 1 -34 9 -67 19 -83 23 -35 13 -109 -17 -130 -20 -14 -23 -13 -45 10 -42
46 -51 33 -27 -38 13 -39 13 -49 1 -79 -20 -46 -50 -73 -64 -56 -12 15 -52
175 -52 209 0 25 26 59 45 59 7 0 20 -9 30 -20 27 -30 35 -25 35 26 0 35 -6
54 -26 77 -24 28 -25 36 -19 91 3 34 3 89 -1 124 -6 54 -10 65 -30 72 -37 14
-30 56 9 59 5 1 11 -8 14 -19z m1077 -23 c9 -15 7 -21 -9 -33 -11 -8 -26 -13
-34 -12 -20 4 -35 32 -28 52 9 23 56 18 71 -7z m-3859 -37 c-6 -29 3 -35 109
-75 24 -9 29 -17 32 -53 2 -23 4 -45 5 -49 4 -25 -3 -43 -17 -43 -12 0 -15 6
-10 26 5 20 3 25 -11 24 -34 -4 -42 0 -45 23 -2 18 -12 24 -52 31 -62 12 -79
-4 -64 -62 11 -42 11 -35 5 -159 -3 -55 -1 -93 4 -93 5 0 19 15 30 34 11 19
27 37 35 40 15 6 11 49 -8 73 -11 14 -4 43 10 43 4 0 19 -14 31 -31 17 -23 20
-34 12 -42 -17 -17 -13 -45 10 -61 18 -12 20 -21 15 -47 -3 -18 -1 -38 5 -45
11 -14 4 -34 -12 -34 -5 0 -14 12 -19 26 -10 24 -14 26 -51 21 -25 -3 -50 0
-67 9 -24 12 -27 20 -28 66 -1 29 -6 64 -11 78 -14 36 -23 111 -12 104 19 -11
22 29 3 44 -13 9 -15 16 -7 19 12 4 9 47 -4 83 -4 8 -5 23 -4 33 1 9 -3 17 -8
17 -6 0 -11 7 -11 16 0 24 25 11 28 -15 6 -36 28 -35 64 1 38 39 52 39 43 -2z
m1438 -39 c68 -105 67 -102 49 -142 -10 -20 -36 -58 -60 -85 -24 -27 -48 -55
-53 -61 -5 -7 -13 -13 -18 -13 -9 0 -81 150 -81 171 0 8 -5 20 -11 26 -16 16
-2 49 39 93 20 22 45 48 55 60 9 11 21 20 27 20 5 0 29 -31 53 -69z m-2881 -8
c18 -56 14 -70 -15 -50 -20 13 -41 80 -29 92 15 15 31 0 44 -42z m1796 14 c6
-5 12 -18 12 -28 0 -9 7 -24 15 -33 14 -13 13 -16 -7 -27 -13 -7 -35 -25 -50
-41 -23 -24 -30 -27 -47 -18 -12 6 -23 25 -26 48 -11 64 -9 82 8 82 8 0 22 9
31 19 18 19 37 19 64 -2z m3728 -29 c-10 -52 -33 -78 -66 -78 -35 0 -38 15
-14 65 11 23 24 35 42 38 15 2 31 5 36 6 5 0 6 -13 2 -31z m-5335 3 c22 -17
22 -21 10 -45 -28 -52 -103 -14 -79 40 13 29 38 31 69 5z m1029 -1 c0 -5 -4
-10 -10 -10 -5 0 -10 5 -10 10 0 6 5 10 10 10 6 0 10 -4 10 -10z m674 -31 c-3
-5 -10 -7 -15 -3 -5 3 -7 10 -3 15 3 5 10 7 15 3 5 -3 7 -10 3 -15z m1346 -62
c62 -95 62 -106 -6 -182 -31 -36 -62 -64 -68 -62 -6 2 -23 28 -39 58 -15 29
-33 57 -39 60 -6 4 -13 25 -15 46 -1 21 -10 43 -19 50 -16 11 -15 14 7 32 13
11 29 21 34 21 6 0 23 11 39 24 17 13 38 21 48 18 10 -2 36 -32 58 -65z m495
37 c14 -27 16 -40 8 -52 -7 -12 -7 -22 1 -35 9 -15 7 -22 -13 -38 -13 -10 -26
-19 -30 -19 -12 0 -59 77 -66 108 -5 24 -1 33 21 51 38 30 57 26 79 -15z m353
-16 c22 -22 14 -62 -16 -76 -23 -11 -29 -10 -39 5 -26 34 -10 83 27 83 9 0 21
-5 28 -12z m-1788 -45 c17 -21 43 -62 57 -91 l26 -54 -32 -61 c-17 -34 -42
-75 -55 -90 l-23 -28 -36 61 c-21 34 -37 63 -37 66 0 2 -11 22 -25 44 -28 45
-32 82 -10 100 8 6 17 22 21 33 20 66 68 74 114 20z m-347 -26 c61 -57 69 -80
42 -127 -8 -14 -14 -35 -15 -46 0 -12 -10 -28 -22 -36 -15 -10 -19 -20 -15
-32 6 -15 10 -16 22 -6 8 7 15 18 15 25 0 15 56 59 86 69 29 9 75 -9 68 -27
-3 -8 11 -41 30 -73 40 -65 47 -129 21 -174 -8 -14 -19 -35 -24 -46 -9 -20
-91 -94 -104 -94 -3 0 -7 19 -9 43 -2 23 -7 41 -11 39 -23 -8 -87 97 -87 144
0 26 -5 37 -18 41 -10 2 -27 23 -39 46 -11 23 -35 70 -52 105 -35 72 -38 97
-14 132 21 32 55 70 62 70 3 0 32 -24 64 -53z m1057 47 c0 -3 -7 -12 -15 -20
-13 -14 -15 -13 -15 5 0 12 6 21 15 21 8 0 15 -3 15 -6z m2410 -9 c0 -12 -85
-86 -105 -91 -20 -5 -23 -3 -18 15 10 39 58 81 92 81 17 0 31 -2 31 -5z
m-2420 -51 c0 -8 -5 -12 -10 -9 -6 4 -8 11 -5 16 9 14 15 11 15 -7z m556 2
c11 -8 26 -33 34 -55 14 -43 14 -41 -24 -121 -17 -37 -59 -38 -91 -4 -14 15
-25 36 -25 48 0 12 -9 38 -20 59 -22 41 -19 61 8 53 10 -3 33 4 52 14 43 23
41 23 66 6z m-904 -13 c9 -10 25 -36 37 -58 12 -22 25 -47 30 -55 4 -8 13 -29
18 -47 9 -27 7 -37 -21 -77 -17 -25 -36 -46 -43 -46 -6 0 -17 -16 -23 -35 -14
-42 -44 -62 -66 -44 -8 6 -14 20 -14 29 0 26 -66 152 -90 172 -20 16 -20 18
40 97 51 68 65 81 89 81 15 0 35 -8 43 -17z m2408 -8 c0 -19 -13 -25 -30 -15
-11 7 -11 11 -1 24 15 17 31 13 31 -9z m-2042 -66 c88 -103 96 -184 25 -251
-76 -71 -95 -88 -101 -88 -4 0 -18 30 -31 68 -13 37 -30 76 -38 87 -24 36 -16
82 27 145 55 81 76 88 118 39z m2258 16 c4 -8 3 -23 0 -32 -6 -15 -8 -15 -22
-2 -8 9 -12 23 -8 32 8 21 23 22 30 2z m-61 -84 c3 -36 -51 -93 -84 -89 -37 4
-39 38 -4 76 45 48 85 54 88 13z m-1870 -3 c28 -13 75 -101 75 -143 0 -28
-115 -175 -137 -175 -15 0 -33 32 -33 57 0 10 -9 36 -20 58 -22 44 -25 85 -9
118 8 17 86 95 96 97 1 0 14 -5 28 -12z m477 -28 c8 -38 1 -80 -13 -80 -5 0
-9 -9 -9 -21 0 -11 -4 -17 -10 -14 -5 3 -10 15 -10 26 0 10 -9 36 -20 57 l-20
37 21 18 c31 25 52 17 61 -23z m-3482 -13 c0 -20 -1 -20 -16 -5 -9 9 -13 21
-9 27 10 16 25 3 25 -22z m1472 10 c-12 -15 4 -87 20 -87 14 0 8 -43 -12 -88
-12 -26 -29 -46 -45 -52 -35 -13 -32 -15 -56 34 -40 87 -21 179 40 192 14 3
33 9 41 13 20 11 26 5 12 -12z m-539 -17 c-3 -12 -8 -19 -11 -16 -5 6 5 36 12
36 2 0 2 -9 -1 -20z m-65 -22 c5 -7 15 -30 22 -50 13 -34 11 -41 -18 -101 -25
-49 -32 -78 -32 -121 0 -43 -5 -61 -20 -76 -28 -28 -38 -25 -46 15 -3 19 -12
39 -20 46 -18 15 -18 39 2 68 10 13 18 48 19 84 3 57 22 121 41 140 12 11 40
8 52 -5z m1244 -5 c10 -9 18 -24 18 -33 0 -10 11 -33 24 -52 35 -52 49 -100
37 -129 -6 -13 -30 -46 -54 -74 -54 -61 -59 -58 -117 62 -35 71 -41 93 -37
125 6 42 44 93 82 108 27 12 26 12 47 -7z m348 7 c0 -5 -5 -10 -11 -10 -5 0
-7 5 -4 10 3 6 8 10 11 10 2 0 4 -4 4 -10z m2 -37 c0 -5 2 -20 3 -35 2 -33 41
-125 66 -157 31 -39 23 -60 -47 -128 -37 -34 -70 -63 -74 -63 -13 0 -37 35
-54 83 -10 26 -29 61 -43 77 -29 35 -25 54 17 99 17 17 30 34 30 38 0 5 14 14
31 22 19 8 36 26 43 42 10 27 24 38 28 22z m878 -55 c7 -27 10 -71 8 -97 -8
-77 -66 -137 -95 -98 -5 6 -17 42 -26 79 -14 60 -15 72 -1 103 15 37 67 77 89
68 8 -2 19 -27 25 -55z m-2190 38 c0 -3 -4 -8 -10 -11 -5 -3 -10 -1 -10 4 0 6
5 11 10 11 6 0 10 -2 10 -4z m1661 -39 c-13 -13 -26 -3 -16 12 3 6 11 8 17 5
6 -4 6 -10 -1 -17z m1914 -13 c0 -25 -5 -30 -37 -38 -27 -7 -38 -15 -38 -28 0
-22 -69 -93 -100 -103 -11 -3 -20 -12 -20 -18 0 -7 -19 -28 -41 -47 -23 -19
-59 -60 -80 -91 -24 -35 -49 -61 -67 -67 -19 -6 -38 -26 -53 -53 -14 -24 -46
-58 -75 -78 -46 -33 -87 -73 -225 -226 -25 -27 -51 -65 -58 -82 -8 -18 -19
-33 -26 -33 -8 0 -27 -11 -43 -25 -17 -14 -42 -25 -56 -25 -20 0 -26 -5 -26
-21 0 -11 -5 -29 -10 -40 -14 -25 -67 -52 -75 -39 -13 20 16 75 49 97 20 13
37 34 41 50 4 18 25 41 61 67 30 22 54 43 54 48 0 11 65 76 112 111 20 16 41
41 46 57 6 16 21 34 33 41 27 14 58 49 59 65 0 11 87 84 99 84 3 0 17 16 30
35 12 19 38 43 56 54 19 11 43 38 55 60 11 23 24 41 29 41 12 0 81 65 81 76 0
5 14 17 30 26 17 9 30 24 30 32 0 21 97 99 115 92 8 -3 17 -1 21 5 11 19 29 3
29 -27z m-3650 -4 c3 -5 1 -10 -4 -10 -6 0 -11 5 -11 10 0 6 2 10 4 10 3 0 8
-4 11 -10z m2405 -26 c0 -8 -2 -14 -4 -14 -2 0 -11 -3 -20 -6 -12 -5 -16 0
-16 18 0 14 3 28 7 31 9 9 33 -12 33 -29z m-672 14 c5 -7 15 -33 22 -57 6 -25
22 -60 35 -79 18 -26 21 -40 15 -62 -11 -39 -110 -170 -129 -170 -18 0 -51 29
-51 46 0 7 -6 25 -14 41 -8 15 -20 47 -26 69 -14 49 -10 59 65 158 51 67 64
76 83 54z m-1853 -38 c32 -12 50 -54 36 -89 -6 -14 -12 -44 -15 -66 -2 -22 -7
-60 -11 -85 l-8 -45 21 19 c29 25 43 17 58 -35 30 -97 7 -207 -39 -193 -43 13
-49 25 -43 78 6 51 -5 89 -18 67 -13 -20 -31 -11 -50 23 -15 28 -18 56 -18
140 1 115 16 183 41 189 9 3 17 5 18 6 1 0 13 -3 28 -9z m187 -30 c-5 -34 -13
-37 -36 -15 -20 20 -10 45 18 45 19 0 22 -4 18 -30z m47 21 c7 -5 11 -14 7
-19 -9 -15 -36 -4 -36 14 0 16 9 18 29 5z m396 -53 c36 -44 65 -59 87 -47 19
10 26 -5 8 -16 -6 -4 -7 -40 -3 -94 l6 -88 -43 -6 c-52 -7 -85 4 -101 35 l-13
23 -6 -29 c-4 -26 -9 -30 -39 -30 -31 -1 -36 3 -43 33 -12 46 1 58 47 44 35
-11 35 -11 35 18 0 17 -7 44 -16 60 -18 35 -12 62 11 53 24 -10 47 14 35 36
-26 48 -3 53 35 8z m-209 7 c18 0 23 -7 27 -45 4 -36 1 -49 -15 -64 -14 -13
-17 -21 -9 -29 13 -13 15 -47 2 -47 -5 0 -11 -10 -13 -22 -4 -27 -26 -30 -42
-6 -8 13 -8 23 0 35 7 13 7 25 -3 43 -7 14 -13 53 -13 88 0 61 1 63 23 56 12
-5 32 -8 43 -9z m601 -86 c24 -46 43 -98 43 -116 0 -34 -27 -93 -48 -107 -8
-4 -20 -24 -28 -43 -24 -57 -50 -38 -103 74 -11 24 -23 62 -26 86 -6 38 -2 50
36 112 43 72 57 87 74 82 6 -2 29 -41 52 -88z m1186 48 c23 -50 36 -118 26
-143 -4 -11 -27 -37 -52 -57 -36 -30 -50 -36 -64 -28 -10 5 -25 12 -34 14 -9
3 -19 21 -22 41 -10 59 3 108 39 149 19 20 34 44 34 53 0 11 8 14 27 12 21 -2
32 -13 46 -41z m-1946 -14 c15 -21 31 -39 36 -41 10 -5 9 -32 -2 -32 -6 0 -13
5 -16 10 -3 6 -17 10 -30 10 -13 0 -26 4 -30 10 -3 5 -13 6 -21 3 -14 -5 -15
-1 -9 28 4 19 9 37 12 42 10 17 34 5 60 -30z m1096 -114 c49 -92 51 -97 39
-135 -7 -24 -20 -43 -34 -49 -13 -6 -27 -24 -33 -43 -7 -26 -13 -31 -30 -26
-11 4 -26 11 -34 18 -7 6 -21 11 -30 11 -11 0 -18 15 -24 54 -4 30 -14 68 -22
84 -12 25 -13 34 -1 62 8 18 24 38 35 45 12 6 21 16 21 22 0 16 42 59 53 55 5
-1 32 -46 60 -98z m1907 65 c6 -14 10 -39 10 -55 0 -23 -4 -29 -22 -29 -31 0
-68 38 -68 71 0 23 5 28 28 32 15 2 30 5 35 6 4 0 12 -11 17 -25z m-3114 -36
c-3 -13 -6 -33 -6 -45 0 -14 -6 -23 -15 -23 -11 0 -15 12 -15 45 0 39 3 45 21
45 17 0 20 -4 15 -22z m2311 -20 c5 -13 8 -40 5 -60 -4 -37 -3 -38 28 -38 27
0 30 -2 21 -14 -7 -8 -26 -18 -42 -21 -16 -4 -39 -20 -51 -36 -12 -16 -27 -29
-32 -29 -13 0 -56 89 -56 114 0 32 39 94 62 99 46 9 55 7 65 -15z m-2189 -94
c-22 -61 -68 -84 -68 -33 0 27 18 59 44 80 29 24 42 1 24 -47z m1393 14 c9
-18 24 -52 34 -75 l18 -43 -46 -67 c-85 -127 -106 -135 -127 -55 -7 26 -17 52
-21 57 -4 6 -15 33 -24 60 -16 45 -16 50 0 61 9 7 26 32 38 56 18 36 28 44 57
49 41 6 50 1 71 -43z m322 2 c11 -19 23 -63 28 -98 8 -57 7 -67 -15 -110 -36
-70 -82 -114 -115 -110 -22 3 -27 9 -33 48 -4 25 -10 61 -14 81 -4 28 0 50 20
92 15 30 33 61 42 68 8 7 22 26 30 41 18 35 32 32 57 -12z m-1432 -74 c35 -30
46 -78 24 -100 -22 -22 -32 -20 -61 11 -31 33 -39 65 -24 92 14 27 28 26 61
-3z m-367 -7 c-6 -11 -24 -2 -24 11 0 5 7 7 15 4 8 -4 12 -10 9 -15z m631 -19
c20 -22 27 -33 66 -107 24 -44 25 -54 16 -95 -9 -35 -17 -47 -38 -55 -49 -19
-76 -6 -96 46 -9 25 -23 52 -31 60 -7 7 -10 21 -6 30 3 9 8 25 11 36 7 27 47
105 54 105 3 0 14 -9 24 -20z m359 -76 c22 -55 36 -106 33 -118 -27 -105 -29
-120 -18 -124 15 -5 14 -24 -4 -58 l-14 -29 -12 33 c-13 38 -31 41 -52 10 -18
-27 -30 -19 -47 35 -6 20 -16 37 -21 37 -5 0 -9 8 -9 17 0 9 -5 31 -12 49 -14
38 4 128 35 182 16 28 57 60 78 62 3 0 23 -43 43 -96z m-746 49 c2 -14 -2 -23
-10 -24 -7 0 -22 -2 -33 -4 -94 -17 -107 -17 -103 2 2 10 13 19 25 21 12 2 27
10 34 18 8 10 25 14 48 12 29 -2 37 -8 39 -25z m1029 -5 c17 -28 32 -108 39
-208 l6 -105 -51 -47 -51 -48 -16 25 c-9 14 -22 40 -28 58 -19 50 -39 87 -46
87 -4 0 -10 -9 -13 -20 -3 -11 -1 -20 4 -20 14 0 10 -36 -6 -50 -16 -13 -10
-69 10 -85 6 -5 15 -22 18 -37 8 -33 46 -48 59 -24 7 12 14 14 28 6 10 -6 21
-6 24 -1 3 4 16 6 29 4 18 -4 26 0 29 15 7 24 57 39 70 20 7 -10 11 -9 22 5
18 23 22 22 40 -15 23 -46 21 -60 -9 -52 -22 5 -27 2 -36 -24 -9 -28 -14 -30
-40 -25 -38 7 -40 -19 -3 -36 17 -8 24 -17 20 -27 -3 -9 -6 -25 -6 -37 0 -20
0 -20 -15 -1 -14 18 -16 18 -29 2 -12 -16 -36 -25 -36 -14 0 2 -3 11 -6 20 -4
12 0 16 15 16 28 0 26 14 -6 45 -40 36 -53 32 -53 -15 0 -29 -4 -40 -15 -40
-9 0 -15 9 -15 22 0 21 0 21 -21 2 -17 -16 -22 -16 -29 -4 -13 20 -8 33 20 47
21 10 39 31 40 44 0 3 -19 5 -42 4 -34 -1 -44 -5 -47 -20 -2 -11 -10 -24 -18
-30 -11 -9 -9 -15 17 -40 27 -26 30 -35 30 -87 0 -55 -1 -58 -19 -46 -32 20
-45 52 -31 77 10 20 9 23 -9 28 -11 3 -22 4 -24 2 -5 -6 -63 63 -80 96 -18 37
-12 76 20 123 12 19 23 41 23 48 0 8 6 14 14 14 7 0 19 14 26 30 11 26 10 37
-3 72 -15 36 -15 43 -1 69 9 19 22 29 37 29 13 0 36 13 52 30 15 16 41 32 57
36 27 5 29 9 24 35 -9 47 11 77 31 47z m810 -8 c-3 -12 -2 -34 3 -50 12 -44
-12 -136 -45 -170 -32 -33 -45 -31 -45 9 0 15 -9 37 -21 50 -24 26 -31 78 -14
104 19 28 88 76 109 77 14 0 17 -5 13 -20z m-1569 -48 c2 -7 -3 -12 -12 -12
-9 0 -16 7 -16 16 0 17 22 14 28 -4z m-259 -51 c22 -45 23 -53 11 -83 -19 -49
-26 -53 -54 -34 -33 21 -33 37 0 154 6 23 19 12 43 -37z m-667 17 c-7 -7 -12
-8 -12 -2 0 14 12 26 19 19 2 -3 -1 -11 -7 -17z m368 -24 c3 -21 9 -44 13 -51
9 -14 -28 -37 -44 -27 -6 3 -17 20 -24 37 -12 28 -11 35 7 60 26 36 42 30 48
-19z m2364 0 c11 -30 6 -37 -14 -19 -11 10 -17 22 -14 26 8 14 21 11 28 -7z
m-2736 -31 c-5 -25 -28 -28 -28 -4 0 12 6 21 16 21 9 0 14 -7 12 -17z m1981
-37 c17 -18 23 -39 26 -92 3 -38 8 -68 12 -67 5 1 16 5 26 8 13 6 20 -1 32
-28 16 -38 12 -62 -11 -71 -22 -9 -16 -26 9 -26 17 0 27 -10 40 -38 23 -51 22
-72 -3 -72 -11 0 -20 7 -20 15 0 18 -31 20 -47 4 -34 -34 -57 30 -27 75 17 27
6 41 -25 31 -14 -4 -23 0 -31 14 -6 12 -23 27 -38 35 -23 12 -29 24 -40 82
-12 63 -12 69 6 84 10 8 23 27 30 43 14 33 32 34 61 3z m-1155 -2 c8 -21 8
-39 -1 -31 -3 4 -12 2 -20 -4 -11 -10 -11 -16 2 -36 18 -27 12 -59 -13 -67 -9
-3 -25 -20 -34 -36 -17 -30 -18 -30 -43 -14 -14 9 -25 21 -25 28 0 19 38 74
58 85 10 5 27 28 37 50 19 44 29 50 39 25z m124 -61 c2 -24 -1 -33 -17 -38
-10 -3 -22 -13 -25 -21 -11 -27 -26 -4 -26 40 0 50 6 58 40 54 20 -2 26 -9 28
-35z m1348 5 c22 -43 19 -103 -6 -135 -20 -26 -19 -36 14 -78 15 -20 16 -20
38 7 25 28 63 44 72 30 3 -5 -15 -30 -39 -55 -39 -42 -47 -46 -69 -37 -16 6
-26 17 -26 29 0 23 -16 36 -25 21 -11 -18 -50 -10 -67 14 -10 13 -20 53 -24
89 l-7 65 37 17 c21 10 44 29 53 41 20 32 29 30 49 -8z m-471 6 c17 -13 18
-16 5 -24 -25 -16 -50 -12 -50 8 0 34 15 39 45 16z m-650 -37 c0 -28 21 -47
68 -61 14 -4 16 -10 8 -24 -5 -9 -7 -48 -5 -85 3 -37 3 -67 1 -67 -12 0 -59
29 -70 43 -15 19 -67 32 -67 16 0 -14 -60 -2 -80 17 -13 13 -11 17 13 40 15
13 27 30 27 36 0 6 11 1 25 -12 l25 -23 0 49 c0 28 -5 55 -10 60 -20 20 0 45
34 42 27 -3 31 -7 31 -31z m-545 -57 c27 -14 60 -73 60 -106 0 -34 -35 -114
-49 -114 -5 0 -20 14 -32 32 -17 23 -22 43 -20 76 1 30 -3 50 -15 63 -16 18
-16 20 1 39 20 23 29 24 55 10z m327 -32 c-3 -8 -6 -5 -6 6 -1 11 2 17 5 13 3
-3 4 -12 1 -19z m-62 -87 c-9 -8 -25 21 -25 44 0 16 3 14 15 -9 9 -16 13 -32
10 -35z m-52 -28 c-7 -49 -20 -73 -38 -73 -14 0 -20 18 -15 50 2 15 39 57 52
59 4 1 4 -16 1 -36z m505 5 c4 -33 -6 -35 -36 -7 -26 23 -20 42 11 37 16 -2
23 -11 25 -30z m-359 -12 c28 -30 21 -63 -16 -77 -34 -13 -34 -12 -27 16 4 15
1 32 -6 40 -10 12 -10 18 0 30 17 20 23 19 49 -9z m-244 -56 c-4 -14 1 -32 17
-53 55 -73 75 -151 44 -176 -35 -29 -96 53 -103 140 -7 75 1 109 28 109 16 0
19 -4 14 -20z m1525 -12 c0 -16 -3 -19 -11 -11 -6 6 -8 16 -5 22 11 17 16 13
16 -11z m-1426 -34 c4 -10 1 -14 -6 -12 -15 5 -23 28 -10 28 5 0 13 -7 16 -16z
m296 -65 c0 -5 -7 -9 -15 -9 -18 0 -34 30 -27 49 4 11 9 9 23 -8 11 -13 19
-27 19 -32z m250 23 c0 -15 -5 -33 -10 -38 -16 -16 6 -68 25 -60 18 6 18 5 5
-28 -5 -15 -17 -26 -27 -26 -18 0 -43 40 -43 69 0 13 -2 13 -9 2 -7 -11 -13
-9 -30 8 -34 34 -24 62 29 82 61 23 60 23 60 -9z m1481 -9 c-6 -10 -12 -30
-16 -45 -6 -30 -29 -37 -39 -12 -10 25 -7 32 16 54 28 26 52 27 39 3z m-821
-85 c0 -10 -7 -18 -15 -18 -17 0 -30 42 -20 67 6 16 8 15 20 -7 8 -14 14 -33
15 -42z m234 37 c-6 -16 -24 -21 -24 -7 0 11 11 22 21 22 5 0 6 -7 3 -15z
m-554 -15 c0 -5 -5 -10 -11 -10 -5 0 -7 5 -4 10 3 6 8 10 11 10 2 0 4 -4 4
-10z m1050 -43 c0 -35 -43 -106 -82 -137 -13 -10 -33 -35 -43 -57 -24 -45 -37
-57 -90 -82 -22 -11 -49 -29 -59 -40 -19 -21 -56 -29 -56 -12 0 4 12 24 28 44
15 20 51 70 80 111 29 42 59 76 66 76 12 0 48 42 72 83 13 23 65 58 76 51 4
-3 8 -20 8 -37z m-1101 2 c8 -24 8 -36 -1 -47 -10 -12 -8 -18 10 -32 22 -18
29 -40 13 -40 -4 0 -8 -12 -8 -27 0 -101 -14 -331 -23 -365 -9 -32 -8 -48 5
-81 19 -48 15 -82 -20 -162 -14 -30 -28 -80 -31 -111 -5 -39 -15 -64 -33 -85
-31 -35 -38 -36 -76 -5 l-30 24 30 11 c17 7 36 14 44 16 10 4 12 23 8 83 -3
42 -9 121 -13 175 -5 68 -11 100 -21 104 -7 3 -13 15 -13 28 0 25 -24 50 -39
41 -17 -11 -23 15 -8 32 18 20 38 98 30 118 -3 8 2 16 10 20 9 3 19 19 22 34
4 19 24 42 56 66 41 32 49 43 49 71 0 17 6 44 12 59 10 22 10 28 0 32 -15 5
-16 42 -1 42 6 0 9 7 5 15 -3 8 -1 15 3 15 5 0 14 -14 20 -31z m231 15 c0 -8
-4 -12 -10 -9 -5 3 -10 10 -10 16 0 5 5 9 10 9 6 0 10 -7 10 -16z m-991 -35
c35 -12 38 -23 16 -66 -23 -45 -39 -57 -64 -43 -23 12 -29 67 -11 101 12 22
16 23 59 8z m191 -5 c0 -8 -4 -12 -10 -9 -5 3 -10 10 -10 16 0 5 5 9 10 9 6 0
10 -7 10 -16z m710 0 c0 -2 -9 -4 -21 -4 -11 0 -18 4 -14 10 5 8 35 3 35 -6z
m-380 -29 c0 -14 -4 -25 -10 -25 -5 0 -10 11 -10 25 0 14 5 25 10 25 6 0 10
-11 10 -25z m-386 -57 c11 -42 21 -48 29 -18 3 11 14 20 24 20 10 0 29 7 41
16 30 21 43 14 66 -32 10 -22 22 -46 27 -54 55 -95 67 -150 44 -195 -31 -55
-105 -52 -105 5 0 9 -8 31 -18 50 -31 62 -33 63 -46 45 -11 -16 -16 -15 -58 6
-55 29 -73 56 -83 126 -8 64 -2 75 38 71 28 -3 33 -8 41 -40z m736 32 c0 -5
-4 -10 -10 -10 -5 0 -10 5 -10 10 0 6 5 10 10 10 6 0 10 -4 10 -10z m190 -42
c48 -38 51 -44 45 -72 -4 -17 -8 -41 -10 -54 -1 -13 -9 -31 -19 -40 -17 -16
-19 -15 -50 21 -38 43 -58 117 -43 160 5 15 12 27 17 27 4 0 31 -19 60 -42z
m-620 12 c0 -5 -4 -10 -10 -10 -5 0 -10 -7 -10 -15 0 -22 -38 -39 -56 -24 -31
26 -7 59 43 59 18 0 33 -4 33 -10z m55 -69 c-3 -6 -14 -11 -23 -11 -13 0 -13
2 4 14 21 15 30 14 19 -3z m120 -31 c3 -5 1 -10 -4 -10 -6 0 -11 5 -11 10 0 6
2 10 4 10 3 0 8 -4 11 -10z m745 3 c0 -5 -5 -15 -10 -23 -8 -12 -10 -11 -10 8
0 12 5 22 10 22 6 0 10 -3 10 -7z m-402 -65 c-5 -15 -48 -24 -48 -10 0 14 12
22 33 22 10 0 17 -5 15 -12z m-411 -30 c-3 -8 -6 -5 -6 6 -1 11 2 17 5 13 3
-3 4 -12 1 -19z m325 -15 c-2 -21 -9 -42 -16 -48 -7 -5 -15 -18 -19 -27 -3
-10 -11 -18 -17 -18 -43 0 5 123 50 129 4 1 4 -16 2 -36z m619 -56 c-8 -8 -11
-7 -11 4 0 20 13 34 18 19 3 -7 -1 -17 -7 -23z m-1021 -7 c11 -27 11 -32 -6
-45 -27 -20 -42 -18 -49 5 -7 21 17 70 34 70 5 0 14 -14 21 -30z m760 10 c0
-5 -4 -10 -10 -10 -5 0 -10 5 -10 10 0 6 5 10 10 10 6 0 10 -4 10 -10z m230
-43 c0 -8 -11 -24 -24 -36 -13 -13 -27 -34 -30 -47 -4 -13 -13 -24 -20 -24
-22 0 -46 -29 -46 -55 0 -24 -44 -69 -79 -80 -11 -3 -29 -21 -40 -40 -13 -22
-28 -35 -41 -35 -11 0 -20 -5 -20 -10 0 -16 -112 -124 -142 -137 -17 -8 -28
-20 -28 -32 0 -24 -56 -91 -75 -91 -8 0 -17 -10 -20 -22 -4 -13 -27 -41 -52
-64 l-46 -40 18 -27 c11 -17 13 -27 6 -27 -6 0 -14 7 -17 15 -5 11 -10 12 -26
4 -15 -8 -18 -17 -14 -35 6 -21 2 -25 -25 -31 -30 -6 -31 -8 -26 -45 8 -63 0
-80 -37 -72 -17 3 -35 9 -41 12 -16 10 -95 10 -101 1 -11 -19 -45 -8 -54 16
-8 20 -16 25 -37 23 -24 -3 -28 1 -31 26 -3 27 -2 29 27 23 22 -5 31 -3 31 7
0 21 30 42 39 28 4 -7 24 -15 44 -19 32 -5 38 -3 46 18 6 17 16 24 36 24 23 0
42 17 107 95 65 79 77 100 73 123 -4 23 -1 27 19 27 15 0 33 12 50 35 15 19
32 35 38 35 11 0 79 56 156 129 25 23 49 38 57 35 9 -4 18 3 24 18 5 14 23 38
40 54 17 16 31 35 31 42 0 7 10 16 23 21 13 5 42 27 64 49 22 22 54 47 72 56
17 9 31 22 31 29 0 14 20 37 32 37 4 0 8 -6 8 -13z m-1070 -17 c0 -5 -4 -10
-10 -10 -5 0 -10 5 -10 10 0 6 5 10 10 10 6 0 10 -4 10 -10z m-12 -43 c2 -10
-3 -17 -12 -17 -10 0 -16 9 -16 21 0 24 23 21 28 -4z m68 -13 c-5 -14 -9 -15
-19 -5 -9 9 -9 14 3 21 18 11 24 6 16 -16z m463 -118 c13 -15 -1 -56 -18 -56
-5 0 -18 -27 -30 -59 -20 -57 -23 -59 -56 -59 -26 0 -38 6 -47 21 -8 16 -8 22
1 25 21 7 88 77 105 110 18 35 28 39 45 18z m-857 -66 c23 -22 48 -40 54 -40
17 0 29 -39 16 -52 -7 -7 -19 -4 -38 11 -15 11 -33 21 -40 21 -17 0 -54 57
-54 83 0 27 17 20 62 -23z m218 -214 c19 -23 9 -62 -15 -58 -30 5 -37 16 -29
46 7 29 25 34 44 12z m140 -259 c0 -8 -9 -22 -20 -32 -19 -18 -20 -17 -20 1 0
20 17 44 32 44 4 0 8 -6 8 -13z"/>
<path d="M635 5648 c-11 -6 -21 -12 -23 -13 -1 -1 2 -13 8 -27 15 -33 76 -56
96 -36 19 19 7 52 -26 71 -33 20 -29 19 -55 5z"/>
<path d="M2432 5153 c-12 -54 1 -83 18 -39 12 33 13 86 2 86 -5 0 -14 -21 -20
-47z"/>
<path d="M2741 5095 c-13 -22 -23 -47 -23 -55 1 -8 2 -40 2 -70 l1 -55 15 40
c20 52 36 131 32 158 -3 19 -6 17 -27 -18z"/>
<path d="M2992 4922 c-16 -11 -55 -82 -48 -89 3 -3 11 6 17 21 7 14 17 26 23
25 28 -3 36 3 36 26 0 26 -7 30 -28 17z"/>
<path d="M2880 4640 c0 -5 5 -10 10 -10 6 0 10 5 10 10 0 6 -4 10 -10 10 -5 0
-10 -4 -10 -10z"/>
<path d="M3479 5068 c-40 -80 -56 -188 -29 -188 11 0 30 48 30 76 0 14 5 45
11 69 15 61 8 85 -12 43z"/>
<path d="M3403 4707 c-6 -13 -8 -30 -3 -36 5 -8 9 -1 13 20 6 42 3 46 -10 16z"/>
<path d="M7507 5293 c-7 -11 9 -78 26 -108 7 -11 16 -38 22 -60 6 -25 17 -41
28 -43 24 -5 22 14 -12 94 -39 96 -57 129 -64 117z"/>
<path d="M2480 4551 c0 -6 8 -11 18 -11 9 0 28 -3 42 -6 17 -5 22 -3 15 4 -15
15 -75 26 -75 13z"/>
<path d="M6096 4820 c-10 -41 -24 -104 -32 -140 -7 -36 -17 -83 -23 -105 -6
-22 -11 -55 -11 -73 0 -28 -3 -32 -19 -27 -11 3 -22 1 -26 -5 -9 -14 -25 -3
-25 18 0 9 -5 24 -10 32 -8 12 -14 10 -39 -14 -27 -26 -29 -32 -24 -85 3 -31
10 -62 16 -69 16 -20 52 -11 52 13 0 13 13 27 40 40 30 15 41 28 46 52 4 18
13 43 21 55 18 29 43 107 36 113 -3 3 2 34 11 68 12 43 15 83 11 132 l-5 70
-19 -75z"/>
<path d="M5963 4785 c-15 -28 -33 -119 -33 -168 1 -41 1 -42 15 -17 17 31 39
146 33 180 -3 24 -4 24 -15 5z"/>
<path d="M5816 4668 c-7 -34 -3 -44 13 -33 13 8 15 52 2 59 -5 3 -11 -8 -15
-26z"/>
<path d="M5796 4441 c-12 -20 -19 -131 -8 -131 15 0 21 26 20 88 0 53 -2 59
-12 43z"/>
<path d="M5991 4348 c-10 -34 -16 -93 -13 -140 1 -19 6 -26 16 -22 8 3 16 29
20 70 4 35 9 78 13 94 8 43 -22 40 -36 -2z"/>
<path d="M5880 4310 c0 -5 5 -10 10 -10 6 0 10 5 10 10 0 6 -4 10 -10 10 -5 0
-10 -4 -10 -10z"/>
<path d="M5783 4260 c-3 -11 -9 -20 -14 -20 -5 0 -9 -11 -9 -25 0 -14 5 -25
10 -25 6 0 10 -11 10 -24 0 -32 15 -41 40 -23 18 12 18 15 5 20 -11 5 -15 21
-15 62 0 55 -16 76 -27 35z m14 -52 c-3 -8 -6 -5 -6 6 -1 11 2 17 5 13 3 -3 4
-12 1 -19z"/>
<path d="M6113 3723 c-3 -7 -3 -19 0 -27 8 -20 79 3 75 24 -4 19 -68 21 -75 3z"/>
<path d="M6110 3641 c0 -6 5 -13 10 -16 6 -3 10 1 10 9 0 9 -4 16 -10 16 -5 0
-10 -4 -10 -9z"/>
<path d="M4110 3822 c0 -10 -4 -22 -9 -27 -14 -15 -24 -95 -12 -95 5 0 13 17
16 38 8 50 11 64 20 85 4 10 3 17 -4 17 -6 0 -11 -8 -11 -18z"/>
<path d="M4102 3305 c-18 -40 -34 -154 -23 -172 8 -14 9 -14 14 3 2 10 5 33 6
49 1 17 5 55 10 85 10 63 9 70 -7 35z"/>
<path d="M2936 3649 c-12 -39 -15 -69 -7 -69 10 0 25 69 17 77 -3 3 -8 0 -10
-8z"/>
<path d="M4700 2751 c0 -6 5 -13 10 -16 6 -3 10 1 10 9 0 9 -4 16 -10 16 -5 0
-10 -4 -10 -9z"/>
</g>
</svg>
