<?xml version="1.0" encoding="UTF-8" standalone="no"?>
<svg
   xmlns:dc="http://purl.org/dc/elements/1.1/"
   xmlns:cc="http://creativecommons.org/ns#"
   xmlns:rdf="http://www.w3.org/1999/02/22-rdf-syntax-ns#"
   xmlns:svg="http://www.w3.org/2000/svg"
   xmlns="http://www.w3.org/2000/svg"
   xmlns:sodipodi="http://sodipodi.sourceforge.net/DTD/sodipodi-0.dtd"
   xmlns:inkscape="http://www.inkscape.org/namespaces/inkscape"
   version="1.0"
   width="815.000000pt"
   height="265.000000pt"
   viewBox="0 0 815.000000 265.000000"
   preserveAspectRatio="xMidYMid meet"
   id="svg1396"
   sodipodi:docname="Scan_20180616-_2_.svg"
   inkscape:version="0.92.2 5c3e80d, 2017-08-06"
   inkscape:export-filename="/Users/Hal/IllustratedGames-ebook/Illustrated-Patience-Games-ebook/e-book/OEBPS/images/thestar/thestarend.png"
   inkscape:export-xdpi="90"
   inkscape:export-ydpi="90">
  <metadata
     id="metadata1402">
    <rdf:RDF>
      <cc:Work
         rdf:about="">
        <dc:format>image/svg+xml</dc:format>
        <dc:type
           rdf:resource="http://purl.org/dc/dcmitype/StillImage" />
      </cc:Work>
    </rdf:RDF>
  </metadata>
  <defs
     id="defs1400" />
  <sodipodi:namedview
     pagecolor="#ffffff"
     bordercolor="#666666"
     borderopacity="1"
     objecttolerance="10"
     gridtolerance="10"
     guidetolerance="10"
     inkscape:pageopacity="0"
     inkscape:pageshadow="2"
     inkscape:window-width="1777"
     inkscape:window-height="1095"
     id="namedview1398"
     showgrid="false"
     inkscape:zoom="2.1202454"
     inkscape:cx="842.18304"
     inkscape:cy="132.00282"
     inkscape:window-x="0"
     inkscape:window-y="0"
     inkscape:window-maximized="0"
     inkscape:current-layer="svg1396" />
  <g
     transform="translate(0.000000,265.000000) scale(0.100000,-0.100000)"
     fill="#000000"
     stroke="none"
     id="g1394">
    <path
       d="M7793 2561 c-27 -21 -65 -47 -84 -56 -19 -10 -47 -28 -64 -41 -16 -12 -54 -29 -83 -38 -29 -8 -73 -29 -98 -45 -45 -31 -138 -66 -251 -95 -34 -8 -89 -29 -121 -45 -35 -17 -102 -38 -163 -50 -57 -11 -156 -33 -220 -50 -64 -16 -147 -35 -185 -41 -38 -6 -101 -18 -141 -27 -40 -8 -76 -12 -81 -9 -5 3 -53 -1 -108 -9 -54 -8 -121 -14 -149 -13 -27 0 -142 1 -255 2 -113 1 -250 8 -305 14 -55 7 -154 17 -220 23 -126 11 -178 24 -172 43 2 6 44 31 94 56 96 48 146 94 146 136 0 35 -23 55 -70 61 -36 5 -42 2 -69 -32 -84 -107 -125 -130 -269 -152 -58 -9 -194 -8 -231 1 -29 8 -134 102 -134 120 0 7 -16 28 -36 47 -20 18 -45 53 -55 75 -28 61 -44 71 -80 50 -31 -18 -49 -15 -49 10 0 18 -27 18 -60 0 -16 -10 -32 -11 -48 -5 -14 6 -31 5 -43 -1 -14 -8 -25 -6 -44 6 -19 13 -54 18 -131 20 -58 2 -109 6 -114 9 -5 3 -51 1 -102 -5 -113 -12 -124 -22 -163 -141 -22 -64 -38 -94 -74 -132 -56 -60 -91 -79 -161 -88 -30 -3 -98 -16 -150 -29 -101 -23 -136 -23 -254 4 -55 12 -74 21 -97 48 -15 18 -28 43 -29 54 0 29 -25 88 -44 103 -10 8 -30 10 -59 6 -51 -8 -60 -13 -76 -42 -17 -33 -1 -60 73 -130 66 -62 82 -97 49 -107 -10 -3 -73 -10 -141 -16 -67 -5 -143 -15 -167 -20 -24 -5 -86 -9 -137 -8 -51 1 -149 -2 -218 -7 -251 -16 -740 -3 -797 20 -20 8 -51 15 -69 15 -19 0 -62 7 -97 16 -170 43 -183 46 -322 68 -77 13 -155 35 -202 60 -29 14 -59 26 -66 26 -8 0 -20 6 -26 14 -6 7 -24 16 -39 19 -15 3 -61 29 -103 57 -41 28 -92 53 -112 57 l-37 6 0 -46 c0 -25 4 -49 10 -52 5 -3 10 -15 10 -26 0 -10 9 -24 20 -31 11 -7 20 -18 20 -25 0 -6 14 -22 31 -35 50 -38 169 -156 169 -167 0 -6 5 -11 11 -11 6 0 26 -12 44 -27 18 -16 64 -50 104 -76 46 -31 71 -55 71 -67 0 -10 5 -22 10 -25 6 -3 10 -15 10 -25 0 -10 12 -33 27 -51 25 -30 28 -41 31 -136 4 -100 5 -104 32 -123 50 -35 127 -25 202 27 31 21 41 23 53 13 8 -7 15 -27 15 -45 0 -61 30 -204 54 -258 40 -91 209 -207 301 -207 36 0 95 24 95 38 0 4 -9 35 -21 67 -12 33 -23 85 -26 116 -5 52 -2 64 37 144 32 63 50 90 69 97 24 9 31 5 86 -55 65 -70 90 -87 129 -87 41 0 55 10 76 54 11 22 31 59 45 81 13 22 27 47 31 55 10 23 47 50 67 50 10 0 46 -10 80 -21 52 -18 76 -20 155 -15 109 7 127 14 137 58 18 84 10 108 -60 178 -36 36 -65 70 -65 75 0 6 -9 21 -20 35 -22 28 -26 70 -7 70 193 8 262 13 312 22 104 19 155 21 155 7 0 -6 -12 -36 -26 -65 -36 -73 -35 -151 1 -204 46 -66 70 -83 120 -83 59 0 85 23 85 75 0 44 -22 93 -45 102 -9 3 -32 6 -51 6 -27 0 -34 4 -34 19 0 11 10 28 23 38 12 10 36 38 52 62 28 42 36 46 135 78 58 18 145 38 193 43 49 6 104 17 124 25 19 8 51 15 71 15 20 0 49 4 66 10 17 5 78 20 136 34 61 15 108 32 113 41 10 19 53 20 60 1 3 -8 -4 -22 -15 -33 -22 -19 -108 -188 -108 -211 0 -11 -19 -13 -97 -7 -54 3 -123 11 -153 16 -30 6 -83 12 -116 15 -105 8 -120 -35 -53 -151 53 -93 81 -131 121 -163 18 -15 71 -64 118 -110 50 -49 96 -85 113 -89 15 -3 27 -9 27 -14 0 -5 15 -25 32 -45 l33 -37 -30 -21 c-66 -47 -132 -118 -160 -173 -16 -32 -39 -71 -50 -88 -12 -16 -32 -54 -44 -83 -12 -29 -35 -74 -51 -99 -17 -26 -30 -51 -30 -56 0 -6 -13 -31 -29 -57 -26 -43 -51 -131 -51 -182 0 -9 11 -25 24 -33 20 -14 37 -14 117 -5 90 11 222 51 235 71 13 21 187 159 200 159 8 0 14 -10 14 -24 0 -13 9 -60 20 -105 12 -45 25 -121 30 -169 21 -196 63 -329 118 -373 25 -19 35 -21 119 -15 51 4 99 9 107 12 22 8 56 67 56 95 1 13 7 35 15 49 8 14 14 37 15 52 0 14 11 68 25 120 21 82 31 146 52 361 3 31 10 57 15 57 18 0 48 -21 48 -33 0 -18 127 -137 193 -181 54 -37 207 -96 246 -96 29 0 71 39 71 66 0 30 -34 109 -121 279 -115 226 -118 231 -258 380 -53 56 -81 97 -81 119 0 8 35 50 77 93 43 43 86 92 95 108 36 63 106 150 122 153 10 2 25 -3 34 -11 9 -8 32 -22 50 -31 20 -10 39 -31 47 -50 8 -18 27 -41 42 -51 85 -54 355 -322 383 -380 12 -25 27 -77 33 -115 10 -65 9 -73 -17 -133 -16 -39 -44 -81 -71 -107 l-44 -43 -68 6 c-56 5 -71 11 -88 31 -77 96 -86 120 -58 155 l18 22 56 -55 c66 -65 92 -70 134 -26 23 24 30 41 33 89 4 58 3 60 -38 105 -55 60 -99 74 -168 53 -28 -8 -54 -12 -57 -9 -3 3 -5 36 -5 74 l0 68 -62 65 c-34 36 -70 65 -80 65 -10 0 -40 -11 -67 -25 -38 -19 -52 -33 -65 -65 -15 -38 -15 -44 0 -76 17 -35 58 -74 77 -74 6 0 19 8 30 17 18 17 19 17 31 0 8 -10 15 -63 19 -129 7 -142 34 -214 118 -306 77 -85 105 -105 158 -113 25 -4 59 -11 74 -15 61 -15 180 50 229 125 26 40 58 185 58 267 0 20 5 52 12 71 12 32 11 34 -48 90 -32 32 -84 88 -113 126 -30 37 -58 67 -62 67 -11 0 -109 85 -126 110 -19 27 -2 50 39 50 98 0 195 127 159 207 -12 25 -13 26 -84 19 -86 -8 -101 -21 -94 -83 l4 -42 -81 -3 c-93 -3 -144 13 -236 75 -30 20 -60 37 -67 37 -17 0 -16 43 3 110 28 97 28 97 2 113 -17 11 -35 13 -73 7 -164 -26 -192 -32 -212 -40 -19 -8 -25 -5 -39 25 -19 41 -90 115 -110 115 -8 0 -19 11 -25 24 -6 13 -22 30 -35 37 -27 14 -32 29 -10 29 36 0 163 -33 272 -70 65 -22 155 -47 199 -54 44 -8 87 -17 95 -20 8 -3 44 -11 80 -16 36 -6 88 -15 115 -19 174 -29 407 -54 475 -52 57 2 175 -10 190 -19 17 -11 -13 -57 -89 -135 -33 -34 -66 -84 -97 -148 -54 -112 -54 -140 1 -163 31 -12 49 -12 149 1 134 17 152 23 201 66 40 36 61 33 80 -11 45 -104 95 -187 127 -213 l37 -30 46 28 c48 28 75 71 75 120 0 20 5 25 25 25 16 0 42 15 68 39 l43 39 49 -56 c75 -84 94 -112 107 -157 24 -86 26 -118 12 -167 -9 -29 -12 -63 -8 -86 20 -118 93 -111 230 22 89 88 117 137 126 221 4 39 11 103 15 142 5 45 14 79 25 89 15 15 20 14 70 -10 61 -30 141 -75 179 -99 31 -21 55 -14 73 22 23 46 28 98 12 143 -8 26 -12 62 -9 90 3 27 1 53 -5 60 -5 7 -13 32 -17 56 -6 40 -5 45 29 77 34 31 121 95 132 95 14 0 164 99 203 134 75 67 221 219 221 231 0 5 16 37 36 70 39 64 69 154 55 168 -5 5 -38 10 -73 13 -64 5 -67 4 -115 -35z m-3943 -168 c0 -13 -3 -13 -15 -3 -8 7 -15 16 -15 21 0 5 7 6 15 3 8 -4 15 -13 15 -21z m441 -26 c-6 -15 -17 -27 -25 -27 -28 0 -27 20 1 49 30 31 40 22 24 -22z m-85 -233 c28 -36 167 -154 182 -154 5 0 22 -12 37 -26 l28 -26 -24 -22 c-13 -12 -33 -25 -44 -28 -29 -9 -128 -52 -145 -63 -8 -5 -39 -17 -68 -27 -46 -14 -54 -14 -59 -2 -8 21 3 139 22 224 9 41 16 94 16 118 1 53 18 55 55 6z m-233 -192 c1 -204 -3 -214 -73 -193 -23 7 -49 21 -58 32 -9 12 -38 32 -64 45 -27 13 -48 27 -48 30 0 3 32 40 71 82 39 43 78 92 85 110 8 18 21 35 29 39 8 3 15 9 15 13 0 5 5 21 11 37 l11 28 10 -25 c5 -14 10 -103 11 -198z m3345 156 c17 -19 20 -31 15 -65 -4 -28 -11 -43 -22 -45 -11 -2 -16 -14 -16 -38 0 -24 -4 -34 -14 -32 -7 1 -19 -3 -27 -9 -15 -13 -32 -3 -69 38 -11 12 -33 23 -49 25 -40 4 -47 28 -9 28 37 0 61 18 65 50 2 18 15 31 48 47 56 27 52 27 78 1z m-308 -163 c18 -21 -24 -78 -51 -70 -12 4 -31 -1 -45 -10 -24 -15 -27 -15 -45 1 -26 23 -24 32 9 40 15 4 43 17 62 30 42 27 54 29 70 9z m-381 -29 c6 -7 32 -19 56 -26 25 -7 45 -16 45 -20 0 -4 -9 -18 -20 -31 l-20 -24 -23 28 c-21 25 -25 26 -37 13 -14 -17 -65 -22 -74 -7 -4 5 -1 22 5 37 16 44 46 57 68 30z m-5409 -71 c7 -8 16 -12 21 -9 5 3 9 0 9 -5 0 -6 -8 -11 -17 -11 -13 0 -14 -3 -5 -12 36 -36 -17 -53 -59 -20 -22 19 -22 19 -3 45 22 30 36 33 54 12z m116 -21 c-4 -9 -9 -15 -11 -12 -3 3 -3 13 1 22 4 9 9 15 11 12 3 -3 3 -13 -1 -22z m274 10 c0 -13 -21 -44 -30 -44 -14 0 -12 24 2 38 13 13 28 16 28 6z m-206 -49 c19 -39 41 -38 32 1 -5 17 -2 24 9 24 8 0 15 -7 15 -15 0 -8 5 -15 10 -15 6 0 10 -6 10 -14 0 -8 8 -22 17 -32 16 -15 16 -17 -2 -30 -10 -8 -26 -14 -34 -14 -8 0 -25 -10 -38 -22 -18 -17 -26 -19 -35 -10 -9 9 -9 15 0 24 16 16 15 48 -3 91 -28 67 -11 77 19 12z m5416 -25 c0 -11 0 -23 1 -27 0 -5 -7 -9 -15 -11 -12 -3 -16 5 -16 27 0 21 5 31 15 31 8 0 15 -9 15 -20z m368 8 c15 -15 16 -104 2 -113 -23 -14 -113 7 -137 32 -31 30 -19 49 37 58 21 4 46 13 57 20 22 18 26 18 41 3z m-5563 -63 c0 -60 -20 -101 -41 -84 -17 14 -18 30 -2 27 19 -4 22 41 4 48 -32 12 -10 68 24 62 11 -2 15 -17 15 -53z m4644 -6 c58 -57 64 -85 31 -156 -18 -40 -22 -43 -58 -43 -37 0 -42 4 -70 48 -23 37 -28 55 -25 84 4 28 10 38 27 40 16 2 21 9 19 28 -2 31 4 50 15 50 5 0 32 -23 61 -51z m-5222 4 c51 -33 11 -78 -74 -82 -33 -1 -44 3 -52 18 -15 27 -14 64 2 80 15 15 90 6 124 -16z m483 -33 c0 -5 -4 -10 -10 -10 -5 0 -10 5 -10 10 0 6 5 10 10 10 6 0 10 -4 10 -10z m414 -21 c2 -2 7 -22 10 -44 6 -34 3 -44 -13 -60 -12 -10 -21 -25 -21 -33 0 -23 -30 -52 -55 -52 -12 0 -34 13 -50 30 -26 27 -27 31 -15 62 7 18 19 40 27 49 7 8 13 21 13 27 0 17 32 31 67 28 18 -1 34 -4 37 -7z m2124 -55 c37 -26 23 -86 -24 -104 -41 -16 -64 3 -64 53 0 24 5 48 12 55 17 17 49 15 76 -4z m-285 -159 c21 -15 19 -50 -3 -50 -16 0 -42 44 -34 57 7 11 16 10 37 -7z m247 -50 c35 -18 37 -28 10 -55 -25 -25 -42 -25 -65 0 -15 17 -16 24 -7 45 13 29 22 30 62 10z m4 -196 c30 -23 34 -44 10 -53 -25 -10 -49 2 -64 30 -12 22 -12 27 0 34 21 13 24 13 54 -11z m219 -164 c-3 -9 -8 -14 -10 -11 -3 3 -2 9 2 15 9 16 15 13 8 -4z"
       id="path1388" />
    <path
       d="M3105 1578 c-11 -6 -23 -16 -27 -22 -15 -21 -8 -91 12 -124 26 -43 25 -53 -8 -85 -33 -32 -36 -32 -70 -8 -38 26 -93 42 -149 43 -73 1 -168 -52 -208 -116 -76 -124 -26 -328 114 -464 l55 -53 -12 -55 c-13 -64 -4 -98 36 -132 36 -31 107 -62 140 -62 55 1 162 91 162 136 0 11 -23 42 -56 76 -25 25 -13 50 40 85 26 18 60 50 75 70 37 53 101 160 101 169 0 4 6 15 14 23 8 9 23 39 34 66 11 28 33 79 50 115 16 36 33 81 37 100 4 19 16 45 27 57 39 42 11 83 -47 69 -30 -8 -86 -115 -115 -217 -10 -39 -26 -76 -34 -83 -8 -6 -21 -30 -28 -54 -9 -26 -37 -66 -74 -105 -75 -79 -131 -102 -214 -87 -116 20 -175 51 -186 98 -4 15 -11 33 -17 39 -5 7 -12 42 -14 77 -5 53 -2 70 17 103 28 51 66 73 127 73 47 0 49 -1 75 -48 23 -42 26 -52 14 -67 -10 -14 -16 -16 -34 -6 -28 15 -56 1 -77 -39 -22 -42 -19 -68 11 -95 34 -31 48 -31 123 1 48 21 63 32 67 53 3 14 10 39 15 55 5 16 9 39 9 52 0 18 12 30 48 49 87 45 117 83 141 172 10 37 9 48 -8 81 -11 21 -25 43 -33 49 -21 17 -110 25 -133 11z"
       id="path1390" />
    <path
       d="M5430 216 c0 -8 7 -16 15 -20 17 -6 18 -4 9 18 -8 20 -24 21 -24 2z"
       id="path1392" />
  </g>
  <rect
     style="opacity:1;fill:#00000b;fill-opacity:1;stroke:none;stroke-width:1.125;stroke-linejoin:round;stroke-miterlimit:4;stroke-dasharray:none;stroke-dashoffset:0;stroke-opacity:1"
     id="rect1949"
     width="52.352428"
     height="15.564237"
     x="380.26257"
     y="20.570747" />
  <rect
     style="opacity:1;fill:#00000b;fill-opacity:1;stroke:none;stroke-width:1.125;stroke-linejoin:round;stroke-miterlimit:4;stroke-dasharray:none;stroke-dashoffset:0;stroke-opacity:1"
     id="rect1951"
     width="65.440521"
     height="71.807724"
     x="372.12674"
     y="97.684464" />
  <path
     style="fill:none;fill-rule:evenodd;stroke:#000000;stroke-width:0.75px;stroke-linecap:butt;stroke-linejoin:miter;stroke-opacity:1"
     d="m 342.26852,118.80482 7.78212,-8.48959"
     id="path1953"
     inkscape:connector-curvature="0" />
  <path
     style="fill:none;fill-rule:evenodd;stroke:#000000;stroke-width:0.75px;stroke-linecap:butt;stroke-linejoin:miter;stroke-opacity:1"
     d="m 348.44626,122.96929 4.95226,-6.72092 v 0.35374"
     id="path1955"
     inkscape:connector-curvature="0" />
  <rect
     style="opacity:1;fill:#00000b;fill-opacity:1;stroke:none;stroke-width:0.74879438;stroke-linejoin:round;stroke-miterlimit:4;stroke-dasharray:none;stroke-dashoffset:0;stroke-opacity:1"
     id="rect1957"
     width="12.139207"
     height="6.886229"
     x="118.01712"
     y="330.68161"
     transform="matrix(0.69429637,-0.7196892,0.78725169,0.6166318,0,0)" />
  <ellipse
     style="opacity:1;fill:#00000b;fill-opacity:1;stroke:none;stroke-width:1.125;stroke-linejoin:round;stroke-miterlimit:4;stroke-dasharray:none;stroke-dashoffset:0;stroke-opacity:1"
     id="path1959"
     cx="99.550446"
     cy="98.415588"
     rx="9.504817"
     ry="13.506845" />
  <ellipse
     style="opacity:1;fill:#00000b;fill-opacity:1;stroke:none;stroke-width:1.125;stroke-linejoin:round;stroke-miterlimit:4;stroke-dasharray:none;stroke-dashoffset:0;stroke-opacity:1"
     id="path1961"
     cx="152.54639"
     cy="95.710709"
     rx="30.546391"
     ry="14.210709" />
  <path
     style="opacity:1;fill:#00000b;fill-opacity:1;stroke:none;stroke-width:6.04348946;stroke-linejoin:round;stroke-miterlimit:4;stroke-dasharray:none;stroke-dashoffset:0;stroke-opacity:1"
     id="path1967"
     sodipodi:type="arc"
     sodipodi:cx="106.52306"
     sodipodi:cy="72.699043"
     sodipodi:rx="35.487072"
     sodipodi:ry="33.067478"
     sodipodi:start="0"
     sodipodi:end="1.2717202"
     d="M 142.01014,72.699043 A 35.487072,33.067478 0 0 1 116.97888,104.29863 L 106.52306,72.699043 Z" />
  <rect
     style="opacity:1;fill:#00000b;fill-opacity:1;stroke:none;stroke-width:1.125;stroke-linejoin:round;stroke-miterlimit:4;stroke-dasharray:none;stroke-dashoffset:0;stroke-opacity:1"
     id="rect1975"
     width="77.03904"
     height="36.01825"
     x="646.32751"
     y="65.899109" />
  <rect
     style="opacity:1;fill:#00000b;fill-opacity:1;stroke:none;stroke-width:1.125;stroke-linejoin:round;stroke-miterlimit:4;stroke-dasharray:none;stroke-dashoffset:0;stroke-opacity:1"
     id="rect1977"
     width="18.009125"
     height="41.020786"
     x="614.31128"
     y="75.904175" />
  <rect
     style="opacity:1;fill:#00000b;fill-opacity:1;stroke:none;stroke-width:0.94988662;stroke-linejoin:round;stroke-miterlimit:4;stroke-dasharray:none;stroke-dashoffset:0;stroke-opacity:1"
     id="rect1983"
     width="23.013296"
     height="53.026867"
     x="175.08873"
     y="69.901115" />
  <rect
     style="opacity:1;fill:#00000b;fill-opacity:1;stroke:none;stroke-width:1.125;stroke-linejoin:round;stroke-miterlimit:4;stroke-dasharray:none;stroke-dashoffset:0;stroke-opacity:1"
     id="rect1985"
     width="33.604599"
     height="26.883678"
     x="700.03687"
     y="48.515625" />
</svg>
