<?xml version="1.0" standalone="no"?>
<!DOCTYPE svg PUBLIC "-//W3C//DTD SVG 20010904//EN"
 "http://www.w3.org/TR/2001/REC-SVG-20010904/DTD/svg10.dtd">
<svg version="1.0" xmlns="http://www.w3.org/2000/svg"
 width="878.000000pt" height="562.000000pt" viewBox="0 0 878.000000 562.000000"
 preserveAspectRatio="xMidYMid meet">

<g transform="translate(0.000000,562.000000) scale(0.100000,-0.100000)"
fill="#000000" stroke="none">
<path d="M655 5453 c-16 -9 -51 -33 -77 -55 -26 -21 -53 -38 -60 -37 -20 4
-58 -11 -58 -22 0 -14 124 0 169 18 23 10 80 16 171 17 75 2 142 6 148 10 6 4
43 -1 81 -10 65 -16 76 -16 143 -1 54 12 77 13 93 5 18 -11 316 -17 405 -10
19 2 94 -1 165 -7 156 -12 776 -18 793 -7 7 4 19 3 26 -3 8 -7 31 -11 52 -10
97 3 884 -10 893 -15 15 -10 25 14 12 27 -8 8 -58 13 -139 14 -70 1 -174 4
-232 6 -58 3 -152 5 -210 6 -58 1 -116 2 -130 2 -66 2 -92 3 -180 2 -125 -1
-332 5 -498 14 -73 5 -214 7 -315 5 -245 -3 -232 -3 -322 2 -44 3 -170 8 -280
11 -234 6 -417 15 -427 21 -9 6 -160 34 -178 34 -8 -1 -28 -8 -45 -17z"/>
<path d="M7086 5413 c-1 -1 -162 -4 -357 -7 -367 -5 -715 -13 -835 -21 -68 -5
-350 -6 -669 -3 -148 1 -164 -1 -209 -22 -47 -23 -52 -23 -120 -10 -100 19
-191 19 -191 0 0 -10 27 -22 85 -38 94 -25 199 -24 252 4 17 9 53 13 100 12
40 -1 152 -1 248 -1 96 1 243 1 325 1 83 0 233 3 335 6 201 7 1439 9 1690 3
85 -3 216 -7 290 -11 74 -4 173 -9 220 -11 140 -7 252 -21 260 -34 4 -7 5 -23
2 -37 -5 -26 2 -25 -152 -29 -41 -1 -82 -3 -90 -4 -8 -1 -37 0 -65 3 -156 15
-219 16 -300 7 -49 -5 -94 -6 -100 -1 -5 4 -44 5 -85 1 -41 -4 -113 -5 -160
-1 -47 3 -132 5 -190 3 -58 -1 -201 -3 -318 -3 -145 0 -219 -4 -232 -12 -14
-9 -22 -9 -33 0 -21 18 -461 17 -485 -1 -8 -7 -20 -7 -35 0 -13 6 -104 8 -222
6 -110 -1 -220 -2 -245 -1 -25 1 -72 0 -105 0 -144 -5 -174 -5 -247 -2 -84 4
-108 -6 -108 -46 0 -19 7 -26 30 -30 16 -4 32 -14 35 -23 9 -25 92 -82 128
-88 53 -8 163 63 151 99 -6 21 11 25 19 4 5 -11 23 -14 79 -13 59 2 76 6 97
25 28 25 53 30 45 7 -4 -8 -1 -21 5 -29 8 -10 6 -20 -10 -40 -11 -14 -27 -26
-35 -26 -18 0 -18 -14 1 -30 9 -8 12 -17 7 -22 -12 -12 -42 1 -42 19 0 8 -5
23 -10 33 -10 18 -12 18 -40 2 -19 -10 -40 -37 -55 -69 -14 -28 -28 -53 -33
-55 -14 -5 -74 -137 -67 -148 3 -5 17 -10 30 -10 34 0 55 -10 55 -27 0 -18
-39 -52 -61 -53 -22 0 -49 -32 -49 -59 0 -13 -6 -37 -14 -54 -17 -36 -28 -127
-30 -237 0 -41 -4 -79 -7 -85 -7 -11 -21 -62 -24 -85 -1 -9 -9 -38 -18 -65 -9
-28 -26 -83 -38 -122 -12 -40 -25 -73 -29 -73 -4 0 -10 -18 -13 -40 -3 -23
-11 -47 -17 -55 -15 -18 -66 -20 -74 -2 -3 6 -4 -8 -1 -32 3 -25 1 -49 -6 -57
-6 -7 -16 -35 -23 -60 -13 -50 -22 -59 -45 -45 -9 6 -10 13 -3 27 7 13 7 25 0
38 -7 12 -6 44 2 100 6 45 12 142 13 214 2 131 2 133 -23 152 -14 11 -28 20
-31 20 -3 0 -7 -48 -8 -107 -1 -97 -15 -170 -34 -189 -4 -4 -7 -14 -7 -23 0
-28 -53 -155 -82 -195 -15 -22 -28 -45 -28 -51 0 -6 -16 -26 -35 -45 -51 -49
-44 -91 13 -90 9 0 40 12 67 25 28 14 59 25 69 25 11 0 27 6 35 14 20 17 181
46 252 46 30 -1 83 -6 119 -13 55 -10 65 -15 68 -35 4 -27 -3 -30 -98 -36 -41
-3 -76 -5 -77 -6 -1 0 -13 -16 -27 -36 -13 -19 -27 -31 -30 -25 -4 6 -16 5
-34 -5 -15 -7 -32 -14 -39 -14 -7 0 -27 -13 -46 -29 -38 -34 -164 -101 -189
-101 -10 0 -23 -8 -29 -19 -7 -10 -20 -16 -29 -14 -10 3 -41 -8 -69 -23 -50
-26 -54 -26 -104 -13 -40 11 -53 19 -55 36 -2 11 -11 24 -20 27 -9 3 -22 9
-29 12 -7 3 -30 -13 -52 -35 -27 -28 -45 -38 -59 -34 -11 2 -23 0 -26 -6 -4
-6 -15 -11 -25 -11 -10 0 -26 -11 -35 -25 -12 -18 -25 -25 -47 -25 -66 0 -88
38 -49 87 11 14 20 33 20 43 0 9 9 25 20 35 11 10 20 30 20 44 0 32 -45 131
-60 131 -5 0 -10 -21 -11 -47 -1 -27 -4 -58 -7 -70 -12 -40 -38 -4 -46 62 -11
97 -27 168 -42 193 -9 13 -12 32 -8 44 8 26 7 204 -2 231 -6 18 -7 19 -16 4
-5 -10 -15 -17 -23 -17 -19 0 -24 -21 -35 -136 -5 -55 -16 -142 -25 -194 -9
-52 -19 -113 -22 -135 -6 -45 -18 -65 -40 -65 -12 0 -14 12 -12 63 4 70 -9 88
-30 40 -25 -56 -39 -49 -38 20 4 149 -3 237 -17 237 -22 0 -28 17 -15 38 14
22 -14 111 -67 210 -33 61 -34 68 -34 170 0 106 13 182 30 182 21 0 77 -42 93
-70 10 -16 25 -30 34 -30 23 0 13 65 -42 263 -12 44 -12 52 11 109 15 38 24
82 24 116 0 54 13 91 36 105 7 4 21 32 30 62 10 30 21 55 26 55 5 0 17 15 28
32 14 24 18 43 14 69 -5 32 -3 39 17 50 13 6 27 16 30 22 4 5 23 11 44 12 34
2 39 -2 71 -49 19 -28 34 -57 34 -64 0 -10 4 -9 16 3 12 11 14 19 6 27 -7 7
-5 20 9 42 10 17 19 41 19 54 0 29 17 28 41 -2 11 -14 28 -28 39 -31 28 -9 27
-62 -1 -91 -16 -17 -23 -40 -26 -86 -3 -35 -8 -65 -12 -68 -24 -15 -14 -137
13 -170 7 -8 13 -44 14 -80 1 -36 4 -100 8 -142 5 -69 4 -81 -16 -113 -18 -30
-21 -42 -13 -68 15 -53 54 -46 97 17 17 24 80 30 98 9 9 -11 10 -17 2 -20 -7
-2 -9 -29 -6 -77 3 -48 1 -76 -7 -80 -6 -4 -11 -21 -11 -38 0 -16 -6 -44 -14
-61 -31 -72 -36 -89 -36 -114 0 -14 -15 -55 -34 -92 -81 -158 -80 -155 -81
-301 -2 -116 -5 -141 -23 -177 -12 -23 -22 -45 -22 -48 0 -16 35 0 77 35 87
72 82 64 72 107 -21 91 -4 257 30 291 28 28 111 158 111 175 0 29 13 48 36 58
16 5 24 16 24 32 0 13 14 43 30 66 26 35 30 49 27 89 -2 26 -9 59 -15 75 -9
20 -9 33 0 52 14 32 36 32 44 0 6 -25 33 -35 35 -12 5 102 3 151 -8 166 -7 9
-13 27 -13 41 0 29 -21 92 -36 111 -6 8 -14 25 -17 39 -4 14 -23 38 -43 54
-35 28 -38 28 -90 17 -37 -9 -55 -18 -59 -32 -4 -10 -11 -19 -16 -19 -5 0 -9
-9 -9 -20 0 -15 7 -20 29 -20 47 0 60 -10 66 -48 13 -81 14 -82 45 -82 43 0
68 -66 50 -131 -11 -38 -25 -49 -61 -49 -28 0 -46 24 -27 36 5 4 8 21 5 39 -3
18 -1 37 5 43 6 6 8 18 4 28 -6 16 -8 16 -26 -1 -22 -20 -32 -15 -37 17 -3 18
-1 19 12 8 11 -9 19 -10 26 -3 14 14 -23 35 -64 37 -45 2 -67 39 -71 116 -2
36 -8 66 -15 68 -6 2 -11 14 -11 27 0 13 -4 27 -10 30 -5 3 -10 24 -10 45 0
34 4 42 33 57 17 10 48 20 67 23 33 5 35 7 32 40 -2 19 -9 40 -17 45 -7 6 -15
22 -17 35 -1 14 -6 23 -10 20 -4 -3 -14 4 -22 15 -13 18 -12 22 17 47 18 15
37 27 42 28 6 0 15 14 20 32 10 30 12 31 69 33 64 2 91 -14 81 -46 -7 -20 18
-28 30 -9 4 6 11 8 16 4 16 -9 37 15 32 36 -6 23 15 27 23 5 9 -21 21 -19 27
6 8 31 43 21 40 -11 -2 -18 11 -40 43 -75 25 -27 41 -51 35 -53 -19 -6 -12
-29 15 -47 21 -13 32 -15 49 -7 27 12 85 -4 85 -24 0 -26 -22 -70 -41 -82 -17
-11 -25 -11 -44 2 -21 14 -24 13 -41 -5 -15 -17 -19 -17 -33 -5 -9 8 -27 17
-42 21 -15 4 -29 17 -36 36 -9 23 -17 29 -42 29 -37 0 -38 -6 -9 -37 19 -20
23 -40 28 -116 4 -51 10 -100 14 -109 13 -29 26 -20 26 18 0 35 1 35 33 29 57
-13 77 -24 77 -44 0 -31 -25 -44 -70 -36 -32 5 -40 4 -40 -9 0 -8 5 -18 10
-21 6 -3 10 -17 10 -30 0 -13 14 -37 30 -54 21 -21 32 -43 36 -76 6 -38 10
-45 25 -40 22 7 25 -11 9 -65 -12 -44 1 -59 28 -32 16 16 20 29 16 59 -8 54
-12 65 -24 58 -17 -11 -11 48 8 80 11 17 22 48 26 70 4 22 18 56 31 76 13 20
29 56 36 80 7 24 20 51 30 59 45 40 48 95 7 150 -19 26 -20 33 -9 54 21 37 -7
64 -33 32 -16 -20 -74 -9 -82 16 -10 32 5 90 25 95 9 2 23 14 30 25 11 17 10
23 -3 37 -20 20 -184 23 -207 4 -10 -8 -28 -9 -59 -3 -50 9 -277 3 -294 -8 -6
-4 -24 -7 -41 -7 -29 0 -30 -1 -28 -47 2 -45 0 -48 -23 -48 -27 0 -33 27 -12
60 22 34 -12 46 -107 39 -31 -2 -118 8 -137 16 -10 4 -30 0 -46 -7 -20 -10
-36 -12 -56 -5 -33 11 -44 2 -56 -44 -4 -19 -14 -49 -21 -67 -11 -26 -11 -35
-2 -40 10 -6 8 -17 -5 -45 -19 -42 -43 -45 -52 -7 -4 18 -13 25 -30 25 -24 0
-25 -4 -32 -75 -4 -43 -3 -79 3 -85 5 -5 9 -17 9 -27 0 -10 5 -18 10 -18 21 0
10 -73 -15 -106 -14 -18 -25 -40 -25 -48 0 -9 -9 -25 -20 -36 -20 -20 -20 -20
-20 10 0 18 -5 30 -13 30 -8 0 -22 9 -32 20 -10 11 -23 20 -29 20 -16 -1 -101
-84 -123 -122 -34 -57 -57 -146 -45 -173 6 -13 8 -39 5 -59 -3 -19 -1 -56 5
-83 6 -26 14 -79 17 -116 5 -46 13 -75 25 -87 9 -9 33 -46 52 -81 19 -35 52
-91 73 -123 36 -56 39 -58 47 -37 6 19 11 21 22 12 11 -9 12 -20 5 -47 -6 -19
-7 -39 -4 -45 4 -5 8 -20 10 -32 2 -12 8 -39 13 -59 8 -29 7 -38 -5 -42 -10
-4 -14 -21 -13 -58 2 -48 -15 -117 -33 -134 -15 -16 -5 -36 23 -45 17 -6 30
-16 30 -22 0 -6 32 -40 70 -77 39 -37 70 -74 70 -83 0 -41 -104 -32 -150 13
-17 17 -42 30 -55 30 -17 0 -29 9 -40 30 -24 47 -48 55 -112 35 -30 -9 -64
-15 -76 -12 -135 34 -189 55 -243 94 -43 32 -54 29 -54 -12 0 -22 -6 -38 -15
-41 -9 -4 -15 -19 -15 -38 l1 -31 23 29 24 29 26 -41 c14 -23 26 -46 26 -52 0
-8 39 -30 55 -30 1 0 6 16 9 36 11 54 35 41 58 -31 36 -109 40 -126 33 -133
-4 -4 -36 -6 -72 -4 -39 1 -71 -2 -79 -9 -11 -9 -18 -8 -29 1 -9 8 -29 10 -51
7 -21 -4 -50 -1 -69 7 -30 13 -32 16 -34 72 -1 33 -6 73 -12 90 -18 57 -27
134 -16 141 6 3 29 7 51 7 41 1 41 1 40 39 -1 25 -9 46 -24 62 -26 28 -93 65
-116 65 -8 0 -17 6 -20 14 -6 16 -74 46 -105 46 -11 0 -22 7 -26 17 -10 25 32
53 81 53 22 0 61 5 85 11 30 7 47 6 56 -1 8 -6 29 -10 47 -8 24 2 36 10 46 31
14 29 31 34 50 15 9 -9 15 -9 23 -1 6 6 18 9 26 6 8 -3 25 0 39 7 19 10 29 11
50 2 14 -7 30 -10 35 -6 14 9 0 70 -36 159 -37 88 -46 151 -47 300 -1 151 9
245 27 264 21 25 19 45 -10 79 -14 17 -23 37 -19 45 3 8 1 30 -3 49 -7 24 -5
42 7 66 9 18 19 29 23 25 5 -4 12 -1 16 6 7 11 11 9 20 -8 12 -21 11 -22 -11
-25 -15 -1 -15 -14 -4 -73 5 -24 14 -43 21 -43 13 0 75 85 75 103 0 5 -7 6
-16 3 -11 -4 -18 1 -21 14 -3 11 -10 17 -16 13 -21 -13 4 65 51 158 46 92 72
116 81 74 3 -19 18 -35 34 -35 11 0 8 38 -4 46 -6 3 -9 15 -6 25 3 12 -4 25
-20 37 -16 12 -25 28 -25 50 -1 18 -3 32 -5 32 -2 0 -21 -16 -41 -35 -27 -26
-43 -34 -59 -30 -28 6 -28 -1 -5 -40 14 -23 16 -34 8 -52 -6 -13 -15 -21 -21
-19 -5 2 -17 -3 -26 -10 -13 -12 -20 -9 -53 21 -29 26 -37 40 -34 62 2 19 9
29 23 31 61 9 65 12 53 31 -9 15 -9 28 2 61 16 48 25 56 45 40 12 -10 15 -10
15 0 0 8 7 21 15 31 15 15 13 17 -27 23 -24 4 -129 6 -233 6 -217 -1 -353 -1
-442 0 -34 0 -72 -4 -85 -9 -15 -6 -31 -5 -41 1 -27 14 -147 14 -156 -1 -6 -9
-11 -8 -21 4 -13 15 -46 20 -74 9 -12 -5 -13 -10 -5 -25 7 -13 6 -25 -1 -40
-16 -29 -40 -7 -40 37 0 33 -2 34 -37 34 -21 1 -57 5 -80 9 -33 6 -43 5 -43
-5 0 -7 9 -16 20 -19 14 -4 20 -15 20 -35 0 -25 9 -33 76 -69 106 -57 163 -54
147 8 -9 36 23 36 56 -1 38 -41 38 -53 4 -70 -44 -21 -41 -50 12 -102 37 -38
52 -46 81 -46 34 0 36 -2 30 -26 -6 -21 0 -33 30 -62 42 -41 61 -37 79 19 8
23 19 35 33 37 28 4 28 16 0 34 -26 17 -19 48 12 48 16 0 20 6 20 34 0 18 7
39 15 46 20 16 19 26 -6 61 -27 38 -22 71 12 80 22 5 29 2 37 -16 6 -13 26
-31 45 -40 18 -8 52 -34 75 -55 23 -22 46 -40 51 -40 5 0 12 -8 15 -17 3 -10
19 -34 36 -53 45 -52 59 -88 98 -249 19 -80 39 -150 43 -155 6 -6 21 -1 40 13
24 18 33 20 45 10 8 -7 14 -24 12 -38 -3 -22 -9 -27 -43 -31 -36 -5 -40 -8
-43 -36 -2 -18 4 -58 12 -90 9 -39 13 -94 11 -164 -2 -58 0 -125 5 -150 17
-95 40 -167 65 -213 15 -26 25 -50 22 -53 -6 -6 -97 83 -97 94 0 4 -10 13 -21
21 -19 11 -21 11 -16 -2 3 -9 9 -32 13 -53 l7 -37 -32 5 c-18 3 -34 1 -37 -4
-3 -4 -12 -8 -21 -8 -11 0 -14 6 -10 22 4 14 -1 29 -16 44 -35 35 -60 75 -85
133 -12 30 -28 62 -36 70 -7 9 -17 40 -20 70 -4 30 -15 80 -24 110 -11 38 -16
99 -17 191 -1 74 -7 150 -13 168 -6 17 -9 56 -6 85 7 88 -39 292 -67 292 -30
0 -42 -170 -15 -214 5 -7 3 -18 -4 -24 -10 -9 -14 -9 -17 1 -9 25 -22 11 -16
-18 5 -26 3 -30 -16 -30 -31 0 -24 -31 10 -47 21 -10 28 -23 34 -59 4 -29 2
-50 -5 -59 -17 -20 -3 -37 20 -25 31 17 60 12 60 -9 0 -11 -4 -23 -10 -26 -6
-3 -10 -15 -10 -26 0 -11 -4 -18 -9 -15 -12 8 -41 -38 -41 -63 0 -23 31 -94
43 -99 4 -2 7 -21 7 -43 0 -29 -3 -37 -15 -33 -8 3 -17 15 -20 25 -9 26 -63
84 -71 76 -10 -10 26 -118 42 -124 8 -3 27 -28 44 -57 16 -29 39 -61 50 -71
26 -23 27 -65 2 -65 -11 0 -27 9 -37 20 -24 26 -27 25 -48 -11 -17 -31 -18
-31 -38 -13 -19 17 -22 17 -89 -5 -38 -12 -72 -26 -75 -30 -23 -39 176 -45
224 -7 10 7 16 6 26 -7 7 -9 22 -17 34 -17 25 0 61 -17 76 -35 6 -7 23 -16 39
-19 32 -8 76 -44 76 -63 0 -7 5 -13 11 -13 6 0 22 -8 35 -19 l24 -19 -32 -6
c-17 -3 -46 -2 -65 4 -18 5 -48 14 -65 20 -18 5 -77 12 -130 16 -54 4 -98 11
-98 17 0 6 -29 8 -77 4 -67 -5 -81 -9 -100 -31 -18 -21 -23 -23 -33 -11 -7 8
-30 20 -51 25 -38 10 -54 30 -25 30 23 0 72 47 94 90 18 37 18 40 2 45 -10 3
-25 14 -35 25 -10 11 -25 20 -34 20 -19 0 -131 109 -131 127 0 21 36 34 65 23
20 -8 27 -7 31 5 11 28 -62 115 -97 115 -14 0 -19 -5 -15 -15 8 -22 -42 -77
-68 -73 -13 2 -21 10 -21 23 0 13 -7 20 -20 20 -17 0 -20 -7 -20 -40 0 -32 5
-42 23 -50 12 -5 22 -17 22 -25 0 -15 19 -56 54 -118 7 -13 23 -32 35 -43 11
-11 21 -30 21 -42 0 -30 -47 -82 -95 -107 -36 -18 -40 -19 -57 -4 -13 12 -28
15 -56 10 -38 -6 -39 -5 -51 34 -7 22 -10 44 -7 48 2 4 0 29 -6 55 -9 42 -11
46 -22 31 -17 -23 -43 -12 -57 23 -6 16 -15 66 -20 113 -11 97 -17 120 -30
120 -12 0 -12 -108 0 -146 33 -109 34 -115 24 -125 -16 -16 -71 16 -75 43 -5
38 -24 30 -48 -22 -21 -44 -25 -48 -35 -32 -7 9 -15 36 -18 60 -3 24 -17 61
-31 83 -18 26 -30 63 -37 114 -9 68 -8 82 11 136 35 98 128 227 165 228 11 1
31 8 44 18 17 11 41 16 85 14 75 -3 90 -13 83 -63 -6 -47 8 -113 32 -147 10
-14 22 -41 26 -58 9 -43 20 -48 44 -24 34 34 36 67 7 111 -14 22 -26 48 -26
58 0 11 -4 32 -9 48 -5 16 -12 46 -16 66 -3 21 -13 45 -22 54 -16 15 -15 19 5
58 12 22 22 46 22 53 0 24 32 44 60 38 38 -8 48 12 13 26 -15 5 -39 22 -52 36
-23 25 -25 25 -38 7 -8 -11 -22 -18 -32 -16 -11 2 -24 -10 -37 -33 -20 -38
-25 -40 -40 -25 -5 5 -23 11 -38 12 -16 2 -35 12 -43 24 -15 23 -93 50 -117
41 -7 -3 -24 5 -37 19 -14 15 -34 24 -54 24 -17 0 -37 6 -44 13 -10 10 -16 7
-31 -13 -16 -22 -20 -23 -25 -8 -4 9 -4 22 0 27 6 10 -55 41 -81 41 -7 0 -16
-9 -19 -20 -8 -25 -25 -26 -25 -2 0 24 -81 56 -123 48 -17 -3 -60 -7 -94 -9
-34 -2 -77 -10 -95 -19 -18 -9 -56 -26 -84 -38 -31 -14 -56 -32 -63 -46 -6
-13 -15 -24 -21 -24 -5 0 -18 -17 -29 -38 -11 -21 -27 -44 -35 -51 -21 -17
-21 -91 -1 -168 15 -59 50 -101 118 -146 15 -9 27 -23 27 -31 0 -18 -33 -46
-54 -46 -14 0 -17 -7 -14 -37 3 -35 6 -38 38 -43 40 -7 109 13 127 36 9 13 20
14 69 5 31 -6 62 -7 68 -3 6 5 32 10 59 11 44 2 47 1 47 -22 0 -37 -23 -83
-40 -80 -29 5 -63 -66 -68 -143 -4 -63 -2 -75 22 -112 14 -23 30 -42 35 -42 6
0 13 -9 16 -21 4 -11 22 -27 41 -36 19 -9 34 -20 34 -24 0 -7 58 -23 77 -20 6
1 18 -8 27 -21 l15 -22 20 22 c16 19 20 20 25 6 3 -8 6 -27 6 -40 0 -21 -3
-24 -21 -19 -20 7 -21 5 -14 -46 11 -91 23 -123 59 -162 26 -28 42 -37 67 -37
19 0 43 -7 53 -15 27 -21 105 -19 141 3 36 22 75 33 75 22 0 -18 -46 -79 -59
-80 -8 0 -19 -7 -25 -15 -14 -20 -161 -23 -197 -5 -64 34 -130 96 -143 135
-33 96 -33 98 -13 144 19 43 19 44 -1 70 -11 14 -26 25 -33 24 -8 -1 -36 -7
-62 -12 -39 -9 -54 -8 -77 4 -16 8 -37 15 -47 15 -32 1 -69 43 -83 92 -7 26
-19 53 -26 59 -10 8 -12 27 -7 70 4 41 2 63 -7 74 -11 13 -9 19 8 38 22 23 66
117 58 124 -2 2 -20 -10 -39 -27 -56 -49 -82 -131 -81 -260 1 -85 5 -113 22
-145 51 -99 202 -188 241 -141 12 14 16 14 40 0 41 -24 51 -46 56 -125 5 -79
25 -112 110 -187 37 -32 58 -42 128 -56 90 -19 157 -15 178 10 20 24 53 17 72
-16 37 -61 82 -100 118 -100 23 0 38 -6 46 -19 12 -19 64 -31 133 -31 33 0
114 35 188 82 41 25 51 17 76 -56 34 -105 19 -133 -78 -147 -37 -5 -73 -13
-80 -17 -6 -4 -19 -7 -28 -7 -10 0 -18 -4 -18 -8 0 -13 492 -19 525 -7 17 7
32 7 39 1 6 -5 130 -11 276 -12 217 -3 271 -1 298 11 44 20 35 34 -25 38 -28
2 -56 9 -63 17 -17 21 -9 140 10 140 10 0 19 -18 27 -49 17 -71 59 -93 65 -35
3 35 37 65 45 41 3 -7 16 -26 30 -42 20 -24 33 -30 64 -30 62 0 51 -26 -15
-34 -40 -6 -76 -22 -76 -36 0 -30 125 -39 187 -14 35 15 40 23 22 41 -8 8 -7
13 2 18 7 5 17 2 23 -7 6 -8 21 -20 34 -27 28 -15 28 -32 -2 -80 -30 -46 -47
-51 -169 -50 -95 2 -132 -6 -107 -21 7 -4 30 -5 52 -3 50 7 185 -16 204 -34 8
-8 14 -26 14 -39 0 -19 -8 -28 -35 -39 -19 -8 -40 -25 -46 -37 -25 -47 -58
-50 -100 -8 -29 28 -49 35 -96 32 -15 -2 -23 -11 -28 -32 -6 -29 -9 -30 -61
-30 -47 0 -54 3 -54 20 0 11 -11 27 -24 35 -32 22 -74 10 -95 -26 -29 -52 -76
-47 -106 11 -14 26 -21 30 -60 30 -39 0 -46 -4 -60 -30 -20 -38 -45 -51 -81
-41 -22 5 -30 14 -32 34 -6 46 -64 59 -77 18 -3 -10 -19 -28 -36 -40 -41 -31
-76 -22 -95 24 -12 30 -19 35 -47 35 -24 0 -41 -9 -62 -30 -37 -38 -68 -38
-95 0 -18 25 -26 28 -53 23 -20 -3 -44 -20 -65 -44 -32 -38 -33 -38 -61 -21
-16 9 -35 30 -43 47 -13 29 -16 30 -85 33 -70 2 -73 1 -94 -28 -13 -16 -31
-30 -41 -30 -21 0 -48 48 -48 87 0 37 -14 57 -34 50 -23 -9 -29 -49 -16 -109
10 -47 16 -56 56 -82 56 -35 94 -31 94 12 0 35 9 48 41 60 27 11 59 0 59 -20
0 -7 -10 -22 -21 -34 -27 -29 -20 -88 14 -105 26 -15 334 -21 359 -8 14 7 15
15 7 41 -5 18 -9 38 -9 44 0 15 119 25 143 12 29 -15 5 -32 -48 -33 -84 -1
-87 -53 -4 -68 24 -4 64 -12 88 -18 31 -7 46 -7 51 1 4 7 18 8 33 4 24 -5 27
-3 27 19 0 35 -10 57 -25 57 -7 0 -17 6 -24 13 -17 22 6 37 41 27 16 -5 39 -6
51 -1 12 4 84 3 161 -3 98 -6 144 -6 156 2 13 7 29 7 60 0 37 -10 45 -9 56 6
11 16 15 16 42 2 30 -16 97 -12 108 6 3 5 13 3 21 -4 15 -12 42 -15 136 -18
15 0 33 0 40 0 30 3 127 -14 127 -21 0 -13 -53 -22 -115 -18 -29 1 -46 1 -124
-1 -18 0 -42 -5 -53 -11 -14 -8 -23 -8 -31 0 -15 15 -80 14 -95 -1 -8 -8 -15
-8 -27 2 -10 8 -50 14 -108 15 -50 1 -109 6 -130 10 -26 5 -46 4 -63 -5 -18
-10 -27 -11 -36 -2 -11 11 -66 6 -79 -7 -4 -3 -9 -18 -13 -34 -5 -23 -2 -29
19 -37 24 -9 26 -26 5 -55 -4 -5 -10 -51 -13 -101 -3 -51 -10 -109 -16 -130
-5 -22 -15 -73 -22 -114 -7 -41 -25 -102 -39 -135 -38 -86 -55 -154 -42 -167
7 -7 15 -2 25 18 30 60 100 281 103 329 2 28 8 68 13 90 6 22 11 74 12 115 2
99 10 134 32 138 31 6 47 -17 48 -72 1 -45 2 -48 10 -21 4 17 10 41 13 55 3
14 17 30 31 37 22 10 27 9 36 -9 8 -14 8 -23 0 -31 -13 -13 -14 -57 -1 -77 8
-13 11 -12 24 5 9 11 19 37 22 58 8 45 43 69 69 47 8 -7 15 -17 15 -22 0 -6
-7 -5 -15 2 -20 17 -34 4 -38 -38 -2 -18 -9 -38 -15 -44 -7 -7 -12 -21 -12
-32 0 -12 -18 -57 -40 -100 -26 -52 -40 -92 -40 -118 0 -27 -8 -50 -25 -72
-14 -18 -25 -38 -25 -45 0 -6 -11 -16 -25 -21 -14 -5 -25 -16 -25 -25 0 -8 -5
-15 -11 -15 -7 0 -8 7 -4 18 9 19 25 175 19 181 -7 8 -26 -56 -44 -149 -21
-111 -25 -127 -54 -183 -14 -29 -27 -41 -39 -39 -9 2 -32 -8 -50 -21 -17 -14
-68 -37 -112 -52 -44 -15 -86 -32 -92 -37 -17 -14 -43 -3 -43 18 0 9 8 33 19
53 10 20 26 52 35 71 9 19 30 58 46 85 16 28 30 60 30 73 0 13 7 37 16 53 8
17 21 81 29 142 7 62 19 132 25 157 12 45 14 125 3 143 -14 22 -36 -53 -41
-138 -3 -60 -11 -101 -23 -125 -11 -19 -19 -50 -19 -68 0 -19 -6 -48 -14 -65
-8 -18 -16 -52 -19 -76 -3 -24 -19 -64 -35 -90 -17 -25 -53 -87 -81 -137 -37
-67 -60 -97 -86 -113 -53 -31 -49 -63 14 -90 65 -28 91 -23 238 41 23 10 44
18 48 18 3 0 32 18 64 40 32 22 61 40 65 40 3 0 6 -10 6 -23 0 -12 6 -31 13
-42 24 -36 39 -109 39 -184 -1 -75 28 -172 63 -211 9 -10 13 -24 10 -32 -8
-21 45 -59 72 -52 12 3 40 36 63 72 51 81 77 104 102 91 10 -5 18 -18 18 -29
0 -10 4 -29 9 -42 5 -13 14 -48 21 -78 7 -30 21 -69 31 -87 10 -17 21 -47 24
-67 4 -19 16 -43 27 -53 20 -18 21 -17 59 27 30 35 39 41 39 25 0 -23 -102
-162 -143 -197 -113 -94 -117 -99 -117 -142 0 -48 16 -74 45 -78 11 -1 55 1
98 6 82 8 195 56 228 95 8 10 30 26 47 35 25 13 32 23 32 46 0 27 -2 29 -25
20 -27 -10 -38 -1 -29 24 4 11 -18 3 -73 -24 -63 -32 -85 -39 -111 -34 -27 5
-32 11 -32 34 0 21 7 30 28 39 16 7 40 30 53 52 13 22 38 59 56 83 59 80 133
243 133 294 0 15 11 61 24 102 47 147 57 216 58 390 0 136 -4 178 -21 240 -27
99 -44 147 -71 195 -36 65 -44 70 -73 49 -24 -18 -71 -84 -73 -104 -1 -6 -2
-14 -3 -20 0 -5 -10 -10 -20 -10 -11 0 -30 -12 -43 -27 -29 -35 -58 -54 -128
-81 -60 -24 -73 -23 -162 17 -54 23 -61 43 -23 73 25 19 109 180 121 230 5 25
29 54 68 85 22 19 30 16 49 -16 15 -26 16 -32 3 -58 -20 -37 -46 -126 -40
-132 15 -16 75 55 137 163 l34 59 89 -2 c49 -1 91 -7 92 -12 2 -5 23 -27 45
-49 23 -21 49 -54 58 -72 43 -87 79 -177 79 -196 0 -36 30 -101 45 -96 19 8
25 -82 6 -101 -11 -11 -15 -49 -17 -167 -2 -203 -13 -315 -34 -358 -10 -19
-21 -50 -25 -69 -4 -19 -25 -70 -47 -114 -26 -53 -36 -83 -30 -89 14 -14 31
-1 48 36 8 17 28 49 44 71 16 22 29 50 30 63 0 27 11 28 26 4 12 -19 12 -334
0 -362 -4 -9 -2 -61 3 -115 5 -55 5 -102 1 -105 -13 -8 0 -88 16 -101 11 -9
15 -7 20 7 3 11 9 28 13 39 4 11 9 150 10 309 1 159 4 293 7 298 8 12 24 0 24
-18 0 -8 29 -59 64 -114 36 -54 66 -111 68 -126 4 -25 5 -26 12 -11 5 10 4 28
-2 40 -54 117 -70 156 -74 177 -3 14 -15 59 -26 100 -65 234 -73 312 -59 630
4 92 9 111 49 212 10 26 18 55 18 65 0 11 11 43 25 71 31 64 31 66 0 80 -31
14 -41 37 -25 57 19 23 49 18 62 -10 6 -14 14 -25 17 -25 3 0 30 16 60 35 30
19 58 32 62 29 5 -3 18 0 28 6 11 6 38 8 59 4 34 -5 45 -15 88 -74 40 -57 77
-90 99 -90 2 0 6 13 10 29 8 35 -9 71 -33 71 -16 1 -16 1 1 11 9 5 22 7 28 4
5 -4 16 -1 24 5 29 24 59 8 78 -45 10 -27 24 -57 31 -65 7 -8 18 -35 25 -60 7
-25 23 -54 36 -65 12 -12 27 -30 33 -41 9 -15 14 -17 29 -7 10 6 16 17 14 25
-2 7 -8 36 -12 63 -6 34 -16 57 -32 70 -17 14 -26 35 -31 69 -3 27 -11 55 -17
63 -15 17 -3 31 13 15 19 -19 66 -14 78 8 7 14 18 19 33 16 76 -16 77 -16 77
-40 0 -13 7 -26 15 -30 11 -4 15 1 15 19 0 16 10 31 28 42 39 25 43 35 21 51
-16 11 -18 21 -13 48 l6 34 -50 0 c-40 0 -52 -4 -65 -22 -14 -22 -15 -22 -35
-5 -14 13 -32 17 -59 15 l-38 -3 1 -47 c2 -53 -1 -55 -35 -32 -17 12 -21 22
-17 40 9 35 -19 44 -126 42 -51 -1 -99 1 -106 6 -8 5 -18 4 -24 -2 -7 -7 -19
-7 -36 -1 -14 5 -38 7 -53 4 -15 -3 -29 -2 -32 2 -5 8 -61 8 -191 3 -10 -1
-24 4 -29 9 -8 8 -6 11 6 11 9 0 21 10 28 22 10 19 12 19 21 5 11 -21 61 -22
78 -2 14 16 6 48 -22 88 -16 22 -27 27 -60 27 -71 0 -94 64 -35 101 26 17 43
19 95 15 34 -3 62 -1 62 4 0 12 -30 20 -90 25 -28 2 -59 10 -69 19 -10 9 -25
16 -34 16 -22 0 -21 6 3 37 11 14 20 37 20 50 0 30 24 26 28 -5 6 -37 32 -42
189 -37 81 3 157 6 168 6 43 1 85 10 85 18 0 14 -43 18 -129 12 -46 -4 -85 -3
-88 2 -2 4 -20 5 -38 1 -49 -9 -61 3 -34 32 18 19 29 23 55 18 32 -6 39 -2 68
41 13 19 15 18 47 -15 l32 -35 19 43 c16 36 23 42 48 42 23 0 30 -5 30 -19 0
-54 35 -70 51 -23 5 16 24 39 40 51 31 23 50 22 32 -1 -11 -14 0 -58 15 -58 4
0 23 16 42 35 19 19 40 35 47 35 14 0 23 -31 20 -69 -3 -40 19 -34 31 7 7 22
12 48 12 59 0 44 58 128 76 110 7 -7 6 -93 -1 -114 -11 -33 10 -29 23 5 16 41
43 166 45 203 2 28 6 33 22 31 11 -2 23 -9 27 -15 11 -17 10 -101 -1 -112 -7
-8 -21 -185 -14 -185 5 0 42 92 52 130 7 25 18 61 26 80 7 19 16 47 19 62 4
17 18 34 37 44 44 22 54 7 30 -47 -12 -24 -21 -53 -21 -63 0 -18 1 -18 20 -1
11 10 22 34 25 54 12 72 16 80 47 95 17 9 32 15 33 14 1 -2 7 -12 13 -23 10
-19 11 -18 22 10 8 22 13 26 20 15 11 -18 31 -2 62 49 12 20 28 40 35 44 7 4
13 17 13 28 0 29 17 14 25 -21 5 -23 12 -30 31 -30 24 0 57 25 67 51 4 11 8
10 23 -4 15 -14 17 -21 7 -37 -18 -28 2 -34 27 -8 16 17 32 22 73 23 52 0 52
0 75 -45 28 -56 41 -69 77 -76 71 -13 108 32 110 133 1 50 5 66 20 78 28 21
57 18 96 -8 38 -26 37 -24 15 -140 -19 -103 -71 -171 -149 -198 -51 -18 -111
-17 -123 2 -6 11 -64 12 -64 2 1 -21 48 -58 75 -61 87 -7 162 7 178 34 4 8 16
14 26 14 9 0 31 15 49 33 26 27 32 41 32 78 0 54 6 62 33 48 18 -10 19 -18 14
-76 -4 -35 -13 -76 -21 -91 -9 -15 -18 -35 -22 -44 -3 -10 -12 -18 -20 -18
-16 0 -85 -39 -100 -56 -15 -19 -242 -18 -256 0 -3 5 -26 12 -50 15 -34 5 -43
10 -44 26 -1 11 -9 34 -18 50 -9 17 -16 45 -16 63 0 22 -5 32 -15 32 -22 0
-18 17 6 23 20 5 39 -5 86 -50 21 -21 53 -31 53 -18 0 3 -30 34 -66 70 -52 52
-63 69 -54 80 8 10 8 15 -1 21 -7 4 -15 2 -17 -4 -6 -20 -36 -14 -51 10 -13
21 -14 21 -27 3 -8 -10 -14 -31 -14 -45 0 -14 -9 -45 -20 -68 -29 -59 -27 -76
9 -69 23 5 32 1 50 -23 11 -16 21 -35 21 -42 1 -23 79 -101 95 -95 8 4 17 2
20 -2 3 -5 14 -7 25 -4 24 6 50 -13 50 -37 0 -28 50 -43 122 -36 35 3 75 5 91
5 21 1 31 8 44 37 15 31 21 35 45 30 41 -8 82 33 130 131 23 46 45 86 50 89 5
3 17 0 26 -8 29 -25 98 -41 142 -34 48 7 120 42 120 56 0 6 7 10 15 10 9 0 18
7 22 16 3 8 16 20 29 24 25 10 79 103 71 124 -2 6 1 45 8 87 11 74 6 119 -14
119 -6 0 -10 -17 -10 -37 2 -127 -82 -241 -198 -268 -91 -22 -136 -19 -172 11
-37 31 -31 48 13 40 67 -12 196 47 196 90 0 6 7 17 15 24 8 7 15 21 15 31 0
11 9 28 21 40 18 18 20 28 14 72 -8 64 -33 127 -52 127 -11 0 -13 -21 -8 -114
3 -63 2 -121 -1 -130 -8 -21 -56 -46 -87 -46 -13 0 -32 -6 -42 -14 -12 -9 -28
-11 -44 -6 -15 4 -45 13 -68 20 -30 9 -50 24 -72 55 -17 24 -31 50 -31 58 0
20 52 37 116 37 43 0 56 4 68 22 21 30 20 44 -5 79 -30 42 -18 89 30 121 34
22 39 23 50 9 9 -12 13 -13 17 -3 5 10 9 10 20 1 22 -18 36 2 18 26 -12 16
-18 17 -33 8 -24 -15 -51 15 -51 56 0 42 66 111 107 111 27 0 32 4 40 38 11
44 7 62 -15 62 -9 0 -30 9 -47 20 -16 11 -38 20 -47 20 -24 0 -57 46 -51 70
11 41 51 60 122 60 42 -1 73 -6 85 -15 11 -8 28 -15 37 -15 10 0 29 -20 44
-47 22 -37 28 -61 31 -124 2 -43 -1 -81 -6 -84 -5 -3 -7 -19 -3 -35 4 -23 1
-31 -13 -36 -11 -3 -27 -10 -37 -15 -10 -6 -41 -13 -68 -16 -59 -7 -77 -23
-61 -57 6 -13 8 -32 6 -43 -4 -13 7 -27 41 -51 25 -17 52 -32 60 -32 9 0 15
-10 15 -25 0 -32 16 -32 24 0 4 14 20 32 38 41 102 53 198 194 198 289 0 45 8
82 31 143 6 16 4 30 -6 46 -12 18 -13 26 -2 39 15 21 70 38 87 27 24 -15 50 1
50 31 0 24 -3 28 -17 20 -37 -18 -91 -31 -131 -31 -37 0 -44 -4 -52 -26 -11
-27 -6 -73 12 -132 8 -26 7 -41 -5 -65 -9 -18 -24 -59 -34 -92 -17 -61 -24
-69 -104 -137 -33 -29 -53 -38 -79 -38 -70 0 -78 33 -18 70 77 46 86 55 106
104 35 84 35 99 11 168 -38 105 -49 118 -125 157 l-71 36 3 50 c1 28 7 65 13
84 9 30 7 43 -19 105 -34 81 -38 126 -12 149 26 24 35 21 28 -8 -6 -24 -5 -25
44 -25 35 0 52 4 56 15 5 13 10 13 40 0 35 -14 145 -45 179 -49 26 -4 64 -24
93 -50 38 -35 92 -115 92 -136 0 -11 7 -20 15 -20 18 0 20 47 5 102 -15 53
-96 120 -182 152 -38 15 -78 26 -89 26 -22 0 -55 27 -45 37 3 4 6 3 6 -2 0 -4
6 -2 14 4 17 14 124 -2 166 -24 14 -8 50 -25 80 -39 60 -27 120 -78 120 -102
0 -14 34 -54 46 -54 17 0 -5 93 -27 116 -44 47 -200 145 -221 138 -10 -3 -30
2 -44 11 -29 19 -148 32 -166 18 -15 -10 -65 -10 -90 1 -9 4 -25 3 -35 -2 -10
-6 -31 -8 -46 -5 -18 4 -34 0 -46 -11 -10 -9 -25 -14 -34 -10 -8 3 -27 -2 -41
-11 -14 -9 -29 -14 -35 -11 -5 3 -29 -5 -53 -19 -23 -14 -53 -25 -65 -25 -35
0 -53 -38 -50 -100 3 -50 6 -55 33 -63 16 -5 36 -15 44 -22 8 -7 25 -16 37
-19 48 -15 49 -112 2 -179 -36 -51 -55 -57 -89 -29 -18 14 -23 29 -24 73 -1
53 -1 54 -34 57 -20 2 -45 -5 -66 -17 -36 -23 -67 -26 -96 -11 -16 9 -17 14
-7 47 14 50 44 83 76 83 14 1 41 14 60 30 32 28 34 31 21 55 -16 30 -45 32
-89 8 -20 -12 -30 -25 -29 -36 3 -16 -5 -19 -45 -22 -40 -2 -55 -9 -86 -39
-20 -20 -42 -36 -49 -36 -7 0 -12 -13 -12 -28 0 -35 -9 -45 -27 -31 -19 16
-16 48 7 92 11 20 20 39 20 42 0 12 -21 3 -45 -19 -20 -19 -24 -30 -19 -50 7
-28 -4 -34 -24 -14 -16 16 -15 67 3 98 22 38 19 57 -5 35 -16 -15 -22 -15 -35
-5 -8 7 -15 23 -15 36 0 27 -12 31 -30 10 -6 -8 -28 -20 -47 -27 -31 -10 -38
-9 -48 5 -7 9 -15 16 -18 16 -5 0 -98 -124 -128 -171 -14 -21 -22 -25 -53 -21
-54 6 -84 -5 -101 -39 -14 -26 -19 -28 -32 -18 -29 25 -8 85 56 158 32 36 64
76 70 89 6 12 18 22 25 22 18 0 49 37 41 49 -3 6 -12 11 -19 11 -8 0 -20 7
-27 17 -13 15 -11 16 16 9 44 -10 98 -7 111 7 6 7 14 31 18 55 6 40 5 42 -19
42 -18 0 -26 7 -31 27 -9 33 16 53 64 53 l35 0 -7 -60 c-8 -66 3 -77 29 -32
14 23 23 27 46 24 32 -5 79 20 79 42 0 13 31 46 43 46 4 0 7 -12 7 -26 0 -25
2 -26 38 -20 121 21 317 18 352 -5 13 -8 10 -13 -13 -34 -33 -29 -34 -68 -2
-73 11 -1 60 18 108 43 48 25 98 45 110 45 12 1 33 7 47 15 14 8 49 14 78 15
29 0 60 4 70 9 41 22 126 33 157 21 17 -7 84 -14 150 -17 66 -3 127 -9 137
-14 9 -5 27 -9 40 -9 13 0 39 -11 58 -25 19 -14 44 -25 56 -25 15 0 50 -28
103 -80 68 -68 82 -87 90 -128 6 -26 15 -67 20 -92 29 -127 -4 -278 -76 -352
-84 -86 -193 -127 -262 -98 -38 15 -123 18 -128 4 -2 -7 12 -29 32 -49 34 -37
36 -38 90 -31 34 4 64 2 76 -5 16 -8 28 -7 54 5 18 9 44 16 57 16 12 0 34 9
48 20 14 11 30 20 36 20 25 0 111 138 129 206 4 16 9 89 10 162 2 74 5 136 8
138 8 8 56 -22 99 -62 109 -101 127 -181 83 -357 -25 -102 -26 -109 -10 -133
16 -25 20 -26 89 -20 75 6 121 22 151 56 10 11 24 20 32 20 7 0 40 37 74 83
l60 82 -4 83 c-3 69 -1 82 12 82 10 0 12 3 5 10 -6 6 -9 32 -6 59 2 26 -1 57
-7 69 -7 14 -8 23 -1 27 16 10 11 65 -9 93 -10 15 -21 37 -25 49 -4 12 -34 47
-66 77 -62 57 -70 75 -46 95 11 9 25 9 55 1 63 -17 190 -11 211 10 27 27 28
170 1 215 -11 19 -16 37 -11 40 5 3 7 11 4 18 -3 9 -127 13 -547 14 -298 1
-645 3 -770 5 -125 2 -229 2 -231 1z m-2345 -286 c-8 -8 -11 -7 -11 4 0 20 13
34 18 19 3 -7 -1 -17 -7 -23z m514 13 c0 -7 -6 -15 -12 -17 -8 -3 -13 4 -13
17 0 13 5 20 13 18 6 -3 12 -11 12 -18z m-1857 -22 c17 -17 15 -55 -4 -62 -30
-12 -54 3 -54 34 0 37 33 53 58 28z m4700 -20 c-9 -28 -137 -50 -130 -23 1 6
23 15 50 21 65 16 84 16 80 2z m-5118 -86 c0 -19 -29 -52 -44 -52 -6 0 -22 9
-35 19 -19 14 -22 24 -17 45 9 38 45 49 74 23 12 -11 22 -27 22 -35z m5208 15
c9 -7 34 -14 55 -14 29 -1 48 -10 82 -40 24 -21 60 -51 80 -66 22 -18 35 -38
35 -52 0 -33 10 -55 25 -55 20 0 28 -19 16 -34 -6 -7 -18 -55 -27 -107 -9 -51
-25 -109 -35 -128 -11 -20 -19 -48 -19 -63 0 -38 -67 -105 -114 -113 -20 -4
-40 -5 -43 -1 -4 3 6 32 21 64 15 32 28 76 28 97 2 128 -5 195 -29 265 -24 69
-32 81 -111 157 -77 73 -84 83 -72 98 17 20 81 15 108 -8z m-3491 -59 c-3 -8
-6 -5 -6 6 -1 11 2 17 5 13 3 -3 4 -12 1 -19z m1139 -34 c10 -39 -1 -54 -33
-45 -33 9 -42 41 -18 64 20 21 43 12 51 -19z m2183 6 c50 -25 127 -112 153
-170 10 -25 26 -57 34 -72 18 -34 19 -142 1 -157 -11 -9 -16 0 -26 47 -36 165
-45 183 -158 295 -29 29 -53 58 -53 65 0 16 4 15 49 -8z m-919 -16 c0 -8 -4
-12 -10 -9 -5 3 -10 10 -10 16 0 5 5 9 10 9 6 0 10 -7 10 -16z m-3600 -53 c14
-67 26 -92 38 -75 4 6 20 14 37 18 16 4 33 13 37 19 12 20 15 4 9 -52 -5 -48
-9 -55 -32 -62 -18 -4 -41 0 -67 11 -48 22 -71 63 -76 137 -4 52 -2 55 35 62
4 0 12 -25 19 -58z m-1776 39 c17 -5 43 -12 59 -15 37 -7 35 -36 -4 -55 -17
-8 -40 -30 -52 -49 -20 -32 -20 -33 -1 -28 63 18 84 18 90 2 5 -12 -4 -28 -30
-51 -39 -35 -51 -61 -67 -134 -8 -39 -7 -56 11 -104 35 -92 9 -115 -54 -46
-19 22 -38 52 -42 67 -3 16 -10 42 -14 60 -6 24 -3 42 11 70 18 36 19 63 2 63
-13 0 -53 -114 -53 -152 0 -30 -5 -37 -29 -48 -41 -17 -115 20 -156 78 -26 38
-29 50 -27 108 1 62 4 70 44 118 51 62 109 102 162 110 22 4 42 9 45 11 8 8
73 5 105 -5z m5165 -99 c17 -16 31 -33 31 -38 0 -5 14 -28 30 -50 l31 -42 -15
-56 c-15 -57 -39 -87 -66 -82 -11 2 -15 17 -16 62 -1 85 1 81 -59 137 -57 53
-63 66 -43 86 22 22 74 14 107 -17z m-4540 -77 c1 -5 -5 -19 -13 -30 -14 -19
-15 -19 -37 5 l-23 24 30 23 c26 22 29 22 36 6 4 -9 7 -22 7 -28z m-333 10
c36 -15 70 -15 106 1 15 6 17 1 15 -32 -2 -24 -7 -37 -15 -35 -6 1 -12 -6 -12
-17 0 -29 -28 -45 -79 -47 -25 -1 -53 -3 -61 -3 -21 -1 -51 -54 -52 -91 -1
-17 6 -38 15 -48 10 -10 17 -28 17 -39 0 -32 20 -81 36 -87 19 -7 19 -66 -1
-66 -8 0 -15 9 -15 21 0 34 -17 55 -62 74 -86 38 -118 82 -118 165 0 69 47
179 76 180 6 0 19 9 29 20 22 24 68 26 121 4z m4142 -41 c12 -19 22 -39 22
-44 0 -5 9 -27 20 -48 17 -35 18 -48 10 -122 -6 -50 -15 -88 -23 -94 -8 -5
-22 -26 -32 -45 -10 -19 -21 -37 -24 -40 -4 -3 -14 -17 -24 -32 -11 -18 -26
-28 -42 -28 -13 0 -26 -4 -30 -9 -3 -5 -19 -12 -35 -16 -37 -8 -51 -48 -27
-72 13 -14 20 -14 47 -3 40 17 199 15 216 -3 10 -10 -21 -47 -39 -47 -24 0
-62 -26 -81 -55 -13 -20 -14 -33 -5 -75 6 -27 15 -50 20 -50 5 0 9 4 9 8 0 16
118 132 134 132 9 0 25 9 36 20 17 17 19 24 9 43 -14 28 -43 51 -96 79 -50 25
-52 37 -18 74 41 44 76 128 82 193 7 72 19 85 70 77 21 -3 58 -9 83 -12 26 -4
56 -16 70 -29 14 -13 41 -30 60 -40 19 -9 46 -30 60 -45 14 -16 36 -30 50 -32
23 -3 25 -7 25 -54 0 -37 6 -58 19 -73 19 -21 19 -22 1 -35 -16 -11 -17 -23
-13 -92 4 -43 3 -88 -1 -99 -4 -11 -3 -34 2 -52 7 -23 7 -44 -2 -73 -14 -47
-31 -53 -31 -9 0 35 -16 31 -31 -9 -7 -18 -13 -22 -21 -14 -8 8 -8 27 0 69 22
116 16 248 -14 303 -12 23 -13 20 -14 -40 0 -36 5 -81 10 -101 8 -27 6 -46 -5
-79 -8 -23 -15 -59 -15 -78 0 -27 -8 -44 -32 -69 -42 -44 -62 -43 -74 5 l-9
37 -20 -47 c-15 -35 -26 -48 -41 -48 -11 0 -25 -5 -31 -11 -9 -9 -20 -9 -44 0
-49 17 -52 15 -45 -28 4 -29 2 -44 -10 -55 -14 -14 -18 -14 -45 -1 -20 11 -29
23 -29 40 0 17 -6 25 -22 27 -13 2 -32 17 -43 35 -11 18 -24 31 -30 29 -5 -1
-10 -27 -10 -57 -1 -30 -4 -60 -8 -66 -7 -11 -109 -11 -192 -1 -14 2 -21 -4
-23 -18 -2 -12 -12 -30 -23 -40 -18 -16 -19 -16 -19 7 0 18 -6 25 -22 26 -12
1 -27 -2 -33 -7 -5 -4 -21 -8 -35 -9 -57 0 -91 -14 -117 -47 -14 -19 -30 -34
-36 -34 -24 0 -57 44 -57 77 0 38 3 37 -45 17 -21 -8 -48 -13 -61 -10 -22 6
-24 3 -24 -33 0 -44 -15 -62 -25 -30 -6 19 -7 20 -21 2 -12 -17 -13 -16 -14 8
0 14 10 34 21 45 12 10 25 29 30 42 7 17 14 21 32 17 17 -5 33 1 53 18 16 13
47 32 69 43 22 10 43 22 46 27 4 5 18 7 32 3 19 -4 33 0 54 18 25 21 35 23
108 19 161 -7 171 -9 202 -31 52 -37 61 -28 62 59 0 26 2 53 3 60 2 8 -3 12
-12 10 -73 -18 -103 -24 -157 -28 -70 -5 -78 3 -37 40 17 16 22 27 15 32 -16
9 -118 -60 -126 -86 -6 -18 -12 -20 -43 -14 -20 4 -40 9 -44 11 -3 2 7 30 23
62 35 69 36 84 7 80 -44 -6 -35 37 39 200 26 57 128 175 201 232 24 19 39 36
34 38 -13 4 -63 -27 -75 -45 -4 -7 -17 -13 -28 -13 -10 0 -29 -12 -42 -26 -12
-14 -35 -40 -50 -57 -16 -18 -52 -79 -80 -136 -57 -113 -83 -140 -72 -75 11
65 45 176 71 234 24 51 74 110 94 110 4 0 20 14 33 30 14 17 34 30 45 30 10 0
27 8 36 19 9 10 30 21 46 25 16 3 46 21 67 39 47 42 91 66 112 60 9 -3 26 -20
39 -40z m-2195 -119 c5 -16 17 -46 28 -66 29 -56 24 -79 -25 -127 l-45 -44 -6
29 c-4 16 -10 40 -15 54 -13 43 -10 69 13 85 20 14 20 17 8 51 -11 30 -11 38
0 45 21 13 33 5 42 -27z m-23 -295 c0 -15 -39 -69 -50 -69 -4 0 -11 8 -15 17
-4 13 2 25 22 40 31 25 43 29 43 12z m-1939 -56 c-7 -40 -33 -53 -39 -20 -3
13 26 50 44 57 0 0 -2 -17 -5 -37z m-97 7 c31 -11 34 -44 8 -74 -60 -69 -45
-112 48 -135 52 -13 68 -22 77 -43 11 -21 10 -31 -3 -56 -8 -18 -21 -29 -28
-26 -7 3 -25 0 -41 -6 -19 -7 -31 -8 -39 0 -5 5 -21 10 -35 10 -50 1 -131 104
-147 186 -5 25 2 46 27 93 32 57 36 61 71 61 20 0 48 -4 62 -10z m116 -146 c0
-14 -21 -19 -33 -7 -9 9 13 34 24 27 5 -3 9 -12 9 -20z m2854 -50 c11 -28 6
-39 -9 -20 -8 11 -15 23 -15 28 0 14 18 9 24 -8z m-2786 -112 c6 -18 -15 -14
-22 4 -4 10 -1 14 6 12 6 -2 14 -10 16 -16z m96 -89 c4 -9 -1 -38 -10 -66
l-16 -49 26 -26 c25 -25 27 -26 68 -13 73 22 101 20 112 -10 16 -46 -10 -81
-79 -106 -87 -31 -168 -16 -212 40 -10 13 -28 29 -39 35 -18 10 -20 18 -16 69
3 41 11 66 28 85 12 16 25 36 28 46 9 27 56 41 83 25 12 -8 24 -21 27 -30z
m170 31 c11 -27 7 -39 -16 -49 -13 -6 -24 -20 -26 -32 -4 -25 -18 -31 -25 -10
-6 17 4 80 16 95 13 17 44 15 51 -4z m4364 -56 c-4 -27 -28 -36 -28 -10 0 20
8 32 22 32 5 0 8 -10 6 -22z m-3644 -74 c20 -20 21 -30 1 -14 -11 9 -18 10
-28 1 -8 -6 -17 -8 -20 -4 -8 7 11 33 24 33 4 0 15 -7 23 -16z m-258 -99 c14
-14 28 -25 33 -25 4 0 15 -6 25 -13 15 -11 16 -16 4 -42 -7 -17 -18 -34 -25
-38 -7 -4 -13 -14 -13 -22 0 -7 -11 -27 -25 -43 -14 -17 -25 -33 -25 -38 0 -4
-8 -17 -17 -28 -14 -16 -10 -15 17 5 40 30 60 28 60 -7 0 -13 5 -24 11 -24 5
0 7 -5 4 -10 -4 -6 -11 -8 -16 -5 -5 4 -9 0 -9 -8 0 -30 -125 -105 -157 -93
-9 4 -31 -4 -53 -19 -44 -30 -100 -27 -100 7 0 11 -24 43 -54 71 -29 29 -57
63 -61 75 -11 36 2 86 30 116 14 15 25 39 25 54 1 17 14 41 39 65 l38 39 29
-30 c37 -37 74 -88 74 -102 0 -5 7 -10 15 -10 16 0 45 49 45 75 0 9 7 29 15
45 20 38 56 40 91 5z m282 -51 c22 -15 30 -44 13 -44 -13 0 -22 -30 -16 -51 3
-10 16 -19 28 -21 24 -3 34 -32 36 -110 0 -27 5 -48 11 -48 22 0 38 -68 35
-156 l-3 -89 -28 0 c-25 0 -30 5 -41 44 -7 25 -17 49 -23 55 -5 5 -10 44 -10
85 0 58 -5 84 -20 109 -33 53 -54 36 -40 -34 20 -100 33 -150 41 -158 10 -11
12 -67 3 -90 -3 -9 -17 -16 -30 -16 -29 0 -40 23 -49 102 -4 32 -11 60 -16 63
-5 4 -9 21 -9 38 0 18 -6 52 -14 77 -8 25 -21 68 -30 96 -21 67 -20 74 7 74
14 0 31 -13 46 -35 26 -38 44 -41 49 -8 2 12 12 29 23 39 23 20 25 47 4 64
-14 12 -12 30 3 30 4 0 18 -7 30 -16z m208 -127 c-25 -18 -30 -78 -12 -140 9
-30 16 -71 16 -90 0 -37 23 -102 40 -112 6 -4 8 -11 4 -16 -3 -5 0 -17 7 -25
6 -8 9 -17 5 -21 -11 -11 -106 -12 -112 -1 -4 6 -8 50 -9 97 -2 55 -12 120
-28 179 -29 103 -27 125 8 116 18 -4 25 -1 30 18 4 12 14 31 23 41 15 17 17
17 30 -8 12 -23 11 -28 -2 -38z m1064 -101 c9 -48 16 -63 26 -59 13 5 20 -17
14 -42 -5 -17 -13 -148 -13 -195 1 -25 6 -92 13 -150 8 -74 8 -111 1 -128 -15
-31 -14 -125 1 -140 9 -9 8 -15 -4 -24 -18 -14 -39 -147 -31 -192 3 -14 1 -26
-3 -27 -53 -6 -94 -3 -98 7 -2 6 0 45 6 85 5 41 11 202 13 359 3 375 13 540
33 562 21 25 28 16 42 -56z m1650 43 c0 -11 -4 -17 -10 -14 -5 3 -10 13 -10
21 0 8 5 14 10 14 6 0 10 -9 10 -21z m-1920 7 c0 -3 -4 -8 -10 -11 -5 -3 -10
-1 -10 4 0 6 5 11 10 11 6 0 10 -2 10 -4z m581 -249 c-1 -12 -15 -9 -19 4 -3
6 1 10 8 8 6 -3 11 -8 11 -12z m-1921 -522 c0 -8 -2 -15 -4 -15 -2 0 -6 7 -10
15 -3 8 -1 15 4 15 6 0 10 -7 10 -15z m110 5 c0 -5 -4 -10 -10 -10 -5 0 -10 5
-10 10 0 6 5 10 10 10 6 0 10 -4 10 -10z m1970 -106 c0 -24 -4 -34 -12 -32
-15 5 -22 42 -14 64 10 25 26 5 26 -32z m-616 -48 c-7 -30 -24 -35 -24 -8 0
18 20 45 27 38 2 -2 1 -15 -3 -30z m135 -299 c1 -5 -3 -5 -9 -2 -5 3 -10 16
-9 28 0 21 1 21 9 2 5 -11 9 -24 9 -28z m-309 -82 c0 -9 9 -34 19 -56 24 -49
31 -131 12 -137 -7 -2 -25 7 -39 21 -85 78 -124 62 -64 -26 27 -40 28 -47 25
-137 -2 -52 -8 -107 -14 -122 -13 -33 -5 -48 26 -48 26 0 46 -37 26 -50 -30
-18 -180 36 -247 89 -15 12 -33 21 -42 21 -21 0 -56 40 -82 97 -13 26 -32 58
-43 70 -17 19 -19 27 -9 49 15 31 9 44 -16 37 -10 -2 -24 3 -32 12 -12 14 -9
16 31 14 48 -2 112 6 202 24 39 8 67 21 90 41 116 109 157 135 157 101z m-528
-296 c4 -19 2 -69 -4 -113 -7 -57 -7 -85 1 -103 6 -14 9 -40 5 -59 -5 -25 -2
-35 9 -40 10 -4 15 -20 15 -53 1 -40 -4 -53 -27 -75 l-28 -27 -17 48 c-10 26
-24 62 -31 78 -40 90 -57 167 -50 223 3 32 7 69 7 85 1 19 6 27 19 27 15 0 19
-8 19 -35 0 -24 5 -35 15 -35 10 0 15 10 15 34 0 45 17 89 32 84 7 -3 16 -20
20 -39z m574 -4 c9 -37 0 -153 -13 -166 -9 -9 -18 -8 -36 4 -22 14 -23 18 -16
88 10 90 13 99 38 99 14 0 23 -9 27 -25z m-476 -105 c0 -11 7 -20 15 -20 8 0
15 -8 15 -18 0 -10 5 -23 11 -29 15 -15 14 -96 0 -150 -12 -45 -41 -64 -67
-42 -12 10 -12 16 6 46 27 46 26 63 -5 63 l-26 0 2 88 c1 48 4 90 6 95 8 14
43 -14 43 -33z m157 -202 c-3 -12 -1 -30 4 -41 10 -18 12 -17 32 14 l22 34 6
-108 c4 -60 10 -112 14 -115 11 -12 35 30 35 62 0 17 6 43 14 57 9 18 10 32 4
44 -8 13 -6 16 7 13 28 -5 41 -33 28 -60 -14 -29 -26 -111 -15 -104 9 5 45 86
58 130 5 16 14 31 20 33 16 5 23 -54 11 -91 -30 -93 -42 -120 -59 -135 -11 -9
-37 -33 -58 -53 -49 -48 -73 -48 -94 -4 -9 19 -16 38 -16 43 0 4 -11 35 -25
68 -19 47 -25 78 -25 141 0 83 3 94 28 94 10 0 13 -7 9 -22z"/>
<path d="M6497 4089 c-17 -103 -15 -131 6 -94 17 29 25 63 25 115 1 91 -13 81
-31 -21z"/>
<path d="M5650 3770 c-8 -5 -11 -12 -8 -16 10 -9 38 3 38 16 0 12 -10 13 -30
0z"/>
<path d="M2850 3570 c0 -5 5 -10 11 -10 5 0 7 5 4 10 -3 6 -8 10 -11 10 -2 0
-4 -4 -4 -10z"/>
<path d="M2470 3462 c0 -35 23 -68 60 -87 45 -23 45 -2 0 50 -22 25 -40 50
-40 56 0 5 -4 9 -10 9 -5 0 -10 -12 -10 -28z"/>
<path d="M2666 3371 c-53 -6 -69 -23 -38 -40 28 -15 122 15 122 39 0 10 -5 11
-84 1z"/>
<path d="M3845 1918 c-14 -81 -15 -107 -5 -113 17 -10 43 64 36 104 -8 53 -22
58 -31 9z"/>
<path d="M3671 1881 c14 -39 30 -53 49 -41 13 8 13 13 0 37 -9 16 -26 29 -38
31 -20 3 -21 1 -11 -27z"/>
<path d="M3916 1873 c-12 -69 -16 -142 -8 -147 18 -11 30 19 37 97 6 66 5 77
-8 77 -9 0 -18 -12 -21 -27z"/>
<path d="M3744 1805 c-8 -19 42 -75 66 -75 9 0 22 -10 27 -23 11 -23 98 -65
110 -53 11 11 -7 36 -34 48 -25 11 -63 39 -118 87 -34 30 -45 33 -51 16z"/>
<path d="M3455 1679 c-3 -8 0 -29 7 -45 l12 -29 4 27 c2 15 -1 35 -7 45 -8 16
-10 16 -16 2z"/>
<path d="M3780 1415 c0 -15 4 -24 10 -20 6 3 10 12 10 20 0 8 -4 17 -10 20 -6
4 -10 -5 -10 -20z"/>
<path d="M4619 5376 c-2 -2 -103 -7 -224 -10 -135 -3 -239 -11 -270 -19 -42
-11 -56 -11 -90 1 -25 9 -76 14 -140 13 -157 -1 -188 -5 -193 -20 -4 -11 5
-13 40 -9 24 3 71 1 104 -4 94 -14 801 -7 825 8 16 9 10 20 -16 32 -29 13 -30
14 -36 8z"/>
<path d="M378 5273 c-14 -9 -31 -27 -37 -40 -12 -26 -15 -92 -5 -117 7 -19 68
-21 144 -5 28 6 54 9 57 6 11 -11 -10 -49 -53 -94 -24 -27 -44 -52 -44 -56 0
-4 -14 -21 -31 -36 -36 -33 -47 -77 -44 -171 5 -159 46 -254 172 -397 39 -44
143 -86 217 -87 42 -1 52 3 69 26 l21 27 -29 58 c-20 41 -29 78 -33 128 -2 38
-10 80 -18 92 -13 20 -12 27 6 60 26 49 25 53 -9 53 -38 0 -44 -10 -46 -86 -2
-45 -9 -73 -25 -100 -19 -30 -21 -40 -12 -55 7 -10 12 -28 12 -38 0 -17 -7
-20 -41 -19 -23 0 -51 6 -63 12 -70 40 -87 54 -93 76 -3 14 -19 49 -35 78 -28
49 -30 59 -24 115 4 34 16 91 28 127 12 36 23 70 24 77 2 7 25 28 51 47 26 19
56 50 66 68 23 43 78 66 112 48 19 -10 27 -9 49 6 14 11 26 27 26 37 0 9 11
22 24 29 21 9 32 6 70 -16 25 -15 46 -30 46 -34 -1 -12 -44 -56 -73 -75 -30
-19 -32 -42 -4 -42 9 0 24 -11 33 -23 15 -21 15 -27 1 -70 -9 -26 -13 -49 -11
-52 3 -2 24 6 46 19 53 30 61 17 37 -61 -11 -33 -19 -81 -19 -107 0 -66 27
-140 55 -151 15 -6 26 -22 34 -53 17 -70 139 -172 226 -191 29 -6 32 -4 52 44
23 54 20 61 -24 58 -45 -3 -69 10 -108 57 -20 25 -52 62 -72 82 -62 66 -66 77
-69 181 -3 118 5 157 42 215 21 32 46 53 90 76 33 17 89 52 123 77 43 31 68
43 81 39 11 -3 48 1 83 10 41 10 89 14 135 11 40 -2 75 0 78 5 7 11 94 1 109
-12 5 -5 26 -9 46 -9 20 0 60 -12 87 -26 47 -24 51 -25 80 -10 40 21 49 20 57
-3 4 -14 14 -19 33 -18 19 1 30 -4 37 -20 5 -13 16 -23 24 -23 10 0 12 11 7
48 -3 26 -2 52 2 58 4 6 47 18 96 25 72 11 91 18 103 36 8 12 12 27 8 33 -8
13 -62 13 -70 -1 -4 -6 -14 -7 -24 -4 -9 4 -59 9 -111 11 -158 6 -508 18 -635
21 -66 1 -203 5 -305 8 -102 3 -309 7 -460 9 -182 2 -283 7 -297 15 -29 15
-43 14 -75 -6z"/>
<path d="M3845 5200 c-22 -5 -51 -6 -64 -3 l-24 6 24 -34 c13 -19 24 -35 25
-37 1 -1 21 -4 45 -6 24 -2 52 -7 61 -11 9 -4 21 -4 26 -1 5 3 21 -7 35 -22
19 -20 28 -41 31 -77 2 -28 4 -54 5 -59 2 -20 31 19 37 51 4 22 14 37 24 40
22 6 32 37 17 52 -11 11 -5 14 45 25 19 4 30 15 34 32 8 32 -9 52 -30 35 -12
-10 -24 -9 -63 4 -47 16 -48 16 -62 -4 -17 -26 -33 -27 -49 -1 -13 22 -45 24
-117 10z"/>
<path d="M4917 5053 c-14 -13 -6 -33 19 -49 34 -23 53 -6 36 31 -11 23 -40 33
-55 18z"/>
<path d="M5123 5008 c3 -13 9 -40 13 -61 3 -22 11 -36 18 -34 6 3 9 11 7 18
-2 8 -8 33 -14 57 -6 23 -15 42 -20 42 -5 0 -7 -10 -4 -22z"/>
<path d="M2180 5010 c0 -5 5 -10 10 -10 6 0 10 5 10 10 0 6 -4 10 -10 10 -5 0
-10 -4 -10 -10z"/>
<path d="M5010 5011 c0 -5 7 -14 15 -21 13 -10 15 -9 15 9 0 12 -6 21 -15 21
-8 0 -15 -4 -15 -9z"/>
<path d="M4930 4914 c0 -8 5 -12 10 -9 6 4 8 11 5 16 -9 14 -15 11 -15 -7z"/>
<path d="M4871 4876 c-10 -12 -5 -136 6 -136 2 0 12 6 23 12 16 11 22 9 34 -7
14 -19 15 -19 35 -1 20 18 21 18 30 -7 20 -53 58 -43 46 12 -6 30 -9 31 -52
29 -37 -1 -50 3 -65 22 -10 13 -18 33 -16 44 5 39 -19 58 -41 32z"/>
<path d="M4805 4849 c-10 -15 1 -23 20 -15 9 3 13 10 10 16 -8 13 -22 13 -30
-1z"/>
<path d="M635 4826 c-21 -32 -45 -121 -44 -166 1 -43 21 -102 37 -108 14 -4
15 7 12 99 -1 36 4 94 11 128 13 69 8 85 -16 47z"/>
<path d="M3880 4801 c-12 -23 -13 -61 -2 -62 4 0 22 -2 40 -5 28 -3 32 -1 32
21 0 22 -34 65 -52 65 -4 0 -12 -9 -18 -19z"/>
<path d="M2650 4790 c-13 -8 -13 -13 0 -37 9 -16 29 -32 46 -38 38 -13 127
-68 219 -135 49 -36 55 -37 55 -5 0 17 -8 29 -25 37 -14 6 -25 15 -25 19 0 5
-17 17 -37 28 -21 11 -54 35 -72 55 -23 23 -44 36 -61 36 -15 0 -36 11 -50 25
-26 28 -29 29 -50 15z"/>
<path d="M4084 4775 c-8 -20 3 -48 16 -40 13 8 13 55 0 55 -6 0 -13 -7 -16
-15z"/>
<path d="M4760 4756 c-13 -15 -20 -32 -17 -40 10 -24 25 -19 42 14 28 53 15
67 -25 26z"/>
<path d="M3797 4753 c-11 -10 -8 -43 3 -43 6 0 22 7 36 17 19 12 22 18 12 24
-16 10 -42 11 -51 2z"/>
<path d="M7625 4668 c-3 -13 -7 -48 -10 -78 -4 -44 -10 -59 -30 -73 -26 -19
-34 -57 -12 -57 24 0 103 177 92 209 -8 28 -33 27 -40 -1z"/>
<path d="M4350 4575 c-10 -26 -16 -314 -10 -442 2 -23 -1 -50 -5 -60 -4 -10
-7 -45 -8 -78 -2 -58 -1 -60 25 -63 44 -5 46 12 36 406 -5 245 -14 299 -38
237z"/>
<path d="M4498 4564 c-3 -5 -2 -29 2 -54 l7 -45 7 37 c7 34 -5 81 -16 62z"/>
<path d="M2800 4542 c0 -10 33 -42 43 -42 15 0 5 19 -18 34 -14 9 -25 13 -25
8z"/>
<path d="M7126 4541 c-3 -4 6 -13 19 -19 15 -7 25 -8 25 -2 0 13 -38 32 -44
21z"/>
<path d="M3342 4470 c-1 -25 3 -54 7 -65 7 -18 9 -16 15 11 5 20 2 44 -8 65
l-14 34 0 -45z"/>
<path d="M3050 4489 c0 -5 5 -7 10 -4 6 3 10 8 10 11 0 2 -4 4 -10 4 -5 0 -10
-5 -10 -11z"/>
<path d="M2950 4401 c0 -5 7 -14 15 -21 16 -14 18 -10 9 14 -6 17 -24 22 -24
7z"/>
<path d="M5407 4329 c-3 -13 -9 -64 -12 -114 -4 -49 -13 -115 -20 -145 -17
-75 -17 -106 -1 -119 24 -20 49 78 53 204 2 61 6 121 9 135 3 14 -1 34 -9 44
-14 18 -14 18 -20 -5z"/>
<path d="M3351 4308 c-1 -15 3 -47 9 -70 5 -24 12 -65 16 -92 3 -26 9 -44 14
-40 10 12 -5 140 -24 189 -13 36 -15 37 -15 13z"/>
<path d="M2136 4283 c-6 -14 -5 -15 5 -6 7 7 10 15 7 18 -3 3 -9 -2 -12 -12z"/>
<path d="M5247 4244 c-15 -15 -6 -32 19 -37 21 -4 25 -1 22 17 -3 21 -28 33
-41 20z"/>
<path d="M2134 4163 c6 -47 20 -72 32 -60 9 9 -16 107 -28 107 -7 0 -8 -17 -4
-47z"/>
<path d="M4982 4185 c0 -16 2 -22 5 -12 2 9 2 23 0 30 -3 6 -5 -1 -5 -18z"/>
<path d="M2960 4182 c6 -13 14 -21 18 -18 3 4 -2 14 -12 24 -18 16 -18 16 -6
-6z"/>
<path d="M2381 4154 c0 -11 3 -14 6 -6 3 7 2 16 -1 19 -3 4 -6 -2 -5 -13z"/>
<path d="M2475 4004 c-7 -39 1 -57 15 -34 12 19 13 70 1 70 -5 0 -12 -16 -16
-36z"/>
<path d="M3416 3993 c4 -16 13 -35 20 -43 12 -12 14 -11 14 9 0 27 -17 61 -31
61 -5 0 -7 -12 -3 -27z"/>
<path d="M3160 3850 c0 -5 5 -10 11 -10 5 0 7 5 4 10 -3 6 -8 10 -11 10 -2 0
-4 -4 -4 -10z"/>
<path d="M3245 3840 c-7 -12 2 -30 16 -30 12 0 12 27 0 35 -5 3 -12 1 -16 -5z"/>
<path d="M3735 3638 c-4 -10 -15 -20 -26 -23 -13 -4 -19 -16 -19 -35 0 -32 26
-64 45 -56 7 2 21 -2 32 -9 24 -19 48 -19 67 1 33 33 10 80 -46 91 -17 3 -33
15 -38 27 -7 19 -9 19 -15 4z"/>
<path d="M5877 3512 c-9 -10 -17 -35 -17 -55 0 -20 -5 -39 -11 -43 -18 -11
-48 -91 -60 -162 -6 -37 -15 -71 -20 -77 -12 -12 -11 -25 0 -25 5 0 13 14 16
32 4 18 16 44 26 58 10 14 30 58 43 98 14 41 31 81 40 90 18 20 25 93 10 99
-6 2 -18 -5 -27 -15z"/>
<path d="M5702 3343 c-11 -21 -26 -74 -35 -118 -9 -44 -22 -98 -29 -120 -13
-39 -14 -40 -60 -40 -25 -1 -53 -7 -62 -14 -9 -7 -23 -10 -32 -7 -21 8 -34 -1
-28 -19 9 -22 69 -33 159 -28 44 2 104 4 133 6 30 1 56 8 61 15 6 10 15 9 44
-8 32 -19 47 -21 139 -17 57 2 104 8 106 13 4 11 -99 33 -158 34 -33 0 -50 6
-63 20 -20 24 -45 26 -54 4 -4 -10 -13 -14 -28 -10 -14 4 -28 0 -35 -9 -16
-20 -19 -19 -59 15 l-34 29 18 53 c10 29 26 77 36 106 34 96 19 170 -19 95z"/>
<path d="M3441 3174 c-1 -49 26 -91 52 -81 20 7 21 27 6 82 -10 34 -13 37 -23
23 -11 -15 -13 -15 -23 0 -10 14 -12 10 -12 -24z"/>
<path d="M3593 3150 c-25 -10 -28 -22 -13 -51 14 -25 47 -25 55 1 5 15 -9 62
-18 59 -1 0 -12 -4 -24 -9z"/>
<path d="M5212 3045 c-33 -15 -40 -29 -20 -41 14 -9 196 -16 221 -8 19 6 24
46 5 43 -7 -2 -27 1 -45 5 -19 4 -38 3 -50 -5 -15 -9 -25 -8 -49 4 -25 13 -34
13 -62 2z"/>
<path d="M5015 3030 c-19 -31 52 -53 96 -29 16 8 18 13 8 25 -13 16 -95 19
-104 4z"/>
<path d="M2615 3023 c-63 -8 -76 -14 -100 -53 -14 -22 -36 -42 -50 -46 -13 -3
-29 -12 -36 -20 -14 -17 -29 -15 161 -13 289 3 337 2 450 -3 63 -3 120 -1 126
3 6 5 24 5 42 0 29 -9 42 -6 42 9 0 10 -140 21 -251 20 -52 -1 -98 -1 -104 0
-5 0 -70 3 -144 5 -129 4 -150 10 -151 38 0 4 12 12 28 18 45 18 56 25 60 37
4 12 -11 13 -73 5z"/>
<path d="M6136 2991 c-4 -5 -4 -16 -1 -23 11 -28 -12 -66 -41 -70 -15 -2 -29
-8 -31 -14 -3 -8 18 -12 64 -13 69 -1 134 -18 156 -40 7 -6 17 -26 23 -44 15
-43 -6 -79 -59 -103 -39 -18 -40 -18 -51 0 -35 61 -70 70 -126 31 -19 -13 -50
-28 -68 -31 -30 -6 -32 -5 -32 20 0 27 -20 42 -43 33 -11 -4 -12 -18 -6 -63 4
-32 6 -61 3 -64 -3 -2 -29 -5 -58 -6 -30 -1 -59 -5 -66 -9 -7 -4 -16 -2 -21 6
-13 21 -27 0 -31 -46 -3 -39 -2 -40 28 -40 17 0 37 -5 45 -12 23 -19 132 -19
159 0 17 12 29 13 50 6 17 -6 41 -7 61 -2 26 7 35 16 40 39 10 51 16 55 86 53
64 -2 65 -2 110 43 37 38 46 54 50 92 5 38 2 51 -15 69 -21 22 -22 25 -22 51
0 8 -34 31 -75 52 -52 25 -81 46 -91 65 -15 29 -28 36 -38 20z"/>
<path d="M3280 2900 c0 -5 19 -10 43 -10 31 0 38 3 27 10 -20 13 -70 13 -70 0z"/>
<path d="M3507 2898 c-18 -11 15 -20 59 -16 22 2 38 8 36 13 -3 11 -78 14 -95
3z"/>
<path d="M3676 2903 c-17 -17 1 -22 85 -22 57 0 89 4 87 11 -4 11 -161 21
-172 11z"/>
<path d="M4701 2901 c-12 -8 -9 -11 12 -16 33 -9 80 2 72 15 -8 13 -65 13 -84
1z"/>
<path d="M4840 2896 c0 -9 30 -14 35 -6 4 6 -3 10 -14 10 -12 0 -21 -2 -21 -4z"/>
<path d="M5215 2891 c-3 -5 -1 -12 5 -16 13 -8 50 3 50 16 0 12 -47 12 -55 0z"/>
<path d="M5590 2891 c0 -13 48 -23 72 -15 16 5 18 8 7 15 -18 11 -79 12 -79 0z"/>
<path d="M5895 2890 c-8 -12 20 -24 35 -15 6 3 8 11 5 16 -8 12 -32 12 -40 -1z"/>
<path d="M5548 2883 c7 -3 16 -2 19 1 4 3 -2 6 -13 5 -11 0 -14 -3 -6 -6z"/>
<path d="M4774 2752 c-6 -4 -14 -20 -18 -35 -5 -20 -14 -29 -36 -34 -17 -3
-33 -10 -36 -15 -10 -16 18 -39 39 -32 11 3 32 7 46 8 15 1 37 9 51 19 21 15
24 15 35 0 8 -11 18 -14 31 -9 18 7 18 9 -5 27 -21 17 -23 24 -14 38 9 14 9
21 0 30 -12 12 -76 15 -93 3z"/>
<path d="M5018 2733 c-25 -29 -40 -65 -31 -74 12 -12 234 -13 266 0 25 10 38
31 18 31 -5 0 -14 14 -21 30 -7 17 -15 30 -18 30 -3 0 -20 -16 -38 -35 -39
-43 -71 -42 -117 5 -34 35 -39 36 -59 13z"/>
<path d="M5642 2738 c-7 -7 -12 -18 -12 -25 0 -8 -19 -22 -42 -32 -42 -17 -42
-18 -20 -30 13 -7 31 -10 39 -7 9 4 21 2 28 -4 8 -7 16 -7 19 -2 6 10 74 8
125 -3 19 -4 41 1 70 15 45 24 49 31 27 50 -12 9 -17 8 -27 -8 -14 -22 -11
-23 -106 26 -67 35 -83 38 -101 20z"/>
<path d="M5417 2709 c-26 -27 -52 -34 -99 -30 -29 3 -20 -8 19 -24 26 -11 57
-14 110 -11 90 6 100 12 75 40 -10 11 -22 28 -25 37 -9 26 -49 19 -80 -12z"/>
<path d="M4930 2650 c0 -5 5 -10 10 -10 6 0 10 5 10 10 0 6 -4 10 -10 10 -5 0
-10 -4 -10 -10z"/>
<path d="M5456 2603 c-12 -12 -6 -23 12 -23 27 0 42 -20 42 -57 0 -34 -16 -43
-38 -21 -7 7 -12 8 -12 2 0 -14 48 -36 61 -29 5 4 16 2 25 -3 11 -6 13 -11 5
-16 -22 -14 -10 -216 14 -216 8 0 12 32 13 111 0 81 4 114 14 120 16 10 26
-18 39 -121 6 -41 11 -82 13 -90 16 -98 19 -110 33 -110 16 0 16 -8 -5 205 -5
44 -5 87 -1 96 10 20 -31 81 -49 74 -19 -7 -25 20 -12 45 9 17 9 24 0 30 -14
9 -145 12 -154 3z"/>
<path d="M5630 2586 c0 -9 7 -16 16 -16 9 0 14 5 12 12 -6 18 -28 21 -28 4z"/>
<path d="M3258 2474 c-5 -4 -8 -19 -8 -33 0 -18 3 -22 11 -14 6 6 9 21 7 33
-1 12 -6 18 -10 14z"/>
<path d="M5240 2441 c0 -6 5 -13 10 -16 6 -3 10 1 10 9 0 9 -4 16 -10 16 -5 0
-10 -4 -10 -9z"/>
<path d="M3244 2396 c-16 -13 -17 -18 -7 -35 11 -17 10 -29 -2 -63 -8 -24 -15
-53 -15 -65 0 -33 -28 -136 -49 -179 -10 -21 -22 -63 -26 -92 -5 -38 -14 -60
-32 -76 -14 -13 -23 -31 -21 -42 6 -32 29 -21 43 19 7 22 23 49 34 61 12 12
21 29 21 37 0 8 13 53 30 100 16 46 31 109 34 139 2 30 8 90 12 133 4 42 5 77
2 77 -2 0 -13 -6 -24 -14z"/>
<path d="M5225 2370 c-8 -13 4 -32 16 -25 12 8 12 35 0 35 -6 0 -13 -4 -16
-10z"/>
<path d="M5326 2372 c-3 -5 -3 -25 1 -45 7 -46 29 -56 38 -17 9 42 -21 90 -39
62z"/>
<path d="M5446 2361 c-9 -15 15 -224 30 -259 8 -18 14 -40 14 -48 0 -8 4 -13
8 -10 5 3 2 51 -5 108 -8 57 -12 119 -9 138 3 19 3 45 0 58 -6 22 -28 30 -38
13z"/>
<path d="M3515 2320 c-7 -21 0 -40 16 -40 5 0 9 14 9 30 0 34 -15 40 -25 10z"/>
<path d="M4698 2313 c-9 -2 -20 -14 -24 -26 -3 -12 -14 -31 -24 -42 -27 -29
-37 -60 -66 -208 -24 -115 -27 -156 -27 -327 0 -107 4 -215 10 -240 20 -85 64
-235 84 -285 10 -28 19 -55 19 -61 0 -6 7 -25 16 -43 18 -36 51 -40 46 -5 -1
11 8 30 23 44 25 23 26 23 60 7 33 -16 37 -16 61 0 26 16 26 17 5 25 -12 4
-21 13 -21 19 0 8 -11 9 -31 5 -25 -5 -35 -1 -55 22 -13 15 -33 43 -43 62 -22
42 -35 137 -19 146 14 9 28 -15 28 -52 0 -18 8 -38 20 -49 25 -23 33 -15 20
19 -13 36 -13 123 1 131 5 4 19 -1 30 -11 18 -16 20 -16 37 -1 10 10 28 17 40
17 18 0 22 -6 23 -32 1 -18 4 -44 8 -58 6 -22 9 -18 20 28 7 29 11 66 8 82 -7
35 2 100 15 100 5 0 16 -17 25 -37 20 -49 11 -243 -12 -256 -8 -4 -15 -15 -15
-23 0 -12 4 -12 20 -4 36 19 53 59 60 141 5 55 13 86 24 97 16 16 18 15 36 -8
10 -13 21 -36 24 -50 7 -35 31 -65 44 -56 17 10 15 71 -3 86 -8 7 -15 23 -15
35 0 12 -11 33 -24 46 -13 14 -25 40 -28 61 l-4 37 27 -32 c36 -42 44 -31 20
26 -13 31 -18 57 -14 86 7 50 18 59 43 36 10 -9 23 -14 28 -11 10 6 9 113 -2
123 -3 3 -6 -1 -6 -10 0 -9 -4 -17 -10 -17 -5 0 -10 9 -10 20 0 12 -9 22 -24
26 -34 8 -42 1 -49 -41 -3 -20 -20 -53 -36 -74 -17 -22 -31 -43 -31 -49 0 -22
-36 -72 -48 -67 -22 8 -72 -24 -72 -45 0 -13 -7 -20 -19 -20 -11 0 -23 -5 -26
-10 -9 -14 -101 -60 -120 -60 -8 0 -15 -4 -15 -9 0 -13 -68 -19 -80 -7 -15 15
-12 42 6 56 13 12 12 16 -10 37 -24 22 -26 30 -26 111 0 104 13 139 55 148 53
12 103 44 110 71 8 32 0 40 -22 22 -33 -28 -90 -52 -107 -46 -9 4 -16 15 -16
25 0 11 -7 25 -15 32 -22 18 -19 43 4 35 22 -7 34 7 50 56 16 49 43 73 75 65
14 -3 27 -15 31 -26 7 -21 105 -110 122 -110 5 0 18 -9 28 -20 22 -24 38 -25
55 -5 16 19 30 10 30 -19 0 -12 5 -27 12 -34 9 -9 5 -12 -20 -12 -35 0 -40
-12 -20 -55 14 -30 24 -32 33 -5 3 11 11 20 16 20 5 0 9 11 9 25 0 23 4 25 44
25 46 0 101 32 93 54 -2 6 0 19 5 29 6 12 5 17 -7 17 -8 0 -15 -9 -15 -20 0
-26 -4 -25 -47 7 -25 20 -48 28 -76 28 -31 0 -48 7 -71 27 -17 16 -36 28 -43
28 -6 0 -20 10 -30 23 -10 12 -33 33 -50 45 -18 13 -33 27 -33 32 0 19 -86
141 -98 139 -4 -1 -15 -3 -24 -6z"/>
<path d="M4940 2301 c0 -15 38 -56 45 -49 9 9 -21 58 -35 58 -6 0 -10 -4 -10
-9z"/>
<path d="M5230 2280 c0 -5 5 -10 10 -10 6 0 10 5 10 10 0 6 -4 10 -10 10 -5 0
-10 -4 -10 -10z"/>
<path d="M5568 2188 c-2 -41 2 -63 17 -77 20 -21 28 3 17 54 -9 44 -31 59 -34
23z"/>
<path d="M5356 2138 c-3 -7 -6 -22 -8 -33 -4 -20 -14 -22 -55 -10 -32 10 -41
-19 -19 -59 11 -21 14 -42 10 -64 -5 -24 -3 -32 8 -32 8 0 23 -9 34 -21 15
-17 19 -36 19 -99 0 -46 5 -83 12 -92 7 -8 17 -32 22 -54 5 -21 9 -32 10 -23
1 22 52 57 87 59 45 3 50 1 60 -21 6 -13 31 -28 64 -40 l55 -20 38 42 c52 58
54 105 7 154 -17 17 -30 39 -30 48 0 10 -12 36 -27 60 -25 38 -28 40 -31 19
-4 -24 72 -191 92 -204 13 -9 4 -11 -42 -8 -18 1 -39 -4 -47 -10 -24 -20 -54
-1 -75 47 -19 44 -19 70 1 57 6 -4 9 12 7 42 -4 62 -26 71 -30 12 -2 -36 -7
-44 -26 -46 -15 -2 -32 7 -51 27 -15 16 -40 33 -54 36 -23 6 -26 12 -24 39 1
20 -2 30 -10 29 -7 -2 -13 6 -13 16 0 13 8 21 23 23 20 3 22 8 22 67 0 43 -4
66 -12 68 -7 3 -15 -1 -17 -9z"/>
<path d="M5237 2004 c-4 -4 -7 -17 -7 -28 1 -19 1 -20 11 -3 11 19 8 43 -4 31z"/>
<path d="M4876 1933 c-5 -19 -2 -150 5 -168 4 -13 -10 -55 -20 -55 -4 0 -25
-16 -46 -34 -21 -19 -54 -39 -73 -43 -35 -8 -63 -36 -50 -49 18 -17 85 23 206
121 28 24 47 55 23 41 -10 -7 -21 66 -21 140 0 53 -14 80 -24 47z"/>
<path d="M5742 1924 c-6 -11 -3 -32 11 -68 43 -110 46 -115 74 -118 16 -2 32
-12 38 -24 16 -33 36 -54 50 -54 21 0 6 35 -30 68 -18 17 -36 46 -39 64 -8 38
-66 140 -83 145 -6 2 -16 -3 -21 -13z"/>
<path d="M4779 1893 c-6 -58 1 -183 11 -183 18 0 24 32 12 63 -9 23 -8 37 3
64 8 20 15 37 15 39 0 7 -40 24 -41 17z"/>
<path d="M5270 1820 c0 -5 5 -21 12 -35 9 -21 9 -31 -1 -47 -9 -14 -9 -24 -2
-31 7 -7 12 -1 16 19 4 16 8 34 10 41 5 14 -17 63 -27 63 -5 0 -8 -4 -8 -10z"/>
<path d="M4686 1795 c-6 -16 2 -99 11 -125 4 -8 10 5 14 30 12 71 -6 142 -25
95z"/>
<path d="M5202 1650 c-17 -28 -16 -70 3 -70 11 0 15 12 15 45 0 25 -1 45 -3
45 -1 0 -8 -9 -15 -20z"/>
<path d="M5282 1630 c0 -14 2 -19 5 -12 2 6 2 18 0 25 -3 6 -5 1 -5 -13z"/>
<path d="M5924 1634 c-4 -10 -14 -27 -21 -36 -16 -18 -10 -38 10 -38 16 0 39
72 27 84 -6 6 -12 2 -16 -10z"/>
<path d="M4825 1364 c-11 -11 -14 -25 -10 -41 3 -14 1 -31 -5 -38 -13 -16 11
-38 34 -29 12 5 16 19 16 59 0 60 -10 74 -35 49z"/>
<path d="M5170 1327 c0 -17 20 -37 37 -37 21 0 15 16 -12 34 -19 13 -25 13
-25 3z"/>
<path d="M4137 1094 c-4 -4 -7 -14 -7 -23 0 -11 3 -12 11 -4 6 6 10 16 7 23
-2 6 -7 8 -11 4z"/>
<path d="M4925 1080 c-9 -14 13 -50 31 -50 8 0 17 7 20 15 11 29 -35 61 -51
35z"/>
<path d="M4734 993 c4 -26 19 -65 34 -86 64 -90 61 -81 22 -73 -19 5 -57 10
-83 13 -44 4 -54 9 -102 61 l-54 57 -16 -38 c-11 -27 -14 -52 -9 -87 5 -35 1
-63 -12 -99 -14 -41 -15 -52 -5 -65 8 -9 18 -16 24 -16 14 0 57 -48 57 -64 0
-7 -8 -20 -18 -29 -15 -14 -18 -28 -14 -79 2 -35 6 -65 8 -66 1 -2 19 1 39 8
49 16 60 46 46 130 -14 87 -20 185 -12 197 8 14 51 27 52 16 5 -53 18 -73 50
-73 27 0 87 -29 96 -45 15 -27 113 -56 163 -49 111 16 129 54 65 142 -87 120
-131 171 -147 172 -9 0 -28 5 -42 11 -20 9 -29 9 -41 -1 -21 -17 -30 -6 -30
37 0 22 -6 38 -15 43 -8 4 -26 12 -39 19 l-24 13 7 -49z m223 -216 c-4 -28 -2
-48 5 -55 19 -19 -4 -35 -34 -23 -20 8 -26 18 -31 56 -8 57 -4 65 35 65 30 0
31 0 25 -43z"/>
<path d="M4113 943 c-28 -5 -47 -29 -39 -48 9 -25 74 -49 92 -34 17 14 18 61
2 77 -12 12 -16 13 -55 5z"/>
<path d="M4150 758 c0 -8 -20 -24 -45 -36 -38 -18 -45 -26 -45 -51 0 -17 -4
-33 -10 -36 -5 -3 -10 -15 -10 -27 0 -14 5 -18 15 -14 22 8 32 -24 12 -36 -21
-11 -22 -37 -1 -66 16 -23 64 -165 64 -191 0 -7 14 -29 30 -48 17 -18 30 -39
30 -46 0 -21 54 -67 78 -67 14 0 27 11 37 30 9 18 23 30 35 30 24 0 27 33 4
52 -8 7 -27 26 -42 42 -26 27 -91 66 -111 66 -6 0 -10 -10 -8 -21 3 -28 -19
-36 -32 -11 -8 15 -6 25 9 42 20 23 27 84 11 94 -5 3 -7 38 -4 78 9 165 8 221
-4 225 -7 3 -13 -2 -13 -9z"/>
<path d="M4338 564 c-5 -4 -8 -21 -8 -38 1 -26 2 -28 11 -13 11 19 8 63 -3 51z"/>
<path d="M4465 429 c-10 -15 3 -25 16 -12 7 7 7 13 1 17 -6 3 -14 1 -17 -5z"/>
</g>
</svg>
