<?xml version="1.0" standalone="no"?>
<!DOCTYPE svg PUBLIC "-//W3C//DTD SVG 20010904//EN"
 "http://www.w3.org/TR/2001/REC-SVG-20010904/DTD/svg10.dtd">
<svg version="1.0" xmlns="http://www.w3.org/2000/svg"
 width="975.000000pt" height="257.000000pt" viewBox="0 0 975.000000 257.000000"
 preserveAspectRatio="xMidYMid meet">

<g transform="translate(0.000000,257.000000) scale(0.100000,-0.100000)"
fill="#000000" stroke="none">
<path d="M2639 2249 c-23 -24 -45 -35 -96 -45 -59 -13 -120 -36 -163 -63 -8
-5 -36 -20 -63 -33 -26 -12 -63 -39 -81 -58 -116 -121 -183 -183 -211 -194
-11 -5 -47 -12 -80 -16 -122 -16 -165 -35 -165 -73 0 -32 30 -46 98 -47 46 0
64 -4 68 -15 6 -14 -54 -112 -116 -190 -18 -22 -41 -58 -52 -80 -84 -166 -299
-413 -399 -460 -30 -14 -73 -40 -95 -59 -60 -48 -179 -78 -314 -79 -59 -1
-118 4 -135 11 -16 6 -42 14 -57 17 -15 3 -40 18 -55 34 -15 16 -58 49 -95 74
-124 83 -143 123 -142 304 0 116 11 179 46 275 6 16 31 50 57 77 25 27 54 60
63 74 17 24 31 29 178 63 93 22 212 21 263 -1 21 -9 46 -29 55 -45 9 -17 22
-30 29 -30 7 0 24 -10 39 -23 22 -19 28 -34 31 -78 4 -47 -1 -63 -35 -129 -37
-72 -41 -76 -95 -94 l-55 -20 -41 37 c-23 20 -49 37 -58 37 -9 0 -31 5 -49 12
-28 10 -39 9 -74 -7 -53 -24 -77 -55 -86 -111 -3 -24 -10 -47 -15 -50 -17 -10
-8 -22 40 -53 32 -21 53 -43 60 -63 23 -67 3 -82 -23 -17 -14 34 -20 39 -39
34 -49 -15 -72 -31 -81 -57 -14 -39 14 -68 66 -68 22 0 49 -5 61 -11 18 -10
24 -8 43 15 l23 26 12 -22 c24 -45 63 -51 105 -15 21 19 26 29 20 50 -4 16
-14 27 -27 29 -28 4 -48 33 -33 48 6 6 38 15 71 20 59 10 107 32 231 109 47
29 57 43 97 124 46 94 51 127 42 257 -2 31 1 35 23 38 14 2 36 14 50 27 14 12
38 26 55 29 16 4 48 28 72 54 38 41 43 52 43 94 0 63 -17 78 -89 78 -74 0
-111 -25 -111 -75 0 -24 -7 -39 -22 -49 -31 -22 -114 -20 -166 4 -23 11 -71
25 -105 31 -34 6 -83 20 -109 31 -41 18 -61 20 -170 16 -175 -7 -209 -24 -409
-201 -59 -52 -68 -65 -83 -120 -10 -34 -25 -70 -34 -81 -11 -12 -17 -37 -18
-75 -1 -31 -6 -74 -12 -96 -16 -57 -7 -199 17 -268 34 -98 83 -179 144 -239
31 -32 64 -58 72 -58 8 0 18 -6 22 -14 16 -29 86 -76 113 -76 15 0 33 -7 40
-15 6 -7 33 -17 58 -20 26 -3 55 -10 64 -16 23 -12 262 -11 308 1 116 31 162
47 184 67 14 12 38 29 53 37 15 8 52 37 82 65 30 28 61 51 70 51 9 0 27 17 41
38 14 20 44 55 67 77 23 22 64 73 90 113 68 99 146 193 155 184 4 -4 4 -21 -1
-37 -22 -72 -43 -148 -71 -258 -31 -124 -31 -135 9 -171 21 -19 26 -41 15 -69
-4 -12 -24 -14 -99 -11 -53 2 -97 -1 -100 -6 -4 -6 -16 -10 -29 -10 -23 0 -68
-42 -80 -74 -10 -28 22 -102 48 -114 40 -18 132 -25 169 -13 36 12 57 44 57
85 0 46 13 87 25 82 16 -6 55 35 55 57 0 9 4 18 9 21 4 3 6 48 3 100 -4 87 3
143 35 259 9 34 23 5 23 -49 0 -38 10 -82 35 -147 56 -145 63 -159 108 -207
23 -25 51 -57 62 -72 11 -15 58 -49 105 -77 47 -27 99 -59 115 -70 17 -11 46
-28 65 -37 19 -9 43 -20 52 -25 10 -5 32 -9 50 -9 18 0 50 -5 71 -11 49 -13
337 7 385 27 19 8 38 12 42 9 5 -3 25 4 45 15 19 11 43 20 52 20 9 0 40 24 69
52 28 29 76 76 104 103 29 28 61 68 71 90 10 22 31 63 47 90 15 28 34 72 41
98 16 55 87 142 150 182 l44 29 19 -25 c42 -53 49 -59 68 -59 11 0 37 15 57
33 47 43 48 86 5 130 -26 25 -37 29 -88 30 -70 1 -131 -21 -193 -69 -24 -19
-47 -34 -50 -34 -4 0 -11 21 -18 48 -10 45 -35 101 -88 205 -16 30 -42 60 -72
80 -25 17 -59 44 -76 59 -16 14 -65 40 -108 57 -66 26 -91 31 -165 31 -107 0
-153 -13 -224 -62 -144 -99 -193 -254 -134 -418 24 -67 24 -73 9 -90 -9 -10
-29 -23 -44 -30 -35 -14 -71 -83 -71 -135 0 -72 58 -125 136 -125 47 0 129 59
151 109 9 20 17 63 17 96 1 57 2 60 25 57 39 -4 96 16 121 43 13 14 29 25 36
25 23 0 54 51 54 89 0 63 -53 111 -121 111 -27 0 -42 -10 -81 -51 -26 -27 -50
-59 -53 -69 -7 -21 -29 -32 -48 -24 -9 3 -12 23 -10 72 5 97 21 148 63 201
l37 47 96 12 c93 11 97 11 149 -13 29 -14 62 -25 72 -25 30 0 124 -107 163
-184 32 -64 35 -77 35 -157 0 -61 -6 -105 -21 -146 -11 -32 -22 -71 -26 -86
-6 -29 -28 -57 -126 -156 -57 -58 -138 -121 -156 -121 -6 0 -22 -9 -37 -21
-14 -11 -44 -22 -66 -24 -22 -3 -49 -9 -60 -15 -11 -6 -25 -8 -30 -5 -5 3 -44
8 -87 11 -42 3 -82 9 -87 13 -6 5 -27 12 -46 16 -19 4 -39 11 -45 15 -5 4 -35
15 -65 24 -30 10 -73 31 -94 47 -47 35 -156 155 -156 173 0 7 -14 25 -31 42
-34 31 -69 102 -69 138 0 12 -12 56 -26 97 -24 68 -26 83 -21 189 4 86 10 127
25 160 11 25 26 65 33 90 12 42 35 94 89 199 12 24 36 58 54 75 17 17 36 40
42 51 11 18 12 17 21 -15 8 -30 14 -35 42 -38 43 -4 56 8 75 77 15 55 44 89
103 125 21 12 117 35 126 29 5 -3 52 -5 106 -4 81 0 101 -3 113 -17 26 -30 26
-47 2 -88 -50 -82 -20 -105 63 -48 71 50 69 48 126 67 45 15 50 15 95 -4 26
-11 61 -31 77 -43 17 -13 57 -32 90 -42 33 -10 65 -24 71 -31 6 -7 14 -13 17
-13 13 0 171 -112 184 -130 8 -11 27 -27 44 -35 17 -9 29 -24 29 -35 0 -31
-18 -33 -44 -5 -24 26 -25 26 -36 6 -6 -12 -26 -28 -45 -35 -54 -23 -85 -59
-85 -100 0 -40 35 -106 57 -106 34 0 51 20 58 69 7 53 18 61 80 61 58 -1 162
-63 265 -159 24 -22 47 -41 51 -41 4 0 11 -9 14 -20 4 -11 29 -42 56 -69 27
-27 49 -55 49 -63 0 -8 14 -27 31 -44 17 -16 39 -46 50 -66 l19 -37 -29 -20
c-16 -12 -40 -21 -53 -21 -25 0 -93 -30 -118 -52 -27 -23 -69 -85 -75 -110
-11 -42 12 -147 40 -183 32 -43 32 -57 -5 -110 -43 -63 -38 -113 14 -140 42
-22 143 -19 191 5 34 17 54 19 147 16 87 -3 112 -7 128 -21 17 -16 41 -19 143
-21 122 -2 244 10 262 27 5 5 19 9 31 9 12 0 35 11 51 24 15 13 37 26 48 30
11 3 27 18 36 33 21 39 154 155 214 188 27 15 63 38 78 51 16 13 37 24 48 24
11 0 51 9 90 20 40 11 76 17 81 14 4 -3 20 -8 35 -10 14 -3 37 -14 51 -24 14
-11 30 -20 36 -20 7 0 23 -15 36 -33 33 -44 33 -99 -2 -153 -22 -34 -34 -42
-81 -53 -75 -18 -90 -9 -91 59 -1 45 -5 56 -29 73 -25 19 -31 20 -65 8 -51
-18 -72 -39 -72 -71 0 -16 -7 -30 -16 -34 -13 -5 -14 -9 -4 -21 9 -11 16 -12
26 -4 9 8 15 5 23 -10 6 -11 11 -26 11 -34 0 -29 35 -54 85 -60 28 -3 66 -8
85 -11 116 -17 126 -18 140 -1 8 9 30 25 49 35 43 22 76 56 86 89 19 62 -4
173 -41 197 -12 8 -34 33 -49 54 -19 28 -41 44 -74 56 -25 9 -55 20 -66 24
-11 5 -52 11 -91 15 -63 5 -80 2 -154 -24 -46 -17 -90 -37 -99 -45 -9 -8 -33
-17 -54 -21 -20 -4 -56 -21 -80 -38 -77 -57 -105 -75 -149 -96 -24 -12 -55
-29 -70 -38 -65 -43 -165 -101 -183 -107 -11 -3 -45 -2 -75 3 -37 7 -68 6 -93
-2 -41 -11 -55 -8 -164 36 -33 13 -53 27 -53 36 0 19 102 111 123 111 8 0 34
-17 58 -39 68 -59 98 -71 160 -65 90 10 132 41 185 138 20 37 28 68 32 122 4
65 2 79 -23 126 -15 29 -40 66 -56 81 -16 15 -29 31 -29 34 0 3 44 49 98 102
53 53 137 140 187 194 49 53 95 97 100 97 13 0 135 -122 135 -135 0 -5 19 -28
42 -52 36 -37 42 -49 45 -92 3 -53 -4 -63 -45 -67 -34 -4 -71 -31 -82 -60 -14
-36 -12 -49 8 -74 15 -18 23 -21 56 -15 33 7 90 52 91 73 1 4 11 23 24 42 17
27 21 45 18 78 l-5 43 26 -23 c15 -13 43 -39 63 -58 70 -66 100 -90 112 -90 7
0 21 -14 31 -30 9 -17 27 -41 39 -54 12 -13 28 -32 36 -41 9 -12 22 -15 42
-11 16 3 29 1 29 -4 0 -12 198 -210 211 -210 18 0 78 -66 93 -102 22 -53 20
-70 -14 -113 -36 -45 -35 -66 3 -79 23 -8 36 -6 65 9 33 18 38 26 48 80 7 33
12 62 13 64 1 3 13 -7 29 -22 32 -31 101 -63 157 -72 22 -4 50 -16 62 -27 20
-18 34 -20 140 -17 196 4 207 5 231 13 13 4 61 2 106 -4 76 -12 86 -11 146 10
36 12 75 27 88 33 16 7 43 7 95 0 92 -14 155 -5 174 24 14 20 12 25 -26 66
l-41 44 73 66 c106 98 227 261 227 308 0 9 10 21 23 26 14 6 39 41 60 81 65
124 122 158 187 112 36 -26 72 -14 89 28 17 40 3 66 -52 93 -23 12 -44 23 -46
25 -5 5 37 61 99 130 68 77 141 133 235 180 39 20 85 47 104 60 52 37 78 40
106 14 21 -20 30 -22 81 -15 32 4 68 11 81 16 28 10 132 -21 171 -52 14 -10
37 -19 51 -19 15 0 36 -7 47 -15 10 -8 29 -15 42 -15 12 0 25 -7 29 -15 3 -9
18 -22 34 -31 43 -22 96 -83 112 -130 20 -57 4 -197 -36 -308 -6 -15 -25 -46
-43 -67 -18 -22 -47 -64 -64 -94 -25 -44 -38 -56 -67 -64 -20 -6 -46 -20 -58
-31 -18 -17 -26 -19 -50 -10 -22 8 -34 7 -59 -8 -38 -22 -125 -18 -153 6 -26
25 -70 42 -104 42 -26 0 -32 6 -49 45 -11 25 -24 45 -30 45 -5 0 -20 11 -32
25 -24 28 -44 31 -82 11 -17 -9 -51 -12 -104 -9 -77 3 -79 3 -125 -33 -26 -20
-47 -41 -47 -46 0 -5 -18 -27 -40 -48 -37 -36 -40 -42 -40 -94 0 -46 4 -57 21
-66 30 -16 66 -23 128 -23 65 0 80 16 105 105 17 63 35 78 69 59 12 -7 34 -19
50 -27 15 -8 27 -22 27 -30 0 -8 10 -14 23 -14 13 0 42 -16 65 -36 26 -22 56
-37 79 -40 21 -3 47 -9 58 -14 11 -5 54 -13 95 -20 64 -9 82 -8 113 5 20 8 59
15 88 15 33 0 60 6 77 19 15 10 39 21 55 25 15 3 27 11 27 16 0 13 103 110
117 110 21 0 82 41 87 58 7 19 47 62 89 93 16 12 27 30 27 44 0 13 6 30 13 37
31 30 38 58 31 125 -9 106 -18 123 -110 214 -47 46 -94 100 -104 119 -10 19
-44 60 -75 90 -31 30 -77 76 -103 101 -62 60 -88 75 -142 83 -25 4 -75 16
-112 27 -103 30 -230 34 -324 9 -83 -23 -209 -85 -262 -132 -18 -15 -40 -28
-48 -28 -9 0 -72 -57 -140 -127 l-124 -128 0 40 c0 44 26 126 51 166 9 13 24
47 33 74 24 71 57 106 94 99 53 -11 105 11 135 58 32 50 35 90 7 118 -29 29
-69 43 -85 30 -9 -8 -15 -8 -20 0 -11 18 -45 11 -73 -17 -15 -16 -34 -28 -42
-28 -21 0 -111 -139 -115 -177 -2 -18 -13 -60 -26 -93 -12 -33 -34 -95 -49
-139 l-26 -79 -13 68 c-13 74 -54 166 -100 224 -15 20 -34 48 -42 63 -15 27
-119 118 -136 118 -6 0 -32 21 -59 48 -82 79 -96 85 -244 101 -67 8 -77 7 -96
-10 -23 -22 -46 -24 -76 -8 -20 11 -86 -2 -113 -22 -6 -5 -30 -11 -54 -15 -23
-4 -45 -13 -48 -20 -3 -8 -12 -14 -21 -14 -9 0 -46 -18 -83 -40 -37 -22 -75
-40 -84 -40 -37 0 -133 -91 -165 -157 -13 -26 -29 -59 -37 -73 -8 -14 -32 -62
-55 -108 -34 -67 -49 -87 -84 -107 -23 -14 -52 -40 -64 -59 -11 -19 -30 -38
-42 -42 -11 -3 -31 -18 -43 -32 -18 -21 -33 -27 -71 -28 -27 -1 -65 -6 -84
-12 -52 -13 -74 0 -111 67 -39 71 -68 85 -105 50 -64 -60 -21 -196 59 -188 12
1 31 -2 42 -7 11 -5 61 -9 110 -8 73 0 98 4 132 22 23 12 48 22 55 22 7 0 33
16 58 35 58 44 60 47 92 84 31 37 58 41 58 8 0 -12 9 -40 20 -62 11 -22 20
-52 20 -67 0 -15 5 -28 10 -28 6 0 10 -16 10 -34 0 -27 11 -49 50 -95 28 -34
55 -61 60 -61 5 0 32 -22 59 -50 36 -36 58 -50 78 -50 15 0 41 -7 57 -15 36
-19 151 -19 229 -1 147 36 266 175 290 339 l10 73 51 -8 c67 -11 89 -5 118 34
56 73 60 158 10 215 -37 42 -58 50 -124 45 -53 -3 -60 -7 -98 -48 -28 -30 -40
-52 -40 -73 0 -33 -31 -51 -54 -32 -7 6 -29 8 -48 4 -28 -4 -44 0 -66 16 -37
26 -51 26 -105 2 -23 -10 -54 -23 -70 -29 -46 -19 -53 -51 -30 -134 17 -64 25
-77 62 -105 29 -23 54 -33 77 -33 66 0 132 44 149 98 12 42 39 21 37 -31 0
-16 -5 -42 -11 -56 -5 -14 -12 -38 -15 -52 -4 -18 -17 -31 -38 -40 -18 -7 -50
-24 -70 -37 -23 -15 -44 -21 -56 -18 -11 4 -32 2 -47 -4 -28 -11 -124 5 -200
33 -28 10 -105 82 -105 97 0 4 -8 18 -19 31 -10 13 -21 40 -25 60 -4 21 -13
42 -21 49 -18 15 -20 85 -4 179 13 84 26 118 58 157 14 17 39 53 55 80 28 47
111 124 165 153 14 7 40 26 56 41 l30 28 160 -3 c124 -2 167 -6 190 -19 17 -9
35 -16 41 -16 21 0 164 -99 164 -113 0 -11 66 -71 115 -105 12 -8 59 -104 70
-142 4 -14 19 -43 34 -64 25 -38 26 -45 26 -170 0 -118 -3 -139 -28 -208 -31
-89 -67 -160 -83 -165 -5 -2 -18 13 -27 32 -23 48 -61 46 -89 -4 -17 -29 -18
-41 -9 -77 6 -24 11 -63 11 -87 0 -41 -4 -48 -67 -109 -38 -36 -76 -79 -85
-97 -14 -25 -23 -31 -51 -31 -20 0 -46 -9 -61 -21 -18 -14 -50 -24 -89 -29
-34 -4 -75 -14 -92 -23 -16 -9 -35 -17 -41 -17 -6 0 -18 -9 -25 -20 -12 -16
-27 -20 -89 -22 -114 -3 -117 3 -48 106 53 78 48 101 -24 110 -48 7 -55 5 -74
-17 -12 -14 -25 -46 -28 -71 -9 -58 -30 -70 -107 -63 -66 6 -190 62 -289 130
-34 23 -83 56 -109 72 -26 17 -62 42 -80 58 -18 15 -37 27 -42 27 -5 0 -9 11
-9 25 0 29 15 33 28 8 9 -15 15 -15 50 -5 21 7 48 12 59 12 11 0 45 11 75 24
40 18 61 35 77 62 37 62 38 89 4 123 -28 27 -35 29 -79 25 -67 -7 -86 -28 -88
-99 -2 -67 -14 -77 -91 -82 -50 -2 -155 15 -155 26 0 3 -32 31 -71 61 -39 30
-120 103 -181 162 -61 60 -114 108 -118 108 -4 0 -13 7 -20 15 -9 11 -16 12
-26 4 -9 -8 -15 -5 -23 10 -6 11 -11 27 -11 36 0 9 -12 32 -27 51 -21 28 -31
34 -50 29 -22 -5 -24 -3 -18 17 10 31 13 34 27 20 7 -7 21 -12 32 -12 30 0
145 59 156 81 6 10 17 19 25 19 7 0 31 20 53 45 33 38 40 54 46 105 4 34 2 76
-4 100 -12 45 -48 110 -60 110 -5 0 -12 14 -15 32 -7 28 -3 36 39 74 25 24 46
48 46 53 0 5 12 23 26 40 32 38 27 52 -25 79 l-41 22 -47 -26 c-27 -14 -68
-47 -93 -74 -61 -65 -79 -73 -110 -49 -16 11 -42 19 -70 19 -25 1 -66 5 -92 9
-25 4 -53 4 -61 -1 -8 -4 -35 -10 -59 -13 -23 -3 -59 -8 -79 -11 -22 -3 -40
-1 -44 5 -6 11 -52 5 -71 -10 -6 -5 -30 -10 -55 -12 -24 -3 -73 -18 -108 -36
-36 -17 -76 -31 -90 -31 -14 0 -58 -16 -98 -36 -40 -19 -105 -46 -144 -59 -39
-14 -77 -31 -83 -40 -6 -8 -28 -15 -51 -16 -48 -2 -125 -19 -141 -31 -7 -5
-30 -4 -56 3 -35 10 -49 20 -63 45 -17 31 -17 35 1 84 15 41 26 56 55 71 42
21 49 18 49 -27 0 -18 5 -36 10 -39 6 -3 10 -15 10 -25 0 -29 37 -46 59 -26
10 9 25 16 35 16 10 0 33 12 52 26 43 33 44 68 6 139 -37 68 -75 86 -160 79
-36 -3 -92 -14 -125 -25 -33 -10 -65 -19 -72 -19 -7 0 -33 -24 -57 -52 -34
-40 -46 -64 -51 -99 -13 -97 60 -221 157 -265 42 -19 64 -22 126 -19 78 4 142
16 163 33 7 5 37 14 68 20 61 12 189 68 189 83 0 5 10 9 23 9 13 0 27 3 31 7
4 4 35 17 69 29 34 11 93 33 130 47 38 14 76 26 85 26 23 1 66 8 127 22 46 10
76 12 123 8 9 0 40 1 69 4 110 10 109 -33 -5 -158 -76 -83 -78 -85 -124 -85
-26 0 -50 5 -54 11 -4 7 -24 9 -53 6 -36 -4 -50 -1 -67 14 -17 16 -27 18 -67
10 -82 -15 -112 -49 -136 -154 -16 -71 -14 -94 20 -191 17 -49 28 -98 25 -110
-5 -21 -53 -83 -122 -159 -19 -21 -34 -42 -34 -47 0 -5 -12 -23 -27 -39 -16
-17 -41 -46 -58 -66 -49 -59 -57 -66 -68 -62 -23 7 -39 93 -40 212 -2 114 -1
123 27 177 16 31 29 74 30 95 1 36 0 38 -29 35 -16 -2 -41 -10 -53 -18 -31
-20 -72 -114 -72 -162 0 -21 -4 -42 -9 -47 -5 -6 -11 -27 -13 -48 -3 -41 -21
-55 -26 -21 -2 12 -24 44 -50 72 -45 49 -69 76 -157 180 -22 26 -78 86 -125
134 -47 48 -107 113 -135 144 -27 32 -92 91 -142 131 -51 41 -93 79 -93 84 0
6 -11 24 -25 41 -30 36 -33 90 -8 143 17 35 17 38 -2 73 -17 31 -26 38 -56 40
-30 3 -41 -2 -63 -28 -21 -26 -26 -42 -26 -86 0 -51 -1 -54 -26 -54 -29 0 -64
17 -80 38 -5 7 -32 20 -60 27 -27 8 -76 21 -109 31 -33 9 -76 20 -95 23 -19 4
-45 13 -57 19 -12 7 -48 13 -81 15 -36 2 -74 11 -101 25 -49 26 -119 52 -139
52 -8 0 -27 -14 -43 -31z m2926 -422 l35 -53 -27 -57 c-24 -49 -34 -59 -76
-77 -60 -24 -94 -25 -119 -3 -25 22 -23 30 20 78 76 85 105 121 115 142 6 13
12 23 14 23 1 0 19 -24 38 -53z m-257 -80 c-7 -14 -13 -17 -16 -9 -6 19 6 44
18 37 7 -4 6 -14 -2 -28z m-360 -141 c15 -8 35 -23 46 -34 18 -20 18 -22 0
-59 -25 -51 -51 -50 -81 2 -30 53 -30 105 -1 105 5 0 21 -6 36 -14z m-163
-703 c40 -42 44 -67 15 -123 -22 -43 -23 -43 -94 -34 -37 6 -50 12 -61 34 -17
32 -5 100 20 115 9 6 26 18 37 28 30 25 43 22 83 -20z m-470 -63 c34 -13 32
-45 -4 -66 -15 -9 -35 -28 -44 -43 -8 -14 -29 -34 -45 -43 l-30 -18 -16 49
c-21 64 -20 87 3 110 21 21 95 27 136 11z"/>
<path d="M6990 1877 c-36 -18 -82 -92 -82 -131 0 -60 65 -156 105 -156 11 0
37 -5 57 -11 59 -18 85 -6 125 56 19 31 35 60 35 66 0 20 -44 114 -63 137 -31
34 -139 58 -177 39z m140 -227 c0 -5 -5 -10 -11 -10 -5 0 -7 5 -4 10 3 6 8 10
11 10 2 0 4 -4 4 -10z"/>
<path d="M7287 1853 c-4 -3 -7 -21 -7 -39 0 -23 8 -38 26 -53 35 -28 52 -26
64 4 5 14 14 25 20 25 5 0 10 8 10 18 0 29 -93 66 -113 45z"/>
<path d="M6782 1650 c-28 -26 -27 -27 3 -73 33 -48 61 -49 80 -3 17 41 12 59
-20 80 -31 21 -37 20 -63 -4z"/>
<path d="M818 1586 c-35 -18 -37 -68 -2 -95 35 -28 60 -27 79 3 37 56 -18 121
-77 92z"/>
<path d="M1001 1556 c-19 -20 -21 -30 -14 -52 14 -41 36 -51 67 -31 31 21 35
66 8 90 -25 23 -34 21 -61 -7z"/>
<path d="M642 1497 c-12 -13 -22 -36 -22 -51 0 -37 41 -76 79 -76 34 0 45 15
55 76 5 37 3 44 -19 58 -34 22 -68 20 -93 -7z"/>
<path d="M8620 1472 c-59 -6 -133 -39 -178 -78 -44 -39 -67 -75 -106 -166 -8
-21 -22 -38 -31 -38 -16 0 -21 -35 -6 -44 16 -11 41 6 47 31 6 24 6 24 26 -9
34 -56 49 -69 65 -57 7 6 13 26 13 43 0 18 5 37 11 43 6 6 23 35 38 65 l27 53
72 0 c85 -1 104 -13 72 -45 -19 -19 -21 -29 -16 -67 8 -57 33 -111 61 -129 38
-25 113 -2 154 47 32 39 33 42 32 131 -1 49 -6 98 -11 108 -17 32 -11 40 30
40 48 0 59 17 35 54 -27 41 -85 30 -85 -16 0 -24 -11 -23 -73 9 -50 26 -103
33 -177 25z"/>
<path d="M8962 1335 c-7 -14 -12 -30 -12 -35 0 -20 34 -40 69 -40 62 0 80 38
38 78 -33 31 -80 29 -95 -3z"/>
<path d="M571 1301 c-30 -30 -26 -52 13 -83 43 -35 66 -35 105 -2 38 32 39 56
5 79 -44 28 -98 31 -123 6z"/>
<path d="M8995 1153 c-22 -21 -13 -72 18 -96 32 -25 67 -32 78 -16 13 21 11
103 -3 117 -17 17 -74 15 -93 -5z"/>
<path d="M3133 1145 c-30 -13 -50 -45 -39 -63 3 -5 29 -8 58 -8 47 1 53 4 62
27 19 55 -14 73 -81 44z"/>
<path d="M8517 1142 c-10 -10 -17 -31 -17 -45 0 -32 31 -44 73 -28 21 8 27 17
27 39 0 51 -50 71 -83 34z"/>
<path d="M2930 1017 c-49 -23 -90 -58 -90 -78 0 -11 14 -47 31 -81 l31 -61 77
6 c42 3 85 9 94 13 28 10 47 58 47 118 0 51 -2 55 -36 75 -39 23 -112 27 -154
8z"/>
<path d="M8674 1022 c-15 -9 -34 -47 -34 -66 0 -43 89 -65 110 -27 31 59 -25
128 -76 93z"/>
<path d="M8857 1013 c-49 -55 -17 -121 51 -108 21 4 38 8 38 8 1 1 4 19 8 39
5 30 3 41 -14 58 -25 25 -62 26 -83 3z"/>
<path d="M2750 790 c-24 -24 -25 -38 -4 -69 13 -18 22 -21 43 -16 38 10 61 34
61 65 0 44 -64 56 -100 20z"/>
</g>
</svg>
