<?xml version="1.0" standalone="no"?>
<!DOCTYPE svg PUBLIC "-//W3C//DTD SVG 20010904//EN"
 "http://www.w3.org/TR/2001/REC-SVG-20010904/DTD/svg10.dtd">
<svg version="1.0" xmlns="http://www.w3.org/2000/svg"
 width="1460.000000pt" height="357.000000pt" viewBox="0 0 1460.000000 357.000000"
 preserveAspectRatio="xMidYMid meet">

<g transform="translate(0.000000,357.000000) scale(0.100000,-0.100000)"
fill="#000000" stroke="none">
<path d="M12810 3340 c-68 -11 -146 -31 -192 -49 -42 -17 -83 -31 -91 -31 -9
0 -48 -18 -89 -39 -40 -21 -100 -47 -133 -56 -33 -9 -67 -22 -75 -29 -8 -7
-23 -16 -32 -19 -9 -3 -18 -18 -20 -34 -2 -18 -13 -33 -31 -43 -28 -15 -29
-15 -75 35 -54 59 -65 65 -214 129 -20 8 -70 16 -109 17 -64 2 -75 -1 -90 -20
-10 -13 -31 -26 -46 -30 -42 -11 -76 -67 -68 -111 4 -19 15 -44 26 -56 10 -11
19 -26 19 -34 0 -7 12 -38 26 -67 14 -30 23 -60 21 -67 -3 -8 -33 -16 -72 -20
-38 -4 -111 -24 -176 -48 -99 -38 -116 -47 -174 -106 -67 -67 -82 -105 -51
-131 39 -33 180 -111 227 -126 30 -10 60 -23 68 -29 8 -7 81 -13 182 -16 113
-3 172 -9 180 -17 22 -22 -34 -114 -117 -189 -40 -38 -79 -81 -85 -96 -6 -16
-15 -28 -18 -28 -10 0 -166 -128 -212 -173 -20 -20 -52 -42 -70 -50 -19 -8
-54 -31 -78 -51 -24 -21 -58 -44 -75 -53 -17 -9 -45 -28 -63 -42 -17 -14 -50
-39 -73 -56 -53 -37 -94 -90 -86 -110 3 -10 0 -15 -11 -15 -14 0 -15 9 -9 66
10 102 -28 216 -97 291 -21 22 -28 38 -24 53 8 31 -20 168 -41 201 -10 16 -56
75 -102 133 -71 87 -96 110 -151 140 -131 70 -196 77 -375 38 -47 -10 -111
-46 -136 -77 -32 -40 -31 -145 2 -145 5 0 40 27 77 61 106 94 139 111 207 103
60 -7 61 -8 132 -106 20 -27 39 -71 49 -116 16 -65 17 -85 6 -175 -20 -171
-71 -282 -170 -375 -108 -102 -126 -117 -167 -145 -23 -15 -55 -40 -72 -55
-17 -15 -63 -43 -104 -61 -101 -47 -101 -47 -208 -82 -159 -51 -169 -59 -136
-102 20 -26 63 -21 141 17 93 46 193 86 212 86 21 0 125 66 237 149 110 81
202 189 256 298 74 149 82 181 87 356 5 129 8 157 20 157 23 0 127 -117 140
-158 26 -82 6 -171 -53 -241 -30 -36 -42 -94 -24 -116 18 -22 24 -20 73 30 59
58 87 60 121 6 62 -97 37 -183 -73 -254 -36 -23 -104 -55 -150 -71 -47 -16
-93 -38 -103 -48 -10 -10 -24 -18 -31 -18 -8 0 -22 -9 -32 -20 -17 -19 -18
-22 -2 -55 17 -35 24 -39 101 -49 38 -5 42 -3 107 64 88 90 139 122 219 137
90 16 192 16 215 0 15 -12 17 -21 11 -58 -19 -109 -9 -117 87 -73 55 25 72 28
153 26 58 -1 101 -7 120 -17 16 -8 40 -15 54 -15 17 0 41 -15 68 -40 22 -22
45 -40 50 -40 20 0 62 -42 62 -62 0 -17 -4 -19 -27 -13 -16 4 -44 11 -63 15
-19 4 -62 15 -95 24 -33 9 -82 19 -110 22 -49 6 -429 -21 -445 -31 -5 -3 -43
-6 -84 -6 -42 -1 -100 -8 -129 -16 -28 -8 -72 -17 -97 -19 -25 -2 -70 -6 -100
-10 -30 -4 -59 -6 -65 -5 -10 3 -116 -19 -244 -51 -46 -11 -120 -27 -165 -34
-44 -7 -115 -20 -156 -28 -46 -8 -179 -16 -344 -20 -148 -4 -273 -9 -278 -12
-16 -10 -137 -5 -158 6 -16 9 -25 8 -36 -1 -11 -9 -28 -9 -72 -1 -31 6 -75 14
-97 17 -41 6 -50 9 -167 45 -37 12 -72 19 -77 16 -5 -4 -36 6 -68 21 -32 15
-65 27 -73 27 -8 1 -19 4 -25 7 -5 4 -24 10 -41 13 -22 5 -35 17 -47 41 -17
37 -35 43 -66 23 -15 -9 -24 -7 -49 10 -16 12 -34 22 -39 22 -9 0 -113 69
-137 91 -8 8 -37 32 -65 54 -50 40 -67 63 -55 74 3 3 15 -6 26 -22 11 -15 27
-27 36 -27 10 0 35 -11 57 -25 58 -35 141 -75 158 -75 8 0 20 -7 27 -15 7 -8
20 -15 30 -15 10 0 23 -7 30 -15 6 -8 36 -21 65 -30 30 -8 76 -25 102 -37 27
-12 64 -21 83 -19 24 1 58 -9 108 -34 72 -36 75 -37 150 -30 42 4 173 7 290 7
118 -1 225 3 238 8 32 13 32 54 0 75 -21 14 -31 14 -68 4 -34 -9 -305 -23
-403 -20 -79 2 -155 10 -171 19 -11 5 -44 12 -74 16 -30 4 -73 13 -95 20 -22
7 -80 26 -130 41 -49 16 -120 41 -156 57 -36 15 -72 28 -81 28 -8 0 -23 9 -33
20 -10 11 -24 20 -31 20 -8 0 -38 21 -68 48 -30 26 -89 76 -131 112 -42 35
-98 89 -123 120 -26 30 -50 57 -54 58 -5 2 -8 9 -8 15 0 7 -10 28 -22 47 -25
40 -102 207 -119 257 -9 29 -15 34 -37 31 -23 -3 -27 -8 -30 -39 -4 -42 70
-271 99 -308 11 -13 19 -27 19 -32 0 -5 37 -54 83 -109 45 -56 96 -119 113
-142 17 -22 49 -52 72 -68 22 -15 63 -45 89 -67 46 -39 204 -141 268 -175 130
-67 175 -89 210 -101 22 -8 72 -27 110 -42 106 -41 206 -62 340 -72 80 -5 92
-6 163 -3 20 1 91 -3 157 -8 150 -13 536 -6 640 12 17 3 95 17 175 31 80 14
168 30 195 34 63 11 336 70 352 75 6 3 54 8 105 11 51 3 107 10 123 15 46 13
98 21 209 30 55 5 112 11 126 15 14 3 54 1 90 -4 36 -6 99 -12 140 -15 41 -3
91 -10 110 -16 40 -12 120 -85 175 -160 61 -83 115 -77 115 14 0 40 -36 107
-117 220 -41 56 -143 148 -188 170 -22 10 -51 25 -65 31 -39 20 -107 29 -215
29 l-99 1 -23 35 c-44 63 -26 80 147 135 30 10 62 24 71 31 8 8 27 14 40 14
14 0 43 9 64 20 22 12 72 30 110 42 39 11 75 24 80 28 13 10 253 90 270 90 7
0 26 7 41 15 16 8 37 15 46 15 24 0 48 11 48 21 0 16 -68 10 -138 -11 -159
-49 -266 -85 -405 -136 -81 -30 -158 -54 -170 -54 -13 0 -31 -6 -42 -14 -11
-8 -63 -27 -116 -44 -52 -16 -108 -36 -125 -45 -41 -21 -104 -32 -104 -18 0 6
21 22 48 36 129 70 221 136 311 223 30 28 59 52 64 52 10 0 80 58 172 143 35
32 78 67 97 76 20 11 55 50 88 98 30 45 62 88 70 96 8 9 42 50 75 92 33 43 78
98 101 124 22 25 63 73 89 106 27 33 68 75 92 94 23 18 43 37 43 41 0 4 51 51
113 105 61 54 115 104 119 111 17 27 244 174 355 229 40 19 85 46 100 58 15
13 42 29 60 36 18 7 40 25 49 40 10 14 26 32 36 39 25 18 23 29 -9 46 -47 23
-103 25 -223 6z m-80 -159 c0 -11 -55 -53 -100 -76 -41 -21 -139 -99 -157
-125 -7 -10 -35 -32 -61 -48 -27 -17 -97 -76 -155 -132 -59 -57 -120 -112
-136 -124 -15 -12 -57 -51 -92 -88 -61 -64 -101 -88 -209 -127 -19 -7 -46 -18
-59 -25 -31 -14 -208 -13 -286 3 -33 7 -80 24 -104 37 -24 13 -51 24 -60 24
-45 0 -55 63 -16 102 58 58 147 90 286 102 31 3 69 10 85 16 15 6 40 10 54 9
34 -3 112 11 128 23 19 16 15 24 -37 62 -55 41 -141 172 -141 216 0 50 20 63
95 61 102 -3 168 -42 266 -159 32 -39 66 -41 106 -8 15 13 39 27 53 31 14 4
54 29 90 55 36 26 82 53 102 59 20 7 42 19 48 27 7 7 22 14 34 14 11 0 35 7
51 16 86 45 215 78 215 55z m-4866 -1622 c15 -22 25 -43 22 -47 -9 -8 -63 46
-69 69 -9 34 19 21 47 -22z m94 -107 c3 -9 -2 -13 -14 -10 -9 1 -19 9 -22 16
-3 9 2 13 14 10 9 -1 19 -9 22 -16z"/>
<path d="M7247 3188 c-22 -8 -38 -32 -82 -122 l-54 -113 -57 -12 c-31 -7 -78
-14 -103 -16 -53 -3 -111 -22 -111 -37 0 -21 23 -49 127 -154 98 -99 113 -119
159 -214 60 -124 81 -187 68 -200 -14 -14 -186 -20 -201 -8 -7 6 -13 23 -13
39 0 37 -41 161 -72 219 -69 129 -86 151 -218 294 -59 63 -137 106 -240 131
-30 7 -81 28 -114 45 l-58 33 -107 -8 c-95 -6 -144 -13 -206 -28 -11 -3 -47
-12 -80 -20 -33 -8 -103 -33 -155 -55 -53 -22 -108 -44 -123 -47 -15 -4 -39
-22 -54 -41 -16 -18 -48 -55 -72 -81 -49 -52 -124 -165 -136 -203 -4 -14 -21
-54 -38 -88 -34 -75 -40 -153 -20 -317 24 -195 73 -302 199 -428 131 -132 252
-185 439 -194 116 -6 111 -7 326 58 79 24 151 67 175 106 10 15 36 48 59 73
33 37 45 61 64 132 12 47 28 94 34 103 9 11 32 17 77 20 241 15 261 18 242 37
-8 8 -94 11 -276 12 -236 1 -267 3 -282 18 -14 14 -15 22 -6 42 20 45 71 48
872 61 483 7 729 15 835 27 55 5 145 10 200 9 89 -1 102 -3 118 -22 21 -26 22
-82 2 -99 -11 -9 -88 -12 -302 -12 -224 0 -293 -3 -314 -14 -15 -7 -28 -11
-31 -9 -9 10 -146 7 -164 -3 -17 -10 -17 -12 11 -22 22 -8 35 -9 48 -1 11 8
56 10 125 6 180 -8 402 -8 502 -1 52 4 116 9 142 10 26 1 55 9 65 17 69 55 70
96 5 167 -44 48 -52 52 -93 52 -24 0 -74 3 -111 7 -61 5 -68 8 -68 28 0 45
131 112 265 135 66 11 73 10 125 -13 30 -14 66 -37 80 -52 23 -24 25 -33 22
-106 -2 -44 -7 -92 -13 -105 -10 -29 -4 -63 21 -114 23 -45 46 -64 96 -78 67
-19 84 -15 129 31 93 98 103 294 19 395 -11 12 -32 40 -49 61 -16 22 -42 45
-57 51 -15 7 -35 21 -45 32 -38 42 -73 51 -215 56 -124 4 -142 3 -182 -16
-121 -57 -210 -142 -243 -232 -9 -25 -20 -50 -25 -56 -10 -14 -137 -28 -225
-25 -34 1 -89 -3 -123 -10 -40 -8 -65 -8 -71 -2 -18 18 18 146 55 196 43 58
169 193 219 234 53 44 180 113 207 113 8 0 29 7 45 16 40 21 100 38 210 59
105 21 212 16 322 -13 88 -24 232 -103 288 -159 64 -64 133 -165 166 -244 26
-63 29 -86 34 -207 5 -139 -1 -176 -43 -292 -24 -67 -49 -99 -142 -184 -91
-83 -91 -82 -203 -139 -101 -50 -215 -60 -354 -28 -109 24 -159 51 -229 123
-54 55 -144 195 -144 222 0 9 -4 16 -10 16 -27 0 -2 -147 29 -170 4 -3 17 -21
29 -41 38 -62 178 -179 215 -179 10 0 28 -6 40 -14 55 -36 279 -52 332 -24 17
8 51 18 77 22 25 4 52 14 58 21 7 8 17 15 23 15 6 0 43 16 83 36 54 27 89 54
145 113 93 99 113 126 129 176 7 22 20 54 30 70 32 57 42 133 38 295 l-4 155
-42 79 c-22 43 -50 88 -60 100 -11 12 -30 39 -43 62 -21 36 -178 184 -194 184
-4 0 -19 9 -34 19 -15 11 -51 26 -81 34 -30 9 -79 24 -108 35 -76 29 -198 42
-352 35 -111 -4 -140 -8 -162 -24 -15 -10 -36 -19 -46 -19 -11 0 -42 -15 -68
-33 -27 -19 -71 -43 -97 -55 -56 -25 -89 -49 -155 -113 -26 -25 -52 -48 -57
-50 -6 -2 -50 -63 -98 -136 -71 -106 -89 -143 -98 -189 -6 -32 -8 -70 -5 -85
5 -24 2 -28 -24 -34 -29 -6 -54 -7 -125 -2 -39 2 -40 3 -39 40 1 21 8 55 16
75 20 49 57 160 67 197 4 17 38 91 74 164 92 184 105 241 58 256 -18 5 -133
-54 -146 -75 -9 -14 -51 -12 -63 3 -7 7 -16 37 -22 65 -13 58 -56 129 -91 148
-28 16 -54 16 -92 2z m101 -185 c11 -16 25 -53 32 -83 7 -30 18 -65 26 -77
l14 -22 60 31 c34 16 64 27 68 24 3 -4 1 -21 -6 -39 -15 -38 -75 -218 -102
-302 -10 -33 -26 -95 -36 -138 -10 -48 -23 -81 -33 -86 -25 -13 -79 -21 -96
-15 -25 10 -45 59 -45 112 0 32 -8 64 -23 93 -13 24 -27 56 -31 72 -8 32 -52
101 -113 176 -24 29 -43 57 -43 62 0 4 10 14 22 20 17 9 41 9 105 -1 108 -17
118 -10 115 86 -1 57 1 68 23 90 31 31 39 30 63 -3z m-1147 -85 c85 5 345 -71
369 -107 3 -5 28 -22 56 -40 49 -30 129 -114 168 -176 11 -16 27 -36 37 -42 9
-7 24 -32 33 -55 10 -24 31 -70 48 -104 46 -89 42 -94 -94 -95 -277 -4 -308 3
-308 63 0 69 -114 223 -195 263 -100 49 -388 82 -417 48 -6 -8 -32 -26 -57
-41 -73 -42 -127 -107 -162 -194 -31 -77 -28 -210 5 -277 33 -65 127 -141 174
-141 32 0 172 71 188 95 21 33 29 116 14 159 -7 21 -26 53 -42 72 -39 44 -33
77 20 101 80 36 110 43 177 42 142 0 191 -25 245 -123 33 -62 24 -69 -96 -72
-95 -2 -96 -2 -125 -36 -39 -43 -62 -95 -55 -122 3 -12 21 -38 40 -58 l34 -37
125 1 c68 0 130 -3 136 -6 17 -11 13 -48 -10 -85 -11 -18 -29 -57 -40 -85 -24
-60 -61 -102 -107 -122 -19 -7 -54 -27 -79 -44 -39 -27 -105 -46 -163 -49
-279 -13 -346 -2 -457 72 -86 58 -165 132 -188 177 -38 74 -63 199 -70 359 -4
82 -2 100 20 152 14 32 25 65 25 74 0 8 18 44 40 79 22 35 40 67 40 72 0 27
201 194 233 194 5 0 22 9 38 20 36 26 111 46 225 60 49 6 90 13 93 16 3 2 14
1 25 -3 12 -4 37 -6 57 -5z m-107 -334 c29 -11 17 -23 -69 -64 -83 -41 -155
-103 -155 -135 0 -14 58 -75 72 -75 15 0 38 -60 38 -98 0 -54 -40 -92 -99 -92
-23 0 -51 5 -62 11 -35 18 -59 92 -59 179 0 79 0 79 48 142 48 64 129 123 181
131 45 7 89 7 105 1z m2604 -22 c15 -10 39 -24 54 -31 69 -35 114 -122 128
-249 7 -63 7 -99 0 -112 -5 -10 -10 -28 -10 -39 0 -44 -65 -54 -101 -15 -22
23 -24 36 -30 162 -4 75 -10 150 -14 165 -4 16 -31 49 -61 74 -29 25 -51 50
-48 55 9 14 55 9 82 -10z"/>
<path d="M1509 3165 c-3 -3 -65 -6 -138 -8 -99 -2 -134 -6 -141 -16 -22 -37
39 -77 138 -91 131 -18 233 -59 372 -148 36 -23 70 -42 76 -42 6 0 28 -13 48
-29 21 -17 57 -39 81 -51 26 -13 45 -30 49 -43 3 -13 40 -59 83 -103 43 -44
111 -119 152 -167 41 -48 77 -87 82 -87 4 0 31 -33 60 -72 29 -40 62 -82 72
-93 20 -20 20 -20 12 0 -5 11 -9 38 -9 60 -1 34 2 40 21 43 12 2 43 -8 70 -22
46 -23 57 -24 174 -20 207 6 298 33 367 108 26 27 56 49 73 53 16 3 38 17 49
32 11 14 27 34 36 43 27 28 20 67 -17 103 -40 37 -71 55 -95 55 -9 0 -23 8
-30 18 -11 14 -30 17 -131 17 -65 0 -153 -4 -195 -8 l-78 -9 -10 28 c-8 20 -8
36 2 58 11 27 13 104 9 268 -2 56 -38 93 -87 90 -96 -6 -178 -50 -276 -146
-67 -66 -92 -71 -108 -20 -9 26 -26 44 -64 68 -44 29 -72 39 -146 53 -36 6
-97 22 -125 31 -51 18 -126 31 -210 37 -44 3 -98 8 -121 11 -22 2 -42 2 -45
-1z m390 -131 c156 -35 227 -74 297 -162 15 -18 39 -39 54 -47 24 -12 30 -12
56 4 16 10 51 41 78 69 27 28 54 48 61 46 7 -3 28 11 47 30 19 20 40 36 46 36
6 0 20 -15 31 -34 24 -38 28 -124 10 -220 -13 -74 -4 -132 25 -151 29 -20 163
-23 256 -6 60 11 84 11 130 1 53 -13 130 -48 130 -59 0 -15 -41 -71 -52 -71
-7 0 -33 -18 -58 -40 -25 -22 -52 -40 -59 -40 -8 0 -26 -11 -40 -24 -27 -25
-131 -48 -188 -41 -16 1 -72 6 -125 10 -69 5 -104 12 -120 24 -13 10 -49 30
-80 45 -38 17 -63 36 -73 56 -8 16 -23 35 -32 42 -10 7 -37 38 -60 68 -24 30
-61 75 -83 99 -22 25 -40 48 -40 51 0 4 -12 13 -27 19 -16 6 -62 43 -103 81
-41 39 -77 70 -81 70 -9 0 -79 60 -126 110 -37 38 -41 46 -26 52 27 10 27 10
152 -18z"/>
<path d="M4117 2384 c-27 -7 -54 -17 -60 -22 -7 -4 -31 -14 -55 -22 -41 -13
-132 -95 -132 -119 0 -6 -21 -36 -47 -68 -41 -50 -48 -66 -54 -118 -4 -33 -3
-80 2 -105 27 -127 28 -122 -60 -170 -56 -31 -66 -64 -56 -194 l6 -88 -33 5
c-18 2 -58 14 -88 27 -30 12 -71 26 -90 31 -19 6 -52 17 -72 26 -36 15 -75 12
-64 -6 9 -14 107 -61 127 -61 9 0 22 -6 28 -14 10 -12 69 -27 111 -27 8 0 25
-5 37 -11 18 -9 27 -8 42 6 23 21 38 14 52 -22 14 -36 3 -72 -21 -72 -11 0
-20 6 -20 13 0 21 -34 47 -59 47 -12 0 -30 4 -39 9 -26 14 -135 18 -139 5 -3
-10 94 -64 116 -64 6 0 11 -4 11 -9 0 -5 -20 -12 -44 -15 -24 -4 -52 -16 -61
-26 -10 -11 -26 -20 -36 -20 -10 0 -21 -5 -24 -10 -3 -5 -17 -10 -31 -10 -14
0 -36 -11 -49 -26 -22 -24 -34 -27 -97 -29 -120 -5 -173 -21 -220 -68 -95 -97
-109 -120 -162 -256 -31 -79 -38 -110 -43 -195 -7 -127 9 -170 90 -255 85 -90
129 -93 156 -11 13 42 13 44 -8 59 -12 9 -38 31 -57 49 -32 31 -34 36 -35 106
-2 98 21 143 81 161 14 4 44 25 67 46 27 25 52 39 69 39 14 0 37 9 51 20 14
11 33 20 42 20 10 0 22 5 28 11 12 12 136 47 208 58 28 4 55 9 60 11 6 2 24
-2 40 -9 17 -7 48 -12 70 -10 87 5 373 -2 425 -11 30 -6 75 -12 100 -14 103
-10 228 -28 264 -37 21 -6 49 -8 62 -5 26 7 112 -16 159 -41 17 -9 57 -20 90
-24 62 -8 131 -21 175 -34 14 -5 54 -9 90 -11 71 -4 99 -8 236 -30 73 -11 105
-12 165 -3 94 14 226 29 262 29 15 0 67 9 114 20 47 12 109 24 137 27 28 3 61
12 73 19 12 8 33 14 47 14 13 0 50 10 83 22 51 19 78 35 130 78 7 6 33 19 58
30 25 11 45 24 45 30 0 5 18 17 39 26 21 8 53 30 69 47 16 18 54 46 83 62 152
85 396 409 423 560 4 22 14 54 21 70 17 39 28 166 16 185 -8 12 -13 12 -31 -5
-20 -18 -21 -18 -34 0 -27 38 -43 12 -50 -84 -8 -108 -52 -223 -116 -304 -22
-27 -40 -56 -40 -63 0 -22 -188 -204 -211 -204 -6 0 -29 -15 -52 -33 -88 -71
-233 -146 -294 -153 -34 -3 -67 -15 -83 -30 -21 -18 -89 -34 -268 -65 -98 -18
-443 -9 -497 11 -17 7 -66 16 -110 22 -44 5 -98 12 -120 14 -22 3 -58 13 -80
23 -22 10 -61 21 -88 24 -26 4 -75 20 -108 37 -34 16 -70 30 -80 30 -11 0 -37
9 -59 20 -22 11 -47 20 -57 20 -23 0 -46 14 -116 68 -31 23 -60 42 -64 42 -24
1 -160 147 -218 235 -65 98 -66 101 -72 182 -6 90 10 218 35 268 40 81 165
146 282 146 40 1 65 6 75 16 18 18 20 58 3 73 -24 20 -89 60 -97 60 -5 0 -28
9 -52 20 -36 16 -64 19 -149 19 -58 -1 -127 -7 -153 -15z m160 -111 c4 -11 -1
-22 -17 -32 -13 -9 -35 -26 -49 -38 -13 -13 -27 -23 -30 -23 -3 0 -22 -15 -42
-33 -43 -38 -71 -86 -88 -147 -7 -25 -17 -55 -22 -68 -23 -60 7 -216 63 -322
69 -132 222 -302 302 -335 22 -9 48 -21 56 -26 8 -5 26 -14 40 -20 14 -6 42
-20 62 -31 43 -22 146 -57 168 -58 8 0 56 -16 105 -35 70 -28 109 -37 180 -41
49 -3 103 -10 118 -16 15 -6 45 -12 65 -14 108 -9 151 -14 173 -22 13 -5 51
-9 84 -10 33 0 88 -3 122 -7 34 -4 68 -3 75 2 7 4 59 9 115 10 94 2 161 11
258 33 62 14 158 38 183 46 15 4 22 2 22 -8 0 -7 -29 -26 -65 -42 -70 -30 -87
-35 -246 -71 -59 -14 -118 -29 -133 -35 -15 -5 -46 -10 -69 -10 -23 0 -80 -7
-127 -14 -47 -8 -87 -13 -90 -11 -13 8 -210 13 -245 6 -25 -5 -54 -3 -77 5
-21 7 -88 16 -150 20 -62 3 -131 13 -154 20 -22 7 -83 15 -135 17 -55 3 -107
11 -125 19 -16 8 -67 20 -114 27 -47 7 -107 17 -135 22 -27 5 -113 14 -190 19
-77 5 -219 16 -315 24 -183 16 -252 12 -410 -20 -130 -27 -192 -44 -247 -70
-30 -13 -60 -24 -68 -24 -7 0 -16 -4 -20 -9 -3 -5 -30 -17 -61 -26 -30 -9 -57
-22 -60 -30 -6 -14 -64 -39 -72 -30 -3 2 1 33 8 67 10 47 22 72 47 97 18 19
33 40 33 47 0 20 79 74 107 74 13 0 34 5 45 11 33 18 135 15 156 -4 22 -20 45
-21 74 -6 17 9 19 17 14 49 -4 28 -2 43 9 54 90 90 478 67 569 -33 11 -12 24
-21 30 -21 6 -1 29 -9 51 -20 40 -18 40 -18 63 2 51 49 11 109 -84 127 -32 7
-77 21 -99 33 -22 12 -56 29 -76 39 -33 17 -74 58 -125 126 -63 85 -14 203 85
203 16 0 41 4 55 10 32 12 33 30 6 139 -18 71 -19 90 -9 144 6 34 17 76 24 93
15 37 103 124 125 124 8 0 42 16 75 35 49 29 70 35 118 35 45 0 59 -4 64 -17z
m2425 -885 c-12 -13 -22 -17 -22 -11 0 15 31 46 38 38 3 -3 -4 -15 -16 -27z
m-57 -48 c-3 -5 -10 -10 -16 -10 -5 0 -9 5 -9 10 0 6 7 10 16 10 8 0 12 -4 9
-10z m-94 -84 c-6 -8 -22 -16 -34 -20 -21 -5 -21 -4 3 14 29 23 48 26 31 6z
m-161 -95 c0 -25 -14 -41 -36 -41 -30 0 -31 14 -2 34 25 18 38 20 38 7z"/>
<path d="M2470 2195 c0 -18 19 -40 26 -32 4 4 0 15 -9 24 -9 10 -17 13 -17 8z"/>
<path d="M2520 2128 c0 -9 7 -18 15 -22 8 -3 15 -11 15 -18 0 -16 103 -124
148 -154 18 -13 42 -34 53 -49 11 -14 29 -25 39 -25 10 0 25 -7 34 -15 8 -9
41 -30 73 -49 95 -53 104 -59 157 -98 28 -21 58 -38 66 -38 8 0 35 -16 59 -35
24 -19 50 -35 58 -35 7 0 22 -5 33 -12 10 -7 22 -9 26 -6 10 11 -6 28 -27 28
-10 0 -24 9 -31 21 -7 11 -33 32 -58 46 -25 13 -63 35 -85 48 -22 13 -48 24
-57 24 -10 1 -39 22 -65 47 -27 26 -66 55 -89 65 -22 10 -49 28 -60 40 -10 12
-45 39 -77 61 -31 21 -72 53 -90 71 -19 18 -45 40 -58 51 -13 10 -36 30 -51
44 -21 20 -28 22 -28 10z"/>
<path d="M7370 2096 c0 -8 6 -16 13 -19 19 -7 41 8 33 22 -10 16 -46 14 -46
-3z"/>
<path d="M7437 2103 c-16 -15 -4 -21 43 -21 37 -1 50 3 50 14 0 10 -12 14 -43
14 -24 0 -47 -3 -50 -7z"/>
<path d="M6935 2090 c-17 -7 -14 -9 13 -9 20 -1 31 3 27 9 -7 12 -13 12 -40 0z"/>
<path d="M7001 2091 c-19 -12 -3 -17 47 -15 23 1 58 2 78 3 21 1 33 5 29 11
-8 12 -135 13 -154 1z"/>
<path d="M7175 2091 c-3 -5 -1 -12 5 -16 13 -8 50 3 50 16 0 12 -47 12 -55 0z"/>
<path d="M7305 2090 c4 -6 11 -8 16 -5 14 9 11 15 -7 15 -8 0 -12 -5 -9 -10z"/>
<path d="M7220 1996 c-5 -15 -12 -52 -14 -83 -6 -63 -31 -178 -53 -238 -52
-140 -66 -174 -87 -205 -12 -19 -32 -55 -44 -80 -12 -25 -44 -71 -72 -103 -27
-32 -50 -65 -50 -73 0 -8 -35 -54 -79 -102 -43 -48 -81 -97 -85 -109 -4 -12
-15 -25 -25 -28 -10 -3 -32 -25 -50 -50 -18 -25 -62 -74 -99 -110 -66 -65 -90
-113 -92 -184 0 -21 3 -23 43 -18 69 8 219 45 230 56 6 6 22 11 36 11 44 1
106 35 185 104 41 36 80 66 87 66 7 0 10 -12 6 -32 -7 -54 25 -132 76 -185 29
-30 49 -61 56 -87 9 -38 68 -120 99 -140 8 -4 21 -17 31 -28 24 -29 99 -59
128 -52 29 8 40 33 58 134 8 41 27 113 44 160 16 47 33 103 37 124 4 22 17 50
29 62 21 21 25 22 61 9 22 -7 86 -16 144 -20 58 -4 119 -13 135 -20 17 -7 58
-38 93 -69 64 -57 113 -74 125 -41 8 19 -20 101 -50 145 -12 19 -35 53 -49 75
-15 22 -40 51 -57 65 -16 14 -40 36 -51 49 -12 13 -39 42 -61 65 -36 39 -89
97 -200 225 -54 61 -88 108 -110 151 -10 19 -33 53 -51 76 -19 23 -34 45 -34
49 0 5 -14 30 -30 56 -20 30 -34 70 -41 110 -6 35 -17 84 -25 109 -9 25 -21
72 -28 104 -17 81 -38 88 -31 9 14 -146 28 -220 46 -251 10 -18 19 -39 19 -47
0 -21 83 -176 126 -235 22 -30 61 -87 87 -125 26 -39 70 -90 97 -113 28 -24
50 -49 50 -55 0 -7 21 -30 46 -51 46 -38 123 -135 151 -189 l14 -29 -63 6
c-35 4 -101 10 -148 14 -132 11 -177 49 -216 182 -39 133 -71 168 -130 141
-33 -15 -32 -60 5 -125 42 -73 91 -199 91 -234 0 -16 -11 -46 -25 -66 -14 -20
-25 -39 -25 -41 0 -10 -111 -175 -118 -175 -15 1 -70 57 -122 124 l-52 69 4
73 c3 40 10 79 16 87 19 23 42 128 42 194 0 56 -3 64 -26 79 -24 16 -27 16
-52 -3 -18 -13 -31 -37 -39 -67 -14 -56 -44 -98 -129 -181 -89 -88 -134 -121
-190 -140 -94 -33 -154 -38 -154 -13 0 27 69 149 112 197 26 30 48 59 48 64 0
5 33 48 73 95 40 48 89 109 108 137 18 27 49 70 68 94 18 25 37 57 43 71 5 13
15 38 22 55 7 16 23 55 36 85 12 30 30 73 40 95 25 57 42 158 42 248 1 85 -14
119 -32 73z"/>
<path d="M12667 1937 c-12 -5 -56 -8 -97 -7 -95 2 -207 -13 -245 -32 -17 -9
-68 -21 -115 -28 -85 -13 -130 -31 -130 -51 0 -7 11 -9 28 -6 49 11 137 33
152 40 8 3 51 8 95 11 44 2 109 9 145 15 95 16 246 30 318 30 60 0 132 17 132
32 0 10 -255 6 -283 -4z"/>
<path d="M13110 1942 c-17 -6 -11 -30 9 -37 11 -3 39 -5 63 -4 24 1 81 -4 127
-10 46 -7 86 -10 88 -7 10 10 -8 25 -40 31 -17 4 -36 11 -42 15 -10 8 -186 18
-205 12z"/>
<path d="M13490 1871 c0 -14 40 -36 106 -60 82 -29 96 -26 54 9 -46 39 -160
75 -160 51z"/>
<path d="M1709 1775 c-3 -3 -82 -8 -175 -10 -176 -6 -203 -8 -269 -24 -22 -5
-62 -14 -90 -19 -27 -6 -66 -17 -85 -25 -19 -8 -40 -12 -47 -10 -6 2 -25 -3
-42 -11 -16 -9 -43 -16 -60 -16 -16 0 -33 -5 -36 -11 -6 -9 -72 -45 -181 -98
-141 -69 -231 -135 -334 -241 -58 -60 -114 -126 -125 -147 -10 -21 -31 -56
-46 -78 -38 -58 -101 -262 -114 -376 -4 -30 -2 -107 4 -170 11 -107 14 -117
49 -166 20 -29 50 -71 66 -94 30 -43 108 -99 137 -99 9 0 22 -7 29 -15 7 -8
22 -15 34 -15 11 -1 31 -6 44 -13 36 -21 134 -5 177 27 43 33 44 51 5 71 -16
9 -30 19 -30 24 0 4 -22 22 -49 39 -66 40 -78 62 -90 162 -15 113 -15 112 14
153 13 20 29 56 36 79 16 63 18 64 53 12 37 -57 112 -116 175 -139 25 -9 56
-21 68 -27 38 -18 125 -1 161 32 l32 29 1 153 c0 84 6 173 12 198 11 39 16 45
42 48 18 2 41 16 58 34 29 31 28 48 -3 48 -10 0 -21 4 -24 9 -19 31 -220 102
-253 90 -39 -14 -40 -65 -3 -119 9 -14 21 -43 25 -65 4 -22 11 -46 17 -52 6
-7 8 -22 5 -34 -3 -12 1 -73 9 -136 7 -64 11 -119 8 -124 -9 -16 -88 -9 -110
9 -32 26 -119 134 -131 162 -6 14 -19 44 -28 68 -21 48 -78 102 -109 102 -12
0 -32 -7 -44 -16 -21 -15 -22 -21 -18 -104 l4 -88 -44 -76 c-24 -41 -44 -77
-44 -80 0 -14 -62 -101 -73 -101 -6 0 -24 25 -40 56 -24 46 -27 61 -18 77 6
11 11 51 11 89 0 37 7 97 14 133 16 75 71 199 92 207 8 3 21 20 30 37 33 68
49 93 97 146 72 79 80 84 121 69 32 -12 40 -10 118 28 114 56 224 69 330 38
107 -31 220 -97 296 -172 72 -72 113 -98 73 -47 -12 15 -21 37 -21 49 0 43
-138 195 -178 195 -22 0 -77 34 -130 79 -19 16 -21 23 -12 46 6 17 16 25 24
22 7 -3 24 0 38 7 52 27 124 46 175 46 31 0 63 6 76 15 15 10 40 13 75 11 29
-2 55 0 58 5 3 5 30 16 60 25 31 9 58 23 64 35 13 23 43 24 100 4 48 -17 136
-20 145 -5 4 6 12 7 18 3 7 -5 64 -9 127 -9 63 -1 148 -4 188 -8 46 -5 72 -3
72 3 0 18 -40 33 -69 26 -15 -3 -46 -1 -69 5 -23 5 -59 14 -79 19 -45 11 -386
25 -394 16z m-650 -234 c18 -11 5 -31 -20 -31 -18 0 -26 20 -12 33 8 9 15 9
32 -2z"/>
<path d="M13711 1754 c19 -23 -4 -37 -94 -59 -88 -21 -172 -48 -212 -69 -16
-9 -35 -16 -41 -16 -6 0 -17 -7 -25 -16 -7 -9 -39 -29 -70 -45 -51 -25 -89
-60 -89 -80 0 -15 76 21 95 44 11 15 29 25 40 25 25 -2 156 32 172 44 6 5 42
14 79 19 37 5 87 16 111 24 84 29 228 9 249 -33 6 -12 27 -34 47 -50 20 -15
39 -34 42 -42 3 -8 35 -46 70 -85 36 -38 65 -72 65 -76 0 -3 16 -26 35 -50 19
-24 35 -50 35 -58 0 -7 13 -39 30 -70 16 -31 36 -74 44 -97 13 -38 12 -43 -7
-73 -18 -30 -19 -37 -8 -81 11 -41 10 -53 -4 -79 -18 -36 -42 -41 -47 -8 -2
16 -11 23 -31 25 -18 2 -39 18 -65 49 -20 26 -47 57 -59 70 -33 35 -45 61 -37
85 9 31 -44 158 -73 171 -16 7 -26 7 -37 -2 -22 -19 -56 -94 -56 -125 0 -30
-30 -94 -66 -142 -12 -17 -26 -43 -30 -58 -12 -48 -71 -62 -96 -23 -27 42 -36
82 -28 128 5 24 6 54 3 67 -6 23 -33 31 -33 9 0 -8 -11 -24 -24 -36 -16 -15
-30 -47 -41 -95 -20 -85 -18 -92 73 -238 12 -19 31 -38 42 -41 28 -7 69 28 90
78 10 23 39 72 64 109 26 38 53 84 61 103 20 48 42 40 76 -26 15 -29 37 -63
48 -75 12 -12 21 -26 21 -30 0 -4 16 -41 36 -82 42 -86 43 -131 3 -210 -21
-40 -32 -49 -84 -70 -33 -13 -75 -24 -93 -24 -37 0 -94 -24 -114 -47 -10 -12
-9 -20 3 -41 14 -26 18 -27 119 -30 58 -2 130 -4 160 -5 76 -4 107 11 181 91
149 160 205 286 203 452 -2 138 -28 269 -64 320 -9 14 -36 60 -58 104 -23 43
-54 95 -69 115 -54 70 -175 180 -234 212 -26 13 -92 63 -121 92 -22 21 -52 33
-126 53 -69 18 -78 18 -61 -2z"/>
<path d="M2512 1673 c3 -16 49 -32 158 -53 25 -5 80 -20 123 -34 77 -26 133
-34 123 -17 -6 9 -78 35 -211 76 -49 15 -100 31 -113 36 -13 5 -37 9 -53 9
-23 0 -30 -4 -27 -17z"/>
<path d="M2975 1535 c17 -7 46 -16 65 -19 l35 -7 -35 20 c-19 11 -48 20 -65
20 l-30 -1 30 -13z"/>
<path d="M3139 1496 c19 -23 76 -46 113 -46 16 0 41 -6 56 -14 47 -23 132 -16
93 8 -16 10 -196 58 -236 64 -36 4 -38 3 -26 -12z"/>
<path d="M13140 1445 c-7 -8 -18 -15 -24 -15 -32 0 -106 -115 -106 -165 0 -14
11 -37 25 -51 23 -23 28 -24 108 -18 63 5 97 3 142 -10 34 -11 72 -15 91 -11
18 3 35 2 38 -3 3 -5 37 -12 75 -16 52 -5 77 -3 98 7 18 10 36 12 50 6 18 -6
25 -4 33 11 14 26 13 113 -2 128 -19 19 -44 15 -170 -28 -115 -39 -121 -40
-181 -30 -33 7 -73 18 -88 26 -15 7 -45 16 -68 20 -35 6 -41 10 -41 32 0 30
20 102 33 120 13 17 2 15 -13 -3z"/>
<path d="M1273 1064 c-10 -26 13 -39 44 -25 27 12 27 13 8 27 -25 18 -44 18
-52 -2z"/>
</g>
</svg>
