<?xml version="1.0" standalone="no"?>
<!DOCTYPE svg PUBLIC "-//W3C//DTD SVG 20010904//EN"
 "http://www.w3.org/TR/2001/REC-SVG-20010904/DTD/svg10.dtd">
<svg version="1.0" xmlns="http://www.w3.org/2000/svg"
 width="1670.000000pt" height="513.000000pt" viewBox="0 0 1670.000000 513.000000"
 preserveAspectRatio="xMidYMid meet">

<g transform="translate(0.000000,513.000000) scale(0.100000,-0.100000)"
fill="#000000" stroke="none">
<path d="M9045 4929 c-51 -14 -87 -61 -93 -117 -4 -48 -6 -50 -46 -62 -111
-33 -161 -61 -206 -116 -101 -123 -114 -209 -54 -341 8 -17 14 -38 14 -46 0
-18 41 -53 73 -63 12 -4 38 -18 59 -31 l37 -25 66 23 c79 27 115 65 123 134 8
75 -41 123 -80 78 -25 -30 -27 -48 -8 -91 18 -40 18 -42 -1 -67 -36 -44 -52
-48 -112 -21 -60 26 -89 70 -92 141 -1 22 -3 51 -4 65 l-3 25 -10 -27 c-23
-65 -62 -8 -52 77 5 37 15 64 33 85 85 104 148 147 226 156 83 10 74 -15 -17
-51 -88 -35 -107 -50 -143 -119 -35 -67 -28 -97 8 -35 44 75 121 129 184 129
140 -1 310 -118 375 -260 26 -57 29 -73 25 -130 -2 -40 -12 -80 -26 -105 -11
-22 -21 -46 -21 -53 0 -8 -9 -26 -20 -40 -12 -15 -38 -54 -60 -87 -22 -33 -51
-73 -66 -90 -14 -16 -39 -49 -56 -71 -33 -46 -111 -94 -151 -94 -21 0 -27 6
-32 33 -17 76 -75 170 -143 230 -46 41 -58 47 -99 47 -55 0 -106 -28 -121 -68
-26 -63 -25 -81 2 -122 43 -65 74 -48 87 47 12 89 46 93 85 9 29 -62 29 -76 5
-125 -27 -52 -96 -154 -115 -170 -23 -19 -91 -5 -113 24 -25 33 -90 38 -159
14 -30 -11 -59 -19 -66 -19 -7 1 -44 30 -83 65 l-70 63 0 94 0 93 50 0 50 0
-3 -37 c-4 -45 12 -78 38 -78 10 0 32 17 49 37 59 72 35 158 -51 182 -43 12
-166 9 -188 -4 -6 -4 -22 -30 -35 -58 -29 -63 -67 -107 -93 -107 -11 0 -37 26
-66 65 -26 36 -61 72 -77 81 -16 8 -29 23 -29 33 0 10 -8 29 -19 42 -41 53
-58 106 -70 216 l-13 112 27 60 c15 33 36 68 46 77 24 22 24 34 -1 34 -23 0
-90 -83 -91 -114 -7 -168 -21 -205 -49 -128 -18 48 -13 109 11 148 10 17 19
39 19 48 0 9 14 25 31 34 17 9 44 27 59 40 15 12 33 22 39 22 7 0 28 8 49 19
20 10 43 16 50 14 6 -3 12 0 12 6 0 16 -74 13 -136 -5 -36 -10 -60 -24 -72
-41 -9 -14 -36 -45 -58 -67 -23 -23 -54 -58 -69 -78 -15 -21 -35 -38 -45 -38
-18 0 -55 42 -113 131 -30 45 -46 59 -91 78 -29 12 -62 31 -71 42 -10 10 -22
19 -27 19 -5 0 -24 10 -41 23 -18 13 -48 30 -67 39 -19 9 -61 28 -92 43 -32
14 -72 30 -88 35 -38 11 -80 -3 -80 -25 0 -18 57 -45 95 -45 34 0 201 -76 247
-113 20 -16 42 -43 47 -59 6 -16 24 -47 41 -68 38 -48 39 -62 3 -54 -64 15
-203 55 -272 79 -40 14 -80 25 -88 25 -7 0 -24 6 -36 14 -12 8 -44 17 -72 20
-27 4 -77 17 -110 28 -52 19 -85 22 -256 23 -204 2 -304 -8 -469 -45 -134 -29
-163 -39 -265 -83 -61 -26 -121 -44 -185 -53 -102 -16 -140 -28 -140 -44 0 -5
16 -10 36 -10 31 0 35 -3 32 -21 -2 -12 -12 -27 -23 -33 -11 -6 -60 -41 -110
-78 -96 -72 -205 -185 -248 -258 -14 -25 -43 -58 -63 -74 -20 -16 -48 -47 -62
-70 -15 -22 -47 -67 -72 -100 -75 -97 -90 -120 -90 -133 0 -6 -17 -32 -37 -56
-21 -25 -60 -73 -88 -107 -151 -188 -313 -280 -490 -280 -47 0 -152 49 -187
88 -14 15 -46 46 -71 70 -55 50 -76 107 -84 227 -5 76 -4 81 21 105 14 14 45
45 68 69 74 76 110 93 208 99 72 4 89 2 103 -12 23 -23 23 -24 -22 -83 -46
-62 -59 -114 -36 -149 19 -29 41 -30 115 -4 74 25 94 51 85 109 -7 48 -23 82
-53 117 -19 23 -108 71 -153 84 -33 10 -172 -13 -202 -33 -39 -25 -132 -47
-186 -43 -38 3 -57 -1 -74 -14 -12 -10 -44 -25 -70 -34 -27 -9 -61 -23 -77
-31 -36 -19 -119 -26 -145 -13 -42 21 -108 95 -145 163 -51 91 -231 281 -275
290 -16 3 -46 9 -65 13 -23 5 -70 2 -135 -10 -131 -24 -199 -46 -247 -81 -39
-28 -39 -29 -37 -84 3 -65 -8 -76 -33 -33 -19 33 -38 37 -100 18 -30 -9 -44
-9 -58 0 -10 6 -42 14 -72 18 -29 4 -78 20 -109 36 -64 32 -91 35 -109 13 -20
-24 3 -57 58 -84 26 -13 55 -27 64 -32 82 -42 144 -68 192 -81 27 -7 51 -19
54 -26 9 -26 -16 -60 -55 -73 -21 -6 -72 -29 -115 -51 -42 -21 -79 -38 -84
-38 -4 0 -37 -14 -73 -31 -58 -27 -75 -31 -151 -30 -97 1 -126 8 -196 45 -27
14 -64 26 -83 26 -25 0 -49 12 -96 50 -35 28 -67 50 -71 50 -5 0 -32 21 -59
47 -57 52 -226 137 -303 151 -65 12 -187 -2 -219 -25 -36 -25 -42 -28 -98 -48
-89 -31 -100 -31 -165 9 -78 48 -120 55 -174 28 -22 -11 -61 -28 -86 -38 -48
-19 -70 -32 -70 -43 0 -11 86 -31 133 -31 28 0 66 -12 115 -36 51 -26 89 -37
125 -39 120 -4 114 -3 121 -36 11 -57 91 -144 146 -159 79 -22 169 -3 201 41
11 16 28 53 38 84 l19 56 -29 14 c-43 23 -74 18 -134 -20 l-54 -35 -33 29
c-30 26 -31 31 -20 55 7 15 12 36 12 46 0 24 9 25 46 5 40 -21 78 -19 100 6
17 18 27 20 94 16 41 -2 92 -12 112 -21 31 -13 39 -23 52 -70 13 -44 22 -56
50 -70 19 -9 50 -16 70 -16 27 0 46 -9 73 -33 21 -19 72 -50 113 -71 75 -38
76 -38 220 -43 l145 -4 79 41 80 41 24 -24 c26 -26 26 -19 -11 -188 -17 -77
-6 -248 17 -284 20 -31 73 -65 101 -65 34 0 65 28 65 60 0 20 -10 37 -37 59
-69 57 -70 60 -77 127 -8 76 5 162 40 272 6 20 40 -3 51 -35 6 -15 19 -55 29
-87 10 -33 30 -76 43 -95 14 -20 39 -58 57 -85 18 -26 56 -66 85 -87 47 -36
54 -38 73 -26 22 15 34 81 19 104 -5 6 -44 27 -88 46 -74 32 -82 39 -104 83
-27 57 -47 144 -38 167 10 27 55 32 80 9 12 -11 48 -34 81 -51 48 -25 66 -30
100 -25 64 10 101 38 140 109 48 86 47 114 -7 172 -43 46 -44 46 -81 33 l-38
-12 7 -46 c4 -26 13 -58 20 -72 23 -45 -20 -100 -79 -100 -37 0 -111 35 -130
61 -26 37 -20 104 15 176 17 35 34 63 39 63 5 0 56 32 114 71 71 48 106 78
106 90 0 52 106 90 179 64 22 -7 54 -24 70 -36 35 -26 149 -174 180 -235 27
-52 116 -151 169 -187 22 -16 75 -37 118 -47 89 -22 120 -25 129 -10 8 13 102
13 110 -1 4 -6 15 -44 25 -85 10 -42 30 -98 45 -126 16 -31 25 -62 23 -81 -3
-30 -8 -34 -68 -54 -36 -12 -78 -22 -93 -22 -40 -1 -68 -36 -116 -150 -51
-120 -51 -137 4 -134 43 3 52 11 108 98 35 54 46 60 179 88 61 13 76 12 160
-4 51 -10 108 -18 127 -18 69 -2 267 52 331 90 8 5 31 17 50 28 20 11 73 47
118 81 46 35 89 60 99 58 33 -6 28 -94 -15 -261 -12 -44 -23 -58 -29 -39 -4
10 -11 8 -29 -9 -31 -29 -30 -39 1 -39 18 0 25 -5 25 -19 0 -24 -60 -112 -119
-176 -130 -138 -185 -236 -257 -455 -8 -25 -27 -67 -42 -95 -25 -46 -32 -52
-92 -72 -122 -42 -209 -27 -288 50 -65 63 -73 83 -70 187 3 86 4 91 26 97 32
8 46 -9 47 -60 0 -27 9 -54 23 -75 19 -26 30 -32 61 -32 32 0 43 6 69 39 55
69 42 128 -35 157 -27 10 -57 24 -68 31 -27 18 -73 16 -120 -7 -22 -11 -45
-19 -51 -20 -21 0 -46 -39 -65 -100 -25 -80 -24 -111 3 -189 28 -79 62 -114
153 -158 38 -19 87 -45 108 -57 53 -32 162 -42 216 -20 65 26 83 18 98 -46 18
-76 35 -133 44 -145 4 -5 10 -24 13 -41 9 -41 90 -146 139 -179 118 -79 239
-109 377 -94 113 13 113 13 201 81 l76 58 13 76 c12 67 11 82 -4 130 -19 60
-35 74 -117 104 -71 26 -105 25 -158 -5 -23 -14 -56 -25 -72 -25 -59 0 -110
-100 -73 -141 22 -24 77 -32 126 -18 57 16 59 19 66 80 6 50 9 54 35 57 38 5
92 -38 107 -83 13 -39 6 -104 -16 -146 -26 -52 -200 -102 -272 -77 -20 6 -41
16 -46 20 -6 4 -25 8 -44 8 -39 0 -96 37 -159 102 -30 31 -52 69 -78 138 -76
198 -87 285 -59 475 7 47 24 64 59 58 30 -6 39 -17 55 -67 15 -47 57 -108 86
-127 12 -8 41 -27 64 -42 78 -53 220 -76 220 -36 0 19 -61 73 -118 104 l-53
29 4 160 c5 181 16 268 53 406 16 64 33 103 49 120 14 14 37 40 51 58 14 17
30 30 34 27 5 -3 18 -36 31 -73 23 -70 102 -261 145 -348 25 -52 89 -125 159
-181 22 -18 74 -61 115 -96 167 -141 352 -228 555 -258 131 -20 262 -22 344
-4 80 18 247 84 293 116 14 10 31 19 37 19 12 0 104 55 150 90 42 32 186 160
231 205 32 31 41 35 89 35 37 0 64 -6 88 -21 42 -26 77 -91 68 -128 -11 -42
-22 -49 -67 -43 -33 4 -44 1 -55 -13 -19 -27 -16 -62 8 -86 17 -17 30 -20 65
-16 24 2 52 11 61 18 30 25 113 161 113 185 0 34 -45 124 -84 166 -27 29 -52
42 -131 67 -53 17 -108 30 -123 29 -23 -3 -27 2 -34 38 -6 27 -16 45 -31 52
-12 7 -30 18 -40 24 -14 11 -19 10 -27 -2 -5 -8 -10 -26 -10 -38 0 -13 -25
-75 -55 -137 -30 -62 -55 -118 -55 -126 0 -8 -11 -37 -24 -64 -27 -59 -92
-120 -167 -157 -30 -14 -108 -52 -174 -84 l-120 -59 -105 -1 c-151 -1 -245 10
-325 39 -38 13 -88 27 -109 31 -44 6 -183 70 -261 119 -65 41 -209 172 -270
246 -48 59 -110 193 -100 219 2 7 16 17 30 24 28 13 34 51 11 77 -19 22 -76
129 -76 144 0 6 -7 25 -15 41 -29 56 -43 141 -44 271 -2 144 21 330 44 355 7
8 23 40 35 71 26 70 74 143 166 251 117 137 186 203 239 228 28 13 62 33 77
46 34 28 184 100 268 129 210 71 252 84 325 99 44 9 102 22 128 27 45 10 212
14 226 5 4 -3 47 -7 96 -10 50 -3 116 -12 148 -21 32 -8 66 -15 76 -15 18 0
73 -18 286 -94 55 -19 126 -42 158 -51 45 -13 78 -33 143 -88 48 -39 94 -87
105 -108 29 -57 74 -121 109 -154 38 -36 60 -85 60 -134 0 -43 -20 -75 -61
-96 -37 -20 -115 -124 -130 -176 -9 -30 -9 -42 1 -54 18 -21 47 -19 68 7 64
80 122 133 172 156 75 34 103 31 159 -16 25 -21 57 -45 71 -52 14 -7 37 -23
51 -36 25 -24 95 -64 112 -64 15 0 107 -94 107 -109 0 -8 -8 -23 -17 -33 -26
-29 -32 -141 -10 -209 21 -65 43 -89 117 -127 44 -22 56 -34 67 -66 7 -22 21
-45 31 -52 9 -6 28 -21 41 -33 26 -22 63 -22 124 1 31 12 46 53 28 77 -23 32
-49 95 -44 108 3 9 24 13 63 13 42 0 61 5 73 18 16 18 41 189 31 215 -5 14 42
57 64 57 22 0 93 63 106 95 8 19 21 36 28 36 7 1 36 3 63 4 106 6 135 13 205
54 39 22 75 41 78 41 4 0 34 19 67 41 45 30 66 38 85 34 14 -3 36 -7 50 -8 30
-2 51 -41 57 -106 6 -61 32 -121 53 -121 18 0 51 32 68 65 18 36 -11 185 -52
262 -51 96 -49 109 29 181 36 33 80 79 96 102 54 75 212 217 274 246 16 8 55
30 85 48 145 90 215 112 400 126 176 13 428 1 466 -22 6 -4 46 -16 90 -28 81
-22 274 -110 295 -136 6 -8 16 -14 22 -14 31 0 182 -118 236 -185 14 -17 47
-55 74 -85 55 -61 90 -113 102 -150 4 -14 20 -38 35 -55 31 -32 70 -114 70
-146 0 -18 9 -44 50 -144 5 -11 14 -71 21 -133 12 -120 7 -168 -31 -297 -10
-33 -25 -84 -34 -113 -16 -54 -78 -135 -176 -230 -82 -79 -182 -116 -298 -110
-146 7 -245 94 -258 227 -9 77 9 139 44 152 55 21 92 2 92 -48 0 -36 48 -92
90 -104 49 -15 59 -8 77 53 10 34 9 46 -2 69 -19 36 -67 70 -133 92 -53 18
-54 18 -98 -3 -57 -28 -110 -110 -120 -186 -13 -107 59 -217 182 -279 50 -26
69 -30 134 -29 80 1 186 27 255 63 21 12 45 21 52 21 7 0 29 14 48 32 30 25
38 29 45 17 6 -9 2 -25 -10 -47 -11 -18 -20 -40 -20 -48 0 -8 -6 -17 -14 -20
-7 -3 -25 -26 -39 -52 -44 -80 -180 -222 -266 -277 -130 -83 -278 -144 -406
-169 -212 -40 -208 -39 -296 -27 -91 14 -228 56 -299 93 -102 54 -169 116
-211 198 -12 25 -41 68 -64 95 l-41 50 9 69 c9 75 34 118 78 142 37 19 56 66
64 159 8 87 34 145 65 145 31 0 43 -25 31 -63 -16 -48 -1 -83 40 -92 26 -6 35
-3 46 11 36 50 26 92 -40 167 -37 42 -48 49 -97 56 -44 7 -64 5 -110 -11 -56
-21 -83 -24 -135 -14 -45 7 -62 36 -63 103 0 32 -6 71 -11 86 -21 54 -12 140
36 362 27 126 97 211 270 329 35 23 50 28 79 23 26 -4 48 0 75 14 32 16 58 19
146 18 116 -1 153 -11 212 -57 19 -15 47 -34 62 -42 51 -28 111 -107 127 -168
31 -116 5 -234 -58 -267 -48 -25 -120 -45 -163 -45 -77 0 -98 37 -52 92 24 28
25 43 10 95 -6 18 -77 50 -102 45 -37 -6 -63 -48 -63 -101 0 -55 5 -63 85
-123 58 -44 108 -66 150 -66 50 0 154 43 193 79 74 68 91 197 43 327 -30 82
-69 125 -176 194 -108 69 -123 73 -275 73 -119 0 -145 -4 -220 -27 -99 -32
-142 -59 -245 -153 -49 -45 -79 -81 -86 -104 -7 -20 -20 -47 -30 -60 -24 -31
-79 -201 -79 -246 0 -19 -4 -56 -10 -82 -5 -26 -12 -100 -14 -163 -3 -63 -5
-119 -5 -123 -1 -4 -21 -16 -46 -27 -41 -18 -48 -18 -86 -5 -58 21 -105 19
-156 -6 -48 -23 -68 -47 -78 -97 -5 -27 -2 -39 20 -67 29 -39 62 -45 88 -17
22 24 22 48 0 62 -16 9 -15 12 12 35 17 14 36 25 42 25 21 0 101 -83 107 -110
2 -14 7 -41 10 -60 7 -39 94 -155 123 -164 25 -8 63 -67 63 -98 0 -32 -21 -39
-88 -26 -42 7 -61 5 -108 -12 -72 -25 -109 -60 -130 -123 l-16 -49 34 -67 c41
-79 87 -111 160 -111 25 0 54 3 63 6 37 15 62 117 36 148 -8 10 -29 16 -52 16
-34 0 -42 -5 -64 -40 -33 -52 -52 -52 -88 0 -10 15 -17 44 -17 73 0 41 5 53
30 78 30 30 30 30 112 24 96 -8 111 -16 170 -87 24 -29 84 -93 133 -143 73
-74 111 -103 201 -153 61 -34 122 -62 135 -62 13 -1 51 -8 84 -16 33 -9 78
-19 100 -24 64 -15 206 -11 270 6 33 8 76 16 95 16 19 0 44 5 55 13 12 7 61
27 110 44 48 17 98 39 109 50 12 10 44 31 71 46 28 15 55 32 60 39 6 6 26 23
45 37 92 70 238 231 286 314 15 28 46 77 68 110 56 82 89 154 121 260 64 213
57 197 76 178 10 -10 34 -49 54 -88 20 -38 49 -83 64 -100 16 -16 47 -56 69
-87 23 -31 46 -59 51 -62 5 -4 33 -52 61 -109 l51 -103 -4 -109 c-3 -94 -8
-123 -37 -202 -28 -77 -32 -94 -21 -107 8 -9 24 -16 37 -16 31 0 107 74 133
131 12 24 30 50 41 57 18 11 22 7 49 -46 25 -50 28 -63 21 -102 -5 -25 -6 -79
-3 -120 6 -84 -10 -160 -53 -253 -19 -42 -42 -70 -91 -111 -84 -70 -130 -79
-236 -46 -117 35 -143 49 -197 106 -60 62 -90 140 -90 231 0 51 3 59 38 93 67
68 161 63 177 -10 4 -18 2 -36 -4 -44 -13 -15 18 -105 41 -120 40 -25 125 37
135 97 5 36 3 41 -50 92 -30 29 -70 58 -89 64 -18 5 -53 17 -78 26 -54 20 -92
14 -149 -23 -61 -39 -91 -101 -91 -191 0 -142 49 -250 140 -309 14 -9 31 -25
38 -34 7 -10 20 -18 29 -18 8 0 29 -6 46 -14 48 -21 81 -24 161 -16 92 11 207
65 273 129 42 41 66 77 135 204 19 33 22 78 9 112 -22 56 29 84 159 88 112 4
151 19 254 99 84 65 106 103 106 180 0 97 -43 194 -105 237 -39 26 -156 43
-188 26 -12 -6 -41 -16 -64 -23 -23 -7 -49 -22 -58 -35 -17 -24 -20 -112 -6
-151 11 -27 76 -76 103 -76 26 0 42 63 34 142 l-6 68 27 0 c48 0 113 -83 128
-162 7 -39 -3 -67 -42 -108 -13 -14 -32 -35 -43 -46 -26 -28 -70 -36 -145 -28
-69 8 -90 22 -117 81 -10 23 -43 66 -73 95 -30 29 -55 57 -55 62 0 6 -20 52
-45 103 -45 92 -87 141 -283 326 -76 72 -195 284 -212 377 -7 36 -16 75 -21
88 -5 13 -9 35 -9 49 0 14 -5 43 -12 65 -8 27 -8 42 -1 49 13 13 36 1 114 -61
141 -111 241 -158 374 -177 55 -8 114 -12 130 -9 17 3 101 8 187 11 129 5 163
4 185 -9 16 -8 53 -26 84 -41 43 -20 61 -35 79 -68 27 -49 59 -87 74 -87 7 0
11 32 11 89 l0 88 -45 57 c-29 36 -56 59 -75 64 -39 11 -43 35 -11 83 25 37
49 49 60 30 3 -5 29 -17 58 -27 70 -24 250 -25 325 -1 54 16 135 66 166 102
55 63 187 247 187 260 0 30 129 89 194 88 45 -1 98 -46 112 -95 6 -19 21 -37
42 -49 66 -35 72 -45 72 -128 0 -73 -1 -78 -31 -104 -25 -21 -35 -25 -50 -17
-10 6 -19 18 -19 28 0 32 -38 82 -63 82 -39 0 -97 -81 -97 -136 0 -25 67 -65
125 -74 52 -8 60 -7 105 18 27 15 52 24 55 20 4 -4 9 -29 10 -55 4 -66 -27
-121 -83 -148 -23 -12 -50 -28 -59 -37 -15 -16 -15 -19 1 -42 13 -20 25 -26
54 -26 33 0 44 7 84 53 26 28 63 73 83 99 23 31 40 45 50 42 9 -4 21 -1 29 5
20 17 26 3 26 -58 0 -66 -40 -184 -63 -189 -10 -2 -17 -16 -19 -40 -4 -49 -35
-55 -63 -12 -11 16 -26 32 -33 35 -25 9 -62 -16 -92 -62 -36 -58 -38 -95 -7
-123 19 -19 32 -21 94 -18 61 3 76 7 100 30 15 14 37 28 48 30 25 4 74 100 75
144 0 17 10 43 21 58 19 25 21 35 15 100 -5 59 -4 76 8 85 9 7 21 11 28 9 7
-3 34 3 60 13 46 17 47 17 100 -8 50 -23 57 -24 128 -13 120 18 273 98 380
197 102 96 307 253 329 253 9 0 39 8 66 18 41 15 50 23 48 40 -2 16 3 22 17
22 10 0 22 -4 25 -10 3 -5 16 -9 28 -9 31 2 99 -25 108 -42 24 -44 40 -127 32
-160 -11 -39 -46 -49 -51 -14 -2 12 -20 40 -41 63 -33 36 -45 42 -78 42 -22 0
-48 -6 -59 -14 -19 -14 -19 -15 1 -73 19 -55 23 -59 80 -87 75 -36 124 -37
190 -4 58 30 83 55 94 94 6 25 14 30 57 37 27 4 58 11 69 16 11 5 42 17 68 26
89 32 156 129 111 162 -25 18 -48 16 -69 -7 -9 -10 -41 -26 -69 -34 -29 -9
-63 -27 -76 -41 -13 -14 -33 -25 -45 -25 -29 0 -150 81 -195 130 -28 31 -44
39 -81 44 -64 7 -149 -8 -210 -38 -28 -15 -57 -26 -65 -26 -17 0 -75 -39 -88
-59 -4 -7 -16 -21 -26 -30 -9 -9 -55 -52 -102 -96 -118 -113 -198 -179 -238
-200 -19 -9 -42 -24 -51 -32 -15 -12 -60 -23 -171 -40 -22 -3 -57 1 -87 11
-27 9 -59 16 -71 16 -36 0 -170 61 -181 82 -14 25 -7 31 60 58 30 11 67 32 83
46 16 13 34 24 39 24 14 0 59 51 59 66 0 23 -134 19 -179 -5 -20 -11 -61 -29
-92 -42 -67 -26 -68 -25 -149 64 -47 52 -52 60 -46 91 8 42 -9 57 -72 67 -45
6 -83 18 -147 45 -53 22 -103 26 -157 14 -42 -11 -65 -25 -127 -84 -118 -112
-139 -135 -181 -196 -45 -67 -92 -94 -185 -106 -81 -11 -129 -6 -197 18 -48
17 -67 31 -114 89 -32 37 -79 81 -105 98 -34 21 -54 42 -64 68 -19 45 -79 93
-153 122 -53 21 -62 23 -143 23 -71 1 -138 -50 -209 -157 -29 -45 -32 -55 -27
-103 4 -34 18 -75 42 -117 39 -71 65 -85 154 -85 37 0 49 6 82 39 28 28 39 47
39 68 0 30 -33 83 -50 83 -5 0 -26 -14 -46 -32 -31 -28 -35 -36 -31 -65 7 -39
-19 -78 -45 -68 -9 4 -33 44 -53 89 -48 107 -43 139 28 209 61 59 90 72 129
56 16 -6 44 -9 64 -6 34 6 51 -1 131 -58 12 -8 28 -34 34 -58 7 -23 18 -49 25
-57 15 -18 20 -111 9 -155 -12 -45 -69 -129 -107 -157 -53 -40 -178 -87 -249
-93 -97 -9 -298 32 -374 75 -22 13 -60 35 -85 49 -75 43 -145 103 -181 154
-18 27 -42 53 -52 59 -10 5 -29 33 -42 63 -34 77 -91 162 -152 229 -30 32 -65
75 -77 95 -13 20 -65 76 -115 124 -50 48 -91 95 -91 103 0 23 27 71 44 77 8 3
28 35 46 70 31 63 31 67 20 120 -6 31 -20 67 -30 80 -24 30 -96 51 -177 52
-55 0 -66 -3 -90 -28 -23 -23 -28 -36 -27 -77 0 -27 6 -56 13 -64 19 -23 66
-19 97 8 26 22 27 25 15 55 -15 34 -3 61 26 61 28 0 113 -70 113 -93 0 -39
-20 -91 -45 -120 -23 -26 -117 -65 -140 -57 -5 1 -32 7 -60 12 -27 5 -81 25
-120 43 -38 18 -86 36 -105 40 -19 4 -47 13 -61 21 -49 25 -322 64 -439 62 -8
0 -43 4 -78 10 -42 8 -80 8 -120 1 -31 -6 -87 -14 -125 -19 -37 -5 -76 -14
-87 -20 -10 -5 -29 -10 -42 -10 -53 0 -226 -102 -303 -179 -28 -28 -80 -61
-97 -61 -19 0 -5 42 27 80 19 23 39 58 45 78 14 53 40 81 103 116 155 86 187
108 187 127 0 41 -105 16 -170 -40 -13 -12 -47 -35 -76 -51 -53 -31 -104 -76
-104 -92 0 -6 -21 -35 -46 -66 -63 -78 -150 -216 -165 -260 -7 -20 -26 -62
-42 -92 -17 -30 -36 -67 -44 -81 -7 -15 -20 -33 -29 -40 -8 -7 -22 -28 -29
-46 -13 -31 -18 -34 -52 -31 -37 3 -38 4 -35 38 2 19 21 72 43 117 35 72 39
89 39 155 -1 92 -15 154 -44 193 -12 16 -35 53 -50 82 -28 51 -70 91 -134 128
-18 11 -44 37 -58 58 -34 51 -27 81 22 97 30 10 42 9 75 -6 48 -21 64 -11 49
32 -6 16 -25 37 -43 48 -36 21 -126 29 -172 15z m141 -309 c32 -23 44 -38 44
-56 0 -24 -1 -24 -29 -10 -16 9 -40 29 -55 46 -48 57 -29 67 40 20z m-1108
-769 c-3 -20 1 -55 8 -79 12 -40 12 -42 -6 -32 -29 16 -60 60 -60 87 0 13 7
38 16 54 13 26 18 28 30 18 11 -9 14 -25 12 -48z m725 32 c8 -10 23 -46 33
-81 15 -53 16 -72 6 -124 -18 -96 -72 -158 -139 -158 -65 0 -73 61 -15 105 21
16 53 55 71 87 31 56 32 62 22 109 -18 82 -12 98 22 62z m-5113 -146 c0 -20
-22 -37 -47 -37 -29 0 -30 24 0 38 30 15 47 14 47 -1z m6980 -62 c0 -24 -31
-51 -44 -38 -10 10 -7 38 6 51 20 20 38 14 38 -13z m-2482 -52 c4 -27 -10 -30
-32 -7 -23 22 -20 36 7 32 14 -2 23 -11 25 -25z m6362 -74 c0 -5 -4 -9 -10 -9
-5 0 -10 7 -10 16 0 8 5 12 10 9 6 -3 10 -10 10 -16z m148 -43 c3 -12 -1 -17
-10 -14 -7 3 -15 13 -16 22 -3 12 1 17 10 14 7 -3 15 -13 16 -22z m-6148 -45
c0 -14 -18 -23 -30 -16 -6 4 -8 11 -5 16 8 12 35 12 35 0z m-30 -87 c26 -60
25 -86 -2 -111 -20 -18 -36 -20 -136 -19 -114 1 -131 7 -132 43 0 15 119 103
141 103 9 0 32 7 50 15 51 21 56 19 79 -31z m-110 -284 c0 -5 -2 -10 -4 -10
-3 0 -8 5 -11 10 -3 6 -1 10 4 10 6 0 11 -4 11 -10z m1549 -100 c10 -22 30
-51 46 -66 l29 -26 -25 -14 c-51 -28 -77 -12 -84 55 -2 22 -7 45 -10 51 -9 14
1 40 15 40 6 0 19 -18 29 -40z m-3103 -217 c-10 -10 -19 5 -10 18 6 11 8 11
12 0 2 -7 1 -15 -2 -18z m-2442 -198 c-6 -16 -24 -21 -24 -7 0 11 11 22 21 22
5 0 6 -7 3 -15z m8380 -284 c3 -4 3 -11 0 -14 -8 -8 -34 3 -34 14 0 11 27 12
34 0z"/>
<path d="M7927 4920 c-80 -24 -74 -122 5 -106 73 15 104 17 131 7 39 -15 44
-38 17 -88 -29 -55 -77 -79 -130 -65 -20 5 -44 6 -54 2 -16 -5 -15 -7 9 -18
14 -7 35 -12 47 -12 11 0 26 -8 33 -17 11 -15 15 -15 36 -2 31 19 91 10 122
-19 13 -12 31 -22 40 -22 9 0 19 -11 23 -24 3 -14 12 -27 21 -30 11 -5 13 -1
7 17 -9 30 -34 67 -45 67 -5 0 -9 8 -9 18 0 11 -9 27 -20 37 -24 22 -25 36 -4
77 15 28 15 34 -2 72 -24 56 -39 71 -90 95 -46 22 -89 25 -137 11z"/>
<path d="M5205 4811 c-64 -10 -122 -40 -151 -78 -29 -38 -32 -66 -16 -125 28
-104 98 -158 218 -167 42 -4 77 -4 79 0 3 3 -20 11 -49 18 -62 14 -151 65
-177 101 -16 22 -17 31 -7 70 18 73 47 102 115 116 32 6 64 9 70 7 7 -3 15
-21 18 -41 9 -60 27 -87 60 -90 32 -4 55 18 55 51 0 33 -58 104 -103 126 -24
12 -50 20 -58 19 -8 0 -32 -4 -54 -7z"/>
<path d="M8160 4518 c1 -13 7 -34 15 -48 8 -15 14 -53 15 -94 0 -57 -5 -77
-26 -113 -29 -50 -55 -63 -122 -63 -74 0 -80 9 -66 93 7 43 -7 67 -41 67 -22
0 -65 -41 -65 -62 0 -5 21 -31 47 -59 80 -85 180 -100 269 -38 57 39 74 65 74
114 0 22 4 56 10 75 5 19 7 44 3 55 -6 19 -7 19 -12 -3 -7 -28 -24 -30 -31 -5
-8 28 -53 103 -62 103 -4 0 -8 -10 -8 -22z"/>
<path d="M6255 4151 c-43 -7 -113 -51 -157 -98 -33 -35 -62 -141 -55 -202 3
-25 17 -60 34 -85 28 -39 32 -41 98 -50 86 -10 142 3 189 45 43 37 55 82 30
110 -42 46 -159 4 -159 -58 -1 -35 -20 -63 -44 -63 -25 0 -80 61 -91 100 -20
71 9 150 81 223 l38 38 78 -3 c43 -1 89 -8 103 -15 14 -7 30 -13 36 -13 42 0
215 -129 250 -186 12 -19 31 -45 43 -58 12 -12 34 -56 49 -97 27 -70 28 -80
23 -191 -4 -69 -11 -122 -18 -129 -17 -17 -62 -20 -113 -8 -32 8 -67 8 -117 1
-178 -25 -253 -171 -161 -314 36 -55 65 -65 138 -48 53 13 63 25 53 71 -7 35
-45 59 -96 59 -93 0 -71 111 32 160 39 18 57 21 69 14 19 -12 88 -137 97 -175
3 -15 15 -35 26 -45 11 -10 26 -40 35 -68 28 -94 38 -104 156 -139 35 -10 37
-10 84 36 26 26 51 47 56 47 4 0 23 24 42 53 29 43 36 63 38 117 4 79 11 90
49 90 39 0 63 -13 88 -49 26 -35 20 -54 -25 -80 -28 -17 -34 -26 -34 -54 0
-39 43 -87 78 -87 24 0 92 94 92 128 0 39 -40 123 -71 150 -69 59 -101 73
-151 66 -41 -5 -50 -3 -68 18 -50 55 -102 133 -148 220 -52 101 -66 125 -124
210 -21 31 -38 61 -38 66 0 22 -96 115 -173 168 -183 126 -231 143 -342 125z
m669 -871 c-4 -84 -19 -178 -31 -197 -19 -29 -45 -36 -75 -23 -39 18 -46 40
-40 118 4 68 16 90 28 57 4 -8 14 -15 24 -15 19 0 30 19 30 54 0 30 9 38 40
34 20 -2 25 -8 24 -28z"/>
<path d="M5520 3183 c-14 -3 -34 -13 -45 -23 -11 -10 -35 -25 -52 -34 -32 -16
-33 -19 -33 -77 0 -33 6 -72 14 -87 24 -45 78 -90 125 -102 39 -10 47 -9 70 8
22 16 26 28 29 74 3 61 -4 69 -81 102 -34 14 -38 13 -61 -5 -26 -20 -46 -18
-46 5 0 6 15 27 33 44 44 43 138 62 185 38 41 -21 85 -63 117 -110 23 -34 26
-45 20 -90 -8 -57 -26 -96 -63 -141 -34 -41 -70 -61 -141 -80 -54 -14 -67 -14
-143 1 -46 9 -94 24 -108 33 -14 10 -41 24 -61 31 -20 7 -51 26 -69 42 -35 30
-60 36 -60 14 0 -15 64 -76 80 -76 5 0 29 -13 53 -30 25 -16 52 -30 61 -30 10
0 29 -6 45 -14 73 -38 232 -25 324 27 58 33 127 153 127 222 0 110 -36 173
-134 239 -32 22 -49 26 -100 25 -34 -1 -72 -4 -86 -6z"/>
<path d="M8450 2806 c-94 -15 -160 -47 -160 -79 0 -25 26 -67 41 -67 6 0 36
-12 67 -26 75 -35 134 -42 167 -20 14 9 37 39 51 68 29 57 24 85 -18 111 -36
23 -67 25 -148 13z m58 -126 c7 -12 8 -21 2 -25 -13 -8 -50 13 -50 29 0 31 27
29 48 -4z"/>
<path d="M8377 2465 c-48 -17 -47 -15 -58 -62 -16 -69 12 -113 72 -113 35 0
69 20 69 41 0 5 25 9 55 9 62 0 78 15 64 63 -13 45 -25 54 -93 66 -74 13 -62
13 -109 -4z"/>
<path d="M8630 2156 c-64 -14 -134 -48 -171 -82 l-25 -24 -40 30 c-21 16 -45
30 -52 30 -7 0 -31 9 -54 21 -34 17 -55 20 -128 17 l-86 -3 -62 -50 c-47 -38
-65 -59 -73 -88 -12 -46 -7 -65 35 -120 18 -24 36 -61 40 -82 4 -21 23 -67 43
-103 42 -76 62 -154 63 -241 0 -61 -2 -65 -39 -102 -36 -37 -42 -39 -98 -39
-49 0 -63 4 -79 21 -19 22 -19 22 9 15 54 -13 127 68 127 140 0 52 -30 97 -87
134 -59 36 -73 37 -133 4 -84 -46 -114 -153 -73 -262 11 -29 29 -63 41 -75 11
-12 22 -31 24 -42 2 -13 12 -21 28 -22 137 -14 162 -14 191 -4 39 14 63 -1 53
-33 -4 -12 -49 -67 -100 -122 -80 -87 -105 -107 -168 -137 -93 -44 -126 -49
-257 -38 -113 9 -141 20 -159 60 -10 22 -9 28 10 43 12 10 29 18 36 18 8 0 36
11 63 24 39 20 52 34 69 73 38 90 34 132 -20 187 -51 52 -74 64 -119 67 -53 4
-101 -17 -146 -64 -55 -55 -63 -80 -56 -172 7 -83 16 -101 122 -224 75 -87
160 -125 256 -115 103 11 121 15 176 35 101 37 282 219 343 345 34 71 34 71
124 117 50 26 97 47 105 47 8 0 22 -11 31 -25 9 -14 22 -25 30 -25 24 0 49
-75 43 -127 -5 -43 -11 -53 -75 -112 -50 -47 -77 -82 -95 -123 -14 -31 -35
-62 -48 -68 -12 -7 -42 -32 -67 -55 -34 -33 -54 -44 -87 -47 -107 -13 -151
-66 -102 -123 19 -23 34 -29 80 -33 88 -7 118 3 175 58 29 28 56 50 60 50 9 0
52 -97 52 -117 0 -6 20 -26 44 -44 24 -19 56 -52 70 -75 24 -39 26 -49 26
-166 0 -106 3 -127 16 -132 28 -11 103 -6 111 7 8 12 29 95 39 153 6 31 -23
105 -46 119 -5 3 -10 15 -10 25 0 14 21 26 92 51 71 26 105 44 145 81 29 26
57 48 62 48 13 0 31 57 31 94 0 30 -10 52 -67 154 -32 57 -104 102 -164 102
-57 0 -79 -7 -79 -27 0 -8 -6 -26 -14 -41 -8 -15 -17 -57 -21 -93 l-7 -67 37
-41 c35 -38 41 -41 92 -41 30 0 63 5 74 10 23 13 25 57 3 88 -19 28 -88 64
-117 62 -47 -4 -48 0 -17 45 26 38 36 45 63 45 41 0 73 -22 93 -63 8 -18 21
-44 30 -59 33 -60 -15 -150 -103 -193 -68 -33 -92 -32 -177 9 -91 44 -146 97
-146 142 0 56 18 86 99 161 88 81 121 138 121 208 0 43 -5 51 -67 120 -38 40
-77 86 -89 102 -27 36 -38 103 -22 140 12 30 28 168 31 270 1 34 5 65 9 69 4
4 16 -4 27 -17 16 -19 22 -22 32 -11 8 7 13 27 14 45 0 25 4 32 20 32 17 0 21
-10 30 -70 9 -60 13 -70 29 -68 11 1 27 -8 37 -20 21 -26 17 -60 -16 -132 -24
-52 -43 -74 -84 -95 -22 -11 -27 -10 -43 10 -11 13 -24 20 -33 16 -14 -5 -13
-11 6 -48 39 -76 131 -197 171 -223 21 -14 59 -51 83 -83 78 -101 221 -231
288 -263 34 -16 77 -39 96 -51 26 -17 48 -21 105 -21 119 1 201 44 285 149 65
82 74 106 66 167 -6 41 -16 58 -59 102 -28 30 -69 62 -90 71 -81 33 -244 -8
-291 -73 -14 -20 -21 -48 -23 -93 -2 -58 0 -70 28 -112 37 -59 85 -82 150 -74
50 7 73 29 91 88 10 32 9 40 -10 67 -43 60 -83 64 -114 11 -32 -53 -87 -28
-87 40 0 25 66 99 95 106 27 7 140 -13 167 -29 25 -15 68 -98 68 -131 0 -33
-14 -66 -36 -91 -48 -51 -114 -94 -169 -109 -59 -17 -62 -17 -151 7 -118 32
-144 46 -236 129 -67 60 -128 135 -117 141 2 1 18 12 36 24 17 13 51 27 75 32
54 13 118 76 118 119 0 15 7 37 15 48 17 23 19 67 4 96 -14 26 -85 58 -130 58
-68 0 -159 -43 -159 -77 0 -22 73 -93 96 -93 12 0 33 9 48 21 31 24 57 19 49
-9 -14 -53 -117 -118 -148 -92 -7 6 -26 13 -42 16 -38 7 -72 30 -85 60 -9 19
-7 40 6 97 24 98 39 126 92 167 32 25 48 46 55 75 6 22 20 57 31 79 17 32 19
54 16 133 -3 92 -4 96 -33 119 -31 25 -109 58 -160 67 -16 3 -55 0 -85 -7z
m-290 -286 c16 -22 27 -29 41 -25 14 5 24 -2 39 -27 26 -43 26 -119 1 -195
-11 -32 -22 -80 -25 -106 -9 -73 -31 -109 -91 -150 -96 -64 -109 -49 -103 113
2 47 -1 102 -5 123 -7 33 -6 38 9 35 14 -2 20 6 25 39 4 22 17 59 28 82 12 22
21 59 21 84 0 67 24 77 60 27z m-126 -67 c5 -14 3 -23 -3 -23 -16 0 -33 39
-26 58 5 15 7 15 14 2 5 -8 12 -25 15 -37z m542 -20 c-10 -10 -19 5 -10 18 6
11 8 11 12 0 2 -7 1 -15 -2 -18z m-881 -223 c9 -14 -32 -100 -46 -100 -12 0
-8 35 10 83 11 28 25 35 36 17z m-365 -285 c34 -33 45 -71 31 -108 -13 -32
-45 -36 -61 -7 -6 12 -21 20 -36 20 -14 0 -44 -9 -66 -20 -58 -28 -68 -26 -68
14 0 46 19 98 44 119 33 27 119 18 156 -18z"/>
</g>
</svg>
