<?xml version="1.0" standalone="no"?>
<!DOCTYPE svg PUBLIC "-//W3C//DTD SVG 20010904//EN"
 "http://www.w3.org/TR/2001/REC-SVG-20010904/DTD/svg10.dtd">
<svg version="1.0" xmlns="http://www.w3.org/2000/svg"
 width="1106.000000pt" height="582.000000pt" viewBox="0 0 1106.000000 582.000000"
 preserveAspectRatio="xMidYMid meet">

<g transform="translate(0.000000,582.000000) scale(0.100000,-0.100000)"
fill="#000000" stroke="none">
<path d="M221 5751 c-36 -6 -54 -17 -88 -55 -24 -27 -43 -54 -43 -61 0 -13 80
-75 96 -75 4 0 23 -18 42 -40 19 -23 60 -58 91 -79 66 -46 95 -75 153 -157 39
-56 96 -128 178 -225 22 -27 30 -47 30 -75 0 -27 10 -53 30 -84 16 -25 30 -55
30 -68 0 -14 15 -36 36 -56 l36 -33 -12 -59 c-7 -32 -15 -75 -18 -94 -2 -19
-17 -50 -32 -70 -15 -19 -33 -52 -40 -74 -8 -24 -23 -44 -41 -55 -16 -9 -38
-34 -49 -56 -23 -48 -15 -98 24 -134 23 -22 25 -22 182 -12 l159 9 44 -25 c23
-14 51 -33 61 -43 9 -9 47 -31 84 -49 69 -33 106 -62 106 -85 0 -16 70 -164
105 -221 13 -22 50 -92 82 -155 50 -101 57 -124 61 -187 5 -87 -17 -164 -54
-187 -13 -9 -24 -23 -24 -31 0 -8 -22 -29 -50 -46 -57 -35 -78 -83 -60 -136
17 -48 50 -60 118 -43 74 18 319 20 347 3 11 -7 27 -13 36 -13 18 0 119 -58
152 -87 26 -23 84 -110 122 -183 17 -31 47 -77 67 -102 24 -29 40 -62 46 -94
6 -27 17 -75 26 -107 20 -73 20 -146 1 -183 -8 -16 -15 -39 -15 -51 0 -11 -13
-50 -30 -85 -16 -34 -30 -72 -30 -84 0 -32 34 -56 92 -65 62 -10 95 0 123 39
30 40 85 92 130 120 22 13 50 33 62 44 14 14 41 22 80 25 104 10 237 7 290 -6
29 -7 66 -14 82 -15 16 -1 57 -13 91 -26 48 -20 69 -34 91 -66 16 -23 46 -56
67 -72 25 -20 53 -60 82 -116 24 -47 47 -86 52 -86 20 0 28 -51 14 -83 -8 -18
-17 -68 -20 -112 -3 -44 -8 -114 -12 -156 l-6 -75 41 -27 c22 -15 45 -27 51
-27 6 0 24 -10 40 -22 29 -21 30 -21 49 -4 11 10 28 41 37 70 26 79 58 121
126 167 79 54 142 78 190 72 21 -3 51 0 68 6 24 8 40 7 68 -3 20 -8 60 -20 87
-26 28 -7 54 -17 60 -21 5 -5 20 -9 34 -9 13 0 45 -13 70 -29 25 -16 59 -32
75 -35 43 -10 111 -52 174 -108 30 -26 61 -48 67 -48 7 0 30 -20 51 -45 22
-25 71 -81 110 -123 39 -42 79 -90 88 -107 9 -16 21 -37 26 -45 5 -8 37 -73
70 -145 34 -71 67 -141 74 -155 8 -14 28 -68 46 -120 17 -52 36 -99 41 -104 5
-6 9 -18 9 -28 0 -9 11 -27 23 -40 22 -21 107 -151 107 -162 0 -21 88 -135
118 -153 58 -36 102 -31 159 18 26 23 52 51 58 63 5 11 15 26 21 31 6 6 30 44
52 85 22 41 54 100 71 130 17 30 31 63 31 73 0 10 16 49 35 87 19 38 35 75 35
82 0 16 79 152 142 247 27 40 54 87 62 105 18 43 63 104 193 258 56 67 108
123 116 124 7 1 31 18 53 38 21 20 44 36 49 36 6 0 28 10 50 21 22 12 53 23
70 25 16 2 59 16 95 31 58 24 76 27 159 25 52 -1 109 3 126 9 27 10 36 9 61
-8 16 -12 52 -26 79 -34 28 -7 62 -22 77 -35 15 -12 41 -25 57 -29 16 -3 48
-27 72 -53 24 -26 58 -58 75 -72 17 -14 38 -39 47 -56 25 -48 73 -57 147 -28
54 22 62 40 55 127 -17 214 -8 331 27 375 32 40 97 91 177 139 96 58 226 123
246 123 7 0 18 7 25 15 7 8 23 15 36 15 12 0 25 4 28 9 10 15 60 19 157 12 90
-7 102 -11 209 -65 63 -32 125 -67 139 -77 29 -23 93 -41 115 -33 53 20 55
114 6 219 -52 110 -55 126 -35 178 9 25 15 53 12 61 -4 9 -2 18 3 21 6 4 10
16 10 28 0 29 55 115 108 168 23 23 42 47 42 53 0 7 16 25 35 40 22 18 35 37
35 52 0 13 7 29 16 36 8 7 25 24 37 37 32 34 103 81 140 92 36 11 198 40 237
43 14 1 31 5 38 10 8 5 20 2 30 -7 9 -8 46 -17 82 -21 36 -4 86 -9 113 -13 43
-5 47 -4 47 15 0 12 -5 24 -10 27 -26 16 -98 231 -106 314 -10 111 -7 140 22
204 23 51 27 74 25 125 -3 71 14 154 39 192 10 14 25 47 36 75 18 49 99 145
122 145 6 0 15 6 19 13 4 8 21 22 36 32 16 10 51 40 80 66 38 35 55 45 67 39
9 -5 34 -11 56 -13 22 -3 69 -13 104 -23 l63 -18 34 39 c41 48 52 98 28 125
-10 11 -23 20 -30 20 -6 0 -17 17 -24 38 -8 20 -19 44 -26 52 -21 25 -24 57
-15 155 7 68 18 116 43 177 19 45 41 103 50 128 10 26 44 74 82 115 35 39 67
79 71 89 4 11 19 34 35 50 16 17 29 35 29 40 0 5 36 43 79 85 74 71 101 96
228 211 70 64 107 136 101 195 -3 25 -14 55 -24 67 -17 18 -27 19 -79 14 -131
-13 -482 -28 -706 -29 -180 -2 -240 -5 -252 -15 -10 -8 -21 -10 -29 -5 -7 4
-215 9 -463 9 -247 1 -560 4 -695 8 -148 4 -276 2 -323 -4 -54 -7 -85 -6 -98
1 -16 8 -1077 15 -1314 8 -27 -1 -124 1 -215 5 -91 4 -340 9 -555 12 -214 4
-410 8 -435 10 -25 2 -229 6 -455 8 -225 3 -493 7 -595 10 -380 11 -1124 8
-1173 -4 -37 -10 -58 -10 -94 0 -35 9 -246 13 -782 16 -609 3 -738 6 -755 18
-18 11 -123 14 -606 15 -322 0 -697 3 -835 5 -137 3 -270 1 -294 -3z m1527
-113 c17 -17 15 -57 -3 -64 -8 -4 -26 -3 -40 0 -21 5 -25 12 -25 41 0 32 3 35
28 35 15 0 33 -5 40 -12z m-411 -14 c8 -21 -14 -34 -50 -30 -37 4 -57 23 -37
36 25 16 80 12 87 -6z m654 6 c11 -6 19 -21 19 -36 0 -23 -3 -25 -36 -22 -47
4 -67 31 -39 52 24 18 31 19 56 6z m-1213 -33 c2 -10 -3 -17 -12 -17 -18 0
-29 16 -21 31 9 14 29 6 33 -14z m742 7 c0 -3 -5 -14 -10 -25 -16 -29 -33
-173 -31 -269 1 -90 24 -170 47 -170 8 0 14 -9 14 -19 0 -11 16 -35 35 -53 29
-28 35 -41 37 -85 2 -29 6 -53 11 -53 4 0 7 8 7 19 0 31 22 42 63 30 41 -11
55 -39 42 -87 -13 -45 -13 -434 -1 -422 11 11 17 118 17 305 0 55 2 110 4 122
6 25 63 48 95 38 13 -4 22 -1 26 9 3 9 13 16 22 16 8 0 30 18 49 40 19 22 40
40 46 40 7 0 12 15 13 33 0 17 11 52 23 77 19 39 21 55 16 113 -5 46 -4 67 4
67 6 0 11 -6 11 -14 0 -7 19 -37 42 -66 23 -29 47 -73 54 -99 11 -43 13 -44
21 -22 l10 24 33 -36 c41 -45 74 -114 71 -147 -3 -27 -77 -110 -98 -110 -7 0
-30 -19 -53 -42 -45 -48 -45 -59 -4 -141 13 -27 24 -53 24 -58 0 -13 -85 -99
-98 -99 -6 0 -14 5 -18 11 -17 28 -31 151 -27 235 3 65 1 94 -7 99 -9 6 -11
-25 -9 -127 3 -102 1 -139 -9 -151 -9 -11 -11 -27 -7 -47 5 -23 2 -37 -10 -50
-15 -17 -15 -22 9 -73 14 -29 26 -64 26 -76 0 -13 9 -26 24 -33 54 -24 31 -62
-25 -41 -32 12 -40 3 -32 -40 5 -23 1 -29 -28 -41 -50 -21 -60 -6 -71 111 -5
54 -12 100 -14 102 -10 11 -17 -14 -22 -79 -3 -40 -8 -67 -11 -62 -3 5 -15 11
-26 13 -20 4 -29 25 -57 130 l-12 47 -17 -32 c-9 -17 -24 -32 -32 -34 -24 -5
-67 43 -67 73 0 15 -7 28 -17 32 -21 8 -58 46 -88 89 -20 30 -21 41 -18 250 2
120 8 223 14 228 12 13 12 66 0 66 -5 0 -12 -19 -15 -42 -3 -24 -8 -56 -11
-73 -2 -16 -6 -78 -9 -138 -5 -110 -11 -147 -25 -147 -26 0 -84 124 -82 175 0
11 3 68 7 128 4 76 3 107 -5 107 -6 0 -11 -12 -11 -27 0 -16 -5 -35 -10 -43
-15 -24 -37 16 -45 83 -16 131 -38 46 -32 -119 3 -81 8 -108 24 -130 11 -16
23 -42 26 -59 4 -16 10 -41 13 -55 l7 -25 -26 24 c-15 13 -29 31 -31 40 -3 9
-10 36 -16 60 l-11 43 -20 -21 c-11 -11 -23 -21 -28 -21 -18 0 -40 38 -46 80
-13 96 -16 110 -26 105 -5 -4 -9 -17 -9 -29 0 -37 -25 -52 -54 -33 -21 14 -24
26 -30 116 -6 75 -11 101 -21 101 -11 0 -13 -16 -9 -71 4 -63 2 -70 -13 -67
-10 2 -19 13 -21 25 -2 12 -13 28 -26 36 -16 11 -23 26 -24 48 -1 43 -13 53
-45 38 -43 -19 -74 0 -84 53 -8 41 -11 43 -40 40 -23 -2 -36 3 -51 23 -11 14
-26 23 -33 20 -15 -5 -120 72 -126 92 -10 28 45 24 102 -6 32 -17 71 -31 87
-31 16 0 38 -5 48 -10 10 -6 65 -12 122 -15 57 -2 132 -7 167 -10 46 -4 70 -2
86 9 12 8 40 19 63 25 23 7 58 27 78 46 20 19 40 35 44 35 8 0 70 47 113 85
25 23 57 33 57 19z m1265 -5 c11 -17 -1 -21 -15 -4 -8 9 -8 15 -2 15 6 0 14
-5 17 -11z m465 -16 c0 -19 -3 -24 -10 -17 -6 6 -8 18 -4 27 9 24 14 21 14
-10z m1618 -26 c4 -20 -25 -34 -40 -19 -15 15 -1 44 19 40 10 -2 19 -11 21
-21z m565 -2 c20 -4 37 -11 37 -16 0 -8 -93 -15 -142 -11 -10 1 -18 -5 -18
-13 0 -12 15 -15 73 -16 102 -1 122 -9 120 -44 -1 -15 4 -40 12 -56 8 -15 15
-37 15 -49 0 -35 24 -100 37 -100 7 0 13 9 13 20 0 14 11 22 40 30 47 13 51
26 11 35 -37 8 -45 37 -20 69 18 23 18 25 3 34 -23 13 -11 40 18 44 13 2 24
11 27 23 5 31 24 37 42 13 l16 -21 21 21 c25 25 72 36 118 28 59 -12 40 -29
-26 -24 -33 2 -60 1 -60 -2 0 -3 16 -14 35 -23 19 -9 35 -24 35 -32 0 -9 -20
-36 -45 -61 -25 -24 -45 -51 -45 -59 0 -8 -9 -20 -20 -27 -11 -7 -20 -18 -20
-25 0 -7 -15 -36 -33 -65 -38 -59 -57 -109 -57 -145 0 -14 -6 -37 -14 -51 -22
-44 -40 -122 -43 -197 -5 -108 -8 -116 -41 -109 -15 4 -29 8 -31 10 -4 4 -7
66 -12 229 -3 117 -13 149 -72 215 -21 23 -26 37 -21 55 7 29 -53 175 -72 175
-14 0 -34 44 -34 74 0 13 -7 29 -15 36 -23 19 0 40 44 40 20 0 43 4 51 10 8 5
19 5 25 0 5 -4 27 -11 48 -15z m-1831 -2 c40 -36 -1 -80 -51 -53 -27 14 -27
34 2 53 28 20 27 20 49 0z m268 8 c0 -13 -26 -32 -33 -24 -14 13 -6 33 13 33
11 0 20 -4 20 -9z m604 -7 c8 -22 -1 -34 -28 -34 -24 0 -61 32 -49 43 13 14
71 7 77 -9z m1671 -4 c14 -15 15 -23 6 -34 -16 -20 -58 -25 -78 -11 -15 11
-15 17 -5 39 14 32 51 35 77 6z m659 -2 c8 -14 7 -21 -5 -33 -28 -29 -73 11
-48 42 15 17 38 13 53 -9z m436 7 c36 -19 39 -42 6 -51 -55 -14 -88 10 -72 52
7 18 29 18 66 -1z m1865 -5 c31 -35 0 -63 -49 -44 -19 7 -21 35 -4 52 17 17
32 15 53 -8z m724 -5 c21 -20 6 -45 -27 -45 -32 0 -52 16 -52 41 0 31 48 33
79 4z m-7082 -1 c33 -4 54 -11 57 -21 7 -16 -11 -128 -24 -153 -4 -8 -25 -18
-46 -22 -50 -8 -95 -25 -115 -44 -14 -12 -15 -23 -8 -57 5 -23 14 -54 20 -68
18 -46 -8 -80 -83 -108 -34 -14 -71 -31 -80 -39 -26 -22 -22 -68 8 -107 33
-44 26 -68 -31 -95 -25 -12 -58 -34 -75 -50 -16 -15 -37 -30 -45 -34 -8 -3
-20 -17 -26 -30 -10 -20 -8 -33 10 -70 34 -73 29 -102 -26 -154 -27 -25 -58
-51 -70 -60 -31 -20 -29 -29 17 -89 l39 -53 -25 -17 c-37 -25 -94 -81 -94 -91
0 -5 -9 -19 -20 -32 -11 -13 -20 -26 -20 -29 0 -3 18 -25 40 -49 l39 -44 -16
-41 c-19 -49 -81 -148 -100 -160 -22 -14 -14 -42 22 -77 40 -39 48 -85 15 -95
-20 -6 -80 -76 -80 -92 0 -6 9 -18 20 -28 15 -13 20 -31 20 -67 0 -26 -4 -48
-9 -48 -6 0 -20 -18 -32 -40 -24 -43 -34 -46 -73 -29 -35 17 -39 35 -11 61 13
13 28 35 34 50 9 24 6 31 -24 60 -41 38 -44 59 -11 90 13 13 31 37 41 54 17
30 17 31 -9 73 -55 87 -52 105 33 182 28 26 51 54 51 62 0 9 -18 37 -40 62
-22 25 -40 53 -40 62 0 14 15 37 70 107 8 11 27 31 43 45 29 28 35 58 13 67
-8 3 -30 25 -49 49 -60 77 -30 129 97 171 64 21 77 36 53 62 -26 29 -68 142
-61 164 3 11 28 31 57 44 29 14 68 36 87 50 19 14 41 29 49 34 12 6 9 20 -17
79 -18 39 -32 85 -32 101 0 26 7 33 50 55 27 14 62 25 77 25 47 0 73 11 73 31
0 10 -4 21 -10 24 -5 3 -10 21 -10 39 0 19 -7 39 -15 46 -13 11 -12 16 5 41
11 15 31 31 43 34 46 13 97 40 97 53 0 7 -9 31 -20 53 -16 31 -18 44 -9 60 11
22 19 22 176 3z m248 -66 c157 -156 214 -208 230 -208 9 0 18 -6 21 -14 3 -8
36 -38 72 -66 37 -27 79 -66 94 -84 l27 -34 -25 -6 -25 -7 26 -31 c32 -38 29
-64 -8 -61 -31 2 -30 3 -17 -31 9 -25 -2 -37 -15 -16 -3 6 -16 10 -28 10 -12
0 -37 9 -55 20 l-33 21 21 17 c24 20 19 47 -11 55 -13 4 -19 0 -19 -11 0 -10
-4 -23 -9 -31 -13 -20 -72 2 -154 58 -72 48 -134 84 -164 95 -10 3 -33 17 -52
31 -37 27 -55 32 -49 13 2 -7 24 -24 49 -38 49 -27 130 -79 169 -107 13 -10
38 -25 55 -34 16 -9 55 -30 85 -47 30 -16 78 -41 105 -56 54 -29 124 -93 125
-113 0 -24 -33 -13 -179 58 -201 98 -218 107 -248 135 -14 13 -30 24 -35 24
-6 0 -24 6 -41 14 -37 16 -127 46 -139 46 -5 0 -6 -4 -3 -10 7 -11 92 -50 110
-50 6 0 19 -8 29 -19 9 -10 36 -27 59 -37 23 -10 44 -21 47 -24 3 -3 75 -40
160 -83 150 -75 230 -133 216 -156 -10 -15 -33 -14 -64 3 -15 8 -43 21 -62 29
-97 39 -152 63 -227 98 -44 22 -86 39 -92 39 -7 0 -45 16 -87 36 -41 19 -80
33 -87 31 -7 -2 20 -20 58 -39 39 -18 90 -46 115 -60 54 -32 194 -88 218 -88
10 0 40 -14 68 -31 27 -18 63 -36 79 -42 40 -14 84 -47 90 -68 4 -10 1 -27 -5
-39 -8 -16 -17 -19 -38 -14 -15 4 -32 10 -37 15 -23 17 -318 129 -342 129 -31
0 -9 -28 30 -39 23 -7 56 -17 72 -22 17 -6 44 -14 60 -19 104 -27 218 -94 233
-138 19 -56 -11 -66 -98 -32 -89 35 -109 16 -23 -22 64 -28 108 -109 68 -125
-9 -3 -44 4 -78 15 -34 12 -80 24 -102 28 -22 3 -50 12 -62 20 -12 8 -36 14
-52 14 -16 0 -32 4 -35 9 -4 5 -25 12 -49 16 -23 4 -50 11 -60 17 -11 5 -24 5
-34 -1 -15 -8 -13 -10 12 -17 17 -4 35 -11 41 -16 14 -11 86 -30 194 -53 47
-10 91 -23 98 -28 7 -5 31 -20 55 -32 23 -13 42 -29 42 -36 0 -22 -112 -12
-195 16 -39 13 -99 27 -133 31 -34 4 -73 11 -87 17 -73 28 -218 49 -194 28 10
-9 108 -42 139 -46 22 -3 69 -15 154 -39 30 -9 77 -18 105 -22 106 -12 167
-54 134 -91 -8 -10 -14 -23 -11 -29 3 -8 -16 -12 -63 -10 -70 1 -98 20 -50 32
30 7 34 19 10 28 -26 10 -156 33 -184 33 -14 0 -70 8 -125 18 -55 10 -118 19
-140 21 -70 5 -266 -8 -263 -18 2 -5 83 -11 188 -13 196 -4 325 -18 350 -40 8
-8 33 -15 55 -17 28 -2 41 -8 43 -20 4 -21 -34 -34 -53 -18 -10 8 -34 10 -75
5 -42 -5 -65 -3 -75 5 -11 9 -45 11 -133 5 -64 -4 -162 -8 -218 -10 -55 -2
-105 -5 -110 -6 -57 -11 -124 26 -124 69 0 11 18 40 40 65 23 26 40 55 40 69
0 36 19 48 72 48 26 0 48 4 48 10 0 12 -54 21 -104 18 -28 -2 -41 2 -50 15 -9
16 -4 25 36 62 57 51 100 60 160 33 51 -23 148 -36 148 -20 0 7 -10 14 -22 17
-13 3 -57 14 -98 23 l-75 18 -38 77 c-31 62 -36 80 -27 97 7 13 21 20 40 20
25 0 30 4 30 26 0 30 37 48 123 59 31 3 57 8 57 11 0 2 -7 12 -16 22 -8 9 -28
37 -44 62 -54 86 -10 143 132 171 32 6 58 14 58 17 0 3 -16 33 -35 68 -50 89
-44 133 17 137 13 1 28 8 34 16 7 9 29 15 55 16 l43 0 -1 94 c-2 171 20 180
142 59z m1193 38 c4 -21 -37 -22 -64 -1 -19 15 -19 15 0 30 17 13 23 13 40 1
12 -7 22 -21 24 -30z m2266 38 c25 -10 19 -43 -10 -54 -30 -12 -54 1 -54 30 0
29 26 39 64 24z m2028 -17 c12 -19 -4 -37 -31 -37 -36 0 -42 7 -29 36 9 18 16
23 32 18 12 -4 24 -11 28 -17z m269 13 c10 -6 19 -21 19 -34 0 -19 -7 -25 -37
-31 -31 -6 -40 -3 -55 16 -17 20 -17 23 -2 40 19 21 46 24 75 9z m-7683 -25
c21 -27 19 -63 -4 -72 -18 -7 -64 23 -64 42 0 8 -12 15 -27 17 -31 3 -29 21 1
25 11 2 22 6 25 8 13 13 52 2 69 -20z m502 15 c0 -5 -4 -10 -10 -10 -5 0 -10
5 -10 10 0 6 5 10 10 10 6 0 10 -4 10 -10z m6473 -5 c-4 -15 -36 -12 -41 3 -3
9 3 13 19 10 13 -1 23 -7 22 -13z m2057 -11 c0 -8 -4 -14 -10 -14 -5 0 -10 9
-10 21 0 11 5 17 10 14 6 -3 10 -13 10 -21z m-1774 -5 c15 -16 16 -24 6 -39
-16 -25 -15 -30 3 -30 24 0 39 -39 26 -67 -23 -51 10 -56 89 -13 54 29 150 42
150 21 0 -5 -16 -21 -35 -35 -19 -15 -35 -30 -35 -34 0 -4 16 -16 36 -27 34
-18 36 -21 30 -58 -9 -52 -1 -59 39 -40 27 13 46 14 97 7 l63 -9 5 -40 c3 -22
9 -46 13 -52 4 -7 -3 -41 -16 -75 -38 -96 -39 -108 -14 -108 12 0 38 5 59 10
59 17 120 -2 167 -52 46 -49 49 -64 21 -118 -11 -22 -20 -45 -20 -53 0 -17
-78 -107 -93 -107 -6 0 -18 -6 -26 -13 -9 -7 -59 -32 -111 -56 -100 -44 -149
-75 -138 -87 6 -5 47 13 173 80 86 45 223 105 245 106 53 4 61 0 80 -46 36
-84 24 -112 -48 -111 -28 0 -49 -6 -60 -18 -16 -16 -15 -17 14 -11 36 8 48 -3
59 -52 6 -28 2 -37 -28 -67 -39 -39 -35 -41 42 -21 80 20 141 -3 141 -53 -1
-46 -39 -77 -106 -85 -231 -27 -505 -80 -560 -109 l-28 -15 40 -6 c22 -4 52
-2 68 3 15 6 41 11 57 11 16 0 37 4 47 10 23 13 252 61 321 67 72 7 80 -4 52
-65 l-22 -48 -95 4 c-53 3 -121 -1 -152 -7 -31 -7 -115 -13 -186 -14 l-130 -2
-6 25 c-5 23 -11 25 -63 28 -31 2 -57 7 -57 12 0 25 15 40 41 40 15 0 52 8 81
19 29 10 94 31 143 46 99 30 225 76 225 82 0 7 -78 -5 -97 -15 -10 -5 -67 -19
-128 -32 -60 -12 -132 -31 -158 -41 -26 -11 -58 -19 -70 -19 -13 0 -28 -5 -34
-11 -8 -8 -17 -8 -31 0 -11 6 -33 11 -49 11 -32 0 -61 15 -50 26 16 16 94 41
200 63 27 6 60 17 75 25 15 8 48 24 75 36 26 12 47 26 47 31 0 11 4 12 -51 -5
-46 -14 -80 -30 -109 -52 -21 -16 -103 -32 -187 -37 -62 -4 -75 -1 -99 18
l-29 23 25 21 c14 11 39 20 56 21 44 0 129 27 208 66 39 19 75 34 82 34 7 0
16 5 20 12 10 15 -42 5 -98 -20 -43 -19 -86 -33 -204 -67 -60 -17 -63 -17 -88
1 -14 11 -26 27 -26 37 0 27 19 57 33 52 38 -14 277 103 277 136 0 19 -29 8
-70 -26 -23 -19 -48 -35 -55 -35 -7 0 -34 -12 -60 -27 -77 -43 -165 -33 -165
18 0 10 10 25 23 34 67 48 114 75 129 75 9 0 34 15 56 33 22 17 61 48 87 67
86 65 101 79 84 80 -9 0 -24 -9 -35 -21 -10 -12 -36 -30 -56 -40 -38 -19 -78
-45 -138 -90 -19 -14 -56 -33 -81 -43 -26 -9 -54 -25 -64 -36 -13 -15 -22 -17
-36 -9 -30 16 -25 66 11 97 17 15 30 29 30 33 0 3 -19 3 -42 -1 -49 -9 -58 -6
-58 20 0 20 63 80 85 80 8 0 40 27 72 59 32 33 78 75 102 95 44 37 113 117
106 124 -8 8 -102 -67 -130 -104 -16 -22 -71 -74 -121 -116 -99 -83 -155 -109
-193 -89 -46 25 -13 74 108 159 57 41 75 62 51 62 -5 0 -19 -9 -30 -20 -11
-11 -35 -26 -55 -34 -19 -8 -35 -19 -35 -24 0 -12 -117 -55 -130 -47 -24 15
-7 47 46 88 83 63 227 203 222 217 -2 6 -25 -11 -51 -39 -26 -28 -51 -51 -56
-51 -4 0 -25 -16 -47 -36 -52 -48 -124 -94 -146 -94 -11 0 -18 7 -18 20 0 11
3 20 8 20 11 0 56 70 49 76 -3 4 -31 -8 -62 -26 -31 -18 -59 -29 -62 -26 -8 7
-7 7 39 28 29 13 35 21 31 37 -4 16 1 23 21 31 14 5 26 14 26 20 0 5 38 52 85
104 47 51 85 98 85 103 0 5 22 30 49 56 54 50 71 75 71 105 0 10 11 31 25 46
30 32 74 35 101 5z m1148 6 c20 -21 9 -45 -20 -45 -26 0 -40 20 -30 45 7 19
30 19 50 0z m-1729 -25 c8 -25 -7 -46 -41 -54 -31 -8 -64 9 -64 34 0 41 93 58
105 20z m-6000 0 c3 -5 1 -10 -4 -10 -6 0 -11 5 -11 10 0 6 2 10 4 10 3 0 8
-4 11 -10z m7944 -4 c15 -8 35 -26 44 -40 9 -13 30 -27 47 -31 17 -4 37 -17
46 -30 24 -36 124 -98 184 -114 34 -9 110 -14 197 -15 78 -1 145 -4 149 -8 11
-11 -16 -38 -38 -38 -10 0 -32 -9 -47 -21 -23 -17 -32 -19 -50 -10 -18 10 -21
9 -21 -8 0 -10 -7 -21 -15 -25 -8 -3 -15 -12 -15 -21 0 -8 -9 -24 -20 -35 -19
-19 -22 -20 -37 -4 -16 16 -18 15 -33 -7 -51 -79 -81 -93 -100 -45 -8 19 -9
18 -9 -8 -1 -44 -58 -126 -87 -126 -23 0 -24 1 -22 88 2 80 -11 148 -33 176
-4 5 -8 -20 -8 -55 0 -36 -5 -77 -11 -93 -6 -16 -13 -41 -15 -55 -14 -81 -21
-98 -51 -138 -19 -25 -34 -49 -34 -54 0 -5 -9 -18 -21 -30 -16 -16 -23 -18
-35 -8 -19 16 -47 -7 -40 -35 3 -11 -2 -32 -12 -48 -23 -39 -57 -37 -78 4 -20
39 -29 27 -38 -55 -5 -47 -13 -65 -35 -88 -47 -47 -57 -39 -64 46 -3 41 -4
112 -2 158 2 63 1 76 -7 57 -5 -14 -12 -61 -14 -105 -2 -44 -7 -121 -12 -171
-7 -88 -8 -91 -44 -123 -42 -36 -71 -37 -76 -3 -2 14 -10 22 -23 22 -14 0 -19
5 -17 18 3 11 12 16 26 15 17 -2 23 5 32 40 6 23 13 48 15 55 3 7 0 23 -5 36
-6 16 -4 40 6 72 11 37 12 59 5 90 -6 22 -8 56 -5 76 4 20 2 38 -4 42 -13 8
-26 -47 -17 -73 3 -11 1 -38 -6 -60 -13 -44 -40 -58 -84 -41 -45 17 -68 46
-61 74 8 31 22 34 31 5 5 -15 10 -18 18 -10 7 7 7 21 0 44 -6 19 -6 43 -2 56
11 28 5 99 -9 113 -7 7 -17 6 -32 -2 -25 -13 -22 -15 -44 28 -16 31 -17 32
-41 16 -36 -23 -57 -14 -70 31 l-12 40 -12 -28 c-6 -16 -17 -27 -24 -25 -15 5
-25 82 -16 123 4 17 10 42 13 56 4 19 17 30 49 43 24 9 62 32 85 51 22 19 43
35 47 35 24 0 75 56 86 95 7 25 16 45 20 45 4 0 12 -14 19 -31 11 -27 11 -36
-3 -63 -28 -55 -31 -79 -32 -209 l0 -128 25 4 c22 4 28 -1 48 -42 12 -27 22
-53 22 -59 0 -15 17 -15 26 -1 3 6 16 8 28 5 11 -4 54 -13 94 -20 l73 -13 36
28 c20 16 42 29 49 29 8 0 26 19 40 43 15 23 31 45 37 48 12 8 25 78 33 175 6
61 3 78 -14 110 -27 52 -46 127 -37 153 8 25 25 26 64 7z m-8085 -18 c12 -20
0 -48 -23 -56 -9 -3 -11 2 -6 17 4 12 2 21 -4 21 -6 0 -11 -7 -11 -15 0 -19
-9 -19 -31 1 -14 13 -16 21 -8 36 13 24 67 21 83 -4z m629 2 c5 -4 7 -16 5
-26 -3 -15 -12 -19 -43 -19 -22 0 -46 -4 -53 -8 -16 -10 -42 9 -42 31 0 28 32
43 80 36 25 -3 49 -9 53 -14z m207 -5 c0 -19 -20 -29 -32 -17 -8 8 -7 16 2 26
14 17 30 12 30 -9z m4860 15 c0 -5 -5 -10 -11 -10 -5 0 -7 5 -4 10 3 6 8 10
11 10 2 0 4 -4 4 -10z m-5435 -70 c-4 -19 2 -33 24 -57 26 -29 27 -34 15 -50
-14 -17 -14 -16 -12 6 3 23 0 25 -50 27 -39 2 -54 -1 -59 -11 -9 -26 -23 -16
-23 16 0 22 9 38 31 56 17 15 35 38 41 52 9 25 10 26 24 6 8 -11 12 -30 9 -45z
m-65 36 c0 -3 -4 -8 -10 -11 -5 -3 -10 -1 -10 4 0 6 5 11 10 11 6 0 10 -2 10
-4z m2878 -8 c7 -7 12 -20 12 -30 0 -13 -8 -18 -30 -18 -22 0 -30 5 -30 18 0
17 18 42 30 42 3 0 11 -5 18 -12z m-821 -56 c7 -20 13 -51 13 -69 0 -17 5 -35
10 -38 15 -9 12 -41 -6 -56 -13 -11 -21 -10 -51 6 l-35 19 4 73 c4 52 10 79
23 93 21 24 25 22 42 -28z m3591 19 c4 -29 -20 -51 -55 -51 -31 0 -39 24 -18
56 22 34 68 31 73 -5z m2872 9 c0 -11 -12 -27 -26 -36 -22 -15 -27 -15 -35 -3
-16 25 -10 47 14 52 42 8 47 7 47 -13z m-6880 -10 c29 -29 26 -60 -4 -60 -14
0 -28 5 -31 10 -3 6 -15 10 -26 10 -25 0 -24 8 3 37 26 28 33 28 58 3z m5420
10 c0 -5 13 -10 28 -10 53 0 85 -70 37 -78 -11 -2 -27 -13 -36 -24 -15 -20
-16 -18 -23 37 -4 37 -13 63 -24 71 -16 13 -16 13 1 14 9 0 17 -4 17 -10z
m-3770 -26 c0 -9 -11 -14 -30 -14 -35 0 -40 17 -7 29 26 10 37 6 37 -15z
m1409 -14 c25 -48 25 -50 6 -50 -8 0 -19 16 -24 38 -19 66 -12 70 18 12z m541
15 c0 -21 -5 -25 -29 -25 -37 0 -50 19 -26 37 31 22 55 16 55 -12z m207 -32
c47 -80 52 -97 37 -118 -8 -10 -11 -29 -8 -42 5 -18 1 -28 -14 -38 -19 -14
-32 -54 -34 -101 0 -17 -6 -20 -32 -19 -17 1 -41 6 -53 11 -23 9 -23 10 -5 44
36 67 54 159 47 226 -10 99 15 114 62 37z m378 -57 c-13 -169 -95 -277 -170
-222 -18 13 -18 14 3 41 12 15 22 36 22 46 0 11 7 19 15 19 20 0 53 55 61 100
9 45 53 122 66 114 6 -4 7 -40 3 -98z m1672 89 c5 -15 -21 -44 -40 -45 -14 0
-19 30 -7 45 16 19 39 19 47 0z m-3314 -9 c25 -19 21 -45 -8 -52 -46 -12 -80
20 -55 51 15 18 39 19 63 1z m687 -4 c30 -24 20 -67 -13 -58 -12 3 -31 6 -42
6 -11 0 -26 4 -34 9 -12 8 -12 13 3 35 20 31 54 34 86 8z m-2387 -8 c3 -4 2
-15 -4 -26 -5 -10 -11 -55 -11 -98 -1 -44 -5 -80 -9 -80 -4 0 -11 -9 -14 -20
-10 -33 -32 -23 -38 18 -4 20 -11 57 -16 81 -8 41 -7 47 19 72 15 16 30 35 33
44 6 15 28 20 40 9z m2061 -15 c10 -9 -8 -59 -22 -59 -4 0 -6 -16 -4 -36 4
-33 2 -35 -19 -32 -17 2 -25 11 -27 27 -2 14 -11 35 -19 48 -8 12 -13 30 -9
38 11 31 73 39 100 14z m-2302 -6 c24 -21 23 -40 -3 -53 -16 -9 -26 -8 -44 4
-26 17 -24 52 4 59 9 3 18 5 20 6 3 0 13 -6 23 -16z m3897 -1 c12 -23 -4 -52
-29 -52 -30 0 -50 11 -50 27 0 9 -8 22 -17 29 -16 12 -11 13 34 14 40 0 55 -4
62 -18z m1586 2 c33 -34 -8 -67 -50 -40 -26 17 -26 18 -9 37 21 23 37 24 59 3z
m-3077 -21 c5 -17 -26 -29 -40 -15 -6 6 -7 15 -3 22 9 14 37 9 43 -7z m-5742
-38 c9 -13 24 -27 34 -30 10 -3 62 -49 117 -102 54 -52 112 -106 128 -119 17
-12 44 -42 60 -65 17 -23 71 -84 120 -135 249 -258 353 -378 337 -388 -4 -2
-32 2 -62 10 -124 34 -242 29 -323 -12 -16 -8 -35 -14 -43 -14 -9 0 -12 -5 -9
-10 4 -6 12 -7 18 -3 11 7 135 5 232 -3 139 -11 265 -72 393 -189 45 -41 86
-75 91 -75 17 0 181 -168 181 -185 0 -10 -32 -53 -71 -96 l-70 -78 40 -44 c23
-24 41 -50 41 -58 0 -17 -49 -90 -73 -107 -27 -20 -21 -33 35 -84 l53 -47 -53
-46 c-63 -56 -69 -86 -19 -105 63 -26 69 -37 62 -112 -4 -40 -3 -68 2 -68 10
0 63 76 63 91 0 5 13 15 28 23 16 8 47 30 69 49 23 18 56 39 74 46 51 19 128
58 184 93 28 17 68 35 89 40 38 9 41 7 88 -39 71 -70 66 -75 -80 -79 -115 -3
-183 -15 -207 -37 -6 -5 21 -8 65 -6 87 4 174 -8 212 -27 14 -8 46 -16 70 -18
66 -7 89 -16 144 -58 28 -21 56 -38 63 -38 13 0 108 -61 205 -132 33 -24 93
-66 135 -95 110 -77 112 -79 70 -97 -20 -8 -60 -18 -90 -22 -57 -7 -244 -78
-319 -121 -48 -27 -120 -91 -120 -106 0 -21 94 5 158 42 40 23 87 42 117 46
44 6 87 17 212 56 39 12 115 4 205 -22 68 -20 264 -115 334 -163 21 -14 43
-26 49 -26 5 0 28 -16 50 -36 22 -19 81 -62 131 -95 50 -33 96 -70 103 -82 7
-12 32 -35 56 -50 63 -40 185 -156 185 -176 0 -15 -13 -17 -122 -17 l-123 -1
-122 -59 c-98 -47 -126 -65 -140 -91 -23 -43 -14 -48 31 -18 20 14 43 25 51
25 8 0 40 14 72 31 68 37 140 45 260 30 67 -8 98 -19 178 -61 85 -45 112 -66
219 -174 66 -67 130 -137 141 -154 11 -18 46 -71 79 -119 32 -48 65 -101 72
-119 8 -18 18 -35 23 -38 5 -3 24 -32 41 -64 18 -31 43 -69 54 -83 12 -14 34
-51 49 -81 26 -52 67 -102 67 -81 0 11 -17 68 -30 98 -5 11 -11 34 -15 50 -3
17 -10 48 -14 70 -5 22 -14 54 -19 70 -15 42 -32 197 -36 338 -3 65 -9 123
-14 130 -14 20 -6 124 12 142 22 22 29 71 22 151 -3 38 -6 91 -6 117 1 27 -4
63 -9 80 -5 18 -14 53 -19 80 -11 55 -2 60 40 20 35 -34 45 -25 59 53 6 32 18
84 26 115 9 31 13 74 11 95 -6 44 15 90 43 97 12 3 21 23 29 62 13 62 70 183
99 209 17 15 20 15 43 -4 14 -10 31 -33 38 -49 11 -27 7 -39 -50 -156 -71
-147 -81 -182 -55 -191 10 -4 26 -2 37 5 11 7 22 11 24 8 6 -6 -25 -66 -68
-129 -47 -69 -73 -141 -83 -228 -4 -36 -11 -73 -17 -83 -5 -9 -6 -22 -3 -27
10 -17 35 2 50 36 8 19 19 34 24 34 16 0 13 -36 -3 -49 -12 -10 -38 -96 -50
-169 -3 -18 -16 -46 -28 -63 -17 -23 -24 -49 -28 -102 -7 -94 -1 -237 10 -237
4 0 13 13 20 29 6 16 18 32 25 35 17 6 27 -20 16 -42 -4 -9 -11 -41 -15 -70
-4 -28 -16 -68 -28 -88 -19 -32 -20 -41 -10 -87 12 -55 18 -84 32 -159 5 -26
13 -55 19 -65 11 -18 12 -16 14 27 2 20 7 24 25 23 26 -3 29 12 6 25 -22 12
-1 52 27 52 19 0 20 -4 15 -33 -4 -17 -12 -61 -18 -97 -6 -36 -17 -73 -26 -82
-11 -14 -12 -23 -4 -45 6 -16 21 -71 33 -123 24 -100 50 -164 99 -243 16 -26
33 -60 37 -75 3 -15 13 -32 22 -38 8 -7 27 -36 41 -65 28 -59 56 -71 76 -32 6
13 18 31 27 41 10 10 17 26 17 36 0 9 9 34 20 56 11 22 20 50 20 62 0 34 24
95 46 120 50 57 76 161 73 297 -1 59 1 113 5 119 9 16 46 15 46 0 0 -7 3 -8 8
-2 5 5 17 53 27 106 18 102 17 132 -11 301 -9 49 -13 91 -10 94 9 10 34 -16
40 -42 8 -31 32 -32 40 -3 10 40 6 158 -6 181 -6 12 -15 45 -19 74 -4 29 -14
67 -23 84 -26 53 -20 63 19 33 20 -15 38 -24 41 -21 12 11 -16 150 -40 203
-14 31 -26 61 -26 66 0 5 -9 21 -20 35 -20 25 -27 63 -12 63 4 0 18 -7 30 -16
21 -14 22 -14 22 6 0 11 -7 37 -15 57 -24 58 -45 163 -44 218 2 69 -12 121
-49 180 -62 98 -84 147 -79 173 3 14 2 33 -2 41 -48 105 -99 174 -143 197 -20
10 -38 35 -58 77 -16 34 -37 71 -47 82 -29 33 -119 95 -137 95 -23 0 -56 18
-56 30 0 6 7 10 15 10 8 0 15 4 15 9 0 9 -50 55 -68 63 -21 8 -62 78 -62 104
0 49 12 58 56 44 22 -7 49 -21 60 -32 26 -23 39 -10 30 27 -3 13 -2 26 3 29
11 7 45 -69 37 -83 -4 -6 -3 -11 3 -11 6 0 8 -6 5 -14 -5 -14 94 -106 115
-106 6 0 11 -4 11 -9 0 -4 34 -43 75 -86 41 -43 75 -81 75 -84 0 -10 79 -114
99 -131 10 -8 33 -44 50 -80 18 -36 41 -82 52 -102 10 -20 19 -42 19 -49 0 -7
14 -34 31 -61 21 -32 37 -78 49 -136 29 -135 47 -212 71 -293 23 -79 32 -156
48 -389 15 -231 8 -422 -23 -585 -24 -123 -66 -377 -66 -397 0 -5 4 -8 10 -8
10 0 50 76 50 95 0 17 77 165 98 190 31 36 78 109 91 142 7 18 20 38 28 45 8
7 30 35 47 63 18 28 49 68 70 90 20 22 46 55 59 73 12 17 30 35 39 38 9 3 20
14 23 24 7 20 177 140 199 140 7 0 24 8 37 19 13 10 40 21 59 25 168 33 242
34 285 6 17 -11 38 -20 48 -20 23 0 93 -36 120 -61 12 -10 24 -19 27 -19 15 0
50 -38 61 -66 10 -23 13 -25 16 -11 3 10 -3 27 -12 37 -9 10 -26 36 -38 59
-43 79 -193 191 -257 191 -10 0 -22 5 -25 10 -3 6 -44 10 -91 10 -74 0 -84 2
-84 18 0 10 15 31 33 47 37 34 40 36 143 93 43 24 94 56 115 72 20 17 41 30
47 30 5 0 24 10 43 23 32 21 165 68 235 82 17 3 99 10 183 14 207 12 382 -12
475 -66 23 -12 47 -23 55 -23 8 0 50 -14 93 -31 43 -18 82 -29 85 -25 14 13
-35 61 -93 91 -33 16 -72 40 -88 53 -16 12 -35 22 -43 22 -7 0 -31 9 -51 19
-52 27 -127 41 -262 51 -63 5 -134 11 -156 13 -23 2 -62 1 -87 -3 -57 -8 -77
1 -51 24 100 89 387 253 425 243 24 -6 45 12 53 45 5 21 19 33 64 54 31 14 73
34 93 45 20 10 48 19 62 19 13 0 41 7 61 15 21 9 69 18 108 20 38 3 74 8 80
11 5 3 60 8 121 10 104 4 191 -4 276 -26 19 -5 37 -7 40 -4 29 29 -219 84
-418 93 -90 4 -146 10 -148 17 -2 6 17 28 42 50 25 21 62 54 81 72 41 37 69
40 122 13 20 -10 54 -21 74 -25 21 -4 50 -17 65 -30 15 -12 49 -30 75 -40 26
-10 58 -30 70 -45 20 -24 66 -58 164 -121 13 -8 24 -20 24 -26 0 -6 8 -18 18
-27 10 -10 29 -39 42 -67 28 -60 20 -89 -32 -116 -50 -26 -230 -178 -253 -214
-11 -17 -33 -38 -48 -46 -17 -9 -30 -26 -34 -44 -3 -16 -14 -32 -24 -35 -15
-5 -19 -16 -19 -50 0 -25 -6 -62 -14 -82 -8 -21 -19 -85 -25 -142 -6 -58 -13
-107 -16 -109 -6 -7 -94 18 -135 38 -45 22 -128 40 -188 40 -54 0 -167 -30
-224 -60 -21 -11 -46 -20 -56 -20 -9 0 -37 -11 -61 -25 -23 -14 -49 -25 -57
-25 -12 0 -65 -23 -121 -53 -44 -24 -172 -143 -179 -166 -4 -14 -13 -36 -20
-50 -8 -14 -14 -32 -14 -38 0 -7 -11 -45 -24 -85 -13 -40 -27 -92 -31 -115
-10 -65 -24 -78 -68 -64 -20 7 -48 26 -61 42 -14 16 -49 41 -78 55 -29 14 -67
36 -85 48 -29 21 -91 38 -185 50 -33 4 -38 2 -38 -15 0 -26 -36 -25 -52 1 -11
17 -24 20 -76 20 -54 0 -73 -5 -137 -40 -41 -22 -81 -40 -90 -40 -9 0 -51 -14
-93 -32 -84 -34 -172 -92 -242 -160 -25 -23 -66 -61 -91 -83 -25 -22 -53 -51
-62 -64 -8 -13 -41 -50 -71 -82 -31 -32 -56 -62 -56 -67 0 -5 -18 -37 -40 -71
-22 -34 -40 -64 -40 -66 0 -3 -14 -33 -30 -67 -16 -34 -30 -68 -30 -76 0 -12
-98 -214 -134 -277 -6 -11 -24 -44 -40 -72 -16 -29 -37 -55 -47 -58 -12 -4
-19 -16 -19 -30 0 -28 -20 -75 -31 -75 -4 0 -10 -8 -13 -18 -4 -10 -21 -24
-40 -30 -48 -18 -79 -1 -112 62 -15 28 -35 62 -46 75 -10 13 -16 32 -13 42 4
11 -5 30 -22 51 -16 18 -37 50 -48 71 -11 21 -38 59 -61 85 -22 26 -49 63 -59
82 -70 136 -99 189 -117 220 -50 80 -219 299 -255 329 -21 18 -63 57 -93 87
-98 96 -377 230 -550 263 -191 37 -414 -4 -526 -96 -53 -43 -77 -39 -73 11 3
25 -3 42 -18 58 -11 13 -23 40 -27 60 -6 31 -3 39 14 48 24 13 26 42 5 60 -9
7 -15 30 -15 54 -1 58 -62 159 -127 209 -15 12 -31 27 -35 33 -13 20 -141 110
-173 122 -16 6 -63 25 -104 42 -63 26 -91 31 -188 36 -63 3 -128 1 -146 -5
-17 -5 -57 -15 -87 -21 -69 -14 -198 -77 -212 -104 -11 -21 -27 -36 -39 -36
-16 0 -18 37 -4 96 8 36 15 108 15 160 0 95 0 95 -56 209 -30 62 -70 133 -88
157 -17 24 -44 69 -59 100 -17 36 -36 62 -54 72 -15 8 -38 25 -51 38 -12 13
-50 37 -85 52 -34 15 -89 41 -122 56 -77 37 -178 54 -265 46 -53 -5 -70 -3
-80 9 -10 12 -7 20 17 42 83 79 101 151 72 283 -18 84 -27 110 -69 220 -12 30
-26 69 -32 85 -6 17 -19 41 -28 55 -9 14 -42 70 -73 125 -59 107 -140 198
-198 222 -18 8 -41 20 -49 28 -36 32 -197 114 -247 125 -17 4 -51 4 -75 0 -25
-5 -50 -4 -61 2 -26 14 -13 63 28 105 85 88 113 356 44 419 -11 9 -19 24 -19
32 0 22 -20 82 -37 112 -7 14 -25 48 -39 75 -52 103 -75 141 -109 178 -36 39
-44 62 -22 70 17 6 44 -10 63 -38z m6183 31 c6 -4 11 -18 11 -30 0 -13 6 -29
14 -35 11 -9 14 -36 11 -114 -1 -56 -3 -105 -4 -109 -1 -9 -77 -58 -90 -58
-18 0 -22 63 -5 81 13 15 16 30 10 76 -9 87 -13 109 -26 147 -6 20 -9 40 -5
45 6 11 65 8 84 -3z m1837 -1 c4 -8 1 -22 -6 -30 -26 -32 -78 -8 -59 27 12 22
57 24 65 3z m-5018 -21 c3 -24 -16 -35 -47 -27 -14 4 -21 13 -21 30 0 21 4 24
33 21 24 -2 33 -8 35 -24z m-1748 -4 c9 -18 8 -20 -15 -20 -23 0 -24 2 -13 20
7 11 14 20 15 20 1 0 7 -9 13 -20z m2498 -19 c-5 -22 -55 -39 -71 -22 -10 10
-8 16 10 31 27 21 66 16 61 -9z m6072 -42 c-23 -27 -46 -52 -51 -55 -5 -3 -27
-40 -48 -83 -25 -49 -48 -81 -63 -88 -28 -13 -108 -141 -108 -173 0 -12 -11
-35 -24 -51 -42 -49 -85 -229 -86 -359 0 -41 -4 -93 -8 -115 l-7 -39 -80 -11
c-86 -13 -131 -31 -183 -76 -18 -16 -37 -29 -42 -29 -6 0 -10 -6 -10 -13 0 -8
-9 -18 -19 -23 -22 -10 -101 -101 -139 -159 -49 -75 -83 -150 -80 -180 1 -16
-5 -41 -14 -55 -10 -14 -21 -45 -27 -70 -5 -25 -17 -62 -26 -82 -12 -30 -15
-82 -15 -268 0 -176 -3 -231 -12 -234 -65 -18 -107 -32 -128 -43 -14 -7 -33
-13 -43 -13 -10 0 -39 -11 -65 -25 -84 -45 -100 -31 -97 80 2 75 10 104 29
106 6 1 30 2 54 3 62 3 71 17 44 71 -12 25 -22 51 -22 58 0 7 -11 29 -25 49
-40 60 -34 79 40 133 36 25 65 50 65 54 0 17 -52 135 -72 161 -26 35 -19 55
38 122 47 55 53 78 29 98 -8 7 -15 19 -15 27 0 8 -22 38 -50 67 -27 29 -50 58
-50 63 0 6 32 41 70 79 39 37 70 73 70 80 0 40 24 64 89 85 103 33 266 61 384
66 59 3 107 9 107 14 0 31 -158 43 -353 25 -92 -8 -97 -7 -90 10 8 22 292 304
306 304 5 0 48 38 96 84 47 46 104 95 126 109 22 13 62 45 90 71 27 25 55 46
61 46 7 0 36 23 65 50 29 28 56 50 60 50 3 0 25 14 47 30 23 17 45 30 49 30 4
0 16 9 28 20 39 36 108 68 128 58 16 -8 14 -14 -23 -59z m-8820 45 c0 -9 -5
-14 -12 -12 -18 6 -21 28 -4 28 9 0 16 -7 16 -16z m613 -5 c17 -28 1 -49 -37
-49 -26 0 -38 6 -46 21 -7 11 -10 22 -8 23 34 28 75 30 91 5z m4207 -9 c40
-40 18 -79 -35 -66 -36 9 -40 30 -13 59 29 31 24 31 48 7z m-4919 -10 c15 0
19 -7 19 -34 0 -58 -43 -72 -73 -24 -15 22 0 71 19 64 9 -3 24 -6 35 -6z
m3277 -17 c3 -17 -3 -24 -23 -29 -35 -9 -50 7 -35 36 15 28 54 24 58 -7z m381
8 c7 -5 17 -28 21 -52 8 -40 6 -47 -21 -74 -16 -17 -29 -36 -29 -43 0 -7 -4
-12 -10 -12 -5 0 -10 14 -10 31 0 17 -6 37 -14 45 -8 7 -16 19 -19 26 -3 10
-9 11 -26 1 -28 -17 -28 -17 -23 18 3 20 9 29 18 25 8 -3 14 -1 14 4 0 31 66
52 99 31z m-1671 -13 c7 -7 12 -29 12 -49 0 -29 -5 -39 -21 -44 -35 -11 -50
23 -36 78 8 29 25 35 45 15z m1082 -27 c0 -10 -30 -24 -37 -17 -3 3 -2 9 2 15
8 13 35 15 35 2z m1463 -10 c33 -17 34 -26 2 -47 -30 -19 -75 -12 -75 13 0 17
30 56 39 50 3 -1 18 -9 34 -16z m1542 9 c3 -5 2 -10 -4 -10 -5 0 -13 5 -16 10
-3 6 -2 10 4 10 5 0 13 -4 16 -10z m1615 -19 c16 -31 12 -50 -14 -57 -51 -12
-90 41 -48 65 27 16 50 13 62 -8z m-1912 -3 c17 -17 15 -47 -3 -54 -8 -4 -26
-3 -40 0 -48 12 -46 66 3 66 15 0 33 -5 40 -12z m-2748 -21 c0 -7 -6 -22 -14
-33 -8 -11 -17 -44 -21 -75 -13 -108 -84 -95 -85 16 0 28 -3 61 -7 74 -5 21
-4 23 18 18 14 -4 38 -2 54 2 43 13 55 13 55 -2z m1235 3 c3 -5 1 -19 -5 -30
-8 -15 -21 -20 -50 -20 -21 0 -42 -4 -45 -10 -10 -16 -25 -11 -25 8 0 29 19
43 41 29 15 -10 23 -8 41 11 25 24 34 27 43 12z m905 -41 c0 -33 -11 -42 -44
-33 -37 9 -42 35 -11 62 32 27 55 16 55 -29z m-2806 25 c9 -8 16 -18 16 -20 0
-11 -33 -54 -41 -54 -17 0 -30 50 -19 71 13 23 24 24 44 3z m3066 -4 c0 -5 -4
-10 -10 -10 -5 0 -10 5 -10 10 0 6 5 10 10 10 6 0 10 -4 10 -10z m-501 -27
c17 -10 31 -24 31 -32 0 -7 12 -27 26 -44 24 -28 26 -37 21 -92 -10 -120 -69
-196 -74 -95 -3 53 -30 171 -50 218 -15 34 -12 62 6 62 5 0 23 -8 40 -17z
m-4665 -26 c12 -34 1 -47 -48 -52 -28 -2 -40 2 -51 18 -15 20 -14 24 11 45 36
31 75 26 88 -11z m1937 17 c11 -14 10 -20 -14 -40 -52 -44 -98 -44 -119 1 -14
30 -9 36 39 45 61 12 80 11 94 -6z m5710 6 c21 -12 27 -60 7 -60 -7 0 -23 -3
-35 -6 -30 -8 -40 19 -19 51 19 28 20 29 47 15z m-1736 -20 c7 -12 -12 -40
-26 -40 -10 0 -12 34 -2 43 9 10 21 9 28 -3z m-2721 -29 c21 -39 2 -58 -33
-32 -20 15 -22 21 -12 39 16 30 28 28 45 -7z m1316 -28 c0 -21 -46 -34 -75
-21 -31 14 -31 25 -4 54 l21 23 29 -21 c16 -12 29 -28 29 -35z m-4650 37 c0
-5 -9 -10 -21 -10 -11 0 -17 5 -14 10 3 6 13 10 21 10 8 0 14 -4 14 -10z
m2717 -32 c-3 -8 -6 -5 -6 6 -1 11 2 17 5 13 3 -3 4 -12 1 -19z m354 -4 c11
-13 8 -19 -17 -39 -39 -32 -54 -31 -54 3 0 48 43 70 71 36z m82 -16 c24 -37
-25 -67 -53 -33 -10 13 -9 19 5 35 20 22 33 22 48 -2z m-710 -33 c59 -55 61
-75 9 -75 -21 0 -43 -5 -50 -12 -6 -6 -32 -13 -57 -14 -38 -3 -45 0 -45 16 0
10 -9 38 -19 63 -24 57 -15 67 59 67 51 0 58 -3 103 -45z m237 9 c30 -20 47
-33 38 -30 -10 3 -18 -1 -20 -12 -2 -11 -14 -17 -37 -18 -20 -1 -40 -9 -48
-20 -12 -16 -13 -15 -13 12 0 16 -3 46 -6 67 -6 32 -4 37 13 37 10 0 43 -16
73 -36z m960 12 c21 -26 8 -61 -24 -64 -50 -6 -75 5 -69 30 3 13 10 29 16 36
13 17 62 15 77 -2z m-1793 -12 c8 -21 -13 -42 -28 -27 -13 13 -5 43 11 43 6 0
13 -7 17 -16z m297 -10 c21 -8 88 -103 83 -117 -4 -10 -61 -32 -135 -53 -17
-5 -42 26 -58 73 -17 48 -13 58 33 82 43 21 55 24 77 15z m-208 -40 c1 -17 5
-37 9 -44 5 -8 3 -11 -5 -8 -7 2 -18 22 -26 43 -17 50 -17 47 4 43 11 -2 17
-13 18 -34z m2059 26 c-3 -5 -15 -10 -26 -10 -10 0 -19 5 -19 10 0 6 12 10 26
10 14 0 23 -4 19 -10z m1510 -10 c3 -5 30 -10 60 -10 29 0 60 -3 69 -6 22 -9
20 -46 -5 -78 -18 -23 -28 -26 -79 -26 -86 0 -92 4 -85 59 4 25 8 52 10 59 5
15 21 16 30 2z m-2180 -32 c13 -12 -33 -47 -62 -48 -29 0 -76 -33 -140 -98
-55 -55 -78 -64 -87 -34 -8 24 0 103 10 111 53 38 125 80 145 83 35 6 122 -3
134 -14z m1115 -23 c18 -22 8 -50 -19 -50 -32 0 -49 28 -32 49 17 20 35 20 51
1z m881 5 c16 0 10 -42 -8 -56 -20 -15 -91 -18 -111 -6 -35 23 48 80 96 66 8
-2 18 -4 23 -4z m600 -16 c34 -17 44 -43 25 -62 -16 -17 -118 -18 -159 -3 -33
13 -45 60 -20 79 21 16 113 8 154 -14z m-1761 1 c0 -8 -7 -15 -15 -15 -8 0
-15 -4 -15 -10 0 -5 7 -10 16 -10 14 0 14 -3 4 -16 -12 -13 -15 -13 -33 4 -26
26 -15 62 19 62 15 0 24 -6 24 -15z m-2248 -16 c37 -17 88 -92 76 -112 -5 -9
-13 -17 -19 -17 -5 0 -27 -11 -49 -25 l-39 -24 -21 37 c-35 61 -40 71 -40 84
1 16 31 53 50 61 8 3 16 6 17 6 1 1 12 -4 25 -10z m5478 2 c0 -27 -14 -70 -21
-65 -10 6 -12 58 -2 67 9 10 23 9 23 -2z m-4004 -9 c14 -9 25 -80 14 -87 -5
-3 -25 2 -44 12 -42 20 -49 54 -13 71 27 13 29 13 43 4z m-579 -24 c62 2 116
-29 121 -69 4 -31 -8 -41 -72 -63 -53 -17 -66 -15 -46 9 10 12 9 16 -6 21 -42
13 -47 18 -86 97 -8 16 -6 18 14 11 13 -4 46 -7 75 -6z m-192 -45 c25 -34 34
-57 33 -77 -3 -27 -8 -31 -53 -43 -86 -22 -109 -18 -147 27 -19 21 -40 51 -48
65 -19 35 -1 52 70 64 102 17 106 16 145 -36z m615 27 c0 -5 -4 -10 -10 -10
-5 0 -10 5 -10 10 0 6 5 10 10 10 6 0 10 -4 10 -10z m1488 -7 c-4 -22 -34 -29
-53 -13 -21 17 -9 30 26 30 24 0 30 -4 27 -17z m382 3 c0 -2 -7 -6 -15 -10 -8
-3 -15 -1 -15 4 0 6 7 10 15 10 8 0 15 -2 15 -4z m1010 -27 c0 -11 -27 -12
-34 0 -3 4 -3 11 0 14 8 8 34 -3 34 -14z m-3789 -26 c36 -39 59 -79 59 -100
-1 -28 -35 -66 -61 -69 -13 -1 -42 -5 -65 -9 -37 -6 -45 -4 -78 25 -20 18 -45
51 -56 74 -17 38 -17 41 -2 46 9 3 42 18 72 33 70 34 100 34 131 0z m-225 -20
c-10 -10 -19 5 -10 18 6 11 8 11 12 0 2 -7 1 -15 -2 -18z m2484 -42 c8 -9 34
-29 56 -45 41 -26 42 -29 39 -77 -1 -28 -8 -56 -14 -62 -19 -19 -55 8 -84 66
-16 30 -36 58 -45 61 -60 20 -128 81 -100 90 47 16 120 0 148 -33z m958 33
c31 -5 32 -6 17 -27 -8 -12 -15 -29 -15 -38 0 -9 -9 -28 -21 -43 -19 -24 -26
-26 -94 -26 -78 0 -125 14 -125 37 0 7 5 13 10 13 6 0 10 8 10 17 0 9 14 32
32 50 30 31 34 32 92 27 34 -3 76 -7 94 -10z m295 0 c27 -4 51 -13 54 -20 9
-24 -37 -118 -64 -131 -24 -11 -108 -10 -170 3 -51 10 -31 107 29 144 24 15
43 19 68 15 19 -3 57 -8 83 -11z m-1843 -13 c5 -11 10 -22 10 -24 0 -6 -60
-31 -63 -26 -12 17 -25 58 -20 63 14 14 63 5 73 -13z m1267 -21 c-1 -22 -6
-40 -10 -40 -5 0 -21 -13 -37 -29 -18 -18 -44 -31 -72 -35 -85 -14 -83 -15
-80 24 3 43 37 94 71 108 14 5 50 10 78 11 l53 1 -3 -40z m-1627 11 c25 -47
-8 -73 -64 -52 -33 13 -32 40 4 58 35 18 48 16 60 -6z m2528 -39 c25 -18 32
-31 32 -56 0 -43 -12 -52 -82 -60 -84 -9 -168 2 -168 23 0 18 64 119 87 137
17 14 80 -7 131 -44z m-4363 -2 l7 -25 -21 27 c-12 15 -19 33 -15 39 8 13 17
0 29 -41z m254 16 c5 -13 25 -36 44 -52 32 -26 35 -32 28 -63 -5 -28 -13 -36
-38 -43 -18 -5 -35 -13 -38 -18 -3 -6 -19 -10 -34 -10 -31 0 -83 52 -106 106
l-14 34 49 21 c27 12 55 27 61 35 17 21 38 17 48 -10z m1170 -31 c12 -11 12
-17 1 -29 -16 -21 -49 -20 -71 0 -15 13 -16 20 -6 35 13 22 51 19 76 -6z
m1038 3 c28 -26 29 -34 3 -48 -27 -15 -60 4 -60 34 0 42 22 47 57 14z m641
-50 c4 -32 -29 -57 -68 -53 -30 3 -28 20 8 58 32 33 56 31 60 -5z m-2217 0
c76 4 107 -10 126 -55 8 -21 24 -46 34 -56 24 -23 24 -53 0 -67 -28 -14 -181
-24 -181 -11 0 5 -9 13 -20 16 -12 4 -20 15 -20 29 0 33 -21 47 -59 40 -25 -5
-31 -11 -25 -23 29 -71 30 -72 10 -86 -10 -8 -23 -12 -28 -9 -5 3 -33 -2 -63
-11 -50 -16 -56 -16 -79 -1 -14 8 -39 36 -56 61 -17 25 -35 45 -40 45 -19 0
-10 37 14 59 17 16 31 21 46 16 23 -7 149 13 165 27 5 4 17 8 26 8 9 0 20 7
23 16 5 12 13 14 38 7 18 -4 58 -6 89 -5z m758 -1 c6 -8 8 -17 5 -20 -4 -3 -3
-22 0 -40 4 -24 13 -37 27 -40 27 -7 19 -32 -10 -32 -12 0 -26 -7 -31 -15 -5
-9 -28 -14 -60 -15 -38 -1 -55 -6 -62 -18 -6 -12 -16 -15 -34 -11 -13 3 -38 1
-55 -6 -37 -16 -45 -8 -54 53 -6 43 -5 48 12 45 10 -1 34 5 53 14 23 11 57 16
98 15 48 -2 59 1 47 9 -22 16 -18 49 8 62 30 15 43 14 56 -1z m-414 -44 c37
-49 41 -63 25 -94 -18 -33 -56 -23 -110 27 -79 74 -77 107 4 111 44 2 48 0 81
-44z m1015 1 c0 -8 -4 -14 -10 -14 -5 0 -10 9 -10 21 0 11 5 17 10 14 6 -3 10
-13 10 -21z m-2192 -35 c57 -56 55 -74 -10 -94 -83 -24 -91 -22 -116 38 -11
27 -10 31 22 63 19 19 40 34 48 34 7 0 32 -19 56 -41z m3606 5 c24 -9 20 -29
-13 -66 -16 -18 -36 -49 -44 -70 -23 -55 -103 -81 -235 -78 -81 2 -128 40 -64
53 21 4 34 19 56 64 35 69 56 86 116 94 64 8 166 10 184 3z m279 -16 c32 -6
61 -17 64 -24 3 -8 -7 -28 -21 -45 -14 -17 -26 -36 -26 -42 0 -17 -40 -51 -75
-65 -55 -21 -194 -12 -216 14 -17 21 9 72 68 135 l47 50 50 -6 c28 -3 77 -11
109 -17z m-1253 -9 c18 -32 5 -49 -32 -46 -57 4 -45 61 14 66 4 1 12 -8 18
-20z m-322 -10 c35 -13 24 -42 -21 -52 -26 -6 -42 -5 -52 3 -18 15 -19 42 -3
58 12 12 25 10 76 -9z m1882 -1 c62 -22 80 -34 80 -54 0 -14 -93 -124 -117
-138 -30 -17 -115 -14 -161 5 -37 16 -43 23 -39 42 10 45 56 142 73 154 25 18
101 14 164 -9z m-2136 -13 c21 -32 21 -65 -1 -66 -81 -7 -88 -5 -91 27 -6 60
60 88 92 39z m-1651 -53 c26 -37 47 -75 47 -84 0 -12 -15 -22 -52 -32 -113
-31 -113 -31 -163 15 -54 50 -68 73 -60 98 8 27 94 71 140 71 38 0 42 -4 88
-68z m2847 33 c0 -16 -10 -31 -27 -42 -45 -28 -94 -76 -104 -100 -7 -20 -16
-23 -59 -23 -66 0 -65 0 -62 40 5 59 60 105 151 128 101 26 101 26 101 -3z
m-1416 -6 c14 -13 -33 -59 -60 -59 -54 0 -69 26 -37 62 13 14 25 17 52 12 20
-4 40 -10 45 -15z m1116 -34 c0 -18 -24 -59 -54 -93 -20 -22 -20 -24 -3 -36 9
-7 17 -19 17 -26 0 -9 -5 -8 -18 3 -10 10 -27 17 -38 17 -10 0 -26 5 -34 10
-12 8 -13 13 -3 29 7 11 10 27 7 35 -7 17 33 56 57 56 10 0 21 5 24 10 10 16
45 12 45 -5z m1496 -16 c51 -40 63 -91 28 -126 -27 -27 -37 -28 -94 -8 -24 8
-48 14 -54 13 -20 -4 -56 13 -56 26 0 7 18 38 41 69 48 68 75 74 135 26z
m-1883 -20 c10 -11 28 -19 41 -19 29 0 46 -35 46 -95 0 -32 -4 -45 -14 -45 -8
0 -16 7 -20 15 -3 8 -12 15 -20 15 -9 0 -20 9 -26 20 -6 11 -16 20 -22 20 -6
0 -19 6 -27 13 -9 8 -37 21 -63 31 -48 18 -65 38 -45 54 32 26 121 20 150 -9z
m-2438 -16 c46 -56 65 -87 65 -103 0 -19 -76 -60 -111 -60 -32 0 -79 35 -79
58 0 9 -7 30 -15 46 -8 15 -15 32 -15 38 0 9 96 58 115 58 6 0 24 -17 40 -37z
m1125 7 c0 -5 -4 -10 -9 -10 -6 0 -13 5 -16 10 -3 6 1 10 9 10 9 0 16 -4 16
-10z m-374 -107 c71 -69 104 -109 104 -127 0 -16 -50 -26 -151 -31 l-114 -6
-37 36 c-21 19 -38 41 -38 48 0 6 -9 26 -20 42 -11 17 -20 37 -20 46 0 25 35
50 79 56 22 3 46 11 51 18 20 24 62 -1 146 -82z m164 77 l65 0 58 -59 c56 -59
68 -88 48 -120 -6 -9 -32 -16 -68 -19 -52 -3 -62 -1 -99 27 -49 37 -106 136
-97 170 4 16 9 19 16 12 6 -6 40 -11 77 -11z m515 -34 c-8 -40 -23 -46 -49
-17 -23 26 -17 54 14 62 34 8 43 -2 35 -45z m-1655 -26 c17 -16 40 -30 50 -30
29 0 24 -25 -11 -54 -33 -28 -86 -35 -107 -14 -18 18 -14 67 9 99 11 16 22 29
24 29 3 0 18 -13 35 -30z m640 -32 c8 -29 26 -56 56 -84 60 -55 58 -77 -7 -98
-62 -21 -140 -30 -155 -19 -21 16 -114 145 -114 158 0 18 31 35 62 35 13 0 43
11 68 24 66 35 77 33 90 -16z m3248 15 c4 -24 -47 -108 -96 -160 -39 -42 -107
-75 -151 -74 -139 2 -156 5 -159 28 -4 25 16 66 53 108 15 17 33 42 41 56 7
15 21 30 31 34 38 16 151 33 213 32 59 -2 65 -4 68 -24z m772 -3 c19 0 44 -46
34 -61 -6 -10 -73 58 -74 76 0 5 5 4 12 -3 7 -7 19 -12 28 -12z m-502 3 l54
-6 -7 -36 c-6 -31 -97 -159 -129 -183 -13 -8 -199 -4 -214 6 -7 4 -12 13 -12
20 0 25 48 101 96 154 47 51 49 52 104 52 30 0 79 -3 108 -7z m-1973 -19 c32
-21 32 -41 -1 -56 -20 -9 -30 -9 -46 1 -15 9 -23 9 -34 0 -27 -23 -15 19 13
46 33 30 36 30 68 9z m211 -4 c11 0 14 -8 12 -27 -4 -32 -20 -39 -42 -18 -21
22 -22 59 0 51 9 -3 22 -6 30 -6z m1104 -9 c0 -37 -23 -71 -72 -106 -26 -19
-48 -41 -48 -48 0 -6 -14 -25 -30 -41 -26 -24 -36 -28 -68 -23 -20 4 -66 0
-100 -7 -93 -19 -96 1 -16 113 61 85 89 111 121 111 15 0 33 4 40 8 6 4 48 8
92 10 75 3 81 2 81 -17z m972 -41 c10 -12 18 -29 18 -38 0 -25 -53 -121 -82
-149 l-28 -26 -77 16 c-43 9 -87 18 -98 20 -37 5 -27 40 37 126 l62 83 75 -4
c62 -4 78 -9 93 -28z m-1447 0 c18 0 38 -7 45 -15 11 -13 8 -24 -20 -63 -61
-87 -75 -105 -102 -135 -23 -26 -29 -28 -42 -17 -35 29 -9 120 56 193 14 16
25 35 24 41 -2 6 -1 8 1 4 3 -5 19 -8 38 -8z m-1117 -2 c18 -18 15 -37 -10
-63 l-21 -22 -24 27 c-13 15 -23 32 -23 37 0 16 23 33 45 33 12 0 26 -5 33
-12z m-1541 -25 c10 -15 27 -37 38 -49 55 -59 68 -97 43 -122 -16 -16 -149
-16 -170 1 -9 6 -37 43 -63 81 -32 48 -43 72 -36 79 6 6 11 8 11 4 0 -3 19 3
43 13 63 29 112 26 134 -7z m1853 -8 c0 -8 -4 -15 -10 -15 -5 0 -10 7 -10 15
0 8 5 15 10 15 6 0 10 -7 10 -15z m-2096 -40 c-3 -7 12 -32 35 -55 50 -52 53
-83 11 -105 -44 -23 -75 -18 -114 15 -35 31 -63 91 -51 110 3 5 24 15 46 21
21 7 44 18 50 26 14 16 30 8 23 -12z m2516 6 c14 -28 14 -29 -21 -36 -37 -8
-54 5 -44 34 8 27 50 28 65 2z m2002 -11 l31 -30 -12 -55 c-19 -86 -68 -113
-146 -81 -44 19 -46 48 -9 126 29 62 32 65 74 68 22 2 38 -6 62 -28z m-3040 7
c43 1 58 -2 62 -13 9 -24 -4 -36 -33 -31 -26 5 -117 -18 -135 -34 -16 -15 -46
-10 -46 6 0 22 27 72 42 78 7 3 22 2 33 -1 11 -4 45 -6 77 -5z m-488 -84 c53
-16 60 -22 82 -65 13 -26 28 -49 34 -53 15 -9 3 -24 -35 -39 -26 -11 -49 -12
-95 -6 -57 8 -63 12 -125 76 -60 63 -64 69 -49 85 10 11 35 19 63 22 52 4 46
5 125 -20z m896 19 c0 -13 -12 -22 -22 -16 -10 6 -1 24 13 24 5 0 9 -4 9 -8z
m2900 -6 c0 -8 -5 -18 -11 -22 -14 -8 -33 11 -25 25 10 16 36 13 36 -3z
m-5652 -15 c41 -12 52 -24 32 -36 -5 -3 -10 -17 -10 -30 0 -18 4 -23 15 -19
10 4 15 0 15 -14 0 -16 -8 -21 -38 -24 l-39 -3 14 33 c9 22 11 38 4 45 -12 16
-164 14 -216 -2 -22 -7 -73 -17 -112 -23 -51 -7 -73 -15 -73 -24 0 -9 -11 -14
-30 -14 -35 0 -42 29 -9 37 17 5 20 11 15 36 -3 16 -2 35 3 41 13 15 372 13
429 -3z m660 13 c14 -4 29 -21 37 -41 20 -47 3 -83 -43 -97 -28 -8 -36 -6 -53
11 -11 11 -23 38 -26 59 -4 35 -2 41 24 56 32 20 31 20 61 12z m1450 -41 c3
-27 -1 -33 -20 -38 -34 -9 -78 11 -78 33 0 22 35 42 70 39 20 -2 26 -8 28 -34z
m982 25 c0 -4 -6 -8 -12 -8 -7 0 -23 -3 -35 -6 -17 -5 -23 -2 -23 9 0 11 10
15 35 14 19 -1 35 -5 35 -9z m-3005 -8 c3 -5 -3 -10 -14 -10 -12 0 -21 5 -21
10 0 6 6 10 14 10 8 0 18 -4 21 -10z m80 -10 c27 -30 6 -48 -29 -25 -27 18
-31 27 -19 38 12 12 30 7 48 -13z m1436 -33 c7 -18 33 -53 57 -79 l44 -47 -31
-19 c-18 -11 -60 -22 -98 -25 -74 -7 -101 4 -160 65 -44 46 -59 87 -38 107 18
18 123 38 177 33 30 -3 39 -9 49 -35z m1251 26 c27 -25 23 -53 -8 -53 -36 0
-64 17 -64 40 0 31 43 40 72 13z m567 0 c30 -18 47 -41 36 -51 -3 -3 -11 0
-17 6 -7 7 -24 12 -39 12 -28 0 -40 15 -31 38 6 16 15 15 51 -5z m-3079 -13
c0 -23 -28 -27 -62 -9 -17 9 -18 13 -7 20 8 5 26 9 42 9 20 0 27 -5 27 -20z
m2800 1 c0 -5 2 -16 6 -24 7 -18 -52 -45 -67 -30 -18 18 7 63 36 63 14 0 25
-4 25 -9z m1270 -22 l25 -19 -40 -36 c-22 -20 -60 -47 -85 -62 -25 -14 -54
-37 -66 -50 -22 -27 -60 -36 -205 -48 -112 -10 -113 5 -7 128 38 44 59 60 91
68 23 6 55 16 70 23 15 6 65 13 110 14 68 1 87 -2 107 -18z m313 12 c37 -2 28
-31 -28 -98 -75 -88 -109 -104 -239 -106 -82 -2 -101 1 -109 15 -9 13 -1 27
41 73 29 31 52 62 52 70 0 7 7 18 16 25 28 24 87 28 267 21z m-3414 -43 c36
-32 88 -88 112 -120 l19 -26 -31 -16 c-42 -21 -144 -39 -180 -31 -17 4 -40 22
-57 43 -15 20 -35 44 -45 52 -10 8 -19 28 -20 45 -2 26 4 33 48 56 61 33 115
32 154 -3z m3683 11 c9 -5 30 -9 47 -9 21 0 31 -6 36 -21 6 -17 -6 -34 -59
-87 l-66 -66 -118 -2 c-64 -1 -122 3 -129 8 -14 11 -5 30 51 108 62 86 70 90
151 83 39 -3 78 -10 87 -14z m1526 -12 c25 -24 28 -45 8 -72 -12 -17 -18 -18
-37 -8 -24 12 -272 25 -427 23 -135 -2 -216 19 -104 27 26 2 62 9 80 15 19 5
55 12 80 13 193 13 226 16 231 20 2 3 36 4 75 4 57 -1 75 -5 94 -22z m-3938
-1 c0 -21 -21 -31 -30 -15 -5 7 -6 17 -4 21 9 14 34 9 34 -6z m-2671 -5 c30
-19 5 -36 -48 -33 -28 2 -48 8 -45 13 3 5 14 9 24 9 10 0 22 5 25 10 8 12 25
13 44 1z m5581 -11 c0 -13 -7 -20 -20 -20 -19 0 -27 20 -13 33 13 14 33 6 33
-13z m-5390 0 c0 -5 -4 -10 -10 -10 -5 0 -10 5 -10 10 0 6 5 10 10 10 6 0 10
-4 10 -10z m3833 -14 c3 3 8 1 11 -5 7 -11 -149 -168 -176 -177 -9 -3 -36 0
-58 6 -39 10 -41 13 -35 38 16 65 38 86 126 118 56 20 91 28 105 23 12 -4 24
-5 27 -3z m-4195 -23 c3 -18 -2 -23 -20 -23 -13 0 -43 -9 -67 -20 -24 -11 -54
-20 -67 -20 -16 0 -28 -8 -34 -22 -5 -13 -9 -17 -9 -10 -1 7 -17 12 -45 12
-49 0 -71 18 -61 49 9 30 55 40 182 42 35 0 65 5 69 10 11 19 49 5 52 -18z
m1290 9 c10 -10 26 -21 35 -25 10 -4 20 -15 24 -24 3 -10 12 -25 19 -33 7 -8
17 -27 23 -42 14 -38 -13 -62 -87 -77 l-57 -12 -30 35 c-16 18 -43 59 -59 90
-24 46 -27 58 -16 71 7 8 22 15 34 15 11 0 28 5 36 10 24 15 58 12 78 -8z
m4196 -17 c17 -14 37 -30 44 -36 10 -8 7 -20 -14 -57 -41 -72 -57 -82 -130
-82 -50 0 -64 -3 -64 -15 0 -19 36 -38 60 -30 14 4 20 2 20 -9 0 -24 -11 -46
-24 -46 -7 0 -27 -22 -45 -50 -45 -70 -63 -80 -142 -80 -80 0 -99 6 -99 31 0
27 54 101 89 122 16 9 33 26 36 37 6 20 26 25 73 21 21 -2 23 1 17 27 -4 22 2
45 25 90 29 58 56 85 95 95 11 2 22 5 24 6 2 0 17 -10 35 -24z m-4701 0 c-4
-15 -36 -12 -41 3 -3 9 3 13 19 10 13 -1 23 -7 22 -13z m1785 -36 c-4 -28 -31
-32 -36 -6 -5 23 18 51 30 39 6 -6 8 -20 6 -33z m622 1 c0 -5 -2 -10 -4 -10
-3 0 -8 5 -11 10 -3 6 -1 10 4 10 6 0 11 -4 11 -10z m-2100 -75 c21 -30 27
-48 23 -71 -4 -28 -10 -33 -45 -38 -54 -9 -111 17 -143 66 -39 59 -36 69 40
99 37 15 42 15 69 0 15 -9 41 -34 56 -56z m2527 55 c23 -14 34 -29 39 -55 l6
-36 20 20 c10 12 21 21 24 21 12 0 42 -37 46 -55 3 -15 11 -19 32 -18 24 2 27
-1 24 -25 -2 -20 2 -28 17 -30 11 -2 28 -11 37 -19 19 -17 38 -10 38 16 0 16
37 60 43 50 1 -2 12 -19 25 -37 32 -46 26 -67 -20 -67 -20 0 -39 -3 -43 -7 -4
-4 -18 -3 -31 2 -28 11 -37 0 -28 -35 4 -18 2 -25 -9 -25 -25 0 -40 26 -28 49
16 28 14 34 -9 28 -11 -3 -23 0 -27 6 -4 6 -10 2 -14 -11 -14 -38 -69 -22 -69
20 0 10 -4 18 -10 18 -5 0 -10 -7 -10 -16 0 -26 -32 -12 -57 25 -27 40 -28 45
-7 66 20 19 12 42 -19 54 -37 14 -50 36 -37 60 13 26 26 26 67 1z m-3198 1
c17 -11 7 -41 -13 -41 -17 0 -39 34 -29 44 9 8 25 7 42 -3z m6331 5 c0 -18
-22 -56 -32 -56 -6 0 -31 -10 -55 -21 -39 -19 -49 -20 -86 -10 -23 7 -62 14
-87 16 -25 2 -90 11 -145 20 -55 8 -109 13 -120 11 -12 -3 -34 -2 -50 3 l-30
8 28 13 c22 11 32 11 51 0 17 -9 41 -10 78 -5 43 6 171 9 248 6 34 -2 143 8
148 14 6 6 52 7 52 1z m-6640 -25 c0 -12 -29 -35 -36 -28 -11 10 5 37 21 37 8
0 15 -4 15 -9z m5565 -28 c23 -32 22 -62 -4 -112 -11 -20 -22 -44 -25 -55 -6
-17 -8 -18 -24 -2 -10 9 -24 16 -30 16 -17 0 -42 30 -42 50 0 18 85 130 98
130 4 0 16 -13 27 -27z m-3372 -5 c35 -13 34 -27 -2 -62 -24 -23 -32 -26 -50
-17 -24 13 -71 73 -71 91 0 14 75 7 123 -12z m649 -4 c14 -31 -3 -46 -42 -37
-34 8 -35 9 -22 38 15 33 49 33 64 -1z m-902 -22 c15 -15 34 -32 41 -39 35
-30 39 -41 27 -68 -13 -29 -33 -28 -140 2 -47 13 -62 23 -87 58 -27 38 -29 44
-15 56 19 16 90 29 123 22 13 -2 36 -16 51 -31z m-1227 -4 c37 -47 49 -78 36
-94 -16 -19 -37 -18 -98 7 -44 19 -51 25 -51 50 0 34 41 70 73 63 12 -2 30
-14 40 -26z m2391 26 c24 -9 21 -64 -3 -64 -34 0 -51 12 -51 34 0 35 17 44 54
30z m-3356 -16 c-3 -7 -20 -20 -39 -31 -19 -10 -40 -26 -46 -34 -11 -15 -15
-14 -32 6 -28 33 -17 51 33 51 22 0 48 5 56 10 21 13 32 12 28 -2z m442 -14
c0 -8 -4 -12 -10 -9 -5 3 -10 10 -10 16 0 5 5 9 10 9 6 0 10 -7 10 -16z m4488
7 c35 -3 -24 -81 -84 -111 -16 -8 -48 -31 -71 -52 -38 -34 -48 -38 -100 -39
-32 0 -67 -2 -78 -4 -11 -2 -34 -6 -51 -10 -22 -4 -35 -1 -44 10 -11 13 -9 20
10 40 13 14 31 25 41 25 11 0 29 19 46 50 32 58 42 63 148 83 69 12 100 14
183 8z m-3053 -11 c3 -5 15 -10 25 -10 23 0 90 -80 90 -106 -1 -13 -17 -27
-51 -43 -72 -33 -108 -24 -176 45 -29 31 -53 59 -53 63 0 19 42 43 87 51 68
11 71 11 78 0z m3355 -3 c45 -9 66 -17 68 -28 4 -22 -70 -107 -125 -143 -46
-31 -126 -44 -149 -25 -7 5 -45 9 -86 7 -68 -3 -73 -2 -76 19 -2 15 11 34 45
65 26 24 59 54 73 68 14 14 36 30 50 37 33 15 119 15 200 0z m-2500 -21 c0
-20 -26 -40 -35 -26 -10 16 2 40 20 40 8 0 15 -6 15 -14z m-1036 -95 c32 -33
56 -65 54 -72 -7 -20 -124 -40 -172 -29 -42 9 -82 46 -112 103 -17 32 -15 33
62 47 100 16 104 15 168 -49z m2792 47 c10 -15 -80 -94 -123 -109 -18 -6 -33
-15 -33 -20 0 -29 -136 -51 -167 -26 -7 5 -13 24 -13 42 0 18 6 37 13 42 23
18 122 52 181 63 33 5 62 12 64 15 10 10 71 5 78 -7z m2149 2 c3 -5 -1 -10 -9
-10 -9 0 -16 5 -16 10 0 6 4 10 9 10 6 0 13 -4 16 -10z m-2915 -20 c14 -8 17
-18 13 -49 -5 -35 -3 -40 18 -43 12 -1 24 -8 26 -14 4 -13 -28 -24 -75 -24
-39 0 -122 -45 -122 -66 0 -8 10 -24 21 -35 25 -25 16 -35 -41 -45 -19 -4 -40
-11 -47 -16 -7 -5 -13 -5 -17 0 -3 5 -27 -1 -53 -14 -25 -13 -53 -24 -60 -24
-26 0 -93 45 -93 63 0 9 -5 17 -11 17 -13 0 -7 35 6 36 37 3 64 19 76 47 11
24 21 31 43 32 18 0 35 9 44 23 8 12 22 22 32 22 9 0 29 9 43 20 14 11 29 20
34 20 5 0 27 13 49 30 40 30 81 38 114 20z m3109 -10 c88 -16 104 -45 51 -95
-28 -27 -32 -28 -46 -13 -15 15 -14 17 5 23 31 10 26 31 -11 45 -85 32 -139
69 -82 56 16 -3 53 -10 83 -16z m-6539 0 c0 -5 -4 -10 -9 -10 -6 0 -13 5 -16
10 -3 6 1 10 9 10 9 0 16 -4 16 -10z m-52 -28 c2 -7 -3 -12 -12 -12 -9 0 -16
7 -16 16 0 17 22 14 28 -4z m1152 -10 c0 -5 16 -25 35 -45 55 -57 47 -79 -30
-79 -63 0 -110 18 -140 53 -31 38 -32 57 -2 69 28 11 137 13 137 2z m1870 -28
c11 -12 10 -18 -3 -31 -18 -18 -44 -12 -54 13 -11 30 35 45 57 18z m-2639 -17
c8 -12 4 -155 -6 -212 -12 -72 -29 -125 -41 -125 -31 0 -38 32 -39 175 0 127
2 145 19 164 19 21 53 21 67 -2z m466 13 c33 -12 57 -47 51 -76 -6 -30 -85
-21 -120 13 -27 26 -35 52 -21 66 10 10 56 8 90 -3z m1231 -22 c6 -50 -64 -60
-82 -12 -10 25 13 45 48 42 25 -2 32 -8 34 -30z m-1576 -29 c-2 -19 -8 -35
-13 -37 -5 -2 -9 -15 -9 -28 0 -32 -36 -33 -46 -2 -8 28 -9 92 -1 106 4 5 21
7 39 3 31 -7 33 -10 30 -42z m2708 41 c0 -5 -4 -10 -10 -10 -5 0 -10 5 -10 10
0 6 5 10 10 10 6 0 10 -4 10 -10z m2263 -22 c43 -27 44 -32 15 -65 -71 -79
-65 -76 -126 -68 -31 4 -61 10 -66 15 -16 15 4 60 46 106 47 51 67 53 131 12z
m837 22 c0 -5 -2 -10 -4 -10 -3 0 -8 5 -11 10 -3 6 -1 10 4 10 6 0 11 -4 11
-10z m-6057 -49 c3 -27 12 -59 19 -70 10 -16 10 -25 2 -39 -7 -10 -15 -41 -19
-70 -4 -29 -10 -52 -13 -52 -11 0 -82 52 -82 60 0 4 -12 11 -27 15 -16 3 -45
25 -65 47 -30 31 -37 45 -32 64 5 21 3 24 -17 22 -16 -2 -24 3 -27 16 -3 15 0
17 14 11 11 -4 28 -7 39 -5 78 9 77 9 90 -52 6 -32 14 -60 17 -63 13 -13 18
49 7 88 -10 38 -9 43 11 59 12 10 35 18 50 18 25 0 28 -4 33 -49z m1595 22
c34 -16 62 -48 62 -70 0 -19 -54 -43 -98 -43 -38 0 -56 10 -119 64 -25 21 -22
36 6 36 11 0 29 9 42 20 26 22 50 20 107 -7z m4527 -3 c3 -5 2 -10 -4 -10 -5
0 -13 5 -16 10 -3 6 -2 10 4 10 5 0 13 -4 16 -10z m-6651 -9 c11 -16 -22 -32
-61 -29 l-38 3 30 17 c33 19 61 23 69 9z m2471 -50 c0 -23 5 -45 12 -49 16
-10 35 -62 23 -62 -57 0 -99 85 -69 141 16 32 34 16 34 -30z m-2425 8 c0 -5
-7 -9 -15 -9 -15 0 -20 12 -9 23 8 8 24 -1 24 -14z m1830 -16 c42 -37 66 -71
57 -80 -12 -11 -115 -28 -144 -23 -31 5 -103 61 -103 80 0 22 62 47 142 59 5
1 26 -15 48 -36z m3125 23 c54 -14 63 -29 29 -49 -12 -7 -41 -26 -65 -42 -59
-41 -104 -55 -180 -56 -56 -1 -119 8 -119 16 0 18 33 68 61 93 31 27 46 32
125 40 49 5 91 10 94 10 3 1 28 -5 55 -12z m-5107 -20 c-5 -22 -3 -23 36 -19
l41 6 -34 -37 c-19 -20 -42 -36 -52 -36 -9 0 -22 -7 -29 -15 -14 -17 -36 -20
-45 -5 -4 6 2 30 13 53 11 23 22 50 25 60 4 9 16 17 28 17 17 0 20 -5 17 -24z
m4773 8 c12 -15 8 -22 -31 -56 -65 -58 -143 -91 -213 -92 -47 -1 -61 3 -72 18
-15 19 -11 31 19 69 13 17 66 33 226 67 53 12 57 11 71 -6z m-1976 -19 c34
-34 31 -41 -17 -48 -61 -8 -88 21 -52 57 22 22 41 20 69 -9z m3908 -24 c46
-20 69 -41 44 -41 -16 0 -127 49 -127 56 0 10 42 2 83 -15z m-1328 -13 c30
-13 55 -28 55 -34 0 -13 -47 -57 -77 -73 -15 -8 -37 -8 -75 -1 -29 6 -64 8
-78 5 -14 -3 -34 1 -45 9 -18 13 -16 16 36 64 64 60 96 65 184 30z m-3665 -22
c35 -32 37 -36 24 -55 -31 -44 -179 -4 -179 49 0 26 24 37 84 39 25 1 43 -8
71 -33z m-588 -17 c49 -26 52 -75 8 -112 -16 -14 -30 -33 -30 -42 0 -14 -3
-14 -29 -1 -35 18 -41 33 -41 97 0 27 -4 49 -10 49 -6 0 -10 -45 -11 -112 0
-62 -2 -139 -3 -171 -3 -64 17 -76 22 -13 3 34 9 41 80 86 110 72 165 65 142
-18 -6 -23 -8 -57 -6 -77 6 -49 -13 -151 -30 -166 -12 -10 -20 -8 -42 8 -25
19 -27 24 -24 90 4 73 -12 108 -24 56 -17 -72 -64 -81 -147 -26 -53 35 -57 40
-68 92 -6 31 -9 89 -6 128 3 40 1 75 -4 78 -14 9 -11 31 9 54 34 43 133 43
214 0z m2780 9 c2 -19 9 -23 33 -21 16 1 37 -5 47 -14 10 -9 28 -21 40 -27 12
-6 29 -25 38 -41 8 -17 16 -32 17 -34 2 -2 11 3 21 12 10 10 27 17 38 17 21 0
90 -23 99 -32 4 -3 21 -2 40 3 21 6 42 6 59 -1 30 -11 29 -7 26 -196 -1 -81 2
-134 8 -138 6 -3 24 5 41 20 47 39 78 23 73 -38 -1 -10 5 -18 13 -18 11 0 13
15 8 83 -5 69 -3 85 11 96 9 7 16 19 16 27 0 27 24 64 42 64 10 0 23 -9 30
-20 8 -12 24 -20 40 -20 53 0 128 -118 99 -154 -7 -8 -11 -69 -11 -152 0 -230
-34 -380 -83 -361 -19 7 -30 68 -18 98 4 13 9 53 11 89 1 36 2 76 3 90 2 60
-4 120 -12 120 -8 0 -16 -84 -26 -270 -7 -135 -18 -174 -65 -235 -26 -34 -49
-54 -57 -51 -7 3 -20 -5 -28 -18 -17 -25 -61 -49 -76 -41 -5 4 -9 15 -9 26 0
17 -3 18 -21 9 -11 -7 -23 -9 -26 -6 -6 5 -11 100 -18 331 -3 87 -11 162 -26
225 -18 76 -22 119 -20 217 1 72 -2 129 -8 140 -13 22 -14 13 -11 -74 2 -73
-10 -81 -41 -28 -48 82 -49 4 -1 -97 32 -66 30 -53 46 -348 2 -30 0 -80 -5
-110 -5 -30 -13 -109 -20 -175 -10 -113 -29 -193 -53 -223 -16 -22 -36 15 -36
67 0 32 -3 42 -11 34 -6 -6 -11 -54 -11 -114 0 -114 -17 -201 -48 -239 -11
-14 -34 -49 -51 -78 -27 -45 -35 -53 -58 -50 -19 2 -26 8 -24 23 5 57 16 114
29 148 8 20 14 54 14 75 0 21 5 43 12 50 11 11 17 57 38 292 10 122 7 543 -5
665 -7 63 -28 160 -52 235 -18 56 -41 84 -58 70 -9 -7 -16 -6 -25 5 -16 19
-44 19 -62 1 -8 -7 -28 -13 -45 -12 -25 1 -33 6 -38 25 -9 34 21 64 57 56 23
-6 28 -3 28 14 0 12 8 21 23 24 47 9 56 7 59 -15z m108 3 c0 -14 -5 -18 -20
-14 -21 5 -25 15 -13 26 13 14 33 6 33 -12z m2388 -5 c3 -15 1 -16 -17 -6 -12
6 -19 16 -15 21 9 15 28 5 32 -15z m-4974 -28 c21 -32 24 -43 14 -50 -7 -4
-19 -6 -26 -3 -8 3 -26 5 -41 5 -17 0 -40 11 -60 30 -37 36 -38 40 -8 40 12 0
29 5 37 10 31 20 56 11 84 -32z m911 -18 c-5 -14 -13 -20 -28 -18 -27 4 -35
28 -8 28 11 0 23 5 26 11 11 17 17 3 10 -21z m3344 2 c32 -23 30 -34 -9 -57
-37 -21 -184 -32 -195 -14 -4 5 15 29 42 54 45 42 50 44 93 39 25 -3 56 -13
69 -22z m1159 9 c3 -8 -1 -12 -9 -9 -7 2 -15 10 -17 17 -3 8 1 12 9 9 7 -2 15
-10 17 -17z m-888 -25 c0 -34 -16 -40 -40 -16 -24 24 -18 40 16 40 19 0 24 -5
24 -24z m756 -7 c61 -34 74 -49 45 -49 -11 0 -23 5 -27 11 -3 6 -25 19 -49 29
-24 10 -46 23 -49 29 -13 21 27 11 80 -20z m254 8 c47 -23 63 -53 36 -63 -23
-9 -64 11 -110 52 l-39 34 34 0 c19 -1 54 -11 79 -23z m-6084 -99 c-4 -62 -9
-114 -10 -116 -2 -1 -15 3 -30 9 -19 9 -30 26 -41 62 -24 82 -17 114 33 141
54 30 56 27 48 -96z m5719 76 c14 -9 25 -20 25 -25 0 -11 -56 16 -65 31 -9 15
13 12 40 -6z m-4477 0 c31 -9 30 -50 -2 -58 -36 -9 -147 5 -143 18 2 6 28 18
58 27 66 21 60 20 87 13z m890 -43 c3 -27 0 -32 -15 -29 -19 3 -28 30 -19 54
10 26 31 10 34 -25z m1722 6 c39 -13 49 -43 13 -40 -11 1 -26 -4 -32 -11 -8
-10 -21 -12 -45 -6 -38 8 -109 54 -99 63 11 11 125 7 163 -6z m-2104 -19 c5
-13 8 -36 9 -52 0 -23 6 -31 30 -39 21 -7 30 -7 33 2 4 12 54 41 70 41 15 0
23 -61 11 -76 -15 -18 -68 -18 -88 0 -9 8 -28 18 -43 21 -22 6 -28 4 -28 -9 0
-29 -45 -126 -59 -126 -10 0 -12 8 -8 29 3 15 1 33 -5 39 -15 15 -38 -48 -37
-98 1 -19 -4 -101 -10 -182 -7 -82 -11 -163 -10 -180 1 -39 -8 -196 -21 -367
-6 -68 -10 -151 -10 -183 0 -51 -3 -59 -17 -56 -31 6 -85 138 -73 179 13 44
12 395 0 383 -6 -6 -13 -42 -16 -80 -7 -95 -12 -114 -29 -114 -8 0 -21 15 -29
34 -16 39 -36 258 -30 329 3 27 6 82 8 121 4 87 18 126 46 126 40 0 50 -36 51
-183 0 -146 18 -204 20 -68 3 161 6 237 14 292 7 50 5 58 -13 71 -11 7 -23 25
-27 39 -6 23 -2 27 37 38 52 16 68 28 68 52 0 11 5 19 10 19 6 0 10 -6 10 -14
0 -17 39 -48 52 -40 4 3 8 12 8 21 0 23 29 53 51 53 10 0 21 -10 25 -22z
m2439 2 c106 -16 142 -40 88 -61 -15 -5 -41 -22 -56 -37 -25 -24 -36 -27 -96
-27 -66 0 -141 26 -141 49 0 12 32 35 50 36 8 0 29 13 45 29 18 18 36 27 45
24 8 -3 38 -9 65 -13z m-3202 -9 c9 -10 8 -15 -7 -27 -11 -8 -29 -14 -39 -14
-11 0 -25 -7 -31 -16 -9 -12 -17 -13 -39 -5 -37 14 -35 60 3 73 26 9 100 2
113 -11z m4884 -18 c100 -83 143 -127 143 -144 0 -34 -33 -21 -86 34 -29 28
-68 67 -88 85 -35 33 -47 62 -25 62 6 0 31 -17 56 -37z m-5392 -5 l26 -23 -26
-102 c-29 -118 -30 -131 -11 -152 12 -13 12 -26 4 -68 -9 -45 -14 -53 -33 -53
-31 0 -50 26 -52 74 -4 99 -2 153 9 185 5 18 8 54 4 79 -5 35 -2 50 11 64 21
24 36 23 68 -4z m2255 -12 c0 -8 -5 -18 -11 -22 -14 -8 -33 11 -25 25 10 16
36 13 36 -3z m-1374 -13 c7 -10 14 -28 14 -40 0 -12 10 -43 22 -67 20 -42 20
-47 6 -63 -27 -31 -55 -144 -62 -253 -11 -158 -9 -310 2 -355 15 -55 12 -154
-4 -187 -11 -21 -22 -28 -44 -28 -39 0 -43 18 -35 160 8 121 2 176 -16 164 -5
-3 -9 -18 -7 -32 4 -39 -12 -173 -23 -194 -12 -23 -36 -23 -47 0 -13 24 -26
182 -23 277 1 44 3 112 4 152 2 49 7 77 18 90 11 12 18 47 22 114 7 113 20
148 58 156 22 4 28 12 33 42 11 69 53 102 82 64z m3168 1 c4 -9 -1 -27 -9 -40
-12 -19 -24 -24 -60 -24 -25 0 -45 4 -45 9 0 15 73 71 91 71 9 0 20 -7 23 -16z
m-986 -16 c12 -36 9 -181 -4 -185 -16 -5 -26 67 -15 105 6 19 6 34 0 37 -12 8
-12 65 1 65 6 0 14 -10 18 -22z m1352 -3 c18 -21 -4 -45 -41 -45 -35 0 -38 21
-6 43 28 20 32 20 47 2z m158 -22 c2 -8 -5 -13 -17 -13 -12 0 -21 6 -21 16 0
18 31 15 38 -3z m-4242 -25 c10 -17 6 -65 -8 -91 -10 -20 -11 -20 -24 -2 -15
20 -18 62 -8 89 7 19 30 21 40 4z m296 -24 c17 -28 17 -34 3 -66 -11 -27 -12
-44 -4 -69 13 -44 21 -80 20 -99 -7 -270 -24 -490 -38 -490 -3 0 -18 8 -33 17
-22 12 -30 27 -35 57 -12 78 -14 80 -40 52 -21 -23 -28 -25 -52 -15 -35 13
-43 25 -43 71 0 46 -17 91 -30 83 -5 -3 -10 -23 -10 -44 0 -36 -1 -37 -31 -33
-31 5 -51 33 -64 95 -6 28 -25 38 -25 12 0 -16 -27 -20 -46 -7 -6 4 -16 16
-21 27 -16 30 -36 163 -30 194 3 16 3 38 0 51 l-6 22 -12 -22 c-8 -14 -9 -35
-5 -56 7 -30 4 -112 -6 -142 -3 -9 -13 -8 -43 7 l-39 20 -6 78 c-10 127 -9
134 26 170 39 41 63 42 73 6 6 -24 8 -26 16 -10 6 10 7 27 4 38 -10 31 30 69
72 69 27 0 34 -5 39 -26 4 -14 4 -39 0 -57 -9 -50 -9 -55 -8 -185 2 -127 16
-159 24 -52 2 33 7 62 10 66 4 3 22 1 42 -6 40 -13 58 -50 49 -104 -3 -19 -2
-43 2 -53 7 -15 9 -13 15 12 15 62 11 126 -11 162 -19 30 -20 39 -10 72 14 50
43 85 81 101 25 10 34 10 54 -4 29 -19 41 -7 31 31 -7 31 20 65 49 61 11 -2
28 -17 38 -34z m3253 26 c3 -5 -1 -10 -10 -10 -9 0 -13 5 -10 10 3 6 8 10 10
10 2 0 7 -4 10 -10z m-1371 -16 c20 -19 20 -38 1 -54 -22 -18 -48 -8 -56 22
-5 21 -3 30 9 38 23 13 28 12 46 -6z m-606 -16 c17 -17 15 -23 -12 -36 -19 -9
-25 -8 -30 4 -13 34 17 57 42 32z m-240 -29 c-16 -10 -33 5 -23 21 5 8 11 8
21 -1 12 -10 12 -14 2 -20z m2003 -50 c81 -42 156 -89 175 -110 19 -21 44 -83
44 -109 0 -20 -73 -70 -102 -70 -15 0 -32 -11 -46 -29 -43 -59 -111 -44 -96
21 3 16 2 28 -3 28 -5 0 -15 -27 -22 -60 -10 -43 -20 -64 -38 -76 -39 -25 -48
-6 -45 91 1 46 -2 132 -7 191 -12 138 -4 155 68 143 27 -4 59 -13 72 -20z
m399 21 c16 -9 19 -18 14 -58 -8 -71 -12 -79 -46 -91 -18 -6 -40 -19 -50 -28
-10 -9 -20 -14 -22 -12 -17 19 -76 154 -72 165 3 8 21 14 43 15 21 0 47 4 58
9 28 12 53 12 75 0z m93 -15 c30 -27 35 -44 12 -46 -8 -1 -20 -2 -26 -3 -12
-1 -40 59 -32 68 10 10 16 7 46 -19z m-2323 -6 c0 -5 -9 -9 -20 -9 -19 0 -26
11 -14 23 8 8 34 -3 34 -14z m-260 1 c0 -5 -9 -10 -21 -10 -11 0 -17 5 -14 10
3 6 13 10 21 10 8 0 14 -4 14 -10z m4517 -48 c-10 -11 -14 -26 -10 -40 6 -26
-21 -32 -31 -6 -11 29 -6 45 17 54 34 14 42 12 24 -8z m-4716 -44 c10 -18 8
-24 -11 -40 -12 -10 -26 -18 -30 -18 -11 0 -40 29 -40 40 0 15 31 40 50 40 11
0 25 -10 31 -22z m1019 -42 c0 -8 -7 -16 -15 -20 -15 -5 -21 14 -8 27 11 12
23 8 23 -7z m1080 -83 c34 -55 36 -76 14 -177 -13 -58 -21 -76 -39 -84 -34
-16 -61 16 -47 56 5 16 8 41 5 55 -3 15 -2 65 2 112 8 101 20 108 65 38z
m-1460 22 c17 -20 5 -45 -20 -45 -23 0 -35 22 -26 45 7 19 30 19 46 0z m-2230
-35 c0 -5 -6 -10 -14 -10 -8 0 -18 5 -21 10 -3 6 3 10 14 10 12 0 21 -4 21
-10z m193 -21 c23 -12 56 -36 73 -54 17 -17 37 -34 45 -37 8 -3 11 -9 7 -13
-9 -9 -95 30 -125 57 -21 19 -80 40 -115 39 -26 0 -22 17 5 22 47 9 69 6 110
-14z m2600 -33 c25 -19 21 -54 -8 -68 -19 -8 -28 -8 -40 2 -20 17 -19 57 3 69
22 13 23 13 45 -3z m-1123 -74 l22 -18 -23 -27 c-18 -20 -30 -25 -46 -21 -27
7 -29 30 -7 62 18 27 25 27 54 4z m-1320 -17 c0 -8 -4 -15 -10 -15 -5 0 -10 7
-10 15 0 8 5 15 10 15 6 0 10 -7 10 -15z m1950 -90 c18 -22 5 -45 -26 -45 -20
0 -25 4 -20 16 3 9 6 22 6 30 0 18 24 18 40 -1z m468 -108 c4 -33 -22 -37 -39
-6 -9 17 -8 23 2 30 21 13 34 5 37 -24z m-1250 0 c2 -12 -3 -17 -17 -17 -12 0
-21 6 -21 13 0 31 32 34 38 4z m562 -67 c0 -11 -7 -20 -15 -20 -15 0 -21 21
-8 33 12 13 23 7 23 -13z m244 -76 c18 -7 21 -30 5 -39 -16 -11 -59 4 -59 19
0 21 27 30 54 20z m-164 -39 c0 -8 -4 -15 -10 -15 -5 0 -10 7 -10 15 0 8 5 15
10 15 6 0 10 -7 10 -15z m620 -50 c18 11 10 -22 -9 -39 -24 -21 -54 -17 -59 7
-6 28 16 49 39 36 11 -5 24 -7 29 -4z m404 -30 c3 -8 1 -15 -4 -15 -6 0 -10 7
-10 15 0 8 2 15 4 15 2 0 6 -7 10 -15z m-1615 -47 c14 -40 5 -49 -42 -41 -31
5 -37 9 -37 31 0 14 7 34 16 43 22 24 48 10 63 -33z m515 6 c7 -19 -10 -44
-31 -44 -17 0 -27 24 -19 45 7 20 42 19 50 -1z m-954 2 c0 -3 -4 -8 -10 -11
-5 -3 -10 -1 -10 4 0 6 5 11 10 11 6 0 10 -2 10 -4z m2190 -46 c0 -5 -4 -10
-10 -10 -5 0 -10 5 -10 10 0 6 5 10 10 10 6 0 10 -4 10 -10z m-2240 -8 c0 -13
-12 -22 -22 -16 -10 6 -1 24 13 24 5 0 9 -4 9 -8z m329 -98 c11 -31 21 -68 21
-82 0 -15 6 -44 14 -67 36 -103 57 -177 52 -182 -10 -10 -35 18 -58 65 -12 26
-44 84 -70 130 -26 46 -48 90 -48 98 0 27 43 94 60 94 4 0 17 -25 29 -56z
m876 36 c-3 -5 -10 -10 -16 -10 -5 0 -9 5 -9 10 0 6 7 10 16 10 8 0 12 -4 9
-10z m-295 -101 c0 -23 -23 -25 -41 -3 -10 13 -10 17 1 24 19 12 40 1 40 -21z
m-752 9 c-3 -7 -13 -13 -23 -13 -10 0 -20 6 -22 13 -3 7 5 12 22 12 17 0 25
-5 23 -12z m939 -34 c8 -22 -15 -43 -27 -24 -5 8 -10 21 -10 28 0 17 30 15 37
-4z m-817 -110 c0 -21 -28 -17 -40 5 -5 11 -7 27 -3 37 6 15 8 15 25 -6 10
-12 18 -28 18 -36z m1038 34 c21 -21 13 -37 -23 -44 -44 -8 -52 -1 -37 31 12
27 40 33 60 13z m-488 -66 c0 -15 -28 -47 -35 -40 -11 11 5 48 21 48 8 0 14
-4 14 -8z m125 -87 c0 -25 -4 -30 -24 -30 -27 0 -47 25 -38 48 4 10 16 15 34
14 24 -2 28 -7 28 -32z m225 -51 c0 -30 -19 -52 -40 -47 -28 7 -44 38 -26 52
7 6 16 8 19 4 4 -3 7 1 7 11 0 14 4 15 20 6 11 -6 20 -18 20 -26z m-137 -184
c3 -11 2 -20 -1 -20 -4 0 -17 -3 -29 -6 -18 -5 -23 -2 -23 13 0 11 3 23 7 26
13 14 41 6 46 -13z m241 -26 c24 -9 19 -33 -9 -46 -32 -14 -41 -5 -27 27 13
27 13 28 36 19z m-234 -160 c0 -8 -4 -12 -10 -9 -5 3 -10 13 -10 21 0 8 5 12
10 9 6 -3 10 -13 10 -21z m102 -66 c-15 -15 -27 14 -17 40 6 15 8 15 18 -6 7
-16 7 -26 -1 -34z m-181 -14 c10 -13 10 -17 -2 -25 -22 -14 -44 -6 -47 19 -4
27 28 31 49 6z m219 -259 c0 -20 -34 -19 -51 1 -10 13 -10 17 1 24 18 11 50
-6 50 -25z"/>
<path d="M1272 5320 c0 -14 2 -19 5 -12 2 6 2 18 0 25 -3 6 -5 1 -5 -13z"/>
<path d="M1140 5306 c0 -14 5 -26 10 -26 6 0 10 9 10 19 0 11 -4 23 -10 26 -6
4 -10 -5 -10 -19z"/>
<path d="M1021 5264 c0 -11 3 -14 6 -6 3 7 2 16 -1 19 -3 4 -6 -2 -5 -13z"/>
<path d="M1144 5216 c-11 -28 -10 -81 1 -84 15 -4 29 78 16 91 -7 7 -12 5 -17
-7z"/>
<path d="M2011 5004 c0 -11 3 -14 6 -6 3 7 2 16 -1 19 -3 4 -6 -2 -5 -13z"/>
<path d="M2005 4958 c-4 -10 -4 -26 0 -35 8 -17 8 -17 12 0 3 9 3 25 0 35 -4
16 -4 16 -12 0z"/>
<path d="M1599 4796 c-7 -14 -8 -33 -5 -43 7 -17 8 -17 22 1 16 23 18 52 4 61
-5 3 -15 -5 -21 -19z"/>
<path d="M1867 4813 c-4 -3 -7 -11 -7 -17 0 -6 5 -5 12 2 6 6 9 14 7 17 -3 3
-9 2 -12 -2z"/>
<path d="M1862 4632 c0 -59 3 -114 8 -122 11 -17 12 -8 16 120 2 78 -2 110
-15 110 -4 0 -8 -48 -9 -108z"/>
<path d="M1594 4697 c-7 -20 -2 -47 11 -50 14 -3 19 43 6 56 -7 7 -12 6 -17
-6z"/>
<path d="M1598 4612 c-7 -25 3 -92 13 -92 12 0 12 97 0 104 -5 3 -11 -2 -13
-12z"/>
<path d="M1856 4465 c-8 -23 -8 -35 3 -35 13 0 23 32 13 42 -6 6 -12 3 -16 -7z"/>
<path d="M5660 5430 c0 -5 4 -10 9 -10 6 0 13 5 16 10 3 6 -1 10 -9 10 -9 0
-16 -4 -16 -10z"/>
<path d="M2930 5401 c0 -13 121 -113 129 -105 3 3 -16 26 -44 51 -57 50 -85
68 -85 54z"/>
<path d="M2906 5292 c-7 -11 5 -27 32 -41 32 -17 36 -9 11 22 -21 28 -34 33
-43 19z"/>
<path d="M2750 5262 c0 -11 22 -32 32 -32 5 0 4 9 -2 20 -11 20 -30 28 -30 12z"/>
<path d="M3100 5253 c0 -18 118 -103 143 -103 29 0 19 28 -15 39 -18 6 -46 24
-61 41 -26 27 -67 41 -67 23z"/>
<path d="M3105 5130 c3 -5 8 -10 11 -10 2 0 4 5 4 10 0 6 -5 10 -11 10 -5 0
-7 -4 -4 -10z"/>
<path d="M3195 5070 c10 -11 22 -17 26 -14 13 8 3 21 -22 27 -20 5 -20 5 -4
-13z"/>
<path d="M2669 4797 c7 -10 25 -17 39 -17 33 0 18 16 -23 26 -27 7 -29 6 -16
-9z"/>
<path d="M2770 4760 c20 -13 33 -13 25 0 -3 6 -14 10 -23 10 -15 0 -15 -2 -2
-10z"/>
<path d="M2834 4731 c4 -6 15 -11 24 -11 9 0 26 -7 36 -15 23 -17 46 -20 46
-5 0 13 -29 27 -74 35 -28 6 -37 5 -32 -4z"/>
<path d="M2520 4670 c8 -5 33 -9 55 -9 39 1 39 2 10 9 -16 4 -41 8 -55 9 -20
0 -22 -1 -10 -9z"/>
<path d="M2794 4596 c11 -9 28 -16 37 -16 10 0 20 -4 23 -9 3 -5 21 -12 40
-15 19 -4 49 -14 67 -23 18 -9 49 -20 68 -24 20 -4 54 -12 76 -18 22 -5 41 -8
43 -6 5 5 -59 35 -77 35 -9 0 -25 7 -35 15 -11 8 -35 15 -53 15 -19 0 -48 7
-66 17 -18 9 -45 20 -62 24 -88 23 -82 22 -61 5z"/>
<path d="M2654 4456 c11 -9 30 -16 42 -16 13 0 33 -4 46 -9 46 -16 78 -21 78
-11 0 10 -79 35 -145 45 -37 6 -39 5 -21 -9z"/>
<path d="M2470 4361 l-25 -7 25 -7 c37 -10 90 -8 90 3 0 6 -9 10 -19 10 -11 0
-25 2 -33 4 -7 2 -24 1 -38 -3z"/>
<path d="M2590 4340 c20 -13 60 -13 60 0 0 6 -17 10 -37 10 -28 0 -34 -3 -23
-10z"/>
<path d="M8156 5284 c-9 -24 -7 -28 9 -14 17 14 20 30 6 30 -5 0 -12 -7 -15
-16z"/>
<path d="M8040 5167 c-17 -24 -51 -56 -76 -72 -28 -18 -41 -32 -35 -38 6 -6
22 0 44 17 18 14 38 26 44 26 13 0 77 69 86 93 14 36 -32 17 -63 -26z"/>
<path d="M8745 5106 c-17 -7 -36 -20 -44 -29 -25 -31 14 -20 51 13 36 34 36
35 -7 16z"/>
<path d="M8307 5103 c-4 -3 -7 -13 -7 -21 0 -12 3 -12 15 -2 8 7 15 16 15 21
0 11 -14 12 -23 2z"/>
<path d="M8460 4899 c-19 -17 -63 -54 -99 -82 -37 -27 -69 -54 -72 -59 -3 -5
-25 -19 -49 -32 -24 -13 -46 -29 -48 -35 -13 -40 111 36 233 142 72 63 85 77
85 90 0 14 -16 7 -50 -24z"/>
<path d="M8570 4789 c0 -5 5 -7 10 -4 6 3 10 8 10 11 0 2 -4 4 -10 4 -5 0 -10
-5 -10 -11z"/>
<path d="M8935 4424 c-41 -17 -115 -46 -174 -71 -21 -9 -30 -18 -24 -24 6 -6
35 3 79 25 39 19 93 42 122 51 29 10 55 21 58 26 8 13 -15 10 -61 -7z"/>
<path d="M9719 5275 c-2 -33 2 -60 12 -69 12 -13 12 55 -1 74 -8 13 -10 12
-11 -5z"/>
<path d="M9955 5168 c-3 -7 -1 -26 4 -43 9 -29 9 -29 10 13 1 41 -5 54 -14 30z"/>
<path d="M9736 5003 c-4 -34 -3 -60 4 -67 7 -7 10 1 10 26 0 19 3 50 6 67 4
18 2 31 -3 31 -6 0 -13 -26 -17 -57z"/>
<path d="M5130 4544 c0 -9 7 -14 17 -12 25 5 28 28 4 28 -12 0 -21 -6 -21 -16z"/>
<path d="M6135 3740 c-7 -12 2 -30 16 -30 5 0 9 9 9 20 0 21 -15 27 -25 10z"/>
<path d="M5877 3449 c-10 -6 -15 -14 -12 -20 10 -14 45 -11 45 5 0 21 -12 26
-33 15z"/>
<path d="M3320 3163 c0 -10 4 -25 10 -33 8 -12 10 -12 16 3 7 20 -1 47 -16 47
-5 0 -10 -8 -10 -17z"/>
<path d="M6270 3240 c0 -5 5 -10 10 -10 6 0 10 5 10 10 0 6 -4 10 -10 10 -5 0
-10 -4 -10 -10z"/>
<path d="M6284 3170 c7 -77 23 -191 29 -197 14 -13 -2 185 -17 217 l-16 35 4
-55z"/>
<path d="M6817 2964 c-10 -10 -9 -84 2 -84 12 0 22 59 13 76 -5 8 -11 11 -15
8z"/>
<path d="M6314 2703 c0 -138 4 -255 9 -259 8 -8 9 36 9 291 0 94 -4 181 -10
195 -6 17 -9 -55 -8 -227z"/>
<path d="M6698 2875 c-10 -17 -10 -263 1 -269 23 -15 32 67 18 174 -7 58 -15
101 -19 95z"/>
<path d="M6571 2844 c0 -11 3 -14 6 -6 3 7 2 16 -1 19 -3 4 -6 -2 -5 -13z"/>
<path d="M6569 2683 c0 -41 -5 -119 -13 -225 -4 -61 4 -93 18 -69 11 17 17
319 6 326 -6 4 -10 -8 -11 -32z"/>
<path d="M6689 2533 c-1 -10 -1 -21 0 -26 1 -4 -3 -27 -9 -51 -11 -50 -3 -109
14 -103 13 4 18 184 5 193 -5 3 -10 -3 -10 -13z"/>
<path d="M6317 2413 c-10 -9 -7 -104 3 -128 8 -19 9 -18 9 4 1 14 6 39 13 56
9 26 8 36 -4 54 -8 11 -18 18 -21 14z"/>
<path d="M6560 2330 c0 -19 3 -21 12 -12 9 9 9 15 0 24 -9 9 -12 7 -12 -12z"/>
<path d="M4571 2644 c0 -11 3 -14 6 -6 3 7 2 16 -1 19 -3 4 -6 -2 -5 -13z"/>
<path d="M4332 2947 c2 -60 6 -111 10 -113 5 -3 8 7 8 23 0 15 3 57 6 93 5 51
2 69 -10 85 -15 19 -16 12 -14 -88z"/>
<path d="M4330 2749 c0 -24 4 -38 10 -34 6 3 10 22 10 41 0 19 -4 34 -10 34
-5 0 -10 -18 -10 -41z"/>
<path d="M4318 2631 c-4 -44 -1 -61 12 -61 11 0 22 64 14 84 -11 28 -22 18
-26 -23z"/>
<path d="M4071 2733 c1 -85 4 -128 9 -113 12 37 12 250 0 250 -6 0 -10 -52 -9
-137z"/>
<path d="M7187 2970 c-10 -36 -7 -131 4 -155 8 -17 9 -16 4 6 -3 15 0 40 5 55
6 17 7 48 2 74 -7 39 -9 42 -15 20z"/>
<path d="M7297 2823 c-4 -3 -7 -19 -7 -35 0 -40 24 -31 28 10 3 30 -6 41 -21
25z"/>
</g>
</svg>
