<?xml version="1.0" standalone="no"?>
<!DOCTYPE svg PUBLIC "-//W3C//DTD SVG 20010904//EN"
 "http://www.w3.org/TR/2001/REC-SVG-20010904/DTD/svg10.dtd">
<svg version="1.0" xmlns="http://www.w3.org/2000/svg"
 width="935.000000pt" height="541.000000pt" viewBox="0 0 935.000000 541.000000"
 preserveAspectRatio="xMidYMid meet">

<g transform="translate(0.000000,541.000000) scale(0.100000,-0.100000)"
fill="#000000" stroke="none">
<path d="M6269 5276 c-3 -3 -71 -12 -152 -20 -82 -8 -153 -19 -160 -24 -7 -6
-49 -22 -94 -37 -45 -14 -93 -35 -106 -46 -14 -10 -30 -19 -35 -19 -6 0 -23
-16 -39 -35 -54 -68 -93 -105 -120 -116 -16 -6 -67 -12 -114 -14 -48 -2 -95
-7 -105 -13 -11 -5 -42 -12 -70 -16 -66 -8 -72 4 -43 99 17 60 19 78 10 113
-14 49 -22 56 -74 54 -43 -2 -113 -41 -179 -99 -45 -39 -82 -50 -105 -32 -9 8
-34 38 -56 67 -75 103 -209 125 -231 38 -7 -28 -96 -106 -120 -106 -24 0 -64
27 -123 83 -49 48 -53 50 -97 45 -68 -8 -76 -18 -76 -104 0 -62 -3 -75 -19
-84 -29 -15 -59 -12 -129 12 -52 18 -68 20 -95 11 -17 -7 -54 -15 -82 -19 -27
-4 -63 -12 -80 -19 -35 -14 -43 -12 -104 27 -25 15 -55 28 -67 28 -12 0 -61
19 -110 42 -48 23 -108 45 -133 49 -25 4 -68 13 -96 19 -51 12 -191 35 -300
49 -35 4 -72 4 -88 -2 -16 -5 -47 -7 -70 -4 -45 6 -182 -8 -232 -23 -16 -5
-77 -21 -135 -35 -58 -14 -120 -33 -138 -41 -48 -22 -122 -74 -122 -85 0 -5
-24 -21 -53 -35 -30 -13 -81 -51 -113 -82 -33 -31 -75 -71 -94 -88 -19 -17
-54 -54 -78 -82 -24 -29 -60 -61 -80 -73 -54 -29 -103 -66 -119 -89 -8 -11
-23 -20 -33 -20 -11 0 -24 -9 -30 -20 -6 -10 -29 -24 -53 -31 -72 -19 -100
-32 -151 -66 -26 -18 -56 -33 -65 -34 -93 -6 -307 3 -321 13 -9 7 -39 30 -67
50 -40 30 -56 52 -86 117 -43 93 -45 117 -14 233 26 98 43 122 102 149 52 24
82 24 124 -2 27 -16 32 -24 26 -42 -26 -86 -26 -110 2 -151 64 -92 142 -117
237 -76 47 20 48 22 90 125 22 53 18 181 -7 218 -17 26 -98 75 -147 89 -14 3
-43 13 -65 21 -22 8 -76 18 -120 22 -68 6 -90 3 -145 -15 -140 -47 -195 -101
-238 -232 -39 -117 -57 -166 -64 -173 -3 -3 -18 19 -34 50 -32 60 -45 66 -68
33 -21 -29 -22 -166 -3 -193 20 -27 67 -13 67 20 0 27 19 75 30 75 9 0 20 -65
30 -184 7 -82 9 -90 39 -118 17 -16 31 -33 31 -38 0 -21 55 -71 110 -99 46
-24 80 -33 155 -41 53 -6 107 -13 121 -16 13 -3 38 -1 56 6 18 6 58 16 88 21
166 27 257 65 380 156 41 31 91 68 110 82 43 33 87 61 95 61 11 0 4 -149 -10
-202 -19 -75 -46 -258 -39 -269 3 -5 11 -41 19 -81 20 -107 31 -146 50 -174 9
-15 13 -33 10 -46 -12 -35 24 -143 87 -266 57 -110 208 -252 320 -301 35 -15
79 -37 98 -49 33 -21 93 -30 160 -24 14 2 77 7 140 12 68 5 128 15 145 24 17
9 35 16 41 16 22 0 90 40 124 73 133 130 188 201 234 307 16 36 41 94 57 130
38 87 46 165 23 232 -20 62 -61 145 -74 153 -6 3 -10 13 -10 21 0 16 -36 59
-111 133 -64 64 -98 87 -139 96 -19 4 -41 12 -48 18 -17 14 -153 2 -163 -15
-6 -10 -12 -8 -23 7 -14 20 -15 20 -88 1 -86 -22 -127 -52 -172 -127 -48 -80
-57 -128 -45 -238 13 -113 20 -133 56 -158 89 -61 243 -53 361 19 39 24 72 84
72 132 0 51 16 85 46 96 36 14 74 3 74 -22 0 -12 25 -44 59 -77 36 -34 64 -70
70 -91 16 -52 15 -139 -2 -185 -46 -123 -100 -225 -118 -225 -5 0 -18 -18 -29
-40 -15 -28 -36 -49 -75 -71 -30 -17 -58 -35 -61 -40 -3 -5 -18 -9 -33 -9 -16
0 -34 -7 -41 -15 -8 -10 -31 -15 -69 -15 -31 0 -62 -4 -70 -9 -9 -6 -28 -4
-50 4 -20 7 -62 15 -95 19 -64 8 -140 37 -171 65 -11 10 -38 27 -60 37 -42 20
-175 139 -175 158 0 6 -11 28 -25 48 -14 20 -25 43 -25 51 0 7 -11 36 -25 63
-14 27 -25 56 -25 64 0 9 -6 24 -13 35 -25 36 -66 158 -76 225 -9 53 -7 85 9
175 46 254 64 295 191 431 70 75 212 117 364 109 164 -9 252 -20 267 -33 10
-8 49 -14 97 -15 86 -2 106 7 97 46 -8 35 12 16 28 -28 15 -37 23 -46 54 -55
57 -15 83 -12 137 20 28 16 57 33 65 37 8 3 31 19 50 34 33 26 48 54 80 154
20 63 28 69 60 42 15 -13 41 -29 59 -37 61 -25 55 -47 -60 -217 -15 -23 -33
-61 -39 -85 -7 -23 -18 -51 -26 -62 -19 -27 -19 -193 0 -306 12 -75 25 -116
82 -273 39 -106 121 -235 227 -358 43 -50 76 -96 74 -102 -3 -8 -32 -11 -98
-9 -182 6 -310 -40 -435 -155 -14 -13 -24 -33 -24 -48 0 -18 -12 -37 -35 -57
-18 -17 -37 -45 -41 -62 -3 -16 -15 -42 -24 -56 -10 -14 -21 -54 -25 -90 -3
-35 -11 -73 -17 -83 -15 -28 7 -194 36 -271 13 -34 42 -93 65 -130 22 -37 47
-90 55 -117 9 -28 26 -63 38 -79 13 -16 31 -41 41 -55 33 -46 165 -136 222
-151 59 -16 144 -66 190 -114 45 -45 86 -70 118 -70 19 0 39 -11 60 -34 18
-18 40 -36 49 -39 9 -3 25 -19 34 -34 31 -49 256 -263 278 -263 21 0 76 -47
76 -65 0 -6 12 -27 26 -46 14 -19 39 -60 55 -91 16 -32 46 -75 66 -98 34 -37
85 -114 98 -150 8 -21 60 -126 89 -179 37 -69 55 -138 62 -235 6 -84 8 -92 37
-119 17 -16 42 -33 55 -38 86 -33 163 35 132 117 -23 59 -14 115 29 185 23 35
44 71 47 79 3 8 18 42 34 75 16 33 30 69 32 79 2 11 16 23 33 29 44 14 92 53
99 81 3 13 16 26 28 30 32 8 138 104 138 124 0 9 32 49 71 87 39 39 84 95 101
125 17 30 55 83 85 118 29 35 53 67 53 72 0 4 12 11 26 14 14 4 45 25 68 46
24 22 48 40 53 40 6 0 17 7 24 16 49 60 228 172 342 214 30 11 62 29 72 40 10
11 23 20 30 20 6 0 35 36 64 80 30 44 85 112 122 150 40 41 69 78 69 90 0 30
28 80 44 80 25 0 56 93 59 177 2 69 0 78 -16 77 -20 -2 -25 14 -30 101 -5 68
-31 175 -55 220 -8 17 -23 46 -33 67 -10 20 -33 45 -52 57 -55 34 -102 141
-62 141 8 0 15 -4 15 -9 0 -6 30 -24 68 -42 37 -18 79 -43 94 -55 16 -13 49
-25 80 -29 29 -4 62 -14 73 -21 11 -8 38 -14 60 -14 22 0 56 -4 76 -9 20 -5
59 -4 90 1 200 36 280 71 364 159 55 57 98 91 135 105 22 8 85 102 100 149 7
22 23 61 36 87 13 26 24 55 24 64 0 9 9 42 20 73 29 81 43 310 26 421 -2 14
-4 30 -5 37 0 7 -10 20 -20 30 -15 14 -20 31 -19 71 0 56 9 70 28 47 7 -8 24
-15 39 -15 15 0 31 -4 37 -9 5 -6 41 -21 79 -35 82 -28 122 -42 190 -67 53
-19 179 -35 255 -32 25 2 82 3 127 3 91 0 169 24 213 64 14 13 35 28 46 35 61
30 114 174 114 305 0 68 -28 205 -56 275 -15 39 -125 151 -148 151 -5 0 -33
12 -63 26 -65 30 -153 47 -208 38 -162 -25 -291 -116 -319 -224 -13 -50 -13
-57 6 -97 24 -50 71 -89 141 -114 70 -26 100 -24 165 9 70 34 106 83 121 163
13 63 30 109 40 109 14 -1 62 -61 103 -130 62 -105 73 -134 60 -167 -6 -16
-13 -54 -16 -86 -12 -110 -85 -206 -160 -209 -97 -3 -118 -7 -143 -23 -15 -10
-45 -18 -67 -18 -64 1 -170 14 -181 23 -5 4 -35 15 -65 23 -79 22 -140 45
-169 65 -14 10 -52 31 -84 47 -35 18 -84 56 -122 97 -35 37 -83 79 -106 94
-24 15 -62 45 -85 68 -113 112 -175 167 -236 209 -38 26 -72 47 -77 47 -5 0
-29 11 -52 25 -24 14 -54 25 -66 25 -12 0 -30 8 -40 19 -19 20 -37 25 -153 46
-41 8 -93 19 -115 25 -22 7 -65 16 -95 20 -59 9 -264 13 -271 6z m-231 -213
c6 -16 13 -57 17 -93 12 -122 60 -187 185 -246 52 -24 273 -26 316 -2 18 10
51 22 75 28 327 82 489 74 594 -28 17 -16 38 -33 47 -38 32 -18 127 -136 134
-168 3 -17 14 -44 24 -61 10 -16 20 -46 24 -66 4 -21 17 -50 29 -65 20 -26 22
-39 22 -159 -1 -129 -14 -229 -39 -309 -8 -22 -17 -53 -20 -67 -3 -15 -22 -50
-41 -79 -19 -29 -35 -59 -36 -69 -1 -30 -171 -169 -245 -200 -72 -31 -218 -65
-240 -57 -7 3 -25 0 -41 -6 -25 -9 -40 -6 -113 26 -53 23 -99 36 -126 36 -31
0 -57 9 -91 30 -26 17 -52 30 -59 30 -20 0 -102 105 -123 159 -30 75 -23 235
14 346 15 44 34 87 43 96 15 14 110 49 134 49 5 0 7 -9 3 -19 -7 -23 22 -147
41 -178 8 -13 37 -35 66 -50 28 -16 60 -34 72 -40 24 -14 81 -16 141 -4 55 10
148 85 169 134 29 69 13 247 -27 289 -7 7 -20 26 -30 41 -27 41 -136 109 -167
103 -14 -2 -33 2 -43 12 -13 12 -46 17 -135 20 -188 7 -195 5 -275 -68 -53
-49 -72 -77 -119 -172 -62 -123 -88 -209 -88 -284 1 -70 34 -214 64 -273 14
-28 26 -59 26 -70 0 -22 33 -85 63 -118 l20 -23 -24 0 c-14 0 -29 4 -34 9 -15
13 -111 35 -223 51 -57 8 -87 7 -149 -6 -113 -24 -150 -27 -157 -15 -4 6 7 43
24 83 24 56 40 79 70 100 21 15 51 48 66 75 15 26 44 66 64 88 57 62 136 291
146 423 8 112 -43 338 -87 378 -11 10 -34 44 -51 76 -35 66 -102 128 -166 154
-68 26 -71 47 -20 102 60 66 166 121 234 122 25 0 34 -5 42 -27z m-1314 -35
c108 -94 198 -201 201 -240 2 -18 3 -39 4 -45 1 -7 15 -20 32 -28 52 -27 108
-12 185 51 36 30 73 54 82 55 9 0 31 3 47 6 69 12 105 3 105 -26 0 -10 -29
-77 -65 -149 -49 -98 -67 -149 -76 -204 -7 -40 -20 -84 -30 -98 -19 -27 -4
-26 -424 -31 -44 0 -88 -5 -98 -10 -12 -7 -48 -5 -110 5 -88 15 -94 15 -143
-3 -29 -11 -53 -18 -55 -16 -2 2 -41 6 -87 9 -113 7 -147 25 -167 86 -9 26
-29 65 -45 86 -16 22 -30 43 -30 48 0 5 -18 46 -40 92 -25 52 -47 85 -60 89
-11 3 -25 16 -32 28 -6 12 -26 40 -45 63 -18 23 -33 47 -33 55 1 8 17 24 37
37 30 20 44 22 97 17 110 -11 191 -28 211 -46 11 -9 30 -20 42 -23 12 -4 40
-27 61 -51 40 -45 75 -65 117 -65 31 0 65 49 72 103 7 53 24 86 65 128 41 40
127 109 137 109 5 0 25 -15 45 -32z m937 -218 c25 -7 58 -33 108 -88 40 -42
86 -91 102 -108 33 -35 94 -180 104 -245 3 -24 0 -96 -8 -159 -12 -92 -21
-127 -47 -175 -56 -106 -103 -179 -144 -226 -78 -88 -142 -174 -167 -224 -77
-150 -109 -227 -109 -259 0 -44 -18 -57 -39 -27 -9 12 -33 42 -53 67 -21 25
-38 55 -38 67 0 12 -12 56 -26 97 -14 41 -27 86 -29 100 -2 14 -16 66 -29 115
-27 97 -32 182 -16 279 5 32 11 60 13 63 2 2 26 9 53 17 165 45 203 57 229 70
17 9 38 16 49 16 39 0 99 25 113 46 19 29 9 80 -18 94 -23 13 -109 16 -167 6
-68 -12 -222 3 -229 22 -9 22 32 143 79 237 45 88 66 119 125 183 43 46 72 52
144 32z m-1912 -58 c92 -77 117 -109 147 -184 14 -35 32 -70 38 -78 20 -24 76
-132 76 -147 0 -19 -49 -36 -86 -30 -17 3 -37 2 -44 -3 -7 -5 -21 -3 -30 2
-13 8 -23 7 -41 -5 -13 -10 -43 -17 -67 -17 -32 0 -49 -6 -67 -25 -14 -13 -25
-29 -25 -35 0 -19 52 -60 75 -60 12 0 50 -9 85 -21 65 -21 148 -38 210 -43 80
-6 90 -24 114 -206 19 -142 20 -228 6 -297 -5 -26 -14 -87 -19 -135 -6 -48
-19 -107 -30 -132 -12 -25 -21 -49 -21 -55 0 -15 -41 -35 -50 -24 -4 4 -20 33
-36 63 -16 30 -43 73 -60 95 -18 22 -44 65 -58 95 -59 127 -113 212 -159 251
-26 22 -47 45 -47 51 0 6 -15 27 -34 48 -18 20 -41 59 -52 85 -10 26 -30 62
-46 78 -15 17 -30 44 -34 61 -4 17 -18 65 -31 106 -23 70 -25 86 -21 235 4
153 6 162 31 202 15 24 27 48 27 55 0 7 28 39 62 70 80 76 96 76 187 0z
m-1069 -692 c0 -5 -7 -10 -15 -10 -8 0 -15 5 -15 10 0 6 7 10 15 10 8 0 15 -4
15 -10z m2470 -5 c15 -18 40 -145 40 -204 0 -60 16 -149 45 -246 13 -44 34
-114 46 -155 12 -41 30 -86 40 -99 11 -13 19 -31 19 -40 1 -27 37 -99 73 -144
18 -23 39 -62 46 -86 13 -44 111 -161 135 -161 6 0 17 -9 23 -20 23 -36 67
-52 248 -86 41 -8 104 26 148 79 48 59 58 81 59 131 2 131 -128 212 -217 135
-40 -35 -46 -74 -20 -136 18 -43 13 -65 -20 -83 -21 -11 -30 -10 -71 12 -44
23 -49 30 -65 84 -10 32 -26 80 -36 106 -17 47 -17 48 4 90 11 24 29 59 38 78
33 65 73 89 171 102 93 12 254 -2 298 -26 53 -29 133 -87 158 -112 78 -84 167
-307 152 -383 -24 -125 -41 -182 -71 -227 -18 -28 -36 -65 -39 -82 -4 -17 -15
-39 -25 -48 -11 -9 -19 -22 -19 -27 0 -6 -7 -18 -15 -27 -8 -9 -25 -36 -38
-60 -23 -45 -40 -57 -159 -118 -31 -16 -70 -39 -86 -51 -17 -11 -37 -21 -45
-21 -9 0 -19 -5 -22 -10 -4 -6 -30 -22 -58 -37 -49 -25 -61 -27 -212 -29 -170
-3 -179 -1 -290 52 -88 42 -141 92 -182 173 -43 84 -44 139 -4 203 33 52 62
75 108 84 28 6 31 3 36 -22 3 -16 6 -36 6 -44 5 -119 94 -179 194 -131 54 26
67 53 67 140 0 62 -3 72 -32 109 -44 55 -129 111 -183 121 -24 5 -46 6 -49 4
-3 -3 -21 0 -40 7 -27 8 -37 19 -41 38 -9 44 -45 153 -70 212 -13 30 -33 89
-45 130 -12 41 -29 95 -37 120 -8 25 -19 85 -24 134 -5 48 -15 102 -23 120 -8
17 -17 63 -19 103 -3 39 -12 84 -20 100 -12 23 -12 34 -2 63 7 19 11 49 8 65
-2 17 0 50 4 75 7 39 12 46 38 51 49 11 62 10 75 -6z m-793 -17 c10 -11 17
-39 19 -82 2 -36 8 -76 13 -89 7 -17 3 -86 -9 -208 -11 -101 -20 -217 -20
-257 0 -49 -5 -81 -16 -97 -9 -13 -20 -59 -25 -102 -12 -98 -34 -169 -64 -205
-13 -15 -26 -41 -30 -57 -10 -45 -45 -67 -137 -86 -21 -4 -33 -17 -48 -50 -37
-81 -19 -181 39 -221 57 -39 137 -28 160 22 11 25 68 54 106 54 18 0 29 -11
46 -46 19 -41 21 -56 16 -143 l-6 -96 -56 -52 c-59 -56 -134 -96 -199 -108
-21 -3 -52 -12 -70 -20 -101 -43 -223 -44 -310 -1 -50 26 -135 57 -209 78 -26
7 -47 24 -71 57 -19 25 -46 57 -60 70 -14 14 -26 28 -26 33 0 5 -24 37 -52 72
-29 35 -71 89 -93 120 -22 32 -57 77 -77 101 -34 41 -36 49 -36 109 0 44 -5
72 -16 87 -28 40 -20 91 28 181 24 46 47 97 50 115 10 43 76 116 139 152 82
47 144 64 227 64 165 -1 251 -56 301 -195 50 -137 34 -214 -56 -265 -49 -28
-50 -28 -76 -2 -14 14 -19 28 -15 44 8 30 -27 126 -55 151 -41 37 -144 21
-169 -25 -5 -11 -10 -43 -10 -70 0 -39 5 -55 20 -68 11 -10 20 -22 20 -27 0
-5 9 -28 20 -51 16 -32 33 -48 75 -69 50 -26 58 -27 118 -18 110 17 233 113
330 258 15 22 27 44 27 48 0 10 32 82 66 147 13 26 24 61 24 78 0 17 11 72 23
123 22 86 24 110 22 323 -2 127 -1 233 1 237 8 13 105 1 121 -14z m-1669 -66
c2 -13 -4 -25 -17 -31 -26 -14 -35 0 -19 34 13 29 32 28 36 -3z m2241 -197
c15 -16 21 -45 30 -147 6 -70 9 -134 6 -142 -3 -9 -7 -23 -10 -31 -3 -12 -10
-13 -32 -4 -28 10 -45 11 -290 5 -154 -4 -169 3 -154 65 5 18 12 82 16 141 5
71 11 111 20 118 8 7 40 12 72 12 32 0 75 3 96 6 21 4 81 5 132 2 77 -4 98 -9
114 -25z m93 -470 c10 -16 18 -44 18 -61 0 -17 6 -49 13 -70 8 -22 17 -66 21
-98 4 -38 17 -79 37 -112 16 -29 38 -78 49 -109 22 -63 20 -71 -31 -135 -29
-36 -39 -76 -62 -234 -11 -77 -10 -79 18 -130 52 -93 91 -140 161 -198 52 -43
80 -58 114 -63 25 -4 53 -11 62 -16 9 -5 56 -11 105 -14 159 -8 213 -16 213
-31 0 -8 -12 -19 -27 -25 -14 -5 -51 -31 -82 -58 -31 -27 -72 -55 -91 -63 -32
-14 -69 -46 -272 -238 -37 -35 -68 -70 -68 -78 0 -7 -27 -40 -60 -74 -33 -33
-60 -66 -60 -74 0 -7 -23 -42 -50 -79 -28 -36 -59 -85 -69 -109 -11 -24 -26
-46 -35 -49 -9 -4 -16 -13 -16 -20 0 -8 -13 -31 -30 -52 -16 -21 -30 -43 -30
-50 0 -7 -9 -24 -21 -39 l-21 -26 -19 23 c-10 13 -28 50 -40 82 -12 31 -30 65
-41 74 -11 9 -31 41 -44 71 -14 30 -36 66 -49 80 -13 14 -35 50 -48 80 -14 30
-42 75 -64 100 -22 25 -53 70 -69 100 -16 30 -56 81 -90 115 -118 118 -217
206 -248 222 -17 9 -43 25 -57 37 -15 12 -41 29 -58 38 -66 36 -22 71 88 70
35 0 80 5 100 13 20 7 55 18 79 26 63 19 214 163 237 227 64 181 41 301 -91
471 l-48 62 17 92 c9 51 19 112 22 137 3 25 13 77 21 115 9 39 18 80 20 93 3
17 11 22 34 22 24 0 36 -9 60 -42 27 -39 48 -65 102 -127 52 -61 76 -171 82
-376 3 -71 9 -163 15 -203 6 -39 7 -82 3 -95 -9 -26 -7 -243 3 -369 l8 -87
-44 -73 c-39 -65 -44 -80 -44 -134 0 -51 5 -67 30 -104 34 -49 72 -75 121 -84
26 -5 43 0 81 23 67 41 97 97 90 162 -7 59 -23 89 -81 157 -50 58 -71 114 -67
179 1 24 -4 53 -11 65 -9 17 -11 101 -10 328 3 502 16 584 120 751 22 35 24
36 54 25 17 -6 39 -24 50 -41z"/>
<path d="M8983 5149 c-59 -27 -86 -64 -78 -107 12 -64 42 -118 71 -130 115
-45 214 4 214 104 0 37 -6 51 -37 85 -36 40 -87 70 -115 68 -7 0 -32 -9 -55
-20z"/>
<path d="M191 5075 c-19 -7 -46 -25 -59 -40 -34 -40 -27 -113 14 -156 67 -70
136 -78 206 -25 51 39 58 52 58 106 0 94 -113 154 -219 115z"/>
<path d="M7920 4093 c-8 -3 -30 -19 -47 -36 -30 -28 -33 -37 -33 -88 0 -55 1
-58 30 -68 42 -14 70 -2 135 59 62 60 73 87 42 101 -12 5 -33 16 -47 24 -26
15 -53 18 -80 8z"/>
<path d="M1326 4030 c-35 -22 -65 -74 -66 -110 0 -35 29 -75 91 -126 67 -55
89 -61 140 -38 52 23 59 38 59 127 0 71 -1 75 -35 110 -20 20 -44 41 -55 47
-31 17 -102 12 -134 -10z"/>
<path d="M6780 2191 c0 -6 5 -13 10 -16 6 -3 10 1 10 9 0 9 -4 16 -10 16 -5 0
-10 -4 -10 -9z"/>
<path d="M5056 900 c-35 -39 -36 -43 -36 -116 0 -102 16 -132 98 -188 98 -67
115 -67 181 -6 51 48 56 59 78 148 3 13 -4 42 -17 70 -31 65 -119 118 -207
126 -61 5 -61 5 -97 -34z"/>
<path d="M4305 888 c-45 -16 -64 -37 -79 -89 -23 -76 8 -171 69 -209 31 -19
46 -22 101 -17 72 5 110 25 126 65 6 15 21 50 34 78 13 28 24 57 24 65 0 25
-97 80 -170 97 -25 6 -52 13 -60 16 -8 2 -28 0 -45 -6z"/>
<path d="M4715 380 c-39 -31 -75 -80 -75 -103 0 -38 23 -84 48 -100 79 -46
247 -24 279 36 12 25 13 37 2 76 -15 56 -46 93 -71 85 -10 -3 -43 4 -73 15
-31 12 -59 21 -64 21 -5 0 -25 -14 -46 -30z"/>
</g>
</svg>
