<?xml version="1.0" standalone="no"?>
<!DOCTYPE svg PUBLIC "-//W3C//DTD SVG 20010904//EN"
 "http://www.w3.org/TR/2001/REC-SVG-20010904/DTD/svg10.dtd">
<svg version="1.0" xmlns="http://www.w3.org/2000/svg"
 width="1070.000000pt" height="298.000000pt" viewBox="0 0 1070.000000 298.000000"
 preserveAspectRatio="xMidYMid meet">

<g transform="translate(0.000000,298.000000) scale(0.100000,-0.100000)"
fill="#000000" stroke="none">
<path d="M8005 2970 c-3 -5 1 -10 9 -10 9 0 16 5 16 10 0 6 -4 10 -9 10 -6 0
-13 -4 -16 -10z"/>
<path d="M5205 2781 c-3 -6 -21 -11 -39 -11 -19 0 -39 -7 -46 -15 -7 -8 -18
-15 -24 -15 -7 0 -29 -18 -50 -39 -33 -33 -39 -47 -40 -87 -2 -28 -8 -50 -15
-52 -27 -9 -31 -51 -12 -125 10 -40 26 -103 35 -142 20 -79 59 -149 94 -164
57 -27 151 -2 192 49 33 41 73 126 89 190 13 49 18 62 50 133 27 62 27 81 -6
144 -20 37 -37 56 -58 63 -23 9 -32 8 -39 -3 -7 -10 -14 -7 -36 15 -16 15 -30
36 -32 46 -4 19 -52 29 -63 13z m89 -194 c15 -19 26 -39 26 -46 0 -23 -32
-116 -58 -171 -15 -30 -31 -72 -37 -94 -12 -48 -32 -58 -41 -19 -3 15 -12 49
-21 75 -8 26 -17 88 -19 139 -6 100 6 129 52 129 13 0 26 5 29 10 12 20 45 9
69 -23z"/>
<path d="M896 2739 c-27 -6 -64 -22 -83 -36 -19 -15 -44 -28 -56 -28 -27 -2
-100 -86 -131 -150 -31 -64 -110 -135 -151 -135 -20 0 -91 36 -100 50 -9 14
21 47 57 66 35 18 78 91 78 133 0 30 -23 77 -45 93 -29 21 -100 5 -212 -50
-51 -25 -73 -41 -73 -54 0 -24 22 -23 45 2 13 15 21 17 31 9 9 -7 26 -6 59 5
25 9 61 16 80 16 32 0 35 -2 35 -30 0 -26 -6 -34 -37 -48 -21 -9 -64 -37 -95
-61 -46 -34 -60 -52 -69 -84 -10 -38 -9 -43 11 -57 12 -8 39 -30 60 -47 20
-18 42 -33 48 -33 6 0 27 -9 47 -20 47 -26 90 -26 108 1 8 11 30 28 48 38 19
10 44 33 57 52 13 19 36 37 51 41 19 5 34 20 45 42 9 19 29 48 44 64 15 16 46
49 69 74 36 39 49 46 93 52 67 9 101 -13 98 -62 -3 -31 -7 -35 -58 -52 -30
-11 -64 -20 -75 -20 -11 -1 -58 -29 -104 -63 -79 -58 -85 -66 -99 -115 -13
-45 -13 -59 -2 -93 21 -64 69 -108 148 -135 48 -17 207 4 242 31 8 7 30 17 48
23 18 6 45 19 60 29 50 33 121 67 127 61 4 -3 1 -25 -5 -48 -6 -24 -8 -54 -4
-69 4 -14 8 -67 9 -116 1 -51 7 -101 14 -114 23 -42 151 -195 179 -213 15 -10
35 -18 44 -18 10 0 22 -8 27 -19 13 -24 31 -31 111 -45 67 -12 101 -8 193 21
26 8 51 13 54 9 10 -9 33 15 33 34 0 10 -9 28 -19 41 -18 22 -21 23 -53 10
-81 -33 -212 -27 -255 12 -11 9 -25 17 -32 17 -6 0 -31 18 -56 41 -80 73 -123
174 -132 309 -5 83 -5 87 31 164 21 44 48 88 62 98 14 12 24 30 24 45 0 22 3
24 24 19 15 -4 28 0 37 10 31 38 107 61 292 89 16 3 32 7 37 10 5 3 26 -1 47
-9 37 -14 96 -25 158 -29 17 -2 59 -22 94 -45 35 -23 70 -42 79 -42 8 0 30
-11 48 -25 18 -14 41 -25 51 -25 10 0 29 -16 43 -35 14 -19 29 -35 33 -35 15
0 142 -112 149 -131 4 -11 12 -19 17 -19 5 0 16 -18 25 -40 9 -22 22 -40 30
-40 15 0 26 -21 26 -50 0 -28 48 -80 67 -73 13 5 15 2 8 -18 -14 -39 -9 -108
9 -128 9 -9 16 -24 16 -32 0 -9 8 -24 18 -35 11 -12 24 -51 32 -99 7 -44 19
-87 27 -97 8 -9 21 -49 30 -90 15 -73 50 -154 103 -238 16 -25 36 -66 45 -92
9 -25 33 -66 53 -90 21 -24 51 -63 67 -87 17 -25 42 -51 56 -60 15 -8 35 -28
45 -43 11 -15 25 -28 32 -28 7 0 41 -18 74 -40 34 -22 68 -40 75 -40 7 0 21
-4 31 -9 53 -27 108 -40 197 -46 181 -12 286 -9 410 10 17 2 53 6 81 9 28 2
65 11 82 20 17 9 38 16 46 16 8 0 20 8 25 19 8 15 19 17 60 13 42 -4 52 -1 68
18 44 55 91 95 106 92 9 -2 29 9 44 25 15 15 42 37 59 48 18 11 62 56 98 100
98 118 122 120 161 12 10 -27 42 -79 71 -115 59 -75 60 -82 16 -164 -24 -45
-25 -54 -19 -153 5 -96 4 -108 -14 -126 -21 -21 -45 -24 -69 -9 -35 22 -64
-45 -40 -91 16 -29 33 -24 88 26 40 36 56 44 83 42 19 -1 40 -8 48 -15 16 -15
125 -7 156 13 11 6 32 14 46 17 l26 5 -4 -61 c-4 -49 -2 -64 11 -75 15 -12 21
-11 44 6 43 32 55 64 38 105 -8 19 -26 39 -40 46 -14 6 -26 15 -27 19 0 5 -1
41 -3 81 -3 69 -4 74 -39 106 -23 21 -37 43 -37 58 0 13 -5 29 -11 35 -8 8 -9
28 -1 73 9 49 20 74 54 116 55 68 98 137 98 157 0 44 36 21 98 -62 13 -16 41
-40 62 -52 22 -13 40 -29 40 -38 0 -15 108 -121 124 -121 5 0 34 -25 64 -55
31 -30 62 -55 70 -55 7 0 25 -9 39 -20 14 -11 33 -20 42 -20 9 0 27 -7 39 -16
15 -10 32 -14 49 -9 19 4 32 0 49 -16 46 -43 120 -63 239 -63 123 0 193 8 245
28 68 26 228 76 242 76 7 0 35 18 61 39 28 24 67 44 98 52 37 10 54 20 64 40
8 14 38 48 67 75 73 68 112 127 111 170 -1 28 4 37 23 44 16 6 34 31 53 72 78
167 99 218 115 273 9 33 24 75 32 93 8 18 14 43 14 55 0 12 10 38 22 57 24 40
39 89 43 142 4 47 11 58 39 58 24 0 67 56 108 140 7 14 19 29 27 34 8 5 31 24
50 43 20 19 50 47 66 63 26 24 207 130 223 130 3 0 18 12 34 27 17 16 49 31
85 39 106 24 129 31 156 49 20 12 37 15 64 11 21 -4 78 -11 127 -16 49 -6 94
-14 100 -19 6 -5 36 -16 67 -25 30 -8 64 -25 75 -37 10 -12 29 -25 42 -30 13
-5 29 -24 37 -43 8 -19 26 -51 39 -70 13 -19 27 -56 31 -82 3 -26 14 -62 23
-80 14 -30 14 -35 0 -51 -19 -22 -58 -110 -58 -130 0 -8 -24 -43 -54 -77 -47
-53 -64 -65 -120 -84 -36 -12 -68 -21 -73 -20 -4 1 -29 -1 -55 -6 -37 -5 -53
-4 -70 8 -12 9 -39 16 -60 16 -38 0 -68 20 -68 46 0 8 -9 33 -19 55 -26 54
-31 158 -8 171 11 6 17 22 17 43 0 24 6 38 19 45 32 17 40 12 46 -27 4 -21 13
-63 22 -94 14 -51 20 -57 62 -77 25 -12 64 -22 86 -22 75 1 167 116 144 179
-21 54 -105 131 -144 131 -11 0 -43 10 -72 22 -43 17 -57 19 -75 10 -13 -6
-48 -18 -78 -27 -55 -15 -82 -38 -163 -140 -32 -38 -63 -45 -100 -20 -25 16
-59 19 -134 9 -41 -5 -58 -13 -84 -40 -18 -19 -38 -34 -43 -34 -6 0 -29 -17
-52 -37 -34 -32 -44 -49 -58 -110 -17 -68 -17 -76 -1 -130 9 -32 21 -69 26
-82 8 -19 6 -28 -10 -42 -11 -11 -24 -19 -28 -19 -4 0 -31 -10 -60 -22 -44
-18 -54 -27 -68 -65 -9 -23 -21 -43 -26 -43 -5 0 -9 -5 -9 -11 0 -6 -9 -22
-20 -36 -27 -34 -25 -57 8 -122 23 -47 35 -58 92 -87 51 -26 77 -34 121 -34
45 0 63 -5 95 -28 66 -48 69 -56 43 -99 -53 -90 -99 -113 -159 -78 -14 8 -41
22 -60 32 -19 9 -45 26 -57 37 -43 37 -185 23 -219 -22 -40 -52 11 -98 74 -68
47 23 63 20 112 -16 24 -18 53 -40 65 -48 12 -8 35 -24 50 -35 40 -28 157 -27
200 0 40 27 71 62 96 109 19 35 20 43 9 83 -7 24 -17 46 -21 49 -5 3 -9 15 -9
27 0 12 -14 39 -31 60 -23 28 -38 37 -62 37 -29 0 -61 8 -132 32 -16 5 -41 12
-55 15 -40 9 -80 52 -80 87 1 101 67 167 171 170 56 2 60 0 65 -24 3 -14 18
-59 34 -100 16 -41 34 -94 41 -117 6 -23 29 -60 50 -83 21 -22 40 -48 44 -58
7 -22 101 -80 141 -88 32 -6 137 22 192 50 16 8 50 40 77 71 47 55 48 57 42
110 -4 38 -15 68 -36 99 -33 47 -98 106 -118 106 -6 0 -24 10 -40 23 -40 31
-100 60 -111 53 -5 -3 -49 -1 -98 5 -49 6 -96 12 -105 13 -8 1 -31 14 -50 28
-19 15 -46 31 -61 37 -24 9 -27 16 -27 48 1 21 -5 61 -12 89 -11 46 -10 55 7
89 11 21 29 43 40 49 10 6 37 22 59 37 28 18 58 28 100 31 73 7 98 -10 136
-88 26 -54 84 -114 109 -114 9 0 25 -9 35 -20 10 -11 25 -20 33 -20 9 0 29
-15 46 -33 27 -29 41 -35 105 -45 46 -7 82 -7 97 -1 14 5 46 8 72 8 60 -1 108
9 123 27 6 8 24 14 40 14 18 0 44 14 74 40 25 22 50 40 55 40 5 0 12 10 15 22
4 13 15 32 25 43 10 11 28 46 40 77 27 72 54 108 78 101 10 -2 41 -21 68 -42
70 -53 136 -81 212 -90 59 -8 74 -6 130 17 73 29 93 53 100 122 4 43 0 57 -28
103 -17 29 -40 57 -50 63 -38 20 -126 82 -141 100 -10 10 -27 37 -39 58 -20
36 -20 41 -6 52 9 6 37 14 62 18 63 8 109 -20 256 -157 72 -67 153 -109 225
-115 66 -6 90 1 132 35 98 81 103 104 41 179 -55 67 -52 103 10 119 20 4 31
-1 54 -26 23 -24 35 -30 57 -25 18 3 29 0 33 -9 7 -19 40 -19 55 -1 15 18 -3
88 -30 112 -23 20 -105 40 -199 48 -73 6 -78 5 -122 -24 -50 -33 -63 -57 -54
-96 8 -32 67 -111 87 -117 9 -2 18 -16 21 -31 4 -20 -1 -31 -20 -46 -57 -45
-121 -18 -247 106 -163 159 -173 167 -218 161 -21 -3 -60 1 -85 8 -98 27 -107
27 -145 -8 -38 -35 -67 -84 -68 -119 -2 -28 26 -95 51 -123 9 -11 20 -32 24
-48 4 -17 25 -40 56 -63 28 -20 50 -41 50 -48 0 -17 41 -53 65 -58 12 -2 20
-11 20 -23 0 -52 -164 -13 -198 47 -9 15 -28 33 -43 39 -15 5 -37 20 -48 32
-43 47 -104 123 -115 145 -6 12 -18 22 -26 22 -8 0 -30 25 -50 55 -19 30 -39
55 -44 55 -6 0 -32 21 -59 46 -55 52 -167 97 -224 90 -18 -2 -49 5 -77 19 -40
20 -58 22 -135 19 -49 -2 -112 -8 -141 -13 -29 -5 -62 -7 -73 -4 -13 3 -28 -3
-44 -19 -28 -28 -83 -50 -122 -49 -30 2 -136 -60 -136 -79 0 -6 -7 -10 -15
-10 -9 0 -38 -16 -66 -35 -28 -19 -55 -35 -60 -35 -5 0 -9 -6 -9 -14 0 -7 -24
-32 -54 -55 -30 -22 -67 -58 -82 -78 -53 -72 -66 -84 -81 -72 -7 7 -13 32 -13
60 0 26 -5 60 -11 76 -6 15 -11 62 -11 103 0 99 -3 110 -37 110 -35 0 -66 -33
-80 -85 -6 -22 -22 -64 -37 -94 -19 -40 -24 -63 -19 -88 3 -18 2 -33 -3 -33
-5 0 -12 -9 -15 -21 -9 -33 -27 -12 -20 22 5 26 0 36 -38 75 -24 24 -47 44
-51 44 -5 0 -26 17 -47 37 -51 50 -96 83 -114 83 -8 0 -27 16 -41 35 -17 21
-32 32 -41 28 -9 -3 -21 -1 -28 5 -18 15 -129 42 -175 42 -23 0 -44 5 -47 11
-11 17 -155 -22 -155 -42 0 -5 -10 -9 -22 -9 -36 0 -68 -38 -61 -71 3 -18 1
-29 -6 -29 -6 0 -11 7 -11 15 0 8 -6 15 -12 15 -18 0 -188 -159 -188 -174 0
-8 -9 -25 -20 -39 -11 -14 -23 -40 -26 -59 -3 -18 -13 -63 -22 -100 -13 -58
-14 -75 -3 -117 16 -63 8 -94 -22 -85 -12 3 -26 13 -32 21 -5 9 -19 23 -29 32
-24 20 -40 38 -72 79 -14 17 -31 32 -37 32 -14 -1 -96 -88 -192 -205 -36 -44
-80 -97 -98 -118 -18 -21 -40 -53 -49 -70 -9 -18 -21 -36 -25 -42 -5 -5 -16
-22 -25 -37 -11 -16 -28 -28 -45 -30 -20 -2 -32 -12 -42 -33 -7 -16 -25 -43
-40 -58 -14 -16 -26 -40 -26 -54 0 -26 -28 -53 -41 -40 -5 4 -9 41 -9 83 -1
41 -7 80 -13 86 -7 7 -12 25 -12 41 0 19 -11 40 -32 61 -20 20 -32 41 -30 53
2 11 -4 26 -13 33 -10 8 -15 30 -15 63 0 41 5 54 26 74 26 24 27 28 20 101 -4
46 -13 86 -23 101 -10 14 -22 34 -28 45 -5 10 -29 32 -52 49 -33 24 -45 28
-56 18 -8 -6 -22 -9 -31 -5 -11 4 -19 -2 -26 -20 -5 -14 -16 -26 -24 -26 -7 0
-22 -17 -31 -37 -10 -21 -24 -46 -32 -55 -12 -13 -14 -37 -12 -102 4 -73 7
-88 28 -110 22 -23 23 -31 18 -85 -7 -62 -6 -61 -109 -200 -18 -24 -40 -57
-48 -74 -8 -17 -20 -32 -27 -34 -11 -4 -43 54 -58 105 -3 12 -12 22 -20 22 -7
0 -16 11 -19 24 -3 14 -21 40 -39 59 -41 44 -66 80 -97 140 -14 26 -46 70 -73
98 -26 27 -47 56 -47 64 0 15 -112 135 -127 135 -5 0 -38 -27 -72 -60 -35 -33
-70 -60 -78 -60 -11 0 -14 20 -13 113 2 101 -6 165 -38 302 -13 55 -50 109
-120 177 -82 79 -103 89 -194 92 -37 1 -71 5 -75 9 -3 4 -36 7 -73 7 -55 0
-77 -5 -126 -31 -32 -17 -76 -33 -97 -35 -47 -4 -175 -67 -202 -99 -11 -12
-30 -26 -42 -29 -12 -4 -46 -33 -75 -64 -29 -32 -61 -61 -70 -65 -29 -11 -48
19 -48 77 0 58 -27 194 -42 213 -10 13 -64 7 -85 -9 -6 -5 -14 -32 -18 -60 -8
-58 -29 -98 -68 -128 -16 -13 -32 -41 -42 -75 -21 -74 -40 -73 -117 8 -152
159 -203 207 -223 207 -11 0 -47 21 -79 45 -33 25 -67 45 -75 45 -9 0 -33 11
-53 25 -20 14 -44 25 -53 25 -9 0 -30 7 -47 16 -22 12 -74 18 -192 22 -272 11
-341 5 -377 -34 -16 -17 -33 -24 -59 -24 -32 0 -84 -26 -145 -72 -90 -69 -116
-92 -130 -115 -11 -17 -45 -41 -89 -63 -39 -19 -73 -38 -76 -42 -3 -4 -24 -18
-46 -30 -23 -13 -53 -31 -68 -42 -73 -51 -206 -16 -206 55 0 43 17 78 42 88
13 5 32 18 42 30 11 11 27 21 36 21 10 0 23 7 31 16 7 8 21 13 31 10 26 -6 87
20 121 52 32 31 51 89 48 152 -2 35 -8 50 -29 67 -43 34 -135 48 -216 32z
m3055 -351 c6 -11 9 -21 7 -24 -8 -7 -48 27 -48 41 0 20 28 8 41 -17z m-183
-50 c53 -44 80 -75 101 -116 16 -32 38 -66 50 -76 17 -15 20 -26 15 -52 -3
-18 -1 -48 6 -68 19 -59 -26 -222 -72 -260 -14 -12 -33 -36 -42 -53 -9 -18
-21 -33 -25 -33 -5 0 -16 -3 -25 -6 -10 -4 -16 -1 -16 9 0 8 -7 18 -16 21 -12
4 -15 14 -11 34 4 22 -2 34 -36 65 -37 34 -44 37 -81 31 -23 -3 -46 -10 -52
-15 -6 -5 -25 -6 -41 -3 -26 5 -34 1 -62 -35 -39 -49 -36 -73 8 -65 46 10 52
-20 12 -56 -17 -16 -31 -34 -31 -39 0 -6 -4 -11 -10 -11 -5 0 -10 19 -10 43 0
58 -13 76 -33 46 -12 -16 -13 -27 -6 -42 6 -10 8 -34 4 -53 -9 -49 30 -118 61
-110 19 5 23 1 28 -30 8 -42 28 -52 61 -30 13 9 31 13 39 10 9 -3 24 -3 34 1
9 5 24 7 33 6 9 -1 22 5 29 14 7 8 18 15 25 15 6 0 20 9 30 20 10 11 24 20 30
20 7 0 15 9 18 20 3 11 13 20 23 20 28 0 64 40 64 71 0 23 5 28 28 31 23 3 33
15 66 83 39 80 47 122 48 260 1 77 -13 240 -23 272 -20 62 -20 83 -3 83 24 0
124 -104 124 -129 0 -15 6 -21 21 -21 18 0 20 -4 15 -26 -4 -15 -9 -72 -12
-126 -2 -55 -9 -108 -14 -118 -15 -27 -38 -173 -33 -206 3 -20 -1 -35 -11 -43
-22 -18 -20 -37 5 -54 29 -21 59 -10 97 35 19 21 39 38 46 38 8 0 39 25 71 55
73 70 101 73 163 14 23 -22 42 -46 42 -53 0 -7 12 -23 26 -37 28 -26 81 -104
114 -169 25 -48 104 -157 134 -183 16 -15 20 -30 20 -73 -1 -59 -15 -84 -48
-84 -11 0 -36 -16 -55 -35 -22 -22 -48 -37 -70 -40 -20 -3 -48 -12 -62 -19
-23 -12 -41 -11 -120 2 -52 8 -101 21 -110 28 -8 8 -20 14 -26 14 -14 0 -68
62 -89 102 -32 61 1 209 50 227 13 6 27 15 31 20 18 30 101 -2 139 -52 31 -42
9 -55 -48 -29 -25 12 -52 19 -59 16 -18 -6 -47 -80 -47 -117 0 -20 10 -33 40
-53 35 -23 46 -26 92 -20 63 9 88 21 88 45 0 10 9 26 20 36 23 21 27 55 6 55
-8 0 -18 -4 -21 -10 -10 -16 -35 -12 -35 6 0 9 9 18 20 21 19 5 24 14 21 40
-3 21 -68 114 -92 131 -27 19 -118 35 -133 23 -6 -5 -27 -11 -47 -15 -33 -6
-50 -19 -135 -107 -24 -25 -25 -31 -21 -110 5 -106 15 -139 64 -219 26 -43 47
-66 61 -68 35 -5 26 -27 -30 -71 -29 -22 -59 -46 -66 -52 -9 -7 -11 -24 -6
-54 6 -41 4 -45 -17 -50 -72 -17 -290 0 -393 30 -27 8 -59 15 -71 15 -12 0
-57 18 -100 40 -43 22 -83 40 -88 40 -11 0 -87 48 -97 61 -3 4 -22 14 -42 22
-26 11 -42 26 -52 51 -8 19 -30 45 -50 58 -19 13 -42 39 -50 58 -8 19 -31 62
-51 95 -19 33 -38 67 -41 75 -4 8 -14 23 -22 32 -17 20 -20 180 -6 268 7 39 6
66 -2 91 -10 31 -10 41 2 58 9 12 14 29 12 39 -3 21 20 55 48 70 11 6 29 33
39 59 29 81 49 123 56 123 4 0 42 34 85 75 44 41 88 83 99 93 40 37 85 63 148
86 34 12 71 27 82 33 39 22 97 3 173 -59z m3188 -91 c149 -79 159 -87 188
-139 15 -26 31 -48 37 -48 5 0 15 -12 22 -27 6 -15 22 -37 34 -49 14 -14 20
-29 16 -43 -3 -14 4 -40 20 -69 17 -32 27 -72 32 -122 4 -41 12 -86 16 -99 5
-13 6 -28 1 -35 -5 -6 -14 -60 -22 -120 -13 -119 -24 -145 -95 -241 -25 -33
-61 -84 -80 -112 -20 -29 -43 -53 -51 -53 -9 0 -46 -28 -82 -63 -86 -81 -134
-117 -202 -152 -30 -15 -64 -32 -75 -38 -11 -6 -40 -14 -65 -19 -77 -14 -85
-15 -101 -22 -26 -11 -109 -18 -192 -17 -60 2 -88 7 -126 27 -27 13 -54 24
-60 24 -22 0 -10 19 24 40 19 12 35 26 35 31 0 5 -32 25 -70 44 -39 20 -74 43
-77 52 -11 29 12 67 54 91 72 40 91 133 47 237 -8 19 -19 35 -24 35 -6 0 -15
11 -20 25 -5 14 -14 25 -19 25 -5 0 -12 8 -15 18 -3 9 -23 26 -43 36 -21 10
-45 22 -53 27 -58 36 -82 41 -120 25 -21 -8 -40 -12 -43 -10 -3 3 -19 3 -35
-1 -27 -5 -31 -12 -42 -65 -14 -65 -10 -194 6 -210 6 -6 38 -16 72 -22 59 -11
63 -11 88 13 25 23 26 27 20 101 -6 71 -5 78 14 88 29 15 55 4 82 -33 20 -27
23 -43 21 -110 -2 -76 -3 -80 -39 -117 -20 -21 -51 -41 -67 -44 -17 -3 -37
-12 -45 -18 -8 -7 -47 -13 -88 -14 -67 -2 -76 0 -125 32 -29 19 -59 34 -65 34
-6 0 -14 9 -17 21 -3 11 -15 23 -26 26 -11 3 -23 15 -27 27 -3 11 -12 28 -20
37 -12 13 -10 21 8 55 19 36 31 54 90 128 39 49 79 86 95 86 8 0 23 20 34 44
11 25 32 54 47 65 37 28 72 64 72 74 0 19 81 87 103 87 26 0 57 -29 81 -76 16
-32 90 -94 112 -94 18 0 64 -66 64 -92 0 -13 4 -28 9 -33 5 -6 14 -28 21 -50
17 -55 37 -75 76 -75 l32 0 4 73 c4 76 -10 112 -42 104 -12 -3 -15 10 -18 72
-1 42 -9 110 -16 151 -9 51 -12 110 -7 185 7 122 21 158 90 225 20 19 44 46
53 60 12 18 19 22 27 14 9 -8 7 -17 -7 -35 -24 -30 -53 -116 -51 -149 1 -14
-4 -52 -10 -85 -15 -68 -15 -140 0 -166 5 -10 9 -38 9 -62 0 -27 6 -49 15 -57
8 -7 15 -25 15 -41 0 -32 33 -93 70 -129 15 -14 31 -32 36 -41 5 -8 25 -26 44
-39 19 -13 41 -32 48 -42 21 -28 51 -40 112 -44 52 -3 59 -1 85 26 20 21 38
30 61 30 24 0 41 9 63 32 37 40 45 72 36 153 -7 72 -40 120 -105 154 -37 19
-43 20 -69 6 -16 -8 -48 -17 -70 -21 -23 -4 -47 -14 -54 -24 -7 -9 -22 -20
-34 -24 -18 -6 -23 -15 -23 -40 0 -20 -8 -40 -20 -51 -27 -25 -43 -9 -87 84
-28 62 -36 92 -40 162 -5 78 -3 91 20 143 15 31 29 72 33 90 7 43 147 182 190
191 16 3 40 10 54 14 40 14 41 14 146 -42z m-4036 -83 c0 -16 -16 -19 -25 -4
-8 13 4 32 16 25 5 -4 9 -13 9 -21z m4431 -103 c-6 -32 -31 -57 -31 -31 0 14
30 73 35 68 2 -2 0 -19 -4 -37z m-4349 -27 c14 -14 20 -14 33 -4 12 10 15 10
15 -3 0 -9 -9 -21 -19 -27 -11 -5 -17 -17 -15 -27 6 -24 -12 -51 -24 -38 -12
12 -25 115 -16 115 4 0 16 -7 26 -16z m2173 -113 c3 -5 1 -12 -5 -16 -5 -3
-10 1 -10 9 0 18 6 21 15 7z m-2275 -90 c0 -6 -4 -13 -10 -16 -5 -3 -10 1 -10
9 0 9 5 16 10 16 6 0 10 -4 10 -9z m0 -56 c15 -18 13 -20 -17 -29 -18 -6 -23
-3 -23 12 0 33 19 42 40 17z m800 -79 c0 -8 -4 -18 -10 -21 -5 -3 -10 3 -10
14 0 12 5 21 10 21 6 0 10 -6 10 -14z m-2110 -32 c0 -8 -4 -12 -10 -9 -5 3
-10 10 -10 16 0 5 5 9 10 9 6 0 10 -7 10 -16z m3600 6 c0 -5 -4 -10 -9 -10 -6
0 -13 5 -16 10 -3 6 1 10 9 10 9 0 16 -4 16 -10z m-1540 -43 c0 -18 -2 -19
-10 -7 -13 20 -13 43 0 35 6 -3 10 -16 10 -28z m-670 -38 c0 -4 -5 -20 -11
-36 -9 -25 -11 -26 -20 -10 -6 10 -7 31 -4 48 6 24 9 28 21 18 8 -6 14 -15 14
-20z m3806 -9 c1 -22 7 -46 14 -54 14 -18 5 -36 -19 -36 -21 0 -34 53 -24 101
8 43 28 36 29 -11z m-3290 18 c-3 -7 -7 -25 -10 -40 -4 -19 -13 -28 -26 -28
-27 0 -25 26 3 56 24 26 39 31 33 12z m1634 -42 c0 -3 -4 -8 -10 -11 -5 -3
-10 -1 -10 4 0 6 5 11 10 11 6 0 10 -2 10 -4z m1640 -106 c0 -5 -4 -10 -10
-10 -5 0 -10 5 -10 10 0 6 5 10 10 10 6 0 10 -4 10 -10z m-833 -44 c-2 -6 -15
-18 -30 -26 -29 -16 -54 -4 -45 22 7 16 80 20 75 4z m2158 -31 c17 -7 57 -18
90 -25 33 -6 68 -17 77 -24 27 -20 49 -83 51 -144 1 -48 -2 -57 -26 -78 -27
-23 -47 -28 -94 -25 -11 1 -24 -2 -27 -8 -19 -30 -135 64 -224 181 -7 9 -15
45 -18 81 l-4 64 72 -4 c40 -3 87 -11 103 -18z m-3006 -41 c12 -19 21 -42 21
-50 0 -8 7 -17 16 -21 8 -3 20 -16 25 -30 11 -30 35 -39 55 -22 9 7 29 38 44
70 26 50 45 69 69 69 11 0 51 -75 51 -95 0 -9 -8 -29 -19 -43 -10 -15 -22 -38
-26 -52 -12 -42 -34 -70 -50 -64 -9 4 -18 -3 -24 -18 -5 -13 -16 -30 -25 -37
-9 -7 -16 -19 -16 -27 0 -7 -8 -19 -18 -26 -9 -7 -25 -26 -35 -41 -24 -37 -38
-31 -58 24 -16 47 -41 92 -76 141 -20 28 -23 29 -28 12 -11 -33 -22 -49 -31
-44 -5 3 -7 14 -6 25 2 11 6 49 9 85 3 51 10 70 27 87 13 12 27 38 30 57 9 48
37 48 65 0z m112 -640 c8 -3 24 -30 34 -60 l18 -55 -33 -34 c-62 -64 -116 -33
-103 60 6 52 39 109 58 100 5 -3 17 -8 26 -11z"/>
<path d="M3606 2038 c-30 -45 -7 -128 34 -128 27 0 60 48 60 85 0 36 -12 49
-52 59 -22 5 -31 1 -42 -16z"/>
<path d="M3387 1982 c-19 -20 -27 -39 -27 -65 0 -35 2 -37 33 -37 34 0 54 15
76 58 10 19 8 26 -13 47 -32 31 -36 31 -69 -3z"/>
<path d="M3736 1911 c-22 -25 -16 -36 30 -51 49 -16 66 -7 62 32 -3 30 -6 33
-39 36 -25 2 -40 -3 -53 -17z"/>
<path d="M3234 1788 c-4 -7 -9 -34 -10 -61 -3 -54 14 -71 44 -44 9 8 30 14 46
12 26 -3 28 -2 22 26 -9 49 -35 79 -67 79 -15 0 -31 -5 -35 -12z"/>
<path d="M3921 1581 c-13 -13 -18 -28 -14 -43 3 -17 2 -19 -5 -9 -12 17 -42 7
-42 -14 0 -19 41 -83 58 -90 7 -2 26 8 42 23 39 34 50 90 26 127 -20 30 -39
32 -65 6z"/>
<path d="M3247 1583 c-39 -6 -63 -46 -48 -79 6 -14 11 -33 11 -43 0 -9 6 -26
14 -36 12 -17 15 -17 36 -2 12 8 31 29 41 46 18 30 18 32 -1 76 -11 25 -21 44
-22 44 -2 -1 -15 -4 -31 -6z"/>
<path d="M3407 1413 c-4 -3 -7 -15 -7 -25 0 -10 -5 -18 -10 -18 -6 0 -16 -11
-22 -25 -14 -32 10 -62 58 -71 27 -5 39 -2 58 17 22 21 23 26 12 49 -8 14 -11
31 -8 39 9 27 -60 56 -81 34z"/>
<path d="M3710 1406 c-6 -8 -24 -16 -38 -18 -24 -3 -27 -8 -30 -45 -3 -39 0
-44 29 -62 25 -16 36 -18 47 -9 10 9 15 9 21 0 6 -9 15 -7 34 8 23 18 27 29
27 69 0 26 -5 52 -12 59 -17 17 -63 15 -78 -2z"/>
<path d="M6826 1967 c-17 -13 -18 -18 -5 -66 7 -28 21 -59 32 -68 17 -16 21
-16 55 2 41 23 50 46 31 84 -28 55 -76 75 -113 48z"/>
<path d="M6635 1910 c-26 -29 -32 -141 -7 -163 15 -14 21 -13 59 10 36 21 43
30 48 68 9 59 -10 99 -51 103 -20 2 -36 -4 -49 -18z"/>
<path d="M7087 1833 c-13 -24 -16 -70 -6 -100 10 -30 14 -34 42 -31 29 3 32 7
35 41 2 27 -3 45 -20 67 -23 28 -43 37 -51 23z"/>
<path d="M7108 1567 c-36 -30 -42 -58 -21 -101 18 -39 44 -46 76 -22 26 20 20
113 -8 132 -18 12 -24 11 -47 -9z"/>
<path d="M6949 1372 c-9 -9 -25 -25 -37 -34 -18 -14 -20 -22 -12 -49 19 -67
69 -83 118 -39 43 40 44 84 2 108 -16 9 -30 20 -30 25 0 12 -24 6 -41 -11z"/>
<path d="M6516 1350 c-37 -24 -54 -55 -48 -86 10 -52 86 -57 99 -6 3 15 7 45
7 67 1 47 -14 53 -58 25z"/>
<path d="M6692 1301 c-34 -42 -42 -90 -19 -110 50 -41 127 -8 127 54 0 35 -41
95 -64 95 -7 0 -27 -18 -44 -39z"/>
<path d="M4597 2520 c-7 -3 -30 -16 -52 -30 -22 -14 -49 -30 -59 -36 -11 -6
-23 -17 -26 -25 -4 -8 -14 -27 -23 -44 -49 -88 -56 -110 -48 -145 11 -48 57
-143 78 -162 21 -19 136 -68 157 -68 9 0 20 -9 26 -20 6 -11 18 -20 26 -20 8
0 33 -9 54 -19 23 -11 55 -18 75 -16 19 2 50 -1 68 -6 28 -8 35 -6 54 16 39
44 40 103 4 249 -18 72 -41 143 -52 158 -10 15 -19 33 -19 39 0 29 -44 100
-73 118 -25 15 -48 19 -105 18 -40 -1 -78 -4 -85 -7z m112 -137 c16 -16 40
-50 53 -78 13 -27 40 -77 60 -110 42 -70 54 -140 26 -158 -14 -9 -20 -8 -30 4
-20 24 -66 49 -80 44 -46 -16 -69 -13 -78 10 -5 13 -22 31 -39 41 -62 36 -94
181 -51 224 11 11 31 20 44 20 13 0 29 7 36 15 17 21 24 19 59 -12z"/>
<path d="M5675 2513 c-33 -7 -70 -16 -83 -19 -36 -10 -99 -89 -107 -134 -4
-22 -11 -43 -16 -46 -6 -3 -21 -30 -34 -59 -14 -29 -31 -55 -40 -59 -19 -7
-19 -32 0 -40 8 -3 15 -12 15 -19 0 -8 -7 -20 -15 -27 -31 -26 -16 -84 28
-106 32 -17 45 -20 143 -29 88 -9 200 22 267 74 72 57 106 95 112 129 14 77 9
229 -9 243 -6 5 -31 27 -56 49 -25 22 -49 40 -55 40 -5 1 -28 4 -50 9 -26 5
-62 3 -100 -6z m118 -131 c25 -28 41 -116 26 -144 -25 -47 -92 -101 -139 -110
-68 -13 -112 -17 -142 -11 -23 4 -28 10 -28 33 0 16 4 31 10 35 5 3 23 34 40
68 53 104 103 144 186 146 18 1 38 -6 47 -17z"/>
<path d="M10435 2413 c-11 -3 -22 -8 -25 -12 -3 -4 -23 -18 -45 -31 -57 -35
-70 -49 -57 -62 8 -8 22 -8 51 0 21 7 46 10 54 7 8 -4 36 8 63 25 36 23 56 29
76 24 35 -7 36 8 4 30 -27 17 -90 27 -121 19z"/>
<path d="M1840 2275 c-102 -21 -139 -47 -169 -121 -9 -22 -9 -38 -1 -59 6 -16
8 -40 5 -55 -7 -31 41 -104 75 -115 27 -8 110 22 133 49 39 46 57 95 57 156 0
56 2 60 23 60 29 0 36 -6 84 -67 36 -46 41 -59 47 -126 8 -84 -2 -109 -81
-204 -33 -40 -44 -60 -41 -80 3 -24 7 -28 32 -26 32 2 99 64 110 101 4 12 12
22 18 22 11 0 105 78 155 128 20 20 30 23 72 18 68 -8 101 -22 101 -44 0 -10
9 -27 20 -37 11 -10 20 -28 20 -41 0 -13 5 -34 11 -48 17 -38 3 -86 -41 -136
-22 -25 -45 -51 -51 -58 -7 -8 -21 -11 -36 -8 -14 4 -32 1 -45 -8 -15 -11 -27
-12 -45 -5 -39 14 -72 11 -85 -10 -11 -18 -13 -18 -24 -3 -20 27 -114 20 -136
-10 -10 -13 -24 -30 -32 -38 -7 -8 -24 -39 -36 -67 -18 -43 -27 -53 -46 -53
-20 0 -24 -5 -24 -29 0 -16 -3 -38 -7 -48 -6 -17 -6 -17 14 0 21 18 41 8 28
-14 -4 -5 5 -27 18 -48 17 -25 27 -56 29 -87 3 -42 7 -50 38 -67 25 -15 54
-21 105 -21 62 -1 74 2 106 27 55 42 73 29 66 -43 -6 -55 -5 -60 28 -102 18
-25 51 -53 72 -63 21 -10 41 -23 45 -28 9 -15 154 -18 171 -3 33 27 137 158
137 172 0 9 19 34 42 55 l42 38 15 -22 c9 -12 23 -35 32 -52 9 -16 28 -36 44
-44 23 -11 29 -11 42 2 11 11 12 19 4 33 -6 11 -15 31 -21 47 -9 27 -45 47
-85 50 -11 0 -32 9 -47 19 -27 19 -28 19 -83 -7 -43 -21 -63 -38 -91 -81 -50
-75 -80 -97 -122 -89 -50 9 -66 23 -80 66 -18 57 -16 64 27 93 21 15 48 38 61
51 18 19 26 22 40 13 14 -9 24 -8 44 5 14 10 26 22 26 27 0 6 6 10 14 10 25 0
66 41 91 91 22 43 24 57 19 121 -4 40 -12 78 -18 83 -6 6 -17 22 -23 38 -7 15
-19 27 -27 27 -7 0 -21 11 -30 25 l-17 26 -18 -23 c-16 -20 -21 -21 -36 -8
-19 16 -17 63 5 140 12 44 12 46 -25 108 -21 37 -47 67 -61 72 -13 5 -24 14
-24 20 0 11 -90 54 -97 46 -3 -2 -22 1 -42 9 -28 9 -51 10 -90 3 -62 -11 -73
-5 -90 51 -17 57 -80 133 -132 157 -126 60 -114 58 -209 39z m309 -422 c-15
-18 -34 -1 -25 22 5 14 9 15 21 5 12 -10 13 -16 4 -27z m401 -218 c0 -8 -4
-15 -10 -15 -5 0 -10 7 -10 15 0 8 5 15 10 15 6 0 10 -7 10 -15z m78 -63 c1
-5 18 -32 36 -61 19 -28 32 -60 29 -70 -4 -17 -61 -81 -97 -109 -11 -9 -15
-21 -10 -35 6 -19 5 -20 -10 -8 -12 10 -31 12 -71 7 l-55 -6 0 31 c0 17 -7 45
-15 63 -14 29 -14 36 0 62 8 16 15 37 15 47 0 19 -26 23 -33 5 -3 -10 -8 -10
-16 -2 -18 17 51 74 89 74 16 0 32 5 35 10 8 12 98 5 103 -8z m-403 -72 c3 -6
19 -10 34 -10 16 0 39 -8 52 -18 22 -19 22 -20 10 -107 -7 -49 -17 -97 -22
-108 -13 -24 -83 -55 -141 -63 -39 -5 -47 -3 -68 21 -14 15 -38 40 -53 55
l-28 27 15 54 c18 69 26 89 36 89 4 0 13 14 20 30 7 17 20 30 29 30 9 0 21 4
27 9 22 22 73 17 89 -9z m175 -129 c0 -6 -4 -13 -10 -16 -5 -3 -10 1 -10 9 0
9 5 16 10 16 6 0 10 -4 10 -9z"/>
<path d="M4769 1822 c-41 -37 -52 -111 -22 -145 11 -12 23 -30 26 -39 4 -10
15 -18 26 -18 11 0 23 -4 26 -10 13 -21 59 -10 90 23 18 17 39 37 48 44 39 31
-48 171 -99 159 -13 -4 -26 -2 -29 4 -11 17 -34 11 -66 -18z"/>
<path d="M5462 1802 c-18 -15 -32 -35 -32 -45 0 -10 -7 -25 -15 -33 -8 -9 -15
-22 -15 -30 0 -19 78 -93 107 -100 26 -7 69 19 76 46 3 11 17 24 31 30 19 7
26 17 26 37 0 30 -32 90 -58 111 -28 21 -84 14 -120 -16z"/>
<path d="M4940 891 c-14 -28 -12 -57 5 -71 21 -18 29 -6 31 46 2 48 -17 60
-36 25z"/>
<path d="M5320 885 c0 -26 39 -95 54 -95 22 0 38 27 34 57 -2 20 -9 28 -22 28
-11 0 -21 6 -24 13 -5 17 -42 15 -42 -3z"/>
<path d="M5485 771 c-41 -9 -75 -62 -75 -117 0 -37 6 -51 37 -85 34 -38 40
-40 77 -35 59 9 70 -2 51 -47 -19 -46 -19 -91 -1 -107 22 -17 64 7 89 51 l21
37 -23 51 c-19 40 -22 56 -14 73 11 25 -1 88 -17 88 -5 0 -19 18 -30 40 -18
35 -55 63 -78 59 -4 -1 -20 -4 -37 -8z"/>
<path d="M4743 708 c-28 -32 -53 -86 -53 -117 0 -14 11 -39 24 -54 l25 -29 73
12 c40 6 77 15 81 19 18 18 28 93 17 127 -15 45 -45 64 -100 64 -36 0 -51 -5
-67 -22z"/>
<path d="M4696 473 c-23 -6 -55 -42 -56 -61 0 -8 9 -27 21 -43 27 -38 66 -39
79 -3 16 41 12 101 -6 108 -9 3 -16 5 -17 5 -1 -1 -11 -4 -21 -6z"/>
<path d="M5095 358 c-11 -6 -35 -24 -52 -41 -31 -29 -33 -35 -31 -94 2 -89 9
-93 142 -91 l109 2 18 30 c26 42 24 71 -8 133 -21 43 -33 55 -62 63 -47 13
-91 12 -116 -2z"/>
<path d="M4840 288 c-23 -38 -27 -110 -6 -127 16 -13 55 -2 74 21 7 8 15 35
18 60 6 40 4 47 -17 62 -34 23 -47 20 -69 -16z"/>
<path d="M5403 280 c-55 -50 -40 -100 28 -100 29 0 43 7 63 31 29 34 35 84 10
93 -34 13 -70 4 -101 -24z"/>
</g>
</svg>
