<?xml version="1.0" standalone="no"?>
<!DOCTYPE svg PUBLIC "-//W3C//DTD SVG 20010904//EN"
 "http://www.w3.org/TR/2001/REC-SVG-20010904/DTD/svg10.dtd">
<svg version="1.0" xmlns="http://www.w3.org/2000/svg"
 width="1020.000000pt" height="279.000000pt" viewBox="0 0 1020.000000 279.000000"
 preserveAspectRatio="xMidYMid meet">

<g transform="translate(0.000000,279.000000) scale(0.100000,-0.100000)"
fill="#000000" stroke="none">
<path d="M1484 2485 c-66 -16 -71 -19 -90 -63 -13 -30 -15 -60 -10 -157 5
-112 8 -125 42 -192 20 -39 50 -84 66 -100 72 -66 109 -110 119 -141 13 -40 4
-116 -16 -132 -8 -7 -15 -25 -15 -40 0 -36 -30 -61 -82 -67 -61 -7 -117 11
-162 53 -38 35 -39 36 -30 87 19 123 2 226 -53 313 -30 47 -65 61 -127 51 -39
-6 -76 15 -76 43 0 10 -4 22 -10 25 -5 3 -10 -3 -10 -15 0 -17 -3 -19 -18 -11
-10 5 -87 10 -172 12 -85 1 -162 5 -170 9 -8 3 -53 4 -100 0 -62 -4 -89 -2
-98 7 -17 17 -67 16 -116 -2 -22 -8 -43 -12 -46 -10 -11 7 -98 -52 -113 -77
-14 -24 -22 -127 -12 -160 13 -40 138 -73 185 -48 27 14 101 1 107 -19 13 -45
36 -84 77 -132 85 -101 78 -97 148 -87 117 15 201 57 210 104 1 9 21 27 43 38
27 15 43 31 50 53 12 35 82 93 113 93 59 0 86 -107 38 -155 -23 -22 -23 -25
-11 -89 10 -52 21 -76 51 -111 22 -25 48 -59 59 -76 44 -68 87 -109 114 -109
48 1 191 29 221 45 16 8 35 15 43 15 8 0 38 28 68 62 48 55 55 69 66 132 17
99 16 178 -4 228 -21 53 -75 131 -122 178 -54 52 -141 160 -141 174 0 20 30
56 62 72 22 11 44 14 82 9 77 -10 236 -93 236 -124 0 -5 14 -26 31 -47 38 -48
69 -116 69 -154 0 -15 9 -57 20 -92 11 -34 20 -80 20 -102 0 -21 4 -55 9 -75
30 -114 35 -137 33 -144 -2 -8 11 -42 37 -97 34 -71 56 -108 82 -138 16 -18
37 -49 48 -70 24 -47 47 -67 91 -80 55 -17 170 -59 177 -66 4 -3 15 -6 25 -6
10 0 41 -11 68 -25 27 -14 66 -25 87 -25 21 0 54 -5 73 -11 35 -11 226 -31
290 -30 155 2 249 12 303 33 23 9 28 16 24 36 -8 42 91 117 141 105 31 -7 75
23 67 47 -7 23 5 31 34 23 30 -8 68 -78 77 -140 6 -46 4 -53 -11 -53 -9 0 -28
9 -42 20 -31 25 -45 25 -72 3 -18 -15 -22 -33 -27 -124 -9 -150 -7 -153 107
-147 73 4 93 9 104 24 13 17 16 17 25 4 8 -13 13 -13 37 1 25 14 27 20 23 55
-6 55 -4 144 5 176 5 20 2 34 -13 53 -12 15 -24 50 -28 83 -5 42 -14 66 -35
90 -33 37 -37 63 -13 83 15 12 18 11 28 -5 6 -10 23 -34 39 -53 15 -20 27 -42
27 -49 0 -7 8 -18 19 -23 10 -6 35 -34 55 -63 20 -29 51 -75 71 -103 19 -27
35 -55 35 -61 0 -18 63 -158 76 -169 6 -5 30 -36 53 -67 23 -32 45 -58 49 -58
4 0 18 -18 32 -40 14 -22 28 -40 32 -40 4 0 23 -25 42 -55 19 -30 48 -61 64
-69 32 -17 80 -68 108 -116 31 -53 96 -89 179 -101 97 -13 555 -5 620 11 28 7
79 21 115 31 78 23 103 29 155 34 93 11 135 30 135 63 0 7 6 28 14 45 8 18 17
40 20 51 4 12 12 16 24 13 9 -3 26 -9 38 -12 14 -4 30 2 51 19 17 14 35 26 41
26 15 0 92 95 92 114 0 8 23 39 50 67 28 28 50 55 50 60 0 8 76 49 90 49 4 0
13 -18 20 -41 14 -42 60 -89 87 -89 22 0 80 37 98 63 21 30 19 80 -6 111 -33
42 -180 103 -219 91 -11 -3 -20 -2 -20 4 0 5 -10 11 -21 13 -39 6 -47 34 -21
78 12 21 22 46 22 55 0 8 14 45 30 82 17 36 30 69 30 74 0 10 65 110 84 130 9
9 16 23 16 31 0 8 9 27 20 41 11 14 20 29 20 35 0 21 51 63 73 60 19 -3 23 2
25 31 4 38 28 74 109 159 29 31 70 78 91 103 20 26 57 58 82 72 86 50 210 107
257 118 26 7 64 20 83 29 24 12 73 20 150 25 70 5 121 12 130 20 12 11 31 11
90 3 41 -5 111 -13 155 -18 92 -8 129 -19 190 -54 81 -48 195 -179 195 -225 0
-11 10 -32 23 -48 49 -59 69 -249 41 -389 -19 -97 -34 -121 -87 -139 -44 -15
-51 -8 -36 34 13 38 8 55 -26 77 -25 16 -27 16 -54 -4 -47 -34 -87 -33 -131 5
-31 25 -32 29 -26 77 4 28 16 84 27 123 22 79 19 123 -11 183 -10 19 -27 43
-37 53 -21 18 -78 24 -128 13 -28 -6 -36 -1 -83 49 -50 53 -54 55 -104 55 -46
0 -54 -4 -88 -39 -25 -26 -39 -52 -43 -79 -10 -57 -25 -66 -76 -46 -106 42
-201 -26 -201 -145 0 -40 -5 -53 -23 -68 -12 -10 -35 -34 -50 -54 -26 -35 -30
-36 -65 -28 -66 15 -157 11 -182 -9 -30 -24 -39 -77 -24 -135 7 -27 11 -54 8
-61 -3 -7 -23 -23 -45 -37 -22 -13 -59 -39 -81 -56 -22 -18 -44 -33 -49 -33
-10 0 -49 -73 -49 -94 0 -8 13 -25 29 -39 39 -32 149 -49 346 -52 83 -1 192
-8 242 -15 75 -10 96 -10 108 0 8 7 15 17 15 23 0 6 7 18 16 28 19 21 9 45
-38 84 -31 26 -36 27 -100 21 -51 -5 -74 -2 -91 8 -17 11 -36 12 -92 4 -38 -5
-90 -6 -115 -2 -25 4 -53 6 -62 5 -31 -4 -19 19 12 26 17 3 33 10 36 14 3 5
18 9 34 9 39 0 74 14 99 41 29 31 26 57 -6 71 -42 18 -76 55 -69 74 10 25 66
10 162 -44 46 -26 103 -57 126 -69 23 -13 53 -34 67 -47 14 -14 47 -34 73 -45
l48 -20 -25 -52 c-22 -48 -23 -55 -9 -80 8 -17 33 -36 62 -49 39 -18 52 -20
78 -11 31 11 63 6 75 -11 21 -32 209 3 529 98 25 7 72 18 105 24 73 12 130 61
146 125 5 22 24 68 41 102 27 53 29 66 20 90 -24 64 -36 134 -25 151 19 31 35
18 77 -61 54 -101 95 -142 196 -196 81 -43 84 -44 134 -33 114 23 186 41 205
51 11 6 34 11 51 11 50 0 93 54 115 141 l17 70 -37 74 c-37 78 -90 130 -209
208 -36 24 -52 43 -66 78 -21 56 -16 109 10 109 10 0 25 6 32 14 16 15 88 30
133 27 16 -1 60 -20 97 -42 53 -32 68 -47 68 -65 0 -12 16 -40 35 -61 19 -21
48 -56 63 -78 51 -75 127 -157 162 -175 114 -57 208 -43 322 51 26 22 49 39
52 39 9 0 39 32 58 61 17 27 105 81 148 92 45 11 120 88 130 132 11 48 12 126
2 141 -9 13 -120 36 -134 28 -5 -4 -18 -25 -28 -49 -10 -24 -24 -47 -32 -51
-7 -5 -52 -7 -99 -5 -47 1 -103 -2 -125 -8 -21 -5 -50 -13 -64 -15 -34 -8 -61
-70 -66 -154 -4 -70 -24 -102 -62 -102 -19 0 -142 127 -179 185 -14 22 -53 67
-87 100 -33 33 -76 82 -93 108 -33 48 -51 55 -118 49 -173 -18 -181 -19 -235
-53 -30 -18 -78 -53 -107 -76 -45 -38 -53 -51 -64 -98 -11 -51 -11 -59 11
-104 24 -53 188 -223 226 -235 22 -7 64 -73 64 -100 0 -29 -70 -95 -114 -107
-62 -17 -130 -5 -179 31 -22 16 -50 30 -61 30 -25 0 -81 66 -134 159 -23 42
-53 86 -67 97 -13 12 -38 47 -55 77 -17 31 -37 61 -45 67 -7 6 -16 24 -20 39
-6 27 -150 203 -203 249 -15 13 -47 33 -72 44 -25 12 -58 33 -73 47 -25 23
-34 25 -106 22 -54 -2 -94 3 -127 14 -73 25 -342 25 -404 1 -25 -10 -60 -20
-79 -22 -19 -2 -50 -14 -70 -27 -21 -13 -67 -28 -109 -35 -113 -19 -271 -114
-309 -185 -12 -24 -129 -160 -165 -192 -101 -92 -188 -205 -261 -342 -13 -24
-24 -33 -42 -33 -23 0 -25 3 -19 38 3 21 -1 67 -10 105 -9 38 -16 88 -16 112
0 24 -11 80 -25 125 -23 71 -25 87 -16 137 6 30 15 61 20 67 4 6 11 23 15 37
7 30 64 69 101 69 27 0 45 -26 45 -64 0 -41 35 -57 100 -47 34 5 58 15 65 26
5 9 18 26 28 38 20 24 18 44 -16 114 -33 70 -87 94 -190 88 -61 -4 -85 -10
-115 -30 -20 -14 -50 -25 -67 -25 -37 0 -55 -16 -55 -48 0 -23 -55 -169 -71
-186 -12 -14 -57 2 -64 23 -3 10 -36 50 -73 89 -54 56 -77 73 -119 85 -28 8
-85 32 -126 51 -43 21 -89 36 -110 36 -20 0 -54 6 -74 14 -31 12 -200 27 -313
27 -58 1 -165 -25 -198 -47 -25 -17 -38 -21 -47 -14 -17 14 -45 3 -75 -30 -14
-15 -46 -35 -72 -43 -47 -15 -47 -15 -86 13 -22 16 -54 53 -70 82 -38 67 -59
86 -100 94 -28 6 -37 2 -67 -30 -30 -32 -35 -44 -35 -84 1 -70 58 -182 95
-182 6 0 26 -13 45 -29 l35 -29 -29 -31 c-16 -17 -39 -34 -50 -37 -12 -3 -43
-28 -71 -54 -27 -26 -70 -62 -95 -79 -59 -41 -160 -141 -160 -158 0 -8 -11
-18 -24 -23 -13 -5 -47 -29 -75 -54 -57 -50 -76 -51 -85 -2 -4 18 -20 45 -36
61 -28 27 -31 28 -56 14 -15 -8 -48 -33 -73 -57 -25 -23 -63 -52 -83 -64 -32
-18 -38 -27 -38 -54 0 -18 5 -36 10 -39 6 -3 10 -17 10 -29 0 -13 7 -29 15
-36 18 -15 5 -36 -30 -51 -11 -5 -27 -13 -35 -17 -66 -37 -152 -72 -185 -76
-22 -3 -65 -14 -95 -25 -30 -11 -73 -20 -95 -21 -22 0 -50 -7 -63 -15 -24 -17
-138 -15 -202 5 -19 5 -54 10 -77 10 -23 0 -68 7 -100 16 -32 9 -76 21 -98 27
-44 11 -173 86 -223 128 -33 29 -82 117 -82 148 0 23 -23 89 -50 141 -47 93
-26 303 44 438 19 38 74 64 166 81 36 7 82 17 102 23 32 9 45 8 90 -11 29 -12
72 -25 96 -28 23 -3 42 -9 42 -14 0 -11 82 -47 125 -55 19 -3 43 -3 52 1 10 4
34 7 55 6 48 -3 88 19 121 66 15 21 46 57 70 81 l43 42 41 -20 c23 -11 53 -20
67 -20 14 0 35 -4 49 -9 14 -6 57 -5 107 0 60 7 92 6 112 -2 35 -14 35 -20 -2
-41 -22 -13 -30 -24 -30 -46 0 -15 4 -32 9 -37 6 -6 19 -32 30 -58 l21 -48
-28 -10 c-45 -17 -90 -2 -146 50 -52 48 -144 111 -163 111 -6 0 -16 7 -23 15
-14 17 -85 20 -95 4 -4 -6 -9 -46 -12 -90 -6 -75 -4 -82 26 -139 18 -33 41
-93 52 -133 11 -39 27 -89 36 -110 14 -32 14 -41 3 -62 -7 -14 -17 -25 -22
-25 -5 0 -23 21 -41 46 -17 25 -44 60 -59 77 -16 17 -28 34 -28 39 0 10 -41
10 -56 0 -22 -14 -28 -58 -29 -188 0 -115 -2 -135 -19 -153 -25 -27 -37 -26
-66 4 -21 22 -24 36 -26 118 -2 94 -14 137 -37 137 -18 0 -57 -29 -57 -42 0
-6 -14 -27 -32 -47 -26 -30 -39 -36 -74 -38 -36 -2 -43 1 -48 20 -18 69 -1
120 71 203 34 39 50 50 65 46 26 -7 39 15 32 55 -5 26 -1 37 21 57 33 30 27
63 -13 72 -15 3 -38 9 -52 14 -14 5 -43 11 -65 15 -22 4 -56 15 -75 24 -134
67 -148 71 -213 57 -74 -16 -139 -147 -92 -186 20 -17 100 -39 112 -32 5 4 15
23 23 42 34 86 58 97 133 59 56 -28 77 -48 77 -72 0 -22 -85 -182 -129 -242
-18 -23 -32 -59 -36 -86 -7 -45 -6 -46 54 -107 66 -67 120 -96 164 -88 37 8
88 -30 112 -83 16 -37 82 -101 103 -101 5 0 17 9 27 20 10 11 27 20 37 20 11
0 39 20 64 45 38 39 44 51 44 86 0 45 -3 44 65 21 119 -40 147 -46 163 -34 10
7 25 15 34 18 24 9 30 31 17 76 -8 33 -8 43 5 57 12 13 16 39 16 97 l0 79 58
62 58 62 69 6 c93 7 97 9 135 57 l34 42 -27 48 c-25 44 -26 52 -15 76 19 39
54 54 115 47 46 -4 52 -3 58 16 4 12 31 45 61 74 41 40 54 59 54 82 0 40 -31
70 -82 78 -24 4 -54 13 -68 20 -14 7 -43 16 -65 20 -60 12 -236 14 -263 4 -13
-5 -76 -11 -140 -14 -146 -7 -185 -17 -201 -51 l-11 -26 -32 27 c-27 23 -37
25 -72 19 -23 -3 -48 -10 -58 -15 -9 -5 -49 -11 -90 -14 -40 -3 -103 -11 -140
-17 -62 -10 -69 -9 -104 11 -37 22 -44 22 -238 17 -273 -8 -249 -3 -259 -53
-7 -39 -16 -48 -39 -44 -19 3 -58 -106 -73 -201 -4 -25 -11 -38 -21 -38 -25 0
-61 48 -73 96 -7 25 -23 69 -37 97 -28 59 -25 91 8 101 22 6 22 7 -7 22 -32
15 -54 29 -95 56 -14 9 -47 19 -75 23 -27 3 -68 12 -90 20 -55 19 -170 24
-231 10z m3816 -325 c9 -16 7 -22 -7 -27 -10 -4 -47 -26 -82 -50 -35 -24 -69
-43 -77 -43 -7 0 -29 14 -48 31 -28 24 -47 32 -90 35 l-54 5 -5 -38 c-14 -95
-24 -143 -30 -149 -11 -12 -37 5 -37 24 0 10 -11 24 -25 30 -31 14 -31 29 -1
71 14 18 23 38 20 44 -6 17 97 61 115 50 10 -6 21 -3 34 10 11 11 27 17 40 14
12 -3 31 -1 42 3 11 5 59 9 107 9 78 1 88 -1 98 -19z m168 -29 c20 -11 62 -42
92 -70 30 -28 64 -51 75 -51 25 0 96 -70 127 -126 13 -23 42 -66 65 -96 25
-33 48 -79 58 -114 9 -33 25 -83 36 -111 10 -29 17 -53 14 -53 -2 0 0 -12 6
-27 16 -41 11 -258 -7 -312 -21 -62 -80 -177 -104 -203 -11 -12 -20 -26 -20
-30 0 -17 -80 -117 -103 -129 -23 -13 -59 -47 -92 -90 -12 -15 -34 -34 -50
-43 -17 -9 -46 -26 -65 -37 -80 -48 -132 -71 -172 -76 -24 -3 -56 -13 -73 -22
-24 -13 -63 -16 -205 -16 l-175 0 -47 30 c-27 16 -48 35 -48 42 0 13 47 53 64
53 6 0 24 14 40 30 32 33 55 33 92 -2 12 -10 37 -21 56 -24 46 -8 89 28 119
101 24 59 58 82 91 61 14 -8 23 -5 48 19 29 28 32 29 73 17 132 -39 157 -37
192 18 21 33 23 43 14 74 -6 21 -9 51 -7 69 3 31 5 32 58 38 59 6 156 45 178
72 22 26 -12 103 -60 138 -22 15 -44 29 -49 31 -7 2 -6 27 2 71 l12 67 -30 42
c-18 25 -42 45 -59 50 -16 4 -35 17 -42 29 -11 18 -11 24 2 38 9 10 16 27 16
39 0 21 -47 62 -72 62 -18 0 -38 20 -38 38 0 8 14 30 30 49 17 18 30 41 30 51
0 19 -36 82 -47 82 -19 1 -65 53 -69 78 -12 80 -17 98 -29 115 -31 45 10 60
73 28z m-4776 -63 c13 -7 28 -19 34 -27 9 -11 14 -11 31 0 17 10 25 10 36 1 8
-7 21 -10 29 -7 21 8 43 -46 30 -72 -6 -10 -8 -30 -5 -45 4 -23 1 -29 -21 -38
-15 -5 -26 -17 -26 -28 0 -18 -4 -18 -52 -9 -68 13 -84 28 -92 85 -4 26 -12
61 -17 79 -7 22 -7 38 1 53 12 23 22 25 52 8z m238 -28 c0 -5 -7 -10 -15 -10
-8 0 -15 5 -15 10 0 6 7 10 15 10 8 0 15 -4 15 -10z m3820 -101 c8 -73 101
-178 209 -236 28 -15 67 -17 76 -3 3 5 8 33 12 62 3 29 12 63 19 75 18 29 18
63 -1 63 -17 0 -19 9 -6 28 6 11 19 8 61 -11 62 -29 82 -26 115 17 24 29 25
30 25 8 0 -34 17 -62 62 -104 l40 -37 -22 -31 c-12 -17 -42 -47 -67 -68 -55
-45 -121 -109 -139 -137 -7 -11 -20 -42 -30 -70 l-16 -50 36 -31 c40 -34 102
-49 143 -33 13 5 57 9 97 9 39 0 77 5 83 11 6 6 23 9 39 7 43 -5 42 -32 -5
-78 -23 -23 -41 -50 -41 -60 0 -23 52 -48 117 -57 61 -8 72 -26 29 -47 -34
-16 -46 -15 -147 10 -33 7 -79 -20 -79 -48 0 -11 13 -26 30 -36 47 -26 53 -79
12 -101 -17 -9 -29 0 -87 59 -38 38 -76 82 -86 98 -34 53 -201 128 -246 111
-27 -10 -29 -35 -8 -105 8 -27 20 -87 26 -134 5 -47 17 -102 25 -123 8 -21 12
-42 9 -47 -9 -15 -35 1 -35 22 0 29 -29 78 -46 78 -22 0 -54 -18 -86 -48 -20
-18 -28 -36 -28 -59 0 -35 -42 -87 -64 -80 -16 5 -28 77 -16 92 6 7 10 41 8
75 -2 51 -7 65 -25 77 -19 13 -24 12 -52 -16 -18 -17 -41 -31 -53 -31 -18 0
-20 4 -14 31 3 17 6 38 6 45 0 8 10 14 24 14 17 0 31 11 47 38 30 47 57 71 92
78 44 10 41 22 -11 48 -53 27 -142 104 -142 123 0 7 -9 27 -19 44 -17 27 -36
43 -100 84 -29 18 -71 66 -71 80 0 8 5 17 10 20 7 4 6 13 -1 27 -11 20 -11 20
-35 -3 -13 -12 -24 -32 -24 -43 0 -12 -9 -34 -20 -51 -24 -37 -25 -68 -3 -105
18 -31 51 -50 88 -50 13 0 36 -13 52 -29 71 -75 93 -102 93 -115 0 -8 -22 -38
-48 -68 -61 -66 -109 -137 -117 -171 -4 -15 0 -47 10 -76 17 -53 46 -78 116
-100 20 -6 45 -22 56 -34 26 -29 63 -103 56 -111 -14 -14 -56 -4 -76 17 -12
13 -35 27 -51 31 -16 4 -40 20 -55 37 -16 18 -35 29 -52 29 -14 0 -34 9 -45
21 -10 12 -36 30 -56 40 -21 11 -38 23 -38 28 0 15 -102 161 -129 184 -29 26
-71 82 -71 95 0 13 -49 100 -60 107 -5 3 -18 24 -29 48 -12 24 -29 52 -38 63
-53 59 -85 109 -85 130 0 14 12 34 33 51 18 15 41 36 51 46 10 9 22 17 28 17
5 0 17 11 26 26 9 14 31 32 47 41 33 16 122 88 240 190 40 35 79 63 88 63 9 0
22 7 29 15 7 8 18 15 26 15 14 0 19 -14 58 -170 23 -92 50 -153 87 -195 22
-26 59 -118 59 -150 0 -16 9 -28 28 -38 15 -7 51 -29 79 -47 53 -33 53 -33
119 -22 45 7 75 19 91 34 73 67 94 143 61 219 -18 42 -25 49 -94 79 -41 18
-79 41 -85 51 -6 12 -21 19 -40 19 -30 0 -39 5 -84 46 -32 29 -61 122 -46 146
6 10 11 34 11 54 0 28 3 35 18 32 12 -2 18 -16 22 -49z m180 -55 c13 -33 13
-34 -5 -34 -17 0 -39 36 -30 50 11 17 25 11 35 -16z m4723 -46 c5 -17 -3 -48
-14 -48 -13 0 -18 15 -12 38 6 24 19 29 26 10z m-2320 -55 c8 -10 19 -31 23
-48 15 -64 73 -87 113 -44 14 15 27 20 44 15 55 -13 36 -104 -40 -188 -83 -91
-92 -124 -43 -160 36 -26 38 -38 6 -38 -13 0 -39 -7 -59 -15 -39 -16 -123 -71
-132 -86 -4 -5 -13 -9 -21 -9 -10 0 -14 12 -14 38 0 20 -9 53 -20 72 -33 57
-90 183 -90 198 0 6 -8 17 -18 24 -25 17 -42 51 -42 82 0 21 7 27 41 38 39 11
46 10 92 -15 36 -19 54 -24 67 -17 24 13 33 40 19 56 -10 12 -5 85 8 107 8 13
50 7 66 -10z m-2439 -319 c9 -22 -3 -32 -14 -14 -12 19 -12 30 -1 30 5 0 12
-7 15 -16z m56 -50 c0 -8 -4 -12 -10 -9 -5 3 -10 10 -10 16 0 5 5 9 10 9 6 0
10 -7 10 -16z m2683 -100 c17 -9 54 -19 82 -23 45 -5 50 -9 53 -33 3 -22 -2
-29 -22 -34 -16 -4 -35 -1 -49 8 -12 8 -38 17 -58 21 -20 3 -58 15 -83 27 -39
17 -45 24 -36 36 16 19 74 18 113 -2z m227 -48 c0 -9 -30 -14 -35 -6 -4 6 3
10 14 10 12 0 21 -2 21 -4z"/>
<path d="M4107 2453 c-9 -9 -9 -43 1 -43 4 0 15 6 24 14 13 10 15 15 6 24 -14
14 -22 15 -31 5z"/>
<path d="M3201 1734 c0 -11 3 -14 6 -6 3 7 2 16 -1 19 -3 4 -6 -2 -5 -13z"/>
<path d="M1930 1630 c-36 -35 -37 -50 -6 -79 31 -29 56 -22 80 24 l19 35 -23
25 c-30 32 -33 31 -70 -5z"/>
<path d="M6000 716 c0 -9 5 -16 10 -16 6 0 10 4 10 9 0 6 -4 13 -10 16 -5 3
-10 -1 -10 -9z"/>
</g>
</svg>
