<?xml version="1.0" encoding="UTF-8" standalone="no"?>
<svg
   xmlns:dc="http://purl.org/dc/elements/1.1/"
   xmlns:cc="http://creativecommons.org/ns#"
   xmlns:rdf="http://www.w3.org/1999/02/22-rdf-syntax-ns#"
   xmlns:svg="http://www.w3.org/2000/svg"
   xmlns="http://www.w3.org/2000/svg"
   xmlns:sodipodi="http://sodipodi.sourceforge.net/DTD/sodipodi-0.dtd"
   xmlns:inkscape="http://www.inkscape.org/namespaces/inkscape"
   version="1.0"
   width="522px"
   height="349px"
   viewBox="0 0 5220 3490"
   preserveAspectRatio="xMidYMid meet"
   id="svg7"
   sodipodi:docname="thewishend.svg"
   inkscape:version="0.92.2 5c3e80d, 2017-08-06">
  <metadata
     id="metadata13">
    <rdf:RDF>
      <cc:Work
         rdf:about="">
        <dc:format>image/svg+xml</dc:format>
        <dc:type
           rdf:resource="http://purl.org/dc/dcmitype/StillImage" />
        <dc:title></dc:title>
      </cc:Work>
    </rdf:RDF>
  </metadata>
  <defs
     id="defs11" />
  <sodipodi:namedview
     pagecolor="#ffffff"
     bordercolor="#666666"
     borderopacity="1"
     objecttolerance="10"
     gridtolerance="10"
     guidetolerance="10"
     inkscape:pageopacity="0"
     inkscape:pageshadow="2"
     inkscape:window-width="1767"
     inkscape:window-height="884"
     id="namedview9"
     showgrid="false"
     inkscape:zoom="1.5605115"
     inkscape:cx="190.22276"
     inkscape:cy="203.66613"
     inkscape:window-x="312"
     inkscape:window-y="383"
     inkscape:window-maximized="0"
     inkscape:current-layer="svg7" />
  <g
     id="layer101"
     fill="#545454"
     stroke="none"
     style="fill:#000000">
    <path
       d="M2400 3339 c-62 -69 -109 -170 -110 -236 0 -23 -3 -48 -6 -57 -7 -18 -46 -21 -74 -6 -11 6 -45 13 -78 16 -52 6 -61 4 -85 -17 -15 -13 -31 -38 -36 -56 -8 -26 -6 -34 12 -51 12 -10 37 -25 55 -32 18 -7 37 -21 42 -31 12 -21 13 -69 2 -69 -10 0 -29 -48 -36 -94 -3 -22 -13 -47 -21 -55 -15 -15 -19 -13 -43 15 -35 39 -87 70 -134 78 -32 6 -38 4 -38 -10 0 -10 6 -25 14 -33 21 -24 22 -50 4 -106 -9 -27 -19 -75 -23 -106 -3 -31 -12 -64 -18 -74 -12 -15 -15 -15 -42 -1 -53 27 -140 64 -167 71 -39 10 -77 -21 -78 -61 0 -35 48 -113 104 -171 25 -26 37 -51 51 -111 9 -42 21 -84 26 -93 5 -9 11 -50 14 -92 5 -74 5 -75 -20 -81 -15 -4 -84 -4 -155 0 -120 6 -130 6 -163 -15 -19 -11 -45 -21 -59 -21 -30 0 -81 -44 -105 -90 -29 -55 -28 -56 82 -124 16 -10 32 -23 34 -29 7 -19 54 -58 60 -49 9 14 202 -3 212 -19 8 -13 -6 -49 -24 -60 -5 -4 -30 2 -55 14 -52 22 -146 26 -182 7 -12 -6 -40 -28 -61 -47 -35 -32 -42 -35 -65 -24 -44 20 -122 14 -173 -15 -58 -31 -102 -94 -99 -141 3 -41 -1 -44 -51 -47 -48 -4 -80 -23 -118 -73 -25 -33 -28 -44 -28 -113 0 -64 5 -83 28 -122 15 -26 27 -51 27 -56 0 -13 -38 -9 -67 6 -12 7 -52 12 -89 12 -62 0 -72 -3 -121 -37 -44 -30 -60 -49 -84 -103 -18 -39 -31 -81 -31 -106 0 -22 -4 -47 -9 -55 -20 -30 -69 63 -69 130 0 13 8 48 17 78 16 52 16 54 -4 81 -17 22 -28 27 -61 25 -73 -3 -126 -39 -178 -120 -66 -104 -63 -232 9 -310 16 -19 18 -25 7 -38 -7 -8 -25 -15 -40 -15 -30 0 -40 -15 -40 -61 0 -23 10 -36 55 -69 30 -22 60 -40 68 -40 8 0 26 -9 41 -21 24 -19 39 -21 159 -20 73 0 209 3 302 7 94 4 175 6 180 5 9 -2 168 -4 1190 -15 204 -2 438 -9 520 -15 95 -7 173 -8 214 -3 46 7 80 5 115 -3 28 -7 158 -16 291 -20 245 -7 279 -9 445 -20 52 -3 156 -8 230 -10 74 -3 194 -7 265 -10 72 -3 274 -8 450 -11 176 -3 358 -7 405 -8 116 -4 130 1 158 58 44 88 16 136 -79 136 -32 0 -39 3 -39 20 0 10 14 35 31 55 24 27 39 35 65 35 38 0 38 0 24 67 -46 225 -48 230 -112 292 -28 28 -59 47 -97 58 -68 20 -80 19 -108 -13 -26 -29 -29 -62 -9 -119 9 -25 11 -46 5 -56 -4 -9 -6 -19 -3 -22 3 -3 -4 -24 -17 -46 -16 -29 -29 -41 -45 -41 -24 0 -27 8 -37 106 -9 82 -89 209 -140 220 -36 7 -106 -2 -153 -22 -41 -17 -67 -7 -70 28 -3 57 -18 91 -57 128 -23 22 -46 40 -53 40 -17 0 -26 47 -14 70 29 54 3 172 -52 234 -48 54 -88 69 -170 64 l-61 -3 -22 39 c-36 65 -92 98 -176 105 -78 8 -132 3 -124 -9 3 -4 -10 -14 -28 -21 -17 -7 -50 -30 -71 -50 -22 -21 -43 -36 -47 -33 -14 8 -22 75 -11 86 5 5 43 16 83 24 60 11 78 19 95 42 13 16 40 36 61 46 52 24 87 79 80 128 -3 21 -12 44 -21 53 -19 20 -95 47 -108 39 -5 -3 -22 7 -37 23 -37 39 -83 57 -118 47 -26 -8 -54 -9 -125 -6 -37 3 -43 40 -23 133 30 140 78 239 140 294 25 22 34 52 25 84 -5 17 -8 34 -8 38 1 3 -9 17 -21 30 -24 24 -84 32 -96 13 -3 -5 -17 -10 -29 -10 -13 0 -40 -13 -60 -29 -37 -30 -88 -47 -105 -37 -5 4 -12 21 -16 39 -11 52 -75 175 -100 191 -40 27 -87 5 -111 -52 -8 -19 -17 -33 -19 -30 -8 8 -32 108 -39 162 -3 27 -13 60 -21 72 -26 40 -20 56 52 131 37 40 47 41 77 8 13 -14 28 -25 35 -25 33 0 -19 120 -74 168 -34 30 -42 33 -94 31 -68 -3 -96 -13 -139 -53 -40 -37 -52 -26 -46 40 5 48 -11 95 -46 134 -12 14 -34 45 -48 70 -14 25 -30 47 -34 48 -4 2 -8 10 -8 17 0 23 -42 45 -85 45 -37 0 -45 -5 -95 -61z m145 -190 c0 -19 7 -45 15 -59 15 -26 28 -124 32 -245 2 -55 0 -70 -11 -70 -21 0 -30 45 -36 180 -2 66 -9 136 -15 155 -14 48 -13 83 3 77 6 -2 12 -19 12 -38z m-74 -146 c4 -103 -1 -257 -10 -266 -11 -11 -56 13 -77 41 -10 13 -14 12 -34 -11 -20 -23 -58 -28 -44 -6 3 5 0 9 -6 9 -7 0 -10 6 -7 13 3 7 -6 23 -19 36 -13 12 -20 29 -17 37 5 13 9 12 27 -3 11 -10 23 -21 26 -25 4 -4 19 -10 36 -14 42 -8 61 17 66 91 3 33 11 72 18 88 15 30 40 36 41 10z m262 -149 c4 -4 3 -12 -1 -18 -4 -6 -7 -15 -7 -21 0 -5 -6 -10 -14 -10 -8 0 -15 -15 -17 -43 -3 -30 -29 -117 -35 -117 -1 0 -32 -140 -39 -175 -14 -69 -12 -201 5 -297 8 -49 15 -99 17 -113 4 -34 67 -97 93 -92 12 2 39 28 60 58 31 43 54 62 103 85 76 37 96 35 100 -7 4 -39 -37 -77 -73 -68 -16 4 -33 -4 -61 -28 -22 -18 -41 -37 -42 -41 -2 -4 -15 -21 -29 -37 -20 -24 -33 -30 -65 -30 -51 0 -82 32 -98 102 -7 26 -18 51 -24 56 -7 4 -20 23 -30 42 -14 28 -17 61 -17 170 1 74 4 149 7 165 3 17 8 57 12 91 5 41 16 74 35 102 15 23 27 49 27 58 0 28 23 98 37 115 7 8 13 23 13 31 0 21 30 35 43 22z m144 -51 c-4 -3 -10 -3 -14 0 -3 4 0 7 7 7 7 0 10 -3 7 -7z m-27 -18 c0 -9 -6 -12 -16 -8 -13 5 -13 7 -2 14 17 11 18 11 18 -6z m-498 -79 c-2 -9 11 -28 28 -42 16 -14 30 -33 30 -43 0 -9 4 -21 9 -26 28 -32 59 -328 42 -405 -5 -25 -12 -58 -15 -74 -7 -40 -48 -136 -58 -136 -4 0 -8 -6 -8 -13 0 -39 -82 -63 -127 -39 -12 7 -36 32 -53 57 -38 56 -65 72 -78 48 -7 -11 -6 -23 1 -34 12 -20 2 -52 -16 -47 -6 2 -22 32 -33 67 -12 34 -26 67 -33 74 -6 6 -11 19 -11 29 0 15 9 18 61 18 58 0 63 -2 104 -42 23 -24 50 -55 60 -70 11 -17 26 -28 40 -28 26 0 65 43 65 71 0 10 4 20 8 23 17 10 32 113 31 206 -2 112 -18 260 -31 276 -5 7 -9 29 -10 50 0 22 -7 48 -15 59 -16 24 -17 48 0 42 6 -2 11 -12 9 -21z m-44 -559 c-8 -15 -12 -17 -18 -6 -5 7 -4 22 2 32 8 15 12 17 18 6 5 -7 4 -22 -2 -32z m440 31 c16 -16 15 -48 -2 -48 -14 0 -26 21 -26 46 0 17 12 18 28 2z m-233 -443 c0 -18 -5 -25 -19 -25 -12 0 -16 5 -12 16 3 9 6 22 6 30 0 7 6 11 13 9 6 -3 12 -16 12 -30z m-431 -14 c7 -11 43 -3 71 15 18 12 25 11 53 -6 40 -25 48 -25 79 0 33 25 35 25 67 -6 31 -32 32 -38 6 -64 l-20 -20 22 -22 23 -23 -40 -6 c-22 -4 -53 -4 -70 -2 -16 3 -64 5 -105 4 -69 -2 -73 -1 -55 13 14 10 35 13 65 10 49 -5 141 15 147 32 2 7 -11 8 -39 4 -24 -3 -65 -2 -92 3 -27 5 -64 6 -82 2 -28 -5 -32 -10 -31 -33 2 -24 -2 -27 -33 -30 -20 -2 -46 1 -60 6 l-24 9 32 14 c43 19 40 29 -9 29 -30 0 -40 -4 -36 -13 12 -32 -11 -42 -97 -42 -106 0 -140 21 -39 24 60 2 92 15 77 30 -5 5 -220 20 -346 24 -31 1 -60 5 -64 9 -4 4 -12 4 -18 -2 -7 -5 -17 -5 -26 0 -9 6 -10 10 -3 10 6 0 25 12 42 26 l31 26 37 -24 c21 -12 40 -21 43 -20 3 2 13 10 22 19 12 11 26 13 45 9 49 -13 186 -9 221 5 26 11 36 11 52 1 27 -17 85 -15 100 3 12 15 41 7 54 -14z m657 -10 c26 -20 68 -20 105 0 19 10 27 8 50 -10 34 -27 40 -27 69 7 l23 27 29 -27 c35 -34 45 -34 84 -6 28 21 31 21 58 5 36 -21 50 -21 72 -1 16 14 21 14 58 -6 38 -19 43 -19 64 -5 24 17 63 20 72 5 8 -13 61 -13 87 1 15 8 30 7 64 -6 33 -12 48 -14 64 -5 23 12 40 6 40 -15 0 -14 -25 -24 -65 -26 -62 -2 -134 -3 -160 0 -16 1 -74 2 -128 1 -64 -1 -102 2 -112 10 -12 10 -20 9 -41 -5 -19 -12 -36 -15 -63 -10 -20 4 -138 6 -263 6 -147 -1 -229 2 -233 9 -3 5 -1 10 5 10 6 0 8 5 4 11 -5 8 0 10 17 6 19 -5 29 0 43 18 23 30 26 30 57 6z m-1345 -15 c10 -11 11 -15 1 -19 -18 -6 -37 3 -37 19 0 18 18 18 36 0z m1113 -45 c2 -51 -12 -77 -22 -40 -7 24 3 89 13 89 3 0 7 -22 9 -49z m988 -68 c-4 -3 -10 -3 -14 0 -3 4 0 7 7 7 7 0 10 -3 7 -7z m-1147 -163 c0 -6 -14 -25 -31 -42 -21 -23 -28 -38 -24 -53 3 -11 9 -45 12 -76 6 -63 -20 -149 -61 -204 -45 -60 -79 -148 -87 -228 -8 -80 -5 -123 12 -143 5 -6 6 -14 2 -17 -3 -4 1 -15 9 -24 28 -33 30 -43 9 -43 -20 0 -41 26 -93 118 -17 30 -22 59 -26 157 -4 120 -4 120 33 215 21 52 51 110 67 128 42 48 34 67 -26 65 -27 -1 -55 -8 -65 -17 -10 -9 -23 -16 -29 -16 -7 0 -12 -3 -12 -8 0 -23 -172 -55 -200 -37 -13 8 0 35 16 35 8 0 14 4 14 8 0 5 11 14 25 20 14 6 54 34 89 62 79 62 123 78 196 70 54 -6 111 7 125 30 8 13 45 13 45 0z m593 -32 c9 -5 17 -6 17 -4 0 8 90 -43 143 -81 26 -19 47 -36 47 -38 0 -37 -29 -36 -144 5 -65 23 -83 21 -95 -12 -8 -21 10 -71 29 -83 15 -9 41 -68 61 -137 35 -125 19 -271 -43 -374 -47 -80 -93 -96 -52 -19 22 41 29 134 15 191 -12 48 -92 200 -121 232 -50 53 -70 107 -74 200 -5 101 -5 101 64 121 25 8 50 15 55 16 15 5 77 -6 98 -17z m-1430 -50 c14 -7 31 -23 37 -36 15 -34 12 -79 -5 -86 -9 -3 -15 0 -15 10 0 8 -5 12 -10 9 -6 -4 -10 -3 -9 2 5 28 -4 42 -31 48 -35 8 -57 -6 -62 -36 -3 -17 -5 -18 -21 -7 -25 19 -13 74 22 93 33 18 60 19 94 3z m2243 -13 c4 -8 10 -12 15 -10 4 3 17 -3 29 -15 21 -21 29 -100 9 -100 -5 0 -7 4 -4 10 3 5 0 7 -8 5 -14 -6 -41 61 -31 77 3 5 2 8 -3 7 -4 -1 -16 1 -26 6 -9 4 -29 5 -42 3 -16 -4 -25 -1 -25 8 0 25 77 34 86 9z m-2514 -95 c19 -21 15 -27 -26 -34 -37 -7 -56 -24 -56 -50 -1 -56 -33 -52 -44 5 -8 46 0 66 33 84 37 20 74 18 93 -5z m2930 -91 c7 -45 -8 -44 -26 1 -21 53 -20 67 3 46 10 -9 21 -31 23 -47z m-134 12 c2 -6 8 -9 12 -6 18 11 39 -50 31 -87 -16 -68 -36 -78 -39 -21 -4 57 -26 83 -67 83 -36 0 -46 15 -23 38 14 14 81 9 86 -7z m-1450 -13 c8 -8 15 -8 28 3 14 11 18 11 31 -6 43 -58 97 -212 91 -261 -3 -27 -5 -29 -44 -27 -32 2 -45 -2 -63 -21 -21 -22 -24 -23 -51 -10 -15 8 -30 25 -32 37 -4 23 -2 245 3 280 3 20 20 22 37 5z m-127 -52 c13 -48 13 -266 0 -279 -13 -13 -30 0 -41 29 -14 35 -37 40 -64 15 -25 -24 -42 -27 -49 -8 -10 30 7 115 34 166 16 29 29 59 29 65 0 26 31 56 56 54 19 -2 27 -10 35 -42z m-884 17 c-4 -3 -10 -3 -14 0 -3 4 0 7 7 7 7 0 10 -3 7 -7z m83 -8 c55 0 63 -25 13 -36 -18 -3 -33 -3 -33 2 0 5 -3 9 -7 8 -21 -3 -51 14 -46 27 3 8 10 11 17 7 6 -4 31 -7 56 -8z m1777 -32 c-4 -3 -7 0 -7 7 0 7 3 10 7 7 3 -4 3 -10 0 -14z m-2369 -42 c3 -16 -2 -21 -18 -21 -12 0 -35 -14 -52 -31 l-31 -30 21 -22 c14 -15 18 -27 13 -36 -12 -19 -29 -6 -46 36 -21 50 -19 61 18 98 40 40 90 43 95 6z m832 -107 c-21 -116 -27 -304 -10 -304 8 0 13 36 9 66 0 4 5 10 12 15 9 5 14 36 15 96 1 48 4 104 8 123 8 38 32 77 42 68 24 -25 -28 -414 -66 -488 -25 -47 -87 -109 -129 -126 -31 -13 -33 -13 -28 3 46 140 55 187 64 348 10 168 11 171 48 248 21 43 42 74 47 69 4 -4 -1 -57 -12 -118z m-242 69 c15 -9 29 -18 30 -19 7 -5 -10 -44 -25 -59 -8 -9 -13 -18 -10 -21 9 -10 47 20 47 37 0 20 27 33 36 17 4 -6 0 -15 -9 -20 -9 -5 -19 -25 -23 -44 -4 -20 -22 -56 -41 -81 -19 -25 -31 -48 -28 -51 4 -4 12 0 18 9 8 10 19 14 31 9 17 -6 12 -15 -44 -71 -34 -35 -60 -56 -57 -46 4 9 2 17 -3 17 -5 0 -7 7 -3 15 3 9 8 14 10 11 8 -8 33 21 33 38 0 9 -5 16 -11 16 -5 0 -7 -4 -4 -10 3 -5 -1 -10 -10 -10 -17 0 -64 -48 -65 -65 0 -6 -16 -24 -36 -40 -20 -17 -43 -36 -50 -42 -20 -20 -50 -15 -61 10 -14 31 7 140 36 189 12 20 42 53 67 73 48 39 56 67 24 81 -20 9 -20 10 11 42 25 25 40 32 71 32 21 0 51 -8 66 -17z m-310 -26 c1 -19 6 -46 12 -61 13 -34 13 -33 -4 -39 -17 -7 -39 76 -29 111 8 33 20 27 21 -11z m-124 -61 c3 -45 11 -86 19 -93 10 -11 13 -10 14 7 1 11 -2 22 -7 25 -4 3 -2 30 5 60 12 53 24 79 26 59 1 -5 3 -21 4 -35 5 -39 32 -99 46 -99 7 0 9 -11 5 -32 -3 -18 -8 -49 -11 -68 -11 -63 -29 -69 -102 -31 -26 12 -46 33 -57 55 -9 20 -24 39 -32 44 -9 5 -15 11 -14 13 1 2 -2 11 -5 20 -3 9 -5 38 -3 65 2 35 7 49 18 49 8 0 15 -9 16 -20 0 -11 1 -35 2 -52 3 -55 27 -40 29 17 1 42 27 110 38 98 1 -1 5 -39 9 -82z m2298 40 c14 -20 8 -44 -12 -49 -13 -3 -20 -13 -20 -29 1 -29 16 -49 57 -73 38 -22 73 -82 75 -127 1 -35 -36 -118 -53 -118 -11 0 -28 40 -22 55 2 6 -37 48 -86 94 -116 107 -124 122 -102 196 15 53 18 56 43 51 17 -3 35 1 50 13 23 20 52 14 70 -13z m272 -22 c9 -3 16 -17 16 -31 0 -15 10 -33 25 -45 14 -11 25 -28 25 -39 0 -10 8 -24 18 -30 15 -9 17 -19 13 -43 -6 -26 -15 -34 -68 -54 -83 -33 -106 -26 -128 35 -9 27 -21 56 -26 65 -15 30 -10 42 35 77 24 19 50 43 57 53 15 21 13 20 33 12z m377 -45 c23 -23 35 -75 25 -112 -8 -32 -89 -76 -112 -62 -24 15 -21 28 12 45 15 9 32 29 37 45 9 26 7 32 -22 55 -17 15 -31 32 -31 38 0 21 68 14 91 -9z m-956 -57 c22 -160 40 -242 77 -365 25 -83 17 -102 -36 -73 -48 26 -105 108 -138 200 -24 69 -28 94 -26 165 4 107 21 116 37 19 17 -98 20 -108 36 -108 16 0 23 48 18 120 -7 100 19 136 32 42z m-1508 -39 c-4 -3 -10 -3 -14 0 -3 4 0 7 7 7 7 0 10 -3 7 -7z m-1025 -8 c3 -3 -4 -24 -15 -47 -48 -97 -12 -194 93 -252 51 -28 63 -30 155 -30 72 0 115 5 155 19 65 22 93 25 101 12 4 -5 12 0 18 12 7 11 18 21 25 21 8 0 24 8 37 19 32 25 59 16 59 -20 0 -28 22 -41 34 -20 8 13 53 20 64 9 4 -4 17 1 29 11 12 11 46 31 77 44 31 13 54 26 51 28 -3 3 7 12 23 19 15 8 42 25 61 38 25 19 35 22 41 12 12 -20 -7 -52 -47 -80 -19 -14 -41 -32 -49 -40 -8 -8 -33 -36 -56 -62 -54 -59 -183 -128 -236 -127 -43 1 -107 22 -106 35 0 5 4 22 8 37 6 21 4 33 -6 44 -14 13 -18 12 -43 -11 -24 -23 -75 -44 -125 -52 -8 -1 -37 -7 -65 -12 -88 -19 -215 -8 -287 24 -35 16 -68 33 -74 39 -7 6 -25 22 -40 36 -36 30 -54 69 -54 116 0 47 20 103 38 103 7 0 11 4 8 9 -15 23 106 86 126 66z m338 -38 c0 -42 25 -77 55 -77 63 0 77 -41 21 -64 -49 -20 -79 -10 -110 37 -22 35 -26 49 -21 82 3 22 11 43 18 47 25 16 37 8 37 -25z m3515 -2 c37 -7 78 -42 100 -85 17 -33 23 -161 9 -214 -6 -27 -80 -91 -128 -111 -69 -29 -276 -39 -276 -14 0 12 39 31 50 24 5 -3 11 -1 15 5 3 5 18 10 33 10 14 0 58 16 98 35 93 45 118 82 118 172 0 51 -5 69 -28 102 -16 22 -37 43 -47 46 -32 10 -21 50 10 41 9 -3 30 -7 46 -11z m-3748 -13 c7 -4 21 -28 32 -52 11 -25 38 -65 61 -90 46 -51 48 -74 6 -78 -54 -6 -91 8 -135 50 -42 41 -43 44 -38 92 3 36 11 55 27 68 25 20 30 21 47 10z m-572 -55 c-8 -65 11 -120 55 -157 17 -14 32 -35 34 -47 7 -34 -23 -37 -61 -6 -30 24 -45 46 -84 125 -13 26 -11 55 7 91 34 65 57 62 49 -6z m2191 16 c-11 -11 -17 4 -9 23 7 18 8 18 11 1 2 -10 1 -21 -2 -24z m-1510 -10 c4 -16 14 -37 23 -47 11 -14 12 -17 2 -11 -11 6 -13 4 -8 -8 4 -11 2 -14 -9 -10 -14 5 -17 13 -17 46 0 9 -4 17 -8 17 -5 0 -9 9 -9 20 0 30 19 24 26 -7z m3501 -36 c7 -7 16 -27 19 -45 6 -30 2 -37 -40 -77 -34 -33 -54 -45 -77 -45 -16 0 -49 -5 -72 -11 -30 -7 -51 -7 -71 1 -27 10 -28 12 -21 58 10 66 19 78 64 86 22 3 52 17 68 30 15 12 35 25 43 28 19 6 70 -8 87 -25z m-409 -39 c1 -25 -5 -37 -23 -51 -28 -20 -75 -14 -75 11 0 8 3 12 6 9 11 -10 65 26 60 40 -3 6 3 14 12 16 9 3 17 5 17 6 1 0 2 -14 3 -31z m1022 -59 c0 -37 -4 -71 -10 -74 -5 -3 -10 -14 -10 -22 0 -24 -41 -80 -65 -91 -25 -12 -55 2 -55 24 0 8 7 17 15 20 27 11 65 90 76 155 12 75 16 84 35 68 10 -8 14 -33 14 -80z m-4707 35 c-4 -10 -9 -12 -15 -6 -12 12 -1 35 12 27 5 -3 6 -13 3 -21z m2174 -14 c7 -14 15 -42 18 -64 6 -36 8 -38 37 -32 30 6 30 5 24 -25 -3 -17 -6 -37 -6 -45 0 -7 -7 -20 -16 -29 -15 -14 -18 -14 -35 6 -10 12 -19 26 -19 31 0 5 -12 35 -26 66 -29 63 -38 98 -28 113 10 17 38 5 51 -21z m2010 -17 c-4 -3 -7 0 -7 7 0 7 3 10 7 7 3 -4 3 -10 0 -14z m-990 -48 c32 -30 64 -53 71 -50 7 3 22 0 32 -5 11 -6 48 -12 83 -15 59 -5 65 -3 87 22 15 17 25 23 28 15 2 -7 19 -12 38 -12 40 0 74 -15 74 -33 0 -7 -9 -23 -20 -37 -11 -14 -20 -35 -20 -47 0 -27 -15 -32 -60 -21 -19 5 -57 13 -85 18 -81 14 -152 39 -159 56 -3 8 -10 12 -16 9 -5 -3 -10 -1 -10 4 0 6 -6 11 -13 11 -23 0 -106 83 -113 113 -10 43 18 34 83 -28z m458 -105 c3 -5 13 -6 22 -3 11 4 14 2 11 -8 -7 -22 -32 -22 -46 1 -7 11 -8 20 -3 20 6 0 12 -4 16 -10z m142 -56 c6 -17 -46 -12 -52 4 -3 9 3 12 22 10 14 -2 28 -8 30 -14z m-2297 -38 c102 -3 325 -8 495 -11 391 -6 495 -13 495 -30 0 -19 -111 -33 -220 -29 -176 8 -546 7 -560 -1 -8 -5 -11 -4 -6 3 5 8 -60 11 -238 9 -134 -1 -242 -5 -240 -8 2 -4 -15 -3 -39 1 -34 7 -407 12 -557 9 -19 0 -46 0 -60 0 -134 4 -385 -5 -399 -13 -11 -7 -162 14 -183 25 -23 12 -23 25 -1 34 10 3 303 8 653 11 349 3 636 7 639 10 2 2 12 2 20 0 9 -3 99 -7 201 -10z m1245 -47 c11 1 36 3 56 4 40 4 124 -6 153 -18 13 -6 17 -5 13 2 -5 7 16 10 63 9 82 -1 103 -21 26 -25 -78 -4 -283 -4 -354 -1 -51 2 -65 7 -74 23 -10 19 -8 20 43 13 30 -4 63 -7 74 -7z m382 -26 c-4 -3 -7 0 -7 7 0 7 3 10 7 7 3 -4 3 -10 0 -14z m396 4 c9 -1 17 -9 17 -19 0 -17 -11 -18 -155 -13 -147 4 -195 13 -195 35 0 8 188 6 333 -3z m552 -12 c349 -7 395 -12 379 -36 -3 -5 -10 -7 -15 -3 -5 3 -15 1 -22 -4 -13 -11 -471 -10 -497 1 -8 4 -93 8 -188 11 -95 2 -175 6 -179 9 -3 4 -3 12 -1 19 6 14 1 14 523 3z m620 -15 c7 -12 -13 -42 -24 -36 -3 2 -25 1 -48 -4 -24 -4 -40 -3 -37 1 3 5 -11 9 -30 9 -26 0 -34 4 -30 14 4 10 22 13 70 11 35 -1 67 2 70 6 7 12 21 11 29 -1z m-188 -7 c-4 -3 -10 -3 -14 0 -3 4 0 7 7 7 7 0 10 -3 7 -7z m-22 -13 c3 -5 4 -10 1 -10 -3 0 -8 5 -11 10 -3 6 -4 10 -1 10 3 0 8 -4 11 -10z"
       id="path2"
       style="fill:#000000" />
    <path
       d="M3160 630 c0 -5 5 -10 10 -10 6 0 10 5 10 10 0 6 -4 10 -10 10 -5 0 -10 -4 -10 -10z"
       id="path4"
       style="fill:#000000" />
  </g>
</svg>
