<?xml version="1.0" encoding="UTF-8" standalone="no"?>
<svg
   xmlns:dc="http://purl.org/dc/elements/1.1/"
   xmlns:cc="http://creativecommons.org/ns#"
   xmlns:rdf="http://www.w3.org/1999/02/22-rdf-syntax-ns#"
   xmlns:svg="http://www.w3.org/2000/svg"
   xmlns="http://www.w3.org/2000/svg"
   xmlns:sodipodi="http://sodipodi.sourceforge.net/DTD/sodipodi-0.dtd"
   xmlns:inkscape="http://www.inkscape.org/namespaces/inkscape"
   version="1.0"
   width="243px"
   height="239px"
   viewBox="0 0 2430 2390"
   preserveAspectRatio="xMidYMid meet"
   id="svg37"
   sodipodi:docname="introductiondecoration.svg"
   inkscape:version="0.92.2 5c3e80d, 2017-08-06">
  <metadata
     id="metadata43">
    <rdf:RDF>
      <cc:Work
         rdf:about="">
        <dc:format>image/svg+xml</dc:format>
        <dc:type
           rdf:resource="http://purl.org/dc/dcmitype/StillImage" />
        <dc:title></dc:title>
      </cc:Work>
    </rdf:RDF>
  </metadata>
  <defs
     id="defs41" />
  <sodipodi:namedview
     pagecolor="#ffffff"
     bordercolor="#666666"
     borderopacity="1"
     objecttolerance="10"
     gridtolerance="10"
     guidetolerance="10"
     inkscape:pageopacity="0"
     inkscape:pageshadow="2"
     inkscape:window-width="1968"
     inkscape:window-height="1040"
     id="namedview39"
     showgrid="false"
     inkscape:zoom="3.9497908"
     inkscape:cx="118.98994"
     inkscape:cy="152.52524"
     inkscape:window-x="84"
     inkscape:window-y="56"
     inkscape:window-maximized="0"
     inkscape:current-layer="layer101" />
  <g
     id="layer101"
     fill="#5e5e5e"
     stroke="none">
    <path
       d="M1118 2233 c-31 -3 -38 -8 -38 -26 0 -14 -12 -30 -33 -43 -48 -31 -88 -113 -95 -191 -3 -48 -9 -66 -21 -70 -42 -13 -60 -28 -87 -74 -24 -42 -33 -49 -51 -44 -54 13 -88 -88 -39 -120 13 -8 31 -13 40 -9 11 4 28 -7 56 -37 21 -24 39 -48 40 -54 0 -5 -13 -23 -30 -40 -16 -16 -40 -43 -52 -58 l-23 -28 -67 12 c-54 10 -79 10 -125 0 -32 -7 -65 -19 -73 -25 -8 -7 -30 -19 -48 -26 -49 -19 -122 -106 -170 -203 -24 -48 -51 -91 -62 -97 -10 -5 -28 -26 -40 -46 -35 -55 -22 -122 34 -187 24 -27 42 -57 41 -66 -2 -9 -4 -22 -4 -30 -1 -11 -4 -11 -16 -1 -28 23 -15 -7 17 -42 18 -20 38 -44 44 -54 18 -29 27 -9 11 23 -13 24 -13 30 0 41 10 10 17 11 28 2 17 -14 28 1 18 27 -6 17 -5 16 16 -2 19 -17 20 -21 7 -23 -20 -4 -20 0 4 -47 11 -22 20 -45 20 -52 0 -13 19 -28 26 -20 3 3 0 23 -6 45 -13 42 -2 82 23 82 21 0 51 -91 50 -149 0 -47 -4 -58 -28 -79 l-28 -23 -38 37 c-37 36 -39 37 -39 15 0 -16 4 -21 15 -17 11 4 15 -2 15 -23 0 -20 -8 -34 -27 -47 -16 -10 -31 -19 -35 -19 -4 0 -13 -6 -19 -12 -10 -10 -10 -13 -1 -13 7 0 12 -9 12 -19 0 -45 110 -30 135 19 8 16 12 36 9 44 -3 9 -1 16 5 16 6 0 11 -4 11 -10 0 -5 7 -10 16 -10 11 0 14 6 9 20 -4 14 2 30 20 51 23 28 26 39 23 98 -3 64 -4 66 -30 69 -21 3 -29 10 -34 30 -11 52 -12 53 -46 47 -29 -6 -36 -2 -56 24 -12 17 -22 35 -22 41 0 5 -9 10 -19 10 -12 0 -23 -11 -30 -32 -6 -17 -14 -28 -18 -24 -9 8 -6 221 3 249 8 27 28 15 32 -19 4 -34 28 -64 51 -64 32 0 61 30 61 62 0 36 -56 98 -89 98 -30 0 -37 27 -15 58 11 15 26 40 34 56 21 41 107 115 165 142 53 25 168 34 180 13 7 -10 -19 -74 -34 -83 -12 -8 -27 13 -35 47 -3 15 -12 27 -19 27 -20 0 -53 -40 -68 -82 -12 -34 -17 -38 -47 -38 -40 0 -88 -23 -102 -49 -15 -29 -13 -31 33 -31 34 0 49 -6 68 -26 13 -15 43 -35 67 -46 27 -12 42 -25 42 -37 0 -25 -10 -32 -31 -20 -24 13 -62 -11 -82 -52 -8 -17 -29 -38 -48 -47 -35 -18 -50 -52 -42 -96 5 -24 9 -26 38 -20 29 5 36 2 58 -28 13 -18 28 -44 32 -58 9 -28 42 -80 63 -95 11 -9 10 -17 -3 -47 -16 -41 -20 -94 -6 -102 4 -3 16 3 26 14 10 11 32 24 50 30 18 6 37 22 43 35 8 17 20 25 37 25 25 0 25 -1 10 -29 -8 -17 -19 -33 -25 -36 -24 -15 -8 -27 30 -22 22 3 40 2 40 -2 0 -4 -26 -22 -57 -41 -48 -29 -67 -35 -118 -36 -33 0 -71 2 -85 6 -14 4 -36 1 -50 -6 l-24 -13 28 -11 c15 -5 31 -8 36 -5 5 3 12 0 15 -5 22 -36 162 -42 250 -11 31 11 79 36 107 57 43 30 55 35 70 25 10 -6 24 -11 31 -11 8 0 29 -22 48 -50 19 -27 42 -50 51 -50 9 0 34 20 55 45 42 51 82 59 124 27 92 -72 184 -103 299 -103 76 1 92 4 151 33 l65 33 37 -39 36 -39 93 7 c51 4 102 7 113 6 64 -1 77 18 49 71 -19 38 -15 43 31 35 33 -7 36 -10 30 -33 -9 -36 18 -73 53 -73 72 0 97 73 46 134 -15 17 -30 31 -33 31 -9 1 -52 15 -83 27 -23 8 -26 13 -18 29 6 10 8 29 4 43 -4 18 3 31 33 60 l38 37 -24 18 c-19 15 -21 21 -13 38 16 30 25 116 18 166 -9 57 -55 127 -105 160 -25 17 -49 47 -71 88 -48 92 -75 123 -170 193 -136 100 -211 124 -320 106 l-70 -12 -50 42 c-51 43 -61 60 -35 60 8 0 34 19 57 42 33 33 49 42 70 39 30 -3 78 36 78 64 0 13 -18 49 -37 75 -2 2 -19 3 -37 2 -28 -2 -35 1 -40 22 -5 22 -51 64 -101 92 -12 7 -19 20 -17 34 3 28 -23 116 -44 148 -28 42 -67 82 -81 82 -7 0 -13 9 -13 20 0 10 -10 28 -22 40 -21 19 -33 21 -110 13z m121 -148 c29 -14 71 -85 71 -118 0 -10 -8 -20 -17 -23 -55 -18 -71 -28 -86 -53 -35 -60 -12 -155 41 -167 15 -3 32 -7 39 -9 6 -2 27 6 45 18 26 18 34 31 36 60 4 46 19 47 66 7 72 -63 47 -190 -40 -203 -26 -4 -35 1 -57 28 -29 36 -84 53 -117 35 -11 -6 -27 -24 -35 -40 -14 -28 -45 -42 -45 -21 0 5 -12 23 -26 40 -20 24 -34 31 -62 31 -42 0 -102 -32 -102 -55 0 -24 -44 -18 -70 9 -23 25 -38 83 -32 122 5 34 66 94 96 94 23 0 26 -4 26 -35 0 -45 32 -75 80 -75 57 0 80 28 80 99 0 51 -3 61 -30 86 -16 16 -30 25 -30 20 0 -5 -5 -4 -12 3 -7 7 -20 12 -30 12 -41 0 -3 89 56 132 35 26 47 29 84 24 23 -3 55 -12 71 -21z m-155 -201 c22 -21 31 -64 19 -83 -12 -19 -66 -36 -87 -28 -20 8 -20 36 0 58 12 13 13 22 5 38 -6 11 -11 22 -11 25 0 13 60 5 74 -10z m218 -9 c-2 -9 4 -25 13 -35 10 -11 15 -30 13 -47 -2 -22 -9 -29 -31 -31 -60 -7 -102 49 -72 94 27 41 83 56 77 19z m-502 -160 c0 -8 -7 -15 -15 -15 -8 0 -15 7 -15 15 0 8 7 15 15 15 8 0 15 -7 15 -15z m750 -16 c0 -6 -4 -7 -10 -4 -5 3 -10 11 -10 16 0 6 5 7 10 4 6 -3 10 -11 10 -16z m-474 -77 c39 -33 59 -92 30 -92 -21 0 -66 40 -77 67 -16 43 9 57 47 25z m204 0 c0 -18 -63 -82 -81 -82 -28 0 -23 27 10 61 27 26 71 40 71 21z m-317 -92 c-3 -11 -7 -20 -9 -20 -2 0 -4 9 -4 20 0 11 4 20 9 20 5 0 7 -9 4 -20z m364 -47 c-4 -3 -7 0 -7 7 0 7 3 10 7 7 3 -4 3 -10 0 -14z m-450 -10 c-4 -3 -7 0 -7 7 0 7 3 10 7 7 3 -4 3 -10 0 -14z m190 -10 c-4 -3 -7 0 -7 7 0 7 3 10 7 7 3 -4 3 -10 0 -14z m-66 -33 c48 -48 90 -63 162 -58 50 3 71 10 110 37 l48 33 56 -34 c85 -51 185 -168 143 -168 -5 0 -10 -23 -10 -51 0 -31 -4 -48 -10 -44 -5 3 -10 26 -10 50 0 24 -4 47 -10 50 -6 4 -10 -11 -10 -37 0 -31 -3 -39 -10 -28 -5 8 -10 32 -10 53 0 25 -5 37 -14 37 -7 0 -19 6 -25 14 -17 20 -59 26 -66 8 -4 -11 -8 -12 -20 -2 -13 11 -15 3 -16 -61 -1 -41 -1 -78 0 -82 1 -5 -3 -6 -9 -2 -5 3 -10 36 -10 73 0 37 -5 74 -10 82 -7 11 -10 -5 -10 -52 0 -39 -4 -68 -10 -68 -6 0 -10 30 -10 70 0 53 -3 70 -14 70 -10 0 -12 -12 -9 -47 4 -44 3 -46 -11 -30 -8 11 -13 28 -11 39 3 12 0 28 -5 37 -7 12 -9 8 -10 -17 0 -22 -4 -32 -12 -29 -7 2 -13 11 -13 20 0 8 -4 19 -8 23 -4 4 -7 -2 -7 -14 0 -12 -4 -22 -10 -22 -5 0 -10 9 -10 19 0 11 -4 23 -10 26 -6 4 -10 -6 -10 -24 0 -16 -4 -33 -10 -36 -6 -4 -10 8 -10 29 0 20 -4 36 -10 36 -10 0 -14 -27 -11 -62 1 -10 -2 -26 -8 -35 -8 -14 -11 -15 -11 -3 -1 28 -12 95 -16 99 -4 5 -7 -79 -4 -116 1 -13 -3 -23 -9 -23 -7 0 -11 25 -11 64 0 36 -4 68 -10 71 -6 4 -10 -27 -10 -85 0 -58 -4 -89 -10 -85 -5 3 -10 43 -10 87 0 110 -13 91 -16 -23 -4 -111 -14 -130 -15 -28 -1 41 -4 88 -8 104 -7 30 -7 30 -14 5 -4 -18 -9 -22 -17 -14 -15 15 -60 5 -60 -12 0 -8 -7 -14 -15 -14 -11 0 -15 -12 -15 -44 0 -25 -4 -48 -10 -51 -6 -4 -10 8 -10 29 0 20 -4 36 -10 36 -5 0 -10 -6 -10 -12 -1 -16 -30 21 -30 37 0 27 193 205 222 205 5 0 23 -13 39 -30z m96 3 c-4 -3 -7 0 -7 7 0 7 3 10 7 7 3 -4 3 -10 0 -14z m-290 -55 c-3 -7 -5 -2 -5 12 0 14 2 19 5 13 2 -7 2 -19 0 -25z m891 3 c46 -12 132 -67 193 -123 36 -34 99 -121 99 -139 0 -5 -18 -16 -39 -25 -45 -18 -91 -79 -91 -122 0 -34 23 -68 58 -86 64 -32 110 38 60 92 -23 23 -23 24 -4 38 34 25 54 17 65 -23 10 -43 23 -203 16 -203 -3 0 -14 9 -26 21 -21 21 -21 21 -42 1 -37 -32 -46 -34 -73 -13 -14 11 -32 17 -40 14 -9 -3 -14 1 -14 11 0 22 -29 66 -44 66 -6 0 -13 11 -14 26 -1 14 -6 34 -12 44 -5 10 -10 28 -10 39 0 27 -16 35 -62 32 -30 -1 -36 1 -32 13 3 8 14 18 25 21 10 4 19 10 19 15 0 4 20 20 45 34 35 21 52 25 83 20 25 -4 42 -2 47 5 11 19 -53 70 -96 77 -39 7 -39 7 -39 54 0 35 -5 52 -21 66 -21 19 -22 19 -33 0 -20 -35 -55 -66 -74 -66 -13 0 -29 19 -50 60 -18 33 -32 63 -32 66 0 8 86 -1 138 -15z m-1054 -75 c8 -18 30 -46 50 -61 29 -22 36 -34 34 -54 -2 -14 -10 -27 -19 -29 -27 -5 -78 46 -85 85 -5 24 -9 31 -15 21 -12 -19 -12 13 1 46 12 34 17 33 34 -8z m1096 -59 c0 -12 -8 -34 -17 -47 -42 -59 -63 -75 -63 -45 0 8 -4 15 -9 15 -5 0 -14 -7 -21 -15 -16 -19 -34 -19 -50 0 -18 22 10 50 70 70 27 9 54 23 60 31 18 21 30 17 30 -9z m-863 -14 c-4 -3 -7 0 -7 7 0 7 3 10 7 7 3 -4 3 -10 0 -14z m-250 -33 c16 -30 18 -38 6 -31 -17 9 -47 71 -35 71 4 0 17 -18 29 -40z m-85 20 c13 -6 33 -26 45 -45 13 -19 34 -37 48 -41 26 -6 35 -24 13 -24 -16 0 -72 34 -101 61 -12 11 -32 22 -44 25 -23 6 -29 15 -16 27 9 10 29 9 55 -3z m646 -15 c3 -3 8 -22 11 -42 5 -30 11 -37 25 -35 18 3 66 -40 66 -60 0 -15 -18 -8 -26 10 -6 13 -9 10 -14 -18 l-7 -35 -2 32 c-1 40 -21 55 -21 16 -1 -25 -2 -24 -15 12 -8 22 -15 42 -16 45 -1 3 -5 -13 -9 -35 l-6 -40 -8 40 c-11 57 -17 73 -23 58 -3 -7 -13 -13 -24 -13 -10 0 -19 -4 -19 -10 0 -5 -7 -10 -15 -10 -8 0 -15 -8 -16 -17 0 -15 -2 -15 -9 2 -7 19 -8 19 -15 2 -4 -10 -14 -16 -21 -13 -7 3 -16 -4 -19 -15 -4 -10 -13 -19 -21 -19 -26 0 -14 28 26 60 33 26 43 29 60 20 18 -10 20 -8 20 19 0 41 26 64 63 57 17 -3 33 -8 35 -11z m149 -77 c-2 -13 -4 -3 -4 22 0 25 2 35 4 23 2 -13 2 -33 0 -45z m-557 38 c0 -3 -4 -8 -10 -11 -5 -3 -10 -1 -10 4 0 6 5 11 10 11 6 0 10 -2 10 -4z m1003 -12 c-18 -9 -43 -27 -56 -39 -24 -24 -77 -44 -77 -29 0 8 30 29 104 71 11 7 30 13 41 13 15 0 12 -4 -12 -16z m-863 -21 c0 -20 -3 -24 -11 -16 -7 7 -9 19 -6 27 10 24 17 19 17 -11z m-40 -33 c0 -22 -4 -40 -8 -40 -5 0 -8 17 -6 38 3 45 3 42 9 42 3 0 5 -18 5 -40z m-203 13 c-4 -3 -7 0 -7 7 0 7 3 10 7 7 3 -4 3 -10 0 -14z m690 -15 c-3 -7 -5 -2 -5 12 0 14 2 19 5 13 2 -7 2 -19 0 -25z m40 -15 c-3 -10 -5 -2 -5 17 0 19 2 27 5 18 2 -10 2 -26 0 -35z m39 -22 c2 -22 -1 -43 -6 -46 -5 -3 -9 17 -8 45 0 60 8 60 14 1z m-627 -3 c1 -5 -3 -8 -9 -8 -5 0 -10 12 -9 28 0 24 1 25 9 7 5 -11 9 -23 9 -27z m-401 5 c18 -11 22 -22 20 -46 -3 -28 -7 -32 -33 -32 -23 0 -31 5 -33 23 -3 17 2 22 17 22 27 0 19 20 -17 43 -27 18 -27 18 -2 11 14 -3 35 -13 48 -21z m272 13 c0 -7 -9 -16 -20 -19 -25 -6 -26 8 -2 22 22 13 22 13 22 -3z m147 -33 c-3 -10 -5 -4 -5 12 0 17 2 24 5 18 2 -7 2 -21 0 -30z m640 20 c-4 -3 -7 0 -7 7 0 7 3 10 7 7 3 -4 3 -10 0 -14z m-600 -55 c-3 -7 -5 -2 -5 12 0 14 2 19 5 13 2 -7 2 -19 0 -25z m-581 -15 c-11 -11 -17 4 -9 23 7 18 8 18 11 1 2 -10 1 -21 -2 -24z m986 5 c-9 -9 -12 -7 -12 12 0 19 3 21 12 12 9 -9 9 -15 0 -24z m-668 1 c41 -24 50 -44 40 -95 -6 -34 -5 -36 12 -29 10 4 33 10 49 12 38 5 75 -27 75 -64 l0 -26 -23 21 c-29 28 -57 28 -91 1 -21 -16 -26 -29 -26 -62 l0 -42 -21 33 c-12 17 -23 32 -25 32 -8 0 27 -74 43 -92 22 -24 12 -31 -16 -12 -12 9 -35 43 -51 77 -38 77 -56 97 -91 97 -36 0 -40 8 -24 48 15 35 34 40 69 16 30 -19 43 -3 22 27 -14 21 -12 42 7 67 12 15 10 16 51 -9z m313 9 c4 -7 8 -44 10 -83 l2 -70 -19 70 c-22 81 -23 95 -11 95 6 0 13 -6 18 -12z m281 -43 c30 -29 47 -55 55 -88 16 -61 31 -64 37 -7 3 25 11 54 18 65 11 18 12 17 6 -10 -3 -16 -7 -35 -9 -40 -5 -20 16 -128 32 -159 20 -39 66 -84 99 -96 14 -6 47 -10 73 -10 42 0 54 5 94 41 26 22 56 61 67 86 23 53 23 53 10 53 -5 0 -18 -16 -28 -37 l-19 -36 -23 41 c-26 46 -67 67 -104 52 -13 -5 -27 -14 -31 -19 -14 -24 -22 -9 -9 17 23 48 89 63 131 30 19 -15 30 -2 36 44 6 45 45 88 80 88 25 0 44 -46 29 -71 -7 -10 -12 -28 -12 -39 0 -16 7 -20 35 -20 24 0 37 -6 45 -19 17 -33 12 -39 -28 -34 -45 6 -71 -14 -118 -88 -52 -83 -122 -124 -186 -109 -59 14 -90 30 -119 62 -16 17 -32 28 -36 24 -8 -8 36 -97 56 -113 24 -19 33 -15 20 8 -9 17 -8 20 3 17 13 -5 61 -68 55 -74 -2 -2 -20 1 -40 7 -24 6 -49 25 -73 54 -20 25 -40 45 -45 45 -12 0 -12 -43 0 -56 5 -5 11 -25 13 -44 2 -21 8 -34 16 -32 6 1 12 -8 12 -19 0 -18 2 -19 15 -9 12 10 15 10 15 -4 0 -9 6 -16 14 -16 8 0 17 -7 20 -16 3 -8 10 -12 16 -9 5 3 10 1 10 -4 0 -6 -7 -11 -15 -11 -22 0 -164 101 -170 121 -5 13 -14 16 -40 13 -28 -3 -35 -1 -35 13 0 13 -3 14 -12 5 -18 -18 -28 -15 -28 10 0 16 -3 19 -11 11 -15 -15 -7 -58 11 -59 36 -2 40 -6 40 -33 0 -16 -9 -39 -19 -52 l-19 -24 -31 29 c-20 19 -31 40 -33 64 -4 43 -25 54 -34 17 -8 -30 -30 -28 -27 4 4 31 -12 26 -61 -19 -44 -41 -165 -102 -225 -114 -39 -7 -103 2 -96 14 3 4 33 8 68 8 38 0 75 6 94 15 17 9 33 13 37 10 3 -4 6 4 6 16 0 17 4 21 15 17 9 -3 15 0 15 9 0 8 7 15 15 15 9 0 15 9 15 21 0 15 4 19 16 15 11 -4 18 1 21 14 3 11 10 20 15 20 5 0 8 15 6 32 -4 43 -31 49 -47 11 -10 -23 -82 -73 -106 -73 -10 0 -4 35 9 53 19 25 39 22 30 -5 l-7 -23 23 20 c20 18 80 100 80 110 0 7 -33 -7 -60 -26 -14 -9 -48 -24 -75 -32 -44 -12 -55 -12 -92 0 -53 18 -57 35 -6 21 89 -24 184 26 229 121 23 48 26 64 21 125 -3 43 -1 63 4 53 5 -8 10 -39 12 -68 3 -68 22 -75 31 -11 5 41 13 56 49 88 69 64 88 64 155 -1z m-952 29 c-4 -11 1 -18 14 -21 11 -3 20 -12 20 -20 0 -13 -3 -13 -15 -3 -13 11 -15 7 -15 -29 0 -54 -26 -58 -28 -3 -3 49 7 92 20 92 6 0 7 -7 4 -16z m1124 5 c0 -20 -31 -119 -39 -124 -5 -2 -5 15 0 38 4 24 3 43 -2 45 -5 2 -1 14 9 27 18 26 32 32 32 14z m-607 -13 c18 2 27 -2 27 -12 0 -8 -4 -13 -10 -9 -5 3 -26 -1 -46 -10 -41 -17 -54 -13 -54 17 0 17 2 18 15 8 12 -10 15 -9 15 5 0 12 4 15 13 8 6 -5 24 -8 40 -7z m1160 -28 c27 -16 37 -29 31 -40 -9 -14 -36 -9 -50 10 -13 17 -19 42 -9 42 3 0 15 -6 28 -12z m-383 -24 c0 -18 -19 -18 -43 1 -18 13 -17 14 5 17 29 5 38 1 38 -18z m593 -112 c-3 -20 -9 -44 -14 -52 -10 -16 -10 114 0 140 8 23 19 -45 14 -88z m-1843 47 c0 -18 -4 -28 -10 -24 -5 3 -10 20 -10 36 0 18 4 28 10 24 6 -3 10 -20 10 -36z m577 9 c-3 -7 -5 -2 -5 12 0 14 2 19 5 13 2 -7 2 -19 0 -25z m550 15 c-4 -3 -7 0 -7 7 0 7 3 10 7 7 3 -4 3 -10 0 -14z m-567 -32 c0 -6 -4 -13 -10 -16 -5 -3 -10 1 -10 9 0 9 5 16 10 16 6 0 10 -4 10 -9z m27 -67 c-6 -47 -17 -36 -16 17 0 45 2 50 10 30 5 -13 8 -34 6 -47z m460 49 c-4 -3 -7 0 -7 7 0 7 3 10 7 7 3 -4 3 -10 0 -14z m-990 -55 c-3 -8 -6 -5 -6 6 -1 11 2 17 5 13 3 -3 4 -12 1 -19z m1030 0 c-3 -8 -6 -5 -6 6 -1 11 2 17 5 13 3 -3 4 -12 1 -19z m-658 -25 c0 -33 -1 -35 -9 -15 -8 20 -4 52 6 52 2 0 4 -17 3 -37z m31 -25 c0 -29 -4 -48 -9 -42 -8 8 -3 94 5 94 2 0 4 -23 4 -52z m1069 16 c23 -21 -10 -52 -49 -46 l-30 4 0 -68 c1 -38 7 -87 15 -109 20 -54 20 -51 -26 -82 -34 -22 -52 -27 -107 -27 -71 -1 -161 26 -187 54 -12 13 -9 15 31 12 50 -5 55 6 23 46 l-21 27 22 3 c14 2 34 -7 54 -26 36 -33 125 -86 133 -79 9 10 -27 104 -47 122 -18 16 -16 19 46 100 35 46 70 86 77 88 17 7 49 -2 66 -19z m-1524 -4 c3 -5 -1 -10 -9 -10 -9 0 -16 5 -16 10 0 6 4 10 9 10 6 0 13 -4 16 -10z m522 3 c-4 -3 -10 -3 -14 0 -3 4 0 7 7 7 7 0 10 -3 7 -7z m1089 -38 c4 -26 1 -43 -15 -68 -26 -43 -27 -67 -2 -67 12 0 25 13 35 35 22 46 74 77 61 36 -11 -35 14 -33 46 3 28 32 36 36 81 36 42 0 49 -3 46 -17 -2 -10 -20 -27 -41 -38 -41 -22 -48 -44 -17 -52 49 -13 0 -53 -64 -53 -39 0 -69 -26 -42 -36 9 -4 38 -4 64 0 52 6 95 -9 51 -18 -110 -23 -219 -32 -233 -19 -3 4 12 26 35 49 22 23 36 44 31 48 -5 3 -15 -1 -22 -9 -7 -8 -20 -15 -29 -15 -9 0 -27 -7 -39 -16 -22 -15 -24 -15 -38 2 -31 40 -3 158 55 228 18 21 29 12 37 -29z m-1086 10 c0 -8 -4 -15 -10 -15 -5 0 -10 7 -10 15 0 8 5 15 10 15 6 0 10 -7 10 -15z m-103 -27 c-3 -8 -6 -5 -6 6 -1 11 2 17 5 13 3 -3 4 -12 1 -19z m736 7 c4 -8 2 -17 -3 -20 -6 -4 -10 3 -10 14 0 25 6 27 13 6z m-921 -85 c-2 -16 -6 -30 -8 -30 -2 0 -4 14 -4 30 0 17 4 30 8 30 5 0 7 -13 4 -30z m149 -23 c24 4 28 3 23 -10 -3 -9 -20 -21 -37 -28 -18 -7 -35 -14 -39 -17 -12 -6 -9 27 4 51 7 13 13 17 15 10 3 -8 15 -10 34 -6z m937 -57 c11 0 25 -30 18 -38 -8 -7 -86 52 -86 66 0 9 9 7 29 -7 16 -12 34 -21 39 -21z m537 -50 c3 -5 1 -10 -4 -10 -6 0 -11 5 -11 10 0 6 2 10 4 10 3 0 8 -4 11 -10z m93 -20 c45 -27 40 -34 -5 -8 -47 27 -49 28 -37 28 5 0 24 -9 42 -20z m-1814 -57 c-10 -7 -20 -10 -23 -7 -3 3 -1 8 5 12 6 4 14 16 19 27 8 20 8 20 13 1 2 -12 -3 -25 -14 -33z m1841 -23 c-3 -5 -12 -10 -18 -10 -7 0 -6 4 3 10 19 12 23 12 15 0z"
       id="path2"
       style="fill:#000000" />
    <path
       d="M1110 2024 c0 -3 5 -15 11 -26 11 -20 9 -21 -19 -15 -46 9 -47 -7 -3 -36 26 -17 41 -36 46 -57 9 -39 18 -38 33 4 9 25 22 37 52 49 42 16 54 37 21 37 -11 0 -31 -4 -45 -10 -29 -11 -33 -2 -15 32 13 24 5 35 -15 19 -11 -9 -20 -10 -35 -2 -22 12 -31 14 -31 5z"
       id="path4"
       style="fill:#000000" />
    <path
       d="M1150 1825 c0 -8 5 -15 10 -15 6 0 10 7 10 15 0 8 -4 15 -10 15 -5 0 -10 -7 -10 -15z"
       id="path6"
       style="fill:#000000" />
    <path
       d="M931 1763 c-2 -24 -4 -28 -20 -41 -15 -11 -14 -13 2 -23 9 -5 17 -19 17 -29 0 -19 1 -19 33 0 17 11 40 20 50 20 9 0 17 5 17 10 0 6 -7 10 -16 10 -23 0 -73 31 -77 49 -3 9 -5 10 -6 4z"
       id="path8"
       style="fill:#000000" />
    <path
       d="M1384 1745 c-4 -9 -25 -25 -48 -37 -37 -19 -39 -22 -22 -32 11 -6 28 -19 38 -28 24 -24 42 -23 35 2 -5 19 3 24 31 21 17 -2 15 26 -2 32 -9 4 -12 14 -9 25 6 24 -15 39 -23 17z"
       id="path10"
       style="fill:#000000" />
    <path
       d="M1137 1732 c-22 -24 -21 -38 4 -65 l20 -22 19 25 c24 31 24 35 3 60 -21 25 -26 25 -46 2z"
       id="path12"
       style="fill:#000000" />
    <path
       d="M1110 986 c0 -2 7 -6 15 -10 8 -3 15 -1 15 4 0 6 -7 10 -15 10 -8 0 -15 -2 -15 -4z"
       id="path14"
       style="fill:#000000" />
    <path
       d="M1100 946 c0 -8 6 -16 13 -18 6 -3 -3 -5 -20 -5 -18 0 -36 -3 -40 -7 -12 -12 16 -23 78 -29 58 -7 89 -2 89 13 0 9 -38 23 -60 21 -11 0 -11 1 -2 5 10 5 10 9 1 20 -15 18 -59 18 -59 0z"
       id="path16"
       style="fill:#000000" />
    <path
       d="M1092 859 c-32 -13 -17 -32 19 -24 18 4 36 2 44 -5 14 -12 35 -6 35 9 0 9 -46 31 -63 30 -7 0 -22 -4 -35 -10z"
       id="path18"
       style="fill:#000000" />
    <path
       d="M998 763 c-16 -8 -28 -21 -28 -29 0 -8 4 -12 10 -9 13 8 112 -22 122 -38 5 -8 8 -6 8 7 0 27 -48 86 -68 85 -9 -1 -29 -8 -44 -16z"
       id="path20"
       style="fill:#000000" />
    <path
       d="M1222 770 c-39 -9 -72 -36 -72 -60 0 -20 33 -37 38 -21 2 6 21 15 43 21 69 19 60 75 -9 60z"
       id="path22"
       style="fill:#000000" />
    <path
       d="M1035 660 c3 -5 18 -10 33 -10 21 0 24 2 12 10 -20 13 -53 13 -45 0z"
       id="path24"
       style="fill:#000000" />
    <path
       d="M1185 660 c-3 -5 3 -10 14 -10 12 0 21 5 21 10 0 6 -6 10 -14 10 -8 0 -18 -4 -21 -10z"
       id="path26"
       style="fill:#000000" />
    <path
       d="M1090 573 c0 -10 5 -25 10 -33 7 -11 10 -7 10 18 0 17 -4 32 -10 32 -5 0 -10 -8 -10 -17z"
       id="path28"
       style="fill:#000000" />
    <path
       d="M167 731 c-2 -11 4 -33 14 -50 10 -17 16 -31 13 -31 -3 0 4 -13 16 -30 l21 -30 -31 0 c-72 0 -131 -46 -133 -105 -1 -40 15 -61 56 -70 26 -7 33 0 28 28 -1 5 3 6 8 3 22 -14 19 13 -4 38 -14 15 -25 32 -25 39 0 19 -20 -16 -20 -35 0 -10 7 -18 15 -18 8 0 15 -6 15 -13 0 -22 -28 -15 -39 10 -16 35 2 71 46 89 33 14 42 14 93 0 69 -19 70 -19 70 -2 0 8 -14 17 -30 21 -17 4 -35 15 -40 25 -14 26 -13 28 13 32 20 3 19 5 -13 26 -19 12 -39 24 -45 26 -5 2 -1 10 10 19 16 13 17 17 6 31 -18 22 -38 20 -44 -3z"
       id="path30"
       style="fill:#000000" />
    <path
       d="M2236 584 c-10 -25 -7 -31 14 -37 13 -3 20 0 20 8 0 20 -11 45 -20 45 -4 0 -11 -7 -14 -16z"
       id="path32"
       style="fill:#000000" />
    <path
       d="M225 470 c-8 -13 -1 -24 14 -19 6 3 7 10 2 18 -6 10 -10 10 -16 1z"
       id="path34"
       style="fill:#000000" />
  </g>
</svg>
